<?xml version="1.0" encoding="UTF-8" standalone="no"?>
<svg
   xmlns:dc="http://purl.org/dc/elements/1.1/"
   xmlns:cc="http://creativecommons.org/ns#"
   xmlns:rdf="http://www.w3.org/1999/02/22-rdf-syntax-ns#"
   xmlns:svg="http://www.w3.org/2000/svg"
   xmlns="http://www.w3.org/2000/svg"
   viewBox="0 0 1184.4 945.59998"
   height="945.59998"
   width="1184.4"
   xml:space="preserve"
   version="1.1"
   id="svg2"><metadata
     id="metadata8"><rdf:RDF><cc:Work
         rdf:about=""><dc:format>image/svg+xml</dc:format><dc:type
           rdf:resource="http://purl.org/dc/dcmitype/StillImage" /><dc:title></dc:title></cc:Work></rdf:RDF></metadata><defs
     id="defs6" /><g
     transform="matrix(1.25,0,0,-1.25,-534.075,1726.2)"
     id="g10"><g
       transform="matrix(8,0,0,8,-2990.82,-4371.36)"
       id="g3632"><path
         d="m 450.6,691.14 -6.36,2.82 -0.48,-0.96 6.36,-2.82"
         style="fill:#000000;fill-opacity:1;fill-rule:evenodd;stroke:none"
         id="path40" /><path
         d="m 450.6,700.62 -1.2,0 -0.24,-0.24 -0.24,0 -0.48,-0.24 -0.24,0 -0.18,-0.24 -0.24,-0.24 -0.24,0 0,-0.24 -0.48,-0.48 0,-0.24 -0.24,-0.24 -0.24,-0.48 0,-1.86 0.24,-0.24 0,-0.48 0.96,-0.96 0.42,-0.24 0.48,-0.48 0.48,0 0.24,-0.24 1.44,0 0.24,0.24 0.42,0 0.24,0.24 0.48,0 0.72,0.72 0.24,0.48 0.24,0.24 0.24,0.48 0,0.72 0.24,0.18 0,0.24 -0.24,0.24 0,0.96 -0.24,0.24 0,0.24 -0.72,-1.2 0,-1.38 -0.24,-0.24 0,-0.24 -0.96,-0.96 -0.42,0 -0.24,-0.24 -1.2,0 -0.24,0.24 -0.24,0 -0.24,0.24 -0.24,0 -0.48,0.48 -0.18,0 0,0.24 -0.24,0.24 0,0.24 -0.24,0.24 0,1.38 0.24,0.24 0,0.24 0.24,0.24 0,0.24 0.18,0.24 0.24,0.24 0.24,0 0.24,0.24 0.48,0 0.48,0.24"
         style="fill:#000000;fill-opacity:1;fill-rule:evenodd;stroke:none"
         id="path42" /><path
         d="m 459.3,702.24 -6.84,3.06 -0.72,-0.72 3.3,-6.6 0.72,0.72 -0.96,1.92 1.68,1.86 2.1,-0.96 0.72,0.72 z m -4.98,-0.72 -1.14,2.4 2.58,-1.2"
         style="fill:#000000;fill-opacity:1;fill-rule:evenodd;stroke:none"
         id="path44" /><path
         d="m 463.32,709.56 -0.72,0.72 -0.48,0.24 -0.24,0 -0.24,0.24 -0.72,0 -0.42,0.24 -0.24,0 -0.48,-0.24 -0.48,0 -0.48,-0.24 -0.24,-0.24 -0.48,0 -0.24,-0.24 -0.24,-0.48 -0.24,-0.24 -0.18,-0.24 -0.24,-0.24 0,-0.66 -0.24,-0.48 0,-0.96 0.24,-0.24 0,-0.48 0.24,-0.24 0,-0.24 0.18,-0.24 0.24,-0.48 0.24,-0.24 0.48,0 0.24,-0.18 0.24,-0.24 0.24,0 0.48,-0.24 1.62,0 0.48,0.24 0.24,0 0.48,0.24 0.24,0.18 0.96,0.96 0.18,0.48 0,0.24 0.24,0.24 0,1.68 -0.24,0.42 0,0.24 -0.18,0.24 -0.24,0.48 z m -0.72,-0.72 0,-0.24 0.24,-0.18 0,-0.24 0.24,-0.24 0,-1.2 -0.24,-0.24 0,-0.24 -0.48,-0.48 0,-0.24 -0.48,-0.24 -0.48,-0.48 -1.86,0 -0.24,0.24 -0.24,0 0,0.24 -0.24,0 -0.24,0.24 -0.24,0 0,0.24 -0.24,0.24 0,0.24 -0.24,0.24 0,0.48 -0.24,0.24 0,0.72 0.24,0.24 0,0.42 0.72,0.72 0.24,0 0.48,0.48 0.48,0 0.24,0.24 0.66,0 0.24,-0.24 0.48,0 0.24,-0.24 0.24,0 0,-0.24 0.24,-0.24 0.24,0"
         style="fill:#000000;fill-opacity:1;fill-rule:evenodd;stroke:none"
         id="path46" /><path
         d="m 468,710.52 -0.96,0 0,0.24 -0.24,0 0,0.96 0.24,0 0,0.24 0.96,0 0,-0.24 0.24,0 0,-0.96 -0.24,-0.24 z m 0.24,-0.48 0.48,0.48 0,0.24 0.24,0.24 0,0.48 -0.24,0.24 0,0.24 -0.24,0.24 -0.24,0.18 -0.48,0 -0.24,0.24 -0.24,-0.24 -0.24,0 -0.24,-0.18 -0.18,0 -0.24,-0.24 0,-0.24 -0.24,-0.24 0,-0.48 0.24,-0.24 0,-0.24 0.24,-0.24 0.18,-0.24 0.24,0 0.24,-0.24 0.24,0 0.24,0.24"
         style="fill:#000000;fill-opacity:1;fill-rule:evenodd;stroke:none"
         id="path48" /><path
         d="m 479.1,715.26 -0.24,0.24 0,0.24 -0.24,0.48 -0.24,0.18 -0.96,0.96 -0.48,0 -0.24,0.24 -0.66,0 -0.24,0.24 -0.48,0 -0.48,-0.24 -0.72,0 -0.24,-0.24 -0.48,-0.24 -0.24,-0.24 -0.18,-0.24 -0.24,-0.24 -0.24,-0.18 -0.24,-0.24 0,-0.24 -0.24,-0.48 0,-0.24 -0.24,-0.24 0,-0.72 0.24,-0.48 0,-0.72 0.48,-0.48 0.24,-0.18 0,-0.24 0.42,-0.24 0.72,-0.72 0.48,0 0.24,-0.24 1.86,0 0.24,0.24 0.48,0 1.2,1.2 0.24,0.18 0.24,0.48 0,0.24 0.24,0.24 0,1.44 0,0.48 z m -0.96,-0.48 0,-1.2 -0.24,-0.24 0,-0.24 -0.24,-0.24 0,-0.24 -0.24,-0.24 -0.24,-0.18 -0.24,0 -0.48,-0.48 -1.86,0 -0.48,0.48 -0.24,0 -0.24,0.18 -0.48,0.48 0,0.24 -0.18,0.24 0,1.92 0.18,0.24 0,0.24 0.24,0 0.24,0.24 0,0.24 0.24,0.18 0.24,0 0.48,0.24 0.24,0 0.24,0.24 0.96,0 0.18,-0.24 0.24,0 0.24,-0.24 0.24,0 0.24,-0.18 0.48,-0.48 0,-0.24 0.24,-0.24 0,-0.24"
         style="fill:#000000;fill-opacity:1;fill-rule:evenodd;stroke:none"
         id="path50" /><path
         d="m 486.6,712.2 -3.06,6.6 -0.96,0 -2.1,-6.84 0.96,0 0.72,2.1 2.34,0 0.9,-1.86 1.2,0 z m -4.26,2.82 0.72,2.58 1.2,-2.58"
         style="fill:#000000;fill-opacity:1;fill-rule:evenodd;stroke:none"
         id="path52" /><path
         d="m 494.4,716.88 -0.48,0.48 0,0.24 -0.24,0.24 -0.24,0 -0.72,0.72 -0.24,0 -0.24,0.24 -0.9,0 -0.48,0.24 -0.24,-0.24 -0.72,0 -0.48,-0.24 -0.24,0 -0.48,-0.48 -0.18,-0.24 -0.72,-0.72 -0.24,-0.48 0,-0.66 -0.24,-0.24 0,-0.48 0.24,-0.24 0,-0.72 0.24,-0.48 0,-0.24 0.72,-0.72 0.18,-0.24 0.24,-0.24 0.48,-0.18 0.24,0 0.24,-0.24 2.1,0 0.48,0.24 0.48,0.18 0.24,0 0,0.24 0.48,0.48 0.24,0 0,0.24 -1.2,0.24 -0.48,-0.48 -0.24,0 -0.24,-0.24 -1.62,0 -0.24,0.24 -0.24,0 -0.48,0.48 -0.24,0 0,0.24 -0.24,0.24 0,0.24 -0.18,0.24 0,1.86 0.18,0.24 0,0.24 0.24,0 0.24,0.24 0,0.24 0.24,0.24 0.24,0 0.24,0.24 0.48,0 0.24,0.24 0.72,0 0.24,-0.24 0.42,0 0.24,-0.24 0.24,0 0.72,-0.72"
         style="fill:#000000;fill-opacity:1;fill-rule:evenodd;stroke:none"
         id="path54" /><path
         d="m 496.02,711 1.68,6.6 -0.96,0.24 -1.68,-6.6"
         style="fill:#000000;fill-opacity:1;fill-rule:evenodd;stroke:none"
         id="path56" /><path
         d="m 501.42,711.96 -0.42,0.42 0,0.72 0.18,0.24 0.24,0 0,0.24 0.48,0 0.48,-0.48 0,-0.72 -0.24,-0.18 -0.24,0 0,-0.24 -0.48,0 z m -0.24,-0.48 0.96,0 0.48,0.48 0.24,0 0,0.42 0.24,0.24 0,0.48 -0.24,0.24 0,0.24 -0.24,0.24 -0.24,0 -0.24,0.24 -0.96,0 -0.18,-0.24 -0.24,-0.24 -0.24,0 0,-0.24 -0.24,-0.48 0,-0.48 0.24,-0.18 0,-0.24 0.24,0 0.24,-0.24"
         style="fill:#000000;fill-opacity:1;fill-rule:evenodd;stroke:none"
         id="path58" /><path
         d="m 504.96,708.18 3.54,5.64 0.96,-0.48 -2.82,-4.5 5.64,2.88 0.96,-0.48 -3.54,-5.94 -0.96,0.48 2.82,4.5 -5.64,-2.82"
         style="fill:#000000;fill-opacity:1;fill-rule:evenodd;stroke:none"
         id="path60" /><path
         d="m 515.1,701.04 0,4.5 4.5,0.72 -0.96,0.96 -4.26,-0.96 -0.24,0 2.4,2.58 -0.72,0.48 -4.5,-5.16 0.72,-0.48 2.1,2.58 0.24,0 -0.24,-4.26"
         style="fill:#000000;fill-opacity:1;fill-rule:evenodd;stroke:none"
         id="path62" /><path
         d="m 519.36,696.36 3.48,6.6 -0.66,0.48 -6.84,-2.64 0.72,-0.66 1.86,0.66 1.68,-1.86 -0.96,-1.92 0.72,-0.66 z m -0.48,4.92 2.58,0.96 -1.44,-2.34"
         style="fill:#000000;fill-opacity:1;fill-rule:evenodd;stroke:none"
         id="path64" /><path
         d="m 526.14,691.62 0.48,0.24 0.24,0.24 0.48,0.48 0.24,0.42 0,0.24 0.24,0.24 0,0.48 0.24,0.24 0,1.44 -0.24,0.24 0,0.48 -0.24,0.24 -0.24,0.18 -0.24,0.48 -0.24,0.24 -0.48,0.24 -0.24,0 -0.24,0.24 -0.42,0 -0.24,0.24 -1.68,0 -0.48,-0.24 -0.24,0 -0.18,-0.24 -0.48,-0.24 -0.72,-0.72 -0.24,-0.18 0,-0.24 -0.24,-0.48 0,-0.24 -0.24,-0.24 0,-1.2 0.24,-0.24 0,-0.48 0.24,-0.24 0,-0.24 0.24,-0.42 0.48,-0.48 0.48,-0.24 0.24,-0.24 0.18,0 0.48,-0.24 0.24,0 0.24,-0.24 1.2,0 0.24,0.24 0.48,0 0.18,0.24 0.24,0 z m -0.42,0.96 -0.24,0 0,-0.24 -0.72,0 -0.24,-0.24 -0.24,0 -0.48,0.24 -0.72,0 -0.24,0.24 -0.18,0.24 -0.24,0 0,0.18 -0.24,0.48 -0.24,0.24 0,0.24 -0.24,0.24 0,0.96 0.24,0.48 0.24,0.24 0,0.24 0.9,0.9 0.24,0 0.24,0.24 1.92,0 0.24,-0.24 0.18,0 0.24,-0.24 0.24,-0.18 0.24,-0.24 0,-0.24 0.24,-0.24 0,-0.24 0.24,-0.24 0,-1.2 -0.24,-0.24 0,-0.24 -0.24,-0.24 0,-0.24 -0.24,0 0,-0.24 -0.24,-0.18 -0.24,-0.24"
         style="fill:#000000;fill-opacity:1;fill-rule:evenodd;stroke:none"
         id="path66" /><path
         d="m 485.88,629.22 0,-0.48 0.24,0 0,-0.24 0.72,0 0,0.24 0.24,0 0,0.72 -0.48,0.48 -0.24,0 -0.24,-0.24 -0.24,0 0,-0.48 z m -0.48,0 0,0.48 0.24,0 0,0.24 0.24,0.24 1.2,0 0.24,-0.24 0,-0.24 0.24,0 0,-0.96 -0.48,-0.48 -1.2,0 -0.48,0.48 0,0.24"
         style="fill:#000000;fill-opacity:1;fill-rule:evenodd;stroke:none"
         id="path68" /><path
         d="m 493.92,627.54 1.38,0 0,0.24 0.24,0 -0.24,0.24 0,0.24 -0.24,0.24 0,0.24 -0.9,0 0,-0.24 -0.24,0 0,-0.72 0,-0.24 z m -0.48,-2.82 0,0.24 0.24,0 0.24,-0.24 0.24,0 0.24,0.24 0.42,0 0.48,0.24 0.24,0 0,0.24 0.24,0.24 0,0.24 0.24,0 0,0.72 -0.24,0.24 0,0.18 -0.24,0 -0.24,-0.18 -0.66,0 -0.48,-0.24 -0.96,0 0,0.42 -0.24,0.48 0.24,0.24 0,1.2 0.24,0.24 0,0.24 0.24,0 0.24,0.24 0,0.24 0.24,0 0.24,0.24 0.42,0 0.24,-0.24 0.24,0 0.24,-0.24 0.24,0 0,-0.24 0.72,-0.72 0,-0.48 0.24,-0.24 0,-0.48 0.24,-0.48 0,-0.9 -0.24,-0.24 0,-0.24 -0.48,-0.48 0,-0.24 -0.24,0 -0.24,-0.24 -0.24,0 -0.24,-0.24 -1.38,0"
         style="fill:#000000;fill-opacity:1;fill-rule:evenodd;stroke:none"
         id="path70" /><path
         d="m 525.48,644.34 0,0.48 0.24,0.24 0.18,0 0,0.24 0.48,0 0,-0.24 0.24,0 0.24,-0.24 0,-0.72 -0.48,-0.48 -0.48,0 -0.18,0.24 -0.24,0.24 0,0.24"
         style="fill:#000000;fill-opacity:1;fill-rule:evenodd;stroke:none"
         id="path72" /><path
         d="m 526.86,646.26 0,0.42 0.24,0 0,0.24 0.96,0 0,-0.24 0.24,0 0,-0.9 -0.24,0 0,-0.24 -0.96,0 0,0.24 -0.24,0 0,0.24"
         style="fill:#000000;fill-opacity:1;fill-rule:evenodd;stroke:none"
         id="path74" /><path
         d="m 522.84,655.44 0.24,0.72 0.48,0.96 5.22,-5.22 -0.48,-0.96 -4.5,4.5 -0.48,-0.48"
         style="fill:#000000;fill-opacity:1;fill-rule:evenodd;stroke:none"
         id="path76" /><path
         d="m 491.58,675.3 -0.72,0 0,0.96 -0.24,0.48 0,0.24 -0.24,0.42 -0.24,0.48 -0.72,0.72 -0.48,0.24 -0.24,0.24 -0.42,0.24 -0.48,0.24 -0.72,0 -0.48,0.24 0,0.48 0.48,0 0.48,-0.24 0.48,0 0.48,-0.24 0.42,-0.24 0.24,-0.24 0.96,-0.48 0.24,-0.48 0.24,-0.24 0.24,-0.48 0.24,-0.42 0.24,-0.48 0,-0.48 0.24,-0.48 0,-0.48 z m -4.98,-4.74 0,0.48 0.48,0 0.24,0.24 0.48,0 0.48,0.24 0.42,0 0.24,0.24 0.48,0.24 0.24,0.48 0.48,0.48 0.24,0.48 0.24,0.18 0,0.48 0.24,0.48 0,0.72 0.72,0 0,-0.48 -0.24,-0.48 0,-0.48 -0.24,-0.42 -0.24,-0.24 -0.24,-0.48 -0.24,-0.48 -0.24,-0.24 -0.48,-0.24 -0.72,-0.72 -0.42,-0.24 -0.48,0 -0.48,-0.24 -0.48,0 -0.48,0 z m -4.92,4.74 0.48,0 0,-0.72 0.18,-0.48 0,-0.48 0.24,-0.18 0.24,-0.48 1.2,-1.2 0.48,-0.24 0.24,0 0.48,-0.24 0.42,0 0.48,-0.24 0.48,0 0,-0.48 -1.2,0 -0.42,0.24 -0.48,0 -0.24,0.24 -0.48,0.24 -0.72,0.72 -0.48,0.24 -0.24,0.48 -0.18,0.48 -0.24,0.24 0,0.42 -0.24,0.48 0,0.48 0,0.48 z m 4.92,4.98 0,-0.48 -0.48,-0.24 -0.9,0 -0.48,-0.24 -0.24,-0.24 -0.48,-0.24 -0.24,-0.24 -0.48,-0.24 -0.48,-0.48 -0.24,-0.48 -0.24,-0.42 0,-0.24 -0.18,-0.48 0,-0.96 -0.48,0 0,0.96 0.24,0.48 0,0.48 0.24,0.42 0.18,0.48 0.96,0.96 0.96,0.48 0.24,0.24 0.48,0.24 0.42,0 0.48,0.24"
         style="fill:#000000;fill-opacity:1;fill-rule:nonzero;stroke:none"
         id="path78" /><path
         d="m 471.78,648.84 -1.92,-0.24 -1.38,-0.24 -1.44,0 -1.86,0.24 -1.62,0.48 -1.2,0.48 -1.2,0.9 -0.9,1.2 -1.2,0.96 -0.96,0.96 -0.24,0.48 -0.24,0.18 0,0.24 0.48,-0.42 0.72,-0.48 0.96,-0.48 1.62,-0.48 1.68,-0.48 2.82,-0.72 2.58,-1.2 0.96,-0.42 0.9,-0.24 1.2,-0.24 0.96,0 -0.48,0.48 -1.92,1.14 -1.86,1.44 -0.96,0.72 -0.48,1.14 -0.66,1.68 -0.24,1.92 0,0.18 0.24,0 0,-0.18 0.24,-0.24 1.14,-0.96 1.2,-1.2 0.96,-0.72 0.66,-0.9 1.44,-2.4 1.62,-2.1 0.24,0 0,-0.24 -0.48,0"
         style="fill:#000000;fill-opacity:1;fill-rule:evenodd;stroke:none"
         id="path80" /><path
         d="m 463.56,653.34 -3.54,1.14 -1.2,0.72 -1.2,0.96 -1.14,0.96 -0.72,1.14 -0.72,1.68 -0.72,1.44 -0.42,0.9 -0.48,0.96 0.24,0.48 0.24,-0.48 0.66,-0.96 1.2,-1.14 1.44,-1.44 1.38,-1.2 1.68,-1.14 1.62,-1.44 1.44,-1.44 1.38,-0.66 -0.72,1.14 -1.14,1.68 -0.72,1.2 -0.48,1.14 0,4.26 0.48,-0.48 0.96,-1.14 0.66,-1.68 0.72,-1.68 0.24,-1.86 0,-0.72 0.24,-0.96 0.72,-1.62 0.24,-0.48 -1.44,0.24"
         style="fill:#000000;fill-opacity:1;fill-rule:evenodd;stroke:none"
         id="path82" /><path
         d="m 454.56,664.44 0.72,-0.48 3.06,-3.06 0.96,-0.72 0.48,-0.48 0,0.24 0.24,0 -0.24,1.2 0.24,1.86 0,1.44 -1.92,0 0.24,-0.48 0.48,-1.44 0.24,-0.9 -0.96,1.14 -0.48,0.72 -0.24,0.96"
         style="fill:#000000;fill-opacity:1;fill-rule:evenodd;stroke:none"
         id="path84" /><path
         d="m 453.18,682.62 0.24,1.68 0.24,1.62 0.48,1.44 0.66,1.68 0.96,1.62 0.96,1.2 -0.24,-1.44 -0.48,-1.86 0,-5.94"
         style="fill:#000000;fill-opacity:1;fill-rule:evenodd;stroke:none"
         id="path86" /><path
         d="m 457.2,682.62 1.62,1.44 1.68,1.62 0.9,1.2 0.96,0.96 -0.24,-1.2 -0.72,-1.62 -0.48,-1.2 -0.42,-1.2"
         style="fill:#000000;fill-opacity:1;fill-rule:evenodd;stroke:none"
         id="path88" /><path
         d="m 457.62,692.34 0.72,1.14 0.48,0.96 0.72,0.96 1.38,1.38 0.48,0.24 -0.48,-1.38 -1.14,-2.64 -0.48,-1.86 -0.24,-1.2 -0.48,-1.38 -0.24,-1.44 0.96,1.44 0.96,1.38 1.14,0.96 1.44,0.96 1.62,1.38 1.44,1.44 -0.72,-1.86 -1.44,-2.16 -1.14,-1.2 -1.44,-1.14 -2.34,-2.4 -1.44,-1.38 0,1.62 -0.18,1.44 0,2.34"
         style="fill:#000000;fill-opacity:1;fill-rule:evenodd;stroke:none"
         id="path90" /><path
         d="m 461.88,695.4 0.96,0.96 2.58,1.86 2.82,1.44 -0.72,-0.72 -1.38,-1.68 -1.2,-1.62 -0.72,-0.96 -0.9,-0.96 -2.16,-1.14 -0.66,-0.48 0.42,0.9"
         style="fill:#000000;fill-opacity:1;fill-rule:evenodd;stroke:none"
         id="path92" /><path
         d="m 484.26,648.36 -2.58,0.24 -2.4,0.24 -2.34,-0.24 -2.58,-0.72 -2.34,-0.48 -2.16,-0.24 -2.34,0 -2.1,0.24 -0.48,0 -0.48,0.24 0.24,-0.48 0.48,-0.48 0.72,-0.42 1.62,-0.72 1.92,-0.24 2.1,-0.24 1.86,0 3.06,0.48 3.3,0.9 2.16,0.72 2.34,0.24 1.38,0 1.44,-0.48 1.2,-0.48 1.14,-0.9 2.34,-1.92 2.16,-1.86 0.9,0.24 -1.14,1.38 -1.44,1.2 -1.62,1.2 -1.44,0.66 -3.06,1.2"
         style="fill:#000000;fill-opacity:1;fill-rule:evenodd;stroke:none"
         id="path94" /><path
         d="m 488.52,648.36 2.58,0.24 2.34,0.24 2.34,-0.24 2.58,-0.72 2.16,-0.48 2.1,-0.24 2.1,0 2.4,0.24 0.42,0 0.48,0.24 -0.24,-0.48 -0.66,-0.48 -0.48,-0.42 -1.68,-0.72 -1.86,-0.24 -1.92,-0.24 -1.86,0 -3.3,0.48 -3.06,0.9 -2.1,0.72 -2.16,0.24 -1.38,0 -1.44,-0.48 -1.14,-0.48 -1.2,-0.9 -2.34,-1.92 -2.1,-1.86 -0.96,0.24 1.14,1.38 1.44,1.2 1.62,1.2 1.44,0.66 2.82,1.2"
         style="fill:#000000;fill-opacity:1;fill-rule:evenodd;stroke:none"
         id="path96" /><path
         d="m 509.94,649.08 1.38,0.96 1.92,1.62 1.38,1.68 0.48,0.72 -1.62,-0.96 -2.16,-0.72 -1.86,-0.48 -1.68,-0.48 -2.82,-1.2 -3.78,-1.14 1.68,1.62 1.62,1.44 0.96,0.72 0.48,0.96 0.48,1.14 0.48,0.96 0.24,1.2 -0.24,0.72 -0.72,-0.96 -0.96,-0.96 -1.14,-0.96 -0.72,-0.9 -0.72,-0.96 -0.72,-1.2 -0.48,-0.72 -0.9,-0.96 -0.72,-0.66 -0.72,-0.48 2.34,-0.48 2.82,-0.24 1.68,0 1.38,0.24 1.44,0.24"
         style="fill:#000000;fill-opacity:1;fill-rule:evenodd;stroke:none"
         id="path98" /><path
         d="m 514.38,655.2 1.44,1.44 1.62,2.34 0.96,1.2 0.72,1.2 0.48,1.14 0,1.44 -0.24,0 -1.2,-2.34 -2.34,-2.16 -2.82,-1.86 -2.4,-2.4 -0.66,-0.72 -0.72,-0.42 -0.72,-0.24 1.2,2.34 1.14,1.68 0.24,0.9 0.24,0.72 0.24,1.2 -0.24,0.96 0,1.62 -0.72,-0.96 -0.66,-0.66 -0.96,-1.92 -0.48,-3.3 -1.2,-3.54 -0.18,-0.48 0.18,0 1.68,0.72 1.86,0.96 1.68,0.42"
         style="fill:#000000;fill-opacity:1;fill-rule:evenodd;stroke:none"
         id="path100" /><path
         d="m 518.4,664.44 -2.34,-2.58 -2.4,-2.16 -0.42,-0.24 0,4.98 1.62,0 -0.48,-1.44 -0.24,-1.62 0.72,1.38 0.96,1.68"
         style="fill:#000000;fill-opacity:1;fill-rule:evenodd;stroke:none"
         id="path102" /><path
         d="m 519.78,682.62 -0.18,2.16 -0.48,1.86 -0.48,1.2 -0.72,1.62 -0.96,1.68 -0.66,0.72 0.42,-2.4 0.48,-1.86 0,-2.4 -0.24,-2.58"
         style="fill:#000000;fill-opacity:1;fill-rule:evenodd;stroke:none"
         id="path104" /><path
         d="m 515.82,682.62 -1.68,1.44 -2.58,2.58 -0.96,1.2 0.24,-0.96 0.72,-1.86 0.96,-2.4"
         style="fill:#000000;fill-opacity:1;fill-rule:evenodd;stroke:none"
         id="path106" /><path
         d="m 515.82,689.22 0,1.44 -0.72,2.58 -0.96,1.44 -1.14,0.96 -0.72,0.96 -0.48,0.18 0.48,-1.38 1.2,-3.78 0.66,-2.4 0.72,-2.1 -0.72,1.2 -2.34,2.34 -1.62,1.2 -1.92,1.38 -0.72,0.72 -0.42,0.48 0.18,-0.48 0.48,-0.72 0.72,-1.38 0.72,-0.96 1.86,-1.86 1.92,-1.44 1.62,-1.68 0.48,-0.9 0.48,-0.72 0.24,0.9"
         style="fill:#000000;fill-opacity:1;fill-rule:evenodd;stroke:none"
         id="path108" /><path
         d="m 511.32,694.92 -0.72,0.96 -0.66,0.9 -1.92,1.2 -1.38,0.96 -1.2,0.48 -0.48,0 0.96,-0.96 2.34,-3.06 0.96,-1.2 1.38,-1.2 1.44,-0.66 0.48,-0.24 0,0.72 -0.48,0.9"
         style="fill:#000000;fill-opacity:1;fill-rule:evenodd;stroke:none"
         id="path110" /><path
         d="m 472.26,673.62 0.9,-0.66 0.48,0 0.24,-0.24 0.24,0 0,-0.24 0.24,0 0.48,-0.48 0,-0.48 0.24,-0.48 0.24,-0.24 0,-0.96 -0.24,0 0,-0.18 0.24,-0.24 0,-0.24 0.24,-0.24 0,-0.24 0.24,0 0,-2.16 -0.24,-0.24 0,-0.24 0.48,-0.24 0.18,0 0,-0.18 0.24,0 0,-0.24 0.48,0 0,-0.24 0.24,0 0.24,-0.96 0.48,-0.24 -0.24,0 0,-0.72 0.24,0 0,-0.24 -0.24,-0.24 0,-0.24 -1.44,0 -0.18,-0.24 -0.24,0 -0.24,-0.24 -0.96,0 -0.48,0.24 -0.24,0.24 -0.24,0.48 -0.48,0 -0.18,0.24 0,-0.24 -0.24,0.24 -0.48,0 -0.24,-0.24 -0.48,0 -0.48,0.48 -0.72,0.24 -0.48,0.48 0,0.72 -0.66,-0.24 -0.72,0.72 0,0.42 -0.24,0 -0.48,0.48 -0.48,0 -0.24,0.48 -0.9,0 0,0.24 -0.24,0.24 -0.48,0.24 -0.24,0 0,0.24 -0.48,0 0,1.68 0.24,0 0.24,0.24 1.2,0 0.24,0.42 0.9,0 0,-0.24 0.24,-0.18 0.48,0 0,0.18 1.44,0 0.18,0.24 0.24,0.24 0,0.96 0.24,0.24 0,0.72 0.72,0.96 0.24,0.24 0,-0.24 0.24,0 -0.24,0 0,0.24 0.72,0"
         style="fill:#000000;fill-opacity:1;fill-rule:evenodd;stroke:none"
         id="path112" /><path
         d="m 484.74,676.02 0.24,-0.48 0.24,0 0,-0.24 0.18,-0.24 0.48,0 0.24,-0.24 0,-1.2 -0.24,-0.18 -0.48,-0.48 -0.18,0 0,-0.24 -0.72,0 -0.72,-0.72 -0.72,0 0,0.24 -0.24,0.24 0.24,0.24 0.24,0.48 0.24,0.24 0,0.18 0.24,0.24 0,0.24 0.48,0.24 0.24,0.24 0,1.2 -0.24,0 0.24,0 0,0.24 0.24,0"
         style="fill:#000000;fill-opacity:1;fill-rule:evenodd;stroke:none"
         id="path114" /><path
         d="m 498.6,665.4 0.48,0 0.24,-0.24 0.24,0 0,-0.24 0.24,0 0,-0.24 0.24,-0.24 0,-0.96 -0.24,-0.48 0,-0.48 -0.24,-0.24 -0.48,0 -0.24,0.24 -0.24,0 0,0.24 -0.24,0.48 0,0.24 -0.24,0.24 0,0.48 0.72,0.48 0,0.48 -0.24,0.24"
         style="fill:#000000;fill-opacity:1;fill-rule:evenodd;stroke:none"
         id="path116" /><path
         d="m 475.8,672.72 0.42,0 0,-0.24 0.24,0 0,-0.72 0.24,-0.48 0,-0.24 -0.24,0 -0.24,0.24 -0.18,0 -0.24,0.48 0,0.72"
         style="fill:#000000;fill-opacity:1;fill-rule:evenodd;stroke:none"
         id="path118" /><path
         d="m 475.8,673.44 0.42,0 0,0.9 -0.18,0.24 -0.48,0 0,-0.72 -0.24,0 0,-0.24 -0.24,-0.18 0.24,0 0.24,-0.24"
         style="fill:#000000;fill-opacity:1;fill-rule:evenodd;stroke:none"
         id="path120" /><path
         d="m 485.4,669.66 -0.18,0.18 0,0.48 0.18,0 0.48,0.48 0.24,0 0.24,-0.24 0,-0.72 -0.24,0 -0.24,0.24 -0.24,0 0,-0.42 -0.24,0"
         style="fill:#000000;fill-opacity:1;fill-rule:evenodd;stroke:none"
         id="path122" /><path
         d="m 496.02,681.24 0.72,0.18 0.24,0.24 0.48,0.24 0,0.24 -0.24,0 0,0.24 0.48,0 0,0.72 -0.24,0 0,0.48 -0.48,0 0,-0.24 -0.24,0 0,-0.72 -0.24,0 0,-0.24 -0.24,0 0,-0.72 -0.24,-0.24 0,-0.18 -0.24,-0.24 0.48,0"
         style="fill:#000000;fill-opacity:1;fill-rule:evenodd;stroke:none"
         id="path124" /><path
         d="m 489.42,696.6 1.92,0.18 0,-0.18 0.24,-0.24 -0.24,-0.24 -0.72,0 0,-0.24 -0.48,0 -0.24,-0.24 -1.2,0 0,0.96 0.48,0 0.24,0.18"
         style="fill:#000000;fill-opacity:1;fill-rule:evenodd;stroke:none"
         id="path126" /><path
         d="m 488.04,696.36 -0.24,-0.24 -0.72,0 0.24,-0.72 0.24,-0.24 0.24,0 0.24,-0.24 0.48,0 0,-0.24 0.18,0 0.72,0.24 -0.24,0 -0.48,0.48 0,0.96 -0.42,0"
         style="fill:#000000;fill-opacity:1;fill-rule:evenodd;stroke:none"
         id="path128" /><path
         d="m 491.34,692.82 0,-0.24 0.24,0 0.18,-0.24 -0.18,-0.48 -0.24,0 -0.48,0.48 0,0.24 0.48,0"
         style="fill:#000000;fill-opacity:1;fill-rule:evenodd;stroke:none"
         id="path130" /><path
         d="m 490.38,691.86 0.24,-0.24 0,-0.48 -0.48,0 0,0.48 -0.24,0 0.24,0 0.24,0.24"
         style="fill:#000000;fill-opacity:1;fill-rule:evenodd;stroke:none"
         id="path132" /><path
         d="m 490.14,692.82 0.48,0 0,-0.48 -0.48,0 0,-0.48 -0.48,0 0,0.48 0.24,0 0,0.24 0.24,0.24"
         style="fill:#000000;fill-opacity:1;fill-rule:evenodd;stroke:none"
         id="path134" /><path
         d="m 490.62,697.74 0.24,0 0,-0.48 -0.48,0 0,0.24 0.24,0.24"
         style="fill:#000000;fill-opacity:1;fill-rule:evenodd;stroke:none"
         id="path136" /><path
         d="m 496.98,685.2 -0.24,0 0,0.24 -0.24,0 -0.24,0.24 0,0.48 -0.24,0 0,0.24 -0.24,0.24 -0.24,0 -0.24,0.24 -0.48,0 -0.18,0.24 -0.48,0.24 -0.72,0.72 -0.24,0.48 -0.24,0.24 -0.72,0.42 -0.66,0.72 -0.24,0.24 0,0.24 0.24,0 0.18,-0.24 0.24,0 0.24,-0.24 0.48,-0.24 0.24,-0.48 0.24,0 0,-0.42 0.24,0 0,-0.24 0,0.24 0.48,0 0.24,-0.24 0.48,-0.24 0.42,-0.24 0.48,0 0.48,-0.24 0.24,0 0,0.48 -0.24,0.24 0,0.24 -0.24,0.42 0,0.48 -0.24,0.72 -0.24,0.24 0,0.24 -0.24,0 -0.42,0.72 0,-0.24 0,0.24 0.18,0.24 0,0.48 0,-0.24 0,0.24 0.24,0.24 0,0.24 0.24,0 0.24,0.18 1.44,0 0.24,-0.18 0.24,0 0,0.42 0.24,0 0,0.24 0.18,0 0,0.24 0.24,0 0,-0.24 0.48,-0.48 0,-0.66 0.72,-0.96 0.24,-0.72 0.48,-0.48 0,-0.96 0.24,0 0.48,-0.42 0.66,-0.72 0.24,-0.24 0,-0.24 0.24,-0.24 0,-0.24 0.24,0 0.24,-0.24 0.24,0 0.24,-0.24 0.24,-0.48 0,-0.24 0.24,-0.24 0,-0.24 0.24,-0.24 0.24,-0.18 0.24,-0.24 0.18,-0.24 0,-0.72 -0.18,-0.24 -0.24,0 0,-0.24 -0.48,-0.24 -0.24,0 0,-0.24 0.24,0.24 0,-0.24 0.24,0 -0.24,0 -0.24,-0.24 -0.72,0 0,0.24 -0.72,0.72 -0.48,0.72 -0.18,0 -0.24,0.24 -0.96,0.48 -0.24,0 -0.24,0.18 -0.24,0.24 0,0.24 -0.48,0 -0.48,0.72 -0.24,0.24 0,0.24 -0.18,0 0,0.24 -0.24,0.24 0,0.24 0.24,0.24 -0.24,0.24 0,0.24 -0.96,0 0,-0.96 0.24,0 0,-0.72 0.24,0 0,-0.24 0.24,-0.24 0.24,-0.48 0.24,-0.24 0,-0.42 0.18,-0.24 0.48,0 0,-0.72 0.24,0 0.24,-0.24 0.24,0 0,-0.48 0.24,0 0,-0.48 0.24,-0.24 0,-0.48 0.48,-0.48 0.24,0 0.24,-0.24 0,0.24 -0.24,0.24 0,0.24 -0.24,0 0,0.72 0.24,0 0.72,-0.72 0,-0.48 0.18,0 0,-0.42 0.24,-0.48 0.24,-0.24 0,-0.24 -0.24,-0.48 0,-0.48 0.48,-0.48 -0.24,0 0,-0.48 -0.24,-0.24 0,-1.14 -0.42,-0.24 -0.24,0.48 0,-0.24 -0.24,-0.24 0,-0.24 -0.24,-0.24 0,1.38 -0.24,-0.24 -0.24,0 -0.24,-0.18 -0.48,0 0,0.42 -0.24,-0.24 0.24,0 0.48,0.24 0,0.24 0.24,0.24 0.24,0.48 0.48,0.48 0,0.48 -0.72,0.72 -0.48,0.24 -0.48,0.48 -0.48,0 0,0.24 0.96,0.9 0,0.48 -0.48,0 0,0.24 -0.48,0.48 0,0.24 -0.48,0.48 -0.42,0.48 -0.24,0.48 -0.24,0"
         style="fill:#000000;fill-opacity:1;fill-rule:evenodd;stroke:none"
         id="path138" /><path
         d="m 486.12,681.24 0,-0.24 -0.24,-0.24 0,-0.96 -0.24,0 0,-0.72 0.24,0 -0.24,-0.24 -0.42,-0.24 -0.24,0 -0.24,-0.24 -0.24,0 0,-0.24 -0.24,-0.24 -0.72,-0.24 -0.24,-0.24 0,-0.42 -0.24,-0.24 0,-0.24 0.24,0 0,-0.24 0.24,-0.24 0,-0.24 0.24,-0.24 -0.24,0 0,0.24 0,-0.96 0,0.24 0,-0.24 -0.24,-0.24 -0.24,0 0,0.24 -0.24,0.24 0.24,0.24 -0.24,0 0,0.24 -0.24,0 0,0.48 -0.24,0.24 -0.9,0 0,-0.24 -0.24,-0.24 0,-0.24 -0.24,-0.24 0,-0.24 1.2,0 0,-0.24 0.18,-0.24 0,-0.24 -0.18,-0.24 0,-0.24 0.18,0 -0.18,-0.24 -0.24,0 0,-0.42 -0.24,-0.24 0,0.24 -0.24,-0.24 -0.96,0 0,-0.24 -0.72,0 0,0.24 -0.24,0 0,0.24 -0.24,0 -0.18,0.24 -0.24,0 -0.24,0.18 -0.48,0 0.24,0.24 -0.48,0 0,-0.24 -0.24,0.24 -0.24,0 0,0.24 -0.24,0.24 -0.48,0 0,0.48 -0.24,0.72 0.24,0 -0.24,0.72 -0.24,0.24 -0.18,0 -0.24,0.24 -0.24,-0.24 -0.24,0 0,-0.48 0.24,0 -0.24,0 0,-0.48 0.24,0 -0.72,-0.72 -0.24,0 -0.24,-0.24 -0.72,-0.48 -0.24,0 0,-0.24 -0.24,-0.42 -0.18,0 0,0.42 0.18,0.24 0,0.48 0.24,0.24 0.24,0.48 0.24,0.24 0.24,0.48 0.24,0 -0.24,0.24 0,0.24 0.48,0.48 0,0.66 0.24,0 0,0.24 0.24,0 0,0.24 0.48,0.72 0,0.24 0.48,0 0,-0.24 0.42,0.24 0.48,0 0.24,0.24 0,0.48 -0.24,0 0.24,0.24 0.24,0 0,0.48 0.24,0 0,-0.24 0.96,0 0.48,0.24 1.14,0 0.48,-0.48 0,-0.24 0.24,-0.24 0.24,0 0.72,-0.24 0,0.24 0.42,0 0,-0.24 0.48,0 0,0.24 0.24,0 0,0.24 0.24,0 0.48,0.48 0.24,0 0,0.24 0.24,0.24 0.72,0 0.24,0.24 0.66,0 0.24,0.24"
         style="fill:#000000;fill-opacity:1;fill-rule:evenodd;stroke:none"
         id="path140" /><path
         d="m 495.06,666.78 0.24,0 0.24,-0.24 0,0.48 0.24,0.24 0.72,0 0.24,-0.24 0,-0.96 -0.24,0 0,-0.24 0.24,0 0,-0.42 -0.24,0 -0.24,-0.48 0,-0.48 0.48,-0.96 0.48,-0.48 0,-0.72 -0.24,-0.24 -0.24,-0.18 0,-1.44 -0.24,0 0,-0.72 0.24,-0.24 -0.24,0 0,-0.48 -0.24,0 -0.72,-0.72 0,-0.24 -0.24,0 -0.24,-0.18 -0.24,0 -0.18,-0.24 -0.24,0 -0.24,-0.24 -0.24,0 -0.48,-0.24 -0.24,0 -0.48,-0.48 -0.24,0 0,-0.24 -0.48,0 0,0.24 -0.24,0.24 0,0.24 -0.18,0.24 -0.24,0 0,0.24 -0.24,0 0,0.24 -0.48,0 0,0.18 -0.96,0.96 0,0.72 -0.48,0.96 -0.48,0.72 0,0.48 -0.18,0 -0.24,0.18 -0.48,0 -0.24,0.24 -0.24,0 0,-0.24 -0.24,0 -0.48,0.24 -0.72,0 0,-0.24 -0.24,0 -0.24,-0.18 -0.18,0 -0.24,0.18 -0.72,0 -0.72,0.72 -0.24,0 0,0.24 -0.24,0.24 0,0.24 -0.24,0.24 0.24,0.48 0,0.72 -0.24,0 0.24,0.24 0,0.24 0.24,0.24 0.24,0.18 0.72,0.48 0.24,0.24 0,0.24 1.62,0 0,0.24 0.24,0 0.48,0.48 0.48,0 0.24,0.24 0.24,0 0.24,-0.24 0.24,0 0,-0.24 0.24,-0.24 0.9,0 0.48,0.48 0.48,0 0.24,0.24 0.48,0 0,-0.24 0.24,0 0,-0.24 1.14,0 0.48,-0.24 0.48,0 0.24,-0.24 0.96,0 0,-0.24 0.42,0"
         style="fill:#000000;fill-opacity:1;fill-rule:evenodd;stroke:none"
         id="path142" /><path
         d="m 492.96,680.76 0,-0.24 0.24,0 0.72,-0.72 0.24,0.72 -0.24,0 0.24,0 0,0.24 0.24,0.24 0.24,0 0,0.24 0.18,0 0,0.42 0.24,0 0,-0.42 1.44,-0.72 0.24,-0.48 0.24,-0.24 0.48,-0.24 0.24,0 0,0.24 0.18,0 0.72,-0.24 -0.24,-0.72 0.24,0 0,-0.72 0.24,0 0.48,-0.48 -0.96,-0.42 0,-0.48 -0.9,-0.48 0,-0.24 -0.24,0 0,-0.24 0.24,-0.24 0.42,-0.48 0,-0.72 0.72,-0.72 0.48,-0.42 -0.24,0 0,-0.24 -0.72,-0.72 -0.42,0 0,-0.24 -0.72,0 -0.24,0.24 -0.24,-0.24 -0.24,0 0.24,0 0,-0.24 -0.48,0 -0.48,-0.96 -0.24,-0.24 -0.48,-0.24 -0.18,0 0,-0.24 -0.24,0 0,-0.42 -0.72,0 0,-0.24 1.14,0 0,0.42 0.24,0.24 0,0.24 0.24,0 0,-0.24 0.48,-0.24 0.24,-0.18 0,-1.2 -0.24,-0.24 0,-0.24 -0.24,-0.72 0,-0.24 -0.24,0 0,-0.24 -0.48,0.24 -0.42,0 -0.24,0.24 -1.2,0 -0.72,0.24 -0.48,0.24 -0.18,0.24 -0.24,0.24 0,0.24 -0.24,0 0,0.24 -0.24,0.24 -0.24,-0.24 0,-0.24 -0.24,0 0,-0.24 -0.24,0 0,1.2 0.24,0.24 0.24,0 0.24,0.18 0.24,0 -0.24,0 -0.24,0.24 0,0.24 -0.24,0 -0.48,-0.48 0,-0.42 -0.24,0 0.24,-0.24 0,-0.24 -0.24,0 0,-0.24 -1.14,0 0.42,-0.24 1.2,0 0,-0.24 -0.24,0 0,-0.48 -0.24,0 0,0.48 -2.58,0 0,-0.24 -0.24,-0.24 -0.24,0 -0.24,-0.24 0.24,0 -0.24,-0.24 -0.48,0 -0.24,-0.24 -0.24,0.24 -0.18,-0.24 -0.48,0 -0.24,-0.24 0,0.24 -0.24,0 0,0.48 0.24,0 0,0.24 0.72,0.72 0.42,0 0.24,0.24 0.24,0 0,0.48 0.24,0.24 0,0.24 0.24,0 -0.24,0 0,0.18 0.24,0.24 0.24,0 0.24,0.24 0.96,0 0,0.24 0.24,0.24 0,0.48 -0.24,0.72 -0.24,0 0,-0.48 0.24,0 -0.24,0 0,-0.48 -0.72,0 -0.24,-0.24 -0.24,0.24 0,0.48 0.48,0.48 0.48,1.2 0.24,0.24 0.72,0 0.18,0.18 0.24,1.68 0,0.24 -0.24,0.24 -0.18,0.24 -0.24,0 0.24,0 0,1.38 -0.48,0.48 0,0.24 -0.24,0 0,0.24 -0.48,0 0,0.24 -0.48,0.24 -0.48,0.48 0.24,0.24 0,0.96 -0.24,0.48 1.44,0 0,-0.24 0.24,-0.24 0.24,0 0.24,-0.24 0,-0.24 0.66,0 0,0.24 0.72,-0.24 0,0.48 0.24,0 0,0.72 -0.24,0 0.24,0.18 0.24,0 0,-0.18 0.24,-0.24 0.24,0 0,0.24 0.48,0 0,0.18 0,-0.18 0.24,0 0,-0.24 0.18,0 0.72,0.24 0,0.18 0.48,0 0.24,-0.18 0.24,-0.24 0,0.24 0,-0.24 -0.24,-0.24"
         style="fill:#000000;fill-opacity:1;fill-rule:evenodd;stroke:none"
         id="path144" /><path
         d="m 496.5,632.76 -0.48,0.48 1.2,1.62 1.14,-1.62 1.2,-1.68 1.44,-1.86 1.38,0.48 1.2,0.48 1.14,0.42 1.2,0.48 1.2,0.72 1.38,0.72 1.44,0.72 1.62,0.96 0.96,0.42 0.72,0.48 0.9,0.72 0.72,0.48 0.72,0.72 0.72,0.48 1.38,1.38 0.72,0.48 0.72,0.72 1.14,1.2 0.96,0.9 0.72,0.96 0.72,0.72 0.42,0.72 -0.66,-0.72 -1.2,0.96 -4.02,-4.02 -0.9,0.48 0,2.58 0.24,1.92 0,1.14 0.18,0 0,-0.24 0.24,-1.14 0,-0.96 0.24,-0.72 0,-0.48 0.24,-0.48 0.24,-0.24 3.54,3.54 1.86,-1.38 0.48,0.48 0.48,0.66 0.72,0.96 0.72,1.2 -1.44,1.2 -0.96,-0.72 -0.24,0.48 1.2,1.62 0.96,-0.96 0.9,-1.14 0.72,-0.96 -0.9,-1.44 -0.96,-1.38 -1.2,-1.44 -0.9,-1.2 -0.96,-1.38 -1.2,-1.2 -1.14,-1.2 -1.2,-1.14 -1.44,-0.96 -0.66,-0.72 -0.48,-0.48 -0.72,-0.48 -0.72,-0.42 -0.66,-0.48 -0.48,-0.24 -1.44,-0.96 -1.2,-0.72 -1.14,-0.48 -1.2,-0.72 -0.72,-0.24 -0.66,-0.42 -2.4,-0.96 -1.14,-0.48 -0.96,-0.24 -0.72,-0.24 -0.66,-0.24 -3.78,4.98"
         style="fill:#000000;fill-opacity:1;fill-rule:evenodd;stroke:none"
         id="path146" /><path
         d="m 496.98,675.54 -0.48,0 0,0.48 -0.24,0.48 0,0.9 -0.24,0.48 0,0.48 -0.24,0.24 -0.24,0.48 0,0.48 -0.48,0.96 -0.24,0.24 -0.42,0.48 -0.24,0.18 -0.24,0.48 -0.48,0.24 -0.96,0.96 -0.48,0.24 -0.24,0.24 -0.42,0.24 -0.96,0.48 -0.48,0 -0.96,0.48 -0.9,0 -0.48,0.24 -0.96,0 0,0.42 1.68,0 0.42,-0.24 0.48,0 0.48,-0.18 0.48,0 1.44,-0.72 0.42,-0.24 0.48,-0.24 0.24,-0.24 0.48,-0.24 1.44,-1.44 0.18,-0.48 0.48,-0.42 0.24,-0.24 0.72,-1.44 0,-0.48 0.48,-0.96 0,-0.48 0.24,-0.42 0,-0.96 0,-0.48 z m -10.38,-10.14 0,0.42 0.96,0 0.48,0.24 0.48,0 0.42,0.24 0.48,0 0.48,0.24 0.48,0 0.96,0.48 0.42,0.24 0.24,0.24 0.48,0.24 0.96,0.96 0.48,0.24 0.24,0.48 0.66,0.66 0.24,0.48 0.24,0.24 0.24,0.48 0,0.48 0.48,0.96 0,0.48 0.24,0.24 0,0.9 0.24,0.72 0,0.48 0.48,0 0,-1.68 -0.24,-0.42 0,-0.48 -0.48,-0.96 0,-0.48 -0.72,-1.44 -0.24,-0.24 -0.48,-0.42 -0.18,-0.48 -0.96,-0.96 -0.48,-0.24 -0.72,-0.72 -0.48,-0.24 -0.42,-0.24 -0.96,-0.48 -0.48,0 -0.48,-0.24 -0.48,-0.18 -0.48,0 -0.42,-0.24 -1.2,0 -0.48,0 z m -10.38,10.14 0.72,0 0,-2.1 0.24,-0.24 0,-0.48 0.96,-1.92 0.24,-0.24 0.24,-0.48 0.24,-0.42 0.24,-0.24 0.18,-0.48 0.48,-0.24 0.96,-0.96 0.96,-0.48 0.24,-0.24 0.42,-0.24 0.48,-0.24 0.48,0 0.48,-0.24 0.48,0 0.48,-0.24 0.48,0 0.42,-0.24 0.96,0 0,-0.42 -1.62,0 -0.48,0.24 -0.48,0 -0.48,0.18 -0.48,0.24 -0.48,0 -0.42,0.24 -1.44,0.72 -0.96,0.96 -0.48,0.24 -0.18,0.48 -0.48,0.24 -0.24,0.48 -0.24,0.42 -0.48,0.24 -0.48,0.96 0,0.48 -0.72,1.44 0,0.9 -0.24,0.48 0,0.48 0,0.72 z m 10.38,9.9 0,-0.42 -0.96,0 -0.42,-0.24 -0.96,0 -0.96,-0.48 -0.48,0 -0.48,-0.24 -0.42,-0.24 -0.24,-0.24 -0.96,-0.48 -0.96,-0.96 -0.48,-0.24 -0.18,-0.48 -0.24,-0.18 -0.24,-0.48 -0.24,-0.24 -0.96,-1.92 -0.24,-0.24 0,-0.48 -0.24,-0.48 0,-1.86 -0.72,0 0,0.96 0.24,0.48 0,0.9 0.72,1.44 0,0.48 0.48,0.96 0.48,0.24 0.24,0.42 0.24,0.48 0.48,0.24 0.18,0.48 0.48,0.24 0.24,0.48 0.48,0.24 0.24,0.24 1.44,0.72 0.42,0.24 0.48,0.24 0.48,0 0.48,0.18 0.48,0 0.48,0.24 1.14,0"
         style="fill:#000000;fill-opacity:1;fill-rule:nonzero;stroke:none"
         id="path148" /><path
         d="m 501.66,675.54 -0.48,0 0,0.72 -0.18,0.72 0,0.66 -0.24,0.72 0,0.72 -0.24,0.48 -0.24,0.72 -0.24,0.72 -0.24,0.66 -0.48,0.48 -0.24,0.72 -0.48,0.48 -0.48,0.72 -0.24,0.48 -0.42,0.48 -0.48,0.42 -0.72,0.48 -0.96,0.96 -0.66,0.48 -0.48,0.24 -0.72,0.48 -0.48,0.24 -0.72,0.24 -0.66,0.24 -0.72,0.24 -0.72,0.18 -0.72,0.24 -0.72,0 -0.66,0.24 -1.44,0 0,0.48 1.44,0 0.66,-0.24 0.96,0 1.44,-0.48 0.66,-0.24 0.72,-0.18 0.72,-0.24 0.48,-0.24 0.72,-0.48 0.66,-0.48 0.48,-0.24 0.72,-0.48 1.44,-1.44 0.42,-0.66 0.96,-0.96 0.48,-0.72 0.24,-0.72 0.48,-0.48 0.24,-0.66 0.48,-1.44 0.18,-0.72 0.24,-0.72 0,-0.72 0.24,-0.66 0,-0.72 0,-0.72 z m -15.06,-14.88 0,0.48 0.72,0 0.72,0.24 1.38,0 1.44,0.48 0.72,0.18 0.66,0.24 0.72,0.24 0.48,0.48 0.72,0.24 0.48,0.48 0.66,0.24 0.96,0.96 0.72,0.48 0.48,0.42 0.42,0.48 0.24,0.48 0.48,0.72 0.48,0.48 0.24,0.72 0.48,0.48 0.24,0.66 0.48,1.44 0.24,0.48 0,0.72 0.24,0.72 0,0.66 0.18,0.72 0,0.96 0.48,0 0,-1.68 -0.24,-0.66 0,-0.72 -0.24,-0.72 -0.18,-0.72 -0.24,-0.72 -0.24,-0.66 -0.24,-0.72 -0.48,-0.48 -0.24,-0.72 -0.48,-0.48 -0.48,-0.72 -0.48,-0.48 -0.42,-0.66 -1.44,-1.44 -0.72,-0.48 -0.48,-0.24 -0.66,-0.48 -0.72,-0.48 -0.48,-0.24 -0.72,-0.18 -0.72,-0.24 -0.66,-0.24 -1.44,-0.48 -0.96,0 -0.66,-0.24 -0.72,0 -0.72,0 z m -15.3,14.88 0.72,0 0,-2.34 0.24,-0.72 0,-0.72 0.24,-0.48 0.48,-1.44 0.42,-0.66 0.24,-0.48 0.48,-0.72 0.24,-0.48 0.48,-0.72 2.82,-2.82 0.72,-0.24 0.48,-0.48 0.66,-0.24 0.72,-0.48 0.48,-0.24 0.72,-0.24 0.72,-0.18 0.66,-0.24 0.72,-0.24 1.44,0 0.66,-0.24 0.96,0 0,-0.48 -1.62,0 -0.72,0.24 -0.72,0 -0.72,0.24 -0.9,0.24 -0.72,0.24 -0.48,0.24 -0.72,0.18 -0.72,0.24 -0.66,0.48 -0.48,0.48 -0.72,0.24 -0.48,0.48 -0.72,0.48 -0.42,0.48 -0.48,0.48 -0.48,0.66 -0.48,0.48 -0.48,0.72 -0.48,0.48 -0.24,0.72 -0.42,0.48 -0.24,0.72 -0.24,0.66 -0.72,2.16 0,0.72 -0.24,0.66 0,0.72 0,0.96 z m 15.3,14.64 0,-0.48 -1.62,0 -0.72,-0.24 -0.72,0 -0.72,-0.24 -0.66,-0.18 -1.44,-0.48 -0.48,-0.24 -0.72,-0.24 -0.66,-0.48 -0.48,-0.24 -0.72,-0.48 -2.82,-2.82 -0.48,-0.72 -0.24,-0.48 -0.48,-0.72 -0.24,-0.48 -0.42,-0.66 -0.48,-1.44 -0.24,-0.48 0,-0.72 -0.24,-0.72 0,-2.1 -0.72,0 0,1.44 0.24,0.66 0,0.72 0.48,1.44 0.48,1.44 0.24,0.66 0.42,0.48 0.24,0.72 0.48,0.72 0.96,0.96 0.48,0.66 0.48,0.48 0.42,0.48 0.72,0.48 0.48,0.48 0.72,0.24 0.48,0.48 0.66,0.48 1.44,0.48 0.48,0.18 0.72,0.24 0.9,0.24 0.72,0.24 0.72,0 0.72,0.24 0.66,0"
         style="fill:#000000;fill-opacity:1;fill-rule:nonzero;stroke:none"
         id="path150" /><path
         d="m 482.82,678.6 -14.58,14.22 0.48,0.18 14.58,-13.92"
         style="fill:#000000;fill-opacity:1;fill-rule:nonzero;stroke:none"
         id="path152" /><path
         d="m 486.12,679.8 0.71997,0 0,20.34 -0.71997,0 0,-20.34 z"
         style="fill:#000000;fill-opacity:1;fill-rule:nonzero;stroke:none"
         id="path154" /><path
         d="m 490.14,679.32 13.92,13.68 0.42,-0.18 -13.86,-13.74"
         style="fill:#000000;fill-opacity:1;fill-rule:nonzero;stroke:none"
         id="path156" /><path
         d="m 496.5,675.78 8.7,0 0,0.47998 -8.7,0 0,-0.47998 z"
         style="fill:#000000;fill-opacity:1;fill-rule:nonzero;stroke:none"
         id="path158" /><path
         d="m 481.68,675.78 -14.4,0"
         style="fill:none;stroke:#000000;stroke-width:0.06;stroke-linecap:round;stroke-linejoin:miter;stroke-miterlimit:10;stroke-dasharray:none;stroke-opacity:1"
         id="path160" /><path
         d="m 486.36,650.22 0,0.72 2.82,0 1.92,0.48 0.66,0 1.92,0.48 0.96,0.48 0.66,0.24 0.96,0.24 0.72,0.48 0.9,0.48 0.72,0.24 0.96,0.42 1.44,0.96 0.66,0.72 1.44,0.96 1.86,1.86 0.48,0.72 0.72,0.72 0.96,1.44 0.42,0.66 0.96,1.44 0.24,0.72 0.48,0.72 0.48,0 -0.48,-0.96 -0.24,-0.72 -0.48,-0.72 -0.48,-0.96 -0.48,-0.66 -0.42,-0.72 -0.48,-0.72 -0.72,-0.72 -0.48,-0.72 -0.72,-0.48 -1.86,-1.86 -0.72,-0.48 -0.96,-0.72 -0.66,-0.48 -0.72,-0.42 -0.96,-0.48 -0.72,-0.48 -0.9,-0.24 -0.72,-0.48 -0.96,-0.24 -0.9,-0.48 -0.72,-0.24 -1.92,-0.48 -0.9,-0.24 -0.96,0 -0.96,-0.24 -1.86,0 -0.96,-0.24 z m -23.04,14.94 0.42,0.24 1.92,-2.88 0.48,-0.66 0.48,-0.72 0.42,-0.72 0.72,-0.72 0.48,-0.72 0.72,-0.48 0.72,-0.66 0.42,-0.48 0.72,-0.72 2.16,-1.44 0.66,-0.48 0.96,-0.48 0.72,-0.42 0.72,-0.48 0.9,-0.24 0.72,-0.48 0.96,-0.24 0.66,-0.24 0.96,-0.48 0.72,-0.24 0.96,0 0.9,-0.24 0.96,-0.24 2.58,0 0,-0.72 -0.96,0.24 -1.86,0 -0.72,0.24 -0.9,0 -1.92,0.48 -0.9,0.24 -0.72,0.48 -0.96,0.24 -0.72,0.24 -0.9,0.48 -0.72,0.48 -0.96,0.48 -0.72,0.42 -0.66,0.48 -2.16,1.44 -0.72,0.72 -0.66,0.48 -0.72,0.66 -1.2,1.2 -0.66,0.72 -0.96,1.44 -0.48,0.66 -0.48,0.72 -0.48,0.96 -0.48,0.72"
         style="fill:#000000;fill-opacity:1;fill-rule:nonzero;stroke:none"
         id="path162" /><path
         d="m 486.36,700.38 0,-0.48 -2.1,0 -0.96,-0.24 -1.14,0 -2.88,-0.72 -1.14,-0.48 -0.96,-0.24 -0.96,-0.48 -0.66,-0.48 -0.96,-0.48 -0.96,-0.42 -0.9,-0.48 -0.72,-0.48 -0.96,-0.72 -0.72,-0.48 -0.66,-0.72 -0.72,-0.66 -2.16,-2.16 -0.66,-0.96 -0.48,-0.66 -0.48,-0.72 -0.72,-0.96 -0.48,-0.96 -0.42,-0.72 -0.24,-0.9 -0.48,-0.96 -0.24,-0.96 -0.48,-0.96 -0.48,0 0.24,1.2 0.48,0.96 0.24,0.96 0.48,0.9 0.48,0.72 0.42,0.96 0.72,0.96 0.48,0.66 0.72,0.96 0.48,0.72 0.66,0.72 0.72,0.96 0.72,0.66 0.72,0.72 0.9,0.48 1.44,1.44 0.96,0.48 0.9,0.42 0.96,0.48 0.72,0.48 0.96,0.48 1.14,0.48 0.96,0.24 0.96,0.48 0.9,0.24 1.2,0.24 0.96,0.24 0.9,0.24 2.34,0 0.96,0 z m 24.72,-18.48 -0.48,-0.24 -0.24,0.96 -0.42,0.96 -0.24,0.96 -0.48,0.9 -0.48,0.96 -0.48,0.72 -0.48,0.96 -0.48,0.72 -0.66,0.9 -0.48,0.72 -1.44,1.44 -0.66,0.96 -0.72,0.42 -0.72,0.72 -0.96,0.72 -0.66,0.48 -0.96,0.72 -0.72,0.48 -0.96,0.42 -0.9,0.48 -1.92,0.96 -0.9,0.24 -0.96,0.24 -0.96,0.48 -0.96,0.24 -1.14,0.24 -0.96,0 -1.14,0.24 -2.16,0 0,0.48 3.3,0 1.2,-0.24 0.9,-0.24 0.96,-0.24 1.2,-0.24 0.9,-0.48 0.96,-0.24 1.92,-0.96 0.9,-0.48 0.96,-0.48 0.96,-0.42 0.66,-0.72 0.96,-0.48 0.72,-0.72 0.96,-0.72 0.66,-0.72 0.72,-0.66 1.44,-1.44 0.48,-0.96 0.66,-0.72 0.48,-0.9 0.48,-0.96 0.48,-0.72 0.48,-0.96 0.48,-0.9 0.42,-0.96 0.24,-0.96"
         style="fill:#000000;fill-opacity:1;fill-rule:nonzero;stroke:none"
         id="path164" /><path
         d="m 486.36,655.92 0,0.48 2.16,0 0.9,0.24 0.96,0.24 0.96,0 0.9,0.48 0.96,0.24 0.72,0.24 0.9,0.42 0.96,0.48 1.44,0.96 0.9,0.48 0.72,0.48 1.2,1.2 0.72,0.66 0.66,0.72 0.48,0.72 0.72,0.72 0.48,0.72 0.48,0.9 0.24,0.72 0.42,0.96 0.48,0.72 0.24,0.96 0.24,0.9 0.48,1.92 0,0.96 0.24,0.9 0,0.96 0.48,0 0,-2.1 -0.72,-2.88 -0.24,-0.9 -0.24,-0.72 -0.48,-0.96 -0.24,-0.96 -0.42,-0.72 -0.48,-0.9 -0.48,-0.72 -0.72,-0.72 -0.48,-0.72 -2.82,-2.82 -0.72,-0.48 -0.66,-0.48 -0.96,-0.48 -0.72,-0.48 -0.96,-0.42 -0.9,-0.48 -0.96,-0.24 -0.96,-0.48 -0.9,-0.24 -0.96,-0.24 -0.96,0 -0.9,-0.24 -0.96,0 -1.2,0 z m -19.74,19.38 0.42,0 0,-1.86 0.72,-2.88 0.24,-0.9 0.24,-0.96 0.48,-0.72 0.24,-0.96 0.48,-0.72 0.42,-0.9 0.96,-1.44 0.72,-0.72 0.48,-0.72 0.72,-0.66 0.66,-0.48 0.72,-0.72 1.44,-0.96 0.9,-0.48 0.72,-0.48 0.96,-0.48 0.72,-0.42 0.9,-0.24 0.96,-0.24 0.96,-0.48 0.9,0 1.92,-0.48 1.86,0 0,-0.48 -1.86,0 -1.2,0.24 -0.96,0 -0.9,0.24 -0.96,0.24 -0.96,0.48 -0.9,0.24 -0.72,0.48 -0.96,0.42 -0.9,0.48 -1.44,0.96 -0.96,0.48 -0.66,0.72 -0.72,0.72 -0.48,0.66 -1.44,1.44 -0.48,0.72 -0.42,0.72 -0.48,0.9 -0.48,0.72 -0.48,0.96 -0.24,0.96 -0.48,0.72 -0.24,0.9 -0.24,0.96 0,0.96 -0.18,0.96 0,1.14"
         style="fill:#000000;fill-opacity:1;fill-rule:nonzero;stroke:none"
         id="path166" /><path
         d="m 486.36,694.68 0,-0.48 -1.38,0 -0.72,-0.24 -0.96,0 -0.72,-0.24 -0.66,0 -2.16,-0.72 -0.66,-0.18 -0.72,-0.24 -0.48,-0.48 -0.72,-0.24 -0.72,-0.48 -0.42,-0.24 -0.72,-0.48 -0.48,-0.48 -0.72,-0.48 -0.48,-0.48 -0.48,-0.42 -0.66,-0.48 -0.96,-0.96 -0.48,-0.72 -0.48,-0.48 -0.24,-0.48 -0.48,-0.66 -0.18,-0.48 -0.48,-0.72 -0.48,-1.44 -0.48,-0.48 -0.48,0 0.24,0.72 0.48,0.72 0.48,1.44 0.48,0.42 0.42,0.72 0.48,0.48 0.24,0.72 0.48,0.48 0.48,0.72 0.72,0.48 0.48,0.42 0.42,0.48 0.72,0.48 0.48,0.48 0.72,0.48 0.48,0.48 0.66,0.24 0.72,0.48 0.72,0.24 0.48,0.42 0.72,0.24 0.66,0.24 1.44,0.48 0.96,0.24 0.66,0.24 0.72,0 0.72,0.24 1.62,0 0.72,0 z m 18.6,-12.78 -0.48,0 -0.24,0.48 -0.18,0.72 -0.24,0.72 -0.48,0.72 -0.24,0.48 -0.48,0.66 -0.96,0.96 -0.48,0.72 -0.42,0.48 -0.96,0.96 -0.48,0.42 -0.48,0.48 -0.72,0.48 -0.42,0.48 -0.72,0.48 -0.72,0.24 -0.48,0.48 -0.72,0.24 -0.66,0.48 -0.72,0.24 -0.72,0.18 -0.48,0.24 -0.9,0.24 -0.72,0.24 -0.72,0 -0.72,0.24 -0.72,0 -0.66,0.24 -1.68,0 0,0.48 2.34,0 0.96,-0.24 0.72,0 0.72,-0.24 0.66,-0.24 2.88,-0.96 0.66,-0.42 0.72,-0.24 0.72,-0.48 0.48,-0.24 0.66,-0.48 0.72,-0.48 0.96,-0.96 0.72,-0.48 0.48,-0.42 0.42,-0.48 0.48,-0.72 0.48,-0.48 0.48,-0.72 0.48,-0.48 0.48,-0.72 0.24,-0.42 0.42,-0.72 0.48,-1.44"
         style="fill:#000000;fill-opacity:1;fill-rule:nonzero;stroke:none"
         id="path168" /><path
         d="m 486.36,651.9 0,0.48 0.96,0 0.96,0.24 1.86,0 0.72,0.24 0.9,0.24 0.72,0 0.96,0.24 0.72,0.24 0.66,0.24 0.72,0.42 0.96,0.24 0.72,0.24 0.48,0.48 0.66,0.24 1.44,0.96 0.48,0.24 0.72,0.48 0.42,0.48 0.48,0.42 0.72,0.48 1.44,1.44 0.42,0.48 0.24,0.48 0.48,0.48 0.48,0.66 0.48,0.96 0.48,0.48 0.24,0.72 0.24,0.48 0.18,0.48 0.24,0.66 0,0.48 0.24,0.48 0,0.48 0.24,0.72 0,3.54 -0.24,0.48 -0.24,0.24 0,0.48 -0.24,0.48 -0.18,0.42 -0.24,0.48 -1.68,1.68 -0.96,0.48 -0.42,0.24 -0.48,0.24 -0.72,0.24 -0.48,0.24 0.24,0.42 0.48,-0.24 0.72,0 0.48,-0.42 0.42,-0.24 0.96,-0.48 0.48,-0.48 0.48,-0.24 0.24,-0.48 0.48,-0.24 0.18,-0.48 0.24,-0.48 0.24,-0.42 0.48,-0.96 0,-0.48 0.24,-0.48 0,-0.48 0.24,-0.48 0,-2.1 -0.24,-0.72 0,-0.48 -0.24,-0.48 0,-0.72 -0.24,-0.42 -0.24,-0.48 -0.24,-0.72 -0.24,-0.48 -0.18,-0.72 -0.48,-0.48 -0.24,-0.48 -0.24,-0.66 -1.44,-1.44 -0.24,-0.72 -0.42,-0.48 -0.48,-0.48 -0.72,-0.48 -0.48,-0.42 -0.48,-0.48 -0.72,-0.48 -0.42,-0.48 -0.72,-0.24 -1.44,-0.96 -0.48,-0.24 -0.66,-0.48 -0.72,-0.18 -0.96,-0.48 -0.72,-0.24 -0.66,-0.24 -0.96,-0.24 -0.72,-0.24 -0.96,-0.24 -0.66,0 -0.96,-0.24 -0.96,0 -0.9,-0.24 -0.96,0 -0.96,0 z m -16.02,25.74 0.24,-0.42 -0.48,-0.24 -0.66,-0.24 -1.92,-0.96 -0.24,-0.48 -0.48,-0.24 -0.18,-0.48 -0.48,-0.24 -0.24,-0.48 -0.24,-0.24 -0.24,-0.42 -0.24,-0.48 0,-0.48 -0.24,-0.48 0,-0.48 -0.24,-0.48 0,-2.58 0.24,-0.48 0,-0.96 0.24,-0.72 0.24,-0.42 0.24,-0.48 0.24,-0.72 0.24,-0.48 0.48,-0.96 0.18,-0.72 0.48,-0.42 0.24,-0.48 0.96,-0.96 0.48,-0.72 0.48,-0.48 0.42,-0.48 0.48,-0.48 0.48,-0.42 0.48,-0.48 0.72,-0.24 0.48,-0.48 0.66,-0.48 0.72,-0.48 0.48,-0.24 0.72,-0.48 0.72,-0.24 0.66,-0.24 0.72,-0.42 0.72,-0.24 0.96,-0.24 0.66,-0.24 0.72,-0.24 0.96,-0.24 0.72,0 0.9,-0.24 1.92,0 0.66,-0.24 0.96,0 0,-0.48 -2.58,0 -0.96,0.24 -0.9,0 -0.96,0.24 -0.72,0.24 -0.96,0.24 -0.66,0.24 -0.72,0.24 -0.96,0.24 -0.72,0.24 -0.66,0.42 -0.72,0.24 -0.72,0.48 -0.72,0.24 -0.42,0.48 -1.44,0.96 -0.96,0.96 -0.72,0.42 -0.42,0.48 -1.92,1.92 -0.24,0.72 -0.9,0.9 -0.24,0.48 -0.24,0.72 -0.24,0.48 -0.48,0.72 -0.24,0.48 0,0.48 -0.24,0.66 -0.24,0.48 0,0.48 -0.24,0.72 0,0.96 -0.24,0.72 0.24,0.42 0,1.68 0.24,0.48 0,0.48 0.48,0.96 0.24,0.42 0.24,0.24 0.24,0.48 0.48,0.48 0.24,0.48 0.42,0.24 0.48,0.48 1.92,0.96 0.66,0.18"
         style="fill:#000000;fill-opacity:1;fill-rule:nonzero;stroke:none"
         id="path170" /><path
         d="m 504.96,681.9 0.24,-0.48 -2.82,-4.2 -0.48,0.42 2.82,4.26 0.24,0 z m -0.24,0 0.24,0 -0.24,0 z m 40.26,-0.48 -40.02,0 0,0.48 39.78,0 0.24,-0.48 z m 0,0 -0.24,0 0.24,0 z m -0.24,-1.14 0,0.72 0.24,0.24 0,0.42 0,-0.24 -0.42,0.48 0.18,0.24 0.72,0 0,-0.48 0.24,-0.24 -0.24,0 0,-0.66 -0.48,-0.48"
         style="fill:#000000;fill-opacity:1;fill-rule:nonzero;stroke:none"
         id="path172" /><path
         d="m 505.68,680.52 -1.44,-2.16 2.4,-1.14 33.9,0 1.38,0.66 2.4,1.92 0.42,0.72"
         style="fill:#000000;fill-opacity:1;fill-rule:evenodd;stroke:none"
         id="path174" /><path
         d="m 505.68,680.52 -1.44,-2.16 2.4,-1.14 33.9,0 1.38,0.66 2.4,1.92 0.42,0.72 -39.06,0"
         style="fill:none;stroke:#000000;stroke-width:0.06;stroke-linecap:round;stroke-linejoin:miter;stroke-miterlimit:10;stroke-dasharray:none;stroke-opacity:1"
         id="path176" /><path
         d="m 538.38,675.54 -31.08,0 0,0.48 30.9,0 0.18,-0.48 z m 0,0 -0.18,0 0.18,0 z m 0,-1.2 -0.18,0.48 0,0.24 0.18,0 0,0.72 0,-0.24 -0.42,0.48 0.24,0.24 0.42,0 0.24,-0.24 0.24,0 0,-0.72 -0.24,-0.24 0,-0.24 -0.24,-0.24 -0.24,0"
         style="fill:#000000;fill-opacity:1;fill-rule:nonzero;stroke:none"
         id="path178" /><path
         d="m 534.18,671.52 0.96,0.48 1.14,0.72 1.2,0.9 0.72,0.96 -29.7,0 0.96,-1.38 0.48,-1.68"
         style="fill:#000000;fill-opacity:1;fill-rule:evenodd;stroke:none"
         id="path180" /><path
         d="m 534.18,671.52 0.96,0.48 1.14,0.72 1.2,0.9 0.72,0.96 -29.7,0 0.96,-1.38 0.48,-1.68 24.24,0"
         style="fill:none;stroke:#000000;stroke-width:0.06;stroke-linecap:round;stroke-linejoin:miter;stroke-miterlimit:10;stroke-dasharray:none;stroke-opacity:1"
         id="path182" /><path
         d="m 532.08,669.84 -22.14,0 0,0.48004 22.14,0 0,-0.48004 z m 0,0 0,0 z m 0,-1.14 0,0.48 0.18,0.24 0,0.66 0,-0.24 -0.18,0 -0.24,0.48 0.24,0.24 0.42,0 0.48,-0.48 0,-0.24 -0.24,-0.42 0,-0.24 -0.48,-0.48"
         style="fill:#000000;fill-opacity:1;fill-rule:nonzero;stroke:none"
         id="path184" /><path
         d="m 509.94,668.94 22.14,0 -0.72,-0.96 -0.96,-0.72 -0.96,-0.96 -1.38,-0.66 -18.6,0 0.48,1.62"
         style="fill:#000000;fill-opacity:1;fill-rule:evenodd;stroke:none"
         id="path186" /><path
         d="m 509.94,668.94 22.14,0 -0.72,-0.96 -0.96,-0.72 -0.96,-0.96 -1.38,-0.66 -18.6,0 0.48,1.62 0,1.68"
         style="fill:none;stroke:#000000;stroke-width:0.06;stroke-linecap:round;stroke-linejoin:miter;stroke-miterlimit:10;stroke-dasharray:none;stroke-opacity:1"
         id="path188" /><path
         d="m 428.22,682.14 0,-0.72 -0.24,0.24 0,-0.66 0.24,0 0,-0.24 0.24,0 -0.24,-0.48 -0.24,0 -0.48,0.48 0,0.48 -0.24,0.18 0.24,0.24 0,0.48 0.72,0 0.24,-0.24 -0.24,0.24 z m 0,-0.72 -0.24,0 0,0.24 0.24,-0.24 z m 40.02,0.48 -0.24,-0.48 -39.78,0 0,0.72 39.78,0 0.24,-0.24 z m -0.24,0.24 0.24,-0.24 -0.24,0.24 z m 2.34,-4.74 -2.58,4.26 0.48,0.24 2.58,-4.26"
         style="fill:#000000;fill-opacity:1;fill-rule:nonzero;stroke:none"
         id="path190" /><path
         d="m 467.28,680.52 1.44,-2.16 -1.92,-1.14 -34.32,0 -1.44,0.66 -1.2,0.96 -0.9,0.96 -0.72,0.72"
         style="fill:#000000;fill-opacity:1;fill-rule:evenodd;stroke:none"
         id="path192" /><path
         d="m 467.28,680.52 1.44,-2.16 -1.92,-1.14 -34.32,0 -1.44,0.66 -1.2,0.96 -0.9,0.96 -0.72,0.72 39.06,0"
         style="fill:none;stroke:#000000;stroke-width:0.06;stroke-linecap:round;stroke-linejoin:miter;stroke-miterlimit:10;stroke-dasharray:none;stroke-opacity:1"
         id="path194" /><path
         d="m 465.42,675.54 -30.84,0 0,0.47998 30.84,0 0,-0.47998 z m -30.84,0 z m 0,0 0,0 z m 0.24,-0.96 -0.24,-0.48 -0.72,0.72 0,1.2 0.24,0.24 0.48,0 0.24,-0.24 -0.24,-0.48 -0.24,0.24 0,-0.48 0.24,-0.24 0,-0.24 0.24,0"
         style="fill:#000000;fill-opacity:1;fill-rule:nonzero;stroke:none"
         id="path196" /><path
         d="m 464.46,674.58 -29.64,0 0.48,-0.72 0.9,-0.9 1.2,-0.96 1.2,-0.72 24.48,0 0.48,1.68"
         style="fill:#000000;fill-opacity:1;fill-rule:evenodd;stroke:none"
         id="path198" /><path
         d="m 464.46,674.58 -29.64,0 0.48,-0.72 0.9,-0.9 1.2,-0.96 1.2,-0.72 24.48,0 0.48,1.68 0.9,1.62"
         style="fill:none;stroke:#000000;stroke-width:0.06;stroke-linecap:round;stroke-linejoin:miter;stroke-miterlimit:10;stroke-dasharray:none;stroke-opacity:1"
         id="path200" /><path
         d="m 440.7,669.66 22.38,0 0,0.65997 -22.38,0 0,-0.65997 z"
         style="fill:#000000;fill-opacity:1;fill-rule:nonzero;stroke:none"
         id="path202" /><path
         d="m 441.18,668.94 -0.48,-0.48 -0.48,0.48 0,0.24 -0.24,0.24 0,0.66 0.24,0.24 0.72,0 -0.24,-0.48 -0.24,0 0,-0.18 0.48,-0.48"
         style="fill:#000000;fill-opacity:1;fill-rule:nonzero;stroke:none"
         id="path204" /><path
         d="m 463.08,668.7 0,-1.68 0.48,-1.62 -18.66,0 -1.38,0.9 -1.44,0.96 -0.9,0.96 -0.48,0.72"
         style="fill:#000000;fill-opacity:1;fill-rule:evenodd;stroke:none"
         id="path206" /><path
         d="m 463.08,668.7 0,-1.68 0.48,-1.62 -18.66,0 -1.38,0.9 -1.44,0.96 -0.9,0.96 -0.48,0.72 22.38,-0.24"
         style="fill:none;stroke:#000000;stroke-width:0.06;stroke-linecap:round;stroke-linejoin:miter;stroke-miterlimit:10;stroke-dasharray:none;stroke-opacity:1"
         id="path208" /><path
         d="m 447.3,659.7 0,-0.24 -5.88,-2.58 -0.24,0.48 5.88,2.58 0.24,-0.24 z m -0.24,0.24 0.24,0 0,-0.24 -0.24,0.24 z m 2.34,-4.98 -0.24,0.24 -2.34,4.26 0.48,0.24 2.34,-4.26 -0.24,-0.48 z m 0.24,0.48 0,-0.24 -0.24,-0.24 0.24,0.48 z m -6.12,-2.82 5.64,2.82 0.24,-0.48 -5.64,-2.82"
         style="fill:#000000;fill-opacity:1;fill-rule:nonzero;stroke:none"
         id="path210" /><path
         d="m 444,652.62 -2.34,4.5 0.42,0.24 2.4,-4.5"
         style="fill:#000000;fill-opacity:1;fill-rule:nonzero;stroke:none"
         id="path212" /><path
         d="m 444.72,653.58 -1.68,3.3 0.48,0.24 1.86,-3.3"
         style="fill:#000000;fill-opacity:1;fill-rule:nonzero;stroke:none"
         id="path214" /><path
         d="m 447.3,656.64 -3.06,-1.44 -0.24,0.48 2.82,1.44"
         style="fill:#000000;fill-opacity:1;fill-rule:nonzero;stroke:none"
         id="path216" /><path
         d="m 447.54,655.44 -1.44,2.58 0.48,0.48 1.44,-2.82"
         style="fill:#000000;fill-opacity:1;fill-rule:nonzero;stroke:none"
         id="path218" /><path
         d="m 446.34,654.72 -1.44,2.88 0.48,0.24 1.44,-2.88"
         style="fill:#000000;fill-opacity:1;fill-rule:nonzero;stroke:none"
         id="path220" /><path
         d="m 445.86,655.2 -0.48,-0.48 -0.24,0.24 0.72,0 -0.24,0.24"
         style="fill:#000000;fill-opacity:1;fill-rule:nonzero;stroke:none"
         id="path222" /><path
         d="m 449.16,645.54 0.72,1.86 0.48,0 -0.72,-2.1"
         style="fill:#000000;fill-opacity:1;fill-rule:nonzero;stroke:none"
         id="path224" /><path
         d="m 451.98,647.16 -2.58,3.06 0.48,0.48 2.58,-3.3"
         style="fill:#000000;fill-opacity:1;fill-rule:nonzero;stroke:none"
         id="path226" /><path
         d="m 452.94,648.6 -1.86,2.34 0.42,0.48 1.92,-2.34"
         style="fill:#000000;fill-opacity:1;fill-rule:nonzero;stroke:none"
         id="path228" /><path
         d="m 447.78,646.44 0,0.48 0.24,0.24 0.42,0.24 1.2,1.2 0.96,0.72 0.48,-0.48 -1.92,-1.44 -0.72,-0.72 -0.42,-0.24 -0.24,0 z m 0,0 0,0 z m -0.96,0.72 0.48,0.24 0,-0.24 0.24,0 0.24,-0.24 0,-0.48 -0.24,0 -0.48,0.48"
         style="fill:#000000;fill-opacity:1;fill-rule:nonzero;stroke:none"
         id="path230" /><path
         d="m 449.16,648.6 -2.34,-0.48 -0.24,0.48 2.34,0.72"
         style="fill:#000000;fill-opacity:1;fill-rule:nonzero;stroke:none"
         id="path232" /><path
         d="m 450.12,653.58 0,-0.48 -4.98,-3.78 -0.24,0.48 4.74,3.78 0.48,0 z m -0.48,0 0.24,0.24 0.24,-0.24 -0.48,0 z m 1.62,-1.92 -0.42,0 -1.2,1.44 0.48,0.48 1.14,-1.44 0,-0.48 z m 0,0.48 0.24,-0.48 -0.24,0 0,0.48 z m -2.82,-0.96 0.24,0.24 2.4,0.72 0.18,-0.48 -2.58,-0.72 -0.24,0.24 z m 0,0 0,0.24 0.24,0 -0.24,-0.24 z m -0.42,-1.62 -0.24,0.24 0.24,0.24 0.18,0.42 0,0.24 0.24,0.48 0.48,-0.24 0,-0.24 -0.24,-0.48 -0.24,-0.42 -0.24,-0.24 -0.18,0 z m 0.18,0 -0.18,0 0.18,0 z m -1.62,0.24 0.48,0.24 0.24,-0.24 0.48,0 0.24,-0.24 0,-0.24 -1.2,0 0,0.24"
         style="fill:#000000;fill-opacity:1;fill-rule:nonzero;stroke:none"
         id="path234" /><path
         d="m 452.7,641.76 -2.1,0.48 0,0.66 2.34,-0.66"
         style="fill:#000000;fill-opacity:1;fill-rule:nonzero;stroke:none"
         id="path236" /><path
         d="m 455.04,646.68 0,-0.24 -3.78,-3.96 -0.42,0.18 3.96,4.02 0.24,0 z m -0.24,0 0,0.24 0.24,-0.24 -0.24,0 z m 3.54,-3.3 -0.48,0 -3.06,3.06 0.24,0.24 3.3,-2.82 0,-0.48 z m 0,0.48 0.24,-0.24 -0.24,-0.24 0,0.48 z m -1.38,-1.38 0,0.42 0.9,0.96 0.48,-0.48 -0.96,-0.9 -0.42,0 z m 0.42,0 -0.18,-0.24 -0.24,0.24 0.42,0 z m -3.24,3.3 3.24,-2.88 -0.42,-0.42 -3.3,2.82"
         style="fill:#000000;fill-opacity:1;fill-rule:nonzero;stroke:none"
         id="path238" /><path
         d="m 456.24,641.04 -3.54,3.06 0.48,0.48 3.54,-3.06"
         style="fill:#000000;fill-opacity:1;fill-rule:nonzero;stroke:none"
         id="path240" /><path
         d="m 454.32,641.52 -0.66,0 0.24,0.24 0.24,0.72 0.42,0.42 0.24,0.48 0.48,0.72 0.48,-0.24 -0.48,-0.72 -0.24,-0.48 -0.48,-0.66 -0.24,-0.48 z m -0.66,0 0,0.24 0.24,0 -0.24,-0.24 z m 0.9,-2.16 -0.24,-0.48 0.24,0 -0.42,0.24 0,0.24 -0.24,0.24 0,1.2 -0.24,0.72 0.66,0 0,-1.44 0.24,-0.48 0,-0.24 z m 0,0 0,0 z m 0.48,0.24 0.48,-0.24 -0.48,-0.48 -0.72,0 0.24,0.48 0.48,0"
         style="fill:#000000;fill-opacity:1;fill-rule:nonzero;stroke:none"
         id="path242" /><path
         d="m 457.86,635.82 0.95999,0 0,0.48004 -0.95999,0 0,-0.48004 z"
         style="fill:#000000;fill-opacity:1;fill-rule:nonzero;stroke:none"
         id="path244" /><path
         d="m 459.78,638.22 -1.92,1.14 0.48,0.48 1.92,-1.2"
         style="fill:#000000;fill-opacity:1;fill-rule:nonzero;stroke:none"
         id="path246" /><path
         d="m 460.5,641.04 0.18,0.72 0.48,-0.24 -0.24,-0.72"
         style="fill:#000000;fill-opacity:1;fill-rule:nonzero;stroke:none"
         id="path248" /><path
         d="m 461.64,640.08 -0.48,0 -1.38,0.96 0.24,0.48 1.38,-0.96 0.24,-0.48 z m -0.24,0.48 0.24,-0.24 0,-0.24 -0.24,0.48 z m -3.06,-4.26 2.82,4.26 0.48,-0.48 -2.82,-4.02"
         style="fill:#000000;fill-opacity:1;fill-rule:nonzero;stroke:none"
         id="path250" /><path
         d="m 459.54,639.6 0.48,0.48 0.48,-0.24 -0.48,-0.48"
         style="fill:#000000;fill-opacity:1;fill-rule:nonzero;stroke:none"
         id="path252" /><path
         d="m 458.34,637.5 0.24,0.72 0.48,0 0,-0.72"
         style="fill:#000000;fill-opacity:1;fill-rule:nonzero;stroke:none"
         id="path254" /><path
         d="m 456.72,636.78 -0.24,0.48 0.24,0.24 0.24,0 0.24,0.24 0.18,0.24 0.24,0.48 0.48,0.66 0.72,1.2 0.96,0.96 0.48,-0.24 -0.96,-1.2 -0.72,-1.2 -0.48,-0.42 -0.24,-0.48 -0.48,-0.24 -0.18,-0.24 -0.24,-0.24"
         style="fill:#000000;fill-opacity:1;fill-rule:nonzero;stroke:none"
         id="path256" /><path
         d="m 464.46,637.5 -3.54,2.34 0.24,0.48 3.54,-2.34"
         style="fill:#000000;fill-opacity:1;fill-rule:nonzero;stroke:none"
         id="path258" /><path
         d="m 463.08,639.36 0.48004,0 0,0.71997 -0.48004,0 0,-0.71997 z"
         style="fill:#000000;fill-opacity:1;fill-rule:nonzero;stroke:none"
         id="path260" /><path
         d="m 459.78,636.3 0.48,-0.24 -0.24,-0.48 -0.24,-0.24 -0.48,0 0,-0.24 -0.24,0 0,0.72 0.24,0 0.48,0.48 z m 0,0 0,0 z m 1.86,2.16 0,-0.48 -1.38,-1.92 -0.48,0.24 1.38,1.92 0.48,0.24 z m -0.48,-0.24 0.24,0.24 0.24,0 -0.48,-0.24 z m 1.68,-0.96 -0.24,0 -1.2,0.72 0.24,0.48 1.2,-0.72 0,-0.48 z m 0,0.48 0.24,-0.24 -0.24,-0.24 0,0.48 z m -1.68,-2.88 -0.48,0.24 0,-0.24 0,0.24 0.24,0.24 0.24,0.48 0.24,0.24 0.96,1.44 0.48,-0.24 -0.96,-1.44 -0.24,-0.48 -0.24,-0.24 0,-0.24 -0.24,0.24 0,-0.24 z m 0,0.24 0.24,-0.24 -0.24,0 0,0.24 z m 0.24,-0.9 0.24,-0.48 -0.48,0 -0.48,0.48 0,0.9 0.48,-0.24 0,-0.42 0.24,-0.24 0.24,0 -0.24,0 z m 0.24,-0.48 0,-0.24 -0.24,0.24 0.24,0 z m 0.48,0.24 -0.48,-0.24 -0.24,0.48 0.24,0.24"
         style="fill:#000000;fill-opacity:1;fill-rule:nonzero;stroke:none"
         id="path262" /><path
         d="m 465.9,635.58 0,0.48 2.1,1.2 0.24,-0.48 -1.86,-1.2 -0.48,0 z m 0,0 -0.24,0.24 0.24,0.24 0,-0.48 z m 1.14,-0.9 -1.14,0.9 0.48,0.48 1.14,-0.96"
         style="fill:#000000;fill-opacity:1;fill-rule:nonzero;stroke:none"
         id="path264" /><path
         d="m 465.42,633.72 -0.48,0 0.24,0.48 0.24,0 0.24,0.24 0.48,0.24 0.48,0 0.42,0.42 0.48,0.24 0.72,0.24 0.24,-0.48 -0.48,-0.24 -0.72,-0.42 -0.48,-0.24 -0.42,-0.24 -0.48,0 -0.24,-0.24 -0.24,0 z m 1.62,-0.48 -0.24,-0.48 -0.42,0.24 -0.72,0 -0.24,0.24 -0.24,0 0,0.24 -0.24,0 0,0.24 0.96,0 0.72,-0.24"
         style="fill:#000000;fill-opacity:1;fill-rule:nonzero;stroke:none"
         id="path266" /><path
         d="m 466.38,631.8 -2.16,0.24 0.24,0.48 1.92,-0.24"
         style="fill:#000000;fill-opacity:1;fill-rule:nonzero;stroke:none"
         id="path268" /><path
         d="m 469.86,629.22 -3.72,1.62 0.24,0.48 3.72,-1.62"
         style="fill:#000000;fill-opacity:1;fill-rule:nonzero;stroke:none"
         id="path270" /><path
         d="m 469.68,636.06 0.18,-0.24 -2.58,-5.16 -0.48,0.18 2.64,5.22 0.24,0 z m -0.24,0 0,0.24 0.24,-0.24 -0.24,0 z m 2.58,-1.2 -0.24,-0.18 -2.34,0.9 0.24,0.48 2.34,-0.96 0,-0.24 z m 0,0.24 0.24,0 -0.24,-0.24 0,0.24 z m -3.06,-5.16 2.58,5.16 0.48,-0.24 -2.34,-5.16"
         style="fill:#000000;fill-opacity:1;fill-rule:nonzero;stroke:none"
         id="path272" /><path
         d="m 470.82,633.24 -2.1,0.72 0.24,0.72 2.1,-0.96"
         style="fill:#000000;fill-opacity:1;fill-rule:nonzero;stroke:none"
         id="path274" /><path
         d="m 470.1,631.32 -2.1,0.96 0.24,0.48 2.1,-0.96"
         style="fill:#000000;fill-opacity:1;fill-rule:nonzero;stroke:none"
         id="path276" /><path
         d="m 480,632.52 -0.24,-0.24 -2.34,0.72 0.24,0.48 2.1,-0.72 0.24,-0.24 z m -0.24,0.24 0.24,0 0,-0.24 -0.24,0.24 z m -0.9,-3.06 -0.24,0.24 0.9,2.58 0.48,0 -0.72,-2.58 -0.42,-0.24 z m 0.42,0.24 -0.18,-0.24 -0.24,0 0.42,0.24 z m -2.82,0.48 0.48,0.24 2.16,-0.48 -0.24,-0.48 -2.16,0.48 -0.24,0.24 z m 0.24,-0.24 -0.24,0 0,0.24 0.24,-0.24 z m 0.96,3.3 0,-0.48 -0.48,-2.58 -0.72,0 0.72,2.82 0.48,0.24 z m -0.48,-0.24 0,0.24 0.48,0"
         style="fill:#000000;fill-opacity:1;fill-rule:nonzero;stroke:none"
         id="path278" /><path
         d="m 478.38,627.06 -0.48,1.68 0.48,0.24 0.72,-1.68"
         style="fill:#000000;fill-opacity:1;fill-rule:nonzero;stroke:none"
         id="path280" /><path
         d="m 475.08,628.02 1.62,1.2 0.24,-0.48 -1.38,-1.2"
         style="fill:#000000;fill-opacity:1;fill-rule:nonzero;stroke:none"
         id="path282" /><path
         d="m 475.56,628.5 -0.24,0.72 0.48,-0.24 0,-0.48 0.24,-0.24 -0.48,-0.24 -0.24,0.24 -0.24,0.48 0.48,-0.24 z m -0.24,0.72 0.24,0 0.24,-0.24 -0.48,0.24 z m -2.58,-0.48 0,0.48 0.66,0 0.72,-0.24 0.96,0 0.24,0.24 0.24,-0.72 -2.16,0"
         style="fill:#000000;fill-opacity:1;fill-rule:nonzero;stroke:none"
         id="path284" /><path
         d="m 474.12,632.28 -0.48,-0.24 0,0.72 0.24,0 1.44,1.44 0.48,-0.24 -0.48,-0.48 -0.24,-0.48 -0.48,-0.24 -0.48,-0.48 z m 1.2,-0.24 0.24,-0.48 -0.48,0 -0.24,0.24 -0.96,0 -0.24,0.24 0.48,0.24 0.96,0 0.24,-0.24 0.24,0 -0.24,0 z m 0.24,-0.48 -0.24,-0.24 0,0.24 0.24,0 z m 0.9,0.72 -0.9,-0.72 -0.24,0.48 0.72,0.72"
         style="fill:#000000;fill-opacity:1;fill-rule:nonzero;stroke:none"
         id="path286" /><path
         d="m 473.64,630.66 -0.48,-0.24 0,0.24 0.24,0.18 0.24,0.24 0.48,0 0.24,0.24 0.48,0.24 0.48,0.48 0.48,-0.24 -0.72,-0.72 -0.48,-0.24 -0.24,-0.18 -0.24,0 -0.24,-0.24 -0.24,0 0,0.24 z m 1.92,-0.24 0,-0.48 -1.92,0 -0.48,0.48 0.48,0.24 0.48,0 0.72,-0.24"
         style="fill:#000000;fill-opacity:1;fill-rule:nonzero;stroke:none"
         id="path288" /><path
         d="m 482.82,672.24 -13.38,-13.26 m 16.92,-6.84 0,11.1 m 17.22,-4.26 -9.9,9.48"
         style="fill:none;stroke:#000000;stroke-width:0.06;stroke-linecap:round;stroke-linejoin:miter;stroke-miterlimit:10;stroke-dasharray:none;stroke-opacity:1"
         id="path290" /><path
         d="m 484.74,676.02 0.24,-0.48 0.24,0 0,-0.24 0.18,-0.24 0.48,0 0.24,-0.24 0,-1.2 -0.24,-0.18 -0.48,-0.48 -0.18,0 0,-0.24 -0.72,0 -0.72,-0.72 -0.72,0 0,0.24 -0.24,0.24 0.24,0.24 0.24,0.48 0.24,0.24 0,0.18 0.24,0.24 0,0.24 0.48,0.24 0.24,0.24 0,1.2 -0.24,0 0.24,0 0,0.24 0.24,0"
         style="fill:#000000;fill-opacity:1;fill-rule:evenodd;stroke:none"
         id="path292" /><path
         d="m 485.4,669.66 -0.18,0.18 0,0.48 0.18,0 0.48,0.48 0.24,0 0.24,-0.24 0,-0.72 -0.24,0 -0.24,0.24 -0.24,0 0,-0.42 -0.24,0"
         style="fill:#000000;fill-opacity:1;fill-rule:evenodd;stroke:none"
         id="path294" /><path
         d="m 496.02,681.24 0.72,0.18 0.24,0.24 0.48,0.24 0,0.24 -0.24,0 0,0.24 0.48,0 0,0.72 -0.24,0 0,0.48 -0.48,0 0,-0.24 -0.24,0 0,-0.72 -0.24,0 0,-0.24 -0.24,0 0,-0.72 -0.24,-0.24 0,-0.18 -0.24,-0.24 0.48,0"
         style="fill:#000000;fill-opacity:1;fill-rule:evenodd;stroke:none"
         id="path296" /><path
         d="m 488.04,696.36 -0.24,-0.24 -0.72,0 0.24,-0.72 0.24,-0.24 0.24,0 0.24,-0.24 0.48,0 0,-0.24 0.18,0 0.72,0.24 -0.24,0 -0.48,0.48 0,0.96 -0.42,0"
         style="fill:#000000;fill-opacity:1;fill-rule:evenodd;stroke:none"
         id="path298" /><path
         d="m 469.2,659.22 13.38,13.26 0.48,-0.48 -13.38,-13.26"
         style="fill:#000000;fill-opacity:1;fill-rule:nonzero;stroke:none"
         id="path300" /><path
         d="m 486.12,652.14 0.71997,0 0,11.1 -0.71997,0 0,-11.1 z"
         style="fill:#000000;fill-opacity:1;fill-rule:nonzero;stroke:none"
         id="path302" /><path
         d="m 493.92,668.7 9.9,-9.48 -0.48,-0.24 -9.9,9.24"
         style="fill:#000000;fill-opacity:1;fill-rule:nonzero;stroke:none"
         id="path304" /></g></g></svg>