<?xml version="1.0" encoding="UTF-8" standalone="no"?>
<!-- Created with Inkscape (http://www.inkscape.org/) -->

<svg
   width="184.33897mm"
   height="101.56333mm"
   viewBox="0 0 184.33898 101.56333"
   version="1.1"
   id="svg1"
   xml:space="preserve"
   inkscape:version="1.4.2 (f4327f4, 2025-05-13)"
   sodipodi:docname="IFAD_logo.svg"
   xmlns:inkscape="http://www.inkscape.org/namespaces/inkscape"
   xmlns:sodipodi="http://sodipodi.sourceforge.net/DTD/sodipodi-0.dtd"
   xmlns="http://www.w3.org/2000/svg"
   xmlns:svg="http://www.w3.org/2000/svg"><sodipodi:namedview
     id="namedview1"
     pagecolor="#ffffff"
     bordercolor="#000000"
     borderopacity="0.25"
     inkscape:showpageshadow="2"
     inkscape:pageopacity="0.0"
     inkscape:pagecheckerboard="0"
     inkscape:deskcolor="#d1d1d1"
     inkscape:document-units="mm"
     inkscape:zoom="0.48693448"
     inkscape:cx="60.583099"
     inkscape:cy="236.1714"
     inkscape:window-width="1920"
     inkscape:window-height="991"
     inkscape:window-x="-9"
     inkscape:window-y="-9"
     inkscape:window-maximized="1"
     inkscape:current-layer="layer1"></sodipodi:namedview><defs
     id="defs1" /><g
     inkscape:label="Layer 1"
     inkscape:groupmode="layer"
     id="layer1"
     transform="translate(-10.753132,-16.130389)"><path
       style="display:inline;fill:#aaaaaa;fill-opacity:1"
       d="m 11.13735,108.93362 11.154312,-0.0637 c 7.357367,-1.10875 13.327381,-6.34672 14.359753,-15.31553 L 36.689845,67.6 h 7.52042 l 0.0055,26.701335 c -0.720186,7.555685 -5.343715,18.868725 -18.129419,21.818175 -4.873404,1.12421 -10.011096,0.60495 -14.948959,0.8058 z m 0,-9.542986 9.839756,-0.05593 c 2.923177,-0.01662 6.172377,-4.076649 6.195953,-6.59374 L 27.273385,67.6 h 7.706414 l 0.0046,25.623033 c 4.72e-4,2.630155 -3.460768,13.634987 -12.676832,13.855537 l -11.170179,0.26731 z m 48.63767,7.821626 C 46.769489,105.7328 45.922094,94.034087 45.931171,94.045957 c 0,0 -0.1334,-16.676958 -0.1334,-26.445957 h 7.540625 l 0.116261,25.926546 c -0.0068,-0.08804 0.529987,4.417179 5.266134,5.448391 3.586149,0.60877 7.262721,0.452645 10.889481,0.473007 v 3.949116 3.94911 c -3.279037,-0.001 -6.559428,0.04 -9.835249,-0.13386 z M 33.475941,60.228555 c -2.620346,-0.865783 -6.645707,-4.134355 -7.649707,-8.353489 -0.427995,-1.798573 -0.212655,-5.761122 0.884178,-7.501824 0.255962,-0.406217 -0.118327,0.02958 -0.03707,-13.822442 0.07142,-12.175713 0.138335,-14.221356 0.465167,-14.221356 0.327017,0 0.389579,2.121527 0.458522,14.485939 0.0356,6.385164 -0.400935,16.099966 0.797149,16.490076 3.571275,4.323105 5.158731,1.135019 11.94603,8.653598 6.451342,-6.612996 10.74541,-6.134083 11.4576,-8.081359 1.723826,-3.17693 1.133586,-1.275787 1.143709,-17.175593 0.009,-14.196269 0.0065,-14.372661 0.529167,-14.372661 0.522459,0 0.529167,0.176389 0.529167,13.915699 0,13.41894 0.02001,13.981589 0.560633,15.761464 0.448451,1.476424 0.593037,2.325889 0.446739,4.227974 -0.365415,4.750907 -2.832852,7.76301 -8.947106,10.431876 -1.751914,0.764709 -4.248616,1.686119 -5.65103,5.292896 -1.716567,-3.272889 -3.277324,-4.446516 -6.933148,-5.730798 z M 33.362351,48.840653 C 30.019752,47.050146 26.419378,39.71055 29.362269,34.47494 c 0.05414,-0.09632 -0.01723,-3.894375 0,-8.951224 0.0272,-7.982372 0.238103,-8.906893 0.428207,-9.194272 0.44811,-0.677403 0.149089,5.52469 0.396875,10.036943 0.247786,4.512253 -1.495235,11.809627 2.38125,13.117543 5.391929,2.896264 5.79606,4.484137 7.758376,7.055046 2.343564,-3.413274 2.968323,-4.52434 7.658502,-7.187705 3.182459,-2.112942 2.639193,-1.340066 2.581202,-13.075754 -0.04315,-8.73249 0.03168,-9.946027 0.384964,-9.946027 0.352193,0 0.402375,1.117778 0.402375,8.962569 0,7.692017 0.09226,9.115781 0.437347,10.120314 2.07712,6.046469 -1.66838,12.347057 -6.137014,14.547494 -2.900519,1.685436 -3.585683,2.746121 -5.296428,4.632332 -0.912622,-1.727848 -3.360439,-3.804338 -6.995574,-5.751546 z m 6.993454,-4.516252 c -2.020082,-3.653311 -5.661996,-3.847721 -7.038966,-6.231202 -1.376969,-2.383481 -2.24957,-3.503028 -1.424338,-6.971021 0.22227,-0.934079 0.853064,-2.144908 0.992609,-2.284452 0.147687,-0.147688 -0.05193,-2.545705 -0.05193,-6.211199 0,-6.120695 0.01482,-6.297084 0.529167,-6.297084 0.516353,0 0.473105,4.162665 0.529167,7.28454 -0.180269,7.65229 -0.196257,9.992119 3.249008,10.436866 0.131423,0.01696 -0.18187,-4.700597 -0.12236,-9.320884 0.08932,-6.934223 0.172255,-8.400522 0.475152,-8.400522 0.302001,0 0.366947,1.053639 0.366947,5.953126 0,5.024627 -0.214439,5.325769 0.247887,6.055006 0.734008,-1.376303 3.287062,-1.970882 4.555684,0.04283 0.283772,-1.450243 0.320769,-3.33888 0.192162,-6.428571 -0.242073,-5.815639 0.308535,-6.209274 0.428223,-5.622396 0.813743,3.990116 0.04482,9.457059 0.254979,13.217709 0.143214,2.562688 -0.03628,4.611257 -0.03628,4.611257 4.671042,-0.44981 3.342971,-7.492949 3.411268,-10.420467 0.167065,-2.635719 -0.02491,-7.408499 0.330729,-7.408499 0.351747,0 0.469922,0.797623 0.404926,6.070294 -0.07117,5.773769 -0.253579,5.676867 0.308783,6.612625 0.465745,0.774989 0.868657,1.926592 0.931342,3.830046 0.0696,2.113377 -0.112496,2.516056 -0.57099,3.727662 -1.55568,4.111006 -6.070141,3.830452 -7.963178,7.754336 z"
       id="path3"
       sodipodi:nodetypes="ccccccscccssccsscccccccscccccsssssscccsssssssssssszcccssssccsccsssscssssccsssscssssscc"
       inkscape:label="gray" /><path
       style="display:inline;fill:#333333;fill-opacity:1"
       d="M 79.135269,87.370075 V 67.394031 h 5.027084 5.027083 v 19.976044 19.976045 h -5.027083 -5.027084 z m 17.317276,19.640875 c -0.07074,-0.18435 -0.09677,-9.143802 -0.05784,-19.909901 l 0.07077,-19.574726 10.781775,-0.06911 10.78177,-0.06911 v 4.340285 c 0,3.713698 -0.0604,4.363471 -0.41851,4.500886 -0.23019,0.08833 -2.90909,0.160599 -5.95313,0.160599 h -5.53461 v 3.439583 3.439584 h 5.82083 5.82084 v 4.365625 4.365626 h -5.82084 -5.82083 v 7.672917 7.672922 h -4.7708 c -3.606303,0 -4.802205,-0.0818 -4.899428,-0.33517 z m 21.124135,-0.51934 c 0.19415,-0.47591 3.7984,-9.467259 8.00944,-19.980785 l 7.65644,-19.115501 4.01211,-6.46e-4 4.01211,-6.47e-4 7.06941,17.793231 c 3.88818,9.786277 7.46098,18.775498 7.93956,19.976048 l 0.87014,2.18281 h -5.51364 -5.51364 l -0.9698,-2.91042 -0.96979,-2.91042 h -6.9677 -6.9677 l -0.41349,1.12448 c -0.22741,0.61847 -0.69567,1.89839 -1.04058,2.84428 l -0.62709,1.71979 -5.4694,0.0715 -5.46939,0.0715 z m 23.73568,-13.388845 c 0,-0.204908 -3.54202,-12.163601 -3.84465,-12.980456 -0.0751,-0.202729 -0.20081,-0.304354 -0.27933,-0.225832 -0.0785,0.07852 -0.97077,2.923297 -1.98279,6.321724 -1.01201,3.398427 -1.90549,6.387317 -1.9855,6.641979 -0.13428,0.427373 0.17163,0.463021 3.97339,0.463021 2.26538,0 4.11888,-0.0992 4.11888,-0.220436 z m 19.31458,-5.724873 V 67.348696 l 9.59115,0.116434 c 10.74697,0.130466 11.39248,0.217468 15.17454,2.045231 4.25268,2.055196 7.73558,6.57735 9.08202,11.791964 0.86917,3.366216 0.81435,8.936914 -0.12419,12.618842 -1.44644,5.67441 -5.32789,10.011233 -10.61597,11.861413 -3.37299,1.18013 -4.88622,1.33856 -14.17786,1.48438 l -8.92969,0.14013 z m 18.8322,10.208923 c 3.82031,-1.482802 5.73901,-5.417904 5.43307,-11.142782 -0.28934,-5.414327 -2.70663,-8.975455 -6.63814,-9.779271 -0.74539,-0.152398 -2.69483,-0.30636 -4.33209,-0.342138 l -2.97684,-0.06505 2.8e-4,11.077002 2.7e-4,11.077001 3.50573,-0.120892 c 2.77767,-0.09578 3.81766,-0.241963 5.00772,-0.70387 z"
       id="path1"
       inkscape:label="black" /></g></svg>
