<?xml version="1.0" encoding="UTF-8" standalone="no"?>
<!-- Created with Inkscape (http://www.inkscape.org/) -->

<svg
   version="1.1"
   id="svg1"
   width="980"
   height="1024"
   viewBox="0 0 980 1024"
   sodipodi:docname="International Seabed Authority Logo.svg"
   inkscape:version="1.4.2 (f4327f4, 2025-05-13)"
   xmlns:inkscape="http://www.inkscape.org/namespaces/inkscape"
   xmlns:sodipodi="http://sodipodi.sourceforge.net/DTD/sodipodi-0.dtd"
   xmlns="http://www.w3.org/2000/svg"
   xmlns:svg="http://www.w3.org/2000/svg">
  <defs
     id="defs1" />
  <sodipodi:namedview
     id="namedview1"
     pagecolor="#ffffff"
     bordercolor="#000000"
     borderopacity="0.25"
     inkscape:showpageshadow="2"
     inkscape:pageopacity="0.0"
     inkscape:pagecheckerboard="0"
     inkscape:deskcolor="#d1d1d1"
     showgrid="false"
     inkscape:zoom="0.75488281"
     inkscape:cx="489.47995"
     inkscape:cy="512"
     inkscape:window-width="1920"
     inkscape:window-height="991"
     inkscape:window-x="-9"
     inkscape:window-y="-9"
     inkscape:window-maximized="1"
     inkscape:current-layer="g1" />
  <g
     inkscape:groupmode="layer"
     inkscape:label="Image"
     id="g1">
    <path
       style="fill:#002f6c;fill-opacity:1"
       d="M 0,512 V 0 h 490 490 v 512 512 H 490 0 Z m 621.37766,496.6442 c 4.10425,-2.0798 6.62194,-4.2345 6.62129,-5.6667 -0.003,-7.53251 -15.02511,-31.25291 -26.87796,-42.44234 -8.70353,-8.2164 -10.50864,-9.37076 -50.29897,-32.16608 -17.31878,-9.92168 -32.64231,-18.84266 -34.05229,-19.8244 -2.52924,-1.76106 -2.52924,-1.79888 0,-2.82205 1.40998,-0.57039 6.7636,-1.0025 11.89694,-0.96025 8.35202,0.0688 11.08567,0.85601 26,7.48767 110.15862,48.98204 190.29936,56.63638 254.88018,24.34394 14.48112,-7.24102 31.91503,-17.97397 31.16555,-19.18665 -0.36023,-0.58288 -3.21789,-0.54634 -6.35035,0.0812 -33.98513,6.80832 -50.89117,4.92586 -120.04434,-13.36677 C 644.21703,885.5785 638.03929,884.67362 582,884.74064 c -38.82688,0.0464 -40.37149,0.14923 -52.66667,3.50493 -6.96666,1.90139 -17.46666,5.77399 -23.33333,8.60576 C 496.73981,901.32111 494.10267,902 486,902 c -8.25887,0 -10.6805,-0.65295 -21.03554,-5.67184 -16.59871,-8.04508 -27.96187,-10.86905 -50.81544,-12.62863 -25.23122,-1.94265 -74.16917,0.25433 -96.81569,4.34637 -8.43333,1.52384 -32.73333,7.19933 -54,12.61222 -57.02824,14.51507 -64.85903,15.86188 -92.66666,15.9376 -14.90836,0.0406 -26.13972,-0.57897 -31.10574,-1.71591 -4.27483,-0.97869 -8.09832,-1.45353 -8.49665,-1.0552 -1.12558,1.12558 18.94022,13.59948 32.26905,20.06005 14.51637,7.03616 27.78402,11.65482 44.66667,15.5491 15.74492,3.63184 53.07666,5.00763 72.87721,2.68575 37.15197,-4.35656 76.45738,-15.66595 125.78946,-36.19353 9.16666,-3.81434 19.5231,-8.0581 23.0143,-9.43057 6.28138,-2.46936 16.41061,-3.02939 24.19414,-1.33766 5.17662,1.12513 5.59436,0.83632 -29.20844,20.19336 -48.19727,26.80694 -56.10322,32.4041 -66.52688,47.09889 -6.39688,9.01803 -15.47312,26.3188 -15.47312,29.4943 0,1.9919 11.59563,8.7224 15.02745,8.7224 0.98052,0 3.85047,-2.1731 6.37766,-4.8291 9.23976,-9.71076 42.27408,-39.84503 54.86837,-50.05156 25.02695,-20.28208 53.21168,-36.72652 65.22053,-38.05305 5.04343,-0.55711 7.65663,0.26905 19.17265,6.06143 27.74976,13.95769 47.45355,29.2043 85.33334,66.03016 12.46666,12.11982 23.43661,22.06742 24.37765,22.10572 0.94105,0.038 4.69105,-1.4404 8.33334,-3.2861 z M 727.57638,884.00945 c 16.12815,-1.25443 48.16325,-7.56325 70.97942,-13.97828 35.03178,-9.8496 61.91708,-23.788 79.17819,-41.04911 11.10718,-11.10719 19.71935,-23.64873 16.23937,-23.64873 -0.38132,0 -5.96421,2.64721 -12.40642,5.88268 -20.26293,10.17665 -34.67311,13.56996 -71.27221,16.78318 -22.17014,1.94643 -26.60657,3.10957 -54.0255,14.16429 C 742.85064,847.57357 731.45865,852 730.9537,852 c -0.50496,0 2.07389,-2.02245 5.73076,-4.49434 9.59238,-6.48402 19.75333,-17.80763 24.60694,-27.42259 2.31727,-4.5905 5.94485,-15.03712 8.06128,-23.21471 4.75716,-18.38104 12.30658,-58.5798 11.73572,-62.48977 -0.32872,-2.25144 -3.79098,1.50536 -15.69773,17.03311 -42.21445,55.05244 -70.66471,87.11375 -99.11135,111.69107 -14.43435,12.47098 -16.69957,14.92953 -14.50389,15.74176 3.56935,1.32039 34.7929,5.08211 46.22457,5.56899 5.13333,0.21864 10.23333,0.50142 11.33333,0.62841 1.1,0.12699 9.30938,-0.33762 18.24305,-1.03248 z m -438.90971,-2.70044 c 8.8,-0.73158 20.19361,-2.00382 25.31915,-2.82721 l 9.31914,-1.49707 -11.31914,-10.12889 c -34.19654,-30.60061 -57.18351,-56.77986 -100.57897,-114.54671 -9.4929,-12.63669 -17.74999,-22.9758 -18.34909,-22.9758 -1.21419,0 -0.89223,2.68615 3.7556,31.33334 5.76657,35.54261 12.00225,55.21079 21.64659,68.27625 3.71962,5.03907 11.01037,11.52863 20.25797,18.0318 4.11546,2.8941 -12.41838,-2.98392 -32.05125,-11.39469 -18.37794,-7.87315 -20.43619,-8.35849 -49.20223,-11.60197 -37.86899,-4.26987 -53.90027,-8.47387 -70.774385,-18.55967 -4.77953,-2.85676 -8.892162,-4.63825 -9.139183,-3.95887 -0.71333,1.96189 12.209618,18.60732 20.699663,26.66224 22.044265,20.91449 56.762735,35.89287 111.082795,47.92378 28.35967,6.28115 49.90073,7.71032 79.33334,5.26347 z m 229.66802,-33.53238 c 18.1367,-4.56687 28.15071,-31.05108 20.33276,-53.77434 C 533.38371,778.64481 523.85801,771.5 508.66667,771.5 c -25.2302,0 -39.22065,25.81255 -29.70359,54.8035 6.08264,18.52898 20.29039,26.27784 39.37161,21.47313 z m -20.75873,-11.81718 c -7.01427,-4.27646 -10.22778,-12.84488 -10.23589,-27.29278 -0.006,-10.28532 0.44113,-12.72038 3.12763,-17.04145 4.24813,-6.83288 12.19411,-10.78953 19.9195,-9.91876 7.36232,0.82984 11.98289,4.16339 16.27947,11.74499 2.88917,5.09813 3.32619,7.48086 3.27973,17.88188 -0.0645,14.43539 -3.05521,21.65753 -10.41473,25.14986 -6.42111,3.04701 -16.49301,2.80676 -21.95571,-0.52374 z m -37.33278,-26.29278 c 10.52885,-36.07073 10.62002,-36.96622 3.85777,-37.89119 -3.02344,-0.41357 -3.51878,0.4748 -7.66288,13.74299 l -4.4305,14.18513 -13.67045,-3.91628 c -7.51875,-2.15395 -14.38886,-4.15631 -15.26691,-4.44968 -1.16228,-0.38833 -0.70567,-3.72509 1.67888,-12.26885 1.80143,-6.4545 3.62015,-13.02673 4.04158,-14.60496 0.63708,-2.38579 0.0509,-3.02662 -3.47733,-3.80155 -2.33396,-0.51263 -4.74296,-0.42135 -5.35332,0.20284 -0.61036,0.62418 -5.49367,16.31133 -10.8518,34.86033 -10.39939,36.00103 -10.41505,36.20153 -2.83135,36.25413 2.51209,0.0174 3.35447,-1.39649 5.74706,-9.64625 1.54194,-5.31666 3.69364,-12.45066 4.78157,-15.85332 l 1.97804,-6.18665 14.74135,4.43088 c 8.10774,2.43699 14.95296,4.6425 15.21159,4.90113 0.25864,0.25864 -1.53201,7.34874 -3.97921,15.75577 -4.00152,13.74667 -4.23795,15.45332 -2.34853,16.95219 1.15552,0.91667 3.38609,1.66667 4.95683,1.66667 2.58556,0 3.8045,-3.24985 12.87761,-34.33333 z m 119.75904,23.04101 c 0.001,-0.75589 -2.4958,-7.22732 -5.54894,-14.38096 -3.05314,-7.15364 -5.21232,-13.34546 -4.79817,-13.75961 C 571.31017,802.91206 589.80013,796 592.5724,796 c 3.83831,0 7.11914,3.89494 12.63495,15 4.63738,9.33647 5.71516,10.04128 11.39658,7.45265 4.19628,-1.91196 4.22065,-2.86552 0.20973,-8.20828 -1.75248,-2.3344 -5.01694,-7.90686 -7.25435,-12.38323 -2.92067,-5.84336 -5.19544,-8.60585 -8.06536,-9.79461 -3.53514,-1.4643 -3.8526,-2.03641 -2.74564,-4.94794 2.00279,-5.26774 1.46385,-11.17173 -1.59699,-17.49458 -4.42898,-9.14906 -13.08853,-13.07986 -21.42192,-9.72396 -1.6845,0.67835 -9.82517,3.76655 -18.09038,6.86265 -13.63743,5.10851 -14.94572,5.88868 -14.14207,8.43329 0.48707,1.5422 6.19951,15.23464 12.69432,30.42764 6.4948,15.19299 11.80873,28.10949 11.80873,28.70332 0,0.59384 0.89804,2.36183 1.99564,3.92887 1.75853,2.51066 2.47139,2.66959 6,1.33769 2.2024,-0.83131 4.00536,-2.12993 4.00658,-2.88583 z m -18.55547,-45.12156 c -6.54738,-14.59287 -6.95456,-13.28831 5.67109,-18.16948 6.14353,-2.37513 12.58466,-4.11551 14.31362,-3.86753 3.63977,0.52206 9.23521,8.09579 9.23521,12.50036 0,4.76778 -3.93079,8.2257 -15.05884,13.2473 l -10.39217,4.68953 z m -183.90064,-8.25279 c 7.45131,-11.73333 14.27859,-22.13879 15.17173,-23.12324 1.33857,-1.47542 3.14196,-0.83117 10.26378,3.66666 4.75193,3.00112 9.00963,5.45658 9.46156,5.45658 0.45192,0 1.72733,-1.75134 2.83424,-3.89187 l 2.01256,-3.89187 -21.88171,-14.10813 c -12.03494,-7.75947 -22.50407,-14.10813 -23.26474,-14.10813 -1.46502,0 -4.14353,4.22078 -4.14353,6.52933 0,0.75422 3.6,3.81602 8,6.80401 4.4,2.98798 8,5.89995 8,6.47105 0,0.57109 -7.4884,12.69873 -16.6409,26.95031 L 350.7182,802 l 3.6409,3.01801 3.6409,3.01802 2.99913,-3.68468 c 1.64953,-2.02658 9.09567,-13.28468 16.54698,-25.01802 z M 822,799.05061 c 11.73333,-4.06701 21.93333,-7.84375 22.66667,-8.39274 0.73333,-0.54899 2.83333,-1.44506 4.66666,-1.99126 6.7459,-2.0098 35.66694,-17.14401 46.66667,-24.42039 33.00164,-21.83075 54.42534,-54.90293 63.96237,-98.73993 1.61354,-7.41661 2.70305,-14.17669 2.42115,-15.0224 -0.28191,-0.84571 -3.58937,2.29944 -7.34993,6.98923 -17.01593,21.22054 -35.36997,36.16674 -83.70026,68.15937 -9.53333,6.31067 -21.1641,14.58764 -25.84615,18.39328 -8.21048,6.67359 -8.47832,6.78417 -7.54137,3.11345 4.88882,-19.15308 7.37208,-40.79113 7.43135,-64.75333 0.0489,-19.76367 1.99641,-62.74802 3.40047,-75.05256 l 0.91287,-8 -4.31859,4 c -27.38649,25.36618 -50.70524,110.3161 -50.70524,184.7186 v 20.12777 l 3,-0.86726 c 1.65,-0.47699 12.6,-4.19481 24.33333,-8.26183 z M 177.5981,769.00917 c -1.80792,-38.44687 -3.99612,-56.86159 -9.75868,-82.12355 -9.54254,-41.83271 -23.84748,-74.02353 -39.20271,-88.21895 l -3.60567,-3.33334 0.80078,6 c 0.44043,3.3 1.37755,28.5 2.0825,56 1.28626,50.17703 2.27013,63.08931 6.0486,79.38177 2.61216,11.2634 2.66683,11.025 -1.62959,7.10541 C 128.17578,740.02762 117.96869,732.63848 92,714.62231 51.674698,686.64604 37.959668,675.13464 21.636796,655.56454 c -4.865012,-5.83284 -9.067013,-9.94055 -9.337782,-9.12825 -0.798897,2.39669 3.654956,22.57325 7.997634,36.23038 4.51914,14.21206 13.10781,32.0411 20.180452,41.89216 6.684861,9.31095 22.631145,25.2013 32.82988,32.71473 11.320522,8.33986 29.50961,18.57853 45.35969,25.53305 21.47666,9.4233 57.89763,22.37957 59.2575,21.08007 0.78741,-0.75246 0.66552,-13.79063 -0.32607,-34.87751 z m 469.00048,29.75537 3.26524,-2.50949 -7.67646,-11.12753 c -4.22205,-6.12013 -13.49141,-19.66383 -20.59857,-30.09709 -7.10717,-10.43327 -13.52212,-18.9633 -14.25546,-18.95564 -2.65918,0.0278 -7.54295,5.17348 -6.53735,6.88796 2.11874,3.61229 36.99309,53.8266 38.91845,56.03725 2.5113,2.88343 2.84065,2.87216 6.88415,-0.23546 z m 42.67002,-35.36231 3.06678,-3.26443 -21.16769,-22.11292 c -11.64223,-12.16211 -21.32502,-22.56512 -21.51732,-23.1178 -0.1923,-0.55267 2.72802,-4.45791 6.4896,-8.67831 6.62556,-7.43371 6.76541,-7.75502 4.47631,-10.28444 -2.26756,-2.50564 -2.26042,-2.61078 0.17707,-2.60558 8.62434,0.0184 46.54337,4.25936 48.77845,5.45554 1.48398,0.7942 6.73637,4.39039 11.67197,7.99153 4.93561,3.60113 9.5455,6.54751 10.24422,6.54751 0.69871,0 2.31464,-1.76778 3.59095,-3.9284 l 2.32056,-3.92839 -12.06692,-8.36218 C 712.05126,687.91063 713.98504,690.78124 697.86042,656.33333 694.68522,649.55 691.56217,644 690.9203,644 c -0.64188,0 -2.28836,2.08216 -3.65886,4.62701 l -2.49181,4.62701 8.42153,16.12221 c 4.63184,8.86721 8.07995,16.46378 7.66246,16.88126 -0.41749,0.41749 -8.73034,-0.11865 -18.47301,-1.19141 l -17.71394,-1.95049 -3.33334,3.77469 c -4.00942,4.5403 -22.67549,22.94463 -34.66666,34.18056 L 618,729.19166 l 3.66092,3.70145 3.66092,3.70146 7.74473,-7.66392 7.74473,-7.66392 21.70673,22.69997 c 11.9387,12.48498 22.15157,22.69997 22.69527,22.69997 0.54369,0 2.36858,-1.469 4.0553,-3.26444 z m -360.55962,-0.56936 c 4.88101,-2.21721 29.15452,-23.37341 40.57299,-35.36241 l 4.6153,-4.84592 -3.4975,-3.4975 -3.49751,-3.4975 -16.45113,15.91281 c -9.04812,8.75204 -18.4761,17.32964 -20.95106,19.06132 -13.70274,9.58752 -29.86063,-2.7925 -23.56437,-18.0548 1.43775,-3.48513 8.21972,-11.02742 20.44128,-22.73291 l 18.28969,-17.51737 -3.25649,-3.50824 c -1.79106,-1.92954 -3.72745,-3.34672 -4.30308,-3.1493 -2.96212,1.01591 -38.64409,38.08438 -40.63367,42.21258 -2.8529,5.9195 -2.90922,16.82649 -0.11452,22.18096 4.36344,8.36012 14.64408,15.16957 22.97442,15.21727 2.2,0.0126 6.41905,-1.07595 9.37565,-2.41899 z m -27.44469,-69.17326 c 15.7287,-18.79675 28.51903,-35.21929 28.42297,-36.49454 C 329.42976,653.74658 325.31611,648 323.1265,648 c -1.47662,0 -49.47734,10.83919 -82.95619,18.73259 -6.68274,1.57561 -7.2328,2.90684 -3.16289,7.6548 l 3.65925,4.26888 12.26834,-3.1716 c 11.30056,-2.92142 12.41553,-2.99989 14.13425,-0.9948 3.22552,3.76293 14.26407,21.52913 14.26407,22.95756 0,0.75036 -3.6,5.54705 -8,10.65933 -4.4,5.11227 -8,9.93706 -8,10.72175 0,2.35305 4.47067,9.17771 5.95415,9.08925 0.75855,-0.0452 14.24812,-15.4614 29.97681,-34.25815 z m -17.7776,-14.28545 -5.97503,-9.84168 17.36597,-4.19999 c 9.55129,-2.31 17.54667,-4.00481 17.76753,-3.76624 0.22085,0.23856 -4.90507,6.55731 -11.39094,14.04167 l -11.7925,13.60792 z m 250.09785,40.50374 c 53.18589,-10.54665 102.36262,-46.10269 136.81211,-98.91867 12.31321,-18.87791 26.00862,-47.60275 33.54783,-70.36341 26.6134,-80.34508 21.8636,-171.19917 -12.91929,-247.11987 -34.18738,-74.62089 -94.03669,-125.12648 -161.3937,-136.19678 -20.81953,-3.42175 -53.55556,-2.20786 -72.17207,2.67623 -61.83158,16.22165 -114.1392,62.47823 -146.30248,129.37793 -33.04404,68.73167 -41.21739,152.22249 -22.30751,227.87114 13.71511,54.86705 37.89111,99.40273 73.15057,134.75391 23.27736,23.33791 45.40436,38.27377 72,48.60045 33.68196,13.07818 65.57628,16.06283 99.58454,9.31907 z m 29.84852,-30.07923 c -7.17622,-2.2026 -18.62738,-9.08337 -22.63971,-13.60374 -3.35594,-3.78086 -4.80227,-3.62271 -10.85443,1.18695 -2.80194,2.22669 -9.03444,5.97669 -13.85001,8.33333 C 508.20501,689.57342 506.13866,690 495.33333,690 484.1307,690 482.84606,689.70784 476,685.6031 c -4.03333,-2.4183 -10.0506,-6.42912 -13.37171,-8.91294 l -6.03838,-4.51603 -6.87091,4.60521 C 440.67678,682.83987 426.72784,688 419.38717,688 c -4.80133,0 -7.55843,-1.13628 -14.96956,-6.16938 -14.12886,-9.5953 -33.8317,-26.18737 -33.70658,-28.38485 0.0244,-0.42851 1.24134,-2.2165 2.70431,-3.97331 l 2.65996,-3.19421 9.62902,10.07556 c 11.86467,12.41491 18.71773,16.17051 29.65705,16.25261 10.52928,0.079 21.99804,-5.49846 34.36632,-16.71302 4.98356,-4.51869 9.22071,-7.99326 9.41589,-7.72127 8.44397,11.76745 11.01273,14.94088 14.75047,18.22265 6.44833,5.66171 15.37859,8.74511 23.16186,7.99724 9.52871,-0.91559 18.45005,-5.92684 29.18209,-16.39202 l 9.57134,-9.33333 2.77334,4.09906 c 5.05658,7.47373 15.23137,16.60667 22.41867,20.12308 14.39034,7.04054 30.44471,2.11847 46.96076,-14.39759 4.40182,-4.40182 8.53296,-7.67596 9.18032,-7.27587 0.64736,0.40009 1.96922,2.63998 2.93746,4.97753 1.71294,4.13539 1.61867,4.37333 -3.49305,8.81638 -16.19128,14.0733 -37.2054,27.08261 -43.44848,26.89787 -1.7261,-0.0511 -6.09348,-0.99988 -9.7053,-2.10846 z m 2.09596,-59.23206 c -6.78892,-1.33481 -15.81386,-6.35734 -22.85677,-12.72018 -2.7475,-2.4822 -5.44235,-4.5131 -5.98855,-4.5131 -0.5462,0 -3.85866,2.10352 -7.36102,4.67449 -10.43626,7.66092 -20.66608,11.68387 -31.47429,12.3775 -11.88908,0.763 -15.19744,-0.35585 -29.51629,-9.98202 l -11.3324,-7.61845 -4.83318,2.99892 c -16.6497,10.33092 -33.52655,14.9086 -45.49858,12.34106 -8.98711,-1.92739 -13.80142,-4.54077 -21.31939,-11.57296 l -6.23225,-5.82953 -5.49148,4.03848 c -6.30714,4.63833 -20.14188,10.57802 -24.59833,10.56085 -2.23484,-0.009 -4.42155,-2.1575 -8.35982,-8.21525 -6.98746,-10.74792 -6.94156,-10.43975 -1.55499,-10.43975 7.91503,0 16.64652,-4.8233 27.12545,-14.98415 l 9.9029,-9.6023 3.51273,4.62656 c 13.52527,17.81393 29.05863,25.41971 43.79587,21.44431 7.1362,-1.92501 20.33137,-10.52758 28.16764,-18.36386 l 6.24896,-6.24895 2.73405,3.85223 c 5.91693,8.33684 16.3315,18.44476 21.40072,20.77059 13.15913,6.03758 29.22222,0.8636 44.38117,-14.29536 l 8.79421,-8.79421 2.64883,3.79757 c 5.04372,7.23109 16.26725,17.28124 22.87367,20.48233 14.20779,6.88427 27.6595,2.86698 45.17614,-13.49163 l 10.00032,-9.3392 3.35146,5.30906 c 5.34945,8.47407 11.34147,14.66549 17.95707,18.55464 5.00526,2.94246 7.78387,3.6157 14.92287,3.6157 h 8.7724 l -6.64593,9.13733 -6.64594,9.13733 -5.39823,-0.86321 c -6.5386,-1.04556 -12.6904,-4.68703 -17.85467,-10.56881 -5.72684,-6.5225 -6.47229,-6.66565 -12.6555,-2.4302 -9.22141,6.31661 -16.7349,9.6675 -26.15256,11.66362 -9.85414,2.08864 -11.64486,2.13257 -19.99629,0.49055 z m 74.21811,-63.09672 c -5.89531,-1.58719 -18.4138,-10.29098 -18.4138,-12.80264 0,-0.63482 -1.17761,-1.52797 -2.61691,-1.98479 -1.74681,-0.55442 -5.56793,0.94927 -11.49244,4.52251 -12.69336,7.65572 -20.67965,10.08563 -33.22398,10.10873 -8.92996,0.0164 -11.86725,-0.57 -18.04055,-3.60186 -4.05564,-1.99181 -9.85102,-5.74181 -12.87862,-8.33333 -3.02761,-2.59151 -6.19228,-4.71184 -7.03261,-4.71184 -0.84033,0 -5.04721,2.38994 -9.34863,5.31097 -11.63448,7.90083 -20.41889,11.01217 -31.36626,11.10961 -10.38219,0.0924 -17.19285,-2.66852 -31.54553,-12.78798 l -7.54553,-5.32004 -3.7878,2.67272 c -12.48242,8.80775 -30.01565,14.3085 -42.49369,13.33168 -9.36859,-0.73341 -16.19425,-3.89815 -24.83205,-11.51348 C 381.7162,550.46157 378.6265,548 378.26272,548 c -0.36378,0 -3.69718,2.04292 -7.40756,4.53982 -7.86241,5.29101 -20.40489,9.71496 -30.97057,10.92385 -9.77937,1.11892 -20.43961,-1.96025 -26.85107,-7.75582 -4.22973,-3.82343 -5.35552,-6.26944 -8.93645,-19.41623 C 301.84368,528.01868 300,520.5924 300,519.78878 c 0,-0.80362 4.48107,2.79545 9.95793,7.99793 17.74286,16.85398 29.43659,20.20751 44.28642,12.70047 4.15658,-2.10128 11.16764,-7.5075 15.58012,-12.01382 l 8.0227,-8.1933 9.1503,9.79805 c 19.43543,20.81127 35.40491,22.1199 58.30496,4.77783 4.01633,-3.04154 8.70982,-7.3284 10.42997,-9.52634 1.72015,-2.19795 3.62151,-3.99627 4.22524,-3.99627 0.60374,0 3.00248,2.96833 5.33053,6.59629 16.47808,25.67886 40.10896,26.9697 63.27742,3.45654 l 8.33509,-8.45909 9.51298,10.39977 c 11.25587,12.30511 18.52951,16.3884 29.45749,16.53687 10.57778,0.14371 20.99728,-5.21508 32.60011,-16.76637 5.02587,-5.00354 9.29232,-9.09734 9.48101,-9.09734 0.18869,0 2.81199,3.81762 5.82954,8.4836 16.38063,25.32904 38.8851,26.01322 63.71495,1.93707 6.74472,-6.54 9.83657,-8.79234 9.83657,-7.16571 0,1.30475 -2.15099,9.26269 -4.77998,17.6843 l -4.77998,15.31203 -6.88669,3.13771 c -12.11552,5.52008 -29.41871,7.23649 -41.13955,4.08089 z m -74.54108,-63.33355 c -7.27397,-2.32721 -20.66334,-10.26928 -23.91205,-14.18373 -2.32299,-2.79903 -4.08359,-2.44807 -9.32354,1.85858 -10.3929,8.54179 -26.62021,14.13674 -38.48461,13.26897 -6.39915,-0.46803 -9.39318,-1.74751 -20.62471,-8.81384 C 465.63476,491.71985 459.2525,488 458.67832,488 c -0.57418,0 -6.0769,2.67738 -12.22828,5.94972 -24.86516,13.22753 -42.18088,12.47248 -58.22944,-2.53906 l -6.53345,-6.11128 -8.9015,5.20173 c -13.57489,7.93271 -25.45851,11.31086 -37.14981,10.56056 -10.66342,-0.68433 -16.75604,-3.65104 -27.34127,-13.31339 l -5.70543,-5.20799 -4.038,2.87531 c -2.22091,1.58142 -4.31283,2.60049 -4.64873,2.26459 -0.3359,-0.3359 -1.26135,-8.95135 -2.05656,-19.14546 -2.34086,-30.00835 0.36705,-65.88692 7.33621,-97.2014 C 316.99173,291.30926 363.5198,225.69702 424,195.31951 c 17.55712,-8.81844 42.27869,-16.52484 53.33333,-16.62547 l 3.33334,-0.0303 -0.34462,27.66816 C 480.13251,221.54933 479.67107,235.35 479.29664,237 l -0.68078,3 h -41.9746 c -38.26154,0 -42.181,0.20719 -44.30793,2.34215 -1.28333,1.28818 -7.62427,10.73818 -14.09098,21 -6.4667,10.26182 -23.4167,36.93046 -37.66666,59.26365 -14.24996,22.3332 -25.90902,41.05734 -25.90902,41.6092 0,1.43321 16.592,14.56883 25.74411,20.38119 25.03851,15.90158 53.29814,21.84668 75.94798,15.97751 9.36844,-2.4276 23.81685,-9.43422 34.30791,-16.63728 10.42368,-7.1568 21.66894,-18.30052 20.48306,-20.29813 -1.06875,-1.8003 -24.79313,-39.74707 -51.40748,-82.22544 -9.39157,-14.98961 -17.07558,-27.58961 -17.07558,-28 0,-0.4104 17.17452,-0.74618 38.16561,-0.74618 h 38.16561 L 478.03795,290 c -0.52796,20.53333 -1.38363,55.63333 -1.90147,78 -0.86825,37.50113 -1.16295,41.15765 -3.78597,46.97424 -1.56444,3.46916 -4.35603,7.81916 -6.20353,9.66666 L 462.78788,428 h -48.58462 c -43.07283,0 -48.67644,0.23927 -49.39394,2.10905 -1.21379,3.16308 -0.93488,38.29537 0.31972,40.27272 0.86937,1.3702 28.08763,1.88328 135.34699,2.55138 l 134.25878,0.83627 -0.3674,-21.88471 L 634,430 585.33333,429.2916 c -26.76666,-0.38962 -48.78625,-0.83962 -48.93242,-1 -0.14616,-0.16038 -2.04752,-2.19809 -4.22525,-4.52825 -7.78855,-8.33375 -7.99082,-10.45014 -8.99296,-94.09668 l -0.91451,-76.33334 38.80127,0 38.80128,0 -18.2687,28.0231 c -10.04779,15.4127 -21.56871,33.09413 -25.60204,39.29208 -4.03333,6.19794 -12.08359,18.56155 -17.88945,27.47468 -8.29997,12.74207 -10.26709,16.66925 -9.20379,18.37459 2.77936,4.4576 24.92727,19.9968 36.79519,25.81589 28.61004,14.0281 47.24729,15.55782 72.76615,5.97255 17.43964,-6.5506 45.68507,-26.89436 45.43729,-32.7262 -0.052,-1.22468 -17.00453,-29.52669 -37.67221,-62.89335 L 608.65557,242 l -42.91551,-0.3517 -42.91551,-0.3517 -0.81056,-5.6483 c -0.44581,-3.10656 -0.63133,-17.39733 -0.41227,-31.75726 L 522,177.78208 l 13.33333,2.99898 c 36.63918,8.24102 64.81941,24.34645 94.05073,53.75141 32.14918,32.34016 56.04309,75.44765 67.90303,122.50526 8.83766,35.06587 10.01091,45.34528 10.0016,87.62894 -0.005,21.26666 -0.4853,41.52993 -1.06805,45.02947 l -1.05954,6.3628 -3.92803,-2.797 -3.92803,-2.797 -5.80953,5.10086 c -8.41245,7.38627 -16.34889,9.9758 -32.82884,10.7115 -16.86798,0.75303 -21.01778,-0.6392 -31.52492,-10.57642 -8.00239,-7.56832 -6.82639,-7.59031 -19.62552,0.36699 -6.49013,4.03495 -26.63412,10.66202 -31.99872,10.52709 -1.56796,-0.0394 -6.20812,-1.14581 -10.31146,-2.45862 z m -118.87272,-43.80274 -69,-0.3576 v -10.20152 -10.20152 l 42.7197,0.82702 c 25.71843,0.49789 44.03632,0.32645 46.02802,-0.4308 5.73308,-2.17971 14.8994,-12.8805 17.99539,-21.00788 3.30511,-8.67633 3.77134,-19.18194 6.52193,-146.9613 0.82875,-38.5 1.83915,-75.55 2.24533,-82.33333 l 0.7385,-12.33334 h 7.71636 7.71637 l 0.92367,74.33334 C 510.44662,292.55 511.3082,345.8 511.85322,370 c 1.13958,50.59914 1.47325,52.17207 13.60252,64.12252 l 6.64207,6.54415 44.95109,0.66666 L 622,442 l 0.39175,9.66667 0.39174,9.66666 -53.72508,-0.32107 c -29.54879,-0.17658 -84.77508,-0.48198 -122.72508,-0.67866 z M 546.88889,357.55182 c 0.24444,-0.61316 13.87374,-22.53346 30.28732,-48.71176 26.1393,-41.69001 30.04643,-47.30175 31.48306,-45.21849 3.50189,5.07814 57.04749,91.80526 57.65213,93.37843 0.50664,1.3182 -11.95743,1.66667 -59.61319,1.66667 -33.13957,0 -60.05377,-0.50168 -59.80932,-1.11485 z m -211.98666,-1.9455 c 0.23711,-0.94986 13.3086,-22.82596 29.04777,-48.61355 l 28.61667,-46.88654 4.91908,7.61355 c 24.70649,38.23972 55.84758,87.58174 55.84758,88.48863 0,0.61871 -26.74399,1.12492 -59.4311,1.12492 -47.9855,0 -59.34807,-0.3326 -59,-1.72701 z m 574.88749,305.72701 c 24.44929,-23.89095 35.20452,-36.38817 43.4156,-50.44748 10.83637,-18.55442 16.22551,-36.57202 18.80944,-62.88585 2.16161,-22.01302 3.24134,-54.66667 1.80763,-54.66667 -0.69398,0 -3.51692,5.32578 -6.27322,11.83506 -7.43289,17.55355 -15.98018,31.68505 -36.93681,61.06881 -10.36729,14.53621 -21.34624,30.21896 -24.39766,34.85057 l -5.54803,8.4211 -2.894,-24.4211 c -4.08203,-34.44644 -5.7109,-45.2028 -9.16448,-60.51839 -4.31506,-19.13597 -11.38288,-40.75476 -13.13474,-40.17607 -2.71921,0.89822 -8.70719,12.19316 -11.1013,20.94002 -3.69603,13.50346 -3.15718,47.51197 1.38375,87.33334 2.00698,17.6 4.09566,38.3 4.64152,46 1.02034,14.3932 0.0767,43.51704 -1.79286,55.33333 l -1.0548,6.66667 9.8629,-8.66667 c 5.4246,-4.76667 19.99427,-18.56667 32.37706,-30.66667 z M 106.11998,691.66667 C 102.0003,671.3809 101.94698,643.93341 105.96523,612 c 1.06119,-8.43333 3.55806,-30.01908 5.54861,-47.96833 3.22976,-29.12358 3.46208,-34.14475 2.15918,-46.66666 -0.803,-7.71742 -2.40238,-17.08471 -3.55417,-20.81619 -2.17923,-7.06009 -7.0749,-15.33465 -9.553,-16.1463 C 99.015405,479.8947 89.699463,509.30235 85.487615,528 c -1.404126,6.23333 -3.888369,21.23333 -5.52054,33.33333 -1.632171,12.1 -3.676668,27.1 -4.543327,33.33334 L 73.848005,606 70.732815,600 C 66.802169,592.42939 56.442047,576.95476 46.631147,564 27.840763,539.18831 10.85167,509.9314 5.4024116,493 c -2.3382015,-7.26503 -4.069192,-6.13041 -4.0683072,2.66667 0.00171,17.02202 2.8449831,57.6829 4.7664109,68.1632 3.8496983,20.99792 12.6667887,40.41125 27.0251167,59.50346 C 39.389264,631.66206 103.75157,696 105.81982,696 c 0.6491,0 0.78417,-1.95 0.30016,-4.33333 z M 222.84209,590.742 c 20.99648,-5.88748 39.14648,-11.07713 40.33333,-11.53257 2.64237,-1.01397 2.67812,-2.05005 0.26964,-7.81436 l -1.88828,-4.51928 -17.77839,5.27504 c -9.77811,2.90127 -28.57371,8.29954 -41.768,11.99616 -13.19428,3.69661 -24.18587,6.91738 -24.42575,7.15725 -0.23987,0.23988 0.30324,2.90395 1.20692,5.92016 1.19573,3.99099 2.21914,5.31224 3.75908,4.85306 1.16381,-0.34703 19.29497,-5.44799 40.29145,-11.33546 z m 570.09803,1.01265 c 6.44416,-4.26793 10.10443,-11.22782 13.19398,-25.08798 4.04279,-18.1365 7.39701,-15.4217 -30.80077,-24.9291 -18.33333,-4.56315 -34.33742,-8.32085 -35.56465,-8.35044 -1.76098,-0.0425 -2.9884,3.20185 -5.82299,15.39125 -2.18821,9.40978 -3.29938,17.24628 -2.84364,20.05467 1.67307,10.30993 8.99598,17.48766 24.45364,23.96881 6.64788,2.78735 9.5355,3.20805 19.87929,2.89626 10.55401,-0.31814 12.79269,-0.82245 17.50514,-3.94347 z m -36.27345,-9.50022 c -3.66667,-1.75155 -8.61667,-5.01606 -11,-7.25448 -3.61365,-3.39392 -4.32907,-5.03285 -4.30762,-9.86823 0.0369,-8.32233 3.08494,-19.13172 5.39474,-19.13172 1.05208,0 12.86288,2.67043 26.24621,5.93429 17.55704,4.28172 24.33333,6.46951 24.33333,7.85625 0,4.69319 -5.58131,20.02074 -8.1311,22.32985 -2.22183,2.0121 -5.23023,2.62729 -14.34029,2.93247 -9.89573,0.3315 -12.47285,-0.0649 -18.19527,-2.79843 z m -538,-30.22492 c 15.76666,-2.23302 30.61666,-4.38036 33,-4.77186 3.9153,-0.64315 4.33333,-1.15618 4.33333,-5.31807 0,-5.30673 -0.31276,-5.37782 -14.40983,-3.27542 C 210.75391,543.26301 205.38248,544 202.70098,544 c -2.0543,0 4.83328,-5.93693 22.1591,-19.10061 21.66454,-16.46012 25.18794,-19.63967 25.48728,-23 0.73283,-8.22659 1.13059,-8.19823 -37.24499,-2.65592 -19.30631,2.78827 -35.55237,5.33456 -36.10237,5.65842 -1.55233,0.91405 -1.17979,5.02785 0.66667,7.36169 1.51051,1.90923 4.09966,1.7531 27.63435,-1.66635 14.28223,-2.07513 26.14024,-3.60041 26.35113,-3.38952 0.21089,0.21089 -9.07373,7.52543 -20.63248,16.25453 -28.72467,21.69269 -29.45182,22.37225 -28.7306,26.85036 1.03543,6.42906 1.53263,7.11211 4.68165,6.43159 1.6661,-0.36006 15.92928,-2.48166 31.69595,-4.71468 z m 701.34745,-24.05369 c 34.24079,-58.62833 58.30458,-134.9187 55.65115,-176.43298 -0.92204,-14.42581 -4.96662,-34.41884 -6.8571,-33.8958 -2.11904,0.58628 -14.26517,25.5384 -21.91503,45.02062 -8.69498,22.14387 -15.26576,42.70187 -22.07225,69.05741 l -5.61063,21.72507 -2.26776,-9.44898 c -3.93606,-16.40027 -10.44494,-30.53123 -25.47008,-55.29625 -8.0213,-13.22103 -17.03404,-28.36777 -20.0283,-33.65942 -2.99427,-5.29164 -5.88607,-9.64164 -6.42623,-9.66666 -1.69019,-0.0783 -4.96042,9.24845 -6.39795,18.24701 -1.71084,10.70941 0.11891,25.59486 4.92968,40.10426 1.87281,5.64845 9.8831,24.0699 17.80065,40.93657 23.07279,49.15177 28.19964,62.62787 29.92792,78.66666 1.02173,9.48191 1.88933,14 2.6884,14 0.32035,0 3.04174,-4.21088 6.04753,-9.35751 z M 63.185166,529 c 0.313118,-1.65 1.455804,-8.45379 2.539303,-15.11953 2.433975,-14.97394 7.452407,-27.64327 26.116114,-65.93173 22.712397,-46.59431 27.016927,-59.18656 27.142347,-79.40083 0.0701,-11.29091 -3.40852,-25.88847 -6.16545,-25.87281 -0.81628,0.005 -2.45172,1.65463 -3.63431,3.66666 -1.18259,2.01203 -9.196036,15.05824 -17.807664,28.99157 -18.899618,30.57897 -24.984283,42.41611 -30.554322,59.44055 l -4.239247,12.95697 -2.412311,-10.86542 C 44.97581,395.45503 28.797167,348.6578 13.153144,318.22397 10.447911,312.96122 9.5563171,312.12475 8.2848911,313.65673 2.9047745,320.13937 0.35571668,359.76143 3.8880742,382 8.5370494,411.26843 19.897769,447.95588 34.397623,480.52524 44.168331,502.47206 59.714313,532 61.498252,532 c 0.614685,0 1.373796,-1.35 1.686914,-3 z M 815.54575,507.63154 c 0.85016,-8.63599 1.75016,-19.13599 2,-23.33334 L 818,476.66667 l -6,-0.98395 c -11.03227,-1.80918 -65.988,-6.09412 -66.89634,-5.21595 -0.49298,0.47661 -1.79462,11.36104 -2.89252,24.18763 -2.14421,25.05033 -2.0292,25.69628 4.45553,25.02433 3.17777,-0.32928 3.37961,-0.87431 4.32493,-11.67873 0.54537,-6.23333 1.32922,-14.95345 1.74188,-19.37804 l 0.75029,-8.04471 9.59145,0.96228 c 5.27529,0.52925 10.42722,0.99937 11.44872,1.04471 1.53415,0.0681 1.6712,2.46011 0.78774,13.74909 C 773.50886,519.36993 773.29674,518 778.66667,518 h 4.66666 l 1.03343,-11.33333 c 0.56838,-6.23334 1.36672,-13.9605 1.77408,-17.17147 l 0.74065,-5.83814 9.27352,0.66351 c 5.10044,0.36494 9.62734,1.01733 10.05977,1.44976 0.43243,0.43244 0.14105,8.71691 -0.64753,18.40994 -0.78857,9.69303 -1.10749,18.15162 -0.70871,18.79686 0.39878,0.64524 2.61875,0.98935 4.93326,0.76468 L 814,523.33333 Z M 184,472.0237 v -10.64296 l 32.33333,-0.35704 32.33334,-0.35703 V 456 451.33333 L 216.33333,450.9763 184,450.61926 V 439.9763 429.33333 h -4.66667 -4.66666 V 456 482.66667 H 179.33333 184 Z m 593.44687,-20.10455 c 2.13756,-1.52207 3.89565,-3.17654 3.90688,-3.67661 0.0112,-0.50006 0.5402,-1.72969 1.17549,-2.73249 0.93788,-1.48046 1.89837,-1.27374 5.10824,1.09942 8.69725,6.43016 20.44917,4.11623 26.79633,-5.27614 3.02523,-4.47665 3.1181,-5.31814 2.28072,-20.66666 -0.48011,-8.8 -1.16777,-17.01865 -1.52813,-18.26365 -0.57279,-1.97893 -2.11412,-2.17376 -12.25413,-1.54898 -33.09762,2.0393 -60.43365,4.20289 -61.06383,4.83308 -1.40519,1.40519 1.98348,34.15868 3.91904,37.87977 2.64662,5.08809 7.7158,9.64537 12.37159,11.12226 5.54856,1.76009 14.78971,0.43293 19.2878,-2.77 z m -20.12663,-8.99497 c -2.44362,-1.97873 -3.22631,-4.59721 -4.38078,-14.65582 -0.77308,-6.73566 -1.03656,-12.6157 -0.58551,-13.06676 0.45105,-0.45105 5.87797,-1.13564 12.05982,-1.52131 l 11.23973,-0.70123 0.95139,10.1527 c 1.0595,11.30642 -0.58127,18.71487 -4.62402,20.87848 -3.9188,2.09728 -11.41518,1.54194 -14.66063,-1.08606 z m 32.29931,-6.19649 c -1.76131,-2.23914 -2.86623,-6.49716 -3.49956,-13.48611 -0.50905,-5.61759 -0.7443,-10.37209 -0.52277,-10.56555 0.22153,-0.19345 5.05278,-0.7759 10.73611,-1.29431 l 10.33334,-0.94257 v 12.70482 c 0,11.61731 -0.25366,12.88249 -2.96334,14.78042 -4.57425,3.20393 -11.05544,2.65322 -14.08378,-1.1967 z M 250.02535,417 c 1.70893,-4.68203 7.06818,-45.77314 6.09661,-46.7447 -0.62174,-0.62174 -2.85353,-0.93353 -4.95953,-0.69287 l -3.8291,0.43757 -2.66666,17.98448 c -3.05776,20.62204 -2.24461,19.78145 -16.76617,17.33207 l -9.30715,-1.56985 0.74043,-4.20669 c 2.70941,-15.39328 4.29176,-29.70581 3.38793,-30.64425 -0.58494,-0.60733 -2.78661,-0.90733 -4.89261,-0.66666 l -3.8291,0.43757 -2.53105,16.8466 -2.53105,16.84661 -5.46895,-0.66925 c -3.00792,-0.36809 -7.56895,-1.07661 -10.13562,-1.5745 -5.36641,-1.04099 -5.37402,-1.12553 -1.92937,-21.44946 2.86882,-16.92647 2.71653,-18.24848 -2.18504,-18.96787 -3.26715,-0.47952 -4.32804,-0.0302 -5.15179,2.182 -1.4943,4.01291 -7.33236,44.63175 -6.53013,45.43398 0.37039,0.37039 9.02609,1.94325 19.23488,3.49525 10.2088,1.552 25.46145,3.88703 33.89479,5.18896 19.47563,3.00663 18.64237,2.96354 19.35868,1.00101 z m 677.29947,-54.20424 c 10.07094,-40.63618 11.78399,-51.58472 11.80716,-75.46243 0.0304,-31.38036 -6.08024,-57.34134 -20.04226,-85.14865 -9.3564,-18.63456 -35.3912,-56.99431 -37.35158,-55.03393 -0.36761,0.36761 1.15846,5.40556 3.39128,11.19544 8.34233,21.63239 11.43578,46.22689 12.86966,102.32048 0.43116,16.86666 1.05782,32.76666 1.3926,35.33333 l 0.60868,4.66667 -2.33351,-3.2939 c -10.5737,-14.9254 -39.78286,-48.01215 -68.89364,-78.03944 L 815.84684,206 l 0.6059,12 c 0.92805,18.37991 8.55073,39.59322 21.50284,59.84061 5.4135,8.46268 24.7717,33.39131 40.50409,52.15939 15.32793,18.28557 20.83915,26.70231 27.81344,42.47671 12.15649,27.49549 11.23211,25.80538 12.50113,22.85662 0.63119,-1.46666 4.47895,-16.10857 8.55058,-32.53757 z m -138.99149,5.37469 c 16.80747,-10.02556 18.33334,-11.25662 18.33334,-14.79119 0,-4.18245 -2.9844,-8.04593 -6.21519,-8.04593 -1.1136,0 -15.62074,-1.4706 -32.2381,-3.26801 -42.75128,-4.62417 -39.4829,-4.51048 -39.93037,-1.38898 -0.78969,5.50881 2.53955,7.55094 13.80018,8.46497 L 752.66217,350 l 2.37742,11.26271 c 1.30758,6.1945 2.10221,11.9799 1.76585,12.85646 -0.33637,0.87656 -4.28037,3.60834 -8.76444,6.07062 -8.59527,4.71981 -10.72946,8.12011 -8.13698,12.96421 1.61887,3.02489 0.54864,3.57699 48.42931,-24.98355 z m -22.24527,-0.39498 c -1.00003,-3.06964 -3.49385,-16.15582 -3.11571,-16.34952 0.19854,-0.1017 6.96098,0.43586 15.02765,1.19457 L 792.66667,354 784,359.19862 c -18.12338,10.87114 -17.29389,10.47396 -17.91194,8.57685 z m -698.894462,9.26871 c 9.392972,-20.66681 14.520931,-29.86047 21.15053,-37.91973 3.11073,-3.78155 12.334572,-14.93483 20.497432,-24.78506 39.34427,-47.47725 51.07785,-69.29261 54.50626,-101.33939 0.57437,-5.36879 0.46088,-9 -0.28128,-9 -3.02602,0 -56.57922,56.58247 -74.854448,79.08864 -6.4615,7.95741 -9.545425,10.90031 -9.545425,9.10891 0,-1.45552 0.592962,-16.34541 1.317694,-33.08864 2.505463,-57.88284 5.34914,-79.56406 13.443297,-102.49653 2.242516,-6.35352 3.800821,-11.82835 3.4629,-12.16627 -0.337922,-0.33792 -4.499412,4.37347 -9.247756,10.46975 -25.823296,33.15387 -41.267872,66.29368 -47.022306,100.89692 -1.776044,10.67992 -2.138622,18.54264 -1.598604,34.66667 0.705249,21.05755 2.231458,30.61831 9.60784,60.18722 1.920874,7.7 4.38532,18.2 5.476546,23.33333 2.948068,13.86826 4.645626,19.69254 5.492732,18.84543 0.416392,-0.41639 3.833957,-7.52695 7.594588,-15.80125 z M 261.85735,352.55762 c 2.32334,-6.05454 1.23595,-7.01518 -12.85735,-11.35858 -7.51667,-2.31656 -13.87861,-4.39597 -14.13766,-4.62092 -0.69011,-0.59927 6.59616,-22.28635 8.14559,-24.24479 1.77745,-2.24665 9.79719,-2.10281 17.78016,0.3189 10.05762,3.05109 12.39444,2.67926 14.49045,-2.30569 2.25401,-5.36071 1.68458,-6.34237 -3.69056,-6.36237 C 269.24792,303.97547 264.03333,303.08259 260,302 c -9.00294,-2.41649 -16.22115,-2.54608 -18.56667,-0.33333 -1.41619,1.33602 -1.89644,1.31039 -2.42084,-0.12921 -1.69067,-4.64125 -8.69843,-10.62296 -14.27399,-12.18402 -14.52709,-4.06733 -20.53217,1.35488 -28.72381,25.93581 -3.09362,9.28314 -5.3671,17.13612 -5.05216,17.45105 1.15174,1.15175 64.45841,21.68253 67.22815,21.80255 1.57154,0.0681 3.22154,-0.82526 3.66667,-1.98523 z m -47.49224,-22.55854 c -4.93252,-1.72467 -9.54304,-3.49101 -10.24558,-3.92521 -0.75783,-0.46836 -0.0222,-4.44002 1.8088,-9.76499 5.9575,-17.32633 7.13285,-18.56451 16.03679,-16.89412 4.87439,0.91444 10.03488,5.90078 10.03488,9.69625 0,3.37789 -6.66461,24.23143 -7.70953,24.12308 -0.52642,-0.0546 -4.99284,-1.51034 -9.92536,-3.23501 z m 518.96855,-3.95806 c 1.7e-4,-0.7559 -3.05489,-9.06929 -6.78903,-18.47422 -3.73414,-9.40492 -6.58429,-17.25818 -6.33366,-17.45169 1.31904,-1.01839 18.72618,-7.44664 20.13639,-7.43612 0.90895,0.007 4.35264,6.95817 7.65264,15.44754 3.3,8.48937 6.39965,15.68811 6.88811,15.99721 1.63701,1.03591 7.77856,-2.03598 7.77856,-3.89069 0,-1.00812 -2.68407,-8.6389 -5.96461,-16.95728 -3.28053,-8.31839 -5.83053,-15.21167 -5.66666,-15.31841 1.45037,-0.94476 18.71368,-7.31751 19.00819,-7.01688 0.21167,0.21607 3.37042,7.89285 7.01945,17.05952 6.92117,17.3866 8.80878,19.49177 14.04452,15.6633 2.28693,-1.67224 1.94235,-2.97645 -6.1987,-23.46157 -4.74114,-11.93 -8.8571,-21.92775 -9.14658,-22.21723 -0.28948,-0.28948 -14.00442,4.86915 -30.47764,11.46363 -16.47322,6.59448 -31.34976,12.34359 -33.05899,12.77582 -1.70923,0.43222 -3.41258,1.58041 -3.78524,2.55154 -0.37265,0.97112 2.43099,9.74391 6.23032,19.49509 11.29073,28.97827 9.81909,26.48284 14.56204,24.69258 2.25531,-0.85129 4.10071,-2.16625 4.10089,-2.92214 z m -446.69664,-41.4101 c 0.0163,-0.75299 -9.94348,-6.75299 -22.13285,-13.33333 -12.18937,-6.58034 -23.13937,-12.69517 -24.33333,-13.58852 -1.72751,-1.29256 4.27633,-1.63292 29.39905,-1.66667 l 31.5699,-0.0424 2.81416,-3.57762 c 1.54778,-1.9677 2.64133,-4.44332 2.4301,-5.50139 -0.21123,-1.05806 -14.48405,-9.63119 -31.71738,-19.05138 l -31.33334,-17.12763 -2.30368,2.96234 c -1.26703,1.62929 -2.31703,3.60577 -2.33334,4.39218 -0.0163,0.7864 10.92036,7.3864 24.30369,14.66666 L 287.33333,246 l -32.05949,0.35642 -32.05949,0.35641 -2.27384,3.84931 c -1.25061,2.11712 -2.27384,4.47295 -2.27384,5.23519 0,1.42719 12.18871,8.5277 44.66666,26.02048 L 282,291.87176 l 2.30369,-2.93588 c 1.26702,-1.61473 2.31702,-3.55197 2.33333,-4.30496 z m 428.94285,-23.3721 c 6.58907,-2.47143 13.49258,-8.01602 15.65531,-12.57364 2.99651,-6.31467 2.63094,-11.65861 -1.90185,-27.80131 -5.02669,-17.90167 -5.01868,-19.78965 0.1023,-24.09868 7.86988,-6.62206 16.92683,-3.35097 22.11817,7.98842 3.8411,8.39007 3.40312,13.23627 -1.62296,17.95803 -4.02324,3.77964 -4.04889,4.93786 -0.21545,9.72829 l 3.03548,3.79327 5.55445,-5.39041 c 9.56539,-9.28289 10.41459,-20.673 2.52191,-33.82565 -9.7339,-16.2209 -25.23364,-19.31679 -40.4953,-8.08845 C 710.96985,195.83658 710.06694,202.72551 716,222 c 5.88298,19.11181 5.09018,24.90139 -3.92102,28.63395 -5.24951,2.17442 -9.57121,0.98241 -15.58647,-4.29905 -10.51478,-9.2321 -11.28473,-24.0929 -1.59975,-30.87653 2.90198,-2.03262 2.90275,-2.04657 0.37108,-6.7476 -1.3953,-2.59092 -3.10333,-4.71077 -3.7956,-4.71077 -2.65824,0 -12.71017,12.12156 -14.04851,16.941 -1.86784,6.72625 -1.7849,9.35101 0.54197,17.15033 3.79504,12.72042 17.40452,24.57534 28.21254,24.57534 3.10869,0 7.34122,-0.63354 9.40563,-1.40785 z M 880,235.25534 C 880,231.10219 871.99463,201.61101 866.62966,186 850.57637,139.2881 822.49126,83.380791 798.3406,50.06114 791.61033,40.77567 787.22524,38.433586 788.86462,45 c 0.50348,2.016667 5.55796,17.780277 11.23218,35.030246 9.83503,29.899064 15.04968,50.438004 16.32598,64.303084 0.32064,3.48334 0.41428,6.33334 0.20808,6.33334 -0.2062,0 -7.48249,-4.41659 -16.16955,-9.81464 -8.68705,-5.39805 -19.09464,-11.47013 -23.12798,-13.49351 C 769.05164,123.2039 757.10488,113.93639 738.92029,97.560225 732.09312,91.412 726.20126,86.687624 725.82728,87.06161 c -1.74393,1.743929 12.3954,24.80807 25.50571,41.60506 10.52086,13.47935 32.38267,35.10323 48.17994,47.65556 6.69879,5.32277 24.99879,19.08237 40.66667,30.57688 15.66789,11.49451 30.58707,23.02546 33.15373,25.62433 5.1586,5.22332 6.66667,5.84131 6.66667,2.7319 z m -559.77165,-4.12866 c 3.43565,-3.10922 3.07715,-5.38922 -2.23178,-14.19345 -2.56478,-4.2534 -4.64329,-8.7534 -4.6189,-10 0.0244,-1.24661 3.47438,-6.0012 7.66667,-10.56577 l 7.62233,-8.2992 9.13195,3.96587 c 5.02257,2.18123 9.95874,3.96587 10.96926,3.96587 2.46751,0 6.63408,-6.48435 5.09699,-7.93234 -0.65901,-0.62082 -16.31287,-7.23003 -34.78635,-14.68714 -35.58328,-14.36376 -36.89191,-14.62427 -40.41301,-8.04503 -1.17456,2.19468 1.70592,7.7861 18.18654,35.30277 10.77018,17.98229 19.8872,32.69507 20.26006,32.69507 0.37285,0 1.77516,-0.99299 3.11624,-2.20665 z M 299.37109,186.4955 c -4.14124,-6.66316 -7.29114,-12.35323 -6.99978,-12.64459 0.52838,-0.52838 24.36482,9.10745 25.61026,10.35289 0.36089,0.36088 -1.98469,3.74999 -5.2124,7.53134 l -5.86856,6.8752 z m -192.94363,40.3139 c 3.43156,-2.85482 15.53921,-11.64983 26.90587,-19.54445 45.07618,-31.30729 68.28128,-50.52445 88.11449,-72.9715 14.55542,-16.47367 35.03422,-47.589188 32.79487,-49.82854 -0.49404,-0.49404 -4.65075,2.662776 -9.23714,7.015148 -17.80328,16.894892 -34.8634,29.412122 -51.47795,37.770042 -4.65983,2.34411 -13.02631,7.2218 -18.59218,10.8393 -5.56588,3.6175 -10.61472,6.57727 -11.21967,6.57727 -0.60494,0 -0.80212,-1.35 -0.43817,-3 0.36394,-1.65 1.64243,-8.99054 2.84108,-16.3123 1.34475,-8.21422 6.71781,-27.17735 14.03035,-49.517342 C 186.66705,57.924249 192,40.683612 192,39.524501 192,35.639888 188.16682,38.7588 180.62428,48.780487 152.8891,85.631899 112.7653,170.52226 101.90234,215.33333 98.558252,229.12813 98.1318,232 99.427458,232 c 0.418436,0 3.568432,-2.33577 7.000002,-5.1906 z m 541.57146,-36.80739 c 0.98058,-1.83223 1.53197,-3.51356 1.22531,-3.7363 -0.30666,-0.22273 -5.65756,-4.5423 -11.8909,-9.59904 -6.23333,-5.05674 -11.54182,-9.33389 -11.79663,-9.50479 -0.25482,-0.17089 8.61172,-11.52081 19.70342,-25.22205 21.08204,-26.04201 21.2809,-26.44989 14.6308,-30.00891 -1.98358,-1.06158 -5.8844,3.07983 -25.10966,26.65829 -12.51869,15.35331 -22.75696,28.40164 -22.75171,28.99629 0.005,0.59464 3.6886,4.08117 8.18521,7.74783 4.49662,3.66667 11.24232,9.20376 14.99045,12.30466 7.88571,6.52398 10.34459,6.97762 12.81371,2.36402 z M 371.2573,177.41735 c 1.37679,-1.52133 1.9081,-3.27706 1.29291,-4.27245 -0.5744,-0.9294 -8.82936,-11.61721 -18.34436,-23.75069 -9.515,-12.13348 -17.82828,-22.75184 -18.47397,-23.59635 -0.78809,-1.03077 1.47346,-3.61542 6.88041,-7.86336 4.42991,-3.48033 8.05438,-7.04637 8.05438,-7.92454 0,-2.60359 -4.98185,-6.37911 -6.91599,-5.24131 -4.06546,2.39161 -39.74812,31.37101 -39.72103,32.25914 0.0163,0.53472 1.14853,2.4278 2.51606,4.20685 l 2.48641,3.23465 8.59276,-6.83746 8.59275,-6.83746 19.52963,24.60281 C 356.48855,168.92873 366.09659,180 367.09846,180 c 1.00186,0 2.87334,-1.16219 4.15884,-2.58265 z m 235.65962,-25.43359 c 1.4527,-13.70508 4.84267,-42.33311 6.39246,-53.98376 1.40854,-10.588826 1.3938,-10.688559 -2.0196,-13.666667 -1.89116,-1.65 -4.21803,-3 -5.1708,-3 -0.95278,0 -7.66932,6.136603 -14.92565,13.636896 C 583.937,102.47052 572.15,114.65474 565,122.04626 c -7.15,7.39153 -13,14.08213 -13,14.86801 0,0.78588 1.9089,2.21957 4.242,3.18597 4.23598,1.7546 4.25297,1.74498 11.97029,-6.77687 l 7.72828,-8.53396 9.69638,4.54915 c 5.33301,2.50204 10.37991,5.17442 11.21534,5.93863 1.108,1.01355 1.15834,4.07749 0.18608,11.32463 -1.2772,9.52012 -1.20627,10.03767 1.69791,12.38933 5.24626,4.24816 7.16148,2.60762 8.18064,-7.00739 z m -16.47805,-30.53695 -7.56113,-3.68207 3.2007,-3.72489 c 5.88722,-6.85139 16.8778,-18.195454 17.22783,-17.781931 0.675,0.797431 -3.72624,29.073731 -4.50971,28.973191 -0.43811,-0.0562 -4.19907,-1.75916 -8.35769,-3.7843 z m -183.03468,32.38415 3.31037,-2.16904 -6.51171,-12.16429 c -3.58144,-6.69036 -10.88407,-20.5643 -16.22808,-30.83096 C 375.71728,85.118128 376.64426,86.265026 371.86588,88.736021 369.73965,89.83554 368,91.194069 368,91.754973 368,92.762171 383.96454,123.65057 395.51947,145 c 3.27443,6.05 6.54321,11 7.26393,11 0.72073,0 2.80009,-0.97607 4.62079,-2.16904 z m 51.03797,-17.30214 c 8.01387,-3.99348 12.28716,-9.11568 15.37805,-18.43301 4.00715,-12.07934 2.02706,-26.373941 -5.51159,-39.78908 -5.27199,-9.381587 -12.76393,-14.57062 -22.16239,-15.350013 -22.36237,-1.854462 -36.84769,11.90399 -36.79846,34.951951 0.0347,16.257502 9.5312,33.534652 21.98556,39.998792 6.46391,3.35494 18.87653,2.72369 27.10883,-1.37864 z m -20.28309,-7.24138 c -13.60345,-4.07305 -22.49094,-29.10995 -15.74601,-44.357997 3.46762,-7.83913 9.27924,-11.584344 17.98649,-11.591126 11.23246,-0.0087 18.3732,6.02688 22.75399,19.232535 5.0822,15.319988 1.10357,29.612898 -9.76939,35.095818 -6.30731,3.18059 -9.04287,3.4718 -15.22508,1.62077 z M 543.96078,133 c 0.68032,-1.65 2.83258,-17.92434 4.78282,-36.165191 3.79656,-35.50985 3.80291,-35.432863 -2.92855,-35.481059 -3.41503,-0.02445 -3.47718,0.26384 -6.60666,30.64625 -1.24633,12.1 -2.62809,22.41654 -3.07056,22.92565 -0.44247,0.50911 -4.36522,-7.89089 -8.71722,-18.666667 C 523.06861,85.483209 517.55275,72.316667 515.16313,67 c -4.32942,-9.632568 -4.36331,-9.666667 -9.60555,-9.666667 -4.88532,0 -5.31685,0.309291 -6.04598,4.333334 -1.84252,10.168722 -7.56929,65.593153 -6.94544,67.218873 0.70705,1.84256 8.73534,2.55451 8.80834,0.78113 0.0226,-0.55 0.58716,-5.2 1.25449,-10.33334 0.66732,-5.13333 1.86962,-15.78737 2.67178,-23.675646 0.80216,-7.888274 1.89678,-15.527179 2.43249,-16.975343 0.72971,-1.972586 3.97888,4.621453 12.95372,26.288929 10.34109,24.96597 12.43563,29.04787 15.31302,29.84244 5.59958,1.54629 6.67658,1.30091 7.96078,-1.81371 z M 794.73183,112.83805 C 791.87417,105.32183 779.21784,81.275107 773.83263,73.130072 770.60717,68.251612 762.94991,59.509959 756.8165,53.704176 740.48223,38.242428 723.49143,30.557168 701,28.457325 c -11.87964,-1.109106 -11.70567,0.562717 1.13182,10.876008 5.4769,4.4 14.71501,13.459894 20.52913,20.133097 18.89216,21.683638 36.86023,36.895528 58.73097,49.72204 13.05096,7.65399 15.07267,8.20709 13.33991,3.64958 z M 211.33333,98.195019 C 226.22856,88.288808 233.95704,81.728148 250,65.37111 c 21.61636,-22.039554 28.7162,-28.813331 35.19141,-33.575255 7.3404,-5.398192 5.93554,-7.012153 -5.20262,-5.97697 -37.96572,3.528542 -68.01559,27.618863 -89.26647,71.562987 -7.81085,16.151838 -7.46124,17.227278 3.61101,11.107798 4.95,-2.7358 12.6,-7.36839 17,-10.294651 z"
       id="path1" />
  </g>
</svg>
