<?xml version="1.0" encoding="utf-8"?>
<!-- Generator: Adobe Illustrator 16.0.0, SVG Export Plug-In . SVG Version: 6.00 Build 0)  -->
<!DOCTYPE svg PUBLIC "-//W3C//DTD SVG 1.0//EN" "http://www.w3.org/TR/2001/REC-SVG-20010904/DTD/svg10.dtd">
<svg version="1.0"
	 id="svg2" xmlns:dc="http://purl.org/dc/elements/1.1/" xmlns:cc="http://creativecommons.org/ns#" xmlns:rdf="http://www.w3.org/1999/02/22-rdf-syntax-ns#" xmlns:svg="http://www.w3.org/2000/svg" xmlns:sodipodi="http://sodipodi.sourceforge.net/DTD/sodipodi-0.dtd" xmlns:inkscape="http://www.inkscape.org/namespaces/inkscape" inkscape:export-filename="C:\Users\Philip\Desktop\United Natons Flag Official.png" sodipodi:docname="United Nations Emblem.svg" inkscape:export-ydpi="270" inkscape:export-xdpi="270" inkscape:version="0.48.1 "
	 xmlns="http://www.w3.org/2000/svg" xmlns:xlink="http://www.w3.org/1999/xlink" x="0px" y="0px" width="463.287px"
	 height="400.002px" viewBox="0 0 463.287 400.002" enable-background="new 0 0 463.287 400.002" xml:space="preserve">
<sodipodi:namedview  id="base" inkscape:zoom="1.5774937" fit-margin-left="0" borderopacity="1.0" fit-margin-top="0" bordercolor="#666666" showgrid="false" pagecolor="#ffffff" inkscape:cy="200.00081" inkscape:cx="231.64349" inkscape:window-maximized="1" inkscape:window-y="-8" inkscape:window-x="-8" inkscape:window-height="850" inkscape:window-width="1440" fit-margin-bottom="0" fit-margin-right="0" inkscape:current-layer="layer1" inkscape:document-units="px" inkscape:pageshadow="2" inkscape:pageopacity="0.0">
	</sodipodi:namedview>
<g id="layer1" transform="translate(-2.0541171,-342.27041)" sodipodi:insensitive="true" inkscape:groupmode="layer" inkscape:label="Layer 1">
	<g id="g3549" transform="matrix(0.81608,0,0,0.81608,42.981664,99.734522)">
		<g id="g9" transform="matrix(0.95999923,0,0,0.95999976,-257.82184,247.41259)">
			<g id="g11">
				<path id="path13" inkscape:connector-curvature="0" fill="#D69D36" d="M340.904,117.03
					c-10.772,6.33-25.416,18.672-36.288,33.957c6.164-17.822,10.553-39.104,9.758-50.829c-0.103-1.526,5.296-16.766,8.704-24.718
					c-26.558,22.916-34.525,53.473-29.815,92.641c0.007,0.07-0.613,14.971-0.536,14.938c14.795-33.314,36.422-15.066,65.251-83.812
					C353.412,106.393,342.117,116.321,340.904,117.03L340.904,117.03z"/>
				<path id="path15" inkscape:connector-curvature="0" fill="#D69D36" d="M282.105,290.595
					c-3.698-22.597-19.064-67.475-26.02-75.429c-0.956-1.096-3.516-17.341-4.425-26.101c-11.537,35.228,3.454,84.235,26.114,114.56
					c0.039,0.055,7.412,11.871,7.46,11.794c-3.414-23.87,31.014-48.695,25.322-110.122c-4.268,13.686-8.249,23.234-11.38,26.735
					C293.486,238.398,280.683,282.323,282.105,290.595z"/>
				<path id="path17" inkscape:connector-curvature="0" fill="#D69D36" d="M348.873,436.79
					c-19.203-20.629-57.662-55.808-66.768-60.26c-1.265-0.618-12.226-16.597-17.641-24.192c9.598,42.091,29.022,83.39,83.591,94.81
					c0.059,0.022,12.292,5.592,12.292,5.49c-9.39-17.541,8.823-49.369-38.618-123.408c3.9,16.188,5.849,28.251,5.177,33.938
					C324.212,386.079,343.305,430.042,348.873,436.79z"/>
				<path id="path19" inkscape:connector-curvature="0" fill="#D69D36" d="M410.709,475.83
					c-26.825-9.836-77.128-24.931-86.63-24.544c-1.382,0.057-17.451-9.025-25.274-13.243
					c24.965,33.269,58.474,61.064,112.071,44.892c0.063-0.011,13.246-0.921,13.211-1.023c-15.262-11.251-6.549-40.454-70.279-93.288
					c7.964,18.461,13.762,39.746,15.363,45.196C375.625,455.771,394.206,468.831,410.709,475.83z"/>
				<path id="path21" inkscape:connector-curvature="0" fill="#D69D36" d="M304.145,364.376
					c-8.983-20.658-34.553-59.274-43.162-64.852c-1.184-0.765-7.547-15.647-10.524-23.811
					c-2.662,37.398,23.539,80.108,52.641,102.517c0.051,0.037,9.987,9.21,10.018,9.123c-9.017-21.969,16.787-56.021-4.836-119.037
					c-0.828,14.465-2.373,24.859-4.55,29.168C299.779,305.326,300.791,356.831,304.145,364.376L304.145,364.376z"/>
				<path id="path23" inkscape:connector-curvature="0" fill="#D69D36" d="M316.248,166.15
					c-12.629,12.988-25.655,13.954-33.574,55.062c3.207-21.211,5.121-65.247,2.108-80.235c-1.108-5.5,1.263-17.725,2.729-26.387
					c-20.398,29.783-29.591,84.344-12.242,129.794c0.023,0.066,2.849,14.644,2.913,14.59c6.644-36.45,32.943-41.262,53.717-110.33
					C323.928,158.512,317.802,164.55,316.248,166.15z"/>
				<path id="path25" inkscape:connector-curvature="0" fill="#D69D36" d="M371.823,62.711
					c-5.121,4.243-13.265,17.505-14.603,20.583c-6.833,15.7-28.641,41.587-44.957,52.408c-2.424,1.609-4.741,6.788-4.741,6.788
					c-1.707,2.123-4.552-1.908-2.845-3.816c1.708-1.911,4.931-4.67,5.501-6.368C317.577,100.903,341.286,75.867,371.823,62.711z"/>
				<path id="path27" inkscape:connector-curvature="0" fill="#D69D36" d="M578.012,547.76
					c-34.143-48.378-91.047-64.289-138.849-59.836c-5.981,0.558-43.532,10.82-48.084,12.413c-3.915,1.369-36.135,6.684-51.786-3.18
					c44.673,39.782,108.897,19.826,121.494,11.771c27.882-17.818,69.423-15.275,108.687,42.652L578.012,547.76L578.012,547.76z"/>
			</g>
			<g id="g29">
				<path id="path31" inkscape:connector-curvature="0" fill="#D69D36" d="M683.096,117.03c10.779,6.33,25.419,18.672,36.291,33.957
					c-6.168-17.822-10.552-39.104-9.756-50.829c0.1-1.526-5.299-16.766-8.703-24.718c26.553,22.916,34.523,53.473,29.814,92.641
					c-0.007,0.07,0.615,14.971,0.536,14.938c-14.796-33.314-36.419-15.066-65.25-83.812
					C670.589,106.393,681.887,116.321,683.096,117.03L683.096,117.03z"/>
				<path id="path33" inkscape:connector-curvature="0" fill="#D69D36" d="M741.898,290.595
					c3.702-22.597,19.062-67.475,26.02-75.429c0.957-1.096,3.516-17.341,4.421-26.101c11.539,35.228-3.452,84.235-26.113,114.56
					c-0.036,0.055-7.412,11.871-7.455,11.794c3.412-23.87-31.016-48.695-25.327-110.122c4.271,13.686,8.252,23.234,11.381,26.735
					C730.52,238.398,743.321,282.323,741.898,290.595z"/>
				<path id="path35" inkscape:connector-curvature="0" fill="#D69D36" d="M675.129,436.79
					c19.203-20.629,57.667-55.808,66.769-60.26c1.265-0.618,12.227-16.597,17.643-24.192c-9.602,42.091-29.023,83.39-83.592,94.81
					c-0.064,0.022-12.297,5.592-12.297,5.49c9.393-17.541-8.82-49.369,38.624-123.408c-3.904,16.188-5.849,28.251-5.184,33.938
					C699.789,386.079,680.697,430.042,675.129,436.79z"/>
				<path id="path37" inkscape:connector-curvature="0" fill="#D69D36" d="M613.293,475.83c26.83-9.836,77.125-24.931,86.633-24.544
					c1.38,0.057,17.45-9.025,25.274-13.243c-24.968,33.269-58.475,61.064-112.075,44.892c-0.062-0.011-13.244-0.921-13.204-1.023
					c15.261-11.251,6.543-40.454,70.278-93.288c-7.969,18.461-13.764,39.746-15.366,45.196
					C648.38,455.771,629.797,468.831,613.293,475.83L613.293,475.83z"/>
				<path id="path39" inkscape:connector-curvature="0" fill="#D69D36" d="M719.856,364.376
					c8.984-20.658,34.552-59.274,43.163-64.852c1.183-0.765,7.551-15.647,10.526-23.811c2.663,37.398-23.538,80.108-52.643,102.517
					c-0.051,0.037-9.99,9.21-10.014,9.123c9.012-21.969-16.789-56.021,4.834-119.037c0.825,14.465,2.375,24.859,4.549,29.168
					C724.226,305.326,723.214,356.831,719.856,364.376L719.856,364.376z"/>
				<path id="path41" inkscape:connector-curvature="0" fill="#D69D36" d="M707.756,166.15
					c12.63,12.988,25.653,13.954,33.572,55.062c-3.209-21.211-5.119-65.247-2.105-80.235c1.106-5.5-1.264-17.725-2.729-26.387
					c20.397,29.783,29.588,84.344,12.241,129.794c-0.021,0.066-2.849,14.644-2.913,14.59c-6.645-36.45-32.945-41.262-53.717-110.33
					C700.074,158.512,706.199,164.55,707.756,166.15L707.756,166.15z"/>
				<path id="path43" inkscape:connector-curvature="0" fill="#D69D36" d="M652.178,62.711c5.119,4.243,13.269,17.505,14.607,20.583
					c6.828,15.7,28.641,41.587,44.953,52.408c2.424,1.609,4.743,6.788,4.743,6.788c1.709,2.123,4.551-1.908,2.845-3.816
					c-1.704-1.911-4.929-4.67-5.497-6.368C706.428,100.903,682.715,75.867,652.178,62.711L652.178,62.711z"/>
				<path id="path45" inkscape:connector-curvature="0" fill="#D69D36" d="M445.991,547.76
					c34.143-48.378,91.048-64.289,138.846-59.836c5.982,0.558,43.533,10.82,48.089,12.413c3.917,1.369,36.13,6.684,51.78-3.18
					c-44.672,39.782-108.897,19.826-121.494,11.771c-27.882-17.818-69.422-15.275-108.685,42.652L445.991,547.76L445.991,547.76z"/>
			</g>
		</g>
	</g>
</g>
<path fill="#D69D36" d="M333.021,125.181c0,0,0,0-0.113,0l-1.371-2.486h-0.059l-41.305-72.545H237.57l-1.068-29.858h-8.43
	l-1.066,29.858h-54.121l-0.4,0.774l-42.219,74.257c0,0,0,0.056,0.057,0.111l-0.057,0.055h0.171c2.628,2.818,41.134,42.045,84.953,0
	h0.172l-0.057-0.11c0.057,0,0.057,0,0.057-0.056h-0.057l-0.857-1.602l-0.514-0.884h-0.057l-39.706-69.838l0.057-0.11h52.485
	l-2.375,66.492v31.656h-52.968v11.368h121.503v-11.368h-52.969v-29.789l-2.441-68.359h50.971l-39.821,69.948l-1.37,2.486h-0.059
	c0.059,0.056,0.059,0.056,0.059,0.056l-0.059,0.11h0.172c44.047,42.045,82.668,2.818,85.297,0h0.17l-0.057-0.055
	C333.021,125.236,333.021,125.181,333.021,125.181z M211.163,122.695h-76.497l38.22-67.241L211.163,122.695z M251.783,122.695
	l38.334-67.351l38.393,67.351H251.783z"/>
<g>
	<path fill="none" stroke="#D69D36" stroke-width="5" stroke-miterlimit="10" d="M343.132,208.962
		c0,12.415-9.956,22.478-22.239,22.478c-12.28,0-22.237-10.063-22.237-22.478h-0.322c-0.313,12.14-10.139,21.887-22.225,21.887
		c-12.085,0-21.911-9.747-22.223-21.887h-0.339c-0.31,12.14-10.137,21.887-22.223,21.887c-12.085,0-21.911-9.747-22.223-21.887
		h-0.016c0,12.415-9.956,22.478-22.238,22.478c-12.283,0-22.239-10.063-22.239-22.478h-0.015
		c-0.31,12.14-10.136,21.887-22.223,21.887c-12.084,0-21.911-9.747-22.223-21.887h-0.338c-0.093,3.652-1.053,7.084-2.671,10.104
		c5.002,18.024,12.66,34.5,22.392,48.701c0.931,0.12,1.877,0.188,2.841,0.188c12.087,0,21.914-9.745,22.223-21.886h0.015
		c0,12.411,9.957,22.474,22.239,22.474c12.282,0,22.238-10.063,22.238-22.474h0.016c0.312,12.141,10.138,21.886,22.223,21.886
		c12.086,0,21.913-9.745,22.223-21.886h0.339c0.312,12.141,10.138,21.886,22.223,21.886c12.086,0,21.911-9.745,22.225-21.886h0.322
		c0,12.411,9.957,22.474,22.237,22.474c0.822,0,1.633-0.049,2.432-0.137c9.935-14.336,17.74-31.03,22.818-49.314
		c-1.627-3.024-2.591-6.467-2.684-10.13H343.132z"/>
	<path fill="none" stroke="#D69D36" stroke-width="5" stroke-miterlimit="10" d="M343.459,171.788h-0.327
		c0,12.414-9.956,22.477-22.239,22.477c-12.28,0-22.237-10.063-22.237-22.477h-0.322c-0.313,12.141-10.139,21.887-22.225,21.887
		c-12.085,0-21.911-9.746-22.223-21.887h-0.339c-0.31,12.141-10.137,21.887-22.223,21.887c-12.085,0-21.911-9.746-22.223-21.887
		h-0.016c0,12.414-9.956,22.477-22.238,22.477c-12.283,0-22.239-10.063-22.239-22.477h-0.015
		c-0.31,12.141-10.136,21.887-22.223,21.887c-12.084,0-21.911-9.746-22.223-21.887h-0.338c-0.175,6.869-3.398,12.969-8.352,16.974
		c1.063,10.474,2.991,20.61,5.681,30.304c1.618-3.02,2.578-6.451,2.671-10.104h0.338c0.312,12.14,10.139,21.887,22.223,21.887
		c12.087,0,21.914-9.747,22.223-21.887h0.015c0,12.415,9.957,22.478,22.239,22.478c12.282,0,22.238-10.063,22.238-22.478h0.016
		c0.312,12.14,10.138,21.887,22.223,21.887c12.086,0,21.913-9.747,22.223-21.887h0.339c0.312,12.14,10.138,21.887,22.223,21.887
		c12.086,0,21.911-9.747,22.225-21.887h0.322c0,12.415,9.957,22.478,22.237,22.478c12.283,0,22.239-10.063,22.239-22.478h0.327
		c0.093,3.663,1.057,7.105,2.684,10.13c2.692-9.695,4.623-19.835,5.688-30.313C346.864,184.774,343.633,178.666,343.459,171.788z"/>
	<g>
		<path fill="none" stroke="#D69D36" stroke-width="5" stroke-miterlimit="10" d="M231.644,18.411
			c-66.911,0-121.153,67.681-121.153,151.17c0,6.498,0.329,12.899,0.967,19.18c4.954-4.004,8.177-10.105,8.352-16.974h0.338
			c0.312,12.141,10.139,21.887,22.223,21.887c12.087,0,21.914-9.746,22.223-21.887h0.015c0,12.414,9.957,22.477,22.239,22.477
			c12.282,0,22.238-10.063,22.238-22.477h0.016c0.312,12.141,10.138,21.887,22.223,21.887c12.086,0,21.913-9.746,22.223-21.887
			h0.339c0.312,12.141,10.138,21.887,22.223,21.887c12.086,0,21.911-9.746,22.225-21.887h0.322c0,12.414,9.957,22.477,22.237,22.477
			c12.283,0,22.239-10.063,22.239-22.477h0.327c0.174,6.878,3.405,12.986,8.371,16.99c0.638-6.287,0.968-12.694,0.968-19.197
			C352.798,86.092,298.555,18.411,231.644,18.411z"/>
		<path fill="none" stroke="#D69D36" stroke-width="5" stroke-miterlimit="10" d="M298.655,246.069h-0.322
			c-0.313,12.141-10.139,21.886-22.225,21.886c-12.085,0-21.911-9.745-22.223-21.886h-0.339
			c-0.31,12.141-10.137,21.886-22.223,21.886c-12.085,0-21.911-9.745-22.223-21.886h-0.016c0,12.411-9.956,22.474-22.238,22.474
			c-12.283,0-22.239-10.063-22.239-22.474h-0.015c-0.31,12.141-10.136,21.886-22.223,21.886c-0.963,0-1.91-0.068-2.841-0.188
			c6.59,9.617,14.129,18.189,22.439,25.491c19.708,17.318,43.738,27.493,69.675,27.493c25.836,0,49.778-10.098,69.443-27.293
			c8.218-7.185,15.69-15.604,22.237-25.052c-0.799,0.088-1.609,0.137-2.432,0.137C308.612,268.543,298.655,258.48,298.655,246.069z"
			/>
	</g>
	<path fill="none" stroke="#D69D36" stroke-width="5" stroke-miterlimit="10" d="M298.655,246.069h-0.322
		c-0.313,12.141-10.139,21.886-22.225,21.886c-12.085,0-21.911-9.745-22.223-21.886h-0.339
		c-0.31,12.141-10.137,21.886-22.223,21.886c-12.085,0-21.911-9.745-22.223-21.886h-0.016c0,12.411-9.956,22.474-22.238,22.474
		c-12.283,0-22.239-10.063-22.239-22.474h-0.015c-0.31,12.141-10.136,21.886-22.223,21.886c-0.963,0-1.91-0.068-2.841-0.188
		c6.59,9.617,14.129,18.189,22.439,25.491c1.59-2.997,2.533-6.399,2.625-10.017h0.015c0,12.415,9.957,22.478,22.239,22.478
		c12.282,0,22.238-10.063,22.238-22.478h0.016c0.312,12.142,10.138,21.887,22.223,21.887c12.086,0,21.913-9.745,22.223-21.887h0.339
		c0.312,12.142,10.138,21.887,22.223,21.887c12.086,0,21.911-9.745,22.225-21.887h0.322c0,3.681,0.881,7.15,2.432,10.217
		c8.218-7.185,15.69-15.604,22.237-25.052c-0.799,0.088-1.609,0.137-2.432,0.137C308.612,268.543,298.655,258.48,298.655,246.069z"
		/>
</g>
</svg>
