<?xml version="1.0" encoding="utf-8"?>
<!-- Generator: Adobe Illustrator 22.1.0, SVG Export Plug-In . SVG Version: 6.00 Build 0)  -->
<svg version="1.1" id="Layer_1" xmlns="http://www.w3.org/2000/svg" xmlns:xlink="http://www.w3.org/1999/xlink" x="0px" y="0px"
	 viewBox="0 0 774.5 98.5" style="enable-background:new 0 0 774.5 98.5;" xml:space="preserve">
<style type="text/css">
	.st0{fill:none;stroke:#000000;stroke-width:1.5;stroke-miterlimit:10;}
	.st1{fill:#5B92E5;stroke:#000000;stroke-width:2;stroke-miterlimit:10;}
	.st2{fill:none;}
</style>
<title>Asset 2</title>
<g id="Layer_2_1_">
	<g id="Layer_1-2">
		<path id="Laurel" d="M27.1,4.9c-4.1,1.5-8.4,3.2-11.1,7.4c-1.6,2.5-1.8,5.4-3,7.8c2.3-2.1,4.9-3.7,6.8-6.2
			C22.1,10.9,24.1,7.5,27.1,4.9L27.1,4.9z M87.8,4.9c3,2.6,5,6,7.3,9.1c2,2.5,4.5,4.1,6.8,6.2c-1.2-2.5-1.4-5.4-3-7.9
			C96.2,8.1,91.8,6.4,87.8,4.9L87.8,4.9z M16.2,10.4c-2.1,0.6-4,1.9-5.4,3.6c-3.2,3.6-3,9-2.5,13.8c0.1,1.4,0.1,2.8-0.1,4.2
			c1.1-2.1,2.6-4,4.5-5.4c4.2-3.2,8.9-7.3,9-12.8c-1.5,3.9-5.8,5.5-8.5,8.2c-1.5,1.3-2.6,3-3.3,4.9l-0.2-0.1c0.3-1.6,1-3,1.5-4.5
			C12.4,18.1,12.2,13.2,16.2,10.4L16.2,10.4z M98.8,10.4c4,2.8,3.8,7.8,5,11.9c0.5,1.5,1.1,2.9,1.5,4.5l-0.1,0.1
			c-0.7-1.8-1.8-3.5-3.3-4.9c-2.8-2.7-7.1-4.3-8.5-8.2c0.1,5.4,4.7,9.6,9,12.8c1.9,1.4,3.4,3.3,4.5,5.4c-0.2-1.4-0.2-2.8-0.1-4.2
			c0.4-4.7,0.7-10.1-2.5-13.8C102.9,12.4,101,11.1,98.8,10.4L98.8,10.4z M7.6,17.9c-0.1,0-0.2,0.1-0.3,0.1
			c-2.8,3.6-4.7,7.5-4.7,12.3c0,6,3.4,10.1,3.8,15.7c0.9-5.8,5.8-10,8.3-15.1c1-2,1.6-4.2,1.9-6.5c-0.4,1-1,1.8-1.8,2.5
			c-3.2,3.2-7.1,6.3-7.8,10.7c-0.1,0.6-0.2,1.3-0.3,1.9c-0.1,0.1-0.1-0.1-0.2-0.1l0.4-5.5C7.3,28.6,4.5,22.6,7.6,17.9L7.6,17.9z
			 M107.4,17.9c3.1,4.7,0.3,10.6,0.7,16l0.4,5.5c-0.1,0.1-0.1,0.2-0.2,0.1c-0.1-0.6-0.3-1.2-0.3-1.9c-0.7-4.4-4.7-7.5-7.9-10.6
			c-0.8-0.7-1.4-1.6-1.8-2.5c0.3,2.3,0.9,4.5,1.9,6.5c2.5,5.1,7.4,9.3,8.3,15.1c0.4-5.6,3.8-9.7,3.8-15.7c0-4.8-1.9-8.8-4.7-12.3
			C107.5,18,107.5,17.9,107.4,17.9L107.4,17.9z M1.5,32.7c-0.6,1.4-1,2.9-1.2,4.4c-0.6,3.9-0.2,7.9,1,11.6c1.4,4.5,5.7,7.7,7.9,11.8
			l0.3,0.3c-0.4-2.2-0.4-4.6,0.2-6.8c1.1-3.4,2.1-6.8,2.8-10.2c0.6-2.8,0.9-5.6,0.7-8.4c-0.3,1.4-0.8,2.8-1.6,4.1
			c-3,4.6-6,10-3.9,15.9c-0.1,0.1-0.1,0.1-0.2,0.1c-0.7-2-1.2-4.1-1.5-6.2C4.5,43.7,0.3,39.1,1.5,32.7z M113.4,32.7
			c1.2,6.3-3,11-4.4,16.5c-0.4,2.1-0.9,4.2-1.6,6.2c-0.1,0.1-0.1-0.1-0.2-0.1c2.1-5.8-1-11.3-4-15.9c-0.7-1.3-1.2-2.6-1.5-4.1
			c-0.3,2.7,0.3,5.7,0.7,8.5c0.7,3.5,1.9,6.8,2.8,10.2c0.5,2.2,0.6,4.5,0.1,6.8l0.3-0.3c2.2-4.1,6.6-7.3,7.9-11.8
			c1-3.6,1.8-7.7,1-11.6C114.4,35.6,114,34.1,113.4,32.7z M12.6,48.6c0.5,3.6-0.9,6.9-1.2,10.2c-0.3,2.7,0.1,5.5,1.3,8
			c0.4,0.7,0.8,1.4,1.1,2.1c-1-1-1.9-2.1-2.5-3.4c-3.4-5.6-10.6-9.2-11.1-16c-0.3,3,0,6,1,8.9c1.5,3.6,3.9,6.7,7.1,9
			c3.2,2.5,7,4.5,9.9,6.7c-0.7-1.4-1.4-2.9-1.9-4.3C14.6,62.9,15.5,54.9,12.6,48.6z M102.4,48.6c-3,6.4-2,14.4-3.7,21.3
			c-0.5,1.5-1.2,2.9-1.9,4.3c2.9-2.2,6.7-4.1,9.9-6.7c3.2-2.2,5.7-5.3,7.1-9c0.9-2.9,1.3-5.9,1-8.9c-0.5,6.7-7.6,10.4-11.1,16
			c-0.7,1.2-1.5,2.3-2.5,3.3c0.3-0.7,0.7-1.4,1.1-2.1c1.2-2.5,1.6-5.3,1.4-8C103.3,55.4,101.9,52.1,102.4,48.6L102.4,48.6z
			 M16.2,60.1c2.5,5,1.4,11.4,4.6,16.1c1.1,1.5,2.3,2.8,3.7,4l-0.1,0.1c-1.2-0.6-2.3-1.3-3.3-2.3C15.5,73.3,7,72.7,3.6,65.1
			C4.5,70.7,9,75.7,13.9,78.8c4.6,3,10.4,2.7,15.6,4.3c-4.7-3.8-5.4-9.5-7.5-14.5C20.5,65.6,18.6,62.7,16.2,60.1z M98.7,60.1
			c-2.3,2.6-4.2,5.5-5.7,8.6c-2.1,5-2.8,10.7-7.5,14.5c5.1-1.7,11-1.4,15.6-4.3c4.8-3.2,9.3-8.2,10.2-13.7
			c-3.4,7.7-11.9,8.3-17.6,13c-1,0.9-2.1,1.7-3.3,2.3l-0.1-0.1c1.4-1.2,2.6-2.5,3.7-4C97.4,71.6,96.3,65.2,98.7,60.1L98.7,60.1z
			 M24.4,72.2c3.1,4.2,3.9,10.2,9.6,12.2c1,0.3,2,0.6,3,1c-1,0.1-2-0.1-3-0.4c-7.3-1.6-16.1,0.4-21.5-5.7c2.3,4,6,7.1,10.4,8.6
			c6.4,2.1,12.9-0.3,18.8-1.7c0.9-0.1,1.8-0.2,2.7-0.4c-3.3-0.5-6.5-1.9-9.1-4c-3.6-3.4-6.9-6.9-10.8-9.5L24.4,72.2z M90.6,72.2
			c-4,2.6-7.2,6.2-10.8,9.5c-2.6,2.3-5.8,3.3-9.1,4c0.9,0.2,1.8,0.4,2.7,0.4c5.9,1.5,12.5,3.8,18.8,1.7c4.4-1.5,8.1-4.5,10.4-8.6
			c-5.4,6.2-14.3,4.2-21.5,5.7c-1,0.3-2,0.4-3,0.4c1-0.4,2-0.7,3-1C86.7,82.4,87.6,76.3,90.6,72.2L90.6,72.2z M51.5,85.7
			c-5.6,0-10.5,2.7-15.4,4.7c-4.7,1.9-9.9,1.4-14.2-1.2c1.9,2.3,4.4,4,7.2,4.9c5,1.9,10.8,0.4,15-2.3c3-2,5.6-4.7,9.3-4.7
			c0.7,0,1.3,0.1,2,0.2c-5,2.2-9.5,5.3-13.4,9.1c0.7,0.8,1.5,1.5,2.3,2.1c4-4.2,8.6-8.7,13.2-10.5c4.5,1.9,9.1,6.3,13.2,10.5
			c0.8-0.6,1.6-1.4,2.3-2.1c-3.6-3.4-8.2-7.1-13.3-9.1c0.6-0.1,1.3-0.2,1.9-0.2c3.6,0,6.2,2.8,9.3,4.7c4.2,2.7,10,4.2,15,2.3
			c2.8-1,5.2-2.7,7.1-4.9c-3.9,2.7-9.8,3-14.2,1.2c-4.9-2.1-9.9-4.7-15.4-4.7c-2,0-4.1,0.3-6,0.9C55.5,86,53.5,85.7,51.5,85.7z"/>
		<circle class="st0" cx="57.5" cy="40.9" r="8.3"/>
		<circle class="st0" cx="57.5" cy="40.9" r="15.9"/>
		<line class="st0" x1="57.5" y1="33" x2="57.5" y2="0.6"/>
		<line class="st0" x1="17" y1="40.9" x2="49.4" y2="40.9"/>
		<line class="st0" x1="51.9" y1="46.6" x2="29" y2="69.4"/>
		<line class="st0" x1="63.1" y1="46.6" x2="85.9" y2="69.4"/>
		<line class="st0" x1="57.5" y1="81.2" x2="57.5" y2="48.8"/>
		<line class="st0" x1="63.1" y1="35.4" x2="85.9" y2="12.5"/>
		<line class="st0" x1="65.7" y1="40.9" x2="97.9" y2="40.9"/>
		<circle class="st0" cx="57.5" cy="40.9" r="24.2"/>
		<circle class="st0" cx="57.5" cy="40.9" r="31.8"/>
		<circle class="st0" cx="57.5" cy="40.9" r="40.2"/>
		<line class="st0" x1="51.9" y1="35.4" x2="29" y2="12.5"/>
		<path class="st1" d="M43.6,12.8L43.2,12l0,0L43.6,12.8z"/>
		<path d="M65.2,11.9l-0.2-0.2c0,0-0.5-0.1-0.5-0.2l0,0c-0.1,0.2-0.3,0.3-0.4,0.4c0.2,0.1,0.3,0.2,0.4,0.3c0.2,0,0.5,0.1,0.5,0.4
			c0,0.1,0.4,0.1,0.4,0.1l0.1-0.3L65.2,11.9z"/>
		<path d="M63.9,11.9L63.9,11.9C63.8,11.8,63.7,11.8,63.9,11.9z"/>
		<polygon points="63.6,13.3 63.6,13.3 63.6,13.6 64,13.6 63.9,13.3 		"/>
		<polygon points="63.1,11.8 63.1,11.8 62.7,11.8 62.7,12 63,12.1 63.2,12.5 63.5,12.4 63.1,11.9 		"/>
		<path d="M68.2,17.3c-0.2,0-0.6-0.3-0.5-0.4S67,16.6,67,16.6s-0.7-0.6-0.4-0.6s0.2-0.3,0.2-0.3c-0.2,0-0.4,0.1-0.7,0.1
			S66,15.3,66,15.3c-0.1-0.1-0.3-0.1-0.5-0.1l0,0c-0.1,0-0.1,0-0.1,0.1s0.2,0.1,0.3,0.4s0.1,0.7,0.4,0.7c0.2,0,0.4,0.1,0.5,0.3
			c0.1,0.1,0.5,0.2,0.5,0.2l0.3,0.2l1,0.8v-0.4C68.5,17.6,68.4,17.3,68.2,17.3z"/>
		<path d="M76.3,11.6l0.7,0.2c0,0,0.8,0.9,0.7,0.4c0-0.6-0.3-1.2-0.8-1.6c-0.1-0.1-0.1-0.1-0.3-0.1l0,0c-0.3,0-0.8,0.2-0.8,0.5
			C75.8,11.3,76,11.5,76.3,11.6z"/>
		<path d="M78.6,25.7c-0.1,0.1,0,0.3,0.1,0.3c0,0,0,0,0,0h0.1c0.2,0,0.3,0.1,0.5,0.2c0.2,0.1,0.3,0.2,0.4,0.4l0.4-0.1
			c0,0,0.1-0.5-0.1-0.3s-0.3-0.3-0.4-0.3s-0.3-0.2-0.5-0.4s-0.1-0.3-0.3-0.4c-0.1-0.1-0.2-0.1-0.3-0.1l0,0c-0.1,0-0.1,0.1-0.1,0.1
			C78.5,25.4,78.7,25.5,78.6,25.7z"/>
		<polygon points="63.9,11.2 63.6,11.1 63.6,11.1 63.5,11.5 63.8,11.6 		"/>
		<path d="M79.8,26.9L79.8,26.9L79.3,27c0.1,0.2,0.4,0.3,0.4,0.5s-0.1,0.3,0.2,0.3s0.4-0.1,0.5,0.2c0.1,0.2,0.1,0.5,0.1,0.7
			c-0.1,0.2,0,0.4,0.2,0.4c0,0,0,0,0.1,0c0.2,0,0.3,0.1,0.3,0.2s0.3-0.5,0.3-0.5c-0.1-0.2-0.3-0.3-0.4-0.5c0,0-0.2-0.6-0.2-0.6
			s-0.3-0.2-0.4-0.2C80,27.4,79.9,27.2,79.8,26.9z"/>
		<polygon points="76.9,23.9 76.9,23.5 76.9,23.5 76.6,23.6 76.6,24 		"/>
		<polygon points="82.1,36.9 82.3,37 82.4,36.8 82.2,36.7 		"/>
		<path d="M81.1,30.1c-0.1,0.1-0.2,0.3-0.3,0.4s0.3,0.3,0.3,0.5s0.1,0.7,0.1,0.7s0.3,0.1,0.3,0.3c0,0.2,0,0.5,0.1,0.5
			s0.4,0.2,0.3,0.4c-0.1,0.2-0.1,0.3-0.1,0.5l0.2,0.4l0.3,0.2c0,0,0.1-1-0.1-1s-0.1-0.7-0.1-0.7s0.2-0.8-0.1-0.8S82,31.2,81.7,31
			s-0.1-0.7-0.2-0.8s-0.1-0.4-0.3-0.5h-0.1C81.1,29.6,81.2,30,81.1,30.1z"/>
		<polygon points="82.6,35.6 82.4,35.6 82.4,35.6 82.4,35.9 82.6,36 		"/>
		<path d="M75.1,28c0,0-0.1,0.8-0.3,1h-0.6c0,0.1,0.1,0.2,0.3,0.3c0.1,0.1,0.4,0.4,0.1,0.5s0.1,0.1,0.1,0.1s-0.1,0.8-0.4,0.7
			s-0.5,0.5-0.5,0.6s1.4,0.2,1.2,0s0.2-0.5,0.2-0.5l1.2,0.1c0.2,0,0.4-0.1,0.3-0.3S76,30.5,76,30.5c-0.3,0.1-0.6,0-0.9-0.1
			c-0.5-0.3,0.1-0.3,0.2-0.3s0.5-0.3,0.3-0.5s0-0.6,0-0.5s0.4,0.3,0.5,0.1c0.1-0.2,0-0.5-0.2-0.6c-0.2-0.1,0.4-0.2,0.2-0.4
			c-0.1-0.1-0.2-0.3-0.3-0.5l0,0C75.7,28,75.3,28.1,75.1,28z"/>
		<path d="M81.8,58l-0.1,0.3c0,0,0.1,0,0.1,0.1l0.1,0.2l-0.1,0.1l0.2,0.2c0.1-0.1,0.2-0.3,0.1-0.5C82,58.2,81.9,58.1,81.8,58z"/>
		<polygon points="82.1,57.5 82.5,57.5 82.5,57.2 82.1,57.2 		"/>
		<path d="M79.6,45.2c0.2,0.1,0.3,0.1,0.2-0.4c-0.1-0.1-0.2-0.3-0.3-0.2l0,0c-0.3,0-0.8,0.2-0.7,0.4S79.5,45.1,79.6,45.2z"/>
		<rect x="74.5" y="52.9" width="0.3" height="0.8"/>
		<path d="M53.1,13.5c0,0,0.6,0.1,0.7,0.2s0.5,0.2,0.5,0.1s0.2-0.4-0.2-0.4s-0.3-0.3-0.5-0.4s-0.3-0.1-0.5-0.1s-0.4,0.1-0.4,0.1
			C52.8,13.2,53,13.3,53.1,13.5z"/>
		<polygon points="39.7,5.5 39.3,4.6 39.3,4.6 		"/>
		<polygon points="70.8,30.4 70.8,30.6 71.2,30.6 71.2,30.4 		"/>
		<polygon points="79.6,39.6 80,39.6 80.1,39.5 79.7,39.3 		"/>
		<rect x="76.6" y="29.1" width="0.3" height="0.3"/>
		<polygon points="77.4,29.3 77.2,29.2 77.2,29.2 77.1,29.5 77.3,29.6 		"/>
		<polygon points="75.9,27.4 75.9,27.1 75.4,27.1 75.5,27.4 		"/>
		<polygon points="64.5,3.6 64.6,3.5 65,3.2 64.8,3 64.8,3 64.5,3.3 64.2,3.2 64.1,3.3 64.4,3.5 		"/>
		<rect x="76.2" y="27.4" width="0.3" height="0.2"/>
		<polygon points="72,31 71.9,31.4 72.1,31.4 72.3,31.1 		"/>
		<path d="M72.7,31.7c-0.2,0-0.3,0-0.4,0.1c-0.2,0.1-0.2,0.2,0,0.4l0.5-0.1c0,0,0.4-0.2,0.3-0.3C73,31.7,72.8,31.7,72.7,31.7z"/>
		<polygon points="78.6,39.7 78.5,39.8 78.2,40 77.9,39.8 77.8,40 78.2,40.2 78.2,40.2 78.2,40.2 78.5,40.1 78.6,40.2 78.7,40 
			78.7,39.8 		"/>
		<path d="M55.2,46.7L55.2,46.7l-0.4,0.1l0.1,0.6l0.3,0.2l0.5,0.1c0,0,0.6-0.2,0.6-0.7L55.3,47L55.2,46.7z"/>
		<path d="M58.7,43.8c0.2,0.1,0.1-0.6,0.1-0.6l0,0L58,43.7c0.4,0.1,0.4,0.5,0.5,0.6C58.5,44.7,58.5,43.8,58.7,43.8z"/>
		<polygon points="60.8,55.1 61.1,54.7 60.8,54.6 60.8,54.6 60.6,54.8 60.7,54.9 		"/>
		<polygon points="65.8,53.3 65.7,53.1 65.3,53.3 65.4,53.6 		"/>
		<path d="M61,43.8c0.2,0.1,0.5-0.1,0.3-0.3c-0.7-0.4-0.6-1-0.7-1.3c0-0.1-0.1-0.1-0.2-0.2l0,0c-0.1,0-0.1,0.1-0.2,0.2v0.5
			C60.4,43.1,60.7,43.5,61,43.8z"/>
		<polygon points="54.4,39.1 53.9,39.1 53.9,39.1 53.8,39.3 53.7,39.3 53.6,39.6 53.8,39.6 53.9,39.9 53.7,40 53.7,40.3 53.3,40.4 
			52.5,41.1 52.5,41.4 52.4,41.7 52.1,42.3 51.2,42.4 51.1,43.1 51.2,43.7 51.9,44 52,43.6 52.2,43.5 52.3,43.1 52.4,42.8 
			52.7,42.4 52.8,42.1 53.2,41.9 53.7,41.8 53.9,41.5 54,41.1 54,40.7 54.2,40.4 54.7,40.2 54.7,39.5 54.4,39.5 		"/>
		<path d="M40.4,45.1L40.4,45.1c-0.1,0-0.2,0.1-0.2,0.1l0,0c0,0.1,0.1,0.2,0.2,0.2c0.1,0,0.1-0.1,0.2-0.2
			C40.6,45.1,40.5,45.1,40.4,45.1z"/>
		<path d="M56.4,50c0,0-0.1,0.3-0.4,0c0,0-0.1-0.1-0.1-0.1l0,0c-0.2,0-0.4,0.7-0.5,0.8s0.1,0.3,0.3,0.3s0.3-0.1,0.5-0.1
			s0.2-0.3,0.3-0.5C56.5,50.3,56.5,50.1,56.4,50z"/>
		<path d="M75.9,60.9c-0.2-0.1,0.2,0.2,0.3,0.4s0.2,0.1,0.3,0.1l0,0l0.1-0.1c0.1-0.2,0.1-0.3,0.1-0.5l-0.3-0.3
			C76.3,60.9,76.1,61,75.9,60.9z"/>
		<path d="M79.8,61.5l-0.2-0.2l-0.1-1c0.2-0.5-0.8-1.4-0.8-1.2s-0.6,0.1-0.6,0.2s-0.3,1-0.2,1.3v0.1l-0.3,1
			c-0.1,0.2-0.2,0.4-0.2,0.6l0,0l0.4,0.2l0.1,0.7c0.4,0.3,0.9,0.3,1.4,0.2l0.6-0.7C79.8,62.1,79.8,61.5,79.8,61.5z"/>
		<path d="M56.8,49.7L56.8,49.7c0,0-0.1,0.4,0,0.5s0.1,0.1,0.2,0.2l-0.1,0.2c-0.1-0.2-0.3,0.1-0.1,0.3s-0.2,0-0.2,0.1
			s-0.1,0.2,0,0.3s0,0.1-0.1,0.2s0.5,0.1,0.5,0.1s-0.1-0.3,0-0.3H57l0.1-1.6L56.8,49.7z"/>
		<path d="M67.2,29.6c0-0.2-0.4-0.4-0.4-0.1s-0.3,0.4-0.4,0.3s-0.3,0.3-0.3,0.3s-0.1,0.3,0.2,0.3s0.7-0.2,0.7,0.1
			c0,0.1,0,0.1,0.1,0.2l0.7-0.7C67.7,29.9,67.2,29.8,67.2,29.6z"/>
		<path d="M70.4,30.8c-0.2-0.3-0.4-0.6-0.7-0.8L70.4,30.8C70.5,30.9,70.4,30.9,70.4,30.8z"/>
		<path d="M69,31.1L69,31.1c0,0,0.3,0.1,0.5,0.1l-0.7-0.9L68,31.1h0.2C68.4,31.1,68.7,31.1,69,31.1z"/>
		<path d="M53.2,57.6l-0.4,0.1l-0.3,0.4L52,58.3v0.8l-0.3,0.2v0.4l-0.3,0.1v0.2L51.1,60l0.3,0.7l0.3,0.2c0.6,0.1,0.3,0.8,0.3,0.8
			l0.3,0.1l0.2,0.5l0.3,0.7c0,0.2,0.2,0.4,0.5,0.4c0.1,0,0.1,0,0.2-0.1c0.1-0.1,0.3,0.5,0.3,0.5l1.6,0.1c0,0-0.1,0.2,0.2,0.3
			c0.4,0.1,0.9,0.1,1.4,0.1l1-0.3c0.2-0.1,0.5-0.2,0.7-0.1c0.2,0,0.5,0.1,0.7,0.2c0.3,0.2,0.7,0.2,1,0.1l0.5,0.5l0.5,0.9l0,0
			l0.1,0.2l0.7,0.2l0.5,0.1l0.2,0.7l0.4,0.1l0.1,0.4c0.5,0.3-0.1,1-0.1,1v0.9l0.3,0.2l-0.1,0.3l0.5,0.5l0.7,0.1l1,1.1l1,0.7l0.7,0.2
			l0.2,0.7l0.3-0.1l0.3-0.2l1-0.1l0.5-0.4l0.5-0.1l3.9-3.3l0.3-1.4V67c0.7-0.5,0.8-1.5,0.1-1.6c-0.5-0.1-0.3-0.6,0.2-0.7l0.3-0.1
			v-0.4l0.9-0.8v-0.7l-2-1.7c-0.4-0.1-0.4-0.7-0.3-1.2l1.2-2.5c-0.1-0.6-0.1-1.2-0.3-1.8L74,55.4l0.1-1h-0.5l-0.7,1l-0.1,0.3
			l-0.5,0.8c-0.8,0.3-1.6,0.3-2.3,0.1c-0.3-0.2-0.7-0.3-1-0.5c0,0-0.7-0.5-0.8-0.4s-0.7-0.2-0.7-0.1S67,55.3,67,55.3L66.2,55
			l0.7-0.1l-0.1-0.4c0,0,0.1,0,0.1-0.1c0,0,0,0,0,0l0,0l1,0.5c0.1,0.2,0.7,0.1,0.7,0.1l0.2,0.2c0.2,0,0.4,0.1,0.5,0.2
			c0.2,0.3,1.3,0.1,1.3,0.1l0.3,0.3l0.4,0.2h0.8l0.6-0.8l0.2-0.2l-0.1-0.4l0.3-0.3v-0.4l0.3-0.1l0.1-0.9l0.2-0.1v-2l-0.7-0.6
			c-0.1,0.2-0.7,0.2-0.7,0.2s-0.2,0.3-0.3,0.3s0.2,0.4,0.1,0.7c-0.1,0.2-0.3,0.3-0.5,0.3l-0.6,0.2L70.7,52H70l-0.1-0.4
			c0.1-0.1,0.1-0.2,0.2-0.3l0.5-0.1l0.4-0.2l0.2-0.5c0.1-0.4,0.5-0.4,0.5-0.4s0.9-0.8,1-1.2s0.4-1.4,0.9-1.4h1
			c0.4-0.2,0.3-0.7,0.3-0.7l0.5-0.1l0.1,0.3c0,0,0.7,0.1,0.8-0.1s0.3-0.5,0.4-0.3s0.8-0.3,0.8-0.3c0.1-0.3,1-0.2,1-0.2l0.1-0.4
			c-0.2-0.4-0.5-0.7-0.8-1c-0.1,0-0.8-0.6-0.8-0.4c-0.7-0.2-0.7-1.1-0.7-1.1l-0.3-0.6c0-0.3-0.6-1-0.7-1c-0.2-0.1-0.3-0.4-0.3-0.6
			l0,0l0.8-1c0-0.1,0.1-0.1,0.1-0.1l0.2-0.6l0.7-0.2l0.1-0.5h-0.3c0,0,0.4-0.7,0.7-0.7C78,38,78.6,38,79.1,38
			c0.2-0.3,0.3-0.5,0.4-0.8c0-0.1,0.3-0.2,0.4-0.2c0.2-0.1,0.4-0.3,0.5-0.5c0.1-0.2-0.2-1.2-0.4-1c-0.1,0.1-0.3,0.2-0.5,0.2
			l-0.1,0.5l-0.2,0.2v0.5c-0.1,0.3-0.4,0.5-0.4,0.5l-0.2,0.2h-1.1c-0.1-0.1-0.2-0.2-0.1-0.4l0,0c0.1-0.1,0.1-0.2,0.3-0.2
			s-0.1-0.7-0.1-0.7l0.3-0.1c0,0,0.1-0.8,0.2-0.8S78,35,77.9,34.8s-0.4-0.5-0.5-0.5h-0.8l-0.1,0.3L76,34.6c0,0,0.1,0.3-0.1,0.4
			c-0.3,0.3-1.2,0.9-0.8-0.1l0.1-0.3v-0.4l-0.7-0.1c0,0-0.4-0.1-0.4-0.3c0-0.1,0-0.3-0.1-0.4l-0.8-1l-1-0.1l-0.1-0.2l-0.6-0.1
			C71.5,32,71.4,32,71.3,32l-1,0.3c-0.1,0.1-0.1,0.3,0,0.4c0.1,0.7,0.3,0.8-0.1,0.8c-0.2,0-0.4-0.1-0.5-0.3c0,0-0.3-0.1-0.3,0.1
			s-0.1,0.5,0,0.7s-0.2,0.5-0.3,0.3s-0.4-0.5-0.4-0.6s-0.6-0.9,0.1-1S68.7,32.1,69,32l0.3-0.2h0.3l0.2-0.2l0,0l-0.5-0.1L69,31.5
			l-0.6-0.1c-0.3,0.2-0.6,0.5-0.8,0.9c-0.3,0.5-0.9,0-0.9-0.4L65.2,32h-0.4c-0.1,0.4-0.7-0.1-0.5-0.3c0.1-0.1,0.1-0.3,0.2-0.5
			l-0.2-0.1L64.2,32c-0.6,0-0.8,0.3-0.7,0.5s-0.2-0.1-0.3,0.3s0.1,0.3,0.3,0.4s-0.1,0.1,0.1,0.3c0.1,0.1,0.2,0.2,0.4,0.1L63.7,34
			c-0.2,0.1-0.4,0.1-0.6,0c0,0.1-0.1,0.1-0.1,0.2c-0.7-0.5-1.4-1-2.1-1.3c0.1-0.1,0.3-0.1,0.5-0.4c0.1-0.4,0.2-0.8,0.3-1.2
			c0,0-0.7-0.1-0.7,0.2s-0.5,0.3-0.5,0.3s-0.3,0.1-0.2,0.3c0.1,0.2-0.3,0.3-0.3,0.3v0.2l-2.6,0.6l0,0l0.1,1L57,34h-0.3l-0.1-0.2
			l-0.3-0.1v0.9l0.3,0.2l0.2,0.2l0.4,0.1l0.1,0.5l1,0.1l0.1,0.2l0.7,0.1l1.2,1.1l-0.1,0.4L60,37.6c0.1,0.3-0.5,0.1-0.5,0.1V38
			l0.3,0.1l0.3,0.2l0.5-0.7c0.5-0.3,0.7,0.1,0.7,0.4S61,38.1,61,38.1v0.6l0.3,0.1c0.2,0.2,0.2,0.5,0,0.7c-0.1,0.1-0.1,0.1-0.2,0.1
			l-0.2,0.3c-0.1,0.2-0.3,0.4-0.6,0.3l-0.2,0.3l-0.5,0.1l1,0.1c0.1-0.3,0.3-0.5,0.5-0.3c0.1,0.1,0.1,0.3,0.1,0.5l0.2,0.1l-0.1,0.5
			l0.3,0.1v1.4l0.3,0.3c0.5-0.2,0.5,0.1,0.3,0.3s-0.1,0.9-0.1,0.9l-0.2,0.2V45l-0.3,0.2v0.5c-0.3-0.2-0.7-0.2-1,0
			c-0.4-0.3-1.2-0.2-1.2,0.1c0.3,0.3-0.3,0.4-0.3,0.4l-0.3,0.3c0.2,0.5-0.2,0.5-0.2,0.5v0.8l-0.5,0.5v0.7l1.3,0.8l0.1,0.1h0.4v-0.2
			l-0.2-1v-0.9l0.5-0.5h0.1c0.3,0,0.3,0.8,0.3,1.1v1l0,0c0,0.1,0,0.1,0.1,0.2l0.2,0.1l-0.4,0.3l-0.3,0.4L59.6,50l-0.4,0L59,49.7
			l-0.3-0.1l-0.1,0.6l-0.2,0.3L57.9,51c0.5,0,0.2,0.3-0.1,0.4l-1,0.3c-0.1,0-0.1,0-0.2-0.1V52l-0.3,0.1l0.3,0.3h0.2v0.8
			c0,0.5-1.4,0.2-1.5,0.1V54L55.1,54l0.1,0.5l-0.1,0.7l0.5-0.1v0.3l1.1,0.1l0.2-0.3l1-1l0.4-0.5l0.9-0.2c0.1-0.4,0.5,0.1,0.5,0.1
			c0.5-0.1,0.5,0.3,0.5,0.3l0.5,0.1c0.5,0.1,0.2,0.2,0.2,0.3s0.3,0.2,0.3,0.2l0.1-0.5l0.3,0.1l-0.3-0.3l-0.3-0.3l-0.5-0.2
			C60,52.9,60.4,53,60.8,53h0.5c0.3,0.3,0.5,0.6,0.7,1c0,0.2,0.3,0.3,0.3,0.3l0.4-0.1l0.1,0.3h0.4l0.1,0.3H64l0.1-0.4l-0.7-0.1
			l-0.1-0.5l-0.5-0.1c-0.2-0.7,0.1-0.9,0.3-0.6l0.2,0.1l-0.1-0.7l0.3-0.1l-0.1-0.8l-0.3-0.1v-0.4l1,0.1c-0.1-0.3-0.1-0.5,0.1-0.8
			h0.3l0.1,0.2l1.2,0.1H66c0.5,0.3,0.3,0.7,0.1,0.7c-0.1,0.1-0.3,0.1-0.5,0.1l-0.1,0.2l-1,0.1l-0.1,0.5c-0.3,0-0.6,0.2-0.6,0.5
			c0,0,0,0,0,0l0,0V53c0.1,0.2,0.1,0.4,0,0.5l0.4,0.2l0.6-0.2c0.1-0.4,0.4-0.5,0.8-0.7s0.8,0.5,0.7,0.8c0,0.1,0,0.1-0.1,0.1
			c-0.6,0.4-1.3,0.8-2,1.2l0,0c-1.1,0.5-2.2,0.9-3.3,1.2h-0.1l-0.5-0.3l-0.1-0.7c-0.1-0.5-0.8-0.5-0.8-0.1s-1.4,0.1-1.4,0.1l-1,0.7
			L56.3,56L56,56.2l-0.1-0.3h-0.3l-0.2,0.3l-1.5,0.7c-0.1,0.1-0.1,0.2-0.1,0.2C53.7,57.3,53.2,57.6,53.2,57.6z M66.2,49
			c0-0.3,0.1-0.6,0.1-0.7s0.3-0.3,0.5-0.3l0,0c0.1,0,0.2,0.1,0.1,0.2c-0.1,0.2-0.1,0.4,0,0.5c0.2-0.2,0.5-0.3,0.7-0.1
			c0.1,0.1,0.2,0.2,0.2,0.3c-0.1,0.1,0.3,0.3,0.5,0.1s0.5,0.4,0.4,0.6s-0.8,0.2-0.8-0.1s-0.2-0.2-0.3-0.1c-0.1,0.1-0.3,0.2-0.5,0.1
			l-0.2-0.2c0-0.1,0.1-0.1,0-0.1s-0.1-0.1-0.2-0.1L66.2,49z"/>
		<path d="M87.4,26.2c0,0-0.6-0.4-0.5-0.6s-0.6-0.6-0.5-0.8s-0.5-0.5-0.5-0.6c-0.1-0.2-0.2-0.4-0.3-0.6L85,22.9l-0.1-0.4l-0.5-0.1
			l-1-1.2l0.1-0.3l-0.2-0.1v-0.5l-0.3-0.2l-0.4-0.1l-0.9-1l-0.1-0.5H81l0.1-0.7l-0.3-1c-0.1,0.1-0.3,0.1-0.4,0
			c-0.3-0.1,0.1-0.4,0.1-0.4v-0.3l-0.3-0.3c0,0-0.7,0.1-0.7-0.1c0-0.2-0.1-0.4-0.2-0.6l-0.1-0.7L79,14.4l-0.1-0.3l-0.5,0.1v-0.5
			l-0.3-0.1L78,13.5L77.9,13L77,12.9l-0.3-0.4L76.3,12l-1-0.1l-0.3-0.2l-0.5-0.1l-0.3-0.1l-0.1,0.2l-0.8,0.1L73.4,12
			c-0.5,0.1-0.9,0.2-1.4,0.1l-0.8,0.6C71.1,12.9,71,13,70.9,13s-0.1,0.5-0.1,0.5c0.2,0,0.5,0,0.7,0.1c0.2,0.1,0.2,0.4,0.2,0.4
			c0.7-0.1,0.8,0.8,0.8,1s0.3,0.2,0.3,0.2c0,0.3,0,0.6-0.1,0.8c-0.1,0.2,0.5,0.3,0.7,0.5c0.1,0.4,0,0.8-0.2,1.2
			c-0.1,0.1,0.3,0.2,0.3,0.4s0.1,0,0.2,0.3s0.1,1,0.1,1l0.6,0.1c0.1-0.5,1.2-0.6,1.3-0.5c0.6,0.3,1,0.9,1.2,1.6
			c0,0.2-0.5,0.3-0.5,0.3v0.3l0.3,1c0.6,0.3,1,1.1,0.9,1.2s0.5,0.1,0.5,0.1c0.1-0.7,0.8-0.5,0.8-0.3l0.2,0.8l0.2,0.4l0.3,0.3
			l0.4-0.1l0.1,0.3l0.5,0.1c0.2,0.2,0.4,0.4,0.5,0.6c0.1,0.1,0.6,0.1,0.8,0.1s0.4,0.2,0.4,0.4c0.1,0.2,0.2,0.4,0.3,0.5
			c0,0,0.5,0.1,0.5,0.3c0,0.2,0.1,0.4,0.3,0.5l0.4,0.3l0.1,0.4l0.4,0.1l0.1,0.5l0.7-0.1l0.4-0.3c0.1,0,0.2-0.1,0.3-0.2l0.7-0.9
			c0.1-0.2,0.2-0.5,0.4-0.4C87.8,27.2,87.4,26.2,87.4,26.2z"/>
		<path d="M81.8,36.6c-0.1-0.1,0.1-0.7,0.1-0.7c0.1-0.2,0.1-0.4,0-0.6c-0.1-0.3-0.1-0.6,0.2-0.8l-0.3-0.2l-0.3-0.1l-0.3,0.1
			c-0.1-0.3-0.1-0.5-0.3-0.8l0,0l0.2,0.1v-0.3l-0.3-0.1c-0.1-0.2-0.1-0.3-0.2-0.5l-0.1-0.8l-0.3-0.2l0.1-0.3L80,31.1l0.3-0.5L80,30
			h-0.4c-0.2-0.4-0.4-0.8-0.7-1.2l0.2-0.1l0.3-0.1l0,0l-0.1-0.5L79.1,28l-0.1-0.5c0,0-0.5,0.1-0.5,0.3c0,0.1,0,0.1-0.1,0.1
			c-0.3-0.5-0.6-0.9-0.9-1.4v-0.1c0.2-0.3,0.1-0.5-0.2-0.5s-0.3-0.1-0.4-0.5c0-0.2-0.2-0.4-0.5-0.4l-0.1-0.5l-0.3,0.2l-0.5-0.6
			l0.1-0.5c-0.1,0-0.2-0.1-0.3-0.2l-0.4-0.9c-0.1-0.1-0.3-0.1-0.4-0.1c-0.2,0.1-0.1-0.9-0.1-0.9s0.4-0.3,0.5-0.1s-1.4-2.1-1.8-1.9
			c-0.4,0.1-0.9-0.1-1-0.5c0,0,0,0,0,0c0-0.4-1.5-1.6-1.5-1.6s-0.5-0.3-0.6-0.1s-0.3,0.4,0,0.5s0.2-0.2,0.5,0.1s0.8,0.6,0.7,0.9
			c-0.1,0.1-0.3,0.2-0.4,0.3l0.3,0.3h0.4l0.1,0.7c0.3,0.1,0.5,0.3,0.7,0.5c0.1,0.1,0.1,0.3,0.1,0.5L72,22.2c0.1,0.2,0.2,0.3,0.4,0.5
			h0.2L73,23v0.3c0.4,0,0.7,0.2,0.8,0.5l0.6,0.7l0,0c0.1,0.1,0.2,0.3,0.4,0.4c0.1,0.1,0.1,0.1,0.2,0.1s0.3,0.3,0.4,0.5l-0.1,0.1
			c0,0.5,0.2,0.3,0.5,0.3c0.1,0.1,0.1,0.2,0.2,0.3c0,0.2,0,0.6,0.4,0.6l0,0c0.5,0.7,1,1.4,1.4,2.2v0.1l0,0l0.2,0.4
			c-0.1,0.1-0.1,0.1-0.1,0.2l-0.7,0.1v0.6l-0.3,0.1L77,31l0.4-0.1c0,0,0,0.5,0.1,0.3s1.2,0.1,1,0.5c0,0.2,1,0.7,0.9,1.4
			c0.1,0,0.1,0.1,0.2,0.1c0.2,0.6,0.4,1.2,0.5,1.8l-0.1,0.1c0.1,0.1,0.1,0.1,0.1,0.1c0.1,0.5,0.2,1,0.3,1.6c0,0.5-0.1,0.9-0.4,1
			c-0.5,0.3,0.1,0.1,0.1,0.1l-0.1,0.9c0.1,0.4,0.3,0.2,0.4,0s0.1-0.2,0.2-0.3l0.8-1.5C81.9,36.8,81.9,36.7,81.8,36.6z"/>
		<path d="M69.6,19.2c-0.1-0.3,0.3-0.4,0.5-0.1l0.5-0.1l0.1-0.4l-0.6-0.5h-0.5c0,0-0.1,0.3-0.3,0.2c-0.1-0.1-0.3-0.1-0.4-0.1
			c-0.2-0.1-0.2,0.4-0.1,0.6l0.8,0.5C69.7,19.4,69.7,19.3,69.6,19.2C69.6,19.2,69.6,19.2,69.6,19.2z"/>
		<path d="M58.4,12.4c0.1-0.2,0.1-0.2,0.3-0.3s-0.1-0.5-0.3-0.5c-0.2,0-0.3,0-0.5-0.1v1.1C58.3,12.6,58.3,12.5,58.4,12.4z"/>
		<path d="M52.4,46.8c0.1-0.2,0.3-0.3,0.5-0.4l0.1-0.3h1.1c0-0.2,0.2-0.3,0.3-0.3c0.1,0,0.3,0.1,0.3,0.2s0.4,0.1,0.4,0.1l0.3-0.5
			h0.5L56,45l0.2-0.1v-0.7c0.4-0.1,0.7-0.4,0.6-0.8l0.2-0.2l-0.1-0.2c-0.3-0.1-0.2-0.5,0.1-0.3s-0.3-0.3-0.3-0.3
			c-0.3,0.2-0.5-0.3-0.5-0.3h-0.6v-0.6l-0.1-0.5l-0.7-0.3l-0.5,0.4l-0.1,0.7V42l-0.4,0.1l-0.1,1.1l-0.3,0.1l0.1,0.5l-0.5,0.1
			L52.6,44l-0.1,0.5l-0.3,0.2L52,45.2l-0.2,1.2L52.4,46.8C52.4,46.8,52.4,46.8,52.4,46.8z"/>
		<path d="M56.1,35.2c-0.5,0,0-0.4,0-0.4l0.1-0.7h-0.5l-0.1-0.9l-1.2-0.7v-0.5l0.2-0.1l-0.3-0.1L54,32.2L54,32.6l-0.5,0.1v0.2h-0.3
			v0.3c-0.6,0.3-1.2,0.7-1.7,1.2h-1.8c-0.2,0.4-0.6-0.1-0.6-0.1c-0.1-0.3-0.6,0-0.6,0c0,0.5-0.8-0.2-0.8-0.2l-1.4-1
			c-0.7-0.4-1.6-0.3-2.1,0.4c0,0.3-0.3,0.3-0.5,0.3l-1-0.2c-0.2,0-0.3,0-0.4,0.2S41.7,34,41.7,34l-0.1,0.2l-0.4,0.1l-0.1,0.3
			l-0.5,0.1l1.2-0.1c0.3-0.1-0.1,0.7-0.3,0.7L41,35.2l-0.2,0.2h-0.5L40,35.8l-0.8-0.1c0,0-0.5,0.4-0.4,0.5s-0.1,0.5-0.2,0.5
			s-0.4,0.4-0.3,0.5s-0.3,0.5-0.3,0.5L38,38.2l-0.3,0.1v1.2l-0.5,0.3v0.5l-0.2,0.3l-0.5,1v0.2L36,42.3L36,43l-0.4,0.1v0.3l-0.2,0.8
			l0.5,0.1c0.2-0.1,0.2,0.5,0,0.6s-0.6,0.3-0.4,0.5s-0.7,0.1-0.7-0.1s-0.5-0.5-0.7-0.4S34,44.8,34,44.6l-1-0.3L32,44.5l-0.2,0.7
			c-0.5,0.1-0.8,0.8-0.8,0.8c-0.4,0.1-0.6,0.6-0.5,0.7s-0.2,0.2-0.2,0.2v0.9l-0.1,0.3l0.1,1c0.3,0,0.2,0.5,0.2,0.5
			c-0.5,0.1-0.3,0.6-0.3,0.6l-0.9,0.3l-0.3,0.3l-1-0.1L27.7,51l0,0l-1.1-0.3h-1.2l-0.1-0.2l-0.5-0.1L24.8,50L24.2,50L24,50.3
			l-0.6,0.1c0.1,0.5-0.6,1-0.7,0.8s-0.5-0.7-0.3-0.7s0.5-0.1,0.8-0.2V50l-1.5-0.1l-0.2,0.3l-0.6,0.1v0.7L20.4,51
			c-0.2,0.1,0.1,0.6,0.1,0.6c0.3,0.3-0.1,0.7-0.1,0.7c-0.3,0.3,0.2,0.7,0.2,0.7c0.3,0.1-0.2,0.3-0.2,0.3c0,0.2,0.1,0.4,0.3,0.5
			c-0.1,0.2-0.1,0.4,0.1,0.6c0,0,0,0,0,0c0,0,0.1,0,0.1,0.1l0,0l0.1,0.7l0.3,0.2v0.5l0.2,0.3h0.6l-0.1-1c-0.6-0.7,0.5-0.8,0.5-0.6
			s0.5,0.4,0.5,0.4c0.1,0.7,0.8,1,1,0.4s0.4-0.3,0.5,0.1c0.3,0.4,0.6,0.7,0.9,1h0.6l0.1,0.6c0.7-0.1,0.9,0.1,1.2,1
			c0.1,0.6,0.5,1,1,1.3l0.6-0.1c0-0.5,0.6,0.1,0.6,0.3s1.1,1.2,1.1,1.2l1.1,0.3l0.2,0.2l1.8,0.6H34c0-0.2,0.2-0.3,0.4-0.3
			c0,0,0,0,0,0c0.4,0.1,0.7,0.3,0.9,0.6c0,0.1,0.1,0.2,0.3,0.3l1,0.3c0.1,0.1,0.1,0.2,0.1,0.3c0.1,0.7,0.4,0.5,0.4,0.5l2.3-0.1
			l0.8-0.7l2.1-0.1c1.1-0.2,0.5-1.6,0.2-1.6c-0.1-0.1-0.2-0.3-0.1-0.5l-2.1-3.3c-0.3-0.3-0.7-0.7-1-1.1c0.1-0.2,0.1-0.4,0.2-0.5
			c0.5-0.3-0.1-0.8-0.1-0.8c0-0.4-0.1-0.8-0.3-1.1c-0.4-0.3-0.6-0.9-0.5-1.4v-0.7c-0.7-0.6,0.3-0.7,0.3-0.7c0.2-0.3,0.1-0.7-0.2-0.8
			l-0.1-0.5l-0.7-0.1l-0.1-2l-1.4-2.2c-0.3-0.1-0.1-0.6-0.1-0.6c0.4-0.2-0.1-0.7-0.1-0.7l-0.1-0.9l0.8-0.1l0.2-0.3h0.5l-0.1-1.1
			c0.1-0.1,0.2-0.2,0.3-0.3h0.2l0.2,0.1l0.6,0.1l0.1-0.1l0.3-1l0,0l-0.5-0.1C38.3,40,38.6,39,38.6,39c0.2-0.4,0.6-0.6,1-0.7
			c0.2,0,0.5,0.1,0.7,0.2l0.6-0.1c0.1,0.1,0.2,0.2,0.3,0.3c-0.1,0.4-0.1,0.8-0.1,1.2c0,0.1-0.1,0.1-0.1,0.2s-0.1,0.2-0.1,0.3l0.1,1
			l0.2,1l-0.5,0.5c-0.5,0.3-0.5,0.8,0.1,1c0.3,0.1,0.2,0.8-0.3,0.3c-0.7,0,0.2,0.5,0.1,0.5c0.7,0.3,0.5-0.4,0.5-0.4l0.4-0.3l0.9-0.5
			l0,0c0.3,0.2,0.6,0.4,0.7,0.8c0.5,0,1.1,0.1,1.6,0.1c0.3,0.3,0.5,0.6,0.7,1c0.5-0.6,1.4-0.1,0.7,0.3c0.7,0.5,0.7,0.8,0.7,0.8
			c0.5-0.2,0.5,0.3,0.5,0.4l0.2-0.7c-0.6-0.5,0.8-0.7,0.4,0.2l-0.3,0.4l0.5,0.3l0.1,1c0.9-0.1,0.7-1.2,0.7-1.2l0.5-0.1
			c0-0.4,0.3-0.2,0.3-0.2c-0.2-1,0.2-1.4,0.5-1.6l0.7-0.8c0.1-0.2,0.1-0.4,0.1-0.6c-0.4-0.2-0.2-0.7,0.3-0.3s-0.3-1-0.3-1l-0.3-0.3
			l-0.5-0.1l-1,0.1l-0.2,0.1l-0.1-0.1l-0.2,0.5h-0.7l-0.1-0.5l0.5-0.1l0.2-0.3l0.1-0.3h0.5l1-1c0.1-0.1,0.2-0.1,0.3-0.1l0.3,0.2
			l0.3,0.3l0.1,0.3l-0.3,0.1l-0.1,0.3l0.1,0.5h0.3c0.1-0.4,0.4-0.6,0.8-0.5c0,0,0,0,0,0c0.2,0,0.3,0.1,0.4,0.3l0.3-0.6
			c-0.6-0.3,0-0.7,0.1-0.5s0.5-0.5,0.5-0.5s0.3,0.4,0-0.1c-0.2-0.2-0.1-0.6,0.1-0.7c0,0,0.1-0.1,0.1-0.1c-0.1-0.5,0.5-0.4,0.5-0.4
			l0.1-0.7l-0.6-0.1c-0.1,0.6-0.7,0.1-0.4-0.1c0.2-0.1,0.4-0.2,0.5-0.4v-0.5l0.3-0.1l0.1-0.4h0.7l0.5-0.3l0.1-0.2l0.6-0.1l0.8-0.7
			L56.1,35.2z"/>
		<polygon points="41.3,44.1 42.3,43.5 42.3,43.5 		"/>
		<polygon points="33.6,71.2 33.6,71.2 34,71.7 34,72 34.4,72.1 34.5,72.4 34.9,72.2 34.7,71.7 34.1,71.2 		"/>
		<polygon points="54.6,69.7 54.8,69.5 55,69.3 54.8,69.2 54.4,69 54.3,69.3 54.6,69.4 54.4,69.5 		"/>
		<polygon points="51.5,66 51.2,66.3 51.1,66.3 51.3,66.5 51.5,66.7 51.7,66.5 51.5,66.3 51.7,66.2 		"/>
		<polygon points="22.5,57.3 22.5,57.9 22.8,57.9 22.7,57.3 22.4,57.2 22.4,57 22.2,57 22.2,57.3 		"/>
		<polygon points="25.1,60.5 25.5,60.8 25.7,60.6 25.4,59.9 25.1,59.7 24.9,59.2 24.3,58.9 24.3,58.9 24.5,59.6 24.8,60 		"/>
		<path d="M92.6,53.7h-0.3c0,0.2,0,0.5,0.2,0.5l0.1-0.2l0,0C92.7,53.8,92.6,53.8,92.6,53.7z"/>
		<path d="M93.9,52.7h0.2L94,52.5c0,0,0.1,0,0.1,0.1v-0.1c0-0.1,0-0.2-0.1-0.3l0,0l-0.2,0.1c0,0.1,0,0.1,0.1,0.2
			C93.8,52.6,93.8,52.7,93.9,52.7C93.9,52.7,93.9,52.7,93.9,52.7z"/>
		<path d="M93.9,53.2c-0.1-0.2-0.1-0.3-0.1-0.5l0,0l-0.3,0.1l0.1,0.5L93.9,53.2z"/>
		<path d="M91.4,48.6h-0.1c-0.2,0-0.4,0.1-0.5,0.2l0.1,0.2c0.1-0.1,0.3-0.1,0.4-0.1l0,0l0.3-0.1C91.6,48.7,91.5,48.7,91.4,48.6z"/>
		<path d="M92.3,54.2L92.3,54.2c-0.1,0-0.2,0.1-0.3,0.1c-0.3,0.1-0.1,0.8,0,0.6s0.3,0,0.4-0.5C92.4,54.2,92.4,54.2,92.3,54.2z"/>
		<polygon points="59.8,31.9 59.8,31.5 59.8,31.5 59.5,31.5 59.5,31.9 		"/>
		<polygon points="62.2,31.1 62.1,30.9 62,31 62,31.2 		"/>
		<rect x="62.8" y="30.6" transform="matrix(0.9989 -4.640909e-02 4.640909e-02 0.9989 -1.3567 2.9681)" width="0.9" height="0.3"/>
		<polygon points="62.4,30.9 62.3,30.5 62.3,30.5 62.2,30.6 62.2,30.9 		"/>
		<polygon points="58.4,30.7 58.1,30.7 58.1,30.7 58.1,31 58.4,31 		"/>
		<rect x="59.2" y="31.1" width="0.3" height="0.3"/>
		<polygon points="58.9,30.9 58.7,30.8 58.7,30.8 58.6,31.1 58.9,31.1 		"/>
		<path d="M65.4,4.9C65.2,4.9,65,5,64.8,5h-0.7c0-0.1-0.2-0.2-0.4-0.2l0,0c-0.1,0-0.3,0.1-0.4,0.2C63.2,5.2,63,5.2,63,5.2l-0.9,0.1
			c-0.1,0.3-0.6,0.4-0.7,0.3l0,0c-0.1-0.4-0.6,0.5-0.1,0.7c0.3,0.1,0.7,0.1,1,0l0.1-0.3l2.1,0.1c0.1-0.1,0.2-0.2,0.3-0.4
			c0,0,0.5-0.2,0.7-0.1S65.7,4.8,65.4,4.9z"/>
		<path d="M61.6,7.5L61.1,7V6.5l-0.2-0.2l-0.2-0.6l-0.5-0.2l-0.5,0.2l-0.6,0.4l-0.7,0.1l-0.3,0.4l1.3,0.1l0.2,0.4l0.9,0.1l0.7,0.7
			C61.8,8.1,61.9,7.8,61.6,7.5z"/>
		<polygon points="66.7,4.1 66.4,4.3 66.2,4.1 66,4.2 66.3,4.6 66.4,4.6 66.5,4.6 66.9,4.2 		"/>
		<path d="M64.7,31.1c0,0.1,0.3,0.3,0.4,0.3c0.2-0.1,0.5-0.2,0.7-0.3c0,0,0.2-0.6,0.1-0.5s-0.5,0.3-0.5,0.1s-0.1-0.1-0.2-0.1h-0.3
			l-0.7,0.1l-0.1,0.3l0.5,0.1C64.6,30.8,64.7,31,64.7,31.1z"/>
		<polygon points="55.6,31 55.3,30.9 55.3,31.1 55.6,31.2 		"/>
		<path d="M40.5,44.7"/>
		<rect x="56" y="30.6" width="0.3" height="0.3"/>
		<path d="M50.2,23.9c0.3,0-0.2-0.3-0.2-0.3s-0.5,0.1-0.5-0.2l0.1,0.5L50.2,23.9z"/>
		<polygon points="55.4,31.3 55,31.2 55,31.4 55.3,31.5 		"/>
		<path d="M39.3,45.6c0.1,0.5,0.4-0.3,0.4-0.3v-2.8L39,42.4l0,0l0.1,0.3h0.2c0.2,0.7,0.2,1.3,0.1,2c0,0-0.5,0.1-0.6-0.2
			s-0.3,0.5-0.1,0.6S39.3,45.2,39.3,45.6z"/>
		<polygon points="39.8,47.1 40,46.8 39.7,46.7 39.7,46 40,46 40,45.7 40,45.7 39.3,46.1 38.9,45.9 38.9,46.8 39.6,47.7 		"/>
		<path d="M40.4,49.9L40.4,49.9c-0.1,0-0.2,0.1-0.2,0.2l0,0c0,0.1,0.1,0.2,0.1,0.2l0,0c0.1,0,0.2-0.1,0.2-0.1l0,0
			C40.6,50,40.5,49.9,40.4,49.9z"/>
		<path d="M40.3,49.2c0-0.1-0.1-0.2-0.1-0.2S40,49,40,49.1v0.1c0,0.1,0,0.2,0.1,0.2h0.1C40.3,49.4,40.4,49.3,40.3,49.2L40.3,49.2z"
			/>
		<polygon points="40,48.2 39.7,48.3 39.7,48.6 40,48.7 		"/>
		<polygon points="39.3,50.7 39.7,50.6 39.7,50.3 39.3,50.4 		"/>
		<polygon points="50.7,23.4 50.5,23.2 50.3,23.4 50.6,23.6 		"/>
		<polygon points="55,31.8 55,31.5 54.7,31.6 54.8,31.9 		"/>
		<line class="st2" x1="69.4" y1="31.1" x2="68.7" y2="30.4"/>
		<line class="st2" x1="68" y1="31.1" x2="68.7" y2="30.4"/>
		<path d="M158.8,14.8v10.9c0,0.6,0.1,1.2,0.2,1.7c0.2,0.6,0.4,1.1,0.8,1.6c0.4,0.5,0.8,0.9,1.4,1.2c1.3,0.6,2.9,0.6,4.2,0
			c0.5-0.3,1-0.7,1.4-1.2c0.3-0.5,0.6-1,0.8-1.6c0.1-0.6,0.2-1.1,0.2-1.7V14.8h2.4v11.2c0,1-0.2,1.9-0.5,2.8
			c-0.3,0.8-0.8,1.6-1.4,2.2c-0.6,0.6-1.3,1.1-2.1,1.4c-1.7,0.7-3.7,0.7-5.4,0c-0.8-0.3-1.6-0.8-2.2-1.4c-0.6-0.6-1.1-1.4-1.4-2.2
			c-0.4-0.9-0.5-1.8-0.5-2.8V14.8H158.8z"/>
		<path d="M177.1,14.8h3.1l9.8,14.5h0.1V14.8h2.4v17.7h-3L179.6,18h-0.1v14.5h-2.4V14.8z"/>
		<path d="M199.8,14.8h2.4v17.7h-2.4V14.8z"/>
		<path d="M213.1,17.1h-5.7v-2.2h13.8v2.2h-5.7v15.5h-2.4L213.1,17.1z"/>
		<path d="M226.6,14.8H238v2.2h-9v5.3h8.4v2.2H229v5.7h9.5v2.2h-11.9V14.8z"/>
		<path d="M244.2,14.8h6.2c1.1,0,2.2,0.1,3.3,0.4c0.9,0.2,1.7,0.6,2.5,1.1c0.7,0.4,1.2,1,1.7,1.6c0.4,0.6,0.8,1.2,1.1,1.9
			c0.3,0.6,0.5,1.3,0.6,2c0.1,0.6,0.2,1.2,0.2,1.8c0,1.1-0.2,2.3-0.6,3.4c-0.4,1.1-1.1,2-1.9,2.8c-0.9,0.9-1.9,1.5-3,2
			c-1.3,0.5-2.8,0.8-4.2,0.8h-5.8L244.2,14.8z M246.6,30.3h3c1,0,2-0.1,2.9-0.4c0.9-0.3,1.7-0.7,2.4-1.2c0.7-0.6,1.2-1.3,1.6-2.1
			c0.4-0.9,0.6-1.9,0.6-2.9c0-0.7-0.1-1.3-0.3-2c-0.4-1.7-1.6-3.1-3.1-3.9c-1.1-0.5-2.3-0.8-3.5-0.7h-3.6L246.6,30.3z"/>
		<path d="M272.8,14.8h3.1l9.8,14.5h0V14.8h2.4v17.7h-3L275.2,18h0v14.5h-2.4L272.8,14.8z"/>
		<path d="M301,14.8h2.2l7.6,17.7H308l-1.8-4.4h-8.5l-1.7,4.4h-2.8L301,14.8z M305.3,26.1l-3.3-8.1h0l-3.4,8.1H305.3z"/>
		<path d="M317.1,17.1h-5.7v-2.2h13.8v2.2h-5.7v15.5h-2.4L317.1,17.1z"/>
		<path d="M330.5,14.8h2.5v17.7h-2.4L330.5,14.8z"/>
		<path d="M348.4,33c-1.3,0-2.5-0.2-3.7-0.7c-1.1-0.5-2.1-1.1-2.9-2c-0.8-0.9-1.5-1.9-1.9-3c-0.9-2.4-0.9-5,0-7.4
			c0.4-1.1,1.1-2.1,1.9-3c0.8-0.9,1.8-1.5,2.9-2c2.4-1,5.1-1,7.5,0c1.1,0.5,2.1,1.1,2.9,2c0.8,0.9,1.5,1.9,1.9,3
			c0.9,2.4,0.9,5,0,7.4c-0.4,1.1-1.1,2.1-1.9,3c-0.8,0.9-1.8,1.5-2.9,2C350.9,32.8,349.7,33,348.4,33z M348.4,30.8
			c1.8,0,3.6-0.7,4.9-2.1c0.6-0.7,1.1-1.4,1.4-2.2c0.6-1.8,0.6-3.7,0-5.5c-0.3-0.8-0.8-1.6-1.4-2.2c-2.5-2.7-6.7-2.8-9.4-0.3
			c-0.1,0.1-0.2,0.2-0.3,0.3c-0.6,0.7-1.1,1.4-1.4,2.3c-0.6,1.8-0.6,3.7,0,5.5c0.3,0.8,0.8,1.6,1.4,2.2
			C344.8,30.1,346.5,30.8,348.4,30.8L348.4,30.8z"/>
		<path d="M363.8,14.8h3.2l9.8,14.5h0V14.8h2.4v17.7h-3L366.2,18h0v14.5h-2.4L363.8,14.8z"/>
		<path d="M387,28.8c0.4,0.6,1,1.1,1.7,1.4c0.7,0.3,1.4,0.5,2.1,0.5c0.4,0,0.8-0.1,1.2-0.2c0.4-0.1,0.8-0.3,1.1-0.6
			c0.3-0.2,0.6-0.6,0.8-0.9c0.2-0.4,0.3-0.8,0.3-1.3c0-0.6-0.2-1.2-0.6-1.6c-0.5-0.4-1-0.7-1.6-0.9c-0.6-0.2-1.3-0.5-2.1-0.7
			c-0.7-0.2-1.4-0.5-2.1-0.9c-0.7-0.4-1.2-1-1.6-1.6c-0.5-0.8-0.7-1.8-0.6-2.7c0-1.2,0.5-2.4,1.4-3.2c0.5-0.5,1.2-0.9,1.9-1.2
			c0.9-0.3,1.8-0.5,2.7-0.5c0.9,0,1.9,0.1,2.8,0.4c0.9,0.3,1.7,0.9,2.3,1.6l-2,1.8c-0.3-0.5-0.8-0.9-1.3-1.1
			c-0.6-0.3-1.2-0.4-1.9-0.4c-0.6,0-1.1,0.1-1.7,0.3c-0.4,0.1-0.8,0.4-1.1,0.7c-0.2,0.3-0.4,0.6-0.6,0.9c-0.1,0.3-0.2,0.6-0.2,0.9
			c0,0.6,0.2,1.3,0.6,1.7c0.5,0.4,1,0.8,1.6,1c0.7,0.3,1.4,0.5,2.1,0.7c0.7,0.2,1.4,0.5,2.1,0.8c0.6,0.3,1.2,0.8,1.6,1.4
			c0.5,0.7,0.7,1.6,0.6,2.5c0,0.8-0.2,1.6-0.5,2.3c-0.3,0.7-0.8,1.3-1.3,1.7c-0.6,0.5-1.2,0.8-2,1.1c-0.8,0.3-1.6,0.4-2.4,0.4
			c-1.1,0-2.2-0.2-3.2-0.6c-1-0.4-1.8-1-2.4-1.9L387,28.8z"/>
		<path d="M183,68.1c0,9.1-6.5,14.6-14.4,14.6c-7.6,0.2-14-5.7-14.2-13.4c0-0.3,0-0.6,0-0.9c0-7.2,5.1-14.3,14.7-14.3
			c7.5-0.2,13.7,5.8,13.9,13.3C183,67.6,183,67.8,183,68.1z M160.8,67.6c0,7.2,3.2,13.3,8.6,13.3c4,0,7.2-3.9,7.2-11.6
			c0-8.3-3.4-13.4-8.2-13.4C164.1,55.8,160.8,60.3,160.8,67.6L160.8,67.6z"/>
		<path d="M209.4,61.4c-0.3-1.3-0.9-2.5-1.7-3.6c-0.9-0.9-2-1.2-4.4-1.2h-2.1c-1.5,0-1.6,0.1-1.6,1.5v9.3h3.4c3.8,0,4.2-0.4,4.7-3.1
			h1.5v8.4h-1.5c-0.5-2.9-0.9-3.2-4.7-3.2h-3.4v6.6c0,4,0.3,4.2,4,4.5V82h-13.1v-1.5c3.1-0.3,3.5-0.5,3.5-4.5V60.5
			c0-3.8-0.4-4.1-3.5-4.3v-1.5h19.9c0,0.7,0.2,4,0.5,6.4L209.4,61.4z"/>
		<path d="M237.3,61.4c-0.3-1.3-0.9-2.5-1.7-3.6c-0.9-0.9-2-1.2-4.4-1.2h-2.1c-1.5,0-1.6,0.1-1.6,1.5v9.3h3.4c3.8,0,4.1-0.4,4.7-3.1
			h1.5v8.4h-1.5c-0.5-2.9-0.9-3.2-4.7-3.2h-3.4v6.6c0,4,0.3,4.2,4,4.5V82h-13.1v-1.5c3.1-0.3,3.5-0.5,3.5-4.5V60.5
			c0-3.8-0.4-4.1-3.5-4.3v-1.5h19.9c0,0.7,0.2,4,0.5,6.4L237.3,61.4z"/>
		<path d="M246.2,82v-1.5c3.1-0.3,3.5-0.6,3.5-4.1V60.3c0-3.6-0.4-3.9-3.5-4.2v-1.5h12.6v1.5c-3.1,0.3-3.5,0.6-3.5,4.2v16.1
			c0,3.5,0.4,3.8,3.5,4.1V82H246.2z"/>
		<path d="M292.4,74.9c-0.6,2.3-1.4,4.5-2.4,6.7c-2.6,0.6-5.2,1-7.8,1.1c-11.2,0-15.8-7.3-15.8-13.9c0-8.6,6.6-14.6,16.7-14.6
			c2.6,0.1,5.2,0.5,7.6,1.1c0.4,2.3,0.7,4.2,1,6.9l-1.5,0.3c-1.4-5-4.6-6.5-7.9-6.5c-6.1,0-9.5,5.8-9.5,11.9
			c0,7.7,4.2,12.8,9.9,12.8c3.5,0,6.1-2.2,8.2-6.5L292.4,74.9z"/>
		<path d="M321.7,75c-0.2,1.9-1.1,5.7-1.5,7h-21.4v-1.5c3.6-0.3,4-0.5,4-4.1V60.3c0-3.7-0.4-3.9-3.4-4.1v-1.5h19.8
			c0,0.8,0.2,3.7,0.4,6.3l-1.5,0.2c-0.3-1.3-0.9-2.6-1.7-3.6c-0.7-0.8-1.9-1-4.2-1h-2c-1.6,0-1.7,0.1-1.7,1.5V67h2.8
			c3.5,0,4.1-0.2,4.7-3.2h1.5v8.5h-1.5c-0.6-3-1.1-3.2-4.7-3.2h-2.8v7.3c0,2,0.2,3,1,3.4c1.2,0.4,2.5,0.5,3.8,0.4
			c2.1,0,3.7-0.3,4.7-1.3c1-1.2,1.8-2.6,2.4-4.1L321.7,75z"/>
		<path d="M439.6,74.9c-0.3,1.8-1.2,6-1.6,7.1h-20.5v-1.5c3.7-0.3,4.1-0.6,4.1-4.1V60.3c0-3.6-0.4-3.9-3.6-4.2v-1.5h12.9v1.5
			c-3.2,0.3-3.6,0.5-3.6,4.2v16.4c0,2,0.2,2.7,1,3.1c1,0.3,2.1,0.4,3.1,0.4c1.8,0,3.3-0.3,4.3-1.4c1-1.3,1.8-2.8,2.4-4.3L439.6,74.9
			z"/>
		<path d="M468.4,75c-0.2,1.9-1.1,5.7-1.5,7h-21.4v-1.5c3.6-0.3,4-0.5,4-4.1V60.3c0-3.7-0.4-3.9-3.4-4.1v-1.5h19.8
			c0,0.8,0.2,3.7,0.4,6.3l-1.5,0.2c-0.3-1.3-0.9-2.6-1.8-3.6c-0.7-0.8-1.9-1-4.2-1h-2c-1.5,0-1.7,0.1-1.7,1.5V67h2.8
			c3.5,0,4.1-0.2,4.7-3.2h1.5v8.5h-1.5c-0.6-3-1.1-3.2-4.7-3.2h-2.8v7.3c0,2,0.2,3,1,3.4c1.2,0.4,2.5,0.5,3.8,0.4
			c2.1,0,3.6-0.3,4.7-1.3c1-1.2,1.8-2.6,2.4-4.1L468.4,75z"/>
		<path d="M502.9,70.4c-2.1,0.4-2.4,0.6-2.4,3.4v3.3c0,1.3,0,2.7,0.2,4c-3.1,0.9-6.3,1.4-9.6,1.6c-9.7,0-16-5.5-16-13.9
			c0-9.6,7.8-14.6,16.6-14.6c2.8,0.1,5.5,0.5,8.2,1.2c0.1,1.5,0.3,3.7,0.7,7l-1.5,0.3c-1-4.7-4.2-6.7-8.1-6.7c-5,0-9.4,4.5-9.4,12.1
			c0,6.3,3.1,12.9,10,12.9c0.8,0,1.6-0.1,2.4-0.5c0.6-0.4,1-1,1-2.3v-4c0-2.9-0.2-3.3-4.6-3.7V69H503L502.9,70.4z"/>
		<path d="M525.4,82v-1.5c2.5-0.4,2.7-0.9,2-2.7c-0.4-1.3-1-3-1.7-4.7h-8.1c-0.5,1.3-1,2.8-1.5,4.5c-0.6,2-0.5,2.6,2.6,3V82h-9.4
			v-1.5c2.8-0.3,3.3-0.8,4.7-4.3l8.6-21.6l2.2-0.5c2.7,7.3,5.3,14.7,8,21.9c1.4,3.7,2,4.2,4.6,4.6V82H525.4z M521.8,61.8h-0.1
			c-1.2,3.1-2.2,6.1-3.3,9.1h6.5L521.8,61.8z"/>
		<path d="M565.8,74.9c-0.3,1.8-1.2,6-1.5,7.1h-20.5v-1.5c3.7-0.3,4.1-0.6,4.1-4.1V60.3c0-3.6-0.4-3.9-3.6-4.2v-1.5h12.9v1.5
			c-3.2,0.3-3.6,0.5-3.6,4.2v16.4c0,2,0.2,2.7,1,3.1c1,0.3,2.1,0.4,3.2,0.4c1.8,0,3.3-0.3,4.3-1.4c1-1.3,1.8-2.8,2.3-4.3L565.8,74.9
			z"/>
		<path d="M371,68.1c0,9.1-6.5,14.6-14.4,14.6c-7.6,0.2-14-5.7-14.2-13.4c0-0.3,0-0.6,0-0.9c0-7.2,5.1-14.3,14.7-14.3
			c7.5-0.2,13.7,5.8,13.9,13.3C371,67.6,371,67.8,371,68.1z M348.8,67.6c0,7.2,3.2,13.3,8.6,13.3c4,0,7.2-3.9,7.2-11.6
			c0-8.3-3.4-13.4-8.2-13.4C352.1,55.8,348.8,60.3,348.8,67.6L348.8,67.6z"/>
		<path d="M397.4,61.4c-0.3-1.3-0.9-2.5-1.7-3.6c-0.9-0.9-2-1.2-4.4-1.2h-2.1c-1.5,0-1.6,0.1-1.6,1.5v9.3h3.4c3.8,0,4.2-0.4,4.7-3.1
			h1.5v8.4h-1.5c-0.5-2.9-0.9-3.2-4.7-3.2h-3.4v6.6c0,4,0.3,4.2,4,4.5V82h-13.1v-1.5c3.1-0.3,3.5-0.5,3.5-4.5V60.5
			c0-3.8-0.4-4.1-3.5-4.3v-1.5h19.9c0,0.7,0.2,4,0.5,6.4L397.4,61.4z"/>
		<path d="M597.5,82v-1.5c2.5-0.4,2.7-0.9,2-2.7c-0.4-1.3-1-3-1.7-4.7h-8.1c-0.5,1.3-1,2.8-1.5,4.5c-0.6,2-0.5,2.6,2.6,3V82h-9.4
			v-1.5c2.8-0.3,3.3-0.8,4.7-4.3l8.6-21.6l2.1-0.5c2.7,7.3,5.3,14.7,8,21.9c1.4,3.7,2,4.2,4.6,4.6V82H597.5z M593.9,61.8h-0.1
			c-1.2,3.1-2.2,6.1-3.3,9.1h6.6L593.9,61.8z"/>
		<path d="M635.4,61.4c-0.3-1.3-0.9-2.5-1.7-3.6c-0.9-0.9-2-1.2-4.4-1.2h-2.1c-1.5,0-1.6,0.1-1.6,1.5v9.3h3.4c3.8,0,4.2-0.4,4.7-3.1
			h1.5v8.4h-1.5c-0.5-2.9-0.9-3.2-4.7-3.2h-3.4v6.6c0,4,0.3,4.2,4,4.5V82h-13.1v-1.5c3.1-0.3,3.5-0.5,3.5-4.5V60.5
			c0-3.8-0.4-4.1-3.5-4.3v-1.5h19.9c0,0.7,0.2,4,0.5,6.4L635.4,61.4z"/>
		<path d="M663.3,61.4c-0.3-1.3-0.9-2.5-1.7-3.6c-0.9-0.9-2-1.2-4.4-1.2h-2.1c-1.5,0-1.6,0.1-1.6,1.5v9.3h3.4c3.8,0,4.2-0.4,4.7-3.1
			h1.5v8.4h-1.5c-0.5-2.9-0.9-3.2-4.7-3.2h-3.4v6.6c0,4,0.3,4.2,4,4.5V82h-13.1v-1.5c3.1-0.3,3.5-0.5,3.5-4.5V60.5
			c0-3.8-0.4-4.1-3.5-4.3v-1.5h19.9c0,0.7,0.3,4,0.5,6.4L663.3,61.4z"/>
		<path d="M684.5,82v-1.5c2.5-0.4,2.7-0.9,2-2.7c-0.4-1.3-1-3-1.7-4.7h-8.1c-0.5,1.3-1,2.8-1.5,4.5c-0.6,2-0.5,2.6,2.6,3V82h-9.4
			l0-1.5c2.8-0.3,3.3-0.8,4.7-4.3l8.6-21.6l2.1-0.5c2.7,7.3,5.3,14.7,8,21.9c1.4,3.7,2,4.2,4.6,4.6V82H684.5z M680.9,61.8h-0.1
			c-1.2,3.1-2.2,6.1-3.3,9.1h6.5L680.9,61.8z"/>
		<path d="M703.5,82v-1.5c3.1-0.3,3.5-0.6,3.5-4.1V60.3c0-3.6-0.4-3.9-3.5-4.2v-1.5h12.6v1.5c-3.1,0.3-3.5,0.6-3.5,4.2v16.1
			c0,3.5,0.4,3.8,3.5,4.1V82H703.5z"/>
		<path d="M749.9,82.4c-0.2,0-0.8,0-1.3,0c-5.3-0.2-6.9-1.4-8.6-4.1c-1.1-1.7-2.2-4-3.5-6.2c-0.4-1.1-1.5-1.9-2.8-1.8H733v6.1
			c0,3.4,0.4,3.9,3.6,4.2V82h-12.7v-1.5c3.2-0.3,3.6-0.7,3.6-4.2V60.3c0-3.4-0.4-3.8-3.5-4.1v-1.5h11.8c3.7,0,5.8,0.4,7.5,1.6
			c1.9,1.2,2.9,3.3,2.9,5.6c0,3.7-2.4,5.7-5.2,6.8c0.6,1.2,2.2,4,3.4,6c1,1.6,2,3.1,3.2,4.5c0.7,0.8,1.6,1.4,2.6,1.8L749.9,82.4z
			 M734.1,68.6c3,0.4,5.7-1.7,6.1-4.7c0.1-0.5,0.1-1,0-1.4c0-4.5-2.6-6.1-5-6.1c-0.7-0.1-1.3,0.1-1.9,0.4c-0.3,0.2-0.4,0.7-0.4,1.5
			v10.3H734.1z"/>
		<path d="M771.8,61.6c-0.9-2.7-2.4-5.8-5.9-5.8c-2.2,0-4,1.7-4.1,3.9c0,0.1,0,0.2,0,0.3c0,2.3,1.5,3.7,5.2,5.5
			c4.4,2.2,7.4,4.5,7.4,8.7c0,4.8-4.1,8.5-10.2,8.5c-1.4,0-2.9-0.2-4.2-0.6c-0.9-0.2-1.7-0.6-2.6-0.9c-0.6-2.4-1-4.8-1.2-7.2
			l1.5-0.5c0.8,2.7,3.3,7.4,7.3,7.4c2.6,0,4.2-1.8,4.2-4.4c0-2.5-1.8-4-5-5.7c-4.3-2.2-7.3-4.5-7.3-8.5c0-4.6,3.7-8.2,9.6-8.2
			c2,0,4,0.4,5.8,1.1c0.2,1.6,0.5,3.4,0.8,6L771.8,61.6z"/>
	</g>
</g>
</svg>
