<?xml version="1.0" encoding="utf-8"?>
<!-- Generator: Adobe Illustrator 22.1.0, SVG Export Plug-In . SVG Version: 6.00 Build 0)  -->
<svg version="1.1" id="Layer_1" xmlns="http://www.w3.org/2000/svg" xmlns:xlink="http://www.w3.org/1999/xlink" x="0px" y="0px"
	 viewBox="0 0 872 154.4" style="enable-background:new 0 0 872 154.4;" xml:space="preserve">
<title>Asset 1</title>
<g id="Layer_2_1_">
	<g id="Layer_1-2">
		<path d="M145,35.8c6.8,13.7,8.2,29.4,4.1,44.1c-4.2,16.7-18.4,33.7-34.7,40.5c-18.6,9-44.8,6.8-61.3-4.9
			C30.2,99.8,20.9,72.7,27.7,46C31.9,30.1,44.5,14.1,60,6.8C68.9,2.4,78.6,0.1,88.5,0C112.6,0,134.6,13.9,145,35.8 M89.8,3.1
			c0.3,2.9,0.3,5.8,0,8.7l0.3-0.7l1,0.5L91,12.9l0.8-0.2c7,0.5,13.8,2.6,19.9,6.1v-0.2c1.2-0.7,2.7-1.4,4.1-0.3
			c1.5-0.5,1.9,1.4,3.1,1.5c1.6,0.9,2.8,2.3,3.4,4.1c0.3,0.5,1.2,1,1.4,1.5c1.3-2,2.9-3.9,4.8-5.5l1-0.5
			c-9.1-8.7-20.7-14.2-33.2-15.7C93.9,3.6,91.9,3.4,89.8,3.1 M86.4,3.4C74.2,3.9,62.5,8,52.7,15.3c-1.9,1.4-3.6,3.2-5.6,4.4h0.3
			c2.5,2,4.8,4.3,7,6.6l0.2-0.3c8.7-8.2,20.1-12.9,32-13.4l-0.3-0.7l-0.2-7.5L86.4,3.4z M97.1,8.2l-4.4,1.9c-0.3-0.2-1-0.4-1.4,0.2
			v0.5c1.7,2.2,4.6,1,6.6,0.5c1.4,0.5,3,0.1,4.1-1v-0.2C100.9,8.5,98.8,8.4,97.1,8.2 M89.8,15.9l0.3,0.7c0.1,2.9,0.1,5.8-0.2,8.7
			c1.2-0.2,2.4-0.1,3.6,0.2c6.1,0.9,11.9,3.2,16.8,6.8c-0.7-0.6-1.2-1.3-1.5-2.2l0.3-0.2c0-1-1-1.5-1.2-2.4l0.7-0.3
			c1,1,1.9,2.1,2.7,3.2c0.7-0.3,1.2,0.2,1.7,0.5c0.8,0.5,0.3,1.7,1,2.4c0.2,1.9,2.4,2.9,2.2,4.8l0.7,0.3l1.9,2.2l0.3,1.4
			c0.8,0.3,1.4-0.7,2.2-0.5c1.2,0.7-0.2,1.5,0,2.2c0.5,0,1-0.3,1.4,0.2s-0.5,1.2-0.8,1.5c0,0.7,0.5,0.5,1,0.7c0.5,0.1,0.9,0.5,0.8,1
			v0.2c1.5,1.7-0.5,3.4,0.3,5.1c0.3,1.1,0,2.3-0.8,3.1c0,1.4-1.2,2.2-1.7,3.4l-1.5,0.3c-0.8,0.8,0.7,1.9-0.2,2.4h3.6l-0.3-0.3
			c-0.5-1.5-0.3-3.1,0.5-4.4c0.4-1.2,1-2.4,1.7-3.4h0.8c0.2,1.1,0,2.2-0.5,3.2c0.8,1.6,1.2,3.3,1,5.1c3.1-0.2,6.1-0.3,9.2-0.2
			l-0.3-0.5c-0.3-5.6-1.7-11.1-4.1-16.2c-0.7,0-1.2,0.5-1.9,0.3l-0.3-0.7c-1-1.3-2.2-2.6-3.4-3.8c-1.5,0.2-2.4-1.7-3.8-1.9
			c-1.4-0.5-0.3-2.5-2.2-2c-0.9-0.4-1.7-1.1-2-2c0.2-1.7-0.5-3.3-1.7-4.4c-1.2-0.3-1.5,1-2.7,0.9c-0.7-0.3-0.3-1.2-0.5-1.7
			s-0.7-0.9-0.7-1.5c1.5-1.9-1.7-1.9-1-3.7c-0.2-1.4-1.5-1.9-2.4-3.1c-4.8-2.2-9.9-3.7-15.2-4.4c-1.3,0-2.5-0.2-3.8-0.6 M118.3,15.8
			c-0.7,0.7-1.2-0.5-1.9,0.2l0.2,0.9c1.4,0.5,1.5,2.4,3.2,1.9c0.5-0.5-0.3-1.2-0.2-1.9C119.4,16.3,118.9,15.9,118.3,15.8 M62.1,24.4
			c-1.9,1.4-3.8,3.1-5.8,4.2c2.3,1.8,4.4,3.7,6.3,5.8l0.2,0.7c5.2-4.9,11.7-8.2,18.7-9.5c1.6-0.4,3.3-0.5,4.9-0.3c-0.2-3-0.2-6,0-9
			C77.7,16.7,69.3,19.5,62.1,24.4 M131.7,21.5c-1.9,2.4-4,4.6-6.3,6.6l-1,0.2c0.7,0.2,0.9,1,1.4,1.4c2.2,1.2,2.9,3.6,4.9,5.1
			c1.2,2.4,3.8,4.3,3.8,6.8c2.8,6.1,4.4,12.7,4.7,19.4l-0.2,0.3h0.7l9-0.2c-0.7-0.8-0.3-2.2-0.5-3.2C147,43.9,141.1,32.1,131.7,21.5
			 M45.5,21.8c-8.8,9.4-14.4,21.4-16,34.2c-0.3,1.9-0.2,3.7-0.5,5.8c3.2-0.3,6.5-0.3,9.7,0l-0.2-1.2c0.5-9.6,3.7-18.9,9.2-26.9
			c1.2-1.8,2.6-3.4,4.2-4.8c-2-1.9-4.2-4.1-6.3-6.3L45.5,21.8z M86.7,28.3l-0.5,0.3c-7.8,0.7-15.2,3.8-21.1,8.9
			c2.3,1.9,4.6,4,6.6,6.1l0.5-0.7c2.9-2.2,6.1-3.9,9.6-5c1.5-0.5,3.2-0.7,4.8-0.5c-0.3-3.1-0.3-6.1,0-9.2 M89.8,28.3l0.3,0.7v8.5
			l0.8-0.2c5.2,0.5,10.1,2.6,14.1,5.8l0.2,0.7c1.4-2,3.6-3.6,5.1-5.6l1.5-0.8l-0.7-0.3c-3.3-2.9-7.1-5.1-11.3-6.5
			C96.7,29.4,93.3,28.7,89.8,28.3 M53.9,30.6v0.5l-3.4,4.2c-5.4,7.7-8.5,16.7-9,26l8.5-0.2l0.8,0.3l-0.3-0.8c0.5-8.7,4.1-17,10-23.5
			C58.1,35.2,55.9,33,53.9,30.6 M113.8,39.3l-0.2,0.3c-2.9,3.1-6,6.1-8.9,9.2l0.9,0.9c0.2-0.7,0.5-1.4,0.7-2.2
			c0.7-1,1.9-0.3,2.9-0.2c1.5-0.1,3,0.1,4.4,0.3c1.2,0.5,1.2,2,2.2,2.6l-0.3,1.2c0.3,2.4,1.4-0.7,2.6,0c0.5,0.2,1.2,0.2,1.5,0.7
			c0.2,1,1.4,0.8,1.4,1.7c0,0.5-0.7,0.5-0.8,0.8c0.3,0.9-1,1.5-0.5,2.6c1.9,0.3,1.9-1.7,2.7-2.7c-0.3-1.7-0.9-3.3-1.7-4.8
			c-1-0.2-1.7-1.5-2.7-1.7c-2-0.8,0.3-2,0-3.2C116.7,42.8,115.4,41,113.8,39.3 M62.9,39.7c-4.3,4.9-7.2,10.9-8.5,17.3
			c-0.2,1.5-0.3,3.1-0.7,4.8c1.3-0.4,2.6-0.5,3.9-0.2c-0.7-0.3-0.2-1.4-0.5-1.7c-0.3-0.8-0.1-1.6,0.5-2.2c0-1.4,1.4-1.9,1.4-3.1
			s1.9-0.5,2.6-1.2c0.5-0.2,0-0.7,0-1c0.7-0.8,1.5-0.8,2.4-1.4c0.5-0.9,1.2-1.6,2-2.2c1.9,0,1.9-2.5,3.8-2.5
			C67.3,44.3,65,42,62.9,39.7 M89.8,40.7c0.7,1.7,0,4.4,0.5,6.5l2.2,0.8c0.7-1,2-1.4,2.7-2.4l1.2,0.3c0.1,0.9-0.1,1.7-0.3,2.5
			c-0.8,1.7-2.9,1.9-3.9,3.1c0.7,0.3,1.2-0.3,1.7-0.5c0.8,0.2,1.5,0.7,2,1.4c0.5,0.1,1.1,0,1.5-0.3c0.3-2.5,3.6-2.2,4.6-4.6
			l-0.7,0.2c-0.2-0.3-0.8-0.2-0.8-0.7c0.5-0.6,1.1-1.2,1.9-1.5c-2.6-1.8-5.6-3.2-8.7-4.1c-1.2-0.2-2.6-0.5-3.8-0.7 M73.1,47.3h0.7
			c0.7,0.7,2,0.7,2.6,1.5c0.3,0.5-0.5,0.5-0.5,1l0.5,0.3c0.7,0.2,0.5-0.3,0.7-0.7c0.8-0.9,0.8,0.8,1.7,0.8c0.5-0.4,1.3-0.3,1.7,0.2
			v0.2c0.5-0.3,1.5,0,1.7-0.8c1-1,0.5-2.6,1.9-3.2c0.5,0.3,0,0.7,0.2,1.2c1,0.3,2-0.8,2.9,0.2c-0.5-2.2-0.7-4.5-0.5-6.8
			C81.5,41.4,76.7,43.6,73.1,47.3 M88.5,52.4c-0.5-0.5-1.5-0.2-2.2,0c0.7,0.7,0.3,1.7,0.7,2.5c-0.9,1.3-2.3,2.2-3.9,2.4
			c-0.3,0.5-0.3,1.5-1.4,1.5c-0.3,0.7-1.4,1-1,2c-0.3,1.2-0.5,2.4-0.5,3.6c-1.9,1.2-1.4-1.5-2.2-2L77.6,63l-0.8-0.3h-1
			c-0.3,0.7-1,1.2-0.8,2.2c-0.2,0.5-1.2,0.3-1,1c1.1,0,2.2-0.2,3.2-0.5c0.7,0.2,1.4-0.3,2-0.3l0.5,0.7h0.2c0.5-0.3,0.7-1,0.5-1.5
			c0-0.7,0.8-0.7,1.2-0.8l0.2,0.8c1.4,0.5-0.3,1.5-0.5,2.4s0,2.1-1.2,1.7l-0.3-0.5h-0.2c0,0.6,0.3,1.1,0.8,1.4
			c0.8-0.7,0.8-1.9,2.2-2c0.7-0.7-0.3-1.7,0.7-2.4c1.7,0,3.4-0.7,4.6,0.5c0,0.5-0.3,0.8,0.2,1.4c-0.2,0.8-0.6,1.5-1.2,2.1l-0.3,1.2
			c-0.5,1.9-2.6,1-3.9,1.7c2,1.5,4.5,2.2,7,1.9c1.4,0,0.7-1.7,1.5-2.6c0.3-2.2,2.4-0.7,3.6-1.4c0.5-0.9,0.8-1.9,1-2.9
			c-0.8-0.5-1.2-1.5-0.8-2.4c-0.5-0.7-0.5-2-1.7-2.2l0.2-0.7c0-0.7,0.7-0.8,0.8-1.4c-0.7-0.5-0.5-1.5-0.5-2
			c-1.2,0.3-1.4-1.2-2.2-1.5c-0.2-0.7-1-0.8-1.7-1c-1.5,0.7-1.7-1.2-2.9-1.5v-1c0.5-0.5,1.4,0,2,0L88.5,52.4z M61.2,60.3
			c-2.6,0.8,0.3,2.7-0.2,4.3c-0.3,0.8-1.4,0-1.9,0.5L59,66.7c-0.3,1-1.5,0.2-2.2,0.8s0,1.4,0.3,1.7c-0.8,2,2,2.6,1.9,4.4
			c0.9,1.2-0.2,2.7,1.2,3.8c0.3,2-0.3,4.8,1.5,6.5l0.3,2c0.3,1.4-1.5,1-1.4,2.2l0.5,0.5l0,0c2.5-2.9,5.3-5.6,8-8.2L68,79.3
			c-2.3-3.2-3.9-6.9-4.8-10.7l-0.8-0.5C62.2,69,62,70,61.9,70.8l-0.3,0.3c-0.7,0-1-0.5-1.7-0.8c-0.2-0.3-0.5-0.8,0-1.2l0.7,0.2
			l0.3-1.4c0.2-0.7-0.5-1.4,0-2c0.7,0,1,0.7,1.4,1c0.7,0.2,1-0.3,1.5-0.5c0-0.5,0.7-1.2,0-1.5c0.3-1.2,0.3-2.5,0-3.8
			C63.1,60.1,61.9,60.3,61.2,60.3 M119.8,61.5L119.8,61.5 M117.9,64.5l1,1c1,0.7,0.3,2,1.4,2.6c1,0.8,1.8,1.9,2.2,3.1l0.3-0.8
			c0.5-1.7,0.3-3.8,0.8-5.4C121.7,65.2,119.7,65.1,117.9,64.5 M139.3,64.9l-0.5-0.3l0.3,0.8c-0.5,10.1-3.9,19.8-9.9,27.9
			c-1,1.6-2.3,2.9-3.7,4.1c2.5,2.1,4.8,4.4,7,6.8l0.2-0.5c9.5-10.6,15-24.1,15.5-38.3l0.3-0.7h-0.3L139.3,64.9z M126.7,64.7
			c0,1.9-0.2,3.7-0.3,5.6l1,1.2l-0.2,1.4h-1.4c-1.2,4.2-3,8.3-5.4,11.9c-0.9,1.5-2,2.8-3.4,3.8l2.9,2.6v-0.7c0-0.3,0.2-0.8,0.7-0.7
			c1.4,0,1.4,1.4,2.2,2.2c-0.2,1.2,0.8,2,0.5,3.2c7.7-8.1,12.2-18.7,12.7-29.8l0.3-0.5c-2.9,0.2-5.8,0.3-8.7,0.2L126.7,64.7z
			 M53.5,64.7l0.5,0.7c0,2,0.8,4.1,0.3,6.1c0.3-0.5,0.5-1.4,1.2-1.7c0.2-0.5-0.7-0.7-0.7-1.4c0.7-1.2,0-3.1,1.5-3.6
			C55.5,65.3,54.4,65.2,53.5,64.7 M38.5,64.9l-0.8,0.3H29c0.5,9.7,3.1,19.1,7.7,27.6c2.5,4.1,5.3,8,8.3,11.8l6.3-6.5l0.8-0.3
			c-1.1-0.9-2.1-1.9-2.9-3.1c-1.1-0.3-2-1-2.5-2l-0.3-1.2L46,92c-1,0.5-1.5-0.7-2.2-1s-0.5-2.4-1.9-2c-0.5,0-0.7-0.5-1-0.9
			c-1.2,0.2-1.5-1.2-2.2-1.9L38.4,87c-1.2,0.3-1.7-1.2-2.5-1.9l-0.7,0.3c-0.8-0.6-1.3-1.6-1.4-2.6c-1-1.2-0.5-3.1-0.3-4.4
			c0.2-0.3,0.7-0.5,0.7-1c0.3-0.7,1-0.7,1.7-0.7l0.7,0.5c0.3-0.2,1.4,0,1-0.8c0.6-0.5,1.3-0.7,2-0.7c0.4,0.7,0.9,1.3,1.5,1.9
			L40.5,77c-0.9-3.1-1.4-6.3-1.5-9.5l-0.2-0.5v0.2C38.4,66.4,38.4,65.6,38.5,64.9 M50.7,64.9L50,65.2c-2.9,0.1-5.8,0-8.7-0.2
			l0.3,0.5l0.7,5.8c0.5,2.1,0.9,4.3,1.2,6.5c0.3-0.5,0.2-1.4,1-1.5c-0.3-0.7,0.7-1.4,0.2-1.9c0-1.5,0.6-3,1.7-4.1
			c1.5,0,1.7-2.2,3.4-2.2c0.8,0,1.4,1,1.7,1.4C50.5,68.1,50.2,66.4,50.7,64.9 M66.8,68.8c0.8,1.7,1.4,3.4,2.2,5.1
			c0.5,1.4,1.9,2.6,2.4,3.9c0.8-1,1.7-2.2,2.6-3.1c0.1-0.4-0.1-0.9-0.3-1.2c-0.3-0.7,0-1.5-0.5-2.2c-0.9,0.3,0.3,1,0,1.5l-0.7-0.3
			c-0.7-0.2-1.3-0.7-1.5-1.4c0.7-0.3-0.2-0.5-0.3-0.8l-0.7,0.2h-0.5C69.7,68.8,67.7,69.8,66.8,68.8 M76.7,71.1
			c-0.2,0.8-0.7,1.5-1.4,2l0,0c0.8-0.5,1.4-1.5,2.2-1.5L76.7,71.1z M101.4,73.7c0,0.6,0.2,1.1,0.5,1.5c1.2-0.2,0.7,1.5,1.9,1.4
			c0.7-0.2,0-0.7,0.2-1.2c-0.2-0.9-1-1-1.7-1.5l0.2-0.5C102.1,73,101.7,73.3,101.4,73.7 M119.3,73.7c-0.8,0-2,0.5-2.7-0.2l-0.5,0.3
			c-0.3,0.5-0.7,1-1.4,0.8s-0.5-0.8-0.7-1.4l-0.2,1c-0.5,0.7-1,1.4-1.4,2.2c-0.7,0.7-1.7,0.5-2.4,1c-0.2,1.5-1.7,1.2-2.7,1.7
			l0.2,0.3l1.4-0.3c1.4,0.3,1-1.4,1.7-1.9c0.7-0.2,1.4-0.7,2-0.2c0.7,0.9,0.9,2.1,0.7,3.2c-0.7,0.7-0.3,2-0.8,2.9
			c0.2,1-1.2,1.5-1,2.6c-0.5,0.4-1.1,0.6-1.7,0.5c-2.5-1-5.1-1.6-7.8-1.7l-0.3,0.5c1.2,0.5,2.6,0.7,3.8,1.2s1.7,1.5,3.1,1.2
			s3.1,0.3,3.8-0.8c-0.2-1.2,0.8-2,1.4-3.1l0.3-0.2c0.5,0.7,0.8,1.5,0.8,2.4c0.8-0.8,1.5-2,2.4-2.9c2.2-2.9,3.8-6.2,4.6-9.7
			C120.8,73.3,120,73.4,119.3,73.7 M79.6,73.6c-1.7,2.3-3.7,4.4-5.8,6.4c3.2,2.7,7.1,4.4,11.2,5.1c0.2-0.8-0.2-1.9,0.3-2.6
			c0.4-0.5,1.1-0.8,1.7-0.5l0.3-0.9c-0.8-0.2-0.5-1.2-0.8-1.7l0.3-0.7c-0.7-0.5,0.3-1-0.2-1.5l0.7-0.5c-2,1-4.1-0.2-5.8-1
			c-0.7-0.5-1.9-1-2-2 M97.9,79.2V80c0.7-0.8,2.4-0.7,2.4-1.9C99.2,78,98.5,78.6,97.9,79.2 M101.4,81.5c-1,0-1.5,0.7-2.2,1.4
			s-1.4-0.8-2-0.5l0.3,0.3v0.7c-1,1-1.5-0.5-2.6-0.3v0.3l-0.3,0.5c-0.7-1-1.9-0.7-2.6-1.5l-1,0.3c-0.2,0.5-1.2,0-1,0.7
			c-0.8,0.3-0.8,1.2-1.4,1.7c-1-0.2-1.4,0.8-2.4,0.8l0.3,0.5c0.6,0.2,1.2,0.3,1.9,0.2c0.8-1.5,2.6-0.3,3.7-0.8
			c0.9,0.2,0.2,1,0.9,1.4c1.4-0.3,2.2,1.2,3.2,0.2c0-1.5,1.5-1.4,2.6-1.7c1.4-0.8,3.1-2,2.9-3.9L101.4,81.5z M71.1,82.4
			c-1.9,2.4-4,4.5-6.3,6.5c1,0,1.5,1.2,2.4,1.5c4.7,3.5,10.2,6,16,7.2l-1.5-0.7c-1.2-1.4-2.7-2.7-2.7-4.6c1.2-0.3,1-1.7,1.4-2.6
			c0.9-0.9,2-1.5,3.2-1.9c-3.2,1.4-6-1-8.5-2.2C73.9,84.8,72,83.9,71.1,82.4 M114.7,91l-0.2-0.5c-0.3,0.7-0.8,1.2-1.4,1.7
			c0,0.5-0.2,1.2,0.5,1.5c1.2,0.3,2.9,1.2,3.2,2.7c-0.5,1.4-3.1,2.6-1.5,4.1c0.5,0.7-0.7,1-0.5,1.7l0.5-0.5c2.1-1.3,3.9-2.9,5.6-4.7
			h-1.2c-0.7-0.4-1.1-1.2-1-2L114.7,91z M64.3,92.2l-0.2-0.2L64.3,92.2z M65.3,93.6l-0.7-1L65.3,93.6z M65.5,93.8
			c0.2,0.7,1.2,1.2,0.9,2.2c-0.7,0.7-1.6,1-2.6,0.8c-1.7-0.3-3.1,1-4.8,1.2c-1.5,0.5-2-1.4-3.4-1.2c8.7,7.7,18.7,12.4,30.3,12.9
			l1,0.8l-0.3-1v-8.3l-0.7,0.3C78.4,101.2,71.3,98.5,65.5,93.8 M123.5,99.8l-0.2-0.7c-0.8,1.7-2.9,2.9-4.2,4.1c-2,2-5.3,2.6-6.5,5.4
			c-1,1-1.5,2.6-3.1,3.1c-0.5,1.5-2.2,1.4-3.1,2.6c-2.6,2.4-4.3-1.5-6.8-1.9l-4.8,0.8c-1.6,0.3-3.3,0.3-4.9,0c0.2,3.3,0.2,6.6,0,9.9
			l0.7-0.3c14.7-0.7,28.6-6.5,39.3-16.5L123.5,99.8z M53.9,99.8v0.3l-6.5,6.5c9.4,8.3,21,13.8,33.4,15.7c2,0.2,4.2,0.3,6.3,0.7
			l-0.5-0.7v-8.5l0.3-0.5l-1,0.2C73.9,113,62.5,108.1,53.9,99.8 M89.7,102l0.5,0.7c0.2,2.6,0.2,5.1,0,7.7c2.5-0.5,5-0.8,7.5-1
			c-0.5-0.1-1-0.4-1.4-0.8c-1.5,0-2.2-1.7-2.6-2.7c0-0.8,0.2-1.6,0.7-2.2c-0.7-1.2-2.6-0.3-3.8-0.8L89.7,102"/>
		<path d="M147.2,11.9c4.6,4.1,6.6,9.4,8,15l0.9,1.7c-6.8-4.9-12.5-11-17-18l-5.1-5.3C138.4,7.2,143.3,8.4,147.2,11.9"/>
		<path d="M30.7,20.1c-3.1,3.8-7,6.3-10.4,9.5c1.9-3.9,1.9-8.5,4.6-12.1C28.7,10.9,35.8,8.7,42,6.1C37.4,10.2,34.2,15.3,30.7,20.1"
			/>
		<path d="M163.5,27.1c1.5,6.6-0.7,12.9,0.7,19.6l0,0c-3.6-7-11.2-10.4-16.4-16c-2.8-3.4-4.5-7.4-5.1-11.8c3.1,7.1,11.1,8.9,15.7,15
			c1.2,1.5,2.2,3.2,3.1,4.9l0.2-0.2c-2.7-5.8-3.6-12.1-5.4-18.2c-1-2.7-2.9-5.1-5.3-6.8C157.1,14.8,162.3,21.1,163.5,27.1"/>
		<path d="M25.1,14.6c-6.1,4.3-5.8,11.9-7.8,18.2c-0.7,2.4-1.7,4.4-2.2,7l0.2,0.2c1.1-2.8,2.9-5.4,5.1-7.5
			c4.4-4.1,10.9-6.6,13.1-12.6c0,8.3-7.1,15-13.8,19.6c-2.9,2.3-5.2,5.1-7,8.3c-0.2-2,0.3-4.2,0.2-6.5c-0.7-7.3-1.2-15.7,3.9-21.1
			C18.8,17.5,21.8,15.5,25.1,14.6"/>
		<path d="M167.5,28.4c5.6,8.3,6.6,18.9,2.7,28.1c-1.5,3.7-2.5,7.6-3.2,11.6c-0.3-0.7-0.3-1.7-0.7-2.4c-2.2-8.5-10.2-14.5-13.4-22.5
			c-1.1-2.6-1.9-5.4-2.4-8.2c3.6,6.5,12.1,9.9,14.5,17c1,1.9,0.9,4.1,1.5,6l0.2-0.2c-0.9-7.4-0.8-14.9,0.3-22.3
			c0-3.9-0.3-7.8-2.6-10.9C166,25.7,166.4,27.2,167.5,28.4"/>
		<path d="M11.8,26c-4.8,7.3-0.9,16.4-1,24.5l-0.7,8.3l0.3,0.2c0.2-0.9,0.4-1.9,0.5-2.9c1.2-6.8,7-11.6,12.3-16.4
			c1.1-1.1,2-2.5,2.5-3.9c-0.4,3.4-1.4,6.8-2.9,9.9C18.8,53.6,11.5,60.1,10.1,69c-0.7-8.5-6.5-15-6-24.2C4,37.5,7.1,31.3,11.3,25.9
			L11.8,26"/>
		<path d="M172.7,77.1c-3.2,4.6-7.3,9-10.2,13.8c0.3-3.8,0.9-8.3-0.7-11.9c-2.8-7.7-4.6-15.7-5.4-23.8v-3.2
			c1.9,8.7,10.4,14.5,9.9,24.2c0,2.2-0.3,4.4-1,6.5l0.2,0.2l0.3-0.5c1.2-4.8,1.9-9.7,3.7-14.1c2.7-6.3,6.3-12.8,4.8-20.4
			C178.6,56.9,177.4,69,172.7,77.1"/>
		<path d="M9.5,74.2c0.9,3.2,1.2,6.6,2.4,9.5l0.3-0.2c-3.2-9,1.4-17.4,6.1-24.5c1-2,1.8-4.1,2.4-6.3c0.5,4.1-0.5,8.8-1.2,12.9
			c-1.2,5.4-2.9,10.6-4.2,15.7c-0.8,3.4-0.9,7-0.2,10.4l-0.5-0.3C11.2,85.1,4.3,80.2,2.3,73.4c-1.9-5.7-2.5-11.9-1.7-17.9
			c0.4-2.3,1-4.6,1.9-6.8C0.6,58.7,7.2,65.7,9.5,74.2"/>
		<path d="M159.8,91.9c-0.2,4.1-1.5,8-3.8,11.4h0.3c3.1-3.9,5.3-8.2,8.9-11.9c5.4-5.3,11.1-10.7,11.8-17.9
			c1.9,12.3-4.9,22.8-15.1,29.8c-4.2,2.7-8.3,5.3-12.4,8.3v-0.3c6.1-10.2,3.1-24.2,7-35.4l1.4-3.8C156.9,79,160,85,159.8,91.9"/>
		<path d="M25.1,105.9c0.9,2.2,1.9,4.4,2.9,6.6c-9.4-6.3-22.1-12.4-26.2-24c-1.6-4.4-2.1-9-1.5-13.6c0.7,10.4,11.9,15.8,17,24.5
			c1.1,1.9,2.4,3.6,3.9,5.1c-0.2-1.2-1.4-2-1.7-3.2c-1.8-3.8-2.5-8.1-2-12.3c0.5-5.3,2.7-10.2,1.9-15.8
			C24,82.9,22.6,95.2,25.1,105.9"/>
		<path d="M145.8,113.6c-1.7,2.9-3.9,5.5-6.5,7.7c0.9,0,1.5-0.7,2.2-1.2c6.8-6.6,15.5-8.5,22.8-14c2.9-2.3,5.3-5.3,6.8-8.7
			c-1.4,11.1-12.4,21.6-22.8,24.9c-5.4,1.4-11.1,1.9-16.3,3.7c8.9-7.7,8.3-19.4,14.3-28.4c1.9-2.6,3.4-5.1,5.6-7.7
			C148.4,97.2,149.9,106.5,145.8,113.6"/>
		<path d="M34,104.2c3.1,7.7,4.2,16.3,11.6,22.3c-7.8-2.6-17-1.9-23.8-6.6c-7.5-4.6-14.3-12.4-15.7-21.1
			c5.3,11.8,18.2,12.8,27.1,19.9c1.5,1.4,3.2,2.5,5.1,3.4v-0.2c-2.2-1.7-4.2-3.8-5.8-6.1c-5.1-7.2-3.4-17-7.1-24.7
			C28.7,95.1,31.7,99.5,34,104.2"/>
		<path d="M126.9,127.2c-1.9,1.2-4.3,1.5-6.3,2.4c2.9,0,5.4-1,8.2-1.2c10.4-1.7,22.1,0,29.5-8.9c-2.7,6.1-9.4,11.2-15.5,13.4
			c-10.6,3.9-21.1-0.9-31.3-2.6l-1.9-0.3l0,0c4.8-1.2,9.5-2.6,13.3-6.1c5.6-5.4,10.7-11.1,17-15.3
			C135.1,114.8,134.6,123.3,126.9,127.2"/>
		<path d="M54.4,124.3c4,3.3,8.9,5.4,14,6.1c-1.2,0.5-2.9,0.3-4.1,0.7c-9.2,2.2-19.2,6-28.9,2.7c-6.8-2.3-12.4-6.9-16-13.1
			c8.4,9.5,22,6.3,33,8.9c1.5,0.4,3,0.6,4.6,0.5c-1.4-0.9-3.2-0.7-4.6-1.5c-8.7-3.1-10-12.4-14.6-18.9
			C43.7,113.6,48.8,119,54.4,124.3"/>
		<path d="M122.5,137.2c6.8,2.6,15.5,1.9,21.3-2.4c-2.9,3.6-6.8,6.3-11.2,7.8c-9.4,3.6-19.2-0.2-26.6-5.8c-3.1-1.9-5.6-4.6-9.5-4.4
			c-1.3-0.1-2.6,0.1-3.9,0.3c7.4,3.5,14.1,8.1,19.9,13.8c-1.2,1.2-2.4,2.2-3.6,3.2c-5.8-6.3-12.3-12.3-19.6-15.8
			c-1.4,0.3-2.8,0.9-4.1,1.7c-6.2,3.8-11.6,8.7-16.2,14.3l-3.8-3.1c5.7-5.8,12.4-10.6,19.8-14.1c-7.2-2.2-11.7,3.8-17.2,6.8
			c-6.3,4.4-15.3,6.5-23,3.4c-4.3-1.5-8.1-4.1-11.1-7.5c6,4.1,15,4.6,21.8,1.9c9.2-3.9,18.7-9,29.8-6.6c1.7,0,3.4,1.7,5.1,0.3
			c8.3-2,17-0.9,24.5,3.1"/>
		<path d="M200.7,36.3h4.8v22.1c0,9,3.8,11.8,8.7,11.8s8.9-2.8,8.9-11.8V36.3h4.6v21.9c0,12-5.8,16.1-13.5,16.1s-13.4-4.1-13.4-16.1
			L200.7,36.3z"/>
		<path d="M236.8,36.3h4.9l13.6,23.5l4,7.8h0.2c-0.2-3.8-0.6-8-0.6-11.9V36.3h4.5v37.4h-4.9L245,50.2l-4.1-7.7h-0.2
			c0.2,3.8,0.6,7.8,0.6,11.7v19.6h-4.5L236.8,36.3z"/>
		<path d="M272.8,36.3h4.8v37.4h-4.8V36.3z"/>
		<path d="M294.7,40.3h-11.3v-4h27.4v4h-11.3v33.4h-4.7V40.3z"/>
		<path d="M316.6,36.3h21.5v4h-16.8v11.7h14.1v4h-14.1v13.6h17.3v4h-22.1V36.3z"/>
		<path d="M345.8,36.3h9.4c11.5,0,17.7,6.7,17.7,18.5s-6.1,18.9-17.4,18.9h-9.6L345.8,36.3z M354.8,69.9c8.8,0,13.1-5.5,13.1-15
			s-4.3-14.7-13.1-14.7h-4.2v29.6L354.8,69.9z"/>
		<path d="M392.8,36.3h4.9l13.6,23.5l4,7.8h0.2c-0.2-3.8-0.6-8-0.6-11.9V36.3h4.5v37.4h-4.9L401,50.2l-4-7.7h-0.2
			c0.2,3.8,0.6,7.8,0.6,11.7v19.6h-4.5V36.3z"/>
		<path d="M446,62.3h-13.7l-3.6,11.4h-4.8l12.6-37.4h5.4l12.7,37.4h-5L446,62.3z M444.8,58.5l-1.8-5.7c-1.3-4.2-2.5-8.3-3.7-12.6
			h-0.2c-1.2,4.3-2.4,8.4-3.7,12.6l-1.8,5.7L444.8,58.5z"/>
		<path d="M464.5,40.3h-11.3v-4h27.4v4h-11.4v33.4h-4.7V40.3z"/>
		<path d="M486.4,36.3h4.8v37.4h-4.8V36.3z"/>
		<path d="M498.4,54.8c0-12,6.6-19.2,16-19.2c9.4,0,16,7.3,16,19.2s-6.6,19.6-16,19.6S498.4,66.9,498.4,54.8z M525.4,54.8
			c0-9.3-4.4-15-11.1-15s-11.1,5.8-11.1,15s4.4,15.4,11.1,15.4S525.4,64.2,525.4,54.8z"/>
		<path d="M537.5,36.3h4.9L556,59.8l4,7.8h0.2c-0.2-3.8-0.6-8-0.6-11.9V36.3h4.5v37.4h-4.9l-13.5-23.5l-4-7.7h-0.2
			c0.2,3.8,0.6,7.8,0.6,11.7v19.6h-4.5V36.3z"/>
		<path d="M573.7,65.6c2.7,2.9,6.4,4.6,10.3,4.7c4.9,0,7.8-2.4,7.8-6.1c0-3.8-2.7-5-6.3-6.6l-5.3-2.3c-3.5-1.5-7.6-4.2-7.6-9.6
			c0-5.7,5-9.9,11.8-9.9c4.1,0,8.1,1.7,11,4.6l-2.5,3.1c-2.2-2.3-5.3-3.5-8.5-3.5c-4.2,0-7,2.1-7,5.5c0,3.6,3.3,5,6.2,6.2l5.4,2.3
			c4.3,1.9,7.7,4.5,7.7,10c0,5.9-4.9,10.7-12.8,10.7c-4.9,0-9.6-2-13.1-5.5L573.7,65.6z"/>
		<path d="M363,106c-1-0.4-2.1-0.7-3.1-0.7c-2.6,0-3.9,1.8-3.9,5.4v4.3h5.9v3.8H356v23.9h-4.7v-23.9h-3.8v-3.5l3.8-0.3v-4.4
			c0-5.7,2.6-9.2,8.1-9.2c1.6,0,3.2,0.3,4.6,0.9L363,106z"/>
		<path d="M377.4,114.3c6.8,0,12.8,5.3,12.8,14.6s-6,14.5-12.8,14.5s-12.8-5.3-12.8-14.5S370.6,114.3,377.4,114.3z M377.4,139.5
			c4.8,0,8-4.3,8-10.6s-3.2-10.7-8-10.7s-8,4.3-8,10.7S372.7,139.5,377.4,139.5z"/>
		<path d="M397.5,115h3.9l0.4,5h0.2c1.9-3.5,4.7-5.7,7.9-5.7c1,0,2.1,0.2,3,0.6L412,119c-0.9-0.3-1.8-0.5-2.7-0.5
			c-2.3,0-5.1,1.7-7,6.4v17.8h-4.7L397.5,115z"/>
		<path d="M427.7,123.8c0-12,6.6-19.2,16-19.2s16,7.3,16,19.2s-6.6,19.6-16,19.6S427.7,135.9,427.7,123.8z M454.8,123.8
			c0-9.3-4.4-15-11.1-15s-11.1,5.8-11.1,15s4.4,15.4,11.1,15.4S454.8,133.2,454.8,123.8z"/>
		<path d="M466.7,115h4.7v17c0,5.2,1.5,7.4,5.2,7.4c2.9,0,4.9-1.4,7.5-4.7V115h4.7v27.7h-3.9l-0.4-4.3h-0.2c-2.6,3-5.3,5-9.1,5
			c-5.9,0-8.5-3.8-8.5-10.8L466.7,115z"/>
		<path d="M498.9,118.8h-4.1v-3.5l4.3-0.3l0.6-5.8l3.9-1v6.7h7.5v3.8h-7.5v15.4c0,3.4,1.1,5.4,4.3,5.4c1.1-0.1,2.1-0.3,3.1-0.7
			l0.9,3.5c-1.6,0.6-3.4,0.9-5.1,1c-5.9,0-7.9-3.8-7.9-9.2V118.8z"/>
		<path d="M527.2,114.3c7.1,0,11.1,5.1,11.1,13c0,0.9,0,1.7-0.2,2.6h-18.7c0.3,6,3.9,9.7,9.2,9.7c2.5,0,4.9-0.8,6.9-2.2l1.7,3.1
			c-2.7,1.8-5.9,2.8-9.1,2.9c-7.4,0-13.3-5.4-13.3-14.5S520.9,114.3,527.2,114.3z M534.2,126.8c0-5.7-2.5-8.8-6.8-8.8
			c-3.9,0-7.4,3.2-8,8.8H534.2z"/>
		<path d="M545.1,115h3.9l0.4,5h0.2c1.9-3.5,4.7-5.7,7.9-5.7c1,0,2.1,0.2,3,0.6l-0.9,4.1c-0.9-0.3-1.8-0.5-2.7-0.5
			c-2.3,0-5.1,1.7-7,6.4v17.8h-4.7L545.1,115z"/>
		<path d="M574,134.6c2.7,2.9,6.4,4.6,10.3,4.7c4.9,0,7.8-2.4,7.8-6.1c0-3.8-2.7-5-6.3-6.6l-5.4-2.3c-3.5-1.5-7.6-4.2-7.6-9.6
			c0-5.7,5-9.9,11.8-9.9c4.1,0,8.1,1.7,11,4.6l-2.5,3.1c-2.2-2.3-5.3-3.5-8.5-3.5c-4.2,0-7,2.1-7,5.5c0,3.6,3.3,5,6.2,6.2l5.4,2.3
			c4.3,1.9,7.7,4.4,7.7,10c0,5.9-4.9,10.7-12.8,10.7c-4.9,0-9.6-2-13.1-5.5L574,134.6z"/>
		<path d="M608.4,145.1v9.4h-4.7V115h3.9l0.4,3.2h0.2c2.5-2.1,5.6-3.9,8.8-3.9c7.1,0,11,5.5,11,14.1c0,9.4-5.7,14.9-12,14.9
			c-2.6,0-5.1-1.2-7.7-3.2L608.4,145.1z M615.2,139.5c4.6,0,7.9-4.2,7.9-11c0-6.1-2-10.2-7.3-10.2c-2.3,0-4.7,1.3-7.4,3.8v14.5
			C610.2,138.3,612.6,139.3,615.2,139.5z"/>
		<path d="M650.2,125.2c0-3.5-1.2-7-5.7-7c-3,0.1-5.9,1.2-8.3,3l-1.9-3.2c3.2-2.2,7-3.4,10.9-3.6c6.8,0,9.6,4.5,9.6,11.4v17H651
			l-0.4-3.3h-0.1c-2.7,2.2-5.8,4-9.2,4c-4.7,0-8.2-2.9-8.2-7.9C633.2,129.5,638.4,126.5,650.2,125.2z M642.6,139.6
			c2.7,0,4.9-1.3,7.6-3.7v-7.7c-9.3,1.1-12.4,3.4-12.4,7C637.8,138.3,639.9,139.6,642.6,139.6L642.6,139.6z"/>
		<path d="M675,114.3c3,0,5.9,1.2,8.1,3.3l-2.3,3c-1.5-1.5-3.5-2.4-5.6-2.4c-5,0-8.7,4.3-8.7,10.7s3.5,10.6,8.5,10.6
			c2.4-0.1,4.8-1.1,6.5-2.8l2.1,3.1c-2.5,2.3-5.7,3.5-9,3.6c-7.4,0-13-5.3-13-14.5S667.9,114.3,675,114.3z"/>
		<path d="M698.9,114.3c7.1,0,11.1,5.1,11.1,13c0,0.9,0,1.7-0.2,2.6h-18.7c0.3,6,3.9,9.7,9.2,9.7c2.5,0,4.9-0.8,6.9-2.2l1.7,3.1
			c-2.7,1.8-5.9,2.8-9.1,2.9c-7.4,0-13.3-5.4-13.3-14.5S692.6,114.3,698.9,114.3z M705.9,126.8c0-5.7-2.5-8.8-6.8-8.8
			c-3.9,0-7.4,3.2-8,8.8H705.9z"/>
		<path d="M199.7,123.8c0-12,6.6-19.2,16-19.2s16,7.3,16,19.2s-6.6,19.6-16,19.6S199.7,135.9,199.7,123.8z M226.8,123.8
			c0-9.3-4.4-15-11.1-15s-11.1,5.8-11.1,15s4.4,15.4,11.1,15.4S226.8,133.2,226.8,123.8z"/>
		<path d="M250.8,118.8h-7.2v23.9h-4.7v-23.9h-2.8V115h2.8v-3.7c0-5.8,2.9-9.3,8.6-9.3c1.7,0,3.5,0.3,5.1,1l-1,3.5
			c-1.2-0.5-2.4-0.8-3.7-0.7c-2.7,0-4.3,2-4.3,5.6v3.6h7.2"/>
		<path d="M271,106.3c0.1-1.8,1.7-3.1,3.5-3c1.6,0.1,2.9,1.4,3,3c-0.1,1.8-1.7,3.1-3.5,3C272.4,109.2,271.1,107.9,271,106.3z
			 M271.9,115h4.7v27.7h-4.7V115z"/>
		<path d="M297.1,114.3c3,0,5.9,1.2,8.1,3.3l-2.3,3c-1.5-1.5-3.5-2.4-5.6-2.4c-5,0-8.7,4.3-8.7,10.7s3.5,10.6,8.5,10.6
			c2.4-0.1,4.8-1.1,6.5-2.8l2.1,3.1c-2.5,2.2-5.7,3.5-9,3.6c-7.4,0-13-5.3-13-14.5S290,114.3,297.1,114.3z"/>
		<path d="M321,114.3c7.1,0,11.1,5.1,11.1,13c0,0.9,0,1.7-0.2,2.6h-18.7c0.3,6,3.9,9.7,9.2,9.7c2.5,0,4.9-0.8,6.9-2.2l1.6,3.1
			c-2.7,1.8-5.9,2.8-9.1,2.9c-7.4,0-13.3-5.4-13.3-14.5S314.7,114.3,321,114.3z M328,126.8c0-5.7-2.5-8.8-6.8-8.8
			c-3.9,0-7.4,3.2-8,8.8H328z"/>
		<path d="M267.8,118.8h-7.2v23.9h-4.7v-23.9h-2.8V115h2.8v-3.7c0-5.8,2.8-9.3,8.6-9.3c1.7,0,3.5,0.3,5.1,1l-1,3.5
			c-1.2-0.5-2.4-0.8-3.7-0.7c-2.7,0-4.3,2-4.3,5.6v3.6h7.2"/>
		<path d="M747.9,131.3h-13.6l-3.6,11.4h-4.8l12.7-37.4h5.4l12.7,37.4h-5L747.9,131.3z M746.8,127.5l-1.8-5.7
			c-1.3-4.2-2.5-8.3-3.7-12.6h-0.2c-1.2,4.3-2.4,8.4-3.7,12.6l-1.8,5.7L746.8,127.5z"/>
		<path d="M807.9,125.2c0-3.5-1.2-7-5.7-7c-3,0.1-5.9,1.2-8.3,3l-1.9-3.2c3.2-2.2,7-3.5,10.9-3.6c6.8,0,9.6,4.5,9.6,11.4v17h-3.9
			l-0.4-3.3h-0.1c-2.7,2.2-5.8,4-9.2,4c-4.7,0-8.2-2.9-8.2-7.9C790.9,129.5,796.1,126.5,807.9,125.2z M800.3,139.6
			c2.7,0,4.9-1.3,7.6-3.7v-7.7c-9.3,1.1-12.4,3.4-12.4,7C795.5,138.3,797.6,139.6,800.3,139.6L800.3,139.6z"/>
		<path d="M820.6,106.3c0.1-1.8,1.7-3.1,3.5-3c1.6,0.1,2.9,1.4,3,3c-0.1,1.8-1.7,3.1-3.5,3C822,109.2,820.7,107.9,820.6,106.3z
			 M821.4,115h4.7v27.7h-4.7V115z"/>
		<path d="M835.4,115h3.9l0.4,5h0.2c1.9-3.5,4.7-5.7,7.9-5.7c1,0,2.1,0.2,3,0.6l-1,4.1c-0.9-0.3-1.8-0.5-2.7-0.5
			c-2.3,0-5.1,1.7-7,6.4v17.8h-4.7L835.4,115z"/>
		<path d="M853.9,136.4c2.4,1.9,4.8,3.3,8.2,3.3c3.7,0,5.5-1.9,5.5-4.3c0-2.9-3.3-4.1-6.3-5.2c-3.9-1.4-8.3-3.3-8.3-8
			c0-4.4,3.5-7.9,9.5-7.9c3.1,0,6.2,1.1,8.6,3.1l-2.2,3c-1.8-1.5-4-2.4-6.3-2.4c-3.5,0-5.1,1.9-5.1,4c0,2.6,3,3.6,6.2,4.8
			c4,1.5,8.4,3.1,8.4,8.4c0,4.5-3.6,8.3-10.2,8.3c-3.8-0.1-7.4-1.4-10.3-3.8L853.9,136.4z"/>
		<path d="M772.8,118.8h-7.2v23.9h-4.7v-23.9h-2.8V115h2.8v-3.7c0-5.8,2.8-9.3,8.6-9.3c1.7,0,3.5,0.3,5.1,1l-1,3.5
			c-1.2-0.5-2.4-0.8-3.7-0.7c-2.7,0-4.3,2-4.3,5.6v3.6h7.2"/>
		<path d="M789.8,118.8h-7.2v23.9h-4.7v-23.9h-2.8V115h2.8v-3.7c0-5.8,2.8-9.3,8.6-9.3c1.7,0,3.5,0.3,5.1,1l-1,3.5
			c-1.2-0.5-2.4-0.8-3.7-0.7c-2.7,0-4.3,2-4.3,5.6v3.6h7.2"/>
	</g>
</g>
</svg>
