<?xml version="1.0" encoding="utf-8"?>
<!-- Generator: Adobe Illustrator 15.0.3, SVG Export Plug-In . SVG Version: 6.00 Build 0)  -->
<!DOCTYPE svg PUBLIC "-//W3C//DTD SVG 1.1//EN" "http://www.w3.org/Graphics/SVG/1.1/DTD/svg11.dtd">
<svg version="1.1" id="Ebene_1" xmlns="http://www.w3.org/2000/svg" xmlns:xlink="http://www.w3.org/1999/xlink" x="0px" y="0px"
	 width="689px" height="135.701px" viewBox="0 0 689 135.701" enable-background="new 0 0 689 135.701" xml:space="preserve">
<g>
	<path d="M179.812,13.073V79.64c0,13.492,6.75,30.977,27.301,30.977c20.547,0,27.297-17.484,27.297-30.977V13.073h14.727v68.863
		c0,25.148-18.254,42.48-42.023,42.48c-23.773,0-42.023-17.332-42.023-42.48V13.073H179.812z"/>
</g>
<polygon points="264.656,13.073 283.98,13.073 343.789,102.327 344.102,102.327 344.102,13.073 358.828,13.073 358.828,121.655 
	340.109,121.655 279.688,32.401 279.379,32.401 279.379,121.655 264.656,121.655 "/>
<path fill="#E31837" d="M415.586,13.073h13.336l46.469,108.582h-17.168l-10.891-26.836h-51.691l-10.734,26.836h-17.172
	L415.586,13.073z M441.961,81.937l-20.242-49.844h-0.309l-20.555,49.844H441.961z"/>
<rect x="484.309" y="13.073" fill="#E31837" width="14.723" height="108.582"/>
<g>
	<path fill="#E31837" d="M514.094,13.073h37.879c45.855,0,57.055,34.203,57.055,54.293c0,27.758-20.707,54.293-59.504,54.293h-35.43
		V13.073z M528.82,107.854h18.547c24.855,0,46.008-13.648,46.008-40.488c0-13.805-7.203-40.488-42.477-40.488H528.82V107.854z"/>
	<path fill="#E31837" d="M624.016,98.956c5.211,7.977,14.262,11.66,23.004,11.66c9.664,0,21.625-6.137,21.625-18.094
		c0-25.004-53.523-9.512-53.523-51.844c0-12.727,10.734-30.367,36.805-30.367c11.809,0,23.16,2.457,31.289,12.422l-11.961,10.891
		c-3.684-5.672-10.895-9.508-19.328-9.508c-16.254,0-21.16,9.812-21.16,16.562c0,27.453,53.523,11.043,53.523,50.148
		c0,21.016-16.871,33.59-37.727,33.59c-13.961,0-27.297-4.754-34.66-15.031L624.016,98.956z"/>
	<path d="M39.828,16.417c-3.371,4.191-4.559,6.293-7.75,9.484c-2.734,2.738-8.215,5.473-10.129,8.664
		c1.645-7.027,4.656-10.496,8.027-13.043C33.625,18.788,37.73,17.515,39.828,16.417"/>
	<path d="M16.02,49.155c0.277-3.922-1.82-8.848-0.27-13.77c2.277-7.113,5.742-10.488,7.109-11.316
		c-1.734,2.832-2.18,6.938-2.914,11.953c-0.367,2.555-1.547,5.207-1.918,6.391c1.648-3.559,3.191-5.93,7.211-8.762
		c4.008-2.734,6.199-4.289,8.02-5.738C29.707,39.304,21.586,38.034,16.02,49.155"/>
	<path d="M14.199,66.487c-0.367-4.375-3.836-8.387-4.559-14.684c-1.191-10.672,2.188-13.684,3.555-15.781
		c-1.457,5.57,0.457,8.211,0.824,13.863c0.18,1.918,0.27,6.203,0.09,9.309c0.73-3.469,0.453-7.023,4.738-10.68
		c4.195-3.734,5.66-6.008,6.391-7.84C25.328,52.53,15.387,52.351,14.199,66.487"/>
	<path d="M17.664,82.815c-2.102-5.203-7.562-9.211-9.762-13.5C2.617,59.007,5.809,52.628,6.809,50.526
		c-0.176,6.566,2.648,11.766,5.02,15.871c1.555,2.734,3.367,8.574,3.922,10.121c-0.367-3.551-1.555-7.387,0.727-12.762
		c2.188-5.477,4.199-6.844,4.742-9.125C24.047,67.585,15.289,71.593,17.664,82.815"/>
	<path d="M24.961,97.405c-3.375-3.648-9.578-6.203-12.953-10.855c-5.285-7.293-6.473-12.855-6.473-15.773
		c1.188,3.281,7.027,8.207,9.391,10.945c1.645,1.914,4.02,6.02,5.836,9.574c-1.277-3.379-2.004-7.203-1.547-10.668
		c0.363-3.379,1.91-7.113,1.824-10.035c2.281,5.016,3.012,7.758,2.645,11.496C23.043,87.647,21.859,91.476,24.961,97.405"/>
	<path d="M37.367,110.085c-6.75-3.469-13.594-3.742-17.516-6.75c-8.57-6.477-9.211-11.129-10.117-14.414
		c3.008,5.387,9.578,7.938,12.766,9.676c2.645,1.547,6.383,3.918,8.938,6.648c-2.188-2.824-4.465-4.375-5.383-10.668
		c-0.82-6.379,0.457-7.297-0.734-10.855c3.656,4.016,5.203,7.297,5.75,11.039C31.805,100.511,32.258,105.796,37.367,110.085"/>
	<path d="M47.582,117.382c-6.477-1.555-13.227-0.18-18.332-2.191c-6.844-2.645-10.945-8.574-12.406-10.941
		c5.84,5.195,11.312,5.648,15.594,6.652c4.383,0.91,8.941,2.375,11.68,4.199c-2.191-2.461-5.66-5.391-7.297-9.941
		c-1.555-4.648-0.645-6.02-2.648-8.754c4.285,3.371,6.383,6.016,8.117,9.297C44.844,110.542,45.117,113.456,47.582,117.382"/>
	<path d="M112.062,16.417c3.375,4.191,4.57,6.293,7.844,9.484c2.648,2.738,8.211,5.473,10.129,8.664
		c-1.734-7.027-4.648-10.496-8.125-13.043C118.27,18.788,114.258,17.515,112.062,16.417"/>
	<path d="M135.961,49.155c-0.277-3.922,1.734-8.848,0.191-13.77c-2.285-7.113-5.762-10.488-7.031-11.316
		c1.734,2.832,2.188,6.938,2.824,11.953c0.367,2.555,1.652,5.207,1.922,6.391c-1.555-3.559-3.109-5.93-7.117-8.762
		c-4.008-2.734-6.293-4.289-8.027-5.738C122.281,39.304,130.391,38.034,135.961,49.155"/>
	<path d="M137.789,66.487c0.266-4.375,3.828-8.387,4.461-14.684c1.285-10.672-2.184-13.684-3.559-15.781
		c1.461,5.57-0.363,8.211-0.812,13.863c-0.09,1.918-0.27,6.203-0.09,9.309c-0.734-3.469-0.461-7.023-4.652-10.68
		c-4.293-3.734-5.746-6.008-6.383-7.84C126.566,52.53,136.598,52.351,137.789,66.487"/>
	<path d="M134.23,82.815c2.09-5.203,7.66-9.211,9.844-13.5c5.203-10.309,2.012-16.688,1.008-18.789
		c0.273,6.566-2.555,11.766-4.93,15.871c-1.637,2.734-3.367,8.574-3.91,10.121c0.355-3.551,1.453-7.387-0.734-12.762
		c-2.281-5.477-4.203-6.844-4.836-9.125C127.941,67.585,136.688,71.593,134.23,82.815"/>
	<path d="M127.023,97.405c3.371-3.648,9.484-6.203,12.953-10.855c5.195-7.293,6.477-12.855,6.477-15.773
		c-1.098,3.102-6.664,7.934-8.938,10.668c-1.738,1.922-4.562,6.297-6.289,9.852c1.27-3.379,1.906-7.203,1.539-10.668
		c-0.359-3.379-1.906-7.113-1.906-10.035c-2.191,5.016-2.918,7.758-2.559,11.496C128.848,87.647,130.121,91.476,127.023,97.405"/>
	<path d="M114.527,110.085c6.75-3.469,13.586-3.742,17.516-6.75c8.66-6.477,9.297-11.129,10.211-14.414
		c-3.012,5.387-9.574,7.938-12.762,9.676c-2.648,1.547-6.484,3.918-9.039,6.648c2.188-2.824,4.469-4.375,5.383-10.668
		c0.914-6.379-0.367-7.297,0.734-10.855c-3.648,4.016-5.207,7.297-5.652,11.039C120.188,100.511,119.73,105.796,114.527,110.085"/>
	<path d="M104.312,117.382c6.57-1.555,13.227-0.18,18.332-2.191c6.926-2.645,10.953-8.574,12.496-10.941
		c-5.93,5.195-11.402,5.648-15.684,6.652c-4.379,0.91-8.941,2.375-11.594,4.199c2.199-2.461,5.66-5.391,7.215-9.941
		c1.637-4.648,0.633-6.02,2.734-8.754c-4.289,3.371-6.383,6.016-8.211,9.297C107.047,110.542,106.867,113.456,104.312,117.382"/>
</g>
<polygon points="97.469,44.784 98.023,45.327 99.203,44.866 98.383,43.96 "/>
<polygon points="97.562,46.058 95.918,47.976 97.375,49.163 98.75,48.796 97.836,47.874 99.297,47.604 98.109,46.058 "/>
<polygon points="96.191,49.983 97.652,50.616 96.742,49.343 "/>
<polygon points="106.414,50.437 105.59,51.171 105.867,52.448 107.512,52.628 106.867,51.343 107.594,50.249 106.684,48.792 "/>
<polygon points="52.781,65.757 52.227,66.491 52.227,67.405 53.234,67.491 53.879,66.397 53.879,65.3 52.781,64.573 "/>
<polygon points="52.418,69.589 53.516,69.952 53.414,68.597 52.781,67.952 "/>
<g>
	<path fill="#E31837" d="M66.75,6.96c-4.516,3.656-7.574,13.633-8.68,19.621c4.586-6.52,11.414-10.969,18.074-10.969
		c7.008,0,13.75,4.477,18.484,10.922C93.902,20.3,90.184,10.495,85.586,6.96c-2.285-1.758-5.406-3.027-9.441-3.027
		C72.105,3.933,68.891,5.226,66.75,6.96"/>
	<path fill="#E31837" d="M86.086,56.55c6.457-11.836,9.008-19.809,8.414-24.84c-0.555-3.242-7.117-10.188-11.328-11.711
		c0.582,3.797-2.41,11.371-6.27,19.508c0,0-7.945,15.309-10.637,19.695c-2.73,4.445-19.688,34.312-19.688,34.312l7.359,20.531
		C64.383,95.917,80.453,66.878,86.086,56.55"/>
	<path d="M46.719,101.413c-2.016-1.477-3.922-3.09-5.695-4.84l2.863-2.863l-0.148-0.402c0,0,0.172-0.309,0.488-0.84l-3.656,3.648
		c-8.867-9-14.363-21.328-14.387-34.914h8.902v2.004l0.18,2.09l0.27,2.016l0.371,2.004l0.457,2.008l0.32,1.164l-1.598-0.254
		l-1.922,1.188l-1.914-0.363l-1.273,1.465l0.09,1.547l-0.184,1.367l1.555,0.637l-0.633-1.832l0.723-0.633l0.914,1.188l1.73,0.449
		l2.102,2.105l-0.367,1.453l2.367,1.555l1.188-0.18l1.375,1l0.445,3.191l2.664,0.23l0.539,0.68l1.27,1.461l0.379,0.406
		c0.113-0.188,0.223-0.383,0.344-0.586l-0.266-0.281l-0.602-0.684l0.969-0.402l0.539,0.25c1.715-2.98,3.938-6.84,6.293-10.926
		l-0.176-0.91l-1.637-1.547l0.816-0.824l-0.188-1.914L51.41,70.96l0.188-2.102l-1.465-1.273l0.27-1.375l1.008-0.449l0.188-1.551
		l0.91-0.824l-0.094-0.82h1l0.734-1.363h1.758l0.066,0.086v0.824l0.098,1.004l0.004,0.035l-0.469,0.234l0.367,1.367l-0.098,1.457
		h0.762l0.246,0.918l0.367,0.906l0.457,0.988c0.133-0.219,0.258-0.406,0.383-0.633l-0.293-0.625l-0.277-0.91l-0.191-0.645h0.379
		l1.375,0.199c1.879-3.266,3.516-6.238,4.98-8.797c-0.984-1.918-1.828-3.527-2.609-5.203l-1.473,0.945l-2.375,1.629l0.191-0.629
		l0.363-0.902l0.363-0.824l0.453-0.918l0.465-0.816l0.492-0.762l0.305-0.438c-0.102-0.227-0.207-0.379-0.305-0.605l-0.492,0.707
		l-0.555,0.82l-0.453,0.824l-0.449,0.91l-0.367,0.824l-0.367,0.91l-0.367,1.004l-0.141,0.48l-1.137,0.52l-0.543,0.91l-0.824,0.734
		l-1.367,1.184l-1.273,1.098l-0.34,0.547h-4.742l0.062-1.004l0.086-1.551l0.188-1.461l0.27-1.457l0.367-1.461l0.367-1.367
		l0.457-1.367l0.543-1.371l0.645-1.273l0.633-1.281l0.727-1.273l0.738-1.188l0.816-1.184l0.914-1.098l0.91-1.094l0.871-0.867
		l2.043,2.031c-0.172-0.484-0.328-0.941-0.48-1.395l-1.105-1.09l0.66-0.73c-0.082-0.254-0.105-0.5-0.168-0.746l-0.273,0.246
		l-0.695,0.758l-7.184-7.18l1.133-1.059l1.461-1.277l1.461-1.184l1.637-1.188l1.648-1l0.457-0.266
		c0.055-0.285,0.113-0.57,0.172-0.863l-0.996,0.578l-1.645,1.004l-1.637,1.188l-1.555,1.273l-1.461,1.277l-1.129,1.062l-6.273-6.277
		c5.168-5.082,11.289-8.984,18.262-11.453c0.219-0.5,0.453-0.984,0.699-1.465c-20.445,6.715-35.117,25.926-35.117,48.594
		c0,17.527,8.891,33.02,22.406,42.234L46.719,101.413z M56.613,61.987l0.637,0.578l-0.578,0.285l-0.059-0.738V61.987z
		 M54.238,60.104l1.191,0.457h-1.523l-0.027-0.094L54.238,60.104z M45.941,66.21l-1.004-1l-1.277,0.641l-0.457,0.824l-2.367,2.09
		l-0.188,1.645l-0.547,1.281l0.367,1.18l-1.914-0.543l-1.195,0.125L37,71.136l-0.457-1.91l-0.363-2.008l-0.273-2.008l-0.184-2.094
		v-1.914h10.129l0.09,1.449l0.09,1.559l0.18,1.461l0.078,0.438L45.941,66.21z M50.859,61.202l-0.816,1l-0.184,2.094l-0.82,1.648
		l-1.094,0.82l-1.016-0.766l-0.078-0.422l-0.188-1.461l-0.086-1.551l-0.086-1.363H50.859z M54.652,39.812l-0.871,0.867l-1,1.094
		l-0.914,1.184l-0.82,1.188l-0.727,1.188l-0.82,1.277l-0.645,1.363l-0.637,1.277l-0.551,1.367l-0.449,1.461l-0.367,1.461
		l-0.367,1.461l-0.273,1.457l-0.18,1.551l-0.09,1.551l-0.062,1.004H35.723v-1.555l0.184-2.098l0.273-2.004l0.363-2.008L37,50.983
		l0.547-1.914l0.641-1.914l0.727-1.824l0.82-1.824l0.824-1.734l1.004-1.645l1.094-1.637l1.094-1.645l1.188-1.551l1.273-1.461
		l1.234-1.23L54.652,39.812z M35.266,56.909l-0.18,2.098v1.555h-8.891c0.145-13.516,5.664-25.754,14.52-34.688l6.277,6.273
		l-1.238,1.23l-1.27,1.551l-1.281,1.555l-1.098,1.637l-1.098,1.645l-1,1.734l-0.906,1.727l-0.828,1.832l-0.727,1.91L36.91,48.89
		l-0.547,1.914L35.906,52.8"/>
	<path d="M92.145,108.44c-4.922,1.66-10.184,2.582-15.648,2.609v-8.805h1.824l2.102-0.188l2.094-0.27l2.008-0.367l2.008-0.461
		l1.234-0.367c-0.113-0.203-0.223-0.402-0.336-0.598l-1.086,0.332l-2.008,0.457l-1.918,0.363l-2.094,0.273l-2.004,0.09l-1.824,0.082
		V91.39h1.273l1.551-0.09l1.496-0.18l1.602,1.27l-0.082,1.453l-0.734,0.277v1.645l2.828,1.824l0.633,1.008l0.918,0.172l0.273,0.645
		l0.82-0.086c-3.941-7.18-7.93-14.441-10.301-18.707l-0.277,0.004v-0.438c-0.113-0.203-0.23-0.418-0.336-0.602
		c-0.098,0.164-0.203,0.352-0.309,0.539v0.5h-0.328c-1.242,2.234-4.777,8.758-4.777,8.758l1.918-0.277l1.918,0.367l1.27-0.469v1.75
		h-1.184l-1.461-0.102l-1.457-0.18l-1.531-0.324c-0.109,0.199-0.223,0.395-0.328,0.602l1.672,0.367l1.555,0.184l1.551,0.09h1.184
		v10.195l-1.734-0.074l-2.008-0.09l-2.094-0.273l-1.914-0.363l-2.008-0.457l-1.348-0.391c-0.105,0.203-0.219,0.398-0.328,0.598
		l1.496,0.426l2.008,0.461l2.004,0.367l2.102,0.27l2.09,0.188h1.734v8.801c-5.535-0.043-10.859-0.992-15.828-2.699
		c-0.203,0.348-0.391,0.688-0.578,1.031c5.254,1.832,10.898,2.84,16.773,2.84c5.773,0,11.312-0.98,16.488-2.742
		C92.523,109.132,92.336,108.788,92.145,108.44 M76.496,88.769l1.551-0.574l1.82,1.73l0.445,0.594l-1.082,0.133l-1.461,0.102h-1.273
		V88.769z"/>
	<path d="M92.738,12.601c0.246,0.383,0.555,0.988,0.766,1.484c6.855,2.336,12.625,6.301,17.762,11.34l-6.055,6.055l-0.07-0.199
		l-1.148-0.516l-0.137-0.117l-0.383-0.344l0.477-0.477l-1.914-3.109l0.906-0.453l-2.09-1.734l-2.102-0.18l1.188,1.184l0.914,1.184
		l-2.371-1.547l-1.027,0.664l-0.648-0.477c0.062,0.289,0.258,1.621,0.305,2.227c0.055,0.684,0.109,1.926,0.141,2.859l0.438,0.797
		l-0.055,2.363l-0.547,0.934c-0.156,1.352-0.453,3.258-0.914,4.98l0.297,0.34l0.168,0.203l-0.797,0.785
		c-0.125,0.426-0.285,0.887-0.434,1.34l1.645-1.633l0.332,0.395l1,1.734l1.332,0.266l0.035,0.039v1.613l0.918,1.824l1.172-0.277
		l0.004,0.02l-0.535,1.531l0.996,1.828l1.66,0.957l0.168,0.406l0.051,0.164l0.859,3.207c0,0-0.09,0.555-0.18,1.191
		c-0.098,0.73-0.555,2.824-0.555,2.824l1.281,0.188l0.137-0.832l0.047,0.379l0.094,1.543l0.055,1.004h-7.66l0.395-0.359l0.914,0.086
		l0.637-0.73l-0.363-0.453l0.633-1.281l1.375,0.191l1.188-1.559l1.547-2.82l-1.09-0.184l-0.918,1.91l-1.824,0.918l-0.637-0.457
		l0.637-0.914l-0.453-1.734l-1.645,0.547l-0.73,1.098l-0.91-0.184l0.633-0.914v-0.914l-1-0.27l0.09-1.465l-0.996-0.906l-2.375,0.09
		l-0.203-0.215L93,49.796l-0.375-0.562c-1.195,2.629-2.785,5.555-4.395,8.93c2.094,3.656,4.668,8.234,7.445,13.02l0.973-1.871h1
		l1.375-0.633l-0.094-0.641l1.102-0.09l2.461-1.277l-0.094-0.73l-1.645-0.367l-0.363-0.727l-1.098-0.09l-0.543,1.098l-0.367-0.648
		l0.098-1.453l-0.645-0.371l-0.277-2.184h8.387l-0.078,1.371l-0.094,1.547l-0.184,1.457l-0.273,1.457l-0.363,1.457l-0.367,1.375
		l-0.453,1.367l-0.547,1.371l-0.645,1.367l-0.637,1.277l-0.73,1.188l-0.723,1.273l-0.77,1.031c0.125,0.223,0.254,0.434,0.379,0.652
		l0.109-0.133l0.824-1.188l0.73-1.273l0.816-1.281l0.645-1.273l0.641-1.367l0.539-1.367l0.457-1.461l0.367-1.367l0.367-1.457
		l0.273-1.555l0.18-1.457l0.09-1.555l0.094-1.457h10.121v1.914l-0.184,2.094l-0.273,2.016l-0.359,2l-0.465,1.918l-0.543,2.004
		l-0.637,1.832l-0.727,1.82l-0.832,1.82l-0.805,1.734l-1.008,1.734l-1.102,1.637l-1.098,1.555l-1.176,1.551l-1.277,1.453
		l-0.359,0.383c0.121,0.203,0.23,0.395,0.344,0.586l0.465-0.504l1.281-1.465l1.277-1.641l1.105-1.551l1.082-1.73l1.008-1.637
		l0.91-1.832l0.82-1.82l0.727-1.824l0.641-1.914l0.547-2.004l0.453-2.016l0.367-2.004l0.273-2.004l0.184-2.102v-2.004h8.91
		c-0.023,13.59-5.52,25.918-14.395,34.918l-3.949-3.945c0.504,0.863,0.793,1.355,0.793,1.355l-0.09,0.25l2.797,2.801
		c-1.73,1.699-3.578,3.285-5.539,4.727l-0.695,1.906c13.414-9.223,22.234-24.652,22.234-42.109
		C127.422,38.499,112.672,19.257,92.738,12.601 M96.836,36.3c0,0,0.273-0.914,0.723-0.73c0.465,0.184,0.824,0.73,0.824,0.73l1-0.457
		l0.691,0.773l-1.727,1.734l-0.422-0.691L96.836,36.3z M116.715,60.558h-10.156l-0.059-1.004l-0.09-1.543l-0.18-1.559l-0.168-0.887
		l0.168-1.027l-0.781-1.547l-0.148-0.617l-0.078-1.484l0.734-1.188l-1.461-2.461l0.547-1.734l-2.191-1.094l-0.969,0.527
		l-0.488-0.801l-0.824-1.18l-0.91-1.191l-1.004-1.098l-0.418-0.414l0.691-0.953l-0.242-0.398l1.133-1.133l0.297,0.715l2.188,0.918
		l0.734,1.363l1.727,0.551l1.277,0.18l0.188,0.547l1.371,0.273l0.453-0.82l2.004,2.371l0.363,1.363l1.004,1.191l1.008-0.551
		l0.816,0.09v-1.234l0.277,0.598l0.727,1.824l0.637,1.918l0.543,1.91l0.465,1.914l0.359,2.012l0.273,2l0.184,2.102V60.558z
		 M117.355,60.558v-1.551l-0.184-2.102l-0.273-2.09l-0.367-2.012l-0.453-2l-0.547-1.918l-0.641-1.914l-0.727-1.918l-0.559-1.242
		l1.469-1.035l-1.184-1.457l-1.828-1.461l-1.547-2.828l-1.207-0.449l-0.07-0.102l-1.16-1.41l-0.762-1.418l-0.551-0.172l-0.086-0.098
		l-1.203-1.211l-0.012-0.039l6.262-6.258c8.863,8.93,14.383,21.172,14.527,34.684H117.355z"/>
	<path d="M76.156,18.397c-0.102,0-0.191,0.012-0.289,0.016l-0.012,1.48l-1.734,0.074l-1.84,0.137l-0.391,0.062
		c0,0.195,0.012,0.43,0.016,0.66l0.207-0.031l2.008-0.188l1.734-0.07v10.191h-1.188l-0.438,0.059
		c0.066,0.195,0.137,0.41,0.211,0.617l0.227-0.031h1.188v3.727c0.113,0.289,0.211,0.57,0.34,0.875
		c0.098-0.27,0.195-0.523,0.297-0.781v-3.82h1.277l0.211,0.023c0.074-0.203,0.137-0.41,0.211-0.609l-0.422-0.059h-1.277V20.53
		l1.824,0.078l2.004,0.188l0.316,0.039c0.012-0.238,0.02-0.461,0.012-0.664l-0.234-0.016l-2.098-0.188l-1.824-0.074l0.012-1.48
		C76.391,18.413,76.273,18.397,76.156,18.397"/>
	<path fill="#E31837" d="M98.586,114.194l7.363-20.531c0,0-11.91-20.664-18.949-32.953c-2.312,4.23-5.34,9.539-9.234,16.531
		C83.047,86.733,89.312,97.854,98.586,114.194"/>
	<path fill="#E31837" d="M69.531,19.944c-5.195,2.141-10.734,9.109-11.656,11.711c-0.762,4.977,1.398,11.762,7.762,23.598
		c1.598-3.129,7.266-13.066,9.145-17.027C70.918,30.069,69.055,23.538,69.531,19.944"/>
	<path d="M61.531,130.054c-0.449,0.645,2.555,1.551,2.922,1.102c11.68-15.875,29.094-8.027,35.301-6.293
		c8.754,2.555,16.414,1.828,22.801-6.477c-7.477,4.285-14.223,2.371-17.973,1.371c-2.824-0.742-6.93-2.648-13.77-3.109
		C85.707,116.378,72.758,116.647,61.531,130.054"/>
	<path d="M90.445,130.058v0.09v0.188c-0.273,0.543-2.641,1.27-2.918,0.82c-3.371-4.559-6.75-6.93-10.668-8.305
		c-0.09-0.273,4.652-1.188,4.832-0.633C84.797,124.226,87.352,126.417,90.445,130.058 M70.289,121.304
		c-7.75-0.555-14.5,2.551-18.059,3.559c-8.844,2.559-16.414,1.832-22.797-6.477c7.387,4.285,14.223,2.363,17.871,1.371
		c2.922-0.742,6.93-2.652,13.859-3.109c2.832-0.188,8.035-0.27,14.145,2.195C74.305,118.929,70.203,121.214,70.289,121.304"/>
</g>
</svg>
