<?xml version="1.0" encoding="UTF-8"?>
<svg width="400" height="100" version="1.1" xmlns="http://www.w3.org/2000/svg">
 <g>
  <path d="m10 9.734h380v80.532h-380z" fill="#0069b4"/>
  <path d="m120.24 11.41v77.178h268.08v-77.178z" fill="#fff"/>
  <path d="m291.44 41.782c-1.6541-0.97876-3.835-1.8813-5.9423-1.8813-1.1273 0-2.4057 0.30086-3.0848 0.97618-0.37576 0.3783-0.67662 0.97875-0.67662 1.5069 0 0.75279 0.52682 1.2022 1.0537 1.5031 0.75025 0.45192 1.8801 0.67789 3.2346 1.1298l2.8589 0.90259c1.8813 0.60046 3.8376 1.3532 5.5666 2.9337 1.9563 1.8064 2.6328 3.8363 2.6328 6.3955 0 4.438-1.9563 7.2956-3.4592 8.8024-3.312 3.3095-7.3743 3.8338-10.908 3.8338-4.5155 0-9.4041-0.97618-13.768-4.8126l4.5891-7.2981c1.0537 0.90258 2.558 1.9563 3.6878 2.4818 1.5031 0.75279 3.0835 1.0549 4.5129 1.0549 0.67663 0 2.4081 0 3.3844-0.75279 0.67916-0.52682 1.1285-1.3545 1.1285-2.1796 0-0.60426-0.22469-1.3558-1.2022-1.9563-0.75406-0.45446-1.729-0.75406-3.3107-1.2047l-2.7065-0.8277c-1.9575-0.60299-3.9886-1.6554-5.4181-3.0836-1.5792-1.6579-2.4057-3.538-2.4057-6.096 0-3.2333 1.277-5.9423 3.2321-7.7488 3.0098-2.7827 7.0734-3.3844 10.157-3.3844 4.9661 0 8.4254 1.2784 11.135 2.8588zm-37.312 3.6106c-0.0774-0.30086-0.60299-2.4069-2.181-3.9124-1.2047-1.1273-2.935-1.8801-5.1172-1.8801-2.7827 0-4.438 1.1285-5.4917 2.181-0.82769 0.90386-1.5792 2.1073-1.8801 3.6116zm10.006 6.4692h-25.052c0 1.8064 0.67789 4.2146 2.0324 5.719 1.6554 1.8039 3.9124 2.106 5.5666 2.106 1.5792 0 3.2359-0.30213 4.3632-0.97751 0.14853-0.0762 1.4294-0.90513 2.332-2.7839l10.232 1.0524c-1.5056 4.7376-4.5142 7.2207-6.4692 8.4267-3.2359 1.9549-6.8462 2.4818-10.607 2.4818-5.041 0-9.479-0.90259-13.39-4.815-2.9337-2.9337-5.041-7.3718-5.041-12.94 0-4.815 1.7278-9.779 5.1134-13.239 4.0635-4.0635 9.1046-4.8164 12.866-4.8164 3.7614 0 9.1782 0.67789 13.315 5.041 3.9874 4.2133 4.7402 9.4803 4.7402 13.616zm-77.034-18.656h10.834v3.9886c3.3095-4.2146 7.2207-4.8912 10.382-4.8912 2.9312 0 6.7713 0.52682 9.6304 3.3856 3.1597 3.1597 3.3831 7.1458 3.3831 9.8551v21.216h-10.832v-17.229c0-2.181-0.0749-4.9636-1.8052-6.6951-0.82769-0.82514-2.1822-1.5043-4.1371-1.5043-2.2584 0-3.6865 0.90386-4.5142 1.8064-1.8064 1.8052-2.106 4.2121-2.106 6.393v17.229h-10.834zm-32.047 0v18.508c0 1.5043 0.14979 3.8376 1.8813 5.4168 0.75151 0.67535 2.106 1.5792 4.5142 1.5792 2.0299 0 3.6091-0.67663 4.5879-1.5792 1.5817-1.5043 1.8052-3.7614 1.8052-5.4168v-18.508h10.834v19.56c0 3.8376-0.37703 7.448-3.7601 10.758-3.8376 3.7614-9.4803 4.3644-13.466 4.3644-4.1385 0-9.7047-0.603-13.543-4.3644-3.0836-3.0074-3.6865-6.393-3.6865-10.081v-20.237zm195.85 25.729c-4.8607 0-8.8164-3.9557-8.8164-8.8164 0-4.8595 3.9557-8.8152 8.8164-8.8152 4.8595 0 8.8138 3.9557 8.8138 8.8152 0 4.8607-3.9543 8.8164-8.8138 8.8164m-0.0469-26.795c-9.8685 0-17.897 8.0281-17.897 17.896 0 9.8704 8.0281 17.898 17.897 17.898s17.898-8.0281 17.898-17.898c0-9.8675-8.0293-17.896-17.898-17.896m-25.403 24.201c-1.6655 1.6617-3.882 2.5745-6.2331 2.5745-4.8697 0-8.8316-3.9595-8.8316-8.8291 0-4.8659 3.962-8.8291 8.8316-8.8291 2.3345 0 4.5332 0.90386 6.1988 2.5452l0.22343 0.22088 4.0216-8.5486-0.15233-0.1079c-3.0378-2.1517-6.6139-3.2892-10.339-3.2892-9.8856 0-17.927 8.0421-17.927 17.926 0 9.8866 8.0421 17.93 17.927 17.93 3.7157 0 7.2854-1.1361 10.32-3.2764l0.1536-0.10918-3.9671-8.4356z" fill="#0069b4"/>
  <path d="m86.729 61.89s0.0546 0.44051-0.49509 0.44051c-0.54841 0-0.54841-0.44051-0.54841-0.44051v-19.674s0-0.49635 0.49382-0.49635c0.54968 0 0.54968 0.49635 0.54968 0.49635v19.674m-21.924-36.667-26.214 8.0147-4e-3 2.3728 26.214-8.0166 26.22 8.0184v-2.3783zm-4e-3 3.6782-21.957 6.7093h6.3504l15.608-4.6731 15.606 4.6731h6.343zm-26.214 8.1244v2.1961h52.428v-2.1961zm3.0795 3.5406v21.323s-9.5e-4 1.6476 1.8652 1.6476c1.8699 0 1.761-1.6476 1.761-1.6476v-21.323h-1.3761v21.379s9.6e-4 0.38312-0.49278 0.38312c-0.49509 0-0.38492-0.49281-0.38492-0.49281v-21.27zm8.6284 0v22.971h1.0971v-13.809l1.3743 13.809h1.1548v-22.971h-1.1548v12.277l-1.3743-12.277zm8.738 0v22.971h3.5165v-1.2087h-1.9786v-10.385h1.4839v-1.2646h-1.4839v-8.9593h1.4839v-1.153zm9.837 0c-1.8128 0.0543-1.8131 1.6476-1.8131 1.6476v4.3979c0 2.8854 2.1422 7.7493 2.1422 9.9741v5.3034s-3.2e-4 0.43949-0.35704 0.41283c-0.35925-0.0276-0.35889-0.41283-0.35889-0.41283v-5.7702h-1.4262v5.7702s-0.0543 1.6476 1.7573 1.6476c1.8154 0 1.8149-1.6476 1.8149-1.6476s-9.5e-4 -3.8466-4e-3 -4.9687c-4e-3 -2.6951-2.1422-7.8366-2.1422-9.5381v-5.1696s-0.0537-0.49461 0.331-0.49461c0.38592 0 0.38493 0.49461 0.38493 0.49461v5.1659h1.43v-5.1659s0.0537-1.7022-1.7591-1.6476zm8.5726 0c-1.7569 0-1.7555 1.6476-1.7555 1.6476v19.676s-0.0599 1.6476 1.7555 1.6476c1.8128 0 1.8131-1.6476 1.8131-1.6476v-5.7702h-1.3723v5.7702s-2e-3 0.43891-0.44072 0.43891c-0.41257 0-0.49464-0.43891-0.49464-0.43891v-19.676s-4.5e-4 -0.49461 0.49464-0.49461c0.43924 0 0.44072 0.49461 0.44072 0.49461v5.1659h1.3723v-5.1659s-0.0548-1.6476-1.8131-1.6476zm8.7901 0c-1.9207 0-1.921 1.6476-1.921 1.6476v19.676s2.8e-4 1.6476 1.8131 1.6476c1.9232 0 1.9228-1.6476 1.9228-1.6476v-19.676s0.11084-1.6476-1.8149-1.6476zm-47.645 24.173v2.198h52.43v-2.198zm-2.9679 3.7377v2.1961h58.257v-2.1961zm-2.7466 3.7396v2.1943h63.863v-2.1943z" fill="#fff"/>
 </g>
</svg>
