<?xml version="1.0" encoding="utf-8"?>
<!-- Generator: Adobe Illustrator 22.1.0, SVG Export Plug-In . SVG Version: 6.00 Build 0)  -->
<svg version="1.1" id="Layer_1" xmlns="http://www.w3.org/2000/svg" xmlns:xlink="http://www.w3.org/1999/xlink" x="0px" y="0px"
	 viewBox="0 0 500 395.6" style="enable-background:new 0 0 500 395.6;" xml:space="preserve">
<style type="text/css">
	.st0{fill:none;stroke:#009edb;stroke-width:4;}
	.st1{fill:#009edb;}
</style>
<title>Asset 1</title>
<g id="Layer_2_1_">
	<g id="Layer_1-2">
		<path class="st0" d="M371.7,121.8c-17.7-50.1-65.5-86-121.6-86c-56.2,0-103.9,35.9-121.6,86"/>
		<path class="st0" d="M143.7,237.8c23.3,33.8,62.2,56,106.4,56s83.1-22.2,106.4-56"/>
		<path class="st0" d="M338.1,121.8c-15.9-32.6-49.4-55-88.1-55s-72.2,22.4-88.1,55"/>
		<path class="st0" d="M184.7,237.8c17.3,15.5,40.3,25,65.4,25s48-9.5,65.4-25"/>
		<path class="st0" d="M298.1,121.8c-11.8-13.2-29-21.5-48.1-21.5s-36.3,8.3-48.1,21.5"/>
		<polyline class="st0" points="177,237.8 134.9,279.9 177,237.8 		"/>
		<polyline class="st0" points="250,237.8 250,327.6 250,237.8 		"/>
		<polyline class="st0" points="323,237.8 365.1,279.9 323,237.8 		"/>
		<path class="st0" d="M104.5,237.8c26.8,53.3,81.9,89.8,145.6,89.8s118.8-36.6,145.5-89.8"/>
		<polyline class="st0" points="207,121.8 134.9,49.7 207,121.8 		"/>
		<path class="st0" d="M250,121.8V2C175,2,111.8,52.8,93,121.8"/>
		<polyline class="st0" points="293,121.8 365.1,49.7 293,121.8 		"/>
		<path class="st0" d="M407.1,121.8C388.3,52.8,325.1,2,250.1,2l0,0l0,0v119.8"/>
		<path class="st1" d="M468.1,260.2L468.1,260.2C468.2,260.1,468.2,260.1,468.1,260.2L468.1,260.2z"/>
		<path class="st1" d="M345.7,341.2c-4.1,0.9-7.9,2.2-12.3,1.5c3.5-2.2,8.1-2.5,12.2-4c22.8-8.6,26.3-33,38.8-49.8
			c-15.9,10.6-29.1,25.1-44,38.7c-10.3,9.5-23.3,13.5-36.7,16.3c3.2,1.2,7.4,0.9,10.9,1.8c24.1,6,50.7,15.4,76.3,6.9
			c16.5-5.5,33.7-18.4,42.1-34.7l-0.1,0.1C410.9,343,375,335,345.7,341.2z"/>
		<path class="st1" d="M397.1,312.7c-4.4,3.6-8.7,7-13.5,9.2l-0.2-0.2c5.3-4.8,11-10.5,15.1-16.4c13.1-19,8.7-45.1,18.8-65.2
			c-9.2,11-17.8,22.3-23.1,34.9c-8.5,20.2-11.4,43.3-30.5,58.7c20.6-6.8,44.5-5.5,63-17.6c19.5-12.8,37.6-33,41.4-55.8
			C454.4,291.2,420,293.6,397.1,312.7z"/>
		<path class="st1" d="M422.7,105.6c-3.1-2.9-5.5-6.4-7-10.3c1.1,9.1,3.6,17.9,7.6,26.2c0.1,0.1,0.1,0.3,0.2,0.4h16.1
			C434.3,116.2,428.2,110.9,422.7,105.6z"/>
		<path class="st1" d="M449.9,108.9c1.8-19.3,2.9-40.9-10.3-55.6l-0.1-0.1c-6.3-7-13.4-12.5-21.8-14.6C434,49.9,433.2,70,438.2,86.8
			c1.8,6.2,4.5,11.9,6,18.3l-0.4,0.3c-2.9-7.5-7.6-14.3-13.5-19.8c-11.5-10.9-28.8-17.4-34.5-33.3c0.3,22.1,19.1,38.9,36.3,51.8
			c6.4,4.8,11.8,10.9,15.9,17.7h1.9C449.5,117.5,449.5,113.2,449.9,108.9z"/>
		<path class="st1" d="M472.6,119.1L472.6,119.1c0-19.6-7.6-35.5-19-50.1c-0.3-0.2-0.6-0.5-1-0.4c10.3,15.7,4.4,34.8,2.9,53.2h17
			C472.6,120.9,472.6,120,472.6,119.1z"/>
		<path class="st1" d="M402.7,52.9c7.8,10.3,18.4,16.6,27.6,25.2c-4.9-10.3-5.9-22-12.1-31.9c-10.7-17-28.5-23.5-45-30l0,0
			C385.3,26.9,393.4,40.6,402.7,52.9z"/>
		<path class="st1" d="M437.8,261.8c-3,4.8-6,9.8-10.3,13.6c0.7-2.9,3.1-5.5,4.4-8.4c4.2-9.2,6.1-19.2,5.6-29.3h-14.8
			c-1.3,14-2.1,28.2-5.4,41.5c-1.5,6.2-5.3,11.6-7.6,17.5c11.8-9,27.2-16.9,40.1-27.1c11.2-8.8,21-19,27-31.8h-18.2
			C451,245.4,443.3,253,437.8,261.8z"/>
		<path class="st1" d="M445.7,241.7c0.7-1.3,1.5-2.6,2.3-3.9h-2.9c-0.2,1.6-0.4,3.3-0.6,4.9L445.7,241.7z"/>
		<path class="st1" d="M336.7,362.5c-19.8-8.2-39.9-19.1-62.4-19.1c-33.2,0-64.8,22.5-87,43.6l0,0c2.9,3.1,6.1,6,9.5,8.6
			c21.2-21.9,46.2-46.3,69.9-46.3c14.7,0,25.3,11.2,37.6,19.1c17.1,11,40.6,17.1,60.8,9.1c10.8-4.1,21.3-10.2,29.2-20
			C378.4,368.4,354.7,369.9,336.7,362.5z"/>
		<path class="st1" d="M185.5,345.7c3.5-0.9,7.7-0.6,10.9-1.8c-13.4-2.7-26.3-6.8-36.7-16.3c-14.9-13.6-28.1-28.1-44-38.7
			c12.5,16.8,16,41.2,38.8,49.8c4,1.5,8.7,1.8,12.2,4c-4.4,0.7-8.2-0.7-12.3-1.5C125.1,335,89.2,343,67.2,318l-0.1-0.1
			c8.4,16.4,25.6,29.3,42.1,34.7C134.8,361.1,161.4,351.7,185.5,345.7z"/>
		<path class="st1" d="M47.5,68.6c-0.4-0.1-0.7,0.2-1,0.4c-11.4,14.5-19,30.5-19,50v0.1c0,0.9,0,1.8,0.1,2.7h17
			C43.1,103.4,37.1,84.3,47.5,68.6z"/>
		<path class="st1" d="M68.1,104.1c17.2-13,36-29.7,36.3-51.8c-5.7,15.9-23,22.4-34.5,33.3c-5.9,5.5-10.5,12.3-13.4,19.8l-0.4-0.3
			c1.4-6.4,4.1-12.1,5.9-18.3c5-16.8,4.1-37,20.5-48.2c-8.4,2.2-15.5,7.6-21.8,14.6l-0.1,0.1C47.3,68,48.5,89.6,50.2,108.9
			c0.3,4.3,0.3,8.6,0,12.9h1.9C56.3,115,61.7,108.9,68.1,104.1z"/>
		<path class="st1" d="M31.9,260.1L31.9,260.1C31.9,260.2,31.9,260.2,31.9,260.1L31.9,260.1z"/>
		<path class="st1" d="M69.8,78.1c9.2-8.6,19.8-14.9,27.6-25.2c9.3-12.3,17.4-26,29.6-36.7v-0.1c-16.5,6.5-34.3,13-45,30
			C75.7,56.1,74.7,67.8,69.8,78.1z"/>
		<path class="st1" d="M73.3,316c18.5,12.2,42.4,10.8,63,17.6c-19.1-15.4-22-38.5-30.5-58.7c-5.2-12.6-13.8-23.9-23-34.9
			c10.1,20.1,5.7,46.2,18.8,65.2c4.1,6,9.8,11.7,15.1,16.4l-0.2,0.2c-4.8-2.2-9.1-5.6-13.5-9.2c-22.9-19.1-57.3-21.5-71.1-52.5
			C35.7,283,53.8,303.2,73.3,316z"/>
		<path class="st1" d="M76.8,121.4c4-8.3,6.5-17.1,7.6-26.2c-1.5,3.9-3.9,7.5-7,10.3c-5.6,5.3-11.6,10.6-16.9,16.3h16.1
			C76.7,121.7,76.7,121.5,76.8,121.4z"/>
		<path class="st1" d="M225.8,343.4c-22.5,0-42.6,10.9-62.4,19.1c-17.9,7.4-41.6,5.9-57.5-5c7.9,9.8,18.4,15.9,29.2,20
			c20.1,8,43.7,1.8,60.8-9.1c12.3-7.9,22.9-19.1,37.6-19.1c23.7,0,48.6,24.4,69.9,46.3c3.4-2.6,6.6-5.5,9.5-8.6l0,0
			C290.5,365.9,259,343.4,225.8,343.4z"/>
		<path class="st1" d="M68.2,267.1c1.3,2.9,3.7,5.4,4.4,8.4c-4.3-3.9-7.3-8.8-10.3-13.6c-5.4-8.8-13.2-16.4-20.7-24H23.3
			c6,12.8,15.9,23,27,31.8c12.9,10.2,28.3,18.2,40.1,27.1c-2.3-5.9-6.1-11.3-7.6-17.5c-3.3-13.2-4.1-27.4-5.4-41.4H62.6
			C62.1,247.9,64,257.9,68.2,267.1z"/>
		<path class="st1" d="M55.6,242.7c-0.2-1.6-0.4-3.2-0.6-4.9h-2.9c0.8,1.3,1.6,2.6,2.3,3.9L55.6,242.7z"/>
		<path class="st1" d="M279.8,11.1l-1.6,1l-1.1-0.7l-0.5,0.9l1.3,0.8l0.3,0.2l0.3-0.2l1.8-1.1L279.8,11.1 M287.4,15.2l-1.3,1.1
			l-0.9-0.9l-0.7,0.7l1.2,1.2l0.3,0.3l0.3-0.3l1.7-1.4L287.4,15.2 M276,18.1c-0.8-0.1-1.9,0.3-2,0.7c-0.2,0.7-1.2,0.8-1.2,0.8
			L269,20c-0.3,1-2.3,1.7-2.5,1c-0.4-1.5-2.5,1.9-0.3,2.5c1.4,0.4,2.9,0.4,4.3,0l0.5-1l8.3,0.2c0.4-0.5,0.8-1.1,1-1.7
			c0,0,2-0.7,2.8-0.3s0.2-2.4-0.7-2c-0.8,0.2-1.7,0.3-2.5,0.2h-3C276.9,18.4,276.5,18.2,276,18.1 M261.1,21.5l-2.2,0.8l-2.3,1.5
			l-2.5,0.3l-1.3,1.5l5.3,0.5l1,1.7l3.8,0.3l2.5,2.5c2.2,0.7,2.7-0.3,1.3-1.5l-2.2-2.2V25l-0.7-0.7l-0.7-2.4L261.1,21.5 M327.2,41.9
			c-1.4,0-3.3,0.9-3.1,1.9c0.3,1,1.1,1.8,2.2,2l2.5,0.8c0,0,3.1,3.7,3,1.8c-0.3-5.1-2.7-5.2-3.5-6.2C328,42,327.7,41.8,327.2,41.9
			 M250.1,42.8c-0.2,0-0.3,0.2-0.4,0.6c-0.2,1.7-1.2,1.7-1,2.9s0.7,3,1.3,3.2c2.6,0.8,3.5,0.2,3.7-0.5s0.3-0.8,1.3-1
			c1-0.2-0.2-2.2-1.2-2c-0.9,0.2-1.9-0.3-2.2-1.2C251.6,44.2,250.6,42.8,250.1,42.8 M275.2,43.9l-0.7,1.5l0.9,0.4l0.7-1.5
			L275.2,43.9 M319,45.5l-0.5,0.8l-3.2,0.2l-0.2,1c-1.7,0.8-8.3,0.2-8.5,0.7c-0.5,1.5-0.7,3.5-1.5,3.5s-0.5,2.2-0.5,2.2
			c0.9,0,1.9,0,2.8,0.2c0.7,0.2,0.7,1.8,0.7,1.8c2.5-0.2,3.5,3.2,3.2,4s1,0.8,1,0.8c0,1.2-0.1,2.3-0.4,3.4c-0.3,0.7,2.2,1.2,2.8,2.2
			s-0.3,4.4-0.8,4.6s1.3,0.7,1.2,1.5s0.5,0,0.7,1.4s0.5,4.2,0.5,4.2l2.3,0.2c0.3-2.2,4.6-2.3,5.3-2c2.8,1,5,5.4,5,6.4
			s-1.8,1.2-1.8,1.2l0.3,4.9c2.8,0.8,5.1,4.9,4.8,5.6s2,0.5,2,0.5c0.3-3,3.2-2,3.3-1s0.7,3.2,0.7,3.2l0.8,1.5l1.2,1.2l1.8-0.2l0.5,1
			l2.2,0.3c0.7,0.8,1.4,1.6,2,2.5c0.2,0.5,2.7,0.3,3.3,0.5s1.7,0.7,1.8,1.5c0.3,0.8,0.7,1.5,1.2,2.2c0,0,2,0.5,2.2,1.2
			c0.3,0.8,0.6,1.5,1,2.2l1.7,1.3l0.2,1.5l1.8,0.2l0.5,2l3-0.2l1.7-1.2c2.2-1.2,3.6-2.7,3.8-3.4s0.5-3.2,2.2-2.7s0.5-3.7,0.5-3.7
			s-2.3-1.7-2.2-2.5s-2.3-2.5-2.2-3.2s-2.2-2-2-2.7s-1.2-2.5-1.2-2.5l-2.5-2.4l-0.4-1.5l-2-0.2l-4-4.9l0.2-1.3l-1.2-0.2v-1.9
			l-1.2-0.7l-1.8-0.2l-3.7-4l-0.3-1.8h-1.8l0.3-3.6c1.2-1.5,0.5-4.4,0.5-4.4s-2.3,1.2-3.5,0.7s0.5-1.7,0.5-1.7v-1.4l-1-1
			c0,0-2.8,0.3-3-0.2s-0.7-2.7-0.7-2.7l-0.2-2.9L337,57l-0.2-1l-1.8,0.2v-2l-1-0.3l-1-0.5l-0.2-2l-3.6-0.2l-1.2-1.7l-1.3-2l-4.1-0.3
			l-1-1l-1.6-0.4L319,45.5 M278.3,45.6c-0.1-0.1-1,1.2-1.7,1.6c0.8,0.4,1.9,1,1.9,1c1-0.1,1.9,0.6,2.2,1.5c0,0.5,1.8,0.3,1.8,0.3
			l0.2-1.2l-1.3-1.7l-1.2-0.8C280.1,46.3,278.3,46.1,278.3,45.6L278.3,45.6 M276.6,47.1c-0.8-0.4-1.3-0.6-0.5,0
			C276.3,47.2,276.4,47.2,276.6,47.1 M271,46.7l-0.1,1l1.4,0.2l1,1.6l0.8-0.5l-1.1-1.8l-0.1-0.2h-0.2L271,46.7 M232.6,50.9
			c-0.9,0-1.7,0.2-1.7,0.5c0.2,0.8,1.5,1.8,1.5,1.8s2.5,0.2,2.7,0.7s1.8,0.7,2,0.2s0.8-1.5-0.7-1.5s-1.2-0.8-1.7-1.3
			C234,50.9,233.3,50.8,232.6,50.9 M274.8,52.6v1.5l1.8,0.2l-0.5-1.4L274.8,52.6 M282.9,60.4c-0.2,0-0.3,0.1-0.3,0.2
			c0,0.5,0.7,0.5,1,1.5s0.2,2.7,1.7,3s1.8,0.7,2,1.3s2,0.8,2,0.8l1.3,0.7l4,3.4V70c0,0-0.2-1.3-1-1.3s-2.3-1-2-1.7s-2.8-1.3-2.8-1.3
			S286,63,287,63.3s0.5-1.2,0.5-1.2c-0.8,0.2-1.7,0.2-2.5,0.2c-0.5-0.2-0.3-1.7-0.3-1.7C284,60.5,283.5,60.4,282.9,60.4 M191.5,61.7
			l-0.7,0.7l1,1l0.7-0.7L191.5,61.7 M302.5,69.1c-0.2,0-0.4,0.2-0.5,0.4c-0.3,1-1,1.7,0,2.2s0.8-0.8,2,0.3s3.3,2.7,2.5,3.7
			c-0.5,0.6-1.1,1-1.8,1.3l1.2,1.3h1.8l0.3,2.9c0,0,2,1,2.5,2.2s0.5,1.9,0,2.5s-1.5,1.9-1.3,3c0.2,0.8,0.8,1.4,1.5,1.7l1.3,0.2
			l1,0.5v2.2c1.3-0.3,3.5,1.5,3.3,2.7s0.3,0.5,2,1.7s1.2,1.3,2.3,2.2s2.2,0.3,2.7-1.2l1.2-3.7c-1.7-0.3-1.3-2.2-1.3-2.2
			c-0.2-1.5-2.5-3.2-3.3-2.7s-0.5-3.6-0.5-3.6s1.5-1,2.2-0.5s-5.6-8.4-7-7.6s-4.3-0.8-4.1-2.4s-6-6.6-6-6.6
			C303.8,69.3,303.1,69.1,302.5,69.1 M299.2,72.7c0,0-0.2,1.3-1.3,0.8s-0.5-0.3-1.5-0.5s-0.7,2.2-0.5,2.9c0,0-0.7,2.4-0.8,3.4
			s2,1,2.7,0.8s1.8-2.4,1.5-3.6s1.3-1.7,2.2-0.3l1.7-0.2l0.3-1.5l-2.3-1.8L299.2,72.7 M221.7,93.2l-0.6,0.8l1,0.8l0.6-0.8
			L221.7,93.2 M217.9,93.9l0.2,1.9h2.5c1,0-0.8-1.2-0.8-1.2S217.7,94.7,217.9,93.9 M328.4,94.2l-1,0.1l0.2,1.5l1-0.1L328.4,94.2
			 M327,98.6l-2.1,1.4l-2.2,2.9c0,2.2,1.2,1.2,2.2,1.2s-0.3,3.9,2.3,3.5s0.2,1.2,2.2,1.3s1.5-1.5,2.2-2.7s0.3-1.8-0.8-2.2
			s-1.2-0.3-1.5-1.7c-0.2-0.8-0.9-1.5-1.7-1.7L327,98.6 M335.4,100.7c-0.2,0-0.4,0.2-0.4,0.5c0,0.7,0.8,1,0.5,1.9
			c-0.2,0.6,0,1.2,0.6,1.4c0.1,0.1,0.3,0.1,0.4,0.1c0.7,0.1,1.3,0.3,1.8,0.7c0.7,0.4,1.2,0.9,1.7,1.5l1.7-0.5c0,0,0.2-1.7-0.5-1.2
			s-1.2-1.2-1.8-1s-1-0.7-1.7-1.5s-0.5-1-1.3-1.5C336,100.8,335.7,100.7,335.4,100.7 M340.3,108.1l-2,0.2c0.5,0.7,1.5,1.2,1.5,1.9
			s-0.3,1.2,0.7,1.3s1.7-0.2,2,0.7c0.3,0.9,0.4,1.9,0.2,2.9c-0.2,0.7,0.2,1.7,1,1.7s1,0.2,1,0.7s1-1.9,1-1.9
			c-0.6-0.6-1.1-1.4-1.5-2.2c-0.3-0.9-0.6-1.8-0.8-2.7c0-0.3-1.2-0.7-1.7-0.8S340.3,108.1,340.3,108.1 M324.5,108.8l-1.7,0.2l0.1,1
			l1.7-0.2L324.5,108.8 M325.6,110v0.8h1V110H325.6 M337,110.2c0,0-1.8,0.3-1.7,1.3s-2.7,1-4,1.7l1.3,1.8l0.5,1.7l4-0.2
			c0,0-1.2-0.8,0.7-1.3c0.4-0.2,0.9-0.2,1.3-0.3l-0.1-1.8l-1.5-1L337,110.2 M339.2,115L339.2,115C339.2,115,339.3,114.9,339.2,115
			 M324.2,111.6c-0.7,0.9-2,1.1-3,0.7c0,0-0.3,3.2-1.3,3.9h-2.3c0.3,0.5,0.6,0.9,1,1.3c0.5,0.5,1.7,1.5,0.5,2.2s0.2,0.5,0.2,0.5
			c0,0.5-0.1,1.1-0.2,1.6h1.7c-0.5-0.7,1-0.9,1.2-0.9s1.8-1.2,1.2-2s0-2.4,0-1.7s1.8,1,2.2,0.5c0.3-0.9-0.1-1.9-0.8-2.5
			c-0.8-0.5,1.5-0.8,0.8-1.7C324.8,112.9,324.4,112.3,324.2,111.6 M327.5,116.7v1.2h1v-1.2H327.5 M329.8,117.3l-0.5,1l0.9,0.4l0.5-1
			L329.8,117.3 M335.4,117.5c-0.8,0.1-1.5,0.6-1.9,1.4l-2.7,0.3v2.6H342l-0.8-1.6H339h-0.1h0.1c0.1-0.1-0.1-0.4-1.6-1.9
			C336.9,117.8,336.2,117.5,335.4,117.5 M288.3,117.9c-0.3,0-0.5,0.1-0.4,0.5c0.2,1-1.2,1.5-1.5,1.2s-1.3,1-1.3,1
			c0,0.4-0.2,1,0.3,1.2h1.9c0.4-0.1,0.7-0.1,1.1,0h12.9c-0.7-0.9-1.6-1.6-2-1.2c-0.8,0.7-1,0-2.5,0.5s-4.7,0.2-4.8-0.5
			s-2.5-1-2.5-1.7C289.4,118.5,288.7,118,288.3,117.9 M346,118.6c-0.4,0.1,0.3,2-0.1,2.3c-0.3,0.3-0.6,0.6-0.8,0.9h2.4
			c0-0.4,0-0.7-0.1-1.1c-0.3-0.7-0.3-1.5-1.2-2C346.2,118.7,346.1,118.6,346,118.6 M115.4,237.9l1,2.7l0.7,1.5l1.3,1.9l1.8,1.7
			l0.7-1.2l-1.1-2.5l-1.2-0.9l-0.8-2.4l-1.8-0.9L115.4,237.9 M131.5,237.9c0.3,0.2,0.7,0.4,1,0.5l2.3-0.2c0-0.1,0-0.2,0-0.4
			L131.5,237.9 M136.1,237.9c0.5,0.4,0.9,1,1.1,1.7c0,1,4.5,4.9,4.5,4.9l4.5,1l4.2,3.4l3.2-0.3h1.3c0.8-2.9,4.8,0.2,5.1,1.2
			s3,2.7,3.3,1.9s2.2-0.3,2.5,2.2s1.5,2,1.5,2l9.5-0.2l3.3-2.9l8.5-0.2c4.3-0.2,1.7-6.1,0.8-6.1c-1.5-1.2,0.5-6.1,0.5-6.1l-2.7-2.5
			L136.1,237.9 M227.8,237.9l-0.1,0.7l-1,0.7v1.5l-1.2,0.3v0.8l-1.7,0.2l1,2.5l1.3,0.7c2.3,0.3,1.3,3.2,1.3,3.2l1.3,0.2l0.7,1.9
			l1.3,2.7c0.5,2,2,1.5,2.7,1.4s1.3,2,1.3,2l6.6,0.2c0,0-0.3,0.7,0.8,1s8.8,0.7,9.1,0.2c-0.3-1.5,4.1-1.9,6-0.5
			c1.3,0.8,2.9,1,4.3,0.5l2.5,3l1.7,3.7l2.8,0.8l2,0.5l0.7,2.9l1.5,0.2l0.5,1.9c1.8,1.4-0.5,4.2-0.5,4.2v3.7l1.3,0.7l-0.2,1.4
			l2.2,2.2l2.5,0.2l6.4,6.8l5,1.5l0.8,2.7l1.3-0.2l1-0.8l4-0.2l2-1.9l2.2-0.3l18.5-15.7l-1.7-1v-3.7c3-2.2,3.2-6.1,0.3-6.4
			c-2.1-0.2-1.2-2.5,0.8-2.9l1.2-0.5v-1.5l3.8-3.5v-2.7l-8.3-6.9c-2.8-1-1.4-5.9,0.5-8.1L227.8,237.9 M335.8,238.5
			c0,0-0.1,0-0.1,0.1c-0.3,0.7-2.5,0.2-2.5,0.8s-1.3,4-0.7,5.2s-0.5,1.2-0.7,2.4s-1.8,3.2-1.5,4.2l1.5,0.7l0.2,2.9
			c2,2,8.5,0.3,8.5-0.2s-0.3-6.2-0.3-6.2l-0.8-0.8l-0.2-4.2C339.8,241.2,336.5,238.3,335.8,238.5 M327.2,244c-0.2,0-0.5,0.2-0.5,0.4
			c-0.3,1.3-1.5,2-2.2,1.5s0.8,0.8,1.2,1.5c0.3,0.5,0.9,0.6,1.4,0.3c0.1-0.1,0.2-0.2,0.3-0.3c0.3-0.7,0.2-2.2,0.5-2.9
			C328.1,244.2,327.6,243.9,327.2,244 M225.5,266.6l-1,0.8l-0.5,0.4l0.5,0.4l1.2,0.8l0.6-0.8l-0.6-0.5l0.5-0.4L225.5,266.6
			 M237.4,278.7l-0.4,0.9l1,0.5l-0.3,0.4l0.7,0.7l0.8-0.9l0.5-0.5l-0.6-0.3L237.4,278.7 M153.1,287.3l1.3,2l0.2,1.5l1.7,0.5l0.7,1
			l1.2-0.7l-0.8-2.2l-2.2-1.9L153.1,287.3 M410.6,179.4c0-15.6,5.1-32.4,21.2-32.3c17.7,0.2,22.1,16.7,22.1,32.3
			s-4.4,33.3-22.1,33.3C414.6,212.7,410.6,194.1,410.6,179.4 M431.8,234.8c34.3,0.2,51.9-25,51.9-55.4s-18.7-54.6-51.9-54.6
			S380,149.1,380,179.5S398.8,234.8,431.8,234.8 M306.4,149.7h9c18.7,0,29,10,29,29.1c0,21.1-8.2,29.2-29,29.6h-9V149.7z M276.6,232
			h45.3c31.9,0,51.8-18.5,51.8-53c0-32.6-19.5-51.4-51.8-51.4h-45.2L276.6,232 M232.7,127.6h29.6v103.9h-29.6L232.7,127.6z
			 M123.8,127.4h40.8l28.8,67l-0.2-66.5l25.4-0.2v103.5h-38.2l-28.8-64.8V231h-27.8V127.4 M109.6,188.5c0,30.5-15.1,45.6-47,45.6
			S16,219,16,188.5v-61h29.1v62.6c0,13.5,4.5,21.4,17.9,21.4s18.3-7.8,18.3-21.4v-62.8h28.4L109.6,188.5"/>
	</g>
</g>
</svg>
