<?xml version="1.0" encoding="utf-8"?>
<!-- Generator: Adobe Illustrator 22.1.0, SVG Export Plug-In . SVG Version: 6.00 Build 0)  -->
<svg version="1.1" id="Layer_1" xmlns="http://www.w3.org/2000/svg" xmlns:xlink="http://www.w3.org/1999/xlink" x="0px" y="0px"
	 viewBox="0 0 579.3 131.9" style="enable-background:new 0 0 579.3 131.9;" xml:space="preserve">
<style type="text/css">
	.st0{fill:#009edb;}
	.st1{fill:none;stroke:#009edb;stroke-width:2;stroke-miterlimit:10;}
</style>
<title>Asset 1</title>
<g id="Layer_2_1_">
	<g id="Layer_1-2">
		<path class="st0" d="M258,19.5V80c0,10.4-3.4,18.6-10.4,24.4c-6.9,5.9-15.9,8.8-26.9,8.8c-11,0-19.9-2.9-26.7-8.8
			s-10.2-14-10.2-24.4V19.5h18.6V80c0,6.2,1.7,10.9,4.9,14.2c3.3,3.3,7.8,4.9,13.4,4.8c5.7,0,10.2-1.6,13.6-4.9c3.3-3.3,5-8,5-14.2
			V19.5H258z"/>
		<path class="st0" d="M348.8,111.9h-18.5L293,49.6l-0.4,0.1v62.3h-18.5V19.5h18.5l37.3,62.3l0.4-0.1V19.5h18.5L348.8,111.9z"/>
		<path class="st0" d="M385.6,111.9h-18.5V19.5h18.5V111.9z"/>
		<path class="st0" d="M463,73.5h-39.5v38.4H405V19.5h64.5v14.7l-46-0.4v25.5H463V73.5z"/>
		<path class="st0" d="M500.1,111.9h-18.5V19.5h18.5V111.9z"/>
		<path class="st0" d="M538,97.7h41.4v14.2h-60V19.5H538V97.7z"/>
		<circle class="st1" cx="77.5" cy="55.2" r="11.1"/>
		<circle class="st1" cx="77.5" cy="55.2" r="21.4"/>
		<circle class="st1" cx="77.5" cy="55.2" r="32.6"/>
		<circle class="st1" cx="77.5" cy="55.2" r="42.9"/>
		<circle class="st1" cx="77.5" cy="55.2" r="54.2"/>
		<line class="st1" x1="77.5" y1="44.4" x2="77.5" y2="0.8"/>
		<line class="st1" x1="77.5" y1="109.4" x2="77.5" y2="65.8"/>
		<line class="st1" x1="88.5" y1="55.2" x2="132" y2="55.2"/>
		<line class="st1" x1="23" y1="55.2" x2="66.5" y2="55.2"/>
		<line class="st1" x1="85" y1="47.7" x2="115.8" y2="16.9"/>
		<line class="st1" x1="69.9" y1="47.7" x2="39.2" y2="16.9"/>
		<line class="st1" x1="69.9" y1="62.7" x2="39.2" y2="93.5"/>
		<line class="st1" x1="85" y1="62.7" x2="115.8" y2="93.5"/>
		<path id="Laurel" class="st0" d="M36.6,5.7c-5.5,2.2-11.4,4.3-15,10c-2.1,3.3-2.4,7.2-4,10.6c3-2.9,6.6-5,9.2-8.4
			C29.9,13.8,32.6,9.3,36.6,5.7L36.6,5.7z M118.3,5.7c4,3.6,6.7,8.1,9.8,12.2c2.6,3.4,6.1,5.5,9.2,8.4c-1.6-3.4-2-7.3-4-10.6
			C129.8,10,123.9,7.9,118.3,5.7L118.3,5.7z M21.8,13.2c-2.8,0.9-5.4,2.6-7.2,4.9c-4.4,4.9-4,12.1-3.4,18.5c0.2,1.9,0.1,3.8-0.1,5.7
			c1.4-2.8,3.5-5.3,6.1-7.2c5.7-4.3,12-9.9,12.1-17.2c-1.9,5.2-7.6,7.4-11.5,11c-2,1.8-3.5,4.1-4.5,6.6L13,35.3c0.5-2.1,1.4-4,2-6.1
			C16.7,23.6,16.4,16.9,21.8,13.2L21.8,13.2z M133.2,13.2c5.4,3.7,5.1,10.4,6.8,16c0.6,2,1.5,4,2,6.1l-0.1,0.1
			c-1-2.5-2.5-4.8-4.5-6.6c-3.8-3.6-9.6-5.8-11.5-11.1c0.1,7.3,6.3,12.9,12.1,17.2c2.6,1.9,4.6,4.4,6.1,7.3
			c-0.3-1.9-0.3-3.8-0.1-5.7c0.6-6.4,1-13.6-3.4-18.5C138.5,15.7,136,14.1,133.2,13.2L133.2,13.2z M10.2,23.2
			c-0.1,0-0.2,0.1-0.3,0.1C6.1,28.2,3.5,33.5,3.5,40c0,8,4.6,13.6,5.2,21.2c1.2-7.9,7.8-13.5,11.3-20.4c1.3-2.8,2.1-5.7,2.5-8.8
			c-0.5,1.3-1.3,2.5-2.3,3.4c-4.4,4.2-9.7,8.4-10.7,14.3c-0.1,0.9-0.3,1.7-0.5,2.6c-0.2,0.1-0.2-0.1-0.3-0.2l0.6-7.4
			C9.8,37.6,6,29.5,10.2,23.2L10.2,23.2z M144.8,23.2c4.2,6.4,0.4,14.4,0.9,21.6l0.6,7.4c-0.1,0.1-0.1,0.3-0.3,0.2
			c-0.2-0.8-0.4-1.7-0.5-2.5c-1-6-6.2-10.1-10.7-14.3c-1-1-1.8-2.2-2.3-3.5c0.3,3,1.2,6,2.5,8.8c3.4,6.9,10,12.5,11.2,20.4
			c0.6-7.5,5.2-13.1,5.2-21.2c0-6.5-2.5-11.8-6.3-16.6C145,23.3,144.9,23.2,144.8,23.2L144.8,23.2z M2.1,43.2
			c-0.8,1.9-1.4,3.9-1.7,6c-1,5.2,0,10.8,1.4,15.6c1.8,6,7.7,10.3,10.7,15.9l0.4,0.3c-0.6-3-0.5-6.1,0.2-9.1c1.3-4.6,2.9-9,3.8-13.8
			c0.7-3.7,1.4-7.8,1-11.4c-0.4,1.9-1.1,3.8-2.1,5.5c-4,6.2-8.1,13.5-5.3,21.4c-0.1,0.1-0.1,0.2-0.3,0.1c-1.1-2.6-1.4-5.6-2.1-8.4
			C6.1,58,0.4,51.8,2.1,43.2z M152.9,43.2c1.7,8.6-4,14.8-6,22.2c-0.7,2.8-1,5.8-2.1,8.4c-0.1,0.1-0.2-0.1-0.3-0.1
			c2.8-7.9-1.3-15.2-5.3-21.4c-1-1.7-1.7-3.5-2.1-5.5c-0.4,3.6,0.3,7.7,1,11.4c0.9,4.8,2.5,9.2,3.8,13.8c0.7,3,0.8,6.1,0.2,9.1
			l0.4-0.3c3-5.5,8.9-9.8,10.7-15.9c1.4-4.8,2.4-10.4,1.4-15.7C154.2,47.1,153.7,45.1,152.9,43.2L152.9,43.2z M16.9,64.6
			c0.7,4.9-1.2,9.2-1.6,13.8c-0.4,3.7,0.3,7.4,1.8,10.7c0.6,0.9,1.1,1.8,1.5,2.8c-1.4-1.3-2.5-2.9-3.4-4.5
			C10.5,79.9,0.8,75.1,0.1,66c-0.4,4,0.1,8.1,1.4,11.9c1.9,5,5.5,8.8,9.6,12.1s9.4,6,13.3,9c-0.8-1.9-2-3.7-2.5-5.8
			C19.6,83.9,20.9,73.2,16.9,64.6L16.9,64.6z M138,64.6c-4,8.6-2.7,19.3-5,28.6c-0.5,2.1-1.8,3.8-2.5,5.8c3.9-3,9-5.6,13.3-9
			s7.8-7.1,9.6-12.1c1.3-3.8,1.8-7.9,1.4-11.9c-0.7,9.1-10.4,14-15,21.4c-0.9,1.7-2.1,3.2-3.4,4.5c0.4-1,0.9-1.9,1.5-2.8
			c1.5-3.4,2.1-7.1,1.8-10.7C139.2,73.8,137.3,69.5,138,64.6L138,64.6z M21.9,80.1c3.4,6.7,1.9,15.4,6.3,21.7c1.5,2,3.1,3.8,5,5.5
			l-0.1,0.1c-1.6-0.8-3.1-1.9-4.5-3.1C21,98,9.6,97.2,5,86.8c1.2,7.6,7.3,14.3,13.8,18.5c6.2,4,14.1,3.6,21,5.9
			c-6.3-5.1-7.3-12.8-10.1-19.5C27.9,87.6,25,83.8,21.9,80.1L21.9,80.1z M133.1,80.1c-3.1,3.7-5.9,7.4-7.7,11.6
			c-2.8,6.7-3.8,14.4-10.1,19.5c6.9-2.3,14.8-1.8,21-5.9c6.5-4.2,12.5-11,13.8-18.6c-4.6,10.3-16,11.1-23.6,17.5
			c-1.4,1.2-2.9,2.2-4.5,3.1l-0.1-0.1c1.9-1.6,3.5-3.5,5-5.5C131.2,95.5,129.7,86.8,133.1,80.1L133.1,80.1z M32.9,96.5
			c4.2,5.6,5.3,13.7,12.9,16.5c1.3,0.5,2.9,0.6,4,1.3c-1.4,0.1-2.8-0.1-4.1-0.5c-9.8-2.1-21.7,0.6-29-7.7c2.8,5.4,8.5,9.7,14,11.5
			c8.5,2.8,17.4-0.3,25.4-2.3c1.2-0.3,2.5-0.2,3.6-0.6c-4.5-0.9-8.7-2.3-12.2-5.4C42.5,104.8,38.2,100,32.9,96.5L32.9,96.5z
			 M122.1,96.5c-5.3,3.5-9.7,8.3-14.6,12.9c-3.4,3.2-7.7,4.5-12.2,5.4c1.1,0.4,2.5,0.3,3.6,0.6c8,2,16.9,5.1,25.4,2.3
			c5.5-1.8,11.2-6.1,14-11.5c-7.3,8.3-19.2,5.7-29,7.7c-1.3,0.4-2.7,0.6-4.1,0.5c1.2-0.7,2.7-0.8,4-1.3
			C116.8,110.2,117.9,102,122.1,96.5L122.1,96.5z M69.5,114.6c-7.5,0-14.2,3.6-20.8,6.3c-6,2.5-13.8,2-19.1-1.7
			c2.6,3.1,5.9,5.4,9.7,6.7c6.7,2.7,14.5,0.6,20.2-3c4.1-2.6,7.6-6.3,12.5-6.3c0.9,0,1.7,0.1,2.6,0.3c-6.9,2.8-13.1,7.6-18,12.2
			c1,1,2,2,3.2,2.9c5.4-5.6,11.6-11.7,17.7-14.2c6.1,2.5,12.3,8.6,17.7,14.2c1.1-0.9,2.2-1.8,3.2-2.9c-4.9-4.7-11.1-9.5-18-12.2
			c0.9-0.2,1.7-0.3,2.6-0.3c4.9,0,8.4,3.7,12.5,6.3c5.7,3.6,13.5,5.7,20.2,3c3.8-1.3,7.1-3.6,9.7-6.7c-5.3,3.6-13.2,4.1-19.1,1.7
			c-6.6-2.7-13.3-6.3-20.8-6.3c-2.7,0-5.4,0.4-8,1.2C74.9,115,72.2,114.6,69.5,114.6z"/>
		<path class="st0" d="M87.9,16.1l-0.4-0.3c0,0-0.6-0.1-0.6-0.2l0,0l0,0c0,0-0.3,0.4-0.6,0.5l0.6,0.3c0.3,0,0.6,0.2,0.7,0.5
			c0,0.2,0.6,0.1,0.6,0.1l0.1-0.4L87.9,16.1z"/>
		<path class="st0" d="M107.2,38.6L107.2,38.6L107.2,38.6C107.2,38.6,107.2,38.6,107.2,38.6z"/>
		<path class="st0" d="M86.2,16.1c0,0,0.1,0,0.1,0C86.1,15.9,85.9,15.9,86.2,16.1z"/>
		<polygon class="st0" points="85.7,17.9 85.7,17.9 85.7,18.4 86.3,18.4 86.2,18 		"/>
		<polygon class="st0" points="85.1,16 85,16 84.5,15.9 84.4,16.2 84.9,16.3 85.3,16.8 85.5,16.6 85.1,16 		"/>
		<path class="st0" d="M92,23.2c-0.3,0-0.8-0.3-0.7-0.6s-0.9-0.4-0.9-0.4s-0.9-0.9-0.6-0.8S90,21,90,21c-0.3,0-0.6,0.1-0.8,0.1
			C89,21,89,20.5,89,20.5c-0.2-0.1-0.4-0.1-0.6-0.1l0,0c-0.1,0-0.1,0-0.1,0.1s0.2,0.2,0.3,0.5s0.1,0.9,0.6,1s0.6,0.2,0.7,0.4
			s0.7,0.3,0.7,0.3L91,23l1.3,1.1v-0.4C92.3,23.7,92.2,23.2,92,23.2z"/>
		<path class="st0" d="M102.9,15.6l0.8,0.3c0,0,1,1.2,1,0.6c0-0.9-0.4-1.7-1.2-2.1c-0.1-0.1-0.2-0.1-0.3-0.1l0,0
			c-0.4,0-1.1,0.3-1,0.6C102.2,15.3,102.5,15.5,102.9,15.6z"/>
		<path class="st0" d="M106,34.6c-0.1,0.2,0,0.4,0.2,0.5c0,0,0.1,0,0.1,0c0.2,0,0.4,0.1,0.6,0.2c0.2,0.1,0.4,0.3,0.6,0.5l0.6-0.2
			c0,0,0.1-0.6-0.2-0.4s-0.4-0.4-0.6-0.3s-0.3-0.2-0.6-0.5s-0.2-0.3-0.4-0.5c-0.1-0.1-0.2-0.1-0.3-0.1l0,0c-0.1,0-0.1,0.1-0.1,0.2
			C105.8,34.2,106.1,34.3,106,34.6z"/>
		<polygon class="st0" points="86.2,15.1 85.8,15 85.8,15 85.6,15.5 85.9,15.6 		"/>
		<path class="st0" d="M107.6,36.3L107.6,36.3l-0.7,0.1c0.2,0.2,0.5,0.4,0.5,0.6s-0.1,0.4,0.2,0.4s0.6-0.1,0.7,0.2
			c0.1,0.3,0.1,0.7,0.1,1c-0.1,0.2,0.1,0.6,0.3,0.6s0.3,0.1,0.3,0.2s0.3-0.6,0.3-0.6c-0.2-0.2-0.4-0.5-0.5-0.7c0,0-0.3-0.8-0.3-0.9
			S108.2,37,108,37C107.8,36.8,107.7,36.5,107.6,36.3z"/>
		<polygon class="st0" points="103.6,32.2 103.6,31.7 103.6,31.7 103.3,31.7 103.3,32.2 		"/>
		<polygon class="st0" points="110.7,49.7 111,49.9 111.1,49.6 110.8,49.4 		"/>
		<path class="st0" d="M109.4,40.6c-0.2,0.1-0.3,0.3-0.4,0.5s0.3,0.4,0.3,0.6s0.1,1,0.1,1s0.4,0.2,0.4,0.4s0,0.7,0.2,0.7
			s0.5,0.3,0.4,0.5c-0.1,0.2-0.1,0.4-0.1,0.7l0.2,0.5l0.4,0.3c0,0,0.2-1.3-0.1-1.4s-0.2-0.8-0.2-0.8s0.3-1.1-0.2-1.1
			s-0.1-0.6-0.4-0.7s-0.1-1-0.2-1.2s-0.1-0.5-0.4-0.7c0,0,0,0-0.1,0l0,0C109.3,39.9,109.5,40.5,109.4,40.6z"/>
		<polygon class="st0" points="111.4,47.9 111,47.9 111,47.9 111,48.3 111.3,48.4 		"/>
		<path class="st0" d="M101.2,37.7c0,0-0.1,1.1-0.4,1.3H100c0,0,0.2,0.3,0.3,0.5s0.6,0.5,0.2,0.7s0.1,0.2,0.1,0.2s-0.1,1.2-0.6,1
			s-0.7,0.6-0.7,0.8s2,0.3,1.7,0s0.2-0.6,0.2-0.6s1.3,0.1,1.6,0.1s0.5-0.1,0.3-0.3s-0.7-0.2-0.7-0.2c-0.4,0.1-0.9,0-1.3-0.2
			c-0.6-0.3,0.1-0.4,0.2-0.4s0.6-0.4,0.4-0.7s0-0.8,0-0.6s0.6,0.3,0.7,0.2c0.1-0.3,0-0.6-0.3-0.8c-0.3-0.2,0.5-0.3,0.3-0.6
			c-0.2-0.2-0.3-0.4-0.3-0.6l0,0C102,37.7,101.6,37.8,101.2,37.7z"/>
		<path class="st0" d="M110.3,78.2l-0.1,0.3c0,0,0.1,0,0.1,0.1l0.1,0.3c0,0-0.1,0.1-0.1,0.1l0.2,0.2c0.2-0.1,0.2-0.4,0.2-0.6
			C110.6,78.5,110.5,78.3,110.3,78.2z"/>
		<polygon class="st0" points="110.7,77.5 111.2,77.6 111.2,77.1 110.7,77 		"/>
		<path class="st0" d="M107.3,60.8c0.2,0.1,0.4,0.2,0.2-0.5c-0.1-0.2-0.3-0.3-0.5-0.3l0,0c-0.5,0-1,0.3-0.9,0.5
			C106.5,61,107.1,60.8,107.3,60.8z"/>
		<rect x="100.5" y="71.3" class="st0" width="0.4" height="1.1"/>
		<path class="st0" d="M71.6,18.1c0,0,0.8,0.1,0.9,0.2s0.6,0.2,0.7,0.1s0.3-0.5-0.2-0.5s-0.4-0.3-0.6-0.5s-0.4-0.1-0.7-0.1
			s-0.6,0.1-0.6,0.2C71.2,17.8,71.6,18.1,71.6,18.1z"/>
		<polygon class="st0" points="53.6,7.3 53,6.2 53,6.2 		"/>
		<polygon class="st0" points="58,20.9 57.8,21.1 58.1,21.5 58.4,21.2 		"/>
		<path class="st0" d="M58.8,17.3l-0.6-1.1l0,0L58.8,17.3z"/>
		<polygon class="st0" points="95.4,41 95.5,41.3 96,41.2 96,40.9 		"/>
		<polygon class="st0" points="107.3,53.4 107.9,53.5 108,53.1 107.4,53 		"/>
		<rect x="103.3" y="39.2" class="st0" width="0.3" height="0.4"/>
		<polygon class="st0" points="104.3,39.5 104.1,39.4 104.1,39.4 103.9,39.7 104.2,39.9 		"/>
		<polygon class="st0" points="102.3,36.9 102.3,36.5 101.7,36.6 101.8,36.9 		"/>
		<polygon class="st0" points="86.9,4.8 87,4.8 87.6,4.4 87.4,4.1 87.4,4.1 86.9,4.4 86.5,4.2 86.4,4.5 86.8,4.8 		"/>
		<rect x="102.6" y="36.9" class="st0" width="0.3" height="0.3"/>
		<polygon class="st0" points="97.1,41.8 96.9,42.2 97.2,42.3 97.4,41.9 		"/>
		<path class="st0" d="M98,42.7c-0.2,0-0.4,0-0.6,0.1c-0.3,0.1-0.2,0.3,0,0.6l0.7-0.1c0,0,0.5-0.2,0.4-0.4S98.2,42.7,98,42.7z"/>
		<polygon class="st0" points="106,53.5 105.8,53.6 105.4,53.8 105.1,53.6 104.9,53.9 105.3,54.2 105.4,54.2 105.5,54.2 105.8,54 
			105.8,54.1 106.2,54 106.1,53.7 		"/>
		<path class="st0" d="M74.3,62.9L74.3,62.9L73.8,63l0.1,0.8l0.3,0.3l0.6,0.2c0,0,0.8-0.2,0.9-0.9l-1.3-0.1L74.3,62.9z"/>
		<path class="st0" d="M79.1,59c0.2,0.1,0.1-0.8,0.1-0.8l0,0l-1,0.7c0.5,0.1,0.6,0.6,0.6,0.8C78.8,60.2,78.8,59,79.1,59z"/>
		<polygon class="st0" points="82,74.3 82.4,73.7 82.1,73.6 82.1,73.6 81.7,73.9 81.8,74 		"/>
		<polygon class="st0" points="88.7,71.9 88.5,71.6 88.1,71.9 88.3,72.2 		"/>
		<path class="st0" d="M82.2,59c0.3,0.2,0.7-0.2,0.4-0.4c-0.8-0.6-0.8-1.3-1-1.8c0-0.1-0.1-0.2-0.2-0.2l0,0c-0.1,0-0.2,0.1-0.3,0.3
			v0.7C81.4,58.1,81.8,58.6,82.2,59z"/>
		<polygon class="st0" points="73.3,52.7 72.7,52.7 72.7,52.7 72.6,53 72.3,53 72.2,53.4 72.6,53.4 72.6,53.8 72.4,54 72.3,54.3 
			71.9,54.4 70.9,55.3 70.8,55.8 70.5,56.2 70.2,57 69.1,57 68.8,58 69,58.9 70,59.3 70.1,58.8 70.4,58.6 70.5,58 70.7,57.6 
			71,57.2 71.1,56.8 71.7,56.5 72.4,56.3 72.6,56 72.7,55.3 72.8,54.8 73,54.5 73.7,54.2 73.7,53.1 73.4,53.1 		"/>
		<path class="st0" d="M54.5,60.8L54.5,60.8c-0.1,0-0.2,0.1-0.2,0.2l0,0c0,0.1,0.1,0.2,0.2,0.2c0.1,0,0.2-0.1,0.2-0.2
			C54.7,60.9,54.6,60.8,54.5,60.8z"/>
		<path class="st0" d="M76.1,67.4c0,0-0.2,0.3-0.5,0c0,0-0.1-0.1-0.1-0.1l0,0c-0.3,0-0.5,0.9-0.6,1.1c0,0,0.1,0.5,0.4,0.4
			s0.4-0.2,0.6-0.2s0.3-0.4,0.4-0.7C76.2,67.8,76.2,67.6,76.1,67.4z"/>
		<path class="st0" d="M102.3,82.1c-0.2-0.2,0.3,0.3,0.4,0.5c0.1,0.2,0.3,0.2,0.4,0.1c0.1,0,0.1-0.1,0.1-0.1
			c0.1-0.2,0.1-0.4,0.1-0.7l-0.3-0.3C102.9,82.1,102.5,82.3,102.3,82.1z"/>
		<path class="st0" d="M107.5,82.9l-0.3-0.3l-0.1-1.4c0.2-0.7-1.1-1.8-1.2-1.6s-0.8,0.1-0.8,0.3s-0.4,1.3-0.2,1.7c0,0,0,0,0,0.1
			l-0.5,1.4c-0.1,0.3-0.3,0.6-0.2,0.8l0,0l0.5,0.2l0.1,1c0.6,0.3,1.2,0.4,1.9,0.3l0.9-1C107.6,83.7,107.5,82.9,107.5,82.9z"/>
		<path class="st0" d="M76.5,67L76.5,67c0,0-0.2,0.5,0,0.6s0.2,0.1,0.3,0.3l-0.1,0.3c-0.2-0.3-0.3,0.2-0.2,0.3s-0.3,0-0.3,0.2
			S76,69,76.2,69s0,0.1-0.2,0.3s0.7,0.2,0.7,0.2s-0.2-0.3,0-0.3h0.1L77,67H76.5z"/>
		<path class="st0" d="M90.8,39.9c0-0.2-0.6-0.5-0.5-0.2s-0.4,0.5-0.5,0.4s-0.4,0.3-0.4,0.3c0,0.2-0.1,0.4,0.2,0.5s0.9-0.2,1,0.1
			c0,0.1,0,0.2,0.1,0.3l0.9-0.9C91.4,40.2,90.8,40.1,90.8,39.9z"/>
		<path class="st0" d="M94.5,41.4c0-0.2-0.7-1.1-1-1.1l1,1.2C94.5,41.5,94.5,41.4,94.5,41.4z"/>
		<path class="st0" d="M93,41.6L93,41.6c0,0,0.3,0.1,0.6,0.1l-0.9-1.1l-1,1.1h0.3C92.3,41.7,92.6,41.6,93,41.6z"/>
		<path class="st0" d="M71.7,77.6l-0.5,0.2l-0.3,0.5l-0.7,0.2l-0.1,1.2l-0.3,0.2v0.5l-0.4,0.1v0.3l-0.6,0.1l0.3,0.8l0.4,0.2
			C70.4,82,70,83,70,83l0.4,0.1l0.2,0.6l0.4,0.9c0.2,0.7,0.7,0.5,0.9,0.5s0.4,0.7,0.4,0.7l2.2,0.1c0,0-0.1,0.2,0.3,0.3
			c0.6,0.1,1.2,0.1,1.8,0.1l1.3-0.3c0.3-0.2,0.7-0.2,1-0.2c0.3,0,0.7,0.1,0.9,0.3c0.4,0.3,0.9,0.3,1.4,0.2l0.6,0.7l0.7,1.2l0,0
			l0.1,0.3l0.9,0.3l0.7,0.2l0.2,1l0.5,0.1l0.2,0.6c0.6,0.4-0.2,1.4-0.2,1.4v1.2l0.4,0.2l-0.1,0.5l0.7,0.7l0.8,0.1l1.4,1.4l1.4,1
			l1,0.3l0.3,0.9l0.4-0.1l0.3-0.3l1.3-0.1l0.7-0.6l0.7-0.1l5.2-4.4l0.4-1.8v-0.5c1-0.7,1.1-2,0.1-2.1c-0.7-0.1-0.4-0.8,0.3-1
			l0.4-0.2v-0.5l1.3-1.2v-0.9l-2.8-2.2c-0.6-0.2-0.6-0.9-0.4-1.6l1.5-3.3c-0.1-0.8-0.2-1.6-0.4-2.4l-0.4-0.2l0.1-1.4h-0.6l-1,1.3
			L98.1,75l-0.7,1.2c-1,0.3-2.1,0.4-3.2,0.2c-0.4-0.3-0.8-0.5-1.3-0.7c0,0-0.9-0.7-1.1-0.5S91,74.9,91,75.1s-0.7-0.4-0.7-0.4
			l-1.1-0.4l0.8-0.2l-0.1-0.5c0,0,0.1,0,0.1-0.1l0,0l1.3,0.7c0.2,0.2,0.9,0.2,0.9,0.2l0.2,0.3c0.3,0,0.5,0.1,0.7,0.3
			c0.3,0.3,1.7,0.1,1.7,0.1l0.4,0.3l0.6,0.2h1l0.8-1.1l0.3-0.3l-0.1-0.7l0.4-0.3v-0.6l0.3-0.1l0.1-1.2l0.3-0.1v-2.7l-0.8-0.8
			C98.1,68,97.2,68,97.2,68s-0.2,0.4-0.4,0.4s0.2,0.5,0.1,0.8s-0.6,0.3-0.6,0.3l-0.8,0.2L95.3,70h-0.9l-0.1-0.5
			c0.1-0.1,0.2-0.2,0.3-0.3l0.7-0.2l0.6-0.3l0.3-0.6c0.1-0.6,0.7-0.5,0.7-0.5s1.3-1.1,1.3-1.6s0.5-1.9,1.3-1.9h1.4
			c0.6-0.2,0.4-1,0.4-1l0.7-0.1l0.1,0.4c0,0,1,0.1,1.1-0.1s0.3-0.6,0.6-0.4s1.2-0.4,1.2-0.4c0.1-0.4,1.4-0.2,1.4-0.2l0.2-0.5
			c0,0-0.9-1.3-1.1-1.3s-1.1-0.8-1.2-0.5c-0.9-0.2-0.8-1.5-0.8-1.5l-0.3-0.8c0-0.5-0.8-1.4-1-1.3c-0.3-0.2-0.4-0.5-0.4-0.8l0,0
			l1.1-1.3l0.1-0.2l0.3-0.8l0.9-0.3l0.1-0.7h-0.4c0,0,0.6-1,0.8-1c0.8,0,1.5,0,2.3-0.1c0.2-0.3,0.4-0.7,0.5-1.2
			c0-0.2,0.4-0.2,0.6-0.3c0.3-0.2,0.5-0.4,0.7-0.7c0.1-0.2-0.3-1.6-0.5-1.4c-0.2,0.2-0.5,0.3-0.7,0.3l-0.2,0.6L107,49
			c0,0.2,0,0.4,0,0.6c-0.1,0.4-0.6,0.6-0.6,0.6l-0.2,0.3c-0.5,0-1,0-1.5,0c-0.2-0.1-0.3-0.4-0.2-0.6c0.1-0.2,0.2-0.3,0.4-0.3
			c0.3,0.1-0.1-1-0.1-1l0.4-0.1c0,0,0.1-1,0.2-1s-0.1-0.3-0.3-0.5s-0.5-0.7-0.7-0.7c-0.4,0-0.7,0-1.1,0l-0.2,0.3l-0.6,0.1
			c0,0,0.1,0.4-0.1,0.6c-0.3,0.4-1.6,1.2-1.1-0.2l0.2-0.3v-0.5l-1-0.1c0,0-0.5-0.2-0.5-0.4c0-0.2,0-0.3-0.1-0.5l-1.2-1.3L97.5,44
			l-0.1-0.3l-0.8-0.1c-0.1-0.1-0.2-0.1-0.4-0.1l-1.3,0.4c-0.1,0.2-0.1,0.4,0,0.5c0.2,0.8,0.4,1.2-0.1,1.2c-0.3,0-0.6-0.1-0.7-0.4
			c0,0-0.4-0.2-0.4,0.1s-0.2,0.7,0,0.9s-0.2,0.6-0.4,0.4s-0.6-0.7-0.5-0.8s-0.8-1.2,0.1-1.4s-0.1-0.7,0.3-0.8l0.4-0.2H94l0.3-0.2
			l0,0l-0.7-0.1L93.1,43l-0.8-0.1c-0.5,0.3-0.8,0.7-1,1.2c-0.4,0.7-1.2,0-1.2-0.6l-1.9,0.1c-0.2,0-0.4,0-0.6,0
			c-0.2,0.5-0.9-0.1-0.7-0.4c0.1-0.2,0.2-0.4,0.2-0.6l-0.3-0.1l-0.3,0.6c-0.8,0-1,0.4-0.8,0.7s-0.2-0.1-0.3,0.3s0.1,0.4,0.4,0.6
			s-0.2,0.2,0.1,0.4s0.5,0.1,0.6,0.2l-0.4,0.4c-0.3,0.1-0.6,0.1-0.8,0c0,0.1-0.1,0.2-0.2,0.2c-0.9-0.7-1.9-1.4-2.9-1.8
			c0.2-0.1,0.5-0.1,0.6-0.5c0.2-0.5,0.3-1.1,0.3-1.6c0,0-0.9-0.1-0.9,0.2s-0.6,0.4-0.6,0.4s-0.4,0.2-0.3,0.4s-0.3,0.3-0.3,0.3
			c0,0.1,0,0.2,0,0.3l-3.5,0.8l0,0l0.1,1.3l-0.6-0.2h-0.4l-0.2-0.3L76,45.5v1.2l0.3,0.3l0.3,0.3l0.6,0.1l0.1,0.7l1.4,0.1l0.2,0.3
			l0.8,0.1l1.6,1.7l-0.1,0.5l-0.3,0.2c0.1,0.4-0.7,0.2-0.7,0.2v0.3l0.4,0.1l0.4,0.2l0.6-1c0.6-0.4,0.9,0.2,0.9,0.5s-0.3,0.3-0.3,0.3
			V52l0.3,0.1c0.3,0.3,0.2,0.7,0,0.9c-0.1,0.1-0.1,0.1-0.2,0.1l-0.2,0.6c-0.2,0.5-0.8,0.4-0.8,0.4l-0.2,0.3l-0.7,0.2l1.3,0.2
			c0.1-0.5,0.5-0.6,0.6-0.3c0.1,0.2,0.2,0.4,0.2,0.6l0.3,0.1l-0.1,0.6l0.3,0.1v1.8l0.4,0.4c0.7-0.3,0.7,0.2,0.3,0.4
			s-0.1,1.2-0.1,1.2L83.5,60v0.5l-0.3,0.2v0.6c-0.4-0.2-1-0.2-1.4,0c-0.5-0.3-1.6-0.2-1.6,0.1c0.3,0.4-0.4,0.6-0.4,0.6l-0.4,0.4
			c0.3,0.6-0.3,0.6-0.3,0.6v1.1l-0.7,0.6v1l1.7,1l0.1,0.1h0.5v-0.3l-0.3-1.3v-1.2l0.6-0.6c0,0,0.1,0,0.1,0l0,0
			c0.5,0,0.4,1.1,0.3,1.5v1.4l0,0c0,0.1,0,0.2,0.1,0.3l0.3,0.1l-0.5,0.4L81,67.7l-0.6-0.2l-0.7-0.1L79.5,67L79.1,67L79,67.8
			l-0.3,0.3l-0.7,0.7c0.7,0,0.2,0.4-0.1,0.5l-1.3,0.4c-0.1,0-0.2-0.1-0.2-0.1V70L76,70.1l0.4,0.4h0.3v1c0,0.7-1.8,0.2-2,0.1l-0.1,1
			l-0.3,0.1l0.1,0.7l-0.1,1l0.6-0.1v0.4l1.5,0.1l0.3-0.3l1.4-1.3l0.6-0.6l1.3-0.3c0.1-0.6,0.7,0.1,0.7,0.1c0.6-0.1,0.7,0.3,0.7,0.3
			l0.7,0.1c0.6,0.2,0.2,0.2,0.3,0.5s0.3,0.2,0.3,0.2l0.1-0.7l0.3,0.1l-0.3-0.4L82.2,72l-0.7-0.3c-0.4-0.6,0.1-0.5,0.6-0.4h0.7
			c0.3,0.4,0.6,0.9,0.8,1.4C83.6,73,84,73,84,73l0.5-0.1l0.2,0.4h0.5l0.2,0.3h1l0.1-0.5l-1-0.2l-0.1-0.6l-0.7-0.2
			c-0.2-1,0.2-1.2,0.4-0.8l0.3,0.1l-0.1-0.8l0.4-0.1l-0.1-1.2l-0.3-0.1v-0.6l1.4,0.1c-0.1-0.4-0.1-0.7,0.1-1.1h0.4l0.1,0.3l1.7,0.2
			h0c0.7,0.4,0.3,0.9,0.1,1c-0.2,0.1-0.4,0.1-0.6,0.1l-0.1,0.2L87,69.7l-0.1,0.6c-0.4-0.1-0.8,0.2-0.9,0.7c0,0.1,0,0.3,0,0.4
			c0.1,0.2,0.1,0.5,0,0.7l0.6,0.3l0.8-0.2c0.1-0.6,0.6-0.7,1.1-1s1.2,0.6,0.9,1.1c0,0.1,0,0.1-0.1,0.1c-0.9,0.6-1.7,1.1-2.7,1.6l0,0
			c-1.5,0.7-3,1.3-4.6,1.6c0,0,0,0-0.1,0l-0.6-0.2l-0.1-0.8c-0.1-0.6-1.2-0.6-1.1-0.2s-2,0.2-2,0.2l-1.3,1l-1,0.1l-0.4,0.2l-0.2-0.3
			h-0.4l-0.3,0.4l-2.2,0.9c-0.1,0.1-0.2,0.2-0.2,0.3C72.3,77.3,71.7,77.6,71.7,77.6z M89.3,66c0-0.3,0.1-0.8,0.1-0.9
			s0.3-0.3,0.6-0.3l0,0c0.1,0,0.2,0.1,0.2,0.3c-0.1,0.2-0.1,0.5,0,0.7c0.7-0.7,1.3,0.1,1.3,0.2s0.4,0.3,0.7,0.2s0.6,0.5,0.5,0.8
			s-1.1,0.3-1.2-0.1s-0.2-0.2-0.3-0.1c-0.2,0.2-0.5,0.2-0.7,0.2l-0.2-0.2c0-0.1,0.1-0.1,0-0.2s-0.2-0.1-0.3-0.1L89.3,66z"/>
		<path class="st0" d="M117.9,35.2c0,0-0.8-0.6-0.7-0.8s-0.8-0.8-0.7-1.1s-0.7-0.7-0.7-0.9s-0.4-0.8-0.4-0.8l-0.8-0.8l-0.1-0.5
			l-0.7-0.1l-1.3-1.6l0.1-0.5l-0.4-0.1v-0.6l-0.4-0.2l-0.6-0.1l-1.2-1.3l-0.1-0.6h-0.6l0.1-1l-0.4-1.5c-0.2,0.1-0.4,0.1-0.6,0
			c-0.4-0.2,0.2-0.6,0.2-0.6v-0.4l-0.3-0.3c0,0-0.9,0.1-1-0.1s-0.2-0.9-0.2-0.9l-0.1-1l-0.4-0.2l-0.1-0.3l-0.6,0.1v-0.7l-0.3-0.1
			l-0.3-0.2l-0.1-0.7l-1.2-0.1l-0.4-0.6l-0.4-0.7l-1.4-0.1l-0.3-0.3l-0.6-0.1l-0.4-0.2l-0.2,0.3l-1.1,0.1L99,16.1
			c-0.6,0.2-1.3,0.2-1.9,0.2l-1.1,0.9c-0.1,0.2-0.1,0.3-0.3,0.3s-0.2,0.7-0.2,0.7c0.3,0,0.6,0,0.9,0.1c0.2,0.1,0.2,0.6,0.2,0.6
			c0.8-0.1,1.2,1.1,1.1,1.4s0.3,0.3,0.3,0.3c0,0.4,0,0.8-0.1,1.1c-0.1,0.2,0.7,0.4,0.9,0.7c0.2,0.5,0.1,1.1-0.2,1.6
			c-0.2,0.1,0.4,0.2,0.4,0.5s0.2,0,0.2,0.5s0.2,1.4,0.2,1.4l0.8,0.1c0.1-0.7,1.5-0.8,1.8-0.7c0.8,0.4,1.4,1.2,1.7,2.1
			c0,0.3-0.6,0.4-0.6,0.4v0.4l0.4,1.4c0.8,0.5,1.4,1.5,1.3,1.7s0.7,0.2,0.7,0.2c0.1-1,1.1-0.7,1.1-0.3s0.2,1.1,0.2,1.1l0.3,0.5
			l0.4,0.4l0.6-0.1l0.2,0.3l0.7,0.1c0.2,0.3,0.5,0.5,0.7,0.8c0.1,0.2,0.9,0.1,1.1,0.2s0.6,0.2,0.6,0.5c0.1,0.3,0.2,0.5,0.4,0.7
			c0,0,0.7,0.2,0.7,0.4c0.1,0.3,0.2,0.5,0.3,0.7l0.6,0.5l0.1,0.5l0.6,0.1l0.2,0.7l1-0.1l0.6-0.4l0.5-0.3L117,37
			c0.1-0.3,0.3-0.6,0.6-0.5C118.3,36.6,117.9,35.2,117.9,35.2z"/>
		<path class="st0" d="M110.4,49.3c-0.2-0.2,0.2-1,0.2-1c0.1-0.3,0.1-0.6,0-0.9c-0.2-0.4-0.1-0.8,0.2-1.2l-0.4-0.2l-0.4-0.1
			l-0.3,0.1c-0.1-0.4-0.2-0.7-0.3-1.1l0,0l0.3,0.1v-0.3l-0.4-0.1c-0.1-0.2-0.2-0.5-0.2-0.7l-0.1-1.2l-0.4-0.3l0.1-0.4l-0.4-0.2
			l0.2-0.7l-0.4-0.8h-0.6c-0.3-0.5-0.5-1.1-0.8-1.6c0.1,0,0.2-0.1,0.2-0.1l0.4-0.1l0,0l-0.1-0.6l-0.5-0.3l-0.2-0.7
			c0,0-0.6,0.1-0.6,0.4c0,0.1,0,0.1-0.1,0.2c-0.4-0.6-0.8-1.2-1.2-1.8c0,0,0-0.1,0-0.1c0.2-0.4,0.1-0.6-0.3-0.7s-0.4-0.1-0.5-0.6
			c-0.1-0.3-0.3-0.5-0.6-0.6l-0.2-0.7l-0.4,0.3l-0.7-0.8l0.2-0.6c-0.2,0-0.3-0.1-0.4-0.3l-0.6-1.2c-0.2-0.1-0.4-0.2-0.5-0.1
			c-0.3,0.2-0.2-1.2-0.2-1.2s0.5-0.3,0.7-0.2s-1.9-2.8-2.3-2.5s-1.4-0.3-1.4-0.8s-2-2.2-2-2.2s-0.7-0.4-0.8-0.1s-0.3,0.6,0,0.7
			s0.3-0.3,0.7,0.1s1.1,0.9,0.8,1.2c-0.2,0.2-0.4,0.3-0.6,0.4l0.4,0.5h0.6l0.1,1c0,0,0.7,0.3,0.8,0.7c0.1,0.2,0.1,0.4,0.1,0.6
			L97.2,30c0.1,0.3,0.3,0.5,0.5,0.6h0.3l0.5,0.4v0.5c0.5,0,0.9,0.3,1.1,0.7l0.9,0.9l0,0c0.2,0.2,0.2,0.3,0.5,0.5
			c0.1,0.1,0.2,0.1,0.3,0.1l0.5,0.6l-0.1,0.2c0,0.6,0.3,0.5,0.6,0.4c0.1,0.1,0.2,0.2,0.3,0.3c0,0.4,0,0.9,0.6,0.8l0,0
			c0.7,1,1.4,2,2,3v0.1l0,0c0.1,0.2,0.2,0.3,0.3,0.5c-0.1,0.1-0.2,0.1-0.2,0.2l-0.9,0.1v0.9l-0.4,0.2l0.1,0.6l0.6-0.1
			c0,0,0,0.7,0.2,0.4s1.6,0.1,1.4,0.7c0,0.3,1.4,1,1.2,1.9l0.3,0.1c0.3,0.8,0.5,1.6,0.7,2.3l-0.1,0.2c0.1,0.1,0.1,0.1,0.2,0.2
			c0.2,0.7,0.3,1.4,0.4,2.1s-0.2,1.2-0.5,1.4c-0.7,0.4,0.1,0.2,0.1,0.2l-0.1,1.2c0.2,0.6,0.4,0.3,0.6,0c0.1-0.1,0.2-0.2,0.3-0.3
			l1.1-2.1C110.4,49.6,110.5,49.4,110.4,49.3z"/>
		<path class="st0" d="M93.8,25.9c-0.1-0.4,0.4-0.6,0.7-0.1l0.6-0.1l0.1-0.5l-0.8-0.6h-0.6c0,0-0.1,0.4-0.4,0.3
			c-0.2-0.1-0.3-0.2-0.5-0.2c-0.3-0.1-0.2,0.6-0.2,0.9l1.1,0.6C93.9,26,93.9,26,93.8,25.9z"/>
		<path class="st0" d="M78.5,16.7c0.1-0.2,0.1-0.3,0.4-0.3s-0.1-0.7-0.4-0.7c-0.2,0-0.4,0-0.6-0.2V17C78.3,17,78.4,16.8,78.5,16.7z"
			/>
		<path class="st0" d="M70.6,63c0.2-0.3,0.4-0.4,0.7-0.5l0.2-0.4l1.5,0.1c0-0.2,0.2-0.4,0.4-0.4c0.2,0,0.4,0.1,0.4,0.3
			c0,0.3,0.6,0.1,0.6,0.1l0.4-0.6h0.6l0.1-0.7l0.3-0.2v-1c0.5-0.1,0.9-0.6,0.8-1.1l0.2-0.3l-0.1-0.4c-0.4-0.2-0.2-0.6,0.1-0.5
			s-0.4-0.5-0.4-0.5c-0.3,0.3-0.6-0.3-0.6-0.3h-0.9v-0.8l-0.1-0.7l-0.8-0.4l-0.6,0.6L73.2,56v0.5l-0.6,0.1l-0.1,1.5l-0.4,0.2
			l0.1,0.6L71.6,59L71,59.2l-0.1,0.7l-0.4,0.3l-0.2,0.7l-0.3,1.6L70.6,63C70.6,63.1,70.6,63.1,70.6,63z"/>
		<path class="st0" d="M75.7,47.5c-0.7,0,0-0.5,0-0.5l0.1-0.8h-0.6l-0.1-1.2L73.4,44l-0.1-0.6l0.3-0.2l-0.4-0.2l-0.3,0.4L72.8,44
			l-0.6,0.1v0.3h-0.4v0.3c-0.8,0.4-1.6,1-2.3,1.6h-1.9h-0.5c-0.2,0.5-0.8-0.1-0.8-0.1c-0.1-0.3-0.9,0-0.9,0c0,0.6-1.1-0.3-1.1-0.3
			l-1.9-1.4c-1.1-1-2.8,0.3-2.8,0.6s-0.3,0.4-0.7,0.4l-1.3-0.3c-0.2,0-0.5,0-0.5,0.2c-0.2,0.4-0.9,0.3-0.9,0.3L56.2,46l-0.6,0.1
			l-0.1,0.3l-0.7,0.1l1.7-0.1c0.4-0.1-0.2,1-0.4,0.9l-0.8,0.1l-0.3,0.3h-0.7L54,48.2l-1.1-0.1c0,0-0.6,0.5-0.6,0.7s-0.1,0.7-0.3,0.7
			s-0.5,0.5-0.4,0.7s-0.3,0.7-0.3,0.7l-0.1,0.6l-0.3,0.1V53l-0.7,0.4v0.7L50,54.4l-0.6,1.3v0.3L48.5,57l0.1,0.9L48.1,58L48,58.4
			l-0.2,1.2l0.6,0.1c0.3-0.1,0.2,0.7,0,0.8s-0.8,0.3-0.5,0.6S47,61.2,47,60.9s-0.7-0.6-0.8-0.5s-0.2-0.1-0.3-0.3l-1.4-0.5
			c-0.4,0-0.8,0.1-1.2,0.3L43,60.8c-0.6,0.1-1,1.1-1,1.1c-0.5,0.2-0.9,0.8-0.7,1S41,63.2,41,63.2v1.2l-0.3,0.4l0.1,1.3
			c0.3,0,0.3,0.6,0.3,0.6c-0.6,0.1-0.4,0.8-0.4,0.8L39.4,68l-0.2,0.3l-1.4-0.1l-0.4,0.4l0,0l-1.5-0.4h-1.6L34.2,68l-0.6-0.1
			l-0.1-0.6l-0.8,0.1l-0.2,0.3l-0.9,0.1c0.1,0.6-0.9,1.4-1,1.2s-0.7-0.8-0.4-1c0.3-0.1,0.7-0.2,1-0.2v-0.4l-2.1-0.1l-0.2,0.3
			l-0.8,0.1v0.9l-0.4,0.1c-0.3,0.2,0.1,0.8,0.1,0.8c0.4,0.4-0.1,1-0.1,1c-0.3,0.3,0.3,1,0.3,1c0.4,0.1-0.3,0.4-0.3,0.4
			c0,0.3,0.2,0.6,0.4,0.7c-0.2,0.3-0.1,0.6,0.1,0.8c0,0,0.1,0,0.1,0.1l0.1,1l0.4,0.2v0.6l0.2,0.4H30l-0.1-1.4
			c-0.8-0.9,0.7-1.1,0.7-0.8s0.7,0.5,0.7,0.5c0.1,0.8,1.1,1.3,1.3,0.5s0.5-0.3,0.7,0.1c0.4,0.5,0.8,1,1.2,1.4h0.8l0.1,0.8
			c0.9-0.1,1.2,0.1,1.6,1.3c0.2,0.7,0.7,1.3,1.4,1.6l0.8-0.1c0-0.7,0.8,0.1,0.8,0.5s1.5,1.6,1.5,1.6L43,82l0.3,0.2l2.4,0.8h0.2
			c0-0.2,0.2-0.4,0.5-0.4c0.5,0.1,1,0.4,1.2,0.8c0.1,0.2,0.2,0.3,0.4,0.4l1.4,0.5c0.1,0.1,0.1,0.3,0.1,0.5c0.1,0.8,0.5,0.7,0.5,0.7
			l3.2-0.1l1.1-1l2.8-0.1c1.4-0.1,0.6-2,0.3-2c-0.2-0.2-0.2-0.5-0.2-0.7l-2.8-4.3c-0.5-0.5-0.9-0.9-1.3-1.5c0.1-0.2,0.2-0.5,0.3-0.7
			c0.7-0.5-0.2-1.2-0.2-1.2c0-0.5-0.1-1-0.4-1.5c-0.6-0.5-0.9-1.2-0.7-2v-0.9c-0.8-0.8,0.3-0.9,0.3-0.9c0.2-0.4,0.1-0.9-0.3-1.2
			l-0.1-0.7l-0.9-0.1l-0.1-2.6l-2-2.9c-0.4-0.1-0.1-0.8-0.1-0.8c0.5-0.3-0.1-1-0.1-1l-0.1-1.2l1.2-0.1l0.3-0.4h0.6l-0.1-1.5
			c0.1-0.2,0.2-0.4,0.4-0.4h0.3c0.1,0,0.2,0.1,0.3,0.1l0.8,0.1l0.1-0.1l0.4-1.3l0,0l-0.6-0.1c-0.7-0.4-0.3-1.9-0.3-1.9
			c0.3-0.5,0.8-0.9,1.4-0.9c0.3,0,0.6,0.1,0.9,0.3l0.8-0.1c0.2,0.1,0.3,0.2,0.4,0.4c-0.1,0.5-0.1,1-0.1,1.6c0,0.1-0.1,0.2-0.1,0.2
			c-0.1,0.1-0.1,0.3-0.1,0.4l0.1,1.3l0.2,1.4l-0.7,0.6c-0.6,0.3-0.6,1.1,0.1,1.3c0.4,0.1,0.3,1.1-0.4,0.4c-0.9,0,0.3,0.7,0.2,0.7
			c0.9,0.4,0.7-0.5,0.7-0.5l0.5-0.4l1.2-0.7l0,0c0.4,0.2,0.8,0.6,1,1.1c0.7,0.1,1.5,0.1,2.2,0.1c0.4,0.4,0.7,0.8,0.8,1.4
			c0.6-0.8,1.9-0.1,0.9,0.4c0.9,0.6,0.9,1.1,0.9,1.1c0.7-0.2,0.7,0.3,0.7,0.5c0.1-0.3,0.2-0.5,0.2-0.8c-0.8-0.6,1.1-0.8,0.6,0.3
			L64,63.1l0.6,0.4l0.1,1.3c1.2-0.1,0.9-1.6,0.9-1.6l0.6-0.1c0-0.5,0.4-0.2,0.4-0.2c-0.3-1.3,0.3-1.9,0.6-2.1l0.9-1
			c0.1-0.2,0.1-0.5,0.1-0.8c-0.5-0.2-0.2-1,0.3-0.3s-0.3-1.4-0.3-1.4l-0.4-0.4l-0.6-0.1L65.9,57l-0.3,0.1l-0.1-0.2l-0.2,0.7h-1
			l-0.1-0.7l0.6-0.2l0.2-0.3l0.1-0.5h0.6l1.3-1.4c0.1-0.1,0.2-0.1,0.3-0.1l0.3,0.3l0.5,0.4l0.1,0.3l-0.3,0.2l-0.1,0.5l0.2,0.6h0.4
			c0.1-0.5,0.6-0.8,1.1-0.7c0.2,0,0.4,0.2,0.6,0.4l0.3-0.8c-0.8-0.4,0-1,0.2-0.7s0.7-0.7,0.7-0.7s0.4,0.5,0-0.2
			c-0.2-0.3-0.1-0.7,0.2-1c0,0,0,0,0.1,0c-0.1-0.7,0.7-0.6,0.7-0.6l0.1-0.9l-0.8-0.1c-0.2,0.8-0.8,0.1-0.5-0.1
			c0.2-0.1,0.5-0.3,0.7-0.5v-0.6l0.3-0.1l0.1-0.6h0.8l0.7-0.3L74,49l0.8-0.1l1.1-1L75.7,47.5z"/>
		<polygon class="st0" points="55.8,59.4 57,58.7 57,58.7 		"/>
		<polygon class="st0" points="45.3,95.8 45.3,95.8 45.8,96.6 45.8,97.1 46.4,97.2 46.6,97.6 47,97.3 46.7,96.6 46,96 		"/>
		<polygon class="st0" points="73.6,93.9 73.9,93.6 74.1,93.4 73.9,93.3 73.3,93 73.2,93.3 73.5,93.5 73.4,93.6 		"/>
		<polygon class="st0" points="69.4,89 69.1,89.3 68.9,89.4 69.1,89.6 69.4,89.8 69.7,89.6 69.4,89.4 69.6,89.3 		"/>
		<polygon class="st0" points="30.4,77.3 30.4,78 30.8,78 30.7,77.2 30.2,77 30.2,76.7 30,76.7 30,77.3 		"/>
		<polygon class="st0" points="33.8,81.4 34.4,82 34.6,81.6 34.2,80.8 33.8,80.5 33.6,79.7 32.7,79.3 32.7,79.3 33.1,80.3 
			33.3,80.8 		"/>
		<path class="st0" d="M124.9,72.4h-0.3l0,0c0,0.3,0,0.6,0.3,0.6l0.1-0.3l0,0C124.9,72.6,124.9,72.5,124.9,72.4z"/>
		<path class="st0" d="M126.6,71.1c0.1,0,0.2,0,0.2,0l-0.1-0.3c0,0,0.1,0,0.1,0.1v-0.1c0-0.1,0-0.3-0.1-0.4l0,0l-0.3,0.2
			c0,0.1,0,0.2,0.1,0.2C126.5,70.9,126.5,71,126.6,71.1z"/>
		<path class="st0" d="M126.6,71.7c-0.1-0.2-0.2-0.4-0.2-0.7l0,0l-0.3,0.1c0.1,0.3,0.2,0.7,0.2,0.7L126.6,71.7z"/>
		<path class="st0" d="M123.2,65.5c-0.1,0-0.1,0-0.2,0c-0.2,0-0.5,0.1-0.7,0.2l0.2,0.3c0.2-0.1,0.5-0.2,0.5-0.2l0,0l0.3-0.1
			C123.4,65.7,123.4,65.5,123.2,65.5z"/>
		<path class="st0" d="M124.4,73L124.4,73c-0.1,0-0.3,0.1-0.4,0.2c-0.3,0.2-0.2,1.1,0,0.8s0.5,0,0.5-0.6
			C124.5,73.1,124.5,73,124.4,73z"/>
		<polygon class="st0" points="80.7,42.9 80.6,42.5 80.6,42.5 80.3,42.5 80.3,42.9 		"/>
		<polygon class="st0" points="83.8,42 83.7,41.7 83.5,41.7 83.6,42 		"/>
		
			<rect x="84.7" y="41.2" transform="matrix(0.9989 -4.640909e-02 4.640909e-02 0.9989 -1.8291 4.0026)" class="st0" width="1.2" height="0.3"/>
		<polygon class="st0" points="84.2,41.6 84.1,41.1 84.1,41.1 83.7,41.2 83.8,41.7 		"/>
		<polygon class="st0" points="78.7,41.4 78.4,41.4 78.4,41.4 78.3,41.7 78.7,41.7 		"/>
		<rect x="79.8" y="42" class="st0" width="0.4" height="0.3"/>
		<polygon class="st0" points="79.4,41.6 79.1,41.5 79.1,41.5 79,41.9 79.4,41.9 		"/>
		<path class="st0" d="M88.3,6.6c-0.3,0.1-0.6,0.1-0.8,0.1h-1c0-0.2-0.3-0.3-0.5-0.2l0,0c-0.2,0-0.5,0.1-0.5,0.2S85,6.9,85,6.9
			L83.8,7c-0.1,0.3-0.8,0.6-0.8,0.3l0,0c-0.1-0.5-0.8,0.6-0.1,0.8c0.5,0.1,1,0.1,1.4,0l0.2-0.3l2.8,0.1c0.1-0.2,0.3-0.4,0.3-0.6
			c0,0,0.7-0.2,0.9-0.1S88.6,6.4,88.3,6.6z"/>
		<path class="st0" d="M83.1,10.1l-0.7-0.7V8.8l-0.2-0.2l-0.2-0.8l-0.7-0.2l-0.7,0.3l-0.8,0.5l-0.8,0.1l-0.4,0.5L80.2,9l0.3,0.6
			l1.3,0.1l0.8,0.8C83.3,10.8,83.5,10.5,83.1,10.1L83.1,10.1z"/>
		<polygon class="st0" points="89.9,5.4 89.5,5.8 89.2,5.5 89,5.8 89.4,6.1 89.5,6.2 89.6,6.2 90.2,5.7 		"/>
		<path class="st0" d="M87.2,41.9c0,0.2,0.4,0.3,0.6,0.3c0.3-0.1,0.6-0.2,0.8-0.4c0,0,0.3-0.8,0.1-0.7S88,41.5,88,41.2
			c0-0.2-0.2-0.2-0.4-0.2c-0.1,0-0.2,0-0.3,0l-0.9,0.1l-0.1,0.4l0.6,0.1C86.9,41.5,87.2,41.8,87.2,41.9z"/>
		<polygon class="st0" points="75,41.7 74.6,41.6 74.5,42 74.9,42 		"/>
		<path class="st0" d="M54.6,60.3C54.6,60.3,54.6,60.3,54.6,60.3C54.5,60.3,54.6,60.3,54.6,60.3z"/>
		<rect x="75.5" y="41.3" class="st0" width="0.4" height="0.3"/>
		<path class="st0" d="M67.7,32.2c0.3,0-0.3-0.4-0.3-0.4s-0.7,0.1-0.6-0.2l0.1,0.6H67.7z"/>
		<polygon class="st0" points="74.7,42.2 74.2,42 74.1,42.4 74.6,42.5 		"/>
		<path class="st0" d="M53,61.4c0.1,0.6,0.5-0.4,0.5-0.4v-3.8l-1-0.1l0,0l0.1,0.4h0.3c0.2,0.9,0.3,1.8,0.1,2.7c0,0-0.7,0.1-0.8-0.3
			s-0.4,0.7-0.2,0.9S53,60.8,53,61.4z"/>
		<polygon class="st0" points="53.7,63.5 53.8,63 53.5,62.8 53.5,62 53.8,61.9 53.9,61.5 53.9,61.5 53.1,62.1 52.5,61.8 52.5,63.1 
			53.4,64.3 		"/>
		<path class="st0" d="M54.5,67.2L54.5,67.2c-0.1,0-0.2,0.1-0.2,0.2c0,0,0,0,0,0l0,0c0,0.1,0.1,0.3,0.2,0.3c0.1,0,0.3-0.1,0.3-0.2
			c0,0,0-0.1,0-0.1C54.7,67.3,54.6,67.2,54.5,67.2L54.5,67.2z"/>
		<path class="st0" d="M54.3,66.3c0-0.1-0.1-0.2-0.2-0.2s-0.2,0.1-0.2,0.2c0,0.1,0.1,0.2,0.2,0.2S54.3,66.4,54.3,66.3L54.3,66.3z"/>
		<polygon class="st0" points="54,65 53.6,65 53.5,65.5 54,65.5 		"/>
		<polygon class="st0" points="53,68.3 53.5,68.2 53.5,67.8 53,67.9 		"/>
		<polygon class="st0" points="68.4,31.6 68.1,31.4 67.9,31.6 68.2,31.9 		"/>
		<polygon class="st0" points="74.1,42.8 74.1,42.5 73.7,42.6 73.8,42.9 		"/>
	</g>
</g>
</svg>
