<?xml version="1.0" encoding="utf-8"?>
<!-- Generator: Adobe Illustrator 22.1.0, SVG Export Plug-In . SVG Version: 6.00 Build 0)  -->
<svg version="1.1" id="Layer_1" xmlns="http://www.w3.org/2000/svg" xmlns:xlink="http://www.w3.org/1999/xlink" x="0px" y="0px"
	 viewBox="0 0 764.4 130" style="enable-background:new 0 0 764.4 130;" xml:space="preserve">
<style type="text/css">
	.st0{fill:#19171B;}
</style>
<title>Asset 1</title>
<g id="Layer_2_1_">
	<g id="Layer_1-2">
		<path class="st0" d="M233.3,6.6v41.3c0,9-2.4,15.8-7.1,20.2s-11.9,6.7-21.4,6.7c-9.7,0-16.9-2.2-21.7-6.7S176,56.9,176,47.9V6.6
			h14v39.1c0,5.5,1.2,9.6,3.6,12.4s6,4.2,10.8,4.1c4.8,0,8.5-1.4,11-4.2s3.7-6.9,3.7-12.3V6.6H233.3"/>
		<path class="st0" d="M248,72.9V6.6h14.7l29.4,38.6c1.1,1.4,2,3,2.8,4.6c1,2,2.1,4.3,3.1,7c-0.3-2-0.6-3.9-0.7-5.8
			c-0.2-1.9-0.2-4.4-0.2-7.3V6.6h13.6v66.4h-13.9l-30.2-39.4c-1.1-1.4-2-3-2.8-4.6c-1-2-2.1-4.4-3.2-7.1c0.3,1.9,0.6,3.8,0.7,5.8
			s0.2,4.4,0.2,7.4v37.9H248"/>
		<path class="st0" d="M358,62.1c5.7,0.2,11.1-2.1,14.9-6.3c4-4.3,6.1-10,5.9-15.8c0.2-5.9-1.9-11.6-5.9-15.9
			c-3.8-4.2-9.2-6.6-14.9-6.4c-5.7-0.1-11.2,2.2-15,6.4c-4,4.3-6.1,10-6,15.9c0,6.4,2,11.7,5.9,15.9C346.8,60,352.3,62.3,358,62.1
			 M393.4,39.9c0,4.6-0.9,9.2-2.7,13.5c-1.7,4.2-4.3,8-7.6,11.2c-3.4,3.2-7.3,5.8-11.7,7.6c-4.3,1.7-8.8,2.6-13.4,2.6
			c-4.1,0-8.1-0.7-11.9-2.1c-3.9-1.4-7.5-3.4-10.7-5.9c-8.2-6.5-13-16.4-12.9-26.9c0-4.6,0.9-9.2,2.6-13.5c1.8-4.2,4.4-8,7.7-11.2
			c10.2-10,25.4-13,38.7-7.5c4.3,1.8,8.2,4.3,11.6,7.5c3.3,3.2,5.9,7,7.7,11.2C392.5,30.7,393.4,35.3,393.4,39.9"/>
		<path class="st0" d="M419.6,61h7.9c7.5,0,12.9-1.7,16.3-5.1c3.4-3.4,5.1-8.8,5.1-16.1c0-7.3-1.7-12.7-5.1-16.1s-8.8-5.1-16.3-5.1
			h-7.9V61 M405.4,72.9V6.6h18.1c5.7-0.1,11.3,0.4,16.9,1.5c3.9,0.9,7.6,2.6,10.9,5c4,2.9,7.1,6.8,9.1,11.3
			c2.1,4.9,3.2,10.2,3.1,15.5c0.1,5.4-1,10.7-3.2,15.7c-2.1,4.5-5.3,8.4-9.3,11.2c-3,2.2-6.5,3.8-10.1,4.7c-3.7,1-9.1,1.4-16.3,1.4
			H405.4z"/>
		<path class="st0" d="M528.8,23.9c-2.6-2.4-5.6-4.3-8.8-5.6c-3.1-1.2-6.4-1.8-9.7-1.8c-7.1,0-12.7,2.1-16.9,6.4s-6.3,9.9-6.3,17
			c0,7,2,12.5,5.9,16.6c3.9,4.1,9.2,6.1,16,6.1c7.4,0.1,14.5-2.7,19.9-7.7l-0.1,14.6c-3,1.8-6.2,3.1-9.5,4
			c-3.4,0.9-6.9,1.3-10.5,1.3c-10.6,0-19.3-3.3-26-9.9c-6.8-6.6-10.2-14.9-10.2-25c0-10.1,3.4-18.4,10.2-25
			c6.8-6.6,15.6-9.9,26.3-9.8c3.5,0,7,0.4,10.4,1.1c3.4,0.8,6.8,2,9.9,3.5L528.8,23.9"/>
		<path class="st0" d="M125.4,31c-9-18.8-28-30.9-48.9-31c-8.6,0.1-17,2.1-24.7,5.8c-13.3,6.4-24.3,20.2-27.9,34
			c-6,23.1,2.1,46.5,22,60.1c14.3,10.2,37,12.2,53,4.3c14.2-5.9,26.4-20.6,30.1-35.1C132.6,56.4,131.3,42.8,125.4,31z M128,50.1
			c0.1,0.9-0.1,2,0.4,2.8l-7.8,0.2l-0.6,0.2l0.2-0.3c-0.2-5.8-1.7-11.6-4.2-16.8c-0.1-2.3-2.3-3.9-3.3-6c-1.7-1.2-2.3-3.3-4.2-4.4
			c-0.4-0.4-0.5-1.1-1.1-1.2l0.9-0.2c1.9-1.8,3.7-3.7,5.4-5.8C121.8,27.7,127,38,128,50.1z M105.9,79.4c-0.7-0.7-0.7-1.9-1.9-1.9
			c-0.4-0.1-0.6,0.3-0.6,0.7l-0.1,0.5l-2.5-2.2c1.2-0.6,2-2.2,2.9-3.3c2.1-3.2,3.7-6.7,4.8-10.3c0.4,0.3,0.9,0.3,1.2,0.1
			c0.4-0.3,0.4-0.8,0.2-1.2l-0.9-1c0.3-1.6,0.4-3.2,0.4-4.9l0.6,0.2c2.5,0,5.1,0.1,7.5-0.1l-0.4,0.4c-0.6,9.8-4,18.6-10.9,25.8
			C106.7,81.3,105.8,80.5,105.9,79.4z M99.5,87.2c-1.4-1.3,0.9-2.4,1.3-3.6c-0.2-1.3-1.7-2-2.7-2.3c-0.5-0.3-0.4-1-0.4-1.4
			c0.5-0.4,1-0.9,1.2-1.5l0.2,0.5l3.3,3.5c-0.1,0.7,0.2,1.4,0.9,1.8c0.4,0.2,0.8-0.2,1.1,0h-0.2c-1.5,1.5-3.1,2.8-4.8,4l-0.4,0.5
			C98.9,88.2,100,87.9,99.5,87.2z M84.4,45.2c-0.4,0.2-0.9,0.5-1.4,0.2c-0.4-0.6-1.1-1-1.8-1.2c-0.5,0.1-0.9,0.8-1.5,0.4
			c1-1.1,2.7-1.3,3.4-2.7c0.2-0.7,0.3-1.4,0.3-2.2c-0.3-0.3-0.7-0.6-1-0.3c-0.6,0.9-1.8,1.1-2.4,2l-2-0.7c-0.3-1.8,0.1-4.1-0.4-5.6
			c1.1,0.3,2.2,0.5,3.3,0.7c2.7,0.8,5.3,1.9,7.7,3.5c-0.6,0.3-1.2,0.8-1.6,1.3c0,0.5,0.5,0.4,0.7,0.7l0.5-0.2
			C87.5,43.3,84.7,43,84.4,45.2L84.4,45.2z M86.7,67.7c-0.1,1-1.5,1-2.1,1.6c-0.4-0.2-0.1-0.5,0-0.8C85.1,68,85.9,67.6,86.7,67.7
			L86.7,67.7z M102,41.7c0.9,0.2,1.4,1.2,2.3,1.4c0.7,1.3,1.2,2.7,1.5,4.1c-0.7,0.8-0.8,2.6-2.4,2.3c-0.4-0.9,0.7-1.4,0.5-2.2
			c0.3-0.2,0.7-0.3,0.8-0.7c0-0.8-1.1-0.7-1.2-1.5c-0.3-0.5-0.9-0.4-1.3-0.6c-1-0.5-2,2.1-2.3,0c0.3-0.2,0.5-0.6,0.3-1
			c-0.9-0.5-1-1.8-2-2.2c-1.3,0-2.6-0.6-3.9-0.3c-0.8-0.2-1.8-0.8-2.5,0.1c-0.1,0.7-0.4,1.2-0.5,1.9c-0.3-0.2-0.6-0.4-0.8-0.8
			c2.4-2.7,5.1-5.3,7.6-8l0.1-0.3c1.4,1.5,2.6,3.1,3.6,4.8C102.2,39.9,100.2,41,102,41.7L102,41.7z M106.7,56.1
			c-0.4,1.5-0.4,3.1-0.8,4.6l-0.2,0.8c-0.5-0.9-0.8-2.1-1.9-2.7c-0.9-0.5-0.3-1.7-1.2-2.3l-0.8-0.8
			C103.2,56.3,105.1,56.1,106.7,56.1L106.7,56.1z M95.4,33.1c-1.4,1.6-3.3,3.1-4.5,4.8l-0.2-0.6c-3.5-2.8-7.7-4.5-12.2-5l-0.7,0.1
			l0.1-7.3l-0.3-0.6c3,0.3,5.9,1,8.7,1.8c3.6,1.3,6.9,3.2,9.8,5.7l0.6,0.3L95.4,33.1z M88.4,63.5l-0.1,0.4c0.5,0.5,1.3,0.6,1.5,1.4
			c-0.2,0.3,0.4,0.8-0.2,1c-1,0.1-0.5-1.3-1.6-1.2c-0.3-0.4-0.4-0.8-0.4-1.3C87.9,63.5,88.1,63.2,88.4,63.5L88.4,63.5z M94.8,74.8
			c0.5,0.1,1.1-0.1,1.5-0.5c-0.1-0.9,1-1.3,0.8-2.2c0.5-0.8,0.1-1.8,0.8-2.5c0.1-1-0.1-1.9-0.7-2.7c-0.6-0.4-1.1,0.1-1.7,0.2
			c-0.7,0.5-0.4,1.9-1.6,1.6c-0.3,0.3-0.8,0.4-1.2,0.3l-0.2-0.3c0.8-0.4,2.2-0.1,2.4-1.4c0.6-0.5,1.5-0.3,2.1-0.9
			c0.3-0.6,0.7-1.3,1.2-1.8l0.1-0.8c0.2,0.4,0.2,0.9,0.7,1.1s0.9-0.3,1.2-0.7l0.4-0.3c0.7,0.5,1.6,0.1,2.4,0.1
			c0.7-0.2,1.4-0.3,2.2-0.4c-0.8,3-2.1,5.9-4,8.4c-0.7,0.8-1.3,1.7-2,2.6c-0.2-0.6-0.2-1.5-0.7-2L98,72.5c-0.4,0.9-1.3,1.6-1.2,2.6
			c-0.7,1-2.3,0.2-3.3,0.7c-1.2,0.3-1.8-0.8-2.7-1c-1-0.4-2.2-0.5-3.2-1l0.3-0.5C90.3,73.4,92.6,73.9,94.8,74.8L94.8,74.8z
			 M82.9,3.3c10.8,1.3,20.9,6.1,28.8,13.6l-0.9,0.4c-1.5,1.6-3.2,2.9-4.1,4.7c-0.1-0.5-0.9-0.9-1.1-1.4c-0.2-1.5-1.6-2.9-2.9-3.6
			c-1.1-0.2-1.3-1.8-2.6-1.3c-1.1-0.9-2.4-0.2-3.5,0.2v0.1c-5.2-3-11.1-4.8-17.1-5.2c-0.3,0-0.4,0.2-0.8,0.2
			c0.3-0.2,0.2-0.9,0.1-1.3S78.4,9.3,78,9.5l-0.3,0.6c0.2-2.5,0.2-5-0.1-7.5C79.3,3.2,81.2,3,82.9,3.3z M80.8,14.2
			c4.6,0.6,9,1.8,13.2,3.8c0.6,1,1.8,1.4,2,2.6c-0.6,1.6,2.2,1.6,0.9,3.3c-0.1,0.5,0.4,0.8,0.6,1.2s-0.1,1.2,0.5,1.4
			c1,0.2,1.4-1.1,2.3-0.7c1.1,0.9,1.7,2.4,1.6,3.9c0.2,0.9,0.9,1.5,1.7,1.8c1.6-0.5,0.8,1.3,1.9,1.8c1.3,0.2,1.9,1.8,3.3,1.6
			c1.2,0.9,1.9,2.3,3,3.3l0.3,0.5c0.7,0.2,1-0.3,1.6-0.3c2,4.4,3.2,9.2,3.5,14l0.2,0.5c-2.6,0-5.3,0-7.9,0.2c-0.1-1.5,0-3.2-0.8-4.4
			c0.4-0.9,0.6-1.8,0.5-2.8c-0.2-0.4-0.5,0-0.7,0c-0.9,0.8-1,2-1.4,3c-0.7,1.2-0.9,2.6-0.4,3.9l0.3,0.3l-3-0.1
			c0.7-0.5-0.6-1.3,0.1-2.1l1.4-0.3c0.4-1,1.5-1.8,1.5-2.9c0.7-0.7,1-1.7,0.7-2.6c-0.7-1.5,1.1-3-0.2-4.4c0.1-0.4-0.1-0.8-0.5-1
			c-0.1,0-0.1,0-0.2,0c-0.4-0.1-0.9,0-0.9-0.6c0.2-0.4,0.9-0.8,0.7-1.4c-0.3-0.4-0.8,0-1.2-0.1c-0.1-0.6,1.1-1.3,0.1-1.9
			c-0.7-0.1-1.1,0.8-1.9,0.5c-0.4-0.2-0.5-0.7-0.3-1.1l-1.6-2c-0.2-0.2-0.6,0.1-0.7-0.3c0.1-1.6-1.8-2.5-2-4.1
			c-0.6-0.5-0.1-1.5-0.9-2c-0.4-0.3-0.9-0.7-1.5-0.5c-0.7-1-1.5-2-2.4-2.8l-0.6,0.3c0.1,0.8,1,1.2,1,2l-0.3,0.1
			c0.2,0.8,0.6,1.5,1.3,2c-4.3-3.1-9.3-5.2-14.6-5.9c-1,0-2.1-0.5-3.1-0.1c0.3-2.4,0.1-5,0.1-7.6l-0.3-0.5
			C78.6,14.3,79.7,14,80.8,14.2z M76.3,45.4l0.5,0.2c-0.6,0-1.2-0.3-1.7,0.1c-0.3,0.2-0.1,0.7,0,1c1,0.4,1.2,2,2.5,1.4
			c0.5,0.1,1.2,0.2,1.4,0.8c0.8,0.3,0.9,1.7,2,1.4c-0.1,0.5-0.2,1.4,0.4,1.8c-0.2,0.5-0.7,0.7-0.7,1.3L80.5,54
			c1,0.1,0.9,1.2,1.4,1.9c-0.2,0.8,0.1,1.6,0.7,2c-0.1,0.9-0.5,1.7-0.9,2.5c-1,0.5-2.8-0.8-3.2,1.1c-0.6,0.6-0.1,2.1-1.2,2.1
			c-2.1,0.2-4.3-0.3-6-1.6c1.1-0.6,3,0.2,3.4-1.4c0.3-0.2,0.4-0.6,0.3-1c0.4-0.5,0.8-1.2,1-1.8c-0.4-0.4-0.2-0.6-0.1-1.1
			c-1.1-1.1-2.6-0.5-4-0.5c-0.8,0.5,0,1.4-0.6,2c-1.1,0.1-1.1,1.2-1.9,1.8c-0.5-0.2-0.7-0.7-0.7-1.2h0.1l0.2,0.5c1,0.2,0.7-1,1-1.5
			s1.7-1.5,0.5-2c-0.1-0.3,0.2-0.6-0.2-0.8c-0.4,0.2-1,0.2-1.1,0.7c0.2,0.5,0,1-0.4,1.3h-0.2c0-0.3-0.1-0.6-0.4-0.7
			c-0.6,0-1.2,0.5-1.8,0.3c-0.9,0.2-1.8,0.3-2.7,0.4c-0.1-0.5,0.7-0.3,0.9-0.8c-0.1-0.8,0.4-1.3,0.8-1.9l0.9,0
			c0.2,0.3,0.5,0.4,0.8,0.3l0.3-0.5c0.8,0.5,0.3,2.8,1.9,1.8c0.2-1,0-2.2,0.5-3.1c-0.4-0.9,0.6-1.2,0.8-1.8c0.8,0.1,0.8-0.9,1.1-1.3
			c1.3-0.4,2.6-0.7,3.4-2c-0.3-0.7-0.1-1.7-0.7-2.2C74.9,45.2,75.8,44.9,76.3,45.4z M75.4,68.2c0.1,0.4-0.3,0.3-0.4,0.6
			c0.3,0.5-0.1,1.3,0.7,1.5c0.1,0.2,0.1,0.5-0.1,0.7c-0.1,0-0.1,0.1-0.2,0.1c-0.5-0.1-1.3-0.2-1.6,0.4s-0.1,1.5-0.3,2.3
			c-3.6-0.6-7-2.2-9.8-4.5c1.6-1.8,3.9-3.5,5-5.4c0.2,0.9,1.2,1.3,1.9,1.7c1.5,0.7,3.4,1.8,5.1,0.8l-0.6,0.4
			C75.6,67.3,74.8,67.8,75.4,68.2z M75,95.7l-0.8-0.5C64.2,94.7,55.6,90.5,48,84c1.2-0.1,1.7,1.5,3,1.1c1.5-0.2,2.6-1.3,4.2-1.1
			c0.8,0,1.7,0,2.2-0.7c0.2-0.8-0.6-1.2-0.8-1.9c5,3.9,11.1,6.2,17.5,6.5l0.7-0.3v7.2L75,95.7z M46.6,56.6L46.2,56
			c0.8,0.5,1.7,0.6,2.6,0.2c-1.3,0.5-0.8,2.1-1.3,3.1c-0.1,0.5,0.6,0.6,0.6,1.1c-0.7,0.3-0.7,1-1,1.5C47.4,60.1,46.7,58.4,46.6,56.6
			z M38.4,66c-0.7,0.1-0.5,0.9-0.8,1.3c0-1.9-0.8-3.8-1-5.7l-0.6-5l-0.3-0.5c2.5,0.2,5,0.3,7.5,0.2l0.6-0.3c-0.2,1.2-0.3,2.9,0.6,4
			c-0.3-0.3-0.7-1.3-1.4-1.3c-1.4,0.1-1.5,1.9-2.9,2c-1.1,1-1.3,2.3-1.5,3.6C39,64.8,38.1,65.4,38.4,66z M43.9,53.5l-0.7-0.3
			l-7.5,0.1c0.7-8.3,3-15.9,7.8-22.5l2.9-3.7v-0.5c1.8,2,3.7,4,5.7,5.7C47,37.9,44,45.1,43.6,52.7L43.9,53.5z M74.7,21.8
			c-1.4-0.3-2.8,0.2-4.3,0.3c-6.1,1.1-11.7,4-16.3,8.2L54,29.8c-1.8-1.7-3.5-3.8-5.5-5.1c1.7-1,3.3-2.5,5-3.7
			c6.3-4.2,13.6-6.7,21.2-7.1C74.5,16.6,74.5,19.2,74.7,21.8z M62.6,62.7l0.7,0.3c0.3-0.4-0.7-1.1,0.1-1.3c0.4,0.5,0.2,1.3,0.5,1.9
			c0.2,0.3,0.3,0.6,0.2,1c-0.8,0.8-1.6,1.7-2.3,2.7c-0.5-1.2-1.6-2.2-2.1-3.5c-0.8-1.4-1.2-3-1.9-4.4c0.7,0.8,2.4-0.1,2.4,1.4
			l0.4,0.1l0.5-0.1c0.2,0.3,0.8,0.4,0.3,0.7C61.4,62.1,61.9,62.6,62.6,62.7z M70.6,83.8l1.3,0.6c-4.7-1.2-9.8-2.8-13.9-6.2
			c-0.7-0.4-1.2-1.3-2-1.4c2-1.7,3.8-3.5,5.4-5.6c0.7,1.3,2.2,2,3.4,2.9c2.3,1.1,4.7,3.1,7.4,2c-1.1,0.2-2.1,0.8-2.8,1.6
			c-0.3,0.7-0.2,1.8-1.2,2.2C68.2,81.4,69.6,82.8,70.6,83.8z M53.3,74.3L53,72.6c-1.5-1.4-1.1-3.8-1.3-5.5c-1.1-0.9-0.2-2.3-1-3.2
			c0-1.6-2.5-2.1-1.7-3.8c-0.3-0.4-0.7-1-0.3-1.5s1.6,0,1.9-0.8l0.2-1.5c0.6-0.3,1.4,0.4,1.7-0.4c0.5-1.3-2-3,0.2-3.7
			c0.7-0.1,1.7-0.2,2,0.7c0.3,1,0.4,2.2,0.1,3.2c0.7,0.3,0,0.9,0,1.4c-0.4,0.2-0.8,0.6-1.3,0.5c-0.2-0.3-0.6-1-1.1-0.9
			c-0.4,0.6,0.1,1.2,0.1,1.8c-0.1,0.4,0,0.8-0.3,1.1l-0.6-0.2c-0.5,0.2-0.2,0.7-0.1,1c0.5,0.3,0.8,0.8,1.4,0.8l0.2-0.3
			c0-0.9,0.4-1.6,0.4-2.4l0.8,0.4c0.8,3.3,2.2,6.5,4.2,9.3l1,1c-2.5,2.2-4.8,4.6-7,7.1v0.1c0-0.1-0.1-0.6-0.4-0.4
			C51.9,75.2,53.7,75.5,53.3,74.3z M57.1,42.2c-0.7,0.5-1.4,1.1-1.8,1.9c-0.7,0.4-1.5,0.4-2,1.1c0,0.3,0.3,0.7-0.1,0.9
			c-0.6,0.6-1.9-0.2-2.2,1c-0.1,1-1.3,1.6-1.2,2.7c-0.7,0.4-0.5,1.3-0.5,2c0.4,0.4-0.2,1.2,0.5,1.5c-1.1-0.2-2.3-0.2-3.4,0.1
			c0.5-1.2,0.3-2.7,0.7-4c1.1-5.6,3.6-10.7,7.3-15c1.9,2,3.9,3.9,6,5.6C58.8,40,58.7,42.3,57.1,42.2z M65.1,63.3
			c0.5-0.5,0.9-1.1,1.1-1.8l0.9,0.5C66.3,62.1,65.8,62.9,65.1,63.3L65.1,63.3z M72.7,41.2c-0.2-0.4,0.3-0.8-0.1-1
			c-1.2,0.6-0.8,2-1.6,2.8c-0.1,0.7-1,0.4-1.5,0.7c-0.3-0.5-0.9-0.6-1.4-0.2c0,0,0,0,0,0c-0.7,0-0.8-1.3-1.4-0.7
			c-0.2,0.2-0.1,0.7-0.6,0.5l-0.4-0.3c0-0.4,0.7-0.3,0.4-0.8c-0.5-0.9-1.5-0.7-2.2-1.4h-0.6c3.2-3.4,7.2-4.9,11.6-5.4
			c0,1.9-0.2,4.1,0.4,5.9C74.4,40.5,73.5,41.6,72.7,41.2L72.7,41.2z M74.8,32.4c-1.4-0.3-2.7,0.3-4.1,0.5c-3,0.9-5.8,2.3-8.3,4.3
			L62,37.8c-1.9-1.7-3.7-4-5.8-5.4c5-4.4,11.4-7.1,18.1-7.7l0.4-0.3C74.5,27.1,74.5,29.8,74.8,32.4L74.8,32.4z M45.4,13.2
			C53.9,7,64.1,3.4,74.6,2.9l-0.2,0.8l0.1,6.5l0.2,0.7C64.4,11.3,54.5,15.4,47,22.5l-0.1,0.4c-1.8-2.1-3.8-4-6-5.8h-0.2
			C42.3,16.1,43.8,14.4,45.4,13.2z M25.2,48.4c1.4-11.1,6.3-21.4,13.9-29.6l0.2,0.7c1.8,1.8,3.7,3.8,5.5,5.4c-1.5,1-2.4,2.8-3.6,4.1
			c-4.9,6.8-7.7,14.9-8.1,23.2l0.2,1.1c-2.8-0.2-5.6-0.2-8.4,0C25.1,51.7,24.9,50,25.2,48.4z M38.7,90.2c-2.5-3.3-5.3-6.6-7.2-10.2
			c-4-7.3-6.3-15.5-6.6-23.8l7.5,0.1l0.7-0.3c-0.1,0.5-0.1,1-0.1,1.5L33,57.5l0.1,0.4c0.2,2.8,0.6,5.5,1.3,8.2l0.4,0.6
			c-0.5-0.5-0.9-1.1-1.2-1.7c-0.6,0.1-1.2,0.3-1.8,0.7c0.3,0.8-0.5,0.5-0.8,0.8L30.5,66c-0.6,0-1.2,0.1-1.4,0.7
			c0.1,0.4-0.4,0.6-0.5,0.9c-0.2,1.2-0.6,2.8,0.3,3.8c0,0.9,0.4,1.7,1.1,2.3l0.6-0.2c0.7,0.5,1.1,1.9,2.2,1.6
			c0.3-0.2,0.2-0.5,0.3-0.7c0.6,0.6,0.8,1.7,1.9,1.6c0.2,0.3,0.4,0.8,0.8,0.8c1.1-0.3,0.7,1.3,1.6,1.8c0.7,0.4,1,1.4,2,0.9l0.3-0.4
			l0.3,1c0.5,0.9,1.3,1.5,2.3,1.7c0.7,1,1.6,1.8,2.5,2.6l-0.7,0.2L38.7,90.2z M69.7,105.8c-10.9-1.5-20.5-6.2-28.9-13.5l5.6-5.6
			l0.1-0.3c7.7,7.4,17.1,11.2,27.7,11.9L75,98l-0.3,0.4v7.3l0.4,0.7C73.4,105.9,71.5,106.1,69.7,105.8L69.7,105.8z M76.3,75.1
			c-0.5,0.1-1.1,0-1.6-0.2l-0.2-0.5c0.8,0,1.2-0.9,2-0.8c0.5-0.4,0.6-1.2,1.2-1.4c-0.2-0.7,0.7-0.2,0.8-0.6c0.2-0.2,0.6-0.5,0.9-0.3
			c0.5,0.8,1.7,0.5,2.2,1.3l0.3-0.4V72c0.9-0.1,1.3,1.2,2.2,0.3v-0.8L84,71.3c0.6-0.3,1,0.9,1.8,0.5s1.1-1.2,1.9-1.2l0.2,0.2
			c0.1,1.6-1.2,2.6-2.5,3.3c-0.8,0.3-2.2,0.2-2.2,1.5c-0.9,0.8-1.7-0.5-2.8-0.2c-0.5-0.3,0-1-0.7-1.2C78.5,74.8,77.1,73.8,76.3,75.1
			L76.3,75.1z M78.3,88.8c1,0.4,2.7-0.4,3.2,0.7c-0.3,0.6-0.8,1.2-0.6,1.9c0.4,1,1,2.3,2.3,2.4c0.3,0.4,0.7,0.6,1.2,0.7
			c-2.2,0.4-4.5,0.3-6.5,0.9c0.1-2.2,0.1-4.5,0-6.7l-0.4-0.6C77.8,88.3,78,88.6,78.3,88.8L78.3,88.8z M78.4,106.2l-0.5,0.3
			c0.2-2.8,0.2-5.7,0-8.5c1.3,0.5,2.8,0,4.2,0l4.1-0.7c2.1,0.4,3.5,3.8,5.8,1.7c0.8-0.9,2.2-0.9,2.7-2.2c1.3-0.5,1.7-1.8,2.6-2.7
			c0.9-2.6,3.8-2.9,5.5-4.7c1.3-1.1,3-2.1,3.7-3.6l0.2,0.6l5.7,5.5C102.7,100.7,91.4,105.6,78.4,106.2L78.4,106.2z M128.1,56.5
			c-0.5,12.3-5.3,24-13.5,33.1l-0.2,0.4c-1.8-2.1-3.8-4.1-6-5.9c1.2-1,2.3-2.2,3.2-3.5c5.2-7,8.2-15.4,8.6-24.1l-0.3-0.7l0.4,0.3
			l7.7-0.1l0.4-0.2L128.1,56.5z"/>
		<path class="st0" d="M103.5,16.4c0.4-0.5-0.3-1-0.1-1.6c-0.2-0.5-0.7-0.9-1.2-1c-0.6,0.6-1-0.5-1.6,0.1l0.2,0.8
			C101.9,15.1,102,16.8,103.5,16.4z"/>
		<path class="st0" d="M80,8.7c-0.3-0.1-1-0.3-1.2,0.1v0.5c1.4,1.8,3.9,0.8,5.7,0.5c1.3,0.4,2.6,0,3.5-0.9V8.6
			c-0.9-1.3-2.6-1.5-4.2-1.6L80,8.7z"/>
		<path class="st0" d="M134.3,23.2c-1.2-4.8-2.9-9.4-6.9-12.9c-3.4-3-7.7-4-11.6-5.7l4.5,4.6c3.9,6.1,8.8,11.4,14.7,15.6L134.3,23.2
			z"/>
		<path class="st0" d="M36.2,5.3c-5.4,2.1-11.5,4.2-14.8,9.9c-2.3,3.1-2.4,7.1-4,10.5c3-2.8,6.4-5,9.1-8.3
			C29.4,13.2,32.2,8.8,36.2,5.3z"/>
		<path class="st0" d="M141.4,23.4c-1.1-5.1-5.7-10.6-10.9-11.6c2.1,1.5,3.7,3.6,4.6,6c1.6,5.3,2.4,10.8,4.7,15.8l-0.1,0.1
			c-0.9-1.4-1.3-3.1-2.7-4.3c-4-5.2-11-6.6-13.6-12.9c0.7,3.7,1.8,7.3,4.4,10.2c4.5,4.9,11.1,7.8,14.2,13.9v-0.1
			C140.8,34.6,142.7,29,141.4,23.4z"/>
		<path class="st0" d="M17.5,28.1c-1.9,1.8-3.5,4-4.5,6.5l-0.1-0.1c0.5-2.1,1.4-4,2-6c1.7-5.5,1.3-12.1,6.7-15.8
			c-2.8,0.8-5.4,2.5-7.2,4.8c-4.4,4.7-4,11.9-3.4,18.2c0.1,1.9-0.3,3.8-0.1,5.6c1.5-2.8,3.6-5.2,6-7.2c5.8-4.1,11.8-9.8,11.9-17
			C26.9,22.4,21.2,24.6,17.5,28.1z"/>
		<path class="st0" d="M144.8,24.6c4.8,6.5,5.9,16.9,2.4,24.3c-1.3,3.2-2.2,6.6-2.8,10c-0.2-0.6-0.3-1.4-0.5-2.1
			c-1.9-7.3-8.8-12.5-11.7-19.4c-0.9-2.3-1.6-4.6-2.1-7c3,5.6,10.5,8.5,12.6,14.7c0.8,1.6,0.8,3.5,1.3,5.2l0.2-0.2
			c-0.8-6.4-0.7-12.9,0.2-19.3c-0.1-3.4-0.4-6.7-2.3-9.4C143.4,22.1,144,23.5,144.8,24.6"/>
		<path class="st0" d="M10.1,22.6C6,28.8,9.4,36.7,9.2,43.8l-0.6,7.3l0.3,0.2c0.2-0.8,0.3-1.7,0.5-2.5c1-5.9,6.1-10,10.5-14.1
			c1-1,1.7-2.1,2.3-3.4c-0.4,3-1.2,5.9-2.5,8.6C16.2,46.7,9.8,52.2,8.6,60C8.1,52.5,3,47,3.5,39.1C3.4,32.7,6,27.5,9.8,22.7
			L10.1,22.6"/>
		<path class="st0" d="M149.3,66.8c-2.9,4-6.3,7.8-8.9,11.9c0.3-3.2,0.7-7.3-0.6-10.3c-2.2-6.7-4.1-13.4-4.7-20.7l0.1-2.8
			c1.6,7.5,9,12.6,8.5,20.9c0,1.9-0.3,3.7-0.8,5.5l0.1,0.1l0.3-0.4c1.1-4.1,1.6-8.4,3.3-12.2c2.4-5.5,5.4-11.1,4.1-17.7
			C154.4,49,153.3,59.5,149.3,66.8"/>
		<path class="st0" d="M8,64.2c0.8,2.7,1,5.7,2.1,8.3l0.3-0.1c-2.8-7.8,1.2-15,5.2-21.2c0.9-1.7,1.6-3.5,2-5.4
			c0.4,3.5-0.5,7.6-1,11.3c-1,4.7-2.4,9.1-3.7,13.6c-0.7,2.9-0.8,6-0.2,9l-0.4-0.3c-3-5.5-8.8-9.7-10.6-15.7
			c-1.4-4.8-2.3-10.3-1.3-15.4c0.3-2,0.9-4,1.7-5.9C0.4,50.8,6.1,56.9,8,64.2"/>
		<path class="st0" d="M138.1,79.6c-0.2,3.5-1.3,6.9-3.3,9.8h0.3c2.6-3.4,4.6-7.1,7.7-10.3c4.7-4.5,9.5-9.2,10.1-15.5
			c1.6,10.6-4.3,19.8-13.1,25.8c-3.6,2.4-7.3,4.6-10.8,7.3v-0.3c5.3-8.8,2.7-21,6-30.7l1.2-3.2C135.7,68.4,138.4,73.6,138.1,79.6"/>
		<path class="st0" d="M21.7,91.6c0.7,1.9,1.6,3.9,2.5,5.7C16.1,91.8,5.1,86.6,1.5,76.5C0,73.1-0.2,68.7,0.1,64.7
			c0.7,9,10.3,13.7,14.8,21.2c1,1.6,2.1,3.1,3.4,4.5c-0.2-1-1.1-1.8-1.4-2.7c-1.6-3.3-2.2-7-1.8-10.6c0.4-4.6,2.4-8.8,1.6-13.7
			C20.7,71.8,19.5,82.4,21.7,91.6"/>
		<path class="st0" d="M142.2,91.7c-6.3,4.7-13.9,6.3-19.7,12.2c-0.6,0.4-1.3,1-2,1c2.2-1.9,4.1-4.1,5.5-6.6
			c3.6-6.1,2.2-14.2,5.3-20.5c-1.7,2.1-3.4,4.3-4.9,6.6c-5.1,7.8-4.7,18-12.4,24.5c4.5-1.5,9.5-2,14.2-3.2
			c9-2.9,18.6-11.9,19.8-21.5C146.8,87.2,144.8,89.8,142.2,91.7z"/>
		<path class="st0" d="M29.2,90.2c-2-4.1-4.5-8-7.6-11.4c3.3,6.6,1.8,15.3,6.2,21.4c1.4,2,3.1,3.8,5,5.4l-0.1,0.1
			c-1.6-0.8-3.1-1.8-4.4-3C20.8,96.4,9.5,95.6,5,85.4c1.2,7.5,7,14.3,13.5,18.3c6,4.2,13.9,3.6,20.7,5.8C33,104.4,32,96.8,29.2,90.2
			z"/>
		<path class="st0" d="M111.3,111c-2.4,0.3-4.6,1.1-7.1,1.1c1.7-0.8,3.8-1,5.4-2.1c6.7-3.3,7.1-10.7,11.2-15.9
			c-5.5,3.7-9.8,8.6-14.8,13.3c-3.3,3-7.4,4.3-11.6,5.2v0.1l1.7,0.2c8.8,1.4,18,5.6,27.1,2.2c5.3-1.9,11.1-6.3,13.5-11.6
			C130.5,111.1,120.2,109.7,111.3,111z"/>
		<path class="st0" d="M32.5,94.9c4.1,5.5,5.2,13.6,12.7,16.3c1.3,0.7,2.8,0.6,4,1.3c-1.5,0.2-2.7-0.3-4-0.5
			c-9.6-2.1-21.4,0.6-28.6-7.6c3,5.4,7.9,9.5,13.8,11.4c8.4,2.8,17.2-0.3,25.1-2.3c1.2-0.3,2.5-0.2,3.6-0.6c-4.4-0.9-8.6-2.3-12-5.3
			C42.1,103,37.7,98.3,32.5,94.9z"/>
		<path class="st0" d="M105.8,118.7c5.9,2.2,13.4,1.6,18.5-2c-2.6,3.1-5.9,5.5-9.7,6.8c-8.1,3-16.6-0.1-23-5c-2.6-1.6-4.8-4-8.2-3.8
			c-1.1-0.1-2.3,0-3.4,0.3c6.4,3,12.2,7,17.2,11.9c-1,1-2,2-3.1,2.8c-5.1-5.5-10.7-10.7-16.9-13.7c-1.2,0.3-2.4,0.8-3.5,1.5
			c-5.4,3.3-10.1,7.5-14,12.4l-3.2-2.7c5-5.1,10.8-9.2,17.2-12.3c-6.2-2-10.2,3.2-14.9,5.8c-5.5,3.8-13.3,5.6-20,3
			c-3.7-1.3-7-3.6-9.6-6.6c5.2,3.6,13,4,18.9,1.6c8-3.4,16.2-7.8,25.8-5.7c1.5,0,3,1.5,4.4,0.2c7.2-1.7,14.7-0.8,21.3,2.7
			L105.8,118.7"/>
		<path class="st0" d="M181.4,96.1v13.7c0,5.1,2.3,7.3,5.3,7.3c3.4,0,5.5-2.3,5.5-7.3V96.1h3v13.5c0,7.1-3.7,10-8.6,10
			c-4.7,0-8.2-2.7-8.2-9.8V96.1H181.4"/>
		<path class="st0" d="M200.2,107c0-1.7,0-3.1-0.1-4.5h2.6l0.2,2.7h0.1c1.1-1.9,3.2-3.1,5.4-3.1c2.3,0,5.8,1.4,5.8,7v9.9h-3v-9.6
			c0-2.7-1-4.9-3.8-4.9c-1.9,0.1-3.5,1.3-4,3.1c-0.1,0.5-0.2,0.9-0.2,1.4v10h-3V107"/>
		<rect x="219" y="102.6" class="st0" width="3" height="16.6"/>
		<path class="st0" d="M220.4,99.5c-1.1,0-1.9-0.9-1.9-2c0-1.1,0.9-1.9,2-1.9c1,0,1.9,0.8,1.9,1.8c0,0,0,0.1,0,0.1
			c0.1,1-0.7,1.9-1.7,2C220.6,99.6,220.5,99.6,220.4,99.5L220.4,99.5z"/>
		<path class="st0" d="M230.5,98.6v4h4.3v2.3h-4.3v8.9c0,2,0.6,3.2,2.2,3.2c0.6,0,1.2,0,1.7-0.2l0.1,2.3c-0.9,0.3-1.7,0.4-2.6,0.4
			c-1.2,0.1-2.4-0.4-3.2-1.3c-0.9-1.3-1.3-2.8-1.2-4.4v-9H225v-2.3h2.5v-3l2.9-0.9"/>
		<path class="st0" d="M251.1,110c0-3-1.4-7.8-6.7-7.8c-4.8,0-7.7,3.9-7.7,9s3,8.3,8,8.3c1.9,0,3.8-0.3,5.5-1.1l-0.5-2.1
			c-1.4,0.6-3,0.9-4.5,0.8c-3,0-5.5-1.7-5.6-5.8H251C251.1,111,251.1,110.5,251.1,110z M239.6,109.2c0.2-2.1,1.5-4.9,4.6-4.9
			c3.3,0,4.1,3,4.1,4.9H239.6z"/>
		<path class="st0" d="M268.9,114.8v-20h-3v9.9h-0.1c-1.1-1.7-3-2.6-4.9-2.5c-4,0-7.4,3.4-7.3,8.9c0,5,3.1,8.4,7,8.4
			c2.3,0.1,4.5-1.2,5.5-3.2h0.1l0.1,2.9h2.7C269,118,268.9,116.3,268.9,114.8z M265.9,112.2c0,0.4,0,0.9-0.1,1.3
			c-0.4,2.1-2.2,3.6-4.4,3.6c-3.2,0-4.8-2.8-4.8-6.2c0-3.6,1.8-6.4,4.9-6.4c2.1,0,3.8,1.4,4.3,3.4c0.1,0.4,0.1,0.9,0.1,1.3
			L265.9,112.2z"/>
		<path class="st0" d="M281.1,119.1V96.1h3.2l7.3,11.7c1.5,2.4,2.9,4.9,4.1,7.5h0.1c-0.3-3.1-0.3-5.9-0.3-9.4v-9.7h2.8v23.1h-3
			l-7.3-11.7c-1.6-2.5-3-5-4.2-7.7h-0.1c0.2,2.9,0.2,5.7,0.2,9.5v9.9L281.1,119.1"/>
		<path class="st0" d="M311.8,110.7c-3.2-0.1-6.9,0.5-6.9,3.7c-0.1,1.4,0.9,2.7,2.4,2.9c0.1,0,0.3,0,0.4,0c1.8,0,3.4-1.1,4-2.8
			l0.1-1L311.8,110.7 M314.7,115.1c0,1.3,0.1,2.7,0.2,4h-2.6L312,117h-0.1c-1.2,1.6-3,2.5-5,2.5c-2.6,0.2-4.8-1.8-5-4.3
			c0-0.1,0-0.3,0-0.4c0-4,3.5-6.2,9.8-6.2v-0.3c0-1.4-0.4-3.9-3.7-3.8c-1.5,0-3,0.4-4.3,1.2l-0.7-2c1.6-1,3.5-1.5,5.4-1.4
			c5,0,6.2,3.5,6.2,6.8L314.7,115.1z"/>
		<path class="st0" d="M323,98.6v4h4.3v2.3H323v8.9c0,2,0.6,3.2,2.2,3.2c0.6,0,1.2,0,1.7-0.2l0.1,2.3c-0.8,0.3-1.7,0.4-2.6,0.4
			c-1.2,0.1-2.4-0.4-3.2-1.3c-0.8-0.9-1.1-2.4-1.1-4.4v-9h-2.5v-2.3h2.5v-3l2.9-0.9"/>
		<path class="st0" d="M330.6,102.6h3v16.6h-3V102.6z M332,99.6c-1.1,0-1.9-0.9-1.9-2c0-1.1,0.9-1.9,2-1.9c1,0,1.9,0.8,1.9,1.8
			c0,0,0,0.1,0,0.1c0.1,1-0.7,1.9-1.7,2C332.1,99.6,332.1,99.6,332,99.6L332,99.6z"/>
		<path class="st0" d="M345.2,117.2c2.9,0,5-2.7,5-6.5c0-2.8-1.4-6.3-4.9-6.3s-5,3.3-5,6.4C340.3,114.5,342.3,117.2,345.2,117.2
			L345.2,117.2 M345.1,119.5c-4.4,0-7.9-3.3-7.9-8.5c0-5.6,3.6-8.8,8.1-8.8c4.7,0,7.9,3.5,7.9,8.5
			C353.3,116.8,349.1,119.5,345.1,119.5L345.1,119.5z"/>
		<path class="st0" d="M357,107c0-1.7,0-3.1-0.1-4.5h2.6l0.2,2.7h0.1c1.1-1.9,3.2-3.1,5.4-3.1c2.3,0,5.8,1.4,5.8,7v9.9h-3v-9.6
			c0-2.7-1-4.9-3.8-4.9c-1.9,0.1-3.5,1.3-4,3.1c-0.1,0.5-0.2,0.9-0.2,1.4v10h-3L357,107"/>
		<path class="st0" d="M375.4,116.1c1.2,0.7,2.6,1.1,4,1.2c2.1,0,3.1-1.1,3.1-2.5s-0.9-2.2-3-3c-3-1.1-4.4-2.7-4.4-4.7
			c0-2.7,2.2-4.9,5.6-4.9c1.4,0,2.8,0.3,4,1l-0.7,2.2c-1-0.6-2.2-1-3.3-1c-1.8,0-2.7,1-2.7,2.2c0,1.4,1,2,3.1,2.8
			c2.8,1.1,4.3,2.5,4.3,5c0,3-2.3,5-6.1,5c-1.6,0-3.2-0.4-4.6-1.2L375.4,116.1"/>
		<path class="st0" d="M405.5,117.1c4.7,0,7.3-4.3,7.3-9.6c0-4.6-2.4-9.4-7.3-9.4s-7.3,4.6-7.3,9.6S400.8,117.1,405.5,117.1
			L405.5,117.1 M405.3,119.5c-6,0-10.2-4.7-10.2-11.7c0-7.3,4.5-12.1,10.5-12.1c6.3,0,10.3,4.8,10.3,11.7
			C415.9,115.2,411.1,119.5,405.3,119.5L405.3,119.5z"/>
		<path class="st0" d="M420.5,119.1v-14.3h-2.3v-2.3h2.3v-0.8c0-2.3,0.5-4.5,1.9-5.8c1.1-1,2.5-1.6,4-1.5c0.9,0,1.7,0.2,2.5,0.5
			l-0.4,2.3c-0.6-0.3-1.3-0.4-1.9-0.4c-2.5,0-3.2,2.2-3.2,4.8v0.9h4v2.3h-3.9v14.3H420.5"/>
		<path class="st0" d="M430.3,119.1v-14.3h-2.3v-2.3h2.3v-0.8c0-2.3,0.5-4.5,1.9-5.8c1.1-1,2.5-1.6,4-1.5c0.9,0,1.7,0.2,2.5,0.5
			l-0.4,2.3c-0.6-0.3-1.3-0.4-1.9-0.4c-2.5,0-3.2,2.2-3.2,4.8v0.9h4v2.3h-4v14.3H430.3"/>
		<path class="st0" d="M439.9,102.6h3v16.6h-3V102.6z M441.4,99.6c-1.1,0-1.9-0.9-1.9-2s0.9-1.9,2-1.9c1,0,1.9,0.8,1.9,1.8
			c0,0,0,0.1,0,0.1c0.1,1-0.7,1.9-1.7,2C441.5,99.6,441.4,99.6,441.4,99.6L441.4,99.6z"/>
		<path class="st0" d="M459.5,118.6c-1.5,0.7-3.1,1-4.7,1c-4.9,0-8.1-3.4-8.1-8.5s3.4-8.8,8.8-8.8c1.4,0,2.8,0.3,4.1,0.9l-0.7,2.3
			c-1.1-0.5-2.3-0.8-3.5-0.8c-3.8,0-5.8,2.8-5.8,6.3c0,3.8,2.4,6.2,5.7,6.2c1.3,0,2.5-0.3,3.6-0.8L459.5,118.6"/>
		<path class="st0" d="M473.2,109.2c0-1.9-0.8-4.9-4.1-4.9c-3,0-4.3,2.8-4.6,4.9H473.2 M464.5,111.4c0.1,4.1,2.6,5.8,5.6,5.8
			c1.6,0,3.1-0.2,4.5-0.8l0.5,2.1c-1.7,0.7-3.6,1.1-5.5,1.1c-5,0-8-3.4-8-8.3s3-9,7.7-9c5.4,0,6.7,4.8,6.7,7.8c0,0.5,0,1-0.1,1.4
			H464.5z"/>
		<path class="st0" d="M493.6,117.2c2.8,0,5-2.7,5-6.5c0-2.8-1.4-6.3-4.9-6.3s-5,3.3-5,6.4C488.8,114.5,490.8,117.2,493.6,117.2
			L493.6,117.2 M493.6,119.5c-4.4,0-7.8-3.3-7.8-8.5c0-5.6,3.6-8.8,8.1-8.8c4.7,0,7.9,3.5,7.9,8.5
			C501.7,116.8,497.5,119.5,493.6,119.5L493.6,119.5z"/>
		<path class="st0" d="M505.4,107c0-1.7,0-3.1-0.1-4.5h2.6l0.2,2.7h0.1c1.1-2,3.2-3.1,5.4-3.1c2.3,0,5.8,1.4,5.8,7v9.9h-3v-9.6
			c0-2.7-1-4.9-3.8-4.9c-1.9,0.1-3.5,1.3-4,3.1c-0.1,0.5-0.2,0.9-0.2,1.4v10h-3L505.4,107"/>
		<path class="st0" d="M534.4,116.8c1,0.1,2,0.2,3,0.1c6.3,0,9.7-3.6,9.7-9.8c0-5.5-3-8.9-9.2-8.9c-1.2,0-2.3,0.1-3.5,0.3
			L534.4,116.8 M531.4,96.4c2.1-0.3,4.2-0.5,6.3-0.5c4.2,0,7.2,1,9.2,2.8s3.2,4.6,3.2,8.3c0.2,3.3-1,6.6-3.3,9
			c-2.2,2.2-5.7,3.3-10.1,3.3c-1.8,0-3.6-0.1-5.4-0.3V96.4z"/>
		<path class="st0" d="M554,107.7c0-2,0-3.6-0.1-5.2h2.6l0.1,3.2h0.1c0.6-2.1,2.4-3.5,4.6-3.6l0.8,0.1v2.8c-0.3,0-0.7-0.1-1-0.1
			c-2.1,0-3.6,1.6-4,3.8c-0.1,0.5-0.1,1-0.1,1.4v8.8h-3L554,107.7"/>
		<path class="st0" d="M578.6,114.6c0,1.7,0,3.2,0.1,4.5h-2.6l-0.2-2.7h-0.1c-1.1,1.9-3.2,3.1-5.4,3.1c-2.6,0-5.6-1.5-5.6-7.2v-9.7
			h3v9.1c0,3.2,1,5.3,3.6,5.3c1.7,0,3.3-1.1,3.9-2.8c0.2-0.5,0.3-1,0.3-1.5v-10.1h3L578.6,114.6"/>
		<path class="st0" d="M594.6,109.1c0-0.5,0-0.9-0.2-1.3c-0.5-1.9-2.2-3.2-4.2-3.2c-2.8,0-4.9,2.4-4.9,6.3c0,3.2,1.7,6,4.8,6
			c1.9,0,3.6-1.3,4.1-3.1c0.2-0.5,0.2-1.1,0.2-1.6V109.1 M597.6,116.7c0,3.8-0.8,6.1-2.3,7.6c-1.7,1.4-3.8,2.1-6,2
			c-1.9,0-3.8-0.4-5.5-1.4l0.8-2.3c1.4,0.9,3.1,1.4,4.8,1.3c3,0,5.3-1.6,5.3-5.8v-1.8h-0.1c-1.1,1.8-3.1,2.9-5.2,2.8
			c-4.1,0-7-3.5-7-8.1c0-5.6,3.6-8.8,7.4-8.8c2.1-0.1,4.1,1,5.1,2.8h0.1l0.1-2.5h2.6c-0.1,1.2-0.1,2.5-0.1,4.5L597.6,116.7z"/>
		<path class="st0" d="M602,116.1c1.2,0.7,2.6,1.1,4,1.2c2.1,0,3.2-1.1,3.2-2.5s-0.8-2.2-3-3c-3-1.1-4.4-2.7-4.4-4.7
			c0-2.7,2.2-4.9,5.7-4.9c1.4,0,2.8,0.3,4,1l-0.7,2.2c-1-0.6-2.2-1-3.3-1c-1.8,0-2.7,1-2.7,2.2c0,1.4,1,2,3.1,2.8
			c2.8,1.1,4.3,2.5,4.3,5c0,3-2.2,5-6.1,5c-1.6,0-3.2-0.4-4.6-1.2L602,116.1"/>
		<path class="st0" d="M631.6,110.7c-3.2-0.1-6.9,0.5-6.9,3.7c-0.1,1.4,0.9,2.7,2.3,2.9c0.1,0,0.3,0,0.4,0c1.8,0,3.4-1.1,4-2.8
			l0.1-1L631.6,110.7 M634.5,115.1c0,1.3,0.1,2.7,0.2,4h-2.7l-0.3-2.1h-0.1c-1.2,1.6-3,2.5-5,2.5c-2.6,0.2-4.8-1.8-5-4.4
			c0-0.1,0-0.3,0-0.4c0-4,3.5-6.2,9.8-6.2v-0.3c0-1.4-0.4-3.9-3.7-3.8c-1.5,0-3,0.4-4.3,1.2l-0.7-2c1.6-1,3.5-1.5,5.4-1.4
			c5,0,6.3,3.5,6.3,6.8L634.5,115.1z"/>
		<path class="st0" d="M639.3,107c0-1.7,0-3.1-0.1-4.5h2.6l0.2,2.7h0.1c1.1-2,3.2-3.1,5.4-3.1c2.3,0,5.8,1.4,5.8,7v9.9h-3v-9.6
			c0-2.7-1-4.9-3.8-4.9c-1.9,0.1-3.5,1.3-4,3.1c-0.1,0.5-0.2,0.9-0.2,1.4v10h-3L639.3,107"/>
		<path class="st0" d="M669.2,109.3c0-0.4,0-0.9-0.1-1.3c-0.4-2-2.2-3.5-4.3-3.4c-3.1,0-4.9,2.7-4.9,6.4c0,3.4,1.7,6.2,4.8,6.2
			c2.1,0,3.9-1.5,4.4-3.6c0.1-0.4,0.2-0.9,0.1-1.3V109.3 M672.2,94.8v20c0,1.5,0,3.2,0.1,4.3h-2.7l-0.1-2.9h-0.1
			c-1.1,2.1-3.2,3.3-5.5,3.2c-4,0-7-3.4-7-8.4c0-5.5,3.4-8.9,7.3-8.9c2-0.1,3.9,0.8,4.9,2.5h0.1v-9.8L672.2,94.8z"/>
		<path class="st0" d="M700.3,118.4c-1.9,0.8-3.9,1.2-6,1.1c-6.4,0-11.2-4.1-11.2-11.7c0-7.2,4.8-12.1,11.9-12.1
			c1.9-0.1,3.7,0.3,5.4,1l-0.7,2.4c-1.4-0.7-3-1-4.6-0.9c-5.3,0-8.9,3.5-8.9,9.5c0,5.7,3.2,9.3,8.7,9.3c1.7,0,3.3-0.3,4.8-1
			L700.3,118.4"/>
		<path class="st0" d="M703.9,107.7c0-2,0-3.6-0.1-5.2h2.6l0.1,3.2h0.1c0.6-2.1,2.4-3.5,4.6-3.6l0.8,0.1v2.8c-0.3,0-0.7-0.1-1-0.1
			c-2.1,0-3.6,1.6-4,3.8c-0.1,0.5-0.1,1-0.1,1.4v8.8h-3L703.9,107.7"/>
		<path class="st0" d="M715.1,102.6h3v16.6h-3V102.6z M716.5,99.6c-1.1,0-1.9-0.9-1.9-2c0-1.1,0.9-1.9,2-1.9c1,0,1.9,0.8,1.9,1.8
			c0,0,0,0.1,0,0.1c0.1,1-0.7,1.9-1.7,2C716.6,99.6,716.6,99.6,716.5,99.6L716.5,99.6z"/>
		<path class="st0" d="M723,107c0-1.7-0.1-3.1-0.1-4.5h2.6l0.1,2.7h0.1c1-1.9,3-3.1,5.2-3c2.1,0,3.9,1.3,4.6,3.3h0.1
			c0.5-0.8,1.1-1.6,1.9-2.2c1-0.8,2.3-1.2,3.6-1.2c2.2,0,5.4,1.4,5.4,7.2v9.8h-2.9v-9.4c0-3.2-1.2-5.1-3.5-5.1
			c-1.6,0.1-3.1,1.1-3.6,2.7c-0.1,0.5-0.2,1-0.2,1.5v10.3h-2.9v-9.9c0-2.7-1.1-4.6-3.4-4.6c-1.7,0.1-3.2,1.3-3.7,3
			c-0.2,0.5-0.2,1-0.2,1.5v10H723V107"/>
		<path class="st0" d="M761.5,109.2c0-1.9-0.8-4.9-4.1-4.9c-3,0-4.3,2.8-4.6,4.9H761.5 M752.9,111.4c0.1,4.1,2.6,5.8,5.6,5.8
			c1.6,0,3.1-0.2,4.5-0.8l0.5,2.1c-1.7,0.7-3.6,1.1-5.5,1.1c-5,0-8-3.4-8-8.3s2.9-9,7.7-9c5.3,0,6.7,4.8,6.7,7.8c0,0.5,0,1-0.1,1.4
			H752.9z"/>
	</g>
</g>
</svg>
