<?xml version="1.0" encoding="utf-8"?>
<!-- Generator: Adobe Illustrator 22.1.0, SVG Export Plug-In . SVG Version: 6.00 Build 0)  -->
<svg version="1.1" id="Layer_1" xmlns="http://www.w3.org/2000/svg" xmlns:xlink="http://www.w3.org/1999/xlink" x="0px" y="0px"
	 viewBox="0 0 861.5 268.6" style="enable-background:new 0 0 861.5 268.6;" xml:space="preserve">
<style type="text/css">
	.st0{fill:#677F92;}
	.st1{fill:#063764;}
	.st2{fill:none;stroke:#063764;stroke-width:2;stroke-miterlimit:10;}
</style>
<title>UNOG</title>
<g>
	<path class="st0" d="M340.7,83.3h12.1V119c0,5.6,0.9,9.7,2.8,12.2s4.9,3.8,9,3.8c4,0,6.9-1.2,8.6-3.6c1.7-2.4,2.6-6.2,2.7-11.5
		V83.3h10.6v35.9c0,5.4-0.5,9.5-1.5,12.3c-1.1,2.9-3.1,5.5-5.6,7.4c-3.7,2.9-8.7,4.3-15,4.3c-6.7,0-12.1-1.5-16.2-4.6
		c-2.6-1.9-4.7-4.5-5.9-7.5c-1.1-2.9-1.7-6.9-1.7-12L340.7,83.3z"/>
	<path class="st0" d="M403.1,141.7V83.3h10.7l27,39.9V83.3h9.7v58.4h-10.8l-26.9-39.9v39.9L403.1,141.7L403.1,141.7z"/>
	<path class="st0" d="M493.2,143.1c-8.9,0-15.9-2.8-21.2-8.4s-8-13-8-22.3c0-9.4,2.7-16.8,8-22.4s12.5-8.3,21.6-8.3
		c9,0,16.2,2.8,21.6,8.3c5.3,5.5,8,12.9,8,22.2c0,9.5-2.7,17-8,22.5C509.7,140.4,502.4,143.1,493.2,143.1z M493.3,135.1
		c4.9,0.2,9.5-2.1,12.4-6.1c3-4.1,4.6-9.6,4.5-16.6c0-6.8-1.5-12.2-4.6-16.3c-4.9-6.7-14.3-8.2-21-3.3c-1.3,0.9-2.4,2-3.3,3.3
		c-3,4.1-4.6,9.6-4.6,16.4c0,6.9,1.5,12.3,4.5,16.4C484.1,132.9,488.5,135.2,493.3,135.1L493.3,135.1z"/>
	<path class="st0" d="M583.1,140.3c-6.2,1.7-12.5,2.7-18.9,2.8c-10.1,0-17.8-2.6-23.2-7.9c-5.4-5.3-8.1-12.9-8.1-22.8
		c0-9.8,2.7-17.4,8.1-22.6c5.4-5.3,13.1-7.9,23.1-7.9c6.4,0,12.8,0.8,19,2.2v9.5c-7.3-2.5-13.3-3.8-18-3.8c-6.2,0-11,2-14.3,5.9
		s-5,9.5-5,16.8c0,7,1.8,12.5,5.4,16.5s8.6,6,14.9,6c1.6,0,3.3-0.2,4.9-0.6v-19.2h12.1V140.3z"/>
</g>
<g>
	<path class="st1" d="M347.1,202.6v-30.7h-12.2v-3.7h29.2v3.6h-12.2v30.7L347.1,202.6z"/>
	<path class="st1" d="M370.3,202.6v-34.3h4.9v14.5h16.3v-14.5h4.9v34.3h-4.9v-16.2h-16.3v16.2H370.3z"/>
	<path class="st1" d="M406.7,202.6v-34.3h19.2v3.6h-14.3v11h12v3.6h-12V199h15.3v3.7L406.7,202.6z"/>
</g>
<g>
	<path class="st1" d="M450.8,168.3h4.9V190c0,3.5,0.6,6,1.9,7.5s3.3,2.3,6.1,2.3s4.6-0.7,5.8-2.2s1.7-4,1.7-7.5v-21.8h4.3V190
		c0,4.7-1,8.1-2.9,10.2c-1.9,2.1-5,3.2-9.2,3.2c-4.3,0-7.4-1.1-9.5-3.3s-3.1-5.6-3.1-10.2L450.8,168.3L450.8,168.3z"/>
	<path class="st1" d="M485.3,202.6v-34.3h4.8l17.3,26.5v-26.5h4.2v34.3h-4.8l-17.3-26.5v26.5H485.3z"/>
	<path class="st1" d="M521.8,202.6v-34.3h4.9v34.3H521.8z"/>
	<path class="st1" d="M545.1,202.6v-30.7h-12.2v-3.7h29.2v3.6H550v30.7L545.1,202.6z"/>
	<path class="st1" d="M568.4,202.6v-34.3h19.2v3.6h-14.3v11h12v3.6h-12V199h15.3v3.7L568.4,202.6z"/>
	<path class="st1" d="M595.6,202.6v-34.3H607c2.8-0.1,5.6,0.3,8.2,1.1c2.1,0.8,4,2.1,5.4,3.8c2.4,2.9,3.6,6.7,3.6,11.4
		c0,5.7-1.5,10.1-4.5,13.3s-7.3,4.7-12.7,4.7H595.6z M600.4,199h6.2c4.5,0,7.6-1.2,9.5-3.6c2-2.6,3-6,3-10.3c0-4-1-7.2-2.9-9.5
		c-1.1-1.4-2.6-2.4-4.3-2.9c-2.4-0.6-5-0.9-7.5-0.8h-4V199z"/>
</g>
<g>
	<path class="st1" d="M650.7,202.6v-34.3h4.8l17.3,26.5v-26.5h4.2v34.3h-4.8l-17.3-26.5v26.5H650.7z"/>
	<path class="st1" d="M709.8,202.6l-3.7-9.5h-14.6l-3.8,9.5h-4.5l13.6-34.3h4.8l13.4,34.3H709.8z M704.6,189.5l-5.8-14.8l-5.9,14.8
		H704.6z"/>
	<path class="st1" d="M729.5,202.6v-30.7h-12.2v-3.7h29.2v3.6h-12.2v30.7L729.5,202.6z"/>
	<path class="st1" d="M752.8,202.6v-34.3h4.9v34.3H752.8z"/>
	<path class="st1" d="M781.8,203.5c-4.4,0.2-8.6-1.7-11.5-5s-4.4-7.7-4.3-13.1c0-5.4,1.5-9.8,4.4-13.1c6.3-6.4,16.7-6.5,23.1-0.2
		c0.1,0.1,0.1,0.1,0.2,0.2c2.9,3.3,4.4,7.6,4.4,13.1s-1.5,9.9-4.4,13.2C790.7,201.8,786.8,203.5,781.8,203.5z M781.8,199.8
		c3.2,0.2,6.2-1.3,8.1-3.8c1.9-2.5,2.9-6.1,2.9-10.7c0-4.5-1-8-2.9-10.5c-3.6-4.4-10.1-5.1-14.5-1.5c-0.5,0.4-1,0.9-1.5,1.5
		c-1.9,2.5-2.9,6-2.9,10.5s1,8,2.8,10.6C775.7,198.5,778.7,200,781.8,199.8L781.8,199.8z"/>
	<path class="st1" d="M806.2,202.6v-34.3h4.8l17.3,26.5v-26.5h4.2v34.3h-4.7l-17.3-26.5v26.5H806.2z"/>
	<path class="st1" d="M849.5,203.5c-3-0.1-6-0.6-8.8-1.5v-4.8c3.9,1.8,7,2.7,9.5,2.7c1.7,0.1,3.3-0.5,4.6-1.5c1.2-1,1.8-2.5,1.8-4
		c0-1.2-0.4-2.5-1.1-3.4c-1.2-1.3-2.7-2.4-4.2-3.2l-2.4-1.3c-2.3-1.2-4.4-2.8-6.2-4.7c-1.2-1.5-1.8-3.3-1.8-5.2
		c-0.1-2.5,1-4.9,2.9-6.5c2-1.7,4.6-2.7,7.3-2.6c2.8,0,5.7,0.5,8.4,1.3v4.5c-3.6-1.4-6.3-2.1-8.1-2.1c-1.5-0.1-3,0.4-4.2,1.3
		c-1.1,0.8-1.7,2.1-1.7,3.4c0,1.1,0.4,2.2,1.2,3c1.3,1.3,2.8,2.3,4.4,3.2l2.5,1.4c2.4,1.2,4.5,2.8,6.2,4.8c1.2,1.5,1.8,3.5,1.8,5.4
		c0.1,2.8-1.1,5.4-3.3,7.2C855.7,202.7,852.6,203.6,849.5,203.5z"/>
</g>
<g>
	<path class="st1" d="M352.8,259.5c-4.4,0.2-8.6-1.7-11.5-5c-2.9-3.3-4.4-7.7-4.4-13.1c0-5.4,1.5-9.8,4.4-13.1
		c6.3-6.4,16.7-6.5,23.1-0.2c0.1,0.1,0.1,0.1,0.2,0.2c2.9,3.3,4.4,7.6,4.4,13c0,5.6-1.5,10-4.4,13.2
		C361.7,257.8,357.8,259.5,352.8,259.5z M352.8,255.9c3.2,0.2,6.2-1.3,8.1-3.8s2.8-6.1,2.8-10.7c0-4.5-1-8-2.9-10.5
		c-3.6-4.4-10.1-5.1-14.6-1.4c-0.5,0.4-1,0.9-1.4,1.4c-1.9,2.5-2.9,6-2.9,10.5s0.9,8,2.9,10.6C346.7,254.6,349.7,256,352.8,255.9
		L352.8,255.9z"/>
	<path class="st1" d="M377.2,258.7v-34.3h19.2v3.6h-14.3v11.5h12v3.6h-12v15.6H377.2z"/>
	<path class="st1" d="M404.1,258.7v-34.3h19.2v3.6H409v11.5h12v3.6h-12v15.6H404.1z"/>
	<path class="st1" d="M431,258.7v-34.3h4.9v34.3H431z"/>
	<path class="st1" d="M460.8,259.5c-5.3,0-9.5-1.6-12.4-4.7c-2.9-3.1-4.4-7.6-4.4-13.3s1.5-10.2,4.4-13.3c3-3.2,7.1-4.7,12.5-4.7
		c3.6,0.1,7.3,0.6,10.8,1.5v4.6c-4.7-1.6-8.3-2.4-10.9-2.4c-3.3-0.2-6.5,1.2-8.7,3.8c-2,2.5-3.1,6.1-3.1,10.7
		c0,4.4,1.1,7.8,3.3,10.4c2.2,2.6,5.5,3.9,8.9,3.8c3.7-0.1,7.3-1.2,10.4-3v4.2C468.4,258.7,464.6,259.6,460.8,259.5z"/>
	<path class="st1" d="M480.4,258.7v-34.3h19.2v3.6h-14.3v11h12v3.6h-12V255h15.3v3.6L480.4,258.7z"/>
</g>
<g>
	<path class="st1" d="M548.3,258.7l-3.7-9.5H530l-3.8,9.5h-4.5l13.6-34.3h4.8l13.4,34.3H548.3z M543.1,245.6l-5.8-14.8l-5.9,14.8
		H543.1z"/>
	<path class="st1" d="M568.1,258.7V228h-12.2v-3.6h29.2v3.6H573v30.7H568.1z"/>
</g>
<g>
	<path class="st1" d="M634.4,257.7c-3.5,1.1-7.2,1.7-10.9,1.8c-5.5,0-9.6-1.6-12.6-4.7c-2.9-3.1-4.4-7.6-4.4-13.4
		c0-5.7,1.5-10.1,4.4-13.3c3-3.2,7.1-4.7,12.4-4.7c3.7,0,7.4,0.5,10.9,1.5v4.5c-4.7-1.6-8.4-2.4-10.9-2.4c-3.3-0.2-6.5,1.2-8.6,3.8
		c-2.1,2.5-3.1,6.1-3.1,10.6s1.1,8.1,3.3,10.6s5.3,3.8,9.2,3.8c1.8,0,3.6-0.3,5.3-0.9v-11.2h4.8L634.4,257.7z"/>
	<path class="st1" d="M644.4,258.7v-34.3h19.2v3.6h-14.3v11h12v3.6h-12V255h15.3v3.6L644.4,258.7z"/>
	<path class="st1" d="M671.5,258.7v-34.3h4.8l17.3,26.5v-26.5h4.2v34.3H693l-17.3-26.5v26.5H671.5z"/>
	<path class="st1" d="M708.1,258.7v-34.3h19.2v3.6H713v11h12v3.6h-12V255h15.3v3.6L708.1,258.7z"/>
	<path class="st1" d="M744.6,258.7l-13-34.3h4.9l10.6,28.1l10.2-28.1h4.3l-12.4,34.3H744.6z"/>
	<path class="st1" d="M790.2,258.7l-3.7-9.5H772l-3.8,9.5h-4.5l13.6-34.3h4.8l13.4,34.3H790.2z M785.1,245.6l-5.8-14.8l-5.9,14.8
		H785.1z"/>
</g>
<g>
	<g>
		<g>
			<circle class="st2" cx="158" cy="112.2" r="22.7"/>
			<circle class="st2" cx="158" cy="112.2" r="43.8"/>
			<circle class="st2" cx="158" cy="112.2" r="66.5"/>
			<circle class="st2" cx="158" cy="112.2" r="87.6"/>
			<circle class="st2" cx="158" cy="112.2" r="110.7"/>
		</g>
		<g>
			<line class="st2" x1="158" y1="90.1" x2="158" y2="1.2"/>
			<line class="st2" x1="158" y1="222.9" x2="158" y2="133.9"/>
			<line class="st2" x1="180.4" y1="112.2" x2="269.3" y2="112.2"/>
			<line class="st2" x1="46.6" y1="112.2" x2="135.6" y2="112.2"/>
			<line class="st2" x1="173.4" y1="96.8" x2="236.3" y2="33.9"/>
			<line class="st2" x1="142.6" y1="96.8" x2="79.7" y2="33.9"/>
			<line class="st2" x1="142.6" y1="127.6" x2="79.7" y2="190.5"/>
			<line class="st2" x1="173.4" y1="127.6" x2="236.3" y2="190.5"/>
		</g>
	</g>
	<path id="Laurel" class="st1" d="M74.6,11.2C63.3,15.5,51.3,20,44,31.5c-4.3,6.7-4.9,14.7-8.2,21.7c6.2-5.8,13.4-10.2,18.7-17.1
		C60.8,27.7,66.3,18.4,74.6,11.2L74.6,11.2z M241.4,11.2c8.2,7.2,13.8,16.6,20.1,24.9c5.3,7,12.5,11.3,18.7,17.1
		c-3.4-7-4-14.9-8.2-21.7C264.7,20,252.6,15.5,241.4,11.2L241.4,11.2z M44.3,26.4c-5.7,1.5-10.5,5.2-14.8,9.9
		c-9,9.9-8.2,24.6-7,37.7c0.4,4,0.2,7.5-0.3,11.6c2.7-5.6,7.2-10.9,12.4-14.8C46.2,62.1,59,50.7,59.2,35.7
		c-3.9,10.8-15.6,15.2-23.4,22.6c-4.1,3.9-7.3,8.6-9.2,13.5l-0.3-0.2c1-4.3,2.8-8.2,4-12.4C33.8,47.7,33.2,34.1,44.3,26.4L44.3,26.4
		z M271.7,26.4c11.1,7.6,10.5,21.3,13.9,32.7c1.2,4.2,3.1,8.1,4,12.4l-0.3,0.2c-1.8-4.9-5-9.6-9.2-13.5
		c-7.8-7.4-19.6-11.8-23.4-22.6c0.2,15,13,26.4,24.6,35.2c5.2,4,9.7,9.3,12.4,14.8c-0.5-4.1-0.7-7.6-0.3-11.6
		c1.2-13.1,2-27.8-7-37.7C282.2,31.6,277.4,27.9,271.7,26.4L271.7,26.4z M20.6,46.9c-0.3-0.1-0.5,0.2-0.7,0.3C12.1,57,7,67.8,7,81.1
		c0,16.4,9.4,27.8,10.6,43.2c2.4-16.1,15.9-27.5,22.9-41.6c2.7-5.5,4.4-11.7,5.2-17.8c-1,2.6-2.6,5-4.7,7
		c-9.1,8.6-19.8,17.1-21.8,29.2c-0.3,1.7-0.4,3.5-0.9,5.2c-0.4,0.2-0.4-0.3-0.6-0.4l1.1-15.1C19.8,76.2,12,59.8,20.6,46.9L20.6,46.9
		z M295.4,46.9c8.5,13,0.8,29.4,1.9,44.1l1.1,15.1c-0.2,0.1-0.2,0.6-0.6,0.4c-0.5-1.7-0.7-3.5-0.9-5.2C294.8,89,284.1,80.6,275.1,72
		c-2.1-2-3.7-4.4-4.7-7c0.8,6.1,2.4,12.3,5.2,17.8c7,14.1,20.5,25.5,22.9,41.6c1.2-15.4,10.6-26.8,10.6-43.2
		c0-13.3-5.2-24.1-12.9-34C295.9,47,295.7,46.8,295.4,46.9L295.4,46.9z M4,87.7c-1.8,3.8-2.5,8.1-3.5,12.2c-2,10.7,0,22.1,2.9,31.9
		c3.6,12.3,15.7,21.1,21.8,32.4l0.8,0.7c-0.9-6.1-1.3-12.7,0.4-18.6c2.6-9.4,6-18.5,7.7-28.2c1.4-7.5,2.9-16,2-23.3
		c-1,3.9-2,7.8-4.2,11.2c-8.2,12.7-16.7,27.6-10.9,43.8c-0.1,0.2-0.3,0.4-0.5,0.3c-2.3-5.3-2.8-11.4-4.3-17.1
		C12.3,117.9,0.6,105.3,4,87.7L4,87.7z M312,87.7c3.4,17.5-8.2,30.2-12.2,45.4c-1.5,5.7-2,11.8-4.3,17.1c-0.2,0.1-0.4-0.1-0.5-0.3
		c5.8-16.1-2.7-31.1-10.9-43.8c-2.2-3.3-3.2-7.2-4.2-11.2c-0.9,7.3,0.7,15.8,2,23.3c1.7,9.7,5.1,18.8,7.7,28.2
		c1.7,5.9,1.3,12.5,0.4,18.6l0.8-0.7c6.1-11.3,18.2-20.1,21.8-32.4c2.9-9.9,4.9-21.2,2.9-31.9C314.5,95.8,313.8,91.5,312,87.7
		L312,87.7z M34.3,131.4c1.5,10-2.4,18.8-3.4,28.3c-0.8,7.8,0.6,15.4,3.6,21.9c0.9,1.9,2.5,3.7,3,5.7c-2.9-2.6-5-6-7-9.3
		C21.1,162.7,1.3,152.8,0,134.2c-0.7,8.3,0,17,2.8,24.4c3.8,10.2,11.2,18,19.7,24.7c8.8,6.9,19.2,12.3,27.2,18.4
		c-1.6-4-4.1-7.6-5.2-11.8C39.8,170.8,42.4,148.9,34.3,131.4L34.3,131.4z M281.7,131.4c-8.1,17.6-5.5,39.5-10.2,58.5
		c-1,4.2-3.6,7.9-5.2,11.8c8-6.1,18.5-11.5,27.2-18.4c8.5-6.7,15.8-14.5,19.7-24.7c2.8-7.3,3.5-16.1,2.8-24.4
		c-1.3,18.6-21.1,28.5-30.6,43.8c-2,3.3-4.1,6.6-7,9.3c0.5-2,2.1-3.7,3-5.7c3-6.6,4.4-14.1,3.6-21.9
		C284.1,150.1,280.2,141.3,281.7,131.4L281.7,131.4z M44.5,163.2c6.9,13.7,3.9,31.4,12.8,44.3c2.8,4,6.7,7.9,10.3,11.2l-0.2,0.2
		c-3.3-1.5-6.2-3.8-9.1-6.2c-15.6-12.9-39-14.6-48.3-35.7c2.5,15.5,14.8,29.2,28.1,37.9c12.6,8.3,28.8,7.3,42.8,12
		c-12.9-10.4-14.9-26.1-20.7-39.9C56.6,178.3,50.7,170.6,44.5,163.2L44.5,163.2z M271.5,163.2c-6.2,7.5-12.1,15.1-15.7,23.7
		c-5.8,13.7-7.7,29.4-20.7,39.9c14-4.6,30.2-3.7,42.8-12c13.3-8.7,25.6-22.4,28.1-37.9c-9.3,21.1-32.7,22.7-48.3,35.7
		c-3,2.5-5.9,4.7-9.1,6.2l-0.2-0.2c3.6-3.2,7.5-7.1,10.3-11.2C267.6,194.5,264.7,176.9,271.5,163.2L271.5,163.2z M66.9,196.6
		c8.5,11.4,10.9,27.9,26.3,33.8c2.7,1,5.9,1.2,8.2,2.7c-3,0.5-5.6-0.5-8.4-1.1c-19.9-4.2-44.3,1.2-59.2-15.8
		c5.7,11.1,17.3,19.9,28.6,23.6c17.4,5.7,35.5-0.7,51.8-4.7c2.4-0.6,5.2-0.4,7.4-1.2c-9.1-1.9-17.9-4.6-24.9-11
		C86.7,213.6,77.7,203.8,66.9,196.6L66.9,196.6z M249.1,196.6c-10.8,7.2-19.8,17-29.9,26.3c-7,6.4-15.8,9.2-24.9,11
		c2.2,0.8,5,0.6,7.4,1.2c16.3,4.1,34.4,10.4,51.8,4.7c11.2-3.7,22.9-12.5,28.6-23.6c-14.9,17-39.3,11.5-59.2,15.8
		c-2.8,0.6-5.4,1.5-8.4,1.1c2.4-1.5,5.5-1.7,8.2-2.7C238.2,224.5,240.6,208,249.1,196.6L249.1,196.6z M141.6,233.5
		c-15.3,0-29,7.4-42.4,13c-12.1,5-28.3,4-39-3.4c5.3,6.7,12.4,10.8,19.8,13.6c13.7,5.5,29.6,1.3,41.3-6.2
		c8.4-5.4,15.6-12.9,25.5-12.9c1.8,0,3.5,0.2,5.3,0.6c-14,5.6-26.7,15.5-36.7,25c1.8,2.1,4.2,4,6.4,5.8c11.1-11.5,23.7-23.9,36.2-29
		c12.5,5.1,25.1,17.5,36.2,29c2.2-1.8,4.6-3.8,6.4-5.8c-9.9-9.5-22.7-19.4-36.7-25c1.8-0.4,3.5-0.6,5.3-0.6c10,0,17.2,7.6,25.5,12.9
		c11.6,7.4,27.6,11.6,41.3,6.2c7.4-2.8,14.5-6.9,19.8-13.6c-10.8,7.4-26.9,8.4-39,3.4c-13.4-5.6-27.1-13-42.4-13
		c-5.6,0-11.1,0.9-16.4,2.5C152.6,234.4,147.1,233.5,141.6,233.5L141.6,233.5z"/>
	<g>
		<path class="st1" d="M179.2,32.3l-0.8-0.5c0,0-1.2-0.1-1.2-0.5v-0.1l0,0c-0.1-0.1-0.7,0.8-1.2,1.1c0.5,0.3,1.3,0.7,1.3,0.7
			c0.9,0,1.5,0.7,1.5,1s1.2,0.2,1.2,0.2l0.1-0.8L179.2,32.3z"/>
		<path class="st1" d="M218.6,78.3L218.6,78.3L218.6,78.3L218.6,78.3C218.6,78.3,218.7,78.3,218.6,78.3z"/>
		<path class="st1" d="M175.7,32.3c0.1,0.1,0.2,0.1,0.3,0C175.5,32,175.2,31.9,175.7,32.3z"/>
		<polygon class="st1" points="174.8,36 174.8,36 174.8,37 176,37.1 175.7,36.2 		"/>
		<polygon class="st1" points="173.5,32.1 173.4,32.1 172.2,32 172.2,32.6 173.1,32.7 173.9,33.9 174.4,33.4 173.6,32.2 		"/>
		<path class="st1" d="M187.6,47c-0.5,0-1.6-0.7-1.4-1.2c0.2-0.5-1.9-0.9-1.9-0.9s-1.9-1.8-1.2-1.6c0.7,0.2,0.3-0.8,0.3-0.8
			s-1.4,0.2-1.7,0.1c-0.3-0.1-0.2-1.2-0.2-1.2s-0.7-0.2-1.2-0.1l0,0c-0.1,0-0.2,0.1-0.2,0.1c0,0.3,0.5,0.3,0.7,1s0.1,1.8,1.2,2
			s1.2,0.5,1.4,0.9c0.1,0.5,1.4,0.5,1.4,0.5l0.9,0.5l2.7,2.3v-0.9C188.3,47.8,188.1,47,187.6,47z"/>
		<path class="st1" d="M209.8,31.3l1.7,0.5c0,0,2.1,2.5,2,1.3c-0.2-3.5-1.8-3.5-2.4-4.2c-0.1-0.2-0.4-0.3-0.7-0.3l0,0
			c-0.9,0-2.2,0.6-2.1,1.3C208.4,30.6,208.9,31.1,209.8,31.3z"/>
		<polygon class="st1" points="218.6,78.3 218.6,78.3 218.6,78.3 		"/>
		<path class="st1" d="M216.1,70.2c-0.2,0.5,0.2,1,0.7,1s0.8,0.2,1.2,0.5c0.5,0.2,0.8,0.5,1.2,1l1.2-0.3c0,0,0.1-1.2-0.3-0.8
			s-0.8-0.8-1.2-0.7c-0.5,0.1-0.7-0.5-1.2-1c-0.5-0.5-0.3-0.7-0.9-1c-0.3-0.2-0.5-0.3-0.7-0.3l0,0c-0.1,0-0.3,0.1-0.3,0.3
			C215.8,69.4,216.3,69.6,216.1,70.2z"/>
		<polygon class="st1" points="175.7,30.4 175,30.1 175,30.1 174.6,31.1 175.2,31.4 		"/>
		<path class="st1" d="M219.4,73.6L219.4,73.6l-1.4,0.1c0.3,0.5,1,0.8,1,1.3c0,0.5-0.2,0.8,0.5,0.9c0.7,0.1,1.2-0.1,1.4,0.5
			c0.2,0.5,0.2,1.5,0.1,2c-0.1,0.5,0.1,1.2,0.7,1.2s0.7,0.1,0.7,0.5s0.7-1.3,0.7-1.3c-0.5-0.5-1-1.5-1-1.5s-0.5-1.6-0.5-1.8
			c0-0.2-0.8-0.5-1.2-0.5C220,74.7,219.4,73.6,219.4,73.6z"/>
		<polygon class="st1" points="211.4,65.2 211.3,64.2 211.3,64.2 210.6,64.3 210.7,65.4 		"/>
		<polygon class="st1" points="225.7,101.1 226.4,101.4 226.7,100.7 226.1,100.4 		"/>
		<path class="st1" d="M223.1,82.3c-0.3,0.2-0.5,0.7-0.9,1s0.7,0.8,0.7,1.2s0.2,2,0.2,2s0.8,0.3,0.9,0.8c0.1,0.5,0,1.4,0.3,1.5
			s1,0.5,0.8,1s-0.2,1.4-0.2,1.4l0.5,1l0.9,0.5c0,0,0.3-2.7-0.2-2.9s-0.3-1.7-0.3-1.7s0.5-2.2-0.3-2.2s-0.2-1.2-0.8-1.5
			c-0.5-0.3-0.2-2-0.5-2.4c-0.2-0.5-0.2-1-0.8-1.4c-0.1-0.1-0.1-0.1-0.1-0.1l0,0C222.9,80.9,223.4,82.1,223.1,82.3z"/>
		<polygon class="st1" points="227.2,97.4 226.5,97.3 226.5,97.3 226.4,98.2 227.1,98.4 		"/>
		<path class="st1" d="M206.4,76.5c0,0-0.2,2.2-0.9,2.6H204c0,0,0.3,0.5,0.7,1c0.3,0.3,1.2,1,0.3,1.5s0.1,0.3,0.1,0.3
			s-0.1,2.4-1.2,2s-1.4,1.3-1.4,1.7c0,0.5,4,0.6,3.4,0c-0.3-0.3,0.5-1.2,0.5-1.2s2.7,0.2,3.3,0.2c0.5,0,1-0.1,0.7-0.7
			s-1.4-0.5-1.4-0.5s-1.4,0.3-2.6-0.3c-1.2-0.7,0.2-0.9,0.5-0.9c0.2,0,1.2-0.8,0.8-1.4c-0.5-0.5,0-1.6,0-1.2c0,0.5,1.2,0.7,1.5,0.3
			c0.2-0.3,0-1.4-0.5-1.7c-0.5-0.3,1-0.5,0.5-1.2c-0.5-0.5-0.7-1.3-0.7-1.3l0,0C208.4,76,207.8,77,206.4,76.5z"/>
		<path class="st1" d="M224.9,159.2l-0.2,0.7c0.1,0,0.1,0.1,0.2,0.1l0.1,0.6c-0.1,0.1-0.1,0.1-0.1,0.2l0.5,0.5
			c0.3-0.4,0.5-0.8,0.4-1.2C225.6,159.5,225,159.3,224.9,159.2z"/>
		<path class="st1" d="M224.7,159.9L224.7,159.9L224.7,159.9z"/>
		<polygon class="st1" points="225.7,157.8 226.8,157.9 226.9,157 225.8,156.8 		"/>
		<path class="st1" d="M225.8,156.8L225.8,156.8L225.8,156.8z"/>
		<path class="st1" d="M218.8,123.7c0.5,0.1,0.9,0.3,0.5-1c-0.1-0.4-0.5-0.6-1-0.6l0,0c-1-0.1-2.1,0.6-1.8,1.1
			C217.3,124,218.4,123.6,218.8,123.7z"/>
		<rect x="204.9" y="145.2" class="st1" width="0.8" height="2.2"/>
		<path class="st1" d="M146,36.4c0,0,1.7,0.1,1.8,0.5c0.1,0.3,1.2,0.5,1.4,0.1c0.1-0.3,0.5-1-0.5-1s-0.8-0.5-1.2-1
			c-0.1-0.2-0.8-0.3-1.4-0.2c-0.6,0.1-1.2,0.1-1.2,0.3C145.2,35.8,146,36.4,146,36.4z"/>
		<polygon class="st1" points="109.2,14.5 107.9,12.2 107.9,12.2 		"/>
		<polygon class="st1" points="118.3,42.1 117.8,42.6 118.5,43.3 118.9,42.8 		"/>
		<path class="st1" d="M119.8,34.8l-1.2-2.3l0,0l0,0L119.8,34.8L119.8,34.8z"/>
		<polygon class="st1" points="194.6,83.2 194.7,83.8 195.8,83.7 195.8,83 		"/>
		<polygon class="st1" points="218.9,108.5 220.1,108.7 220.2,108 219,107.8 		"/>
		<rect x="210.7" y="79.5" class="st1" width="0.7" height="0.8"/>
		<polygon class="st1" points="212.8,80.2 212.2,79.9 212.2,79.9 211.9,80.6 212.5,80.9 		"/>
		<polygon class="st1" points="208.7,74.8 208.6,74.1 207.5,74.2 207.5,74.9 		"/>
		<polygon class="st1" points="177.2,9.3 177.3,9.2 178.6,8.4 178.2,7.9 178.2,7.9 177.2,8.5 176.5,8.1 176.1,8.7 177,9.2 		"/>
		<rect x="209.3" y="74.9" class="st1" width="0.7" height="0.5"/>
		<path class="st1" d="M195.8,83L195.8,83L195.8,83z"/>
		<polygon class="st1" points="198,84.8 197.6,85.7 198.2,85.9 198.6,85.1 		"/>
		<path class="st1" d="M199.9,86.6c-0.4,0-1,0.1-1.2,0.1c-0.5,0.1-0.5,0.5,0,1.2l1.4-0.2c0,0,1-0.5,0.8-0.8
			C200.8,86.6,200.4,86.6,199.9,86.6z"/>
		<polygon class="st1" points="216.2,108.7 215.8,109 215,109.4 214.3,109 213.9,109.6 214.8,110.1 215,110.2 215.2,110.1 
			215.8,109.8 215.9,110 216.6,109.7 216.3,109.2 		"/>
		<path class="st1" d="M189.6,85L189.6,85L189.6,85z"/>
		<path class="st1" d="M151.5,128L151.5,128l-1,0.1l0.1,1.6l0.7,0.5l1.2,0.3c0,0,1.7-0.5,1.8-1.8l-2.6-0.1L151.5,128z"/>
		<path class="st1" d="M161.2,120c0.5,0.1,0.1-1.6,0.1-1.6l0,0l-2,1.5c1,0.1,1.2,1.2,1.2,1.6C160.7,122.5,160.7,120,161.2,120z"/>
		<polygon class="st1" points="167.1,151.3 168,150 167.3,149.8 167.3,149.8 166.5,150.4 166.8,150.7 		"/>
		<polygon class="st1" points="180.9,146.3 180.5,145.8 179.6,146.3 180,146.9 		"/>
		<path class="st1" d="M167.6,120c0.5,0.3,1.5-0.4,0.9-0.8c-1.7-1.2-1.6-2.6-2-3.7c-0.1-0.2-0.3-0.4-0.5-0.5l0,0
			c-0.2,0-0.4,0.1-0.5,0.5v1.5C165.5,117.2,167,119.7,167.6,120z"/>
		<path class="st1" d="M176.9,138L176.9,138L176.9,138z"/>
		<polygon class="st1" points="149.4,107.2 148.2,107.1 148.2,107.1 147.9,107.7 147.4,107.7 147.3,108.5 147.9,108.5 148.1,109.3 
			147.6,109.7 147.4,110.3 146.5,110.5 144.5,112.5 144.3,113.4 143.8,114.2 143.1,115.9 140.7,116 140.3,118.1 140.6,119.8 
			142.6,120.6 142.9,119.5 143.5,119.1 143.7,118 144.1,117.2 144.8,116.4 145,115.5 146.2,114.8 147.5,114.5 148.1,113.8 
			148.3,112.5 148.4,111.5 148.9,110.8 150.2,110.2 150.2,108 149.6,108 		"/>
		<path class="st1" d="M157.8,90.7L157.8,90.7L157.8,90.7z"/>
		<path class="st1" d="M111.1,123.6L111.1,123.6c-0.3,0-0.5,0.2-0.5,0.5l0,0c0,0.3,0.2,0.5,0.5,0.5s0.5-0.2,0.5-0.5
			C111.5,123.9,111.3,123.6,111.1,123.6z"/>
		<path class="st1" d="M116.2,119.3L116.2,119.3L116.2,119.3z"/>
		<path class="st1" d="M155.1,137.2c0,0-0.4,0.7-1.1,0c-0.1-0.1-0.1-0.1-0.3-0.1l0,0c-0.5,0-1,1.8-1.3,2.2c0,0,0.3,1,0.7,0.9
			c0.5-0.1,0.8-0.3,1.3-0.4c0.4-0.1,0.6-0.7,0.7-1.5C155.4,137.5,155.1,137.2,155.1,137.2z"/>
		<path class="st1" d="M168.7,179.4L168.7,179.4L168.7,179.4z"/>
		<path class="st1" d="M208.7,167.2c-0.5-0.3,0.5,0.5,0.8,1c0.2,0.5,0.9,0.5,1.2,0c0.1-0.3,0.1-0.9,0.2-1.4l-0.7-0.7
			C209.9,167.1,209.1,167.5,208.7,167.2z"/>
		<path class="st1" d="M219.3,168.8l-0.5-0.5l-0.1-2.9c0.5-1.5-2.2-3.7-2.4-3.2c-0.2,0.5-1.7,0.1-1.7,0.5c0,0.5-0.9,2.7-0.5,3.5
			c0,0.1,0,0.1,0.1,0.1l-1,2.8c-0.3,0.6-0.6,1.2-0.5,1.6l0,0l1,0.5l0.1,2c0.7,0.7,2.4,0.7,3.8,0.5l1.8-2
			C219.4,170.5,219.3,168.8,219.3,168.8z"/>
		<path class="st1" d="M155.9,136.3L155.9,136.3c0,0.1-0.4,1.1,0.1,1.2c0.5,0.1,0.3,0.3,0.6,0.5l-0.3,0.6c-0.4-0.5-0.7,0.4-0.4,0.7
			s-0.6,0.1-0.6,0.4s-0.3,0.5,0,0.7c0.3,0.2-0.1,0.3-0.4,0.5c-0.3,0.3,1.4,0.3,1.4,0.3s-0.3-0.7,0.1-0.7c0.1,0,0.1,0,0.2,0l0.3-4.4
			L155.9,136.3z"/>
		<path class="st1" d="M185.2,80.9c0-0.5-1.2-1-1-0.3s-0.8,1-1,0.8c-0.2-0.2-0.9,0.7-0.9,0.7c0,0.3-0.2,0.8,0.5,1
			c0.7,0.1,1.9-0.5,2,0.2c0.1,0.2,0.1,0.4,0.1,0.6l1.9-1.9C186.5,81.5,185.2,81.3,185.2,80.9z"/>
		<path class="st1" d="M192.8,84c-0.1-0.4-1.4-2.2-2-2.2l2.1,2.5C192.8,84.2,192.8,84.1,192.8,84z"/>
		<path class="st1" d="M189.6,84.4L189.6,84.4L189.6,84.4L189.6,84.4L189.6,84.4c0,0,0.7,0.1,1.2,0.3l-1.9-2.2l-2,2.2
			c0.2,0,0.3,0,0.5,0C188.1,84.6,189.6,84.4,189.6,84.4z"/>
		<path class="st1" d="M192.4,87.3L192.4,87.3L192.4,87.3z"/>
		<path class="st1" d="M146.2,158l-1,0.3l-0.7,1l-1.4,0.5l-0.2,2.4l-0.7,0.5v1l-0.8,0.2v0.5l-1.2,0.1l0.7,1.7l0.9,0.5
			c1.6,0.2,0.9,2.2,0.9,2.2l0.9,0.1l0.5,1.3l0.9,1.8c0.3,1.4,1.4,1,1.8,1c0.5-0.1,0.9,1.4,0.9,1.4l4.5,0.1c0,0-0.2,0.5,0.5,0.7
			c0.4,0.1,2.2,0.3,3.7,0.3l2.7-0.7c0.4-0.3,1.2-0.4,2-0.4c0.7,0.1,1.4,0.2,1.9,0.5c1.2,0.9,2.9,0.3,2.9,0.3l1.2,1.5l1.4,2.5l0,0
			l0,0l0.2,0.5l1.9,0.5l1.4,0.3l0.5,2l1,0.1l0.3,1.3c1.2,0.9-0.3,2.9-0.3,2.9v2.5l0.9,0.5l-0.1,1l1.5,1.5l1.7,0.1l2.8,3l2.9,2l2,0.6
			l0.5,1.8l0.9-0.1l0.7-0.5l2.7-0.1l1.4-1.3l1.5-0.2l10.7-9l0.7-3.7v-1.1c2-1.5,2.2-4.1,0.2-4.3c-1.4-0.2-0.8-1.7,0.5-2l0.8-0.3v-1
			l2.6-2.4V172l-5.6-4.7c-1.2-0.4-1.2-1.8-0.8-3.2l3.1-6.7c-0.2-2.3-0.7-4.8-0.7-4.8l-0.9-0.5l0.2-2.8h-1.2l-2,2.6l-0.2,0.7
			l-1.4,2.4c-2,1-6.2,0.6-6.5,0.3c-0.3-0.3-2.7-1.4-2.7-1.4s-1.8-1.5-2.2-1c-0.3,0.5-1.9-0.5-1.9-0.2s-1.5-0.8-1.5-0.8l-2.2-0.8
			l1.7-0.3l-0.3-1.1c0.1-0.1,0.1-0.1,0.2-0.1l0,0l2.6,1.4c0.3,0.5,1.8,0.3,1.8,0.3l0.5,0.5c0,0,0.9-0.1,1.5,0.5
			c0.5,0.7,3.5,0.1,3.5,0.1l0.8,0.7l1.2,0.5l2.1,0.1l1.6-2.2l0.6-0.6l-0.1-1.4l0.8-0.7v-1.2l0.7-0.2l0.1-2.5l0.5-0.1v-5.5l-1.7-1.6
			c-0.1,0.5-1.9,0.5-1.9,0.5s-0.5,0.8-0.8,0.8s0.5,1,0.2,1.7c-0.2,0.7-1.2,0.7-1.2,0.7l-1.7,0.5l-0.5,0.5h-1.8l-0.1-1
			c0.2-0.2,0.3-0.5,0.5-0.7l1.4-0.4l1.2-0.5l0.5-1.2c0.1-1.2,1.5-1,1.5-1s2.6-2.2,2.7-3.2c0.1-1,1-3.9,2.6-3.9h2.9
			c1.2-0.5,0.8-2,0.8-2l1.5-0.2l0.2,0.8c0,0,2,0.2,2.2-0.1s0.7-1.2,1.2-0.8s2.4-0.8,2.4-0.8c0.1-0.8,2.9-0.5,2.9-0.5l0.3-1
			c0,0-1.9-2.6-2.2-2.6s-2.2-1.6-2.4-1c-1.8-0.5-1.7-3-1.7-3l-0.7-1.6c0-1-1.7-2.9-2-2.6c-0.7-0.5-0.9-1.1-0.8-1.6l0,0l2.2-2.7
			c0.1-0.1,0.2-0.3,0.2-0.3l0.5-1.6l1.9-0.5l0.2-1.5l-0.8-0.1c0,0,1.2-2,1.7-2c0.5,0,4.3,0,4.6-0.2s1-2,1-2.4s0.9-0.5,1.2-0.5
			c0.3-0.1,1.2-1,1.4-1.5s-0.5-3.3-1-2.9C220,97.7,219,98,219,98l-0.3,1.3l-0.5,0.5c0,0,0.1,0.3,0,1.2s-1.2,1.3-1.2,1.3l-0.5,0.5
			c0,0-2.7,0.1-3.1,0c-1-0.5-0.3-1.8,0.3-1.7s-0.1-2-0.1-2l0.9-0.1c0,0,0.1-2,0.5-2s-0.1-0.7-0.5-1c-0.5-0.3-1-1.5-1.5-1.4
			s-2.2,0-2.2,0l-0.3,0.7l-1.2,0.2c0,0,0.1,0.9-0.1,1.2c-0.7,0.8-3.3,2.5-2.2-0.3l0.3-0.7v-1l-2-0.1c0,0-1-0.3-1-0.8s-0.1-1-0.1-1
			l-2.4-2.6l-2.9-0.3l-0.2-0.5l-1.7-0.2c-0.3-0.1-0.5-0.2-0.7-0.3l-2.6,0.8c-0.1,0.3-0.2,0.7-0.1,1.1c0.3,1.7,0.9,2.4-0.2,2.4
			c-1.2,0-1.4-0.9-1.4-0.9S191,91.6,191,92s-0.3,1.4,0,1.8s-0.5,1.2-0.8,0.8s-1.2-1.4-1-1.7c0.2-0.3-1.6-2.5,0.2-2.9
			c1.8-0.3-0.1-1.4,0.5-1.6l0.9-0.5h0.9l0.5-0.5l0,0l-1.4-0.2l-0.9-0.1l-1.7-0.1c-1.7,1.2-2,2.5-2,2.5c-0.7,1.5-2.4-0.1-2.4-1.2
			l-3.9,0.1c-0.6,0-1.2-0.1-1.2-0.1c-0.3,1-1.9-0.1-1.5-0.8c0.5-0.7,0.5-1.2,0.5-1.2l-0.5-0.1l-0.7,1.3c-1.6,0-2,0.9-1.7,1.5
			c0.3,0.5-0.5-0.1-0.7,0.7c-0.2,0.8,0.1,0.8,0.8,1.2s-0.3,0.3,0.1,0.9c0.3,0.3,1,0.3,1.2,0.3l-0.9,0.9c-0.7,0.3-1.7,0.1-1.7,0.1
			c0,0.2-0.1,0.4-0.3,0.5c-1.8-1.5-3.8-2.7-6-3.6c0.3-0.3,1-0.3,1.2-1c0.5-1.3,0.7-3.3,0.7-3.3s-1.8-0.1-1.9,0.5
			c-0.1,0.5-1.2,0.9-1.2,0.9s-0.9,0.3-0.5,0.8c0.3,0.5-0.7,0.7-0.7,0.7s0.1,0.3,0.1,0.6l-7.1,1.6l0,0l0.2,2.7l-1.2-0.4h-0.7
			l-0.3-0.7l-0.7-0.1v2.5l0.7,0.5l0.5,0.5l1.2,0.1l0.2,1.4l2.9,0.1l0.3,0.5l1.7,0.1l3.3,3.3l-0.2,1l-0.5,0.3
			c0.2,0.8-1.5,0.3-1.5,0.3v0.7l0.8,0.1l0.8,0.5l1.2-2c1.2-0.8,1.8,0.3,1.9,1c0.1,0.7-0.5,0.5-0.5,0.5v1.6l0.7,0.2
			c1.2,1.4-0.5,2.2-0.5,2.2l-0.3,1.2c-0.3,1-1.6,0.8-1.6,0.8l-0.5,0.7l-1.4,0.3l2.6,0.3c0.3-1,1-1.2,1.3-0.7s0.3,1.3,0.3,1.3
			l0.7,0.1l-0.1,1.3l0.7,0.2v3.7l0.8,0.9c1.4-0.5,1.4,0.3,0.7,0.8s-0.2,2.5-0.2,2.5l-0.5,0.5v1l-0.7,0.5v1.3c-1.2-0.5-2.5-0.3-2.9,0
			c-1-0.7-3.2-0.5-3.2,0.1c0.7,0.9-0.8,1.2-0.8,1.2l-0.8,0.9c0.5,1.2-0.5,1.3-0.5,1.3v2.2l-1.4,1.3l0.1,2l3.5,2.1
			c0.1,0.1,0.2,0.2,0.2,0.2h1l0.1-0.5l-0.5-2.6v-2.5l1.2-1.3c0.1,0,0.1-0.1,0.2-0.1l0,0c1,0,0.7,2.3,0.7,3.1l0.1,2.9l0,0
			c0,0.3,0.1,0.6,0.1,0.6l0.5,0.2l-1,0.8l-0.9,1l-1.2-0.3l-1.4-0.1l-0.5-0.8l-0.8-0.1l-0.1,1.6l-0.5,0.7l-1.4,1.4
			c1.4,0,0.5,0.7-0.2,1.1l-2.7,0.9c-0.1-0.1-0.3-0.1-0.5-0.1v0.8l-0.9,0.1l0.8,0.9l0.6,0.1v1.9v0.1c0,1.5-3.7,0.5-4.1,0.1l-0.1,2
			l-0.7,0.1l0.1,1.4l-0.1,2l1.2-0.2v0.8l3.1,0.1l0.6-0.6l2.7-2.9l1.2-1.2l2.6-0.5c0.2-1.2,1.4,0.2,1.4,0.2c1.2-0.1,1.4,0.7,1.4,0.7
			l1.5,0.2c1.2,0.3,0.5,0.5,0.5,1c0.1,0.7,0.7,0.5,0.7,0.5l0.2-1.5l0.7,0.1l-0.7-0.8l-1.2-0.5l-1.4-0.5c-0.9-1.3,0.2-1,1.2-0.9h1.5
			c0,0,1.7,2.3,1.7,2.9c0,0.5,0.8,0.7,0.8,0.7l1-0.1l0.3,0.8h1l0.3,0.7h2l0.1-1l-1.9-0.3l-0.1-1.2l-1.4-0.3c-0.5-2,0.3-2.5,0.9-1.6
			l0.7,0.1l-0.2-1.7l0.8-0.2l-0.2-2.4l-0.7-0.2v-1.2l2.9,0.1c-0.2-1.5,0.1-2.2,0.1-2.2l0,0l0,0l0,0h0.8l0.1,0.5l3.5,0.3h0.1
			c1.4,0.8,0.7,1.8,0.2,2c-0.5,0.2-1.2,0.2-1.2,0.2l-0.2,0.5l-2.9,0.2l-0.2,1.2c-1.5-0.2-2,1.4-1.7,2.2c0.3,0.8,0,1.5,0,1.5l1.2,0.5
			l1.6-0.5c0.2-1.2,1.2-1.4,2.2-2c0.9-0.7,2.4,1.3,1.9,2.2c-0.1,0.1-0.1,0.2-0.1,0.3c-1.7,1.2-3.5,2.2-5.4,3.2l0,0
			c-3,1.4-6.1,2.6-9.4,3.3c-0.1-0.1-0.1-0.1-0.1-0.1l-1.2-0.3l-0.1-1.7c-0.2-1.2-2.4-1.2-2.2-0.3c0.1,0.8-4,0.3-4.1,0.3l-2.7,2
			l-2,0.2l-0.9,0.5l-0.3-0.7h-0.9l-0.5,0.7l-4.4,1.9c-0.3,0.3-0.4,0.5-0.3,0.6C147.4,157.4,146.2,158,146.2,158z M182,134.3
			c0-0.7,0.2-1.6,0.1-1.9c-0.1-0.3,0.7-0.7,1.2-0.7l0,0c0.3,0,0.5,0.1,0.4,0.5c-0.3,1,0,1.5,0,1.5c1.5-1.4,2.7,0.1,2.6,0.5
			s0.8,0.7,1.4,0.3s1.2,1,1,1.7s-2.2,0.5-2.4-0.1s-0.5-0.5-0.7-0.1c-0.2,0.3-1,0.5-1.5,0.3l-0.5-0.5c0.1-0.1,0.1-0.3,0-0.4
			s-0.3-0.1-0.6-0.1L182,134.3z"/>
		<path class="st1" d="M240.5,71.5c0,0-1.6-1.2-1.5-1.7c0.1-0.5-1.6-1.7-1.5-2.2c0.1-0.5-1.5-1.4-1.4-1.8s-0.8-1.7-0.8-1.7l-1.7-1.6
			l-0.2-1l-1.4-0.1l-2.7-3.3l0.1-1l-0.8-0.1v-1.3l-0.8-0.5l-1.2-0.1l-2.5-2.7l-0.2-1.3h-1.2l0.2-2l-0.8-3c-0.4,0.1-0.9,0.1-1.2,0
			c-0.8-0.3,0.3-1.2,0.3-1.2V44l-0.7-0.7c0,0-1.9,0.2-2-0.1c-0.1-0.3-0.5-1.8-0.5-1.8l-0.1-2l-0.8-0.3l-0.1-0.7l-1.2,0.1v-1.4
			l-0.7-0.2l-0.7-0.3l-0.1-1.4l-2.5-0.1l-0.8-1.2l-0.9-1.4l-2.9-0.2l-0.7-0.7l-1.2-0.2l-0.8-0.3l-0.3,0.5l-2.2,0.1l-0.1,0.7
			c-0.7,0.3-2.5,0.3-3.9,0.3l-2.3,1.8c-0.1,0.4-0.3,0.7-0.5,0.7c-0.5,0-0.3,1.5-0.3,1.5s1.5,0,1.9,0.1c0.5,0.1,0.5,1.3,0.5,1.3
			c1.7-0.1,2.4,2.2,2.2,2.8c-0.2,0.5,0.7,0.5,0.7,0.5s0,1.8-0.2,2.3c-0.2,0.5,1.5,0.8,1.9,1.5c0.5,0.7-0.2,3-0.5,3.1
			c-0.3,0.1,0.9,0.5,0.8,1c-0.1,0.5,0.3,0,0.5,1c0.1,0.9,0.3,2.9,0.3,2.9l1.6,0.1c0.2-1.5,3.1-1.6,3.6-1.4c1.9,0.7,3.4,3.7,3.4,4.3
			s-1.2,0.8-1.2,0.8l0.1,0.7l0.9,2.9c1.6,1,2.8,3.1,2.6,3.5c-0.2,0.5,1.4,0.3,1.4,0.3c0.2-2,2.2-1.4,2.2-0.7
			c0.1,0.7,0.5,2.2,0.5,2.2l0.5,1l0.8,0.8l1.2-0.1l0.3,0.7l1.5,0.2c0,0,1.2,1.4,1.4,1.7c0.1,0.3,1.8,0.2,2.2,0.3
			c0.5,0.1,1.2,0.5,1.2,1c0.1,0.5,0.8,1.5,0.8,1.5s1.4,0.3,1.5,0.8s0.7,1.5,0.7,1.5l1.2,1l0.1,1l1.2,0.1l0.3,1.4l2-0.1l1.2-0.8
			c0.3-0.2,0.7-0.4,1-0.6l1.8-2.5c0.2-0.6,0.5-1.2,1.3-1C241.3,74.3,240.5,71.5,240.5,71.5z"/>
		<path class="st1" d="M225.1,100.2c-0.3-0.3,0.3-2,0.3-2s0.5-1,0-1.8c-0.5-1,0.1-2,0.5-2.4l-0.9-0.5l-0.9-0.1l-0.7,0.1
			c-0.2-0.7-0.4-1.4-0.7-2.2l0,0l0.5,0.1v-0.7l-0.8-0.2c-0.1-0.5-0.3-1-0.5-1.4l-0.1-2.4l-0.8-0.5l0.2-0.9l-0.9-0.3l0.5-1.5
			l-0.8-1.6H219c-0.5-1.1-1.1-2.2-1.7-3.2c0.1-0.1,0.3-0.1,0.5-0.2c0.6-0.1,0.8-0.2,0.9-0.2l0,0l0,0l-0.1-1.2l-1-0.7l-0.3-1.4
			c0,0-1.2,0.2-1.2,0.9c0,0.1-0.1,0.3-0.2,0.3c-0.8-1.3-1.6-2.5-2.5-3.7c0-0.1,0.1-0.1,0.1-0.2c0.5-0.8,0.2-1.3-0.5-1.5
			c-0.8-0.2-0.8-0.2-1-1.2c-0.2-0.9-1.2-1.2-1.2-1.2l-0.3-1.4l-0.8,0.5c-0.5-0.5-0.9-1-1.4-1.6l0.4-1.3c-0.5-0.1-0.7-0.3-0.8-0.6
			l-1.3-2.4c-0.4-0.3-0.8-0.4-1-0.2c-0.5,0.3-0.3-2.4-0.3-2.4s1-0.7,1.5-0.3c0.5,0.3-3.8-5.7-4.8-5.2c-0.9,0.5-2.9-0.5-2.9-1.6
			c0.1-1-4.1-4.5-4.1-4.5s-1.4-0.9-1.6-0.2c-0.2,0.7-0.7,1.2,0,1.5c0.7,0.3,0.5-0.5,1.4,0.2c0.8,0.8,2.2,1.8,1.7,2.5
			c-0.5,0.7-1.2,0.9-1.2,0.9l0.8,1h1.2l0.2,2c0,0,1.4,0.7,1.7,1.5c0.2,0.5,0.3,0.9,0.2,1.2l-1.1,2.6c0.1,0.8,1,1.2,1,1.2l0.5,0.1
			c0.3,0.3,0.7,0.6,1.1,0.9v1c0.8-0.2,2,0.7,2.2,1.5l1.9,1.9l0,0c0.5,0.5,0.4,0.6,1.1,1.1c0.2,0.1,0.4,0.3,0.6,0.3
			c0.3,0.4,0.7,0.8,1.1,1.2l-0.3,0.3c0,1.3,0.6,1,1.2,0.8c0.2,0.2,0.3,0.5,0.5,0.7c0.1,0.7,0.1,1.8,1.3,1.7c0,0,0,0,0.1,0
			c1.4,2,2.8,4,4,6l0.1,0.1l0,0c0.2,0.3,0.4,0.7,0.5,1c-0.3,0.2-0.4,0.5-0.4,0.5l-1.8,0.2V83l-0.9,0.3l0.1,1.2l1.2-0.1
			c0,0,0,1.4,0.3,0.8c0.3-0.5,3.2,0.1,2.9,1.5c-0.1,0.5,2.9,2,2.5,3.9c0.2,0.1,0.4,0.1,0.5,0.2c0.5,1.6,1,3.2,1.4,4.8l-0.2,0.4
			c0,0,0.2,0.1,0.4,0.3c0.3,1.4,0.7,2.9,0.9,4.3c-0.1,1.2-0.3,2.4-1,2.8c-1.4,0.8,0.1,0.3,0.1,0.3l-0.2,2.5c0.3,1.2,0.9,0.5,1.2,0
			c0.2-0.3,0.3-0.5,0.5-0.7l2.2-4.3C225.3,100.8,225.3,100.4,225.1,100.2z"/>
		<path class="st1" d="M191.4,52.3c-0.2-0.8,0.9-1.2,1.5-0.2L194,52l0.2-1l-1.6-1.3h-1.2c0,0-0.1,0.9-0.9,0.5s-0.3-0.2-1-0.3
			c-0.6-0.1-0.5,1.2-0.3,1.8l2.3,1.2C191.5,52.7,191.5,52.5,191.4,52.3z"/>
		<path class="st1" d="M160,33.5c0.1-0.5,0.2-0.5,0.9-0.7c0.7-0.1-0.1-1.5-0.8-1.4c-0.5,0.1-1-0.1-1.2-0.4v3.1
			C159.6,34.1,159.8,33.9,160,33.5z"/>
		<path class="st1" d="M144,128.2c0.5-0.9,1.5-1,1.5-1l0.3-0.8l3.1,0.1c0.2-1.3,1.7-0.8,1.7-0.2c0,0.5,1.2,0.1,1.2,0.1l0.8-1.3h1.2
			l0.1-1.4l0.5-0.3v-2c1.8-0.5,1.6-2.3,1.6-2.3l0.5-0.5l-0.2-0.8c-0.9-0.3-0.5-1.2,0.1-1c0.5,0.2-0.8-1-0.8-1
			c-0.7,0.5-1.2-0.7-1.2-0.7h-1.8v-1.6l-0.2-1.5l-1.7-0.8l-1.2,1.2l-0.2,1.6v1l-1.2,0.2l-0.2,3.1l-0.9,0.3l0.1,1.2l-1.2,0.3
			l-1.2,0.3l-0.2,1.5l-0.9,0.5l-0.5,1.4l-0.5,3.3l1.4,1.3C143.9,128.3,143.9,128.3,144,128.2z"/>
		<path class="st1" d="M154.2,96.5c-1.4,0,0-1,0-1l0.2-1.7h-1.2l-0.2-2.4l-3.3-1.8l-0.1-1.3l0.5-0.3l-0.9-0.3l-0.7,0.9l-0.2,1
			l-1.2,0.2v0.5h-0.7v0.7c-1.6,0.9-3.2,2-4.6,3.3H138l-1.1-0.1c-0.5,1-1.6-0.1-1.6-0.1c-0.2-0.7-1.8,0-1.8,0c0,1.3-2.2-0.5-2.2-0.5
			l-3.9-2.9c-2.2-2-5.6,0.5-5.8,1.2c0.1,0.9-0.7,0.9-1.4,0.7l-2.6-0.6c-0.5,0-1,0.1-1.1,0.5c-0.3,0.9-1.8,0.7-1.8,0.7l-0.2,0.5
			l-1.2,0.2l-0.2,0.7l-1.4,0.2l3.4-0.1c0.9-0.1-0.3,2-0.9,1.8l-1.6,0.1l-0.5,0.5h-1.5l-0.7,1l-2.2-0.1c0,0-1.2,1-1.2,1.4
			c0.1,0.3-0.2,1.4-0.5,1.4s-1,1-0.8,1.4s-0.7,1.5-0.7,1.5l-0.2,1.2l-0.7,0.2v3.1l-1.4,0.9v1.4l-0.6,0.7l-1.2,2.7l0.1,0.6l-1.7,1.8
			l0.2,1.8l-1,0.3l-0.2,0.8l-0.5,2.4l1.2,0.1c0.5-0.2,0.5,1.5,0,1.7s-1.7,0.7-1,1.2c0.7,0.5-1.8,0.3-1.8-0.3c0-0.7-1.4-1.3-1.7-1
			c-0.2,0.1-0.5-0.2-0.7-0.5l-2.9-1c-1.3,0.1-2.4,0.5-2.4,0.5l-0.5,1.8c-1.2,0.2-2,2.3-2,2.3c-1,0.3-1.8,1.6-1.5,2s-0.5,0.5-0.5,0.5
			v2.5l-0.5,0.8l0.1,2.7c0.7,0,0.5,1.3,0.5,1.3c-1.2,0.1-0.9,1.6-0.9,1.6l-2.4,0.8l-0.5,0.7l-2.9-0.1l-0.8,0.8l0,0l-3.1-0.8h-3.3
			l-0.2-0.5l-1.2-0.2l-0.1-1.3l-1.7,0.1l-0.3,0.7l-1.8,0.1c0.1,1.2-1.8,2.9-2,2.4c-0.2-0.5-1.5-1.7-0.9-2c0.5-0.2,2-0.5,2-0.5v-0.8
			l-4.2-0.1l-0.5,0.7l-1.7,0.1v1.8l-0.8,0.2c-0.5,0.3,0.1,1.6,0.1,1.6c0.8,0.8-0.1,2-0.1,2c-0.7,0.7,0.5,2,0.5,2
			c0.9,0.2-0.5,0.9-0.5,0.9c0.2,1.2,0.9,1.5,0.9,1.5c-0.7,1.2,0.5,1.7,0.5,1.7l0.1,2l0.8,0.5v1.3l0.5,0.8h1.8l-0.1-2.9
			c-1.6-1.8,1.4-2.3,1.5-1.6c0.1,0.7,1.4,1,1.4,1c0.2,1.7,2.2,2.7,2.7,1c0.5-1.7,1-0.7,1.4,0.1s2.5,2.8,2.5,2.8h1.7l0.2,1.6
			c1.9-0.1,2.5,0.1,3.3,2.7c0.8,2.6,2.9,3.3,2.9,3.3l1.6-0.1c0-1.4,1.6,0.2,1.6,1c0,0.7,3.1,3.3,3.1,3.3l3.1,0.7l0.5,0.5l4.9,1.6
			h0.5c0.2-0.6,0.5-0.8,1-0.8c1,0,2.3,1.2,2.5,1.6c0.1,0.3,0.4,0.6,0.7,0.9l2.9,1c0.1,0.3,0.3,0.5,0.3,1c0.2,1.7,1,1.4,1,1.4
			l6.5-0.1l2.2-2l5.8-0.1c2.9-0.1,1.2-4.1,0.5-4.1c-0.3-0.3-0.4-0.8-0.3-1.4l-5.7-8.8c-1-1-1.8-2-2.6-3c0.2-0.7,0.6-1.4,0.6-1.4
			c1.5-1-0.3-2.4-0.3-2.4c0.2-1.4-0.8-3-0.8-3c-2-1.4-1.5-4-1.5-4v-1.8c-1.7-1.6,0.7-1.8,0.7-1.8c0.8-1.4-0.5-2.4-0.5-2.4l-0.1-1.5
			l-1.8-0.2l-0.2-5.4l-4.1-5.8c-0.8-0.2-0.2-1.6-0.2-1.6c1-0.5-0.2-2-0.2-2l-0.1-2.5l2.4-0.2l0.5-0.9h1.2l-0.1-3
			c0.2-0.5,0.5-0.8,0.9-0.9l0,0h0.5c0.3,0.1,0.5,0.2,0.5,0.2l1.6,0.1l0.1-0.3l1-2.7v-0.1l-1.2-0.1c-1.4-0.8-0.7-3.8-0.7-3.8
			c1-1.4,2-1.8,2.8-1.9c1.1-0.1,1.8,0.5,1.8,0.5l1.6-0.1c0.4,0.3,0.7,0.5,0.8,0.9c-0.1,1.1-0.3,2.1-0.3,3.2
			c-0.1,0.3-0.3,0.5-0.3,0.5c-0.1,0.2-0.2,0.5-0.3,0.9l0.1,2.7l0.5,2.9l-1.5,1.3c-1.2,0.7-1.2,2.3,0.1,2.6c0.9,0.1,0.5,2.3-0.8,0.8
			c-1.8,0,0.5,1.5,0.4,1.4c1.8,0.9,1.4-1,1.4-1l1-0.8l2.5-1.4l0,0l0,0c1,0.3,2,1.9,2,2.2c0,0.3,4.5,0.1,4.5,0.1
			c1.2,0.8,1.7,2.9,1.7,2.9c1.2-1.6,3.9-0.1,1.9,0.8c1.8,1.2,1.8,2.2,1.8,2.2c1.5-0.5,1.5,0.7,1.5,1s0.5-1.7,0.5-1.7
			c-1.7-1.3,2.2-1.7,1.2,0.5l-0.7,1l1.2,0.9l0.1,2.6c2.5-0.2,1.8-3.3,1.8-3.3l1.2-0.2c0-1,0.8-0.5,0.8-0.5c-0.5-2.7,0.5-3.9,1.2-4.3
			l1.9-2.1c0.2-0.8,0.2-1.6,0.2-1.6c-1-0.5-0.5-2,0.7-0.7c1.2,1.4-0.7-2.8-0.7-2.8l-0.9-0.8l-1.2-0.1l-2.6,0.3l-0.7,0.2l-0.2-0.5
			l-0.5,1.4h-2l-0.1-1.4l1.2-0.3l0.5-0.7l0.2-1l0,0h1.3l2.7-2.8c0.3-0.3,0.7-0.1,0.7-0.1l0.7,0.5l1,0.8l0.1,0.7l-0.7,0.3l-0.1,1
			l0.3,1.3h0.9c0.3-1.8,2.7-1.8,3.4-0.7l0.7-1.6c-1.6-0.8,0-2,0.4-1.5c0.5,0.5,1.5-1.5,1.5-1.5s0.8,1,0-0.3c-0.8-1.4,0.5-2,0.5-2
			c-0.2-1.4,1.5-1.2,1.5-1.2l0.1-1.8l-1.6-0.1c-0.3,1.6-1.7,0.2-1-0.1s1.4-1,1.4-1v-1.2l0.7-0.2l0.1-1.2h1.7l1.5-0.7l0.3-0.5
			l1.6-0.1l2.2-2L154.2,96.5z"/>
		<path class="st1" d="M205.2,161.2L205.2,161.2L205.2,161.2z"/>
		<polygon class="st1" points="113.6,120.8 116.2,119.3 116.2,119.3 		"/>
		<polygon class="st1" points="92.3,195.3 92.3,195.3 93.2,196.7 93.3,197.7 94.5,198 94.9,198.7 95.7,198.2 95.1,196.7 93.7,195.5 
					"/>
		<polygon class="st1" points="150.1,191.2 150.7,190.6 151,190.3 150.6,190 149.5,189.5 149.2,190.1 149.9,190.4 149.6,190.7 		"/>
		<polygon class="st1" points="141.4,181.3 140.7,181.9 140.4,182.1 140.8,182.4 141.6,183 142,182.4 141.6,182.1 141.9,181.8 		"/>
		<polygon class="st1" points="61.8,157.4 61.8,158.9 62.5,158.9 62.4,157.2 61.5,156.8 61.5,156.2 61,156.2 61,157.4 		"/>
		<polygon class="st1" points="68.8,165.9 70,167 70.5,166.2 69.6,164.5 68.8,163.9 68.3,162.3 66.6,161.5 66.6,161.5 67.4,163.5 
			67.8,164.6 		"/>
		<path class="st1" d="M168.7,179.4L168.7,179.4L168.7,179.4z"/>
		<path class="st1" d="M254.7,147.4l-0.7-0.1l0,0c-0.1,0.5,0.1,1.2,0.6,1.3l0.1-0.7l0,0C254.8,147.9,254.7,147.7,254.7,147.4z"/>
		<path class="st1" d="M258.3,144.6c0.1,0.1,0.3,0.1,0.5,0.1l-0.1-0.7c0.1,0,0.1,0.1,0.1,0.1c0,0,0-0.1,0-0.1c0-0.2-0.1-0.5-0.2-0.7
			l0,0l-0.6,0.3c0.1,0.1,0.1,0.3,0.1,0.5C258.1,144.2,258.1,144.5,258.3,144.6z"/>
		<path class="st1" d="M258.3,145.8c0,0-0.3-0.7-0.4-1.4l0,0l-0.7,0.1c0.2,0.7,0.4,1.4,0.4,1.4L258.3,145.8z"/>
		<path class="st1" d="M251.4,133.3c-0.1-0.1-0.3-0.1-0.4-0.1c-0.5,0-1,0.3-1.4,0.5l0.4,0.5c0.4-0.3,1-0.4,1.1-0.3c0,0,0,0,0-0.1
			l0.7-0.1C251.8,133.5,251.6,133.3,251.4,133.3z"/>
		<path class="st1" d="M253.7,148.6L253.7,148.6c-0.2,0-0.5,0.2-0.7,0.4c-0.7,0.4-0.4,2.2,0,1.7c0.4-0.4,1,0,1-1.3
			C254.1,148.7,253.9,148.6,253.7,148.6z"/>
		<polygon class="st1" points="164.4,87.1 164.4,86.3 164.4,86.3 163.7,86.3 163.8,87.2 		"/>
		<polygon class="st1" points="170.8,85.2 170.6,84.6 170.3,84.6 170.5,85.3 		"/>
		
			<rect x="172.6" y="83.7" transform="matrix(0.9989 -4.637285e-02 4.637285e-02 0.9989 -3.7097 8.1547)" class="st1" width="2.5" height="0.7"/>
		<polygon class="st1" points="171.6,84.4 171.4,83.4 171.4,83.4 170.7,83.6 171,84.6 		"/>
		<polygon class="st1" points="160.5,84 159.7,84 159.7,84 159.6,84.6 160.4,84.7 		"/>
		<rect x="162.7" y="85.2" class="st1" width="0.9" height="0.7"/>
		<polygon class="st1" points="162,84.4 161.2,84.3 161.2,84.3 161.1,85 161.9,85.1 		"/>
		<path class="st1" d="M180,12.9c-0.5,0.2-1.7,0.1-1.7,0.1h-2c-0.1-0.4-0.5-0.5-1-0.5l0,0c-0.5,0.1-1,0.3-1,0.5
			c-0.1,0.5-0.8,0.5-0.8,0.5l-2.6,0.2c-0.2,0.7-1.6,1.2-1.7,0.7l0,0c-0.3-1-1.7,1.3-0.2,1.7c1.5,0.5,2.9,0,2.9,0l0.3-0.7l5.6,0.1
			c0.5-0.5,0.7-1.2,0.7-1.2s1.4-0.5,1.9-0.2C181,14.5,180.6,12.7,180,12.9z"/>
		<path class="st1" d="M169.4,20.1l-1.5-1.5v-1.3l-0.5-0.5l-0.5-1.6l-1.5-0.5l-1.5,0.5l-1.6,1l-1.7,0.2l-0.9,1l3.6,0.3l0.7,1.2
			l2.6,0.2l1.7,1.7C169.9,21.6,170.3,21,169.4,20.1L169.4,20.1z"/>
		<polygon class="st1" points="183.4,10.6 182.5,11.3 182,10.8 181.5,11.2 182.2,12 182.4,12.3 182.7,12.1 183.9,11.1 		"/>
		<path class="st1" d="M177.8,85.1c0,0.3,0.8,0.7,1.2,0.7c0.4,0,1.7-0.9,1.7-0.9s0.5-1.6,0.1-1.5c-0.5,0.1-1.4,0.8-1.5,0.1
			c-0.1-0.3-0.4-0.4-0.7-0.4s-0.7,0.1-0.7,0.1l-1.8,0.2l-0.1,0.8l1.2,0.1C177.3,84.3,177.8,84.8,177.8,85.1z"/>
		<path class="st1" d="M178.6,83.1L178.6,83.1L178.6,83.1z"/>
		<polygon class="st1" points="152.8,84.6 152.1,84.5 151.9,85.2 152.8,85.3 		"/>
		<path class="st1" d="M111.2,122.6c-0.1,0-0.1-0.1-0.1-0.1C111.1,122.6,111.2,122.6,111.2,122.6z"/>
		<path class="st1" d="M110.9,67L110.9,67L110.9,67z"/>
		<path class="st1" d="M96,52.1L96,52.1L96,52.1z"/>
		<path class="st1" d="M165.5,14.9L165.5,14.9L165.5,14.9z"/>
		<rect x="153.9" y="83.8" class="st1" width="0.9" height="0.7"/>
		<path class="st1" d="M138,65.3c0.7,0-0.5-0.8-0.5-0.8s-1.4,0.1-1.2-0.5l0.1,1.3H138z"/>
		<path class="st1" d="M136.2,64L136.2,64L136.2,64z"/>
		<polygon class="st1" points="152.2,85.6 151.3,85.3 151.1,86 152,86.3 		"/>
		<g>
			<path class="st1" d="M108,125c0.1,1.3,1-0.8,1-0.8v-7.8l-2-0.2l0,0l0.1,0.8h0.5c0.9,1.6,0.1,5.5,0.1,5.5s-1.4,0.1-1.6-0.5
				s-0.8,1.5-0.3,1.8C106.3,124,107.9,123.7,108,125z"/>
			<g>
				<polygon class="st1" points="109.4,129.2 109.7,128.2 108.9,127.8 109,126.1 109.7,126 109.8,125.2 109.8,125.2 108.1,126.3 
					107,125.7 107,128.4 108.8,130.8 				"/>
				<g>
					<path class="st1" d="M111,136.7L111,136.7c-0.3,0-0.5,0.2-0.5,0.5l0,0c0,0.3,0.2,0.5,0.5,0.5s0.5-0.2,0.5-0.5
						C111.5,136.9,111.3,136.7,111,136.7z"/>
					<path class="st1" d="M110.7,134.8c0-0.3-0.2-0.5-0.5-0.5s-0.5,0.2-0.5,0.5s0.2,0.5,0.5,0.5
						C110.5,135.3,110.7,135.1,110.7,134.8z"/>
					<polygon class="st1" points="109.9,132.2 109.2,132.3 109,133.2 109.9,133.3 					"/>
					<polygon class="st1" points="107.9,138.9 108.9,138.8 108.9,138 107.9,138.1 					"/>
				</g>
			</g>
		</g>
		<polygon class="st1" points="139.4,64.1 138.8,63.5 138.4,64.1 139,64.6 		"/>
		<polygon class="st1" points="151.1,87 151,86.3 150.3,86.4 150.4,87.1 		"/>
	</g>
</g>
</svg>
