<?xml version="1.0" encoding="utf-8"?>
<!-- Generator: Adobe Illustrator 22.1.0, SVG Export Plug-In . SVG Version: 6.00 Build 0)  -->
<svg version="1.1" id="Layer_1" xmlns="http://www.w3.org/2000/svg" xmlns:xlink="http://www.w3.org/1999/xlink" x="0px" y="0px"
	 viewBox="0 0 861.5 201.5" style="enable-background:new 0 0 861.5 201.5;" xml:space="preserve">
<style type="text/css">
	.st0{fill:#009edb;}
	.st1{fill:none;stroke:#009edb;stroke-width:2;stroke-miterlimit:10;}
</style>
<title>UNON</title>
<g>
	<path class="st0" d="M279,57.2h9.6V83c-0.1,2.7,0,5.3,0.4,8c0.4,1.9,1.4,3.6,2.9,4.7c1.9,1.3,4.1,1.9,6.4,1.8
		c2.7,0,4.8-0.5,6.2-1.7c1.3-1,2.2-2.5,2.5-4.1c0.3-2.7,0.5-5.4,0.4-8.1V57.2h9.6v25c0.1,4.1-0.1,8.1-0.8,12.1
		c-0.4,2.2-1.4,4.3-2.9,6s-3.5,3-5.6,3.9c-2.9,1.1-6,1.5-9.2,1.4c-4.5,0-8-0.5-10.3-1.6c-2.2-0.9-4.1-2.3-5.6-4.1
		c-1.3-1.5-2.2-3.3-2.7-5.3c-0.7-4-1-8-0.9-12.1V57.2z"/>
	<path class="st0" d="M329.9,104.8V57.2h9.4L358.8,89V57.2h8.9v47.6H358l-19.2-31.1v31L329.9,104.8z"/>
	<path class="st0" d="M380.2,104.8V57.2h9.6v47.6H380.2z"/>
	<path class="st0" d="M412.3,104.8V65.3h-14.1v-8.1H436v8.1h-14v39.5H412.3z"/>
	<path class="st0" d="M444.9,104.8V57.2h35.3v8.1h-25.7v10.5h23.9v8h-23.9v13h26.6v8H444.9z"/>
	<path class="st0" d="M491.9,57.2h17.6c3-0.1,6.1,0.2,9.1,0.9c2.7,0.8,5.2,2.3,7.2,4.4c2.1,2.2,3.6,4.8,4.5,7.7
		c1.1,3.6,1.6,7.4,1.5,11.2c0.1,3.4-0.4,6.9-1.5,10.1c-1,3.2-2.8,6.1-5.1,8.4c-1.9,1.8-4.2,3.1-6.8,3.8c-2.8,0.8-5.6,1.1-8.5,1h-18
		L491.9,57.2L491.9,57.2z M501.5,65.3v31.5h7.2c1.9,0.1,3.9-0.1,5.8-0.5c1.4-0.3,2.8-1,3.9-2c1.2-1.3,2.1-2.9,2.5-4.6
		c0.7-2.8,1.1-5.8,1-8.7c0.1-2.9-0.2-5.7-1-8.5c-0.5-1.7-1.4-3.3-2.7-4.6c-1.2-1.1-2.8-1.9-4.4-2.2c-2.6-0.4-5.3-0.5-7.9-0.5
		L501.5,65.3z"/>
</g>
<g>
	<path class="st0" d="M559.4,104.8V57.2h9.3L588.2,89V57.2h8.9v47.6h-9.6l-19.2-31v31H559.4z"/>
	<path class="st0" d="M653,104.8h-10.5L638.3,94h-19l-3.9,10.8h-10.2l18.6-47.6H634L653,104.8z M635.2,86l-6.6-17.7L622.3,86H635.2z
		"/>
	<path class="st0" d="M666.5,104.8V65.3h-14.1v-8.1h37.8v8.1h-14.1v39.5H666.5z"/>
	<path class="st0" d="M698.8,104.8V57.2h9.6v47.6H698.8z"/>
	<path class="st0" d="M718.2,81.3c-0.1-4.2,0.6-8.3,2.2-12.2c1.1-2.4,2.6-4.6,4.4-6.5c1.7-1.8,3.8-3.3,6.2-4.3
		c3.3-1.3,6.7-2,10.3-1.9c7,0,12.6,2.2,16.8,6.5s6.3,10.4,6.3,18.1s-2.1,13.7-6.3,18s-9.8,6.5-16.8,6.5c-7.1,0-12.7-2.2-16.9-6.5
		S718.2,88.9,718.2,81.3z M728.1,81c0,5.4,1.2,9.5,3.7,12.3c4.8,5.2,12.9,5.6,18.2,0.8c0.3-0.2,0.5-0.5,0.8-0.8
		c2.5-2.8,3.7-6.9,3.7-12.4s-1.2-9.6-3.6-12.2c-5.1-5.3-13.6-5.4-18.8-0.2c-0.1,0.1-0.2,0.2-0.3,0.3C729.4,71.4,728.1,75.5,728.1,81
		z"/>
	<path class="st0" d="M774.7,104.8V57.2h9.4L803.5,89V57.2h8.9v47.6h-9.7l-19.2-31v31H774.7z"/>
	<path class="st0" d="M822.8,89.3l9.3-0.9c0.6,3.1,1.7,5.4,3.4,6.9c2,1.6,4.5,2.3,7,2.2c3.1,0,5.4-0.7,7-2c1.5-1.1,2.3-2.8,2.4-4.6
		c0-1-0.3-2.1-1-2.9c-1-1-2.1-1.7-3.5-2.1c-1.1-0.4-3.7-1.1-7.7-2.1c-5.1-1.3-8.8-2.9-10.8-4.7c-4.8-4.1-5.8-11.1-2.3-16.4
		c1.5-2.2,3.5-3.9,6-4.8c3-1.2,6.2-1.7,9.4-1.7c6,0,10.5,1.3,13.5,3.9c3,2.6,4.8,6.5,4.8,10.5l-9.6,0.4c-0.2-2-1.1-3.9-2.6-5.3
		c-1.4-1.1-3.4-1.6-6.1-1.6c-2.3-0.1-4.6,0.5-6.6,1.7c-1,0.7-1.6,1.8-1.5,3c0,1.1,0.5,2.2,1.4,2.9c1.2,1,4.2,2.1,8.8,3.2
		c3.6,0.7,7.1,1.9,10.4,3.4c2.2,1.1,4,2.8,5.3,4.8c2.7,4.8,2.5,10.6-0.4,15.2c-1.5,2.4-3.8,4.3-6.4,5.3c-3.3,1.2-6.8,1.8-10.4,1.7
		c-6,0-10.6-1.4-13.9-4.2S823.5,94.6,822.8,89.3z"/>
</g>
<g>
	<path class="st0" d="M281.8,163.6c0-6.3,1.7-11.2,5.1-14.8s8.2-5.5,13.1-5.3c3.3,0,6.6,0.8,9.5,2.5c2.8,1.7,5,4.1,6.4,7
		c1.5,3.2,2.3,6.7,2.2,10.2c0.1,3.6-0.7,7.1-2.3,10.3c-1.4,2.9-3.7,5.3-6.6,6.9c-2.8,1.6-6,2.4-9.2,2.3c-3.4,0.1-6.7-0.8-9.6-2.6
		c-2.8-1.7-5-4.1-6.4-7.1C282.5,170.1,281.8,166.9,281.8,163.6z M286.9,163.7c0,4.6,1.2,8.2,3.7,10.8c4.9,5.1,13.1,5.3,18.2,0.4
		c0.1-0.1,0.2-0.2,0.4-0.4c2.4-2.7,3.7-6.4,3.7-11.3c0.1-2.8-0.5-5.5-1.6-8.1c-1-2.2-2.6-4.1-4.6-5.3c-2-1.3-4.4-2-6.8-2
		c-3.4-0.1-6.7,1.3-9.2,3.7C288.2,153.9,287,157.9,286.9,163.7L286.9,163.7z"/>
	<path class="st0" d="M326.9,182v-37.9h25.6v4.5h-20.6v11.8h17.8v4.5H332V182H326.9z"/>
	<path class="st0" d="M361.4,182v-37.9H387v4.5h-20.6v11.8h17.8v4.5h-17.8V182H361.4z"/>
	<path class="st0" d="M396.5,182v-37.9h5V182H396.5z"/>
	<path class="st0" d="M439.5,168.8l5,1.3c-0.8,3.7-2.8,7-5.7,9.4c-2.9,2.2-6.4,3.4-10,3.2c-3.5,0.2-7-0.7-10-2.5
		c-2.6-1.8-4.7-4.3-5.8-7.2c-1.3-3.2-2-6.7-2-10.2c-0.1-3.6,0.7-7.1,2.3-10.3c1.4-2.8,3.7-5.2,6.5-6.7s6-2.3,9.2-2.3
		c3.4-0.1,6.8,0.9,9.6,2.9c2.7,2,4.6,4.9,5.4,8.2l-4.9,1.2c-0.6-2.3-2-4.4-3.8-6c-1.8-1.3-4.1-2-6.3-1.9c-2.6-0.1-5.2,0.6-7.3,2.1
		c-1.9,1.4-3.4,3.4-4.1,5.6c-1.7,5.1-1.6,10.7,0.2,15.7c0.8,2.2,2.3,4.1,4.4,5.4c1.9,1.2,4.2,1.8,6.5,1.8c2.6,0.1,5.1-0.8,7.1-2.4
		C437.7,174.1,439.1,171.5,439.5,168.8z"/>
	<path class="st0" d="M453,182v-37.9h27.4v4.5H458v11.6h21v4.5h-21v12.9h23.3v4.5L453,182z"/>
</g>
<g>
	<path class="st0" d="M501.2,182v-37.9h5.2l19.9,29.8v-29.8h4.8V182h-5.2L506,152.2V182H501.2z"/>
	<path class="st0" d="M537.5,182l14.6-37.9h5.4L573,182h-5.7l-4.5-11.5H547l-4.2,11.5H537.5z M548.5,166.5h12.9l-4-10.5
		c-1.2-3.2-2.1-5.8-2.7-7.9c-0.5,2.5-1.2,4.9-2,7.2L548.5,166.5z"/>
	<path class="st0" d="M579.9,182v-37.9h5V182H579.9z"/>
	<path class="st0" d="M596,182v-37.9h16.8c2.6-0.1,5.2,0.2,7.7,1c1.8,0.7,3.3,2,4.2,3.6c1.1,1.7,1.6,3.7,1.6,5.7
		c0.1,2.5-0.9,5-2.6,6.8c-1.7,1.9-4.4,3-8.1,3.5c1.1,0.5,2.1,1.1,3,1.9c1.6,1.5,3,3.2,4.2,5l6.6,10.3h-6.3l-5-7.9
		c-1.5-2.3-2.7-4-3.6-5.2c-0.7-1-1.6-1.8-2.5-2.5c-0.7-0.5-1.5-0.8-2.3-1c-0.9-0.2-1.9-0.2-2.8-0.2H601V182H596z M601,160.9h10.8
		c1.8,0.1,3.6-0.2,5.4-0.7c1.2-0.4,2.3-1.2,3-2.3c0.7-1,1-2.2,1-3.4c0-1.7-0.7-3.3-2-4.4c-1.3-1.1-3.4-1.7-6.2-1.7h-12V160.9z"/>
	<path class="st0" d="M634.8,163.6c0-6.3,1.7-11.2,5.1-14.8c3.4-3.6,8.2-5.5,13.1-5.3c3.3,0,6.6,0.8,9.5,2.5c2.8,1.6,5,4.1,6.4,7
		c1.5,3.2,2.3,6.7,2.2,10.2c0.1,3.6-0.7,7.1-2.3,10.3c-1.4,2.9-3.7,5.3-6.6,6.9c-2.8,1.6-6,2.4-9.2,2.3c-3.4,0.1-6.7-0.8-9.6-2.6
		c-2.8-1.7-5-4.1-6.4-7.1C635.5,170.1,634.8,166.9,634.8,163.6z M640,163.7c0,4.6,1.2,8.2,3.7,10.8c4.9,5.1,13.1,5.3,18.2,0.4
		c0.1-0.1,0.2-0.2,0.4-0.4c2.4-2.7,3.7-6.4,3.7-11.3c0.1-2.8-0.5-5.5-1.6-8.1c-1-2.2-2.6-4.1-4.6-5.3c-2-1.3-4.4-1.9-6.8-1.9
		c-3.4-0.1-6.7,1.3-9.2,3.7C641.2,153.9,640,157.9,640,163.7L640,163.7z"/>
	<path class="st0" d="M679.5,182v-37.9h14.2c2.4-0.1,4.8,0.3,7,1.2c1.7,0.7,3.1,2,4.1,3.5s1.5,3.2,1.5,5c0,1.6-0.5,3.2-1.3,4.6
		c-1,1.5-2.4,2.7-4,3.5c2.1,0.5,4,1.7,5.3,3.4c1.2,1.7,1.9,3.7,1.8,5.7c0,1.7-0.4,3.4-1.1,5c-0.6,1.4-1.6,2.6-2.8,3.5
		c-1.3,0.9-2.7,1.5-4.2,1.9c-2,0.5-4.1,0.7-6.1,0.6H679.5z M684.5,160h8.2c1.6,0.1,3.2-0.1,4.8-0.4c1.1-0.3,2.2-1,2.9-1.9
		c0.7-1,1-2.1,1-3.3s-0.3-2.3-0.9-3.3c-0.6-1-1.5-1.7-2.6-2c-1.9-0.4-3.8-0.6-5.8-0.5h-7.6L684.5,160z M684.5,177.6h9.4
		c1.1,0,2.3,0,3.4-0.2c1-0.1,2-0.5,2.9-1c0.8-0.5,1.5-1.3,1.9-2.1c0.5-1,0.8-2.1,0.8-3.2c0-1.3-0.3-2.6-1.1-3.7
		c-0.7-1-1.8-1.8-3-2.2c-1.8-0.5-3.7-0.7-5.5-0.6h-8.8L684.5,177.6z"/>
	<path class="st0" d="M718,182v-37.9h5V182H718z"/>
</g>
<g>
	<g>
		<g>
			<circle class="st1" cx="118.7" cy="84.2" r="17.1"/>
			<circle class="st1" cx="118.7" cy="84.2" r="32.9"/>
			<circle class="st1" cx="118.7" cy="84.2" r="49.9"/>
			<circle class="st1" cx="118.7" cy="84.2" r="65.7"/>
			<circle class="st1" cx="118.7" cy="84.2" r="83"/>
		</g>
		<g>
			<line class="st1" x1="118.7" y1="67.6" x2="118.7" y2="0.9"/>
			<line class="st1" x1="118.7" y1="167.2" x2="118.7" y2="100.5"/>
			<line class="st1" x1="135.5" y1="84.2" x2="202.2" y2="84.2"/>
			<line class="st1" x1="35.1" y1="84.2" x2="101.9" y2="84.2"/>
			<line class="st1" x1="130.2" y1="72.6" x2="177.4" y2="25.4"/>
			<line class="st1" x1="107.1" y1="72.6" x2="59.9" y2="25.4"/>
			<line class="st1" x1="107.1" y1="95.7" x2="59.9" y2="142.9"/>
			<line class="st1" x1="130.2" y1="95.7" x2="177.4" y2="142.9"/>
		</g>
	</g>
	<path id="Laurel" class="st0" d="M56.1,8.3c-8.4,3.3-17.5,6.6-22.9,15.3c-3.2,5.1-3.7,11-6.2,16.3c4.7-4.4,10.1-7.6,14-12.8
		C45.8,20.8,49.9,13.8,56.1,8.3L56.1,8.3z M181.3,8.3c6.2,5.4,10.3,12.4,15.1,18.7c4,5.2,9.4,8.5,14,12.8c-2.5-5.2-3-11.2-6.2-16.3
		C198.7,15,189.7,11.6,181.3,8.3L181.3,8.3z M33.4,19.8c-4.3,1.1-7.9,3.9-11.1,7.4c-6.7,7.5-6.2,18.5-5.3,28.3
		c0.3,3,0.1,5.6-0.2,8.7c2-4.2,5.4-8.2,9.3-11.1c8.8-6.6,18.3-15.2,18.5-26.4c-2.9,8.1-11.7,11.4-17.6,17c-3.1,2.9-5.5,6.4-6.9,10.1
		l-0.2-0.2c0.7-3.2,2.1-6.2,3-9.3C25.5,35.8,25,25.5,33.4,19.8L33.4,19.8z M204,19.8c8.3,5.7,7.9,16,10.4,24.5
		c0.9,3.1,2.3,6.1,3,9.3l-0.2,0.2c-1.4-3.7-3.8-7.2-6.9-10.1c-5.9-5.5-14.7-8.9-17.6-17c0.1,11.2,9.7,19.8,18.5,26.4
		c3.9,3,7.3,6.9,9.3,11.1c-0.3-3.1-0.5-5.7-0.2-8.7c0.9-9.8,1.5-20.8-5.3-28.3C211.9,23.7,208.3,20.9,204,19.8L204,19.8z M15.6,35.1
		c-0.2,0-0.3,0.1-0.5,0.2c-5.8,7.4-9.7,15.5-9.7,25.5c0,12.3,7.1,20.9,8,32.4c1.8-12,11.9-20.6,17.2-31.2c2-4.1,3.3-8.8,3.9-13.4
		c-0.8,1.9-1.9,3.7-3.5,5.3C24,60.4,16,66.8,14.5,75.9c-0.2,1.3-0.3,2.6-0.7,3.9c-0.3,0.1-0.3-0.2-0.4-0.3l0.8-11.3
		C15,57.1,9.2,44.9,15.6,35.1L15.6,35.1z M221.8,35.1c6.4,9.7,0.6,22,1.4,33.1l0.8,11.3c-0.1,0.1-0.1,0.4-0.4,0.3
		c-0.4-1.3-0.5-2.6-0.7-3.9c-1.5-9.1-9.6-15.5-16.4-21.9c-1.6-1.5-2.8-3.3-3.5-5.3c0.6,4.6,1.8,9.2,3.9,13.4
		c5.2,10.6,15.4,19.2,17.2,31.2c0.9-11.5,8-20.1,8-32.4c0-10-3.9-18.1-9.7-25.5C222.1,35.3,222,35.1,221.8,35.1L221.8,35.1z
		 M3.2,65.8c-1.4,2.9-1.9,6.1-2.6,9.2c-1.5,8,0,16.6,2.2,24c2.7,9.2,11.8,15.9,16.4,24.3l0.6,0.5c-0.7-4.6-1-9.6,0.3-13.9
		c2-7,4.5-13.9,5.8-21.1c1-5.7,2.2-12,1.5-17.5c-0.8,3-1.5,5.9-3.2,8.4c-6.2,9.5-12.5,20.7-8.2,32.8c-0.1,0.1-0.2,0.3-0.4,0.2
		c-1.7-4-2.1-8.6-3.2-12.8C9.4,88.4,0.6,78.9,3.2,65.8L3.2,65.8z M234.2,65.8c2.6,13.2-6.2,22.7-9.2,34c-1.1,4.3-1.5,8.8-3.2,12.8
		c-0.2,0.1-0.3-0.1-0.4-0.2c4.3-12.1-2-23.3-8.2-32.8c-1.6-2.5-2.4-5.4-3.2-8.4c-0.7,5.5,0.5,11.8,1.5,17.5
		c1.3,7.3,3.8,14.1,5.8,21.1c1.3,4.4,1,9.3,0.3,13.9l0.6-0.5c4.6-8.5,13.6-15.1,16.4-24.3c2.2-7.4,3.7-15.9,2.2-24
		C236.1,71.9,235.6,68.6,234.2,65.8L234.2,65.8z M25.9,98.5c1.1,7.5-1.8,14.1-2.5,21.2c-0.6,5.9,0.5,11.5,2.7,16.5
		c0.7,1.5,1.9,2.8,2.2,4.3c-2.2-2-3.8-4.5-5.3-7C16,122,1.1,114.6,0.1,100.7c-0.5,6.2,0,12.8,2.1,18.3c2.9,7.6,8.4,13.5,14.8,18.5
		c6.6,5.2,14.4,9.2,20.4,13.8c-1.2-3-3.1-5.7-3.9-8.9C30,128.1,32,111.7,25.9,98.5L25.9,98.5z M211.5,98.5
		c-6.1,13.2-4.1,29.6-7.7,43.9c-0.8,3.1-2.7,5.9-3.9,8.9c6-4.6,13.8-8.6,20.4-13.8c6.4-5,11.9-10.9,14.8-18.5
		c2.1-5.5,2.6-12.1,2.1-18.3c-1,13.9-15.9,21.4-22.9,32.9c-1.5,2.4-3.1,5-5.3,7c0.3-1.5,1.6-2.8,2.2-4.3c2.3-4.9,3.3-10.6,2.7-16.5
		C213.3,112.6,210.4,106,211.5,98.5L211.5,98.5z M33.6,122.4c5.1,10.3,2.9,23.5,9.6,33.2c2.1,3,5,5.9,7.7,8.4l-0.1,0.1
		c-2.4-1.1-4.6-2.8-6.9-4.7c-11.7-9.7-29.2-10.9-36.2-26.8c1.9,11.6,11.1,21.9,21.1,28.4c9.5,6.2,21.6,5.5,32.1,9
		c-9.7-7.8-11.2-19.6-15.5-29.9C42.6,133.8,38.2,128,33.6,122.4L33.6,122.4z M203.9,122.4c-4.7,5.6-9.1,11.4-11.8,17.8
		c-4.3,10.3-5.8,22.1-15.5,29.9c10.5-3.5,22.6-2.8,32.1-9c10-6.5,19.2-16.8,21.1-28.4c-7,15.8-24.6,17.1-36.2,26.8
		c-2.2,1.8-4.4,3.5-6.9,4.7l-0.1-0.1c2.7-2.4,5.6-5.3,7.7-8.4C200.9,145.9,198.7,132.7,203.9,122.4L203.9,122.4z M50.3,147.5
		c6.4,8.5,8.2,21,19.8,25.3c2.1,0.8,4.4,0.9,6.2,2c-2.2,0.3-4.2-0.3-6.3-0.8c-15-3.2-33.2,0.9-44.4-11.8c4.3,8.3,13,14.9,21.4,17.7
		c13,4.3,26.6-0.5,38.9-3.5c1.8-0.4,3.9-0.3,5.5-0.9c-6.8-1.4-13.4-3.5-18.7-8.3C65.2,160.2,58.5,152.8,50.3,147.5L50.3,147.5z
		 M187.1,147.5c-8.1,5.4-14.8,12.8-22.4,19.7c-5.3,4.8-11.9,6.9-18.7,8.3c1.6,0.6,3.8,0.5,5.5,0.9c12.3,3,25.8,7.8,38.9,3.5
		c8.4-2.8,17.2-9.4,21.4-17.7c-11.2,12.8-29.5,8.7-44.4,11.8c-2.1,0.4-4,1.1-6.3,0.8c1.8-1.1,4.1-1.3,6.2-2
		C178.9,168.4,180.7,156,187.1,147.5L187.1,147.5z M106.4,175.1c-11.5,0-21.7,5.6-31.8,9.7c-9.1,3.8-21.2,3-29.3-2.5
		c4,5,9.3,8.1,14.9,10.2c10.3,4.1,22.2,1,31-4.6c6.3-4,11.7-9.7,19.2-9.7c1.3,0,2.6,0.2,4,0.4c-10.5,4.2-20.1,11.6-27.5,18.7
		c1.4,1.6,3.1,3,4.8,4.4c8.3-8.6,17.8-17.9,27.2-21.7c9.4,3.8,18.8,13.1,27.2,21.7c1.7-1.4,3.5-2.8,4.8-4.4
		c-7.5-7.1-17-14.5-27.5-18.7c1.3-0.3,2.7-0.4,4-0.4c7.5,0,12.9,5.7,19.2,9.7c8.7,5.6,20.7,8.7,31,4.6c5.5-2.1,10.9-5.2,14.9-10.2
		c-8.1,5.6-20.2,6.3-29.3,2.5c-10.1-4.2-20.3-9.7-31.8-9.7c-4.2,0-8.3,0.7-12.3,1.9C114.7,175.8,110.6,175.1,106.4,175.1
		L106.4,175.1z"/>
	<g>
		<path class="st0" d="M134.6,24.2l-0.6-0.4c0,0-0.9-0.1-0.9-0.4v-0.1l0,0c-0.1-0.1-0.5,0.6-0.9,0.8c0.4,0.2,1,0.5,1,0.5
			c0.7,0,1.1,0.5,1.1,0.8c0,0.3,0.9,0.2,0.9,0.2l0.1-0.6L134.6,24.2z"/>
		<path class="st0" d="M164.2,58.7L164.2,58.7L164.2,58.7L164.2,58.7C164.2,58.7,164.2,58.7,164.2,58.7z"/>
		<path class="st0" d="M132,24.2c0.1,0.1,0.2,0.1,0.2,0C131.8,24,131.6,23.9,132,24.2z"/>
		<polygon class="st0" points="131.3,26.9 131.3,26.9 131.3,27.7 132.2,27.8 132,27.1 		"/>
		<polygon class="st0" points="130.4,24 130.3,24 129.4,23.9 129.3,24.5 130,24.5 130.6,25.4 131,25.1 130.4,24.1 		"/>
		<path class="st0" d="M140.9,35.2c-0.4,0-1.2-0.5-1-0.9c0.2-0.4-1.4-0.7-1.4-0.7s-1.4-1.4-0.9-1.2c0.5,0.2,0.3-0.6,0.3-0.6
			s-1,0.2-1.3,0.1c-0.3-0.1-0.2-0.9-0.2-0.9s-0.6-0.2-0.9-0.1l0,0c-0.1,0-0.2,0.1-0.2,0.1c0,0.3,0.4,0.3,0.5,0.8
			c0.2,0.5,0.1,1.4,0.9,1.5s0.9,0.4,1,0.7c0.1,0.4,1,0.4,1,0.4l0.7,0.4l2,1.7v-0.7C141.4,35.9,141.3,35.2,140.9,35.2z"/>
		<path class="st0" d="M157.6,23.5l1.3,0.4c0,0,1.6,1.9,1.5,1c-0.2-2.6-1.4-2.6-1.8-3.2c-0.1-0.2-0.3-0.2-0.5-0.2l0,0
			c-0.7,0-1.7,0.5-1.6,1C156.5,22.9,156.9,23.3,157.6,23.5z"/>
		<polygon class="st0" points="164.2,58.7 164.2,58.7 164.2,58.7 		"/>
		<path class="st0" d="M162.3,52.6c-0.2,0.4,0.2,0.8,0.5,0.8c0.4,0,0.6,0.2,0.9,0.4c0.4,0.2,0.6,0.4,0.9,0.8l0.9-0.3
			c0,0,0.1-0.9-0.3-0.6s-0.6-0.6-0.9-0.5c-0.4,0.1-0.5-0.4-0.9-0.8c-0.4-0.4-0.3-0.5-0.7-0.8c-0.2-0.2-0.4-0.2-0.5-0.2l0,0
			c-0.1,0-0.2,0.1-0.2,0.3C162,52.1,162.4,52.2,162.3,52.6z"/>
		<polygon class="st0" points="132,22.8 131.5,22.6 131.5,22.6 131.2,23.3 131.6,23.5 		"/>
		<path class="st0" d="M164.7,55.2L164.7,55.2l-1,0.1c0.3,0.4,0.8,0.6,0.8,1c0,0.4-0.2,0.6,0.4,0.7c0.5,0.1,0.9-0.1,1,0.4
			c0.2,0.4,0.2,1.1,0.1,1.5c-0.1,0.4,0.1,0.9,0.5,0.9s0.5,0.1,0.5,0.4s0.5-1,0.5-1c-0.4-0.4-0.8-1.1-0.8-1.1s-0.4-1.2-0.4-1.4
			s-0.6-0.4-0.9-0.4C165.2,56,164.7,55.2,164.7,55.2z"/>
		<polygon class="st0" points="158.7,48.9 158.7,48.1 158.7,48.1 158.2,48.2 158.2,49 		"/>
		<polygon class="st0" points="169.5,75.8 170,76.1 170.2,75.5 169.8,75.3 		"/>
		<path class="st0" d="M167.5,61.7c-0.3,0.2-0.4,0.5-0.7,0.8c-0.3,0.3,0.5,0.6,0.5,0.9s0.2,1.5,0.2,1.5s0.6,0.3,0.7,0.6
			c0.1,0.4,0,1,0.3,1.1c0.3,0.1,0.8,0.4,0.6,0.8c-0.2,0.4-0.2,1-0.2,1l0.4,0.8l0.7,0.4c0,0,0.3-2-0.2-2.1c-0.4-0.1-0.3-1.3-0.3-1.3
			s0.4-1.6-0.3-1.6s-0.2-0.9-0.6-1.1c-0.4-0.3-0.2-1.5-0.4-1.8c-0.2-0.4-0.2-0.8-0.6-1c-0.1-0.1-0.1-0.1-0.1-0.1l0,0
			C167.4,60.7,167.7,61.6,167.5,61.7z"/>
		<polygon class="st0" points="170.6,73.1 170.1,73 170.1,73 170,73.7 170.5,73.8 		"/>
		<path class="st0" d="M155,57.4c0,0-0.2,1.6-0.7,2h-1.2c0,0,0.3,0.4,0.5,0.7c0.3,0.3,0.9,0.8,0.3,1.1c-0.6,0.4,0.1,0.3,0.1,0.3
			s-0.1,1.8-0.9,1.5s-1,1-1,1.3c0,0.4,3,0.5,2.5,0c-0.3-0.3,0.4-0.9,0.4-0.9s2,0.2,2.4,0.2c0.4,0,0.8-0.1,0.5-0.5
			c-0.3-0.4-1-0.4-1-0.4s-1,0.3-1.9-0.3c-0.9-0.5,0.2-0.7,0.4-0.7c0.2,0,0.9-0.6,0.6-1c-0.4-0.4,0-1.2,0-0.9c0,0.4,0.9,0.5,1.1,0.3
			c0.2-0.3,0-1-0.4-1.3s0.8-0.4,0.4-0.9c-0.4-0.4-0.5-1-0.5-1l0,0C156.5,57,156,57.7,155,57.4z"/>
		<path class="st0" d="M168.9,119.4l-0.2,0.5c0.1,0,0.1,0.1,0.2,0.1l0.1,0.5c-0.1,0.1-0.1,0.1-0.1,0.2l0.4,0.4
			c0.3-0.3,0.4-0.6,0.3-0.9C169.4,119.6,169,119.5,168.9,119.4z"/>
		<path class="st0" d="M168.8,119.9L168.8,119.9L168.8,119.9z"/>
		<polygon class="st0" points="169.5,118.4 170.3,118.4 170.4,117.7 169.6,117.6 		"/>
		<path class="st0" d="M169.6,117.6L169.6,117.6L169.6,117.6z"/>
		<path class="st0" d="M164.3,92.8c0.4,0.1,0.7,0.3,0.4-0.8c-0.1-0.3-0.4-0.5-0.7-0.5l0,0c-0.7-0.1-1.6,0.5-1.3,0.8
			C163.2,93,164,92.7,164.3,92.8z"/>
		<rect x="153.9" y="108.9" class="st0" width="0.6" height="1.6"/>
		<path class="st0" d="M109.7,27.3c0,0,1.3,0.1,1.4,0.4c0.1,0.3,0.9,0.4,1,0.1c0.1-0.3,0.4-0.8-0.4-0.8c-0.8,0-0.6-0.4-0.9-0.7
			c-0.1-0.2-0.6-0.2-1.1-0.2c-0.5,0.1-0.9,0.1-0.9,0.3C109.1,26.8,109.7,27.3,109.7,27.3z"/>
		<polygon class="st0" points="82.1,10.8 81.1,9.1 81.1,9.1 		"/>
		<polygon class="st0" points="88.9,31.6 88.5,31.9 89,32.4 89.4,32.1 		"/>
		<path class="st0" d="M90,26.1l-0.9-1.7l0,0l0,0L90,26.1L90,26.1z"/>
		<polygon class="st0" points="146.2,62.4 146.2,62.9 147.1,62.8 147.1,62.3 		"/>
		<polygon class="st0" points="164.4,81.4 165.3,81.5 165.4,81 164.5,80.8 		"/>
		<rect x="158.2" y="59.6" class="st0" width="0.5" height="0.6"/>
		<polygon class="st0" points="159.8,60.1 159.4,59.9 159.4,59.9 159.1,60.4 159.6,60.7 		"/>
		<polygon class="st0" points="156.7,56.1 156.7,55.6 155.8,55.6 155.9,56.1 		"/>
		<polygon class="st0" points="133.1,7 133.2,6.9 134.2,6.3 133.9,5.9 133.9,5.9 133.1,6.4 132.5,6 132.3,6.5 133,6.9 		"/>
		<rect x="157.2" y="56.2" class="st0" width="0.5" height="0.4"/>
		<path class="st0" d="M147.1,62.3L147.1,62.3L147.1,62.3z"/>
		<polygon class="st0" points="148.7,63.6 148.4,64.2 148.9,64.4 149.2,63.8 		"/>
		<path class="st0" d="M150.2,65c-0.3,0-0.7,0.1-0.9,0.1c-0.4,0.1-0.4,0.4,0,0.9l1-0.2c0,0,0.8-0.4,0.6-0.6
			C150.8,65,150.5,65,150.2,65z"/>
		<polygon class="st0" points="162.3,81.6 162.1,81.7 161.5,82.1 160.9,81.7 160.7,82.2 161.3,82.6 161.5,82.7 161.6,82.6 
			162.1,82.3 162.1,82.5 162.7,82.3 162.4,81.9 		"/>
		<path class="st0" d="M142.4,63.7L142.4,63.7L142.4,63.7z"/>
		<path class="st0" d="M113.8,96L113.8,96l-0.8,0.1l0.1,1.2l0.5,0.4l0.9,0.3c0,0,1.3-0.4,1.4-1.4l-1.9-0.1L113.8,96z"/>
		<path class="st0" d="M121.1,90c0.4,0.1,0.1-1.2,0.1-1.2l0,0l-1.5,1.1c0.8,0.1,0.9,0.9,0.9,1.2C120.7,91.9,120.7,90,121.1,90z"/>
		<polygon class="st0" points="125.6,113.5 126.2,112.5 125.7,112.4 125.7,112.4 125.1,112.8 125.3,113 		"/>
		<polygon class="st0" points="135.9,109.7 135.6,109.3 134.9,109.7 135.2,110.2 		"/>
		<path class="st0" d="M125.9,90c0.4,0.3,1.1-0.3,0.7-0.6c-1.3-0.9-1.2-2-1.5-2.8c-0.1-0.2-0.2-0.3-0.4-0.4l0,0
			c-0.2,0-0.3,0.1-0.4,0.4v1.1C124.3,87.9,125.5,89.8,125.9,90z"/>
		<path class="st0" d="M132.8,103.5L132.8,103.5L132.8,103.5z"/>
		<polygon class="st0" points="112.3,80.4 111.4,80.3 111.4,80.3 111.1,80.7 110.7,80.7 110.6,81.4 111.1,81.4 111.2,82 110.9,82.3 
			110.7,82.7 110.1,82.9 108.5,84.4 108.4,85 108,85.6 107.5,86.9 105.7,87 105.4,88.5 105.6,89.9 107.2,90.5 107.4,89.6 
			107.8,89.4 107.9,88.5 108.3,87.9 108.8,87.3 109,86.6 109.8,86.1 110.8,85.9 111.2,85.4 111.4,84.4 111.5,83.6 111.9,83.1 
			112.9,82.6 112.9,81 112.4,81 		"/>
		<path class="st0" d="M118.5,68L118.5,68L118.5,68z"/>
		<path class="st0" d="M83.5,92.7L83.5,92.7c-0.2,0-0.4,0.2-0.4,0.4l0,0c0,0.2,0.2,0.4,0.4,0.4s0.4-0.2,0.4-0.4
			C83.8,92.9,83.7,92.7,83.5,92.7z"/>
		<path class="st0" d="M87.3,89.5L87.3,89.5L87.3,89.5z"/>
		<path class="st0" d="M116.5,102.9c0,0-0.3,0.5-0.8,0c-0.1-0.1-0.1-0.1-0.2-0.1l0,0c-0.4,0-0.8,1.3-1,1.6c0,0,0.2,0.7,0.6,0.7
			c0.4-0.1,0.6-0.3,1-0.3c0.3-0.1,0.5-0.6,0.6-1.1C116.8,103.2,116.5,102.9,116.5,102.9z"/>
		<path class="st0" d="M126.7,134.6L126.7,134.6L126.7,134.6z"/>
		<path class="st0" d="M156.7,125.4c-0.4-0.3,0.4,0.4,0.6,0.8c0.2,0.4,0.7,0.4,0.9,0c0.1-0.3,0.1-0.7,0.2-1l-0.5-0.5
			C157.7,125.3,157,125.7,156.7,125.4z"/>
		<path class="st0" d="M164.7,126.6l-0.4-0.4l-0.1-2.1c0.4-1.1-1.6-2.8-1.8-2.4c-0.2,0.4-1.3,0.1-1.3,0.4c0,0.4-0.7,2-0.4,2.6
			c0,0.1,0,0.1,0.1,0.1l-0.8,2.1c-0.2,0.5-0.5,0.9-0.4,1.2l0,0l0.8,0.4l0.1,1.5c0.6,0.6,1.8,0.6,2.9,0.4l1.4-1.5
			C164.7,127.9,164.7,126.6,164.7,126.6z"/>
		<path class="st0" d="M117.2,102.2L117.2,102.2c0,0.1-0.3,0.8,0.1,0.9c0.4,0.1,0.3,0.2,0.5,0.4l-0.2,0.5c-0.3-0.4-0.5,0.3-0.3,0.5
			c0.2,0.2-0.5,0.1-0.5,0.3c0,0.3-0.2,0.4,0,0.5c0.2,0.2-0.1,0.2-0.3,0.4c-0.3,0.2,1.1,0.3,1.1,0.3s-0.3-0.5,0.1-0.5
			c0.1,0,0.1,0,0.2,0l0.3-3.3L117.2,102.2z"/>
		<path class="st0" d="M138.8,60.8c0-0.4-0.9-0.8-0.8-0.3c0.1,0.5-0.6,0.8-0.8,0.6c-0.2-0.2-0.7,0.5-0.7,0.5c0,0.3-0.2,0.6,0.4,0.7
			c0.5,0.1,1.4-0.4,1.5,0.2c0.1,0.2,0.1,0.3,0.1,0.5l1.4-1.4C139.7,61.2,138.8,61.1,138.8,60.8z"/>
		<path class="st0" d="M145.4,63.3c-0.1-0.3-1-1.6-1.5-1.7l1.6,1.9C145.5,63.4,145.4,63.4,145.4,63.3z"/>
		<path class="st0" d="M142.4,63.6L142.4,63.6L142.4,63.6L142.4,63.6L142.4,63.6c0,0,0.5,0.1,0.9,0.2l-1.4-1.7l-1.5,1.6
			c0.2,0,0.3,0,0.4,0C141.3,63.8,142.4,63.6,142.4,63.6z"/>
		<path class="st0" d="M144.5,65.5L144.5,65.5L144.5,65.5z"/>
		<path class="st0" d="M109.9,118.5l-0.8,0.3l-0.5,0.8l-1,0.4l-0.2,1.8l-0.5,0.4v0.8l-0.6,0.2v0.4l-0.9,0.1l0.5,1.3l0.7,0.4
			c1.2,0.2,0.7,1.6,0.7,1.6l0.7,0.1l0.4,1l0.7,1.4c0.3,1,1,0.8,1.4,0.7c0.4-0.1,0.7,1,0.7,1l3.4,0.1c0,0-0.2,0.4,0.4,0.5
			c0.3,0.1,1.6,0.2,2.8,0.2l2-0.5c0.3-0.2,0.9-0.3,1.5-0.3c0.5,0.1,1.1,0.2,1.4,0.4c0.9,0.7,2.2,0.3,2.2,0.3l0.9,1.1l1,1.9l0,0l0,0
			l0.2,0.4l1.4,0.4l1,0.3l0.4,1.5l0.8,0.1l0.3,1c0.9,0.7-0.3,2.1-0.3,2.1v1.9l0.7,0.4l-0.1,0.7l1.1,1.1l1.3,0.1l2.1,2.2l2.2,1.5
			l1.5,0.5l0.4,1.4l0.7-0.1l0.5-0.4l2-0.1l1-1l1.1-0.2l8-6.8l0.6-2.8V138c1.5-1.1,1.6-3.1,0.2-3.3c-1.1-0.2-0.6-1.3,0.4-1.5l0.6-0.3
			v-0.8l1.9-1.8V129l-4.2-3.5c-0.9-0.3-0.9-1.4-0.6-2.4l2.3-5c-0.2-1.7-0.6-3.6-0.6-3.6l-0.7-0.4l0.2-2.1H152l-1.5,2l-0.2,0.6
			l-1.1,1.8c-1.5,0.7-4.6,0.5-4.8,0.3c-0.3-0.3-2-1-2-1s-1.4-1.1-1.6-0.8s-1.4-0.4-1.4-0.2c0,0.3-1.1-0.6-1.1-0.6l-1.7-0.6l1.3-0.3
			l-0.2-0.8c0.1-0.1,0.1-0.1,0.2-0.1l0,0l2,1c0.3,0.4,1.4,0.3,1.4,0.3l0.4,0.4c0,0,0.7-0.1,1.1,0.4c0.4,0.5,2.6,0.1,2.6,0.1l0.6,0.5
			l0.9,0.4l1.6,0.1l1.2-1.7l0.5-0.5l-0.1-1l0.6-0.5v-0.9l0.5-0.2l0.1-1.9l0.4-0.1v-4.1l-1.3-1.2c-0.1,0.4-1.4,0.4-1.4,0.4
			s-0.4,0.6-0.6,0.6s0.4,0.8,0.2,1.3c-0.2,0.5-0.9,0.5-0.9,0.5l-1.3,0.4l-0.4,0.4h-1.4l-0.1-0.8c0.2-0.2,0.3-0.4,0.4-0.5l1.1-0.3
			l0.9-0.4l0.4-0.9c0.1-0.9,1.1-0.8,1.1-0.8s1.9-1.6,2-2.4s0.8-2.9,1.9-2.9h2.2c0.9-0.4,0.6-1.5,0.6-1.5l1.1-0.2l0.2,0.6
			c0,0,1.5,0.2,1.7-0.1c0.2-0.3,0.5-0.9,0.9-0.6c0.4,0.3,1.8-0.6,1.8-0.6c0.1-0.6,2.2-0.4,2.2-0.4l0.3-0.8c0,0-1.4-2-1.7-2
			s-1.6-1.2-1.8-0.8c-1.4-0.4-1.3-2.2-1.3-2.2l-0.5-1.2c0-0.7-1.3-2.1-1.5-2c-0.5-0.4-0.7-0.8-0.6-1.2l0,0l1.6-2
			c0.1-0.1,0.2-0.3,0.2-0.3l0.4-1.2l1.4-0.4l0.2-1.1l-0.6-0.1c0,0,0.9-1.5,1.3-1.5s3.2,0,3.5-0.2s0.8-1.5,0.8-1.8s0.7-0.4,0.9-0.4
			c0.3-0.1,0.9-0.8,1-1.1c0.2-0.4-0.4-2.5-0.8-2.1s-1.1,0.5-1.1,0.5l-0.3,1l-0.4,0.4c0,0,0.1,0.3,0,0.9c-0.1,0.6-0.9,1-0.9,1
			l-0.4,0.4c0,0-2,0.1-2.3,0c-0.8-0.4-0.3-1.4,0.3-1.3c0.5,0.1-0.1-1.5-0.1-1.5l0.7-0.1c0,0,0.1-1.5,0.4-1.5s-0.1-0.5-0.4-0.8
			c-0.4-0.3-0.8-1.1-1.1-1c-0.4,0.1-1.7,0-1.7,0l-0.3,0.5l-0.9,0.2c0,0,0.1,0.7-0.1,0.9c-0.5,0.6-2.4,1.9-1.6-0.3l0.3-0.5v-0.8
			l-1.5-0.1c0,0-0.8-0.3-0.8-0.6s-0.1-0.8-0.1-0.8l-1.8-2l-2.1-0.3l-0.2-0.4l-1.3-0.2c-0.2-0.1-0.4-0.2-0.6-0.2l-2,0.6
			c-0.1,0.2-0.2,0.5-0.1,0.8c0.3,1.3,0.7,1.8-0.2,1.8c-0.9,0-1-0.7-1-0.7s-0.7-0.3-0.7,0.1s-0.3,1,0,1.4c0.3,0.4-0.4,0.9-0.6,0.6
			c-0.3-0.3-0.9-1-0.8-1.3c0.2-0.3-1.2-1.9,0.2-2.1c1.4-0.3-0.1-1,0.4-1.2l0.7-0.4h0.7l0.4-0.4l0,0l-1.1-0.2l-0.7-0.1l-1.3-0.1
			c-1.3,0.9-1.5,1.9-1.5,1.9c-0.6,1.1-1.8-0.1-1.8-0.9l-3,0.1c-0.5,0-0.9-0.1-0.9-0.1c-0.3,0.8-1.4-0.1-1.1-0.6
			c0.4-0.5,0.4-0.9,0.4-0.9l-0.4-0.1l-0.5,1c-1.2,0-1.5,0.7-1.3,1.1c0.3,0.4-0.4-0.1-0.5,0.5c-0.2,0.6,0.1,0.6,0.6,0.9
			c0.5,0.3-0.3,0.3,0.1,0.7c0.2,0.3,0.7,0.2,0.9,0.3l-0.7,0.7c-0.6,0.2-1.3,0.1-1.3,0.1c0,0.2-0.1,0.3-0.3,0.4
			c-1.4-1.1-2.9-2-4.5-2.7c0.3-0.2,0.7-0.2,0.9-0.8c0.4-1,0.5-2.5,0.5-2.5s-1.4-0.1-1.4,0.4c-0.1,0.4-0.9,0.7-0.9,0.7
			s-0.7,0.3-0.4,0.6c0.3,0.4-0.5,0.5-0.5,0.5s0.1,0.3,0.1,0.5l-5.3,1.2l0,0l0.2,2l-0.9-0.3h-0.6l-0.3-0.5l-0.5-0.1v1.9l0.5,0.4
			l0.4,0.4l0.9,0.1l0.2,1l2.1,0.1l0.3,0.4l1.3,0.1l2.4,2.5l-0.2,0.8l-0.4,0.3c0.2,0.6-1.1,0.3-1.1,0.3v0.5l0.6,0.1l0.6,0.4l0.9-1.5
			c0.9-0.6,1.4,0.3,1.4,0.8c0.1,0.5-0.4,0.4-0.4,0.4v1.2l0.5,0.2c0.9,1-0.4,1.6-0.4,1.6l-0.3,0.9c-0.3,0.8-1.2,0.6-1.2,0.6l-0.4,0.5
			l-1,0.3l2,0.3c0.2-0.7,0.7-0.9,1-0.5c0.3,0.4,0.3,1,0.3,1l0.5,0.1l-0.1,1l0.5,0.2V88l0.6,0.7c1-0.4,1,0.3,0.5,0.6
			c-0.5,0.4-0.2,1.9-0.2,1.9l-0.4,0.4v0.7l-0.5,0.4v1c-0.9-0.4-1.9-0.3-2.1,0c-0.8-0.5-2.4-0.4-2.4,0.1c0.5,0.7-0.6,0.9-0.6,0.9
			l-0.6,0.7c0.4,0.9-0.4,1-0.4,1v1.6l-1,1l0.1,1.5l2.6,1.6c0.1,0.1,0.2,0.2,0.2,0.2h0.8l0.1-0.4l-0.4-2v-1.9l0.9-1
			c0.1,0,0.1-0.1,0.2-0.1l0,0c0.7,0,0.6,1.7,0.5,2.3l0.1,2.1l0,0c0,0.2,0.1,0.5,0.1,0.5l0.4,0.2l-0.8,0.6l-0.7,0.8l-0.9-0.3l-1-0.1
			l-0.4-0.6l-0.6-0.1l-0.1,1.2l-0.4,0.5l-1,1c1.1,0,0.4,0.6-0.2,0.8l-2,0.7c-0.1-0.1-0.2-0.1-0.4-0.1v0.6l-0.7,0.1l0.6,0.7l0.5,0.1
			v1.4v0.1c0,1.1-2.8,0.4-3.1,0.1l-0.1,1.5l-0.5,0.1l0.1,1l-0.1,1.5l0.9-0.2v0.6l2.3,0.1l0.5-0.5l2-2.1l0.9-0.9l1.9-0.4
			c0.2-0.9,1,0.2,1,0.2c0.9-0.1,1,0.5,1,0.5l1.1,0.2c0.9,0.3,0.4,0.4,0.4,0.7c0.1,0.5,0.5,0.4,0.5,0.4l0.2-1.1l0.5,0.1l-0.5-0.6
			l-0.9-0.4l-1-0.4c-0.7-1,0.2-0.8,0.9-0.7h1.1c0,0,1.3,1.7,1.3,2.1c0,0.4,0.6,0.5,0.6,0.5l0.8-0.1l0.3,0.6h0.8l0.3,0.5h1.5l0.1-0.8
			l-1.4-0.3l-0.1-0.9l-1-0.3c-0.4-1.5,0.3-1.9,0.7-1.2l0.5,0.1l-0.2-1.3l0.6-0.2l-0.2-1.8l-0.5-0.2V105l2.1,0.1
			c-0.2-1.1,0.1-1.6,0.1-1.6l0,0l0,0l0,0h0.6l0.1,0.4l2.6,0.3h0.1c1,0.6,0.5,1.4,0.2,1.5s-0.9,0.2-0.9,0.2l-0.2,0.4l-2.2,0.2
			l-0.2,0.9c-1.1-0.2-1.5,1-1.3,1.6c0.3,0.6,0,1.1,0,1.1l0.9,0.4l1.2-0.4c0.2-0.9,0.9-1,1.6-1.5c0.7-0.5,1.8,1,1.4,1.6
			c-0.1,0.1-0.1,0.2-0.1,0.2c-1.3,0.9-2.6,1.7-4.1,2.4l0,0c-2.2,1.1-4.6,1.9-7.1,2.4c-0.1-0.1-0.1-0.1-0.1-0.1l-0.9-0.3l-0.1-1.3
			c-0.2-0.9-1.8-0.9-1.7-0.3c0.1,0.6-3,0.3-3.1,0.3l-2,1.5l-1.5,0.2l-0.7,0.4l-0.3-0.5h-0.7l-0.4,0.6l-3.3,1.4
			c-0.2,0.2-0.3,0.4-0.3,0.5C110.7,118,109.9,118.5,109.9,118.5z M136.7,100.7c0-0.5,0.2-1.2,0.1-1.4c-0.1-0.2,0.5-0.5,0.9-0.5l0,0
			c0.2,0,0.4,0.1,0.3,0.4c-0.3,0.8,0,1.1,0,1.1c1.1-1,2,0.1,1.9,0.4c-0.1,0.3,0.6,0.5,1,0.3c0.4-0.3,0.9,0.8,0.8,1.3
			c-0.2,0.5-1.7,0.4-1.8-0.1c-0.1-0.5-0.4-0.4-0.5-0.1c-0.2,0.2-0.7,0.4-1.1,0.3l-0.4-0.4c0.1-0.1,0.1-0.2,0-0.3
			c-0.1-0.1-0.3-0.1-0.5-0.1L136.7,100.7z"/>
		<path class="st0" d="M180.6,53.6c0,0-1.2-0.9-1.1-1.3c0.1-0.4-1.2-1.3-1.1-1.6c0.1-0.4-1.1-1-1-1.4s-0.6-1.3-0.6-1.3l-1.3-1.2
			l-0.2-0.8l-1-0.1l-2-2.5l0.1-0.7l-0.6-0.1v-1l-0.6-0.4l-0.9-0.1l-1.9-2l-0.2-1h-0.9l0.2-1.5l-0.6-2.2c-0.3,0.1-0.7,0.1-0.9,0
			c-0.6-0.3,0.3-0.9,0.3-0.9V33l-0.5-0.5c0,0-1.4,0.2-1.5-0.1c-0.1-0.3-0.4-1.4-0.4-1.4l-0.1-1.5l-0.6-0.3l-0.1-0.5l-0.9,0.1v-1
			l-0.5-0.2l-0.5-0.3l-0.1-1l-1.9-0.1l-0.6-0.9l-0.7-1l-2.1-0.2l-0.5-0.5l-0.9-0.2l-0.6-0.3l-0.3,0.4l-1.6,0.1l-0.1,0.5
			c-0.5,0.3-1.9,0.3-3,0.3L147,26c-0.1,0.3-0.2,0.5-0.4,0.5c-0.4,0-0.3,1.1-0.3,1.1s1.1,0,1.4,0.1c0.4,0.1,0.4,1,0.4,1
			c1.3-0.1,1.8,1.6,1.6,2.1c-0.2,0.4,0.5,0.4,0.5,0.4s0,1.4-0.2,1.7c-0.2,0.4,1.1,0.6,1.4,1.1c0.4,0.5-0.2,2.2-0.4,2.3
			c-0.3,0.1,0.7,0.4,0.6,0.8c-0.1,0.4,0.3,0,0.4,0.7c0.1,0.7,0.3,2.1,0.3,2.1l1.2,0.1c0.2-1.1,2.3-1.2,2.7-1
			c1.4,0.5,2.5,2.8,2.5,3.3s-0.9,0.6-0.9,0.6l0.1,0.6l0.7,2.2c1.2,0.7,2.1,2.3,1.9,2.6c-0.2,0.4,1,0.3,1,0.3c0.2-1.5,1.6-1,1.7-0.5
			c0.1,0.5,0.4,1.6,0.4,1.6l0.4,0.8l0.6,0.6l0.9-0.1l0.3,0.5l1.1,0.2c0,0,0.9,1,1,1.3s1.4,0.2,1.7,0.3c0.4,0.1,0.9,0.4,0.9,0.8
			c0.1,0.4,0.6,1.1,0.6,1.1s1,0.3,1.1,0.6c0.1,0.4,0.5,1.1,0.5,1.1l0.9,0.7l0.1,0.8l0.9,0.1l0.3,1l1.5-0.1l0.9-0.6
			c0.3-0.2,0.5-0.3,0.7-0.5l1.4-1.9c0.2-0.5,0.4-0.9,1-0.8C181.2,55.7,180.6,53.6,180.6,53.6z"/>
		<path class="st0" d="M169.1,75.1c-0.3-0.3,0.3-1.5,0.3-1.5s0.4-0.7,0-1.4c-0.4-0.7,0.1-1.5,0.4-1.8l-0.7-0.4l-0.7-0.1l-0.5,0.1
			c-0.2-0.6-0.3-1.1-0.5-1.6l0,0l0.4,0.1v-0.5l-0.6-0.2c-0.1-0.4-0.3-0.7-0.4-1.1l-0.1-1.8l-0.6-0.4l0.2-0.7l-0.7-0.3l0.4-1.1
			l-0.6-1.2h-0.9c-0.4-0.8-0.8-1.6-1.3-2.4c0.1-0.1,0.2-0.1,0.4-0.2c0.5-0.1,0.6-0.2,0.7-0.2l0,0l0,0l-0.1-0.9l-0.8-0.5l-0.3-1
			c0,0-0.9,0.2-0.9,0.7c0,0.1-0.1,0.2-0.2,0.3c-0.6-1-1.2-1.9-1.9-2.8c0-0.1,0.1-0.1,0.1-0.2c0.4-0.6,0.2-1-0.4-1.1
			c-0.6-0.2-0.6-0.2-0.8-0.9c-0.2-0.7-0.9-0.9-0.9-0.9l-0.3-1l-0.6,0.4c-0.4-0.4-0.7-0.8-1-1.2l0.3-1c-0.4-0.1-0.5-0.3-0.6-0.5
			l-1-1.8c-0.3-0.2-0.6-0.3-0.8-0.2c-0.4,0.3-0.3-1.8-0.3-1.8s0.8-0.5,1.1-0.3s-2.9-4.3-3.6-3.9c-0.7,0.4-2.2-0.4-2.1-1.2
			c0.1-0.8-3.1-3.4-3.1-3.4s-1-0.7-1.2-0.2c-0.2,0.5-0.5,0.9,0,1.1c0.5,0.3,0.4-0.4,1,0.2c0.6,0.6,1.7,1.4,1.3,1.9s-0.9,0.7-0.9,0.7
			l0.6,0.7h0.9l0.2,1.5c0,0,1,0.5,1.3,1.1c0.2,0.4,0.2,0.7,0.2,0.9l-0.8,1.9c0.1,0.6,0.8,0.9,0.8,0.9l0.4,0.1
			c0.3,0.2,0.6,0.5,0.8,0.7v0.7c0.6-0.2,1.5,0.6,1.7,1.1l1.4,1.4l0,0c0.4,0.4,0.3,0.5,0.8,0.8c0.2,0.1,0.3,0.2,0.5,0.2
			c0.3,0.3,0.6,0.6,0.8,0.9l-0.2,0.3c0,1,0.5,0.7,0.9,0.6c0.2,0.2,0.3,0.4,0.4,0.5c0.1,0.6,0.1,1.4,1,1.3c0,0,0,0,0.1,0
			c1.1,1.5,2.1,3,3,4.5l0.1,0.1l0,0c0.2,0.3,0.3,0.5,0.4,0.8c-0.2,0.2-0.3,0.4-0.3,0.4l-1.4,0.2v1.4l-0.7,0.3l0.1,0.9l0.9-0.1
			c0,0,0,1,0.3,0.6s2.4,0.1,2.2,1.1c-0.1,0.4,2.1,1.5,1.9,2.9c0.2,0.1,0.3,0.1,0.4,0.2c0.4,1.2,0.8,2.4,1.1,3.6l-0.2,0.3
			c0,0,0.2,0.1,0.3,0.3c0.3,1.1,0.5,2.1,0.7,3.2c-0.1,0.9-0.3,1.8-0.8,2.1c-1,0.6,0.1,0.3,0.1,0.3l-0.2,1.9c0.3,0.9,0.7,0.4,0.9,0
			c0.2-0.2,0.3-0.4,0.4-0.5l1.6-3.3C169.2,75.6,169.2,75.3,169.1,75.1z"/>
		<path class="st0" d="M143.8,39.2c-0.2-0.6,0.7-0.9,1.1-0.2l0.9-0.1l0.2-0.8l-1.2-1h-0.9c0,0-0.1,0.7-0.7,0.4
			c-0.6-0.3-0.3-0.2-0.8-0.3c-0.5-0.1-0.4,0.9-0.3,1.3l1.7,0.9C143.8,39.5,143.8,39.4,143.8,39.2z"/>
		<path class="st0" d="M120.5,25.1c0.1-0.4,0.2-0.4,0.7-0.5c0.5-0.1-0.1-1.1-0.6-1c-0.4,0.1-0.7-0.1-0.9-0.3v2.3
			C120.2,25.6,120.4,25.4,120.5,25.1z"/>
		<path class="st0" d="M108.2,96.1c0.4-0.7,1.1-0.8,1.1-0.8l0.3-0.6l2.3,0.1c0.2-1,1.3-0.6,1.3-0.2c0,0.4,0.9,0.1,0.9,0.1l0.6-1h0.9
			l0.1-1l0.4-0.3V91c1.4-0.4,1.2-1.7,1.2-1.7l0.4-0.4l-0.2-0.6c-0.7-0.3-0.4-0.9,0.1-0.7c0.4,0.2-0.6-0.8-0.6-0.8
			c-0.5,0.4-0.9-0.5-0.9-0.5h-1.4v-1.2l-0.2-1.1l-1.3-0.6l-0.9,0.9l-0.2,1.2v0.8l-0.9,0.2l-0.2,2.3l-0.7,0.3l0.1,0.9l-0.9,0.3
			l-0.9,0.3l-0.2,1.1l-0.7,0.4l-0.4,1l-0.4,2.4l1,1C108.1,96.2,108.1,96.2,108.2,96.1z"/>
		<path class="st0" d="M115.9,72.3c-1,0,0-0.8,0-0.8l0.2-1.3h-0.9l-0.2-1.8l-2.5-1.4l-0.1-1l0.4-0.3l-0.7-0.3l-0.5,0.7l-0.2,0.8
			l-0.9,0.2v0.4H110v0.5c-1.2,0.7-2.4,1.5-3.5,2.4h-2.9l-0.8-0.1c-0.4,0.8-1.2-0.1-1.2-0.1c-0.2-0.5-1.4,0-1.4,0
			c0,1-1.6-0.4-1.6-0.4l-3-2.1c-1.7-1.5-4.2,0.4-4.3,0.9c0.1,0.7-0.5,0.7-1.1,0.6l-2-0.5c-0.4,0-0.7,0.1-0.8,0.4
			c-0.3,0.7-1.4,0.5-1.4,0.5L86,70l-0.9,0.2L85,70.7l-1,0.2l2.5-0.1c0.7-0.1-0.3,1.5-0.7,1.4l-1.2,0.1l-0.4,0.4h-1.1l-0.5,0.7
			L81,73.3c0,0-0.9,0.8-0.9,1c0.1,0.3-0.2,1-0.4,1c-0.3,0-0.8,0.8-0.6,1c0.2,0.3-0.5,1.1-0.5,1.1l-0.2,0.9L78,78.5v2.3l-1,0.7v1
			L76.5,83l-0.9,2l0.1,0.5l-1.3,1.4l0.2,1.4l-0.8,0.3l-0.2,0.6l-0.4,1.8l0.9,0.1c0.4-0.2,0.4,1.1,0,1.3s-1.3,0.5-0.8,0.9
			S72,93.4,72,92.9s-1-1-1.3-0.8c-0.2,0.1-0.4-0.2-0.5-0.4L68,91c-1,0.1-1.8,0.4-1.8,0.4l-0.4,1.4c-0.9,0.2-1.5,1.7-1.5,1.7
			c-0.8,0.3-1.4,1.2-1.1,1.5s-0.4,0.4-0.4,0.4v1.9l-0.4,0.6l0.1,2c0.5,0,0.4,1,0.4,1c-0.9,0.1-0.7,1.2-0.7,1.2l-1.8,0.6l-0.4,0.5
			l-2.2-0.1l-0.6,0.6l0,0l-2.3-0.6h-2.5l-0.2-0.4l-0.9-0.2l-0.1-1l-1.3,0.1l-0.3,0.5l-1.4,0.1c0.1,0.9-1.4,2.1-1.5,1.8
			s-1.1-1.3-0.7-1.5c0.4-0.2,1.5-0.4,1.5-0.4v-0.6l-3.2-0.1l-0.4,0.5l-1.3,0.1v1.4l-0.6,0.2c-0.4,0.3,0.1,1.2,0.1,1.2
			c0.6,0.6-0.1,1.5-0.1,1.5c-0.5,0.5,0.4,1.5,0.4,1.5c0.7,0.2-0.4,0.7-0.4,0.7c0.2,0.9,0.7,1.1,0.7,1.1c-0.5,0.9,0.4,1.3,0.4,1.3
			l0.1,1.5l0.6,0.4v1l0.4,0.6h1.4l-0.1-2.1c-1.2-1.4,1-1.7,1.1-1.2c0.1,0.5,1,0.8,1,0.8c0.2,1.3,1.6,2,2,0.8c0.4-1.3,0.8-0.5,1,0.1
			c0.3,0.6,1.9,2.1,1.9,2.1h1.3l0.2,1.2c1.4-0.1,1.9,0.1,2.4,2c0.6,2,2.2,2.5,2.2,2.5l1.2-0.1c0-1,1.2,0.2,1.2,0.7
			c0,0.5,2.3,2.5,2.3,2.5l2.3,0.5l0.4,0.4l3.7,1.2h0.4c0.2-0.5,0.4-0.6,0.8-0.6c0.8,0,1.7,0.9,1.9,1.2c0.1,0.2,0.3,0.5,0.6,0.7
			l2.1,0.7c0.1,0.2,0.2,0.4,0.2,0.7c0.2,1.3,0.8,1,0.8,1l4.8-0.1l1.7-1.5l4.3-0.1c2.2-0.1,0.9-3.1,0.4-3.1c-0.3-0.2-0.3-0.6-0.3-1.1
			l-4.3-6.6c-0.7-0.7-1.4-1.5-2-2.2c0.2-0.5,0.5-1.1,0.5-1.1c1.1-0.7-0.3-1.8-0.3-1.8c0.2-1-0.6-2.2-0.6-2.2c-1.5-1-1.1-3-1.1-3
			v-1.4c-1.3-1.2,0.5-1.4,0.5-1.4c0.6-1-0.4-1.8-0.4-1.8l-0.1-1.1l-1.4-0.2l-0.2-4l-3.1-4.4c-0.6-0.2-0.2-1.2-0.2-1.2
			c0.8-0.4-0.2-1.5-0.2-1.5l-0.1-1.9l1.8-0.2L77,88h0.9l-0.1-2.2c0.2-0.4,0.4-0.6,0.7-0.7l0,0h0.4c0.2,0.1,0.4,0.2,0.4,0.2l1.2,0.1
			l0.1-0.2l0.7-2V83l-0.9-0.1c-1-0.6-0.5-2.9-0.5-2.9c0.7-1.1,1.5-1.4,2.1-1.4c0.8-0.1,1.4,0.4,1.4,0.4l1.2-0.1
			c0.3,0.2,0.5,0.4,0.6,0.7c-0.1,0.8-0.2,1.6-0.2,2.4c-0.1,0.2-0.2,0.4-0.2,0.4c-0.1,0.2-0.2,0.4-0.2,0.7l0.1,2l0.4,2.2l-1.1,1
			c-0.9,0.5-0.9,1.7,0.1,2c0.7,0.1,0.4,1.7-0.6,0.6c-1.4,0,0.4,1.1,0.3,1.1c1.4,0.7,1.1-0.8,1.1-0.8l0.8-0.6l1.9-1.1l0,0l0,0
			c0.7,0.3,1.5,1.4,1.5,1.6c0,0.3,3.4,0.1,3.4,0.1c0.9,0.6,1.3,2.1,1.3,2.1c0.9-1.2,2.9-0.1,1.4,0.6c1.4,0.9,1.4,1.6,1.4,1.6
			c1.1-0.4,1.1,0.5,1.1,0.8c0,0.3,0.4-1.3,0.4-1.3c-1.3-1,1.7-1.3,0.9,0.4l-0.5,0.8l0.9,0.7l0.1,2c1.9-0.2,1.4-2.5,1.4-2.5l0.9-0.2
			c0-0.8,0.6-0.4,0.6-0.4c-0.4-2,0.4-2.9,0.9-3.2l1.4-1.6c0.2-0.6,0.2-1.2,0.2-1.2c-0.8-0.4-0.4-1.5,0.5-0.5s-0.5-2.1-0.5-2.1
			l-0.7-0.6l-0.9-0.1l-2,0.3l-0.5,0.2l-0.2-0.4l-0.4,1.1h-1.5l-0.1-1l0.9-0.3l0.4-0.5l0.2-0.7l0,0h1l2-2.1c0.3-0.3,0.5-0.1,0.5-0.1
			l0.5,0.4l0.8,0.6l0.1,0.5l-0.5,0.3l-0.1,0.7l0.3,1h0.7c0.3-1.4,2-1.4,2.5-0.5l0.5-1.2c-1.2-0.6,0-1.5,0.3-1.1
			c0.4,0.4,1.1-1.1,1.1-1.1s0.6,0.8,0-0.3c-0.6-1,0.4-1.5,0.4-1.5c-0.2-1,1.1-0.9,1.1-0.9l0.1-1.4l-1.2-0.1
			c-0.3,1.2-1.3,0.2-0.8-0.1c0.5-0.3,1-0.8,1-0.8v-0.9l0.5-0.2l0.1-0.9h1.3l1.1-0.5l0.3-0.4l1.2-0.1l1.7-1.5L115.9,72.3z"/>
		<path class="st0" d="M154.1,120.9L154.1,120.9L154.1,120.9z"/>
		<polygon class="st0" points="85.4,90.6 87.3,89.5 87.3,89.5 		"/>
		<polygon class="st0" points="69.4,146.5 69.4,146.5 70.1,147.5 70.2,148.3 71.1,148.6 71.4,149.1 72,148.7 71.5,147.6 70.4,146.7 
					"/>
		<polygon class="st0" points="112.8,143.4 113.2,143 113.4,142.7 113.1,142.5 112.3,142.1 112.1,142.6 112.6,142.8 112.4,143 		"/>
		<polygon class="st0" points="106.3,136 105.7,136.4 105.5,136.6 105.8,136.8 106.4,137.2 106.7,136.8 106.4,136.6 106.6,136.4 		
			"/>
		<polygon class="st0" points="46.6,118 46.6,119.2 47.1,119.2 47,117.9 46.3,117.6 46.3,117.2 45.9,117.2 45.9,118 		"/>
		<polygon class="st0" points="51.7,124.4 52.7,125.3 53,124.7 52.4,123.4 51.8,122.9 51.4,121.8 50.1,121.1 50.1,121.1 50.7,122.7 
			51,123.4 		"/>
		<path class="st0" d="M126.7,134.6L126.7,134.6L126.7,134.6z"/>
		<path class="st0" d="M191.3,110.5l-0.5-0.1l0,0c-0.1,0.4,0.1,0.9,0.5,1l0.1-0.5l0,0C191.3,111,191.3,110.7,191.3,110.5z"/>
		<path class="st0" d="M193.9,108.5c0.1,0.1,0.2,0.1,0.4,0.1l-0.1-0.5c0.1,0,0.1,0.1,0.1,0.1c0,0,0-0.1,0-0.1c0-0.2-0.1-0.4-0.2-0.6
			l0,0l-0.5,0.3c0.1,0.1,0.1,0.3,0.1,0.4C193.8,108.2,193.8,108.4,193.9,108.5z"/>
		<path class="st0" d="M193.9,109.4c0,0-0.2-0.5-0.3-1l0,0l-0.5,0.1c0.2,0.5,0.3,1,0.3,1.1L193.9,109.4z"/>
		<path class="st0" d="M188.8,99.9c-0.1-0.1-0.2-0.1-0.3-0.1c-0.4,0-0.8,0.2-1,0.4l0.3,0.4c0.3-0.2,0.8-0.3,0.8-0.3c0,0,0,0,0-0.1
			l0.5-0.1C189,100.1,188.9,100,188.8,99.9z"/>
		<path class="st0" d="M190.5,111.5L190.5,111.5c-0.2,0-0.4,0.2-0.6,0.3c-0.5,0.3-0.3,1.6,0,1.3c0.3-0.3,0.7,0,0.8-1
			C190.8,111.6,190.7,111.5,190.5,111.5z"/>
		<polygon class="st0" points="123.5,65.3 123.5,64.7 123.5,64.7 123,64.7 123,65.4 		"/>
		<polygon class="st0" points="128.3,63.9 128.2,63.4 127.9,63.5 128.1,64 		"/>
		
			<rect x="129.7" y="62.8" transform="matrix(0.9989 -4.637285e-02 4.637285e-02 0.9989 -2.7816 6.1255)" class="st0" width="1.9" height="0.5"/>
		<polygon class="st0" points="128.9,63.3 128.8,62.6 128.8,62.6 128.3,62.7 128.4,63.4 		"/>
		<polygon class="st0" points="120.6,63 120,63 120,63 119.9,63.5 120.5,63.5 		"/>
		<rect x="122.3" y="63.9" class="st0" width="0.7" height="0.5"/>
		<polygon class="st0" points="121.7,63.3 121.1,63.2 121.1,63.2 121,63.7 121.6,63.8 		"/>
		<path class="st0" d="M135.2,9.7c-0.4,0.2-1.3,0.1-1.3,0.1h-1.5c-0.1-0.3-0.4-0.4-0.8-0.4l0,0c-0.4,0.1-0.7,0.2-0.8,0.4
			c-0.1,0.4-0.6,0.4-0.6,0.4l-1.9,0.2c-0.2,0.5-1.2,0.9-1.3,0.5l0,0c-0.2-0.8-1.3,1-0.2,1.3c1.1,0.4,2.2,0,2.2,0l0.3-0.5l4.2,0.1
			c0.4-0.4,0.5-0.9,0.5-0.9s1-0.4,1.4-0.2C136,10.8,135.7,9.5,135.2,9.7z"/>
		<path class="st0" d="M127.2,15.1l-1.1-1.1v-1l-0.4-0.4l-0.4-1.2l-1.1-0.4l-1.1,0.4l-1.2,0.8l-1.3,0.2l-0.7,0.8l2.7,0.3l0.5,0.9
			l1.9,0.2l1.3,1.3C127.7,16.2,127.9,15.7,127.2,15.1L127.2,15.1z"/>
		<polygon class="st0" points="137.7,7.9 137.1,8.5 136.7,8 136.3,8.4 136.9,9 137,9.2 137.2,9 138.1,8.3 		"/>
		<path class="st0" d="M133.6,63.8c0,0.3,0.6,0.5,0.9,0.5s1.3-0.7,1.3-0.7s0.4-1.2,0.1-1.1c-0.4,0.1-1,0.6-1.1,0.1
			c-0.1-0.3-0.3-0.3-0.6-0.3s-0.5,0.1-0.5,0.1l-1.4,0.2l-0.1,0.6l0.9,0.1C133.2,63.2,133.6,63.6,133.6,63.8z"/>
		<path class="st0" d="M134.2,62.3L134.2,62.3L134.2,62.3z"/>
		<polygon class="st0" points="114.8,63.5 114.3,63.4 114.2,63.9 114.8,64 		"/>
		<path class="st0" d="M83.6,92c-0.1,0-0.1-0.1-0.1-0.1C83.5,92,83.6,92,83.6,92z"/>
		<path class="st0" d="M83.3,50.2L83.3,50.2L83.3,50.2z"/>
		<path class="st0" d="M72.2,39.1L72.2,39.1L72.2,39.1z"/>
		<path class="st0" d="M124.3,11.2L124.3,11.2L124.3,11.2z"/>
		<rect x="115.6" y="62.9" class="st0" width="0.7" height="0.5"/>
		<path class="st0" d="M103.7,49c0.5,0-0.4-0.6-0.4-0.6s-1,0.1-0.9-0.4l0.1,1L103.7,49z"/>
		<path class="st0" d="M102.3,48L102.3,48L102.3,48z"/>
		<polygon class="st0" points="114.4,64.2 113.6,64 113.5,64.5 114.2,64.7 		"/>
		<g>
			<path class="st0" d="M81.2,93.7c0.1,1,0.8-0.6,0.8-0.6v-5.9l-1.5-0.2l0,0l0.1,0.6h0.4c0.7,1.2,0.1,4.1,0.1,4.1s-1,0.1-1.2-0.4
				c-0.2-0.5-0.6,1.1-0.3,1.4C79.9,93,81.1,92.8,81.2,93.7z"/>
			<g>
				<polygon class="st0" points="82.3,96.9 82.5,96.1 81.9,95.9 82,94.6 82.5,94.5 82.5,93.9 82.5,93.9 81.2,94.8 80.4,94.2 
					80.4,96.3 81.8,98.1 				"/>
				<g>
					<path class="st0" d="M83.4,102.5L83.4,102.5c-0.2,0-0.4,0.2-0.4,0.4l0,0c0,0.2,0.2,0.4,0.4,0.4s0.4-0.2,0.4-0.4
						C83.8,102.7,83.6,102.5,83.4,102.5z"/>
					<path class="st0" d="M83.2,101.1c0-0.2-0.2-0.4-0.4-0.4c-0.2,0-0.4,0.2-0.4,0.4s0.2,0.4,0.4,0.4
						C83.1,101.5,83.2,101.3,83.2,101.1z"/>
					<polygon class="st0" points="82.6,99.1 82.1,99.2 82,99.9 82.6,100 					"/>
					<polygon class="st0" points="81.1,104.2 81.9,104.1 81.9,103.5 81.1,103.6 					"/>
				</g>
			</g>
		</g>
		<polygon class="st0" points="104.8,48 104.3,47.6 104,48 104.5,48.4 		"/>
		<polygon class="st0" points="113.5,65.2 113.4,64.7 112.9,64.8 113,65.3 		"/>
		<line class="st0" x1="143.3" y1="63.9" x2="141.9" y2="62.3"/>
		<line class="st0" x1="140.4" y1="63.9" x2="141.9" y2="62.3"/>
	</g>
</g>
</svg>
