<?xml version="1.0" encoding="utf-8"?>
<!-- Generator: Adobe Illustrator 22.1.0, SVG Export Plug-In . SVG Version: 6.00 Build 0)  -->
<svg version="1.1" id="Layer_1" xmlns="http://www.w3.org/2000/svg" xmlns:xlink="http://www.w3.org/1999/xlink" x="0px" y="0px"
	 viewBox="0 0 861.5 140" style="enable-background:new 0 0 861.5 140;" xml:space="preserve">
<style type="text/css">
	.st0{fill:none;stroke:#000000;stroke-miterlimit:10;}
	.st1{fill:none;}
</style>
<title>UNOV</title>
<g>
	<path d="M206.9,10.8H220V46c-0.1,3.6,0.1,7.3,0.5,10.9c0.5,2.6,1.9,4.8,4,6.4c2.1,1.6,5,2.4,8.7,2.4s6.5-0.8,8.4-2.3
		c1.8-1.4,3-3.4,3.4-5.6c0.5-3.6,0.7-7.3,0.6-11v-36h13.1v34.1c0,7.8-0.4,13.3-1.1,16.5c-0.6,3-2,5.8-3.9,8.1
		c-2.1,2.3-4.7,4.2-7.6,5.3c-3.2,1.3-7.4,2-12.5,2c-6.2,0-10.9-0.7-14.1-2.1c-2.9-1.2-5.5-3.2-7.6-5.6c-1.8-2.1-3-4.6-3.7-7.2
		c-0.9-3.7-1.3-9.2-1.3-16.5L206.9,10.8z"/>
	<path d="M275.8,75.7v-65h12.8l26.6,43.4V10.8h12.2v65h-13.2L288,33.4v42.4L275.8,75.7z"/>
	<path d="M341.8,43.6c0-6.6,1-12.2,3-16.7c1.5-3.3,3.5-6.3,6-8.9c2.4-2.5,5.2-4.5,8.4-5.9c4.4-1.8,9.2-2.7,14-2.6
		c9.6,0,17.2,3,23,8.9s8.6,14.2,8.6,24.8c0,10.5-2.8,18.7-8.5,24.6s-13.3,8.9-22.9,8.9c-9.7,0-17.3-2.9-23-8.8
		C344.7,62.1,341.8,54,341.8,43.6z M355.3,43.2c0,7.3,1.7,12.9,5.1,16.7c6.5,7.1,17.6,7.6,24.7,1.1c0.4-0.3,0.7-0.7,1.1-1.1
		c3.3-3.8,5-9.4,5-17s-1.6-13.1-4.9-16.7c-3.3-3.7-7.6-5.5-13-5.5c-5-0.2-9.8,1.8-13.1,5.6S355.3,35.7,355.3,43.2z"/>
	<path d="M434.7,75.7l-23.2-65h14.2l16.4,48.1L458,10.7h14l-23.3,65H434.7z"/>
</g>
<g>
	<path d="M203.5,100.2h5.3v14.1c0,1.5,0,2.9,0.2,4.4c0.2,1,0.8,1.9,1.6,2.6c1,0.7,2.2,1.1,3.5,1c1.2,0.1,2.4-0.2,3.4-0.9
		c0.7-0.6,1.2-1.4,1.4-2.2c0.2-1.5,0.3-2.9,0.2-4.4v-14.5h5.3V114c0.1,2.2-0.1,4.4-0.4,6.6c-0.2,1.2-0.8,2.3-1.6,3.3
		c-0.8,0.9-1.9,1.7-3.1,2.1c-1.6,0.6-3.3,0.8-5,0.8c-1.9,0.1-3.9-0.2-5.7-0.9c-1.2-0.5-2.2-1.3-3.1-2.2c-0.7-0.8-1.2-1.8-1.5-2.9
		c-0.4-2.2-0.6-4.4-0.5-6.6L203.5,100.2z"/>
	<path d="M230.1,126.3v-26.1h5.1l10.7,17.4v-17.4h4.9v26.1h-5.3l-10.5-17v17H230.1z"/>
	<path d="M256.5,126.3v-26.1h5.3v26.1H256.5z"/>
	<path d="M272.9,126.3v-21.7h-7.7v-4.4h20.7v4.4h-7.7v21.7H272.9z"/>
	<path d="M289.6,126.3v-26.1H309v4.4h-14.1v5.8H308v4.4h-13.1v7.1h14.6v4.4C309.5,126.3,289.6,126.3,289.6,126.3z"/>
	<path d="M314.1,100.2h9.6c1.7-0.1,3.4,0.1,5,0.5c1.5,0.4,2.9,1.3,3.9,2.4c1.1,1.2,2,2.7,2.5,4.2c0.6,2,0.9,4.1,0.9,6.2
		c0,1.9-0.2,3.8-0.8,5.5c-0.6,1.7-1.5,3.3-2.8,4.6c-1.1,1-2.3,1.7-3.7,2.1c-1.5,0.4-3.1,0.6-4.7,0.6h-9.9V100.2z M319.4,104.6v17.3
		h3.9c1.1,0,2.1,0,3.2-0.2c0.8-0.2,1.5-0.6,2.1-1.1c0.7-0.7,1.1-1.6,1.4-2.5c0.4-1.6,0.6-3.2,0.5-4.8c0.1-1.6-0.1-3.1-0.5-4.7
		c-0.3-1-0.8-1.8-1.5-2.5c-0.7-0.6-1.5-1.1-2.4-1.2c-1.4-0.2-2.9-0.3-4.3-0.2L319.4,104.6z"/>
</g>
<g>
	<path d="M350.8,126.3v-26.1h5.1l10.7,17.4v-17.4h4.9v26.1h-5.3l-10.5-17v17H350.8z"/>
	<path d="M400.8,126.3h-5.7l-2.3-5.9h-10.4l-2.2,5.9h-5.6l10.2-26.1h5.6L400.8,126.3z M391.1,116l-3.6-9.7L384,116H391.1z"/>
	<path d="M407,126.3v-21.7h-7.8v-4.4H420v4.4h-7.7v21.7H407z"/>
	<path d="M423.5,126.3v-26.1h5.3v26.1H423.5z"/>
	<path d="M433,113.4c-0.1-2.3,0.3-4.6,1.2-6.7c0.6-1.3,1.4-2.5,2.4-3.6c1-1,2.1-1.8,3.4-2.3c1.8-0.7,3.7-1,5.6-1
		c3.4-0.2,6.8,1.1,9.2,3.6c2.3,2.4,3.5,5.7,3.5,10s-1.1,7.6-3.4,9.9c-5.2,4.7-13.2,4.7-18.4,0C434.2,120.8,433,117.5,433,113.4z
		 M438.4,113.2c0,3,0.7,5.2,2,6.7c2.6,2.9,7,3.1,9.9,0.5c0.2-0.2,0.3-0.3,0.5-0.5c1.3-1.5,2-3.8,2-6.8s-0.7-5.2-2-6.7
		s-3.2-2.3-5.2-2.2c-2-0.1-3.9,0.7-5.2,2.2C439.1,108,438.5,110.2,438.4,113.2L438.4,113.2z"/>
	<path d="M462.7,126.3v-26.1h5.1l10.7,17.4v-17.4h4.9v26.1h-5.3l-10.5-17v17H462.7z"/>
	<path d="M487.9,117.8l5.1-0.5c0.2,1.4,0.8,2.8,1.9,3.8c1.1,0.8,2.4,1.3,3.8,1.2c1.4,0.1,2.7-0.3,3.8-1.1c0.8-0.6,1.3-1.5,1.3-2.5
		c0-0.6-0.2-1.1-0.5-1.6c-0.5-0.5-1.2-0.9-1.9-1.1c-0.6-0.2-2-0.6-4.2-1.1c-2.2-0.4-4.2-1.3-6-2.6c-1.5-1.3-2.4-3.2-2.4-5.3
		c0-1.3,0.4-2.6,1.1-3.7c0.8-1.2,1.9-2.1,3.3-2.7c1.6-0.6,3.4-1,5.1-0.9c3.3,0,5.7,0.7,7.4,2.2c1.7,1.4,2.6,3.5,2.6,5.8l-5.3,0.2
		c-0.1-1.1-0.6-2.1-1.5-2.9c-1-0.7-2.2-1-3.3-0.9c-1.3-0.1-2.5,0.3-3.6,0.9c-0.5,0.4-0.9,1-0.8,1.6c0,0.6,0.3,1.2,0.8,1.6
		c0.7,0.6,2.3,1.1,4.8,1.8c2,0.4,3.9,1,5.7,1.9c1.2,0.6,2.2,1.5,2.9,2.7c1.5,2.6,1.4,5.8-0.2,8.4c-0.8,1.3-2.1,2.3-3.5,2.9
		c-1.8,0.7-3.7,1-5.7,1c-3.3,0-5.8-0.8-7.6-2.3C489.2,122.8,488.1,120.3,487.9,117.8z"/>
</g>
<g>
	<path d="M522.5,113.4c-0.1-2.3,0.3-4.6,1.2-6.7c0.6-1.3,1.4-2.5,2.4-3.6c1-1,2.1-1.8,3.4-2.3c1.8-0.7,3.7-1,5.6-1
		c3.4-0.2,6.8,1.1,9.2,3.6c2.3,2.4,3.5,5.7,3.5,10s-1.1,7.6-3.4,9.9c-5.2,4.7-13.2,4.7-18.4,0C523.6,120.8,522.5,117.5,522.5,113.4z
		 M527.9,113.2c0,3,0.7,5.2,2,6.7c2.6,2.9,7,3.1,9.9,0.5c0.2-0.2,0.3-0.3,0.5-0.5c1.3-1.5,2-3.8,2-6.8s-0.7-5.2-2-6.7
		s-3.2-2.3-5.2-2.2c-2-0.1-3.9,0.7-5.3,2.2C528.5,108,527.9,110.2,527.9,113.2L527.9,113.2z"/>
	<path d="M552.2,126.3v-26.1h17.9v4.4h-12.6v6.2h10.9v4.4h-10.9v11.1H552.2z"/>
	<path d="M574.7,126.3v-26.1h17.9v4.4H580v6.2h10.9v4.4H580v11.1H574.7z"/>
	<path d="M597,126.3v-26.1h5.3v26.1H597z"/>
	<path d="M624.2,116.7l5.1,1.6c-0.6,2.5-1.9,4.7-3.9,6.3c-4.9,3.2-11.3,2.6-15.5-1.5c-2.2-2.4-3.3-5.6-3.3-9.7
		c0-4.3,1.1-7.7,3.4-10.1c2.3-2.4,5.5-3.7,8.8-3.6c2.9-0.1,5.7,0.9,7.8,2.8c1.3,1.3,2.2,3,2.7,4.8l-5.2,1.2
		c-0.5-2.6-2.8-4.5-5.5-4.4c-1.8,0-3.5,0.7-4.7,2.1s-1.8,3.6-1.8,6.8c0,3.3,0.6,5.6,1.8,7c1.1,1.4,2.8,2.2,4.6,2.1
		c1.3,0,2.6-0.5,3.6-1.3C623.2,119.7,624,118.3,624.2,116.7z"/>
	<path d="M634.1,126.3v-26.1h19.3v4.4h-14.1v5.8h13.1v4.4h-13.1v7.1H654v4.4C654,126.3,634.1,126.3,634.1,126.3z"/>
</g>
<g>
	<path d="M692.9,126.3h-5.7l-2.3-5.9h-10.5l-2.2,5.9h-5.5l10.2-26.1h5.5L692.9,126.3z M683.2,116l-3.6-9.7l-3.5,9.7H683.2z"/>
	<path d="M699.2,126.3v-21.7h-7.7v-4.4h20.7v4.4h-7.7v21.7H699.2z"/>
</g>
<g>
	<path d="M732,126.3l-9.3-26.1h5.7l6.6,19.3l6.4-19.3h5.6l-9.3,26.1C737.7,126.3,732,126.3,732,126.3z"/>
	<path d="M749.7,126.3v-26.1h5.3v26.1H749.7z"/>
	<path d="M760.3,126.3v-26.1h19.3v4.4h-14.1v5.8h13.1v4.4h-13.1v7.1h14.6v4.4C780.1,126.3,760.3,126.3,760.3,126.3z"/>
	<path d="M784.9,126.3v-26.1h5.1l10.7,17.4v-17.4h4.9v26.1h-5.3l-10.5-17v17H784.9z"/>
	<path d="M811.5,126.3v-26.1h5.1l10.7,17.4v-17.4h4.9v26.1h-5.3l-10.5-17v17H811.5z"/>
	<path d="M861.5,126.3h-5.7l-2.3-5.9h-10.4l-2.2,5.9h-5.6l10.2-26.1h5.6L861.5,126.3z M851.8,116l-3.6-9.7l-3.5,9.7H851.8z"/>
</g>
<g>
	<g>
		<g>
			<circle class="st0" cx="82.5" cy="57.9" r="11.9"/>
			<circle class="st0" cx="82.5" cy="57.9" r="22.8"/>
			<circle class="st0" cx="82.5" cy="57.9" r="34.7"/>
			<circle class="st0" cx="82.5" cy="57.9" r="45.7"/>
			<circle class="st0" cx="82.5" cy="57.9" r="57.7"/>
		</g>
		<g>
			<line class="st0" x1="82.5" y1="46.4" x2="82.5" y2="0"/>
			<line class="st0" x1="82.5" y1="115.6" x2="82.5" y2="69.2"/>
			<line class="st0" x1="94.2" y1="57.9" x2="140.5" y2="57.9"/>
			<line class="st0" x1="24.4" y1="57.9" x2="70.8" y2="57.9"/>
			<line class="st0" x1="90.5" y1="49.9" x2="123.3" y2="17.1"/>
			<line class="st0" x1="74.4" y1="49.9" x2="41.6" y2="17.1"/>
			<line class="st0" x1="74.4" y1="65.9" x2="41.6" y2="98.7"/>
			<line class="st0" x1="90.5" y1="65.9" x2="123.3" y2="98.7"/>
		</g>
	</g>
	<path id="Laurel" d="M39,5.2c-5.9,2.3-12.2,4.6-16,10.6c-2.2,3.5-2.5,7.7-4.3,11.3c3.2-3,7-5.3,9.8-8.9C31.8,13.8,34.7,9,39,5.2
		L39,5.2z M126,5.2c4.3,3.8,7.2,8.6,10.5,13c2.7,3.6,6.5,5.9,9.8,8.9c-1.8-3.6-2.1-7.8-4.3-11.3C138.1,9.8,131.8,7.5,126,5.2
		L126,5.2z M23.2,13.2c-3,0.8-5.5,2.7-7.7,5.2c-4.7,5.2-4.3,12.8-3.6,19.7c0.2,2.1,0.1,3.9-0.2,6.1c1.4-2.9,3.7-5.7,6.5-7.7
		c6-4.7,12.7-10.7,12.8-18.5c-2,5.6-8.1,8-12.2,11.8c-2.2,2-3.8,4.5-4.8,7l-0.1-0.1c0.5-2.2,1.5-4.3,2.1-6.5
		C17.7,24.3,17.4,17.2,23.2,13.2L23.2,13.2z M141.8,13.2c5.8,4,5.5,11.1,7.3,17.1c0.6,2.2,1.6,4.2,2.1,6.5l-0.1,0.1
		c-1-2.5-2.6-5-4.8-7C142.1,26,136,23.6,134,18c0.1,7.8,6.8,13.8,12.8,18.4c2.7,2.1,5,4.8,6.5,7.7c-0.2-2.2-0.3-4-0.2-6.1
		c0.6-6.8,1-14.5-3.6-19.7C147.3,15.9,144.7,13.9,141.8,13.2L141.8,13.2z M10.8,23.8c-0.2,0-0.2,0.1-0.4,0.1
		c-4,5.2-6.7,10.8-6.7,17.7c0,8.5,4.9,14.5,5.5,22.5c1.3-8.4,8.3-14.3,11.9-21.7c1.4-2.9,2.3-6.1,2.7-9.3c-0.5,1.3-1.3,2.6-2.5,3.7
		C16.6,41.3,11,45.7,9.9,52c-0.2,0.9-0.2,1.8-0.5,2.7c-0.2,0.1-0.2-0.1-0.3-0.2l0.6-7.9C10.4,39.1,6.4,30.6,10.8,23.8L10.8,23.8z
		 M154.1,23.8c4.4,6.8,0.4,15.3,1,23l0.6,7.9c-0.1,0.1-0.1,0.3-0.3,0.2c-0.3-0.9-0.3-1.8-0.5-2.7c-1.1-6.3-6.6-10.8-11.4-15.2
		c-1.1-1.1-1.9-2.3-2.5-3.7c0.4,3.2,1.3,6.4,2.7,9.3c3.6,7.4,10.7,13.3,11.9,21.7c0.6-8,5.5-14,5.5-22.5c0-6.9-2.7-12.6-6.7-17.7
		C154.4,23.9,154.3,23.8,154.1,23.8L154.1,23.8z M2.2,45.1c-0.9,2-1.3,4.2-1.8,6.4c-1.1,5.6,0,11.5,1.5,16.7
		c1.9,6.4,8.2,11,11.4,16.9l0.4,0.3c-0.5-3.2-0.7-6.6,0.2-9.7c1.4-4.9,3.1-9.6,4-14.7c0.7-3.9,1.5-8.3,1.1-12.2
		c-0.5,2.1-1.1,4.1-2.2,5.8c-4.3,6.6-8.7,14.4-5.7,22.8c-0.1,0.1-0.2,0.2-0.3,0.1c-1.2-2.8-1.5-5.9-2.3-8.9
		C6.5,60.9,0.4,54.3,2.2,45.1L2.2,45.1z M162.8,45.1c1.8,9.1-4.3,15.7-6.4,23.7c-0.8,3-1,6.1-2.3,8.9c-0.1,0.1-0.2-0.1-0.3-0.1
		c3-8.4-1.4-16.2-5.7-22.8c-1.1-1.7-1.7-3.8-2.2-5.8c-0.5,3.8,0.3,8.2,1.1,12.2c0.9,5.1,2.6,9.8,4,14.7c0.9,3.1,0.7,6.5,0.2,9.7
		l0.4-0.3c3.2-5.9,9.5-10.5,11.4-16.9c1.5-5.1,2.6-11.1,1.5-16.7C164.1,49.4,163.7,47.1,162.8,45.1L162.8,45.1z M18,67.9
		c0.8,5.2-1.3,9.8-1.8,14.7c-0.4,4.1,0.3,8,1.9,11.4c0.5,1,1.3,1.9,1.6,3c-1.5-1.4-2.6-3.1-3.7-4.8c-4.9-8-15.2-13.1-15.9-22.8
		c-0.4,4.3,0,8.9,1.5,12.7c2,5.3,5.8,9.4,10.3,12.9c4.6,3.6,10,6.4,14.2,9.6c-0.8-2.1-2.2-4-2.7-6.2C20.8,88.5,22.2,77,18,67.9
		L18,67.9z M147,67.9c-4.2,9.2-2.9,20.6-5.3,30.5c-0.5,2.2-1.9,4.1-2.7,6.2c4.2-3.2,9.6-6,14.2-9.6c4.4-3.5,8.3-7.6,10.3-12.9
		c1.4-3.8,1.8-8.4,1.5-12.7c-0.7,9.7-11,14.9-15.9,22.8c-1.1,1.7-2.1,3.5-3.7,4.8c0.2-1,1.1-1.9,1.6-3c1.6-3.4,2.3-7.4,1.9-11.4
		C148.3,77.7,146.2,73.1,147,67.9L147,67.9z M23.3,84.5c3.6,7.1,2,16.4,6.7,23.1c1.5,2.1,3.5,4.1,5.3,5.8l-0.1,0.1
		c-1.7-0.8-3.2-2-4.8-3.3c-8.1-6.7-20.3-7.6-25.2-18.6c1.3,8.1,7.7,15.2,14.6,19.8c6.6,4.3,15,3.8,22.3,6.2
		c-6.8-5.4-7.8-13.6-10.8-20.8C29.6,92.4,26.6,88.4,23.3,84.5L23.3,84.5z M141.7,84.5c-3.2,3.9-6.3,7.9-8.2,12.4
		c-3,7.2-4,15.3-10.8,20.8c7.3-2.4,15.7-1.9,22.3-6.2c6.9-4.5,13.3-11.7,14.6-19.8c-4.9,11-17.1,11.9-25.2,18.6
		c-1.5,1.3-3.1,2.5-4.8,3.3l-0.1-0.1c1.9-1.7,3.9-3.7,5.3-5.8C139.6,100.8,138.1,91.6,141.7,84.5L141.7,84.5z M35,101.9
		c4.4,5.9,5.7,14.6,13.7,17.6c1.4,0.5,3.1,0.6,4.3,1.4c-1.6,0.2-2.9-0.2-4.4-0.5c-10.4-2.2-23.1,0.6-30.9-8.2
		c3,5.8,9,10.4,14.9,12.3c9.1,3,18.5-0.3,27-2.5c1.2-0.3,2.7-0.2,3.9-0.6c-4.7-1-9.3-2.4-13-5.8C45.3,110.8,40.6,105.6,35,101.9
		L35,101.9z M130,101.9c-5.6,3.7-10.3,8.9-15.6,13.7c-3.7,3.4-8.2,4.8-13,5.8c1.1,0.4,2.6,0.3,3.9,0.6c8.5,2.1,18,5.4,27,2.5
		c5.8-1.9,11.9-6.5,14.9-12.3c-7.8,8.9-20.5,6-30.9,8.2c-1.4,0.3-2.8,0.8-4.4,0.5c1.2-0.8,2.9-0.9,4.3-1.4
		C124.3,116.5,125.6,107.8,130,101.9L130,101.9z M73.9,121.1c-8,0-15.1,3.9-22.1,6.8c-6.3,2.6-14.7,2.1-20.3-1.8
		c2.8,3.5,6.5,5.6,10.3,7.1c7.1,2.8,15.4,0.7,21.5-3.2c4.4-2.8,8.1-6.8,13.3-6.8c0.9,0,1.8,0.1,2.8,0.3c-7.3,2.9-13.9,8.1-19.1,13
		c1,1.1,2.2,2.1,3.4,3c5.8-6,12.3-12.4,18.9-15.1c6.5,2.7,13.1,9.1,18.9,15.1c1.2-0.9,2.4-2,3.4-3c-5.2-5-11.8-10.1-19.1-13
		c0.9-0.2,1.8-0.3,2.8-0.3c5.2,0,8.9,4,13.3,6.8c6.1,3.9,14.4,6.1,21.5,3.2c3.8-1.5,7.5-3.6,10.3-7.1c-5.6,3.9-14,4.4-20.3,1.8
		c-7-2.9-14.1-6.8-22.1-6.8c-2.9,0-5.8,0.5-8.6,1.3C79.7,121.6,76.8,121.1,73.9,121.1L73.9,121.1z"/>
	<g>
		<path d="M93.6,16.2L93.1,16c0,0-0.6-0.1-0.6-0.2l0,0l0,0c0,0-0.4,0.4-0.6,0.6c0.3,0.1,0.7,0.4,0.7,0.4c0.5,0,0.8,0.4,0.8,0.5
			s0.6,0.1,0.6,0.1l0.1-0.4L93.6,16.2z"/>
		<path d="M114.1,40.2L114.1,40.2L114.1,40.2L114.1,40.2L114.1,40.2z"/>
		<path d="M91.7,16.2L91.7,16.2C91.6,16.1,91.4,16,91.7,16.2z"/>
		<polygon points="91.3,18.1 91.3,18.1 91.3,18.7 91.9,18.7 91.7,18.3 		"/>
		<polygon points="90.6,16.1 90.5,16.1 89.9,16.1 89.9,16.4 90.4,16.4 90.8,17.1 91,16.8 90.6,16.2 		"/>
		<path d="M97.9,23.9c-0.3,0-0.8-0.4-0.7-0.6c0.1-0.2-1-0.5-1-0.5s-1-1-0.6-0.8c0.4,0.1,0.2-0.4,0.2-0.4s-0.7,0.1-0.9,0.1
			c-0.2-0.1-0.1-0.6-0.1-0.6S94.4,21,94.2,21l0,0c-0.1,0-0.1,0-0.1,0.1c0,0.2,0.2,0.2,0.4,0.5s0.1,1,0.6,1.1s0.6,0.2,0.7,0.5
			c0.1,0.2,0.7,0.3,0.7,0.3l0.5,0.2l1.4,1.2v-0.5C98.3,24.3,98.2,23.9,97.9,23.9z"/>
		<path d="M109.5,15.7l0.9,0.3c0,0,1.1,1.3,1.1,0.7c-0.1-1.8-1-1.8-1.2-2.2c-0.1-0.1-0.2-0.1-0.4-0.1l0,0c-0.5,0-1.2,0.3-1.1,0.7
			C108.8,15.4,109,15.6,109.5,15.7z"/>
		<path d="M114.1,40.2L114.1,40.2L114.1,40.2z"/>
		<path d="M112.8,36c-0.1,0.3,0.1,0.5,0.4,0.5s0.4,0.1,0.6,0.2c0.2,0.1,0.4,0.3,0.6,0.5L115,37c0,0,0.1-0.6-0.2-0.4
			c-0.2,0.2-0.4-0.4-0.6-0.4c-0.2,0.1-0.4-0.2-0.6-0.5s-0.2-0.4-0.5-0.5c-0.1-0.1-0.2-0.1-0.4-0.1l0,0c-0.1,0-0.1,0.1-0.1,0.2
			C112.6,35.6,112.9,35.7,112.8,36z"/>
		<polygon points="91.7,15.2 91.4,15.1 91.4,15.1 91.1,15.6 91.5,15.8 		"/>
		<path d="M114.5,37.8L114.5,37.8l-0.7,0.1c0.2,0.2,0.5,0.4,0.5,0.7c0,0.2-0.1,0.4,0.2,0.5c0.4,0.1,0.6-0.1,0.7,0.2s0.1,0.8,0.1,1
			c-0.1,0.2,0.1,0.6,0.4,0.6s0.4,0.1,0.4,0.2c0,0.2,0.4-0.7,0.4-0.7c-0.3-0.2-0.5-0.8-0.5-0.8s-0.3-0.8-0.3-1c0-0.1-0.4-0.2-0.6-0.3
			C114.8,38.3,114.5,37.8,114.5,37.8z"/>
		<polygon points="110.3,33.4 110.3,32.9 110.3,32.9 109.9,32.9 109.9,33.5 		"/>
		<polygon points="117.8,52.1 118.1,52.3 118.3,51.9 118,51.7 		"/>
		<path d="M116.4,42.3c-0.2,0.1-0.3,0.4-0.5,0.5c-0.2,0.2,0.4,0.4,0.4,0.6c0,0.2,0.1,1.1,0.1,1.1s0.4,0.2,0.5,0.4s0,0.7,0.2,0.8
			s0.5,0.3,0.4,0.5s-0.1,0.7-0.1,0.7l0.2,0.5l0.5,0.3c0,0,0.2-1.4-0.1-1.5c-0.3-0.1-0.2-0.9-0.2-0.9s0.3-1.1-0.2-1.1
			s-0.1-0.6-0.4-0.8s-0.1-1-0.2-1.2s-0.1-0.5-0.4-0.7h-0.1l0,0C116.3,41.6,116.6,42.2,116.4,42.3z"/>
		<polygon points="118.5,50.2 118.2,50.2 118.2,50.2 118.2,50.6 118.5,50.7 		"/>
		<path d="M107.7,39.3c0,0-0.1,1.1-0.5,1.4h-0.8c0,0,0.2,0.3,0.4,0.5c0.2,0.2,0.6,0.5,0.2,0.8c-0.4,0.2,0.1,0.2,0.1,0.2
			s-0.1,1.2-0.6,1.1c-0.5-0.2-0.7,0.7-0.7,0.9s2.1,0.3,1.8,0c-0.2-0.2,0.2-0.6,0.2-0.6s1.4,0.1,1.7,0.1s0.5-0.1,0.4-0.4
			c-0.2-0.3-0.7-0.2-0.7-0.2s-0.7,0.2-1.3-0.2c-0.6-0.4,0.1-0.5,0.2-0.5s0.6-0.4,0.4-0.7s0-0.8,0-0.6s0.6,0.4,0.8,0.2
			c0.1-0.2,0-0.7-0.3-0.9s0.5-0.3,0.3-0.6s-0.4-0.7-0.4-0.7l0,0C108.8,39,108.4,39.5,107.7,39.3z"/>
		<path d="M117.4,82.4l-0.1,0.4c0,0,0.1,0,0.1,0.1l0.1,0.3l-0.1,0.1l0.2,0.2c0.2-0.2,0.2-0.4,0.2-0.6
			C117.7,82.5,117.4,82.4,117.4,82.4z"/>
		<path d="M117.3,82.8L117.3,82.8L117.3,82.8z"/>
		<polygon points="117.8,81.7 118.4,81.7 118.4,81.2 117.8,81.2 		"/>
		<path d="M117.8,81.2L117.8,81.2L117.8,81.2z"/>
		<path d="M114.2,63.9c0.2,0.1,0.5,0.2,0.2-0.5c-0.1-0.2-0.2-0.3-0.5-0.3l0,0c-0.5,0-1.1,0.3-0.9,0.6
			C113.4,64.1,114,63.9,114.2,63.9z"/>
		<rect x="106.9" y="75.1" width="0.4" height="1.1"/>
		<path d="M76.2,18.4c0,0,0.9,0.1,1,0.2c0.1,0.2,0.6,0.2,0.7,0.1s0.3-0.5-0.2-0.5s-0.4-0.3-0.6-0.5c-0.1-0.1-0.4-0.1-0.7-0.1
			c-0.3,0-0.6,0.1-0.6,0.2C75.8,18,76.2,18.4,76.2,18.4z"/>
		<polygon points="57,7 56.4,5.8 56.4,5.8 		"/>
		<polygon points="61.8,21.4 61.5,21.6 61.9,22 62.1,21.7 		"/>
		<path d="M62.5,17.5l-0.6-1.2l0,0l0,0L62.5,17.5L62.5,17.5z"/>
		<polygon points="101.6,42.8 101.6,43.1 102.2,43 102.2,42.7 		"/>
		<polygon points="114.2,56 114.9,56.1 114.9,55.7 114.3,55.6 		"/>
		<rect x="109.9" y="40.8" width="0.4" height="0.4"/>
		<polygon points="111.1,41.2 110.8,41.1 110.8,41.1 110.6,41.4 110.9,41.6 		"/>
		<polygon points="108.9,38.4 108.9,38 108.3,38.1 108.3,38.4 		"/>
		<polygon points="92.5,4.3 92.6,4.2 93.2,3.8 93,3.5 93,3.5 92.5,3.8 92.1,3.6 91.9,3.9 92.4,4.2 		"/>
		<rect x="109.2" y="38.5" width="0.4" height="0.3"/>
		<path d="M102.2,42.7L102.2,42.7L102.2,42.7z"/>
		<polygon points="103.3,43.6 103.1,44.1 103.5,44.2 103.6,43.8 		"/>
		<path d="M104.4,44.6c-0.2,0-0.5,0-0.6,0.1c-0.3,0.1-0.2,0.3,0,0.6l0.7-0.1c0,0,0.5-0.2,0.4-0.4C104.8,44.6,104.6,44.6,104.4,44.6z
			"/>
		<polygon points="112.8,56.1 112.6,56.2 112.2,56.5 111.8,56.2 111.6,56.5 112.1,56.8 112.2,56.9 112.3,56.8 112.6,56.6 
			112.7,56.7 113,56.6 112.9,56.3 		"/>
		<path d="M98.9,43.7L98.9,43.7L98.9,43.7z"/>
		<path d="M79.1,66.2L79.1,66.2l-0.5,0.1l0.1,0.8l0.4,0.3l0.6,0.2c0,0,0.9-0.2,1-1l-1.3-0.1L79.1,66.2z"/>
		<path d="M84.1,62c0.2,0.1,0.1-0.8,0.1-0.8l0,0L83.1,62c0.5,0.1,0.6,0.6,0.6,0.8C83.9,63.3,83.9,61.9,84.1,62z"/>
		<polygon points="87.3,78.3 87.7,77.6 87.3,77.5 87.3,77.5 86.9,77.8 87.1,78 		"/>
		<polygon points="94.4,75.7 94.2,75.4 93.8,75.7 93.9,76 		"/>
		<path d="M87.5,62c0.3,0.2,0.8-0.2,0.5-0.4c-0.9-0.6-0.8-1.4-1.1-1.9c0-0.1-0.1-0.2-0.2-0.2l0,0c-0.1,0-0.2,0.1-0.3,0.3v0.8
			C86.4,60.5,87.2,61.8,87.5,62z"/>
		<path d="M92.3,71.4L92.3,71.4L92.3,71.4z"/>
		<polygon points="78,55.3 77.4,55.3 77.4,55.3 77.2,55.5 76.9,55.5 76.9,56 77.2,56 77.3,56.4 77.1,56.6 76.9,56.9 76.5,57 
			75.4,58 75.4,58.5 75.1,58.9 74.7,59.8 73.5,59.9 73.2,61 73.4,61.9 74.5,62.3 74.6,61.7 74.9,61.5 75,60.9 75.2,60.5 75.6,60.1 
			75.7,59.6 76.3,59.3 77,59.1 77.3,58.8 77.4,58 77.5,57.5 77.7,57.2 78.4,56.8 78.4,55.7 78.1,55.7 		"/>
		<path d="M82.4,46.7L82.4,46.7L82.4,46.7z"/>
		<path d="M58,63.9L58,63.9c-0.1,0-0.2,0.1-0.2,0.2l0,0c0,0.1,0.1,0.2,0.2,0.2s0.2-0.1,0.2-0.2C58.3,64,58.1,63.9,58,63.9z"/>
		<path d="M60.7,61.6L60.7,61.6L60.7,61.6z"/>
		<path d="M80.9,70.9c0,0-0.2,0.4-0.6,0l-0.1-0.1l0,0c-0.3,0-0.5,0.9-0.7,1.1c0,0,0.1,0.5,0.4,0.5c0.2,0,0.4-0.2,0.7-0.2
			c0.2,0,0.3-0.4,0.4-0.8C81.1,71.1,80.9,70.9,80.9,70.9z"/>
		<path d="M88.1,93L88.1,93L88.1,93z"/>
		<path d="M108.9,86.6c-0.2-0.2,0.3,0.3,0.4,0.5s0.5,0.2,0.6,0s0.1-0.5,0.1-0.7l-0.4-0.4C109.6,86.5,109.1,86.8,108.9,86.6z"/>
		<path d="M114.4,87.4l-0.3-0.3l-0.1-1.5c0.2-0.8-1.1-1.9-1.2-1.7s-0.9,0.1-0.9,0.3c0,0.2-0.5,1.4-0.2,1.8c0,0,0,0,0,0.1l-0.5,1.5
			c-0.1,0.3-0.3,0.6-0.2,0.8l0,0l0.5,0.2l0.1,1c0.4,0.4,1.3,0.4,2,0.3l1-1C114.5,88.3,114.4,87.4,114.4,87.4z"/>
		<path d="M81.4,70.5L81.4,70.5c0,0-0.2,0.6,0,0.6c0.2,0.1,0.2,0.1,0.3,0.3l-0.1,0.3c-0.2-0.3-0.4,0.2-0.2,0.4s-0.3,0-0.3,0.2
			s-0.1,0.3,0,0.4s0,0.1-0.2,0.3c-0.2,0.1,0.7,0.2,0.7,0.2s-0.2-0.4,0-0.4h0.1l0.2-2.3H81.4z"/>
		<path d="M96.8,41.5c0-0.2-0.6-0.5-0.5-0.2c0.1,0.4-0.4,0.5-0.5,0.4s-0.5,0.4-0.5,0.4c0,0.2-0.1,0.4,0.2,0.5c0.4,0.1,1-0.2,1.1,0.1
			c0,0.1,0,0.2,0.1,0.3l1-1C97.5,41.8,96.8,41.7,96.8,41.5z"/>
		<path d="M100.8,43.4c0-0.2-0.7-1.1-1.1-1.2L100.8,43.4L100.8,43.4z"/>
		<path d="M99.1,43.5L99.1,43.5L99.1,43.5L99.1,43.5L99.1,43.5c0,0,0.4,0.1,0.6,0.1l-1-1.2l-1.1,1.1c0.1,0,0.2,0,0.3,0
			C98.3,43.6,99.1,43.5,99.1,43.5z"/>
		<path d="M100.4,44.9L100.4,44.9L100.4,44.9z"/>
		<path d="M76.3,81.8L75.8,82l-0.4,0.5l-0.7,0.2L74.6,84l-0.4,0.2v0.5l-0.4,0.1v0.3l-0.6,0.1l0.4,0.9l0.5,0.2
			c0.8,0.1,0.5,1.1,0.5,1.1l0.5,0.1l0.2,0.7l0.5,1c0.2,0.7,0.7,0.5,1,0.5c0.2-0.1,0.5,0.7,0.5,0.7l2.3,0.1c0,0-0.1,0.2,0.3,0.4
			C80.1,91,81,91,81.8,91l1.4-0.4c0.2-0.1,0.6-0.2,1-0.2s0.7,0.1,1,0.3c0.6,0.5,1.5,0.2,1.5,0.2l0.6,0.8L88,93l0,0l0,0l0.1,0.3
			l1,0.3l0.7,0.2l0.2,1l0.5,0.1l0.2,0.7c0.6,0.5-0.2,1.5-0.2,1.5v1.3l0.5,0.2V99l0.8,0.8l0.9,0.1l1.5,1.6l1.5,1.1l1,0.3l0.3,1
			l0.5-0.1l0.4-0.3l1.4-0.1l0.7-0.7l0.8-0.1l5.6-4.7l0.4-1.9v-0.6c1.1-0.8,1.1-2.2,0.1-2.3c-0.7-0.1-0.4-0.9,0.3-1l0.4-0.2v-0.5
			l1.3-1.2v-1l-2.9-2.4c-0.6-0.2-0.6-1-0.4-1.7l1.6-3.5c-0.1-1.2-0.4-2.5-0.4-2.5l-0.5-0.2l0.1-1.5h-0.6l-1.1,1.4l-0.1,0.4l-0.7,1.2
			c-1.1,0.5-3.2,0.3-3.4,0.2c-0.2-0.2-1.4-0.7-1.4-0.7s-1-0.8-1.1-0.5c-0.2,0.2-1-0.3-1-0.1c0,0.2-0.8-0.4-0.8-0.4L95,78.5l0.9-0.2
			l-0.1-0.6c0,0,0.1,0,0.1-0.1l0,0l1.4,0.7c0.2,0.2,1,0.2,1,0.2l0.2,0.3c0,0,0.5-0.1,0.8,0.3s1.8,0.1,1.8,0.1l0.4,0.4l0.6,0.2h1.1
			l0.8-1.2l0.3-0.3l-0.1-0.7l0.4-0.4v-0.6l0.4-0.1V75l0.3-0.1V72l-0.9-0.8c-0.1,0.3-1,0.3-1,0.3S103.2,72,103,72s0.2,0.5,0.1,0.9
			s-0.6,0.4-0.6,0.4l-0.9,0.2l-0.2,0.3h-1l-0.1-0.5c0.1-0.1,0.2-0.2,0.3-0.4l0.7-0.2l0.6-0.3l0.3-0.6c0.1-0.6,0.8-0.5,0.8-0.5
			s1.3-1.1,1.4-1.7c0.1-0.5,0.5-2,1.3-2h1.5c0.6-0.2,0.4-1,0.4-1l0.8-0.1l0.1,0.4c0,0,1.1,0.1,1.2-0.1s0.4-0.6,0.6-0.4
			c0.3,0.2,1.2-0.4,1.2-0.4c0.1-0.4,1.5-0.2,1.5-0.2l0.2-0.5c0,0-1-1.4-1.2-1.4s-1.1-0.8-1.2-0.5c-1-0.2-0.9-1.6-0.9-1.6l-0.4-0.8
			c0-0.5-0.9-1.5-1.1-1.4c-0.4-0.3-0.5-0.6-0.4-0.8l0,0l1.1-1.4l0.1-0.2l0.3-0.8l1-0.3l0.1-0.8h-0.4c0,0,0.6-1.1,0.9-1.1
			s2.2,0,2.4-0.1c0.2-0.1,0.5-1.1,0.5-1.2c0-0.2,0.5-0.2,0.6-0.3c0.2-0.1,0.6-0.5,0.7-0.8s-0.3-1.7-0.5-1.5s-0.8,0.4-0.8,0.4
			l-0.2,0.7l-0.3,0.2c0,0,0.1,0.2,0,0.6c-0.1,0.4-0.6,0.7-0.6,0.7l-0.2,0.3c0,0-1.4,0.1-1.6,0c-0.5-0.2-0.2-1,0.2-0.9
			c0.4,0.1-0.1-1-0.1-1L112,51c0,0,0.1-1.1,0.2-1.1c0.2,0-0.1-0.4-0.3-0.5c-0.2-0.2-0.5-0.8-0.8-0.7c-0.2,0.1-1.2,0-1.2,0l-0.2,0.4
			l-0.6,0.1c0,0,0.1,0.5-0.1,0.6c-0.4,0.4-1.7,1.3-1.1-0.2l0.2-0.4v-0.5l-1.1-0.1c0,0-0.5-0.2-0.5-0.4s-0.1-0.5-0.1-0.5l-1.2-1.4
			l-1.5-0.2l-0.1-0.3l-0.9-0.1c-0.1-0.1-0.2-0.1-0.4-0.1L101,46c-0.1,0.1-0.1,0.4,0,0.6c0.2,0.9,0.5,1.2-0.1,1.2s-0.7-0.5-0.7-0.5
			s-0.5-0.2-0.5,0.1c0,0.2-0.2,0.7,0,1s-0.2,0.6-0.4,0.4s-0.6-0.7-0.5-0.9s-0.8-1.3,0.1-1.5c1-0.2-0.1-0.7,0.3-0.8l0.5-0.2h0.5
			l0.3-0.2l0,0l-0.7-0.1L99.3,45l-0.9-0.1c-0.9,0.6-1.1,1.3-1.1,1.3c-0.4,0.8-1.3,0-1.3-0.6l-2.1,0.1c-0.3,0-0.6,0-0.6,0
			c-0.2,0.5-1-0.1-0.8-0.4c0.2-0.4,0.2-0.6,0.2-0.6l-0.3-0.1L92,45.3c-0.8,0-1.1,0.5-0.9,0.8s-0.2-0.1-0.4,0.4s0.1,0.4,0.4,0.6
			c0.4,0.2-0.2,0.2,0.1,0.5c0.1,0.2,0.5,0.1,0.6,0.2L91.5,48c-0.4,0.1-0.9,0-0.9,0c0,0.1-0.1,0.2-0.2,0.2c-1-0.8-2-1.4-3.1-1.9
			c0.2-0.1,0.5-0.1,0.6-0.5c0.2-0.7,0.4-1.7,0.4-1.7s-1-0.1-1,0.2c-0.1,0.3-0.6,0.5-0.6,0.5s-0.5,0.2-0.3,0.4S86,45.6,86,45.6
			s0,0.2,0,0.3l-3.7,0.8l0,0l0.1,1.4L81.8,48h-0.4l-0.2-0.4l-0.4-0.1v1.3l0.4,0.3l0.3,0.3l0.6,0.1l0.1,0.7l1.5,0.1l0.2,0.3l0.9,0.1
			l1.7,1.7l-0.1,0.5l-0.3,0.2c0.1,0.4-0.8,0.2-0.8,0.2v0.4l0.4,0.1l0.4,0.2l0.6-1c0.6-0.4,1,0.2,1,0.5c0.1,0.4-0.3,0.3-0.3,0.3v0.8
			l0.4,0.1c0.6,0.7-0.2,1.1-0.2,1.1l-0.2,0.6c-0.2,0.5-0.8,0.4-0.8,0.4l-0.2,0.4l-0.7,0.2l1.4,0.2c0.1-0.5,0.5-0.6,0.7-0.4
			c0.2,0.2,0.2,0.7,0.2,0.7l0.4,0.1l-0.1,0.7l0.4,0.1v1.9l0.4,0.5c0.7-0.3,0.7,0.2,0.4,0.4c-0.4,0.2-0.1,1.3-0.1,1.3l-0.3,0.3v0.5
			l-0.4,0.2v0.7c-0.6-0.3-1.3-0.2-1.5,0c-0.5-0.4-1.7-0.2-1.7,0.1c0.4,0.5-0.4,0.6-0.4,0.6l-0.4,0.5c0.3,0.6-0.3,0.7-0.3,0.7v1.1
			l-0.7,0.7v1.1l1.8,1.1c0.1,0.1,0.1,0.1,0.1,0.1H86v-0.3l-0.3-1.4v-1.3l0.6-0.7h0.1l0,0c0.5,0,0.4,1.2,0.4,1.6V70l0,0
			c0,0.1,0.1,0.3,0.1,0.3l0.3,0.1l-0.5,0.4l-0.5,0.5L85.7,71L85,70.9l-0.2-0.4l-0.4-0.1l-0.1,0.8L84,71.6l-0.7,0.7
			c0.7,0,0.2,0.4-0.1,0.6l-1.4,0.5c-0.1,0-0.1,0-0.2-0.1v0.4L81,73.8l0.4,0.5h0.3v1v0.1c0,0.8-1.9,0.2-2.1,0.1l-0.1,1.1l-0.4,0.1
			l0.1,0.7l-0.1,1l0.6-0.1v0.4l1.6,0.1l0.3-0.3L83,77l0.6-0.6l1.3-0.3c0.1-0.6,0.7,0.1,0.7,0.1c0.6-0.1,0.7,0.4,0.7,0.4l0.8,0.1
			c0.6,0.2,0.2,0.2,0.3,0.5c0.1,0.4,0.4,0.2,0.4,0.2l0.1-0.8l0.4,0.1L88,76.1l-0.6-0.3l-0.7-0.3c-0.5-0.7,0.1-0.5,0.6-0.5h0.8
			c0,0,0.9,1.2,0.9,1.5s0.4,0.4,0.4,0.4l0.5-0.1l0.2,0.4h0.5l0.2,0.4h1.1l0.1-0.5l-1-0.2l-0.1-0.6l-0.7-0.2c-0.2-1,0.2-1.3,0.5-0.8
			l0.4,0.1L91,74.5l0.4-0.1l-0.1-1.2L90.8,73v-0.6l1.5,0.1c-0.1-0.8,0.1-1.1,0.1-1.1l0,0l0,0l0,0h0.4l0.1,0.3l1.8,0.2h0.1
			c0.7,0.4,0.4,1,0.1,1.1c-0.3,0-0.7,0-0.7,0l-0.1,0.2l-1.5,0.1l-0.1,0.6c-0.8-0.1-1.1,0.7-0.9,1.1s0,0.8,0,0.8l0.6,0.3l0.8-0.2
			c0.1-0.6,0.6-0.7,1.1-1.1s1.2,0.7,1,1.1c0,0.1,0,0.1-0.1,0.1c-0.9,0.6-1.8,1.2-2.8,1.7l0,0c-1.6,0.7-3.2,1.3-4.9,1.7h-0.1
			l-0.6-0.2l-0.1-0.9c-0.1-0.6-1.2-0.6-1.2-0.2c0.1,0.4-2.1,0.2-2.1,0.2l-1.4,1l-1.1,0.1l-0.5,0.2L80,79.2h-0.5l-0.3,0.4l-2.3,1
			c-0.1,0.1-0.2,0.2-0.2,0.3C76.9,81.5,76.3,81.8,76.3,81.8z M95,69.4c0-0.4,0.1-0.8,0.1-1c0-0.1,0.4-0.4,0.6-0.4l0,0
			c0.1,0,0.2,0.1,0.2,0.3c-0.2,0.5,0,0.8,0,0.8c0.8-0.7,1.4,0.1,1.3,0.2c-0.1,0.2,0.4,0.4,0.7,0.2s0.6,0.5,0.5,0.9s-1.2,0.3-1.2-0.1
			c-0.1-0.4-0.2-0.2-0.4-0.1c-0.1,0.1-0.5,0.2-0.8,0.2l-0.2-0.2c0-0.1,0.1-0.1,0-0.2s-0.2-0.1-0.3-0.1L95,69.4z"/>
		<path d="M125.5,36.7c0,0-0.8-0.6-0.8-0.9c0.1-0.3-0.8-0.9-0.8-1.1c0.1-0.2-0.8-0.7-0.7-1c0.1-0.2-0.4-0.9-0.4-0.9l-0.9-0.8
			l-0.1-0.5l-0.7-0.1l-1.4-1.7l0.1-0.5l-0.4-0.1v-0.7l-0.4-0.2l-0.6-0.1l-1.3-1.4L117,26h-0.6l0.1-1l-0.4-1.6
			c-0.2,0.1-0.5,0.1-0.6,0c-0.4-0.2,0.2-0.6,0.2-0.6v-0.5l-0.4-0.4c0,0-1,0.1-1.1-0.1s-0.2-1-0.2-1l-0.1-1l-0.4-0.2l-0.1-0.4
			l-0.6,0.1v-0.7l-0.4-0.1l-0.4-0.2l-0.1-0.7l-1.3-0.1l-0.4-0.6l-0.5-0.7l-1.5-0.1l-0.4-0.4l-0.6-0.1l-0.4-0.2l-0.2,0.3l-1.1,0.1
			l-0.1,0.4c-0.4,0.2-1.3,0.2-2.1,0.2l-1.2,1c-0.1,0.2-0.1,0.4-0.3,0.4c-0.3,0-0.2,0.8-0.2,0.8s0.8,0,1,0.1s0.2,0.7,0.2,0.7
			c0.9-0.1,1.2,1.1,1.1,1.5c-0.1,0.3,0.4,0.3,0.4,0.3s0,1-0.1,1.2s0.8,0.4,1,0.8s-0.1,1.6-0.3,1.6c-0.2,0.1,0.5,0.2,0.4,0.5
			s0.2,0,0.2,0.5c0.1,0.5,0.2,1.5,0.2,1.5l0.8,0.1c0.1-0.8,1.6-0.8,1.9-0.7c1,0.4,1.8,1.9,1.8,2.3s-0.6,0.4-0.6,0.4v0.4l0.5,1.5
			c0.8,0.5,1.5,1.6,1.3,1.8c-0.1,0.2,0.7,0.2,0.7,0.2c0.1-1.1,1.1-0.7,1.2-0.4c0.1,0.4,0.2,1.1,0.2,1.1l0.3,0.5l0.4,0.4l0.6-0.1
			l0.2,0.4l0.8,0.1c0,0,0.6,0.7,0.7,0.9s1,0.1,1.2,0.2c0.2,0.1,0.6,0.2,0.6,0.5c0.1,0.3,0.4,0.8,0.4,0.8s0.7,0.2,0.8,0.4
			c0.1,0.2,0.4,0.8,0.4,0.8l0.6,0.5l0.1,0.5l0.6,0.1l0.2,0.7l1.1-0.1l0.6-0.4c0.2-0.1,0.4-0.2,0.5-0.3l1-1.3
			c0.1-0.3,0.3-0.6,0.7-0.5C125.9,38.2,125.5,36.7,125.5,36.7z"/>
		<path d="M117.5,51.6c-0.2-0.2,0.2-1,0.2-1s0.2-0.5,0-1s0.1-1,0.2-1.2l-0.5-0.2l-0.5-0.1l-0.4,0.1c-0.1-0.4-0.2-0.7-0.4-1.1l0,0
			l0.3,0.1v-0.4l-0.4-0.1c-0.1-0.2-0.2-0.5-0.2-0.7l-0.1-1.2l-0.4-0.3l0.1-0.5l-0.5-0.2l0.2-0.8l-0.4-0.8h-0.6
			c-0.3-0.6-0.6-1.1-0.9-1.7c0.1,0,0.1-0.1,0.2-0.1c0.3-0.1,0.4-0.1,0.5-0.1l0,0l0,0l-0.1-0.6l-0.5-0.4l-0.2-0.7
			c0,0-0.6,0.1-0.6,0.5c0,0.1,0,0.1-0.1,0.2c-0.4-0.7-0.8-1.3-1.3-1.9v-0.1c0.2-0.4,0.1-0.7-0.3-0.8s-0.4-0.1-0.5-0.6
			s-0.6-0.6-0.6-0.6l-0.2-0.7l-0.4,0.3c-0.2-0.3-0.5-0.5-0.7-0.8l0.2-0.7c-0.2,0-0.4-0.2-0.4-0.3l-0.7-1.3c-0.2-0.1-0.4-0.2-0.5-0.1
			c-0.3,0.2-0.2-1.2-0.2-1.2s0.5-0.4,0.8-0.2c0.2,0.2-2-3-2.5-2.7s-1.5-0.3-1.5-0.8c0.1-0.5-2.1-2.3-2.1-2.3s-0.7-0.5-0.8-0.1
			c-0.1,0.4-0.4,0.6,0,0.8c0.4,0.2,0.3-0.3,0.7,0.1c0.4,0.4,1.2,1,0.9,1.3c-0.3,0.4-0.6,0.5-0.6,0.5l0.4,0.5h0.6l0.1,1
			c0,0,0.7,0.4,0.9,0.8c0.1,0.3,0.1,0.5,0.1,0.6l-0.6,1.3c0.1,0.4,0.5,0.6,0.5,0.6h0.3c0.2,0.1,0.4,0.3,0.6,0.5v0.5
			c0.4-0.1,1.1,0.4,1.2,0.8l1,1l0,0c0.2,0.2,0.2,0.3,0.6,0.6c0.1,0.1,0.2,0.1,0.3,0.1c0.2,0.2,0.4,0.4,0.6,0.6l-0.1,0.2
			c0,0.7,0.3,0.5,0.6,0.4c0.1,0.1,0.2,0.2,0.3,0.4c0,0.4,0,1,0.7,0.9l0,0c0.7,1,1.5,2.1,2.1,3.2v0.1l0,0c0.1,0.2,0.2,0.4,0.3,0.5
			c-0.1,0.1-0.2,0.2-0.2,0.2l-1,0.1v1l-0.5,0.2l0.1,0.6l0.6-0.1c0,0,0,0.7,0.2,0.4s1.7,0.1,1.5,0.8c0,0.3,1.5,1.1,1.3,2
			c0.1,0,0.2,0.1,0.3,0.1c0.3,0.8,0.5,1.7,0.7,2.5l-0.1,0.2c0,0,0.1,0.1,0.2,0.2c0.2,0.7,0.4,1.5,0.5,2.2c0,0.6-0.2,1.3-0.5,1.5
			c-0.7,0.4,0.1,0.2,0.1,0.2l-0.1,1.3c0.2,0.6,0.5,0.3,0.6,0c0.1-0.1,0.2-0.2,0.3-0.4l1.1-2.3C117.6,52,117.6,51.7,117.5,51.6z"/>
		<path d="M99.9,26.7c-0.1-0.4,0.5-0.6,0.8-0.1l0.6-0.1l0.1-0.5l-0.8-0.7H100c0,0-0.1,0.5-0.5,0.3s-0.2-0.1-0.5-0.2
			s-0.2,0.6-0.2,0.9L100,27C99.9,26.9,99.9,26.8,99.9,26.7z"/>
		<path d="M83.4,16.9c0.1-0.2,0.1-0.3,0.5-0.4s-0.1-0.8-0.4-0.7c-0.2,0-0.5,0-0.6-0.2v1.6C83.2,17.2,83.3,17.1,83.4,16.9z"/>
		<path d="M75.2,66.2c0.3-0.5,0.8-0.5,0.8-0.5l0.2-0.4l1.6,0.1c0.1-0.7,0.9-0.4,0.9-0.1s0.6,0.1,0.6,0.1l0.4-0.7h0.6l0.1-0.7
			l0.3-0.2v-1.1c1-0.3,0.8-1.2,0.8-1.2l0.2-0.3l-0.1-0.4c-0.5-0.2-0.2-0.6,0.1-0.5c0.3,0.1-0.4-0.5-0.4-0.5
			c-0.4,0.3-0.6-0.4-0.6-0.4h-1v-0.8l-0.1-0.8l-0.9-0.4L78,57.9l-0.1,0.8v0.5l-0.6,0.1l-0.1,1.6l-0.5,0.2l0.1,0.6L76.2,62l-0.6,0.2
			L75.4,63L75,63.3L74.7,64l-0.3,1.7l0.7,0.7C75.1,66.3,75.1,66.3,75.2,66.2z"/>
		<path d="M80.5,49.7c-0.7,0,0-0.5,0-0.5l0.1-0.9H80L79.9,47l-1.7-1l-0.1-0.7l0.3-0.2L77.9,45l-0.4,0.5L77.4,46l-0.6,0.1v0.3h-0.4
			v0.4c-0.8,0.5-1.7,1-2.4,1.7h-2h-0.6c-0.2,0.5-0.8-0.1-0.8-0.1c-0.1-0.4-1,0-1,0c0,0.7-1.1-0.3-1.1-0.3l-2.1-1.5
			c-1.2-1.1-2.9,0.3-3,0.6c0,0.5-0.4,0.5-0.7,0.4l-1.4-0.3c-0.2,0-0.5,0-0.6,0.2c-0.2,0.5-1,0.4-1,0.4l-0.1,0.2L59,48.2l-0.1,0.4
			l-0.7,0.1l1.8-0.1c0.5-0.1-0.2,1-0.5,1l-0.8,0.1L58.4,50h-0.8l-0.4,0.5l-1.1-0.1c0,0-0.6,0.5-0.6,0.7c0.1,0.2-0.1,0.7-0.3,0.7
			s-0.5,0.5-0.4,0.7s-0.4,0.8-0.4,0.8l-0.1,0.6L53.9,54v1.6L53.5,56v0.7l-0.3,0.4l-0.6,1.4v0.3l-0.9,1l0.1,1L51.3,61l-0.1,0.4
			L51,62.6l0.6,0.1c0.3-0.1,0.2,0.8,0,0.9s-0.9,0.4-0.5,0.6s-1,0.2-1-0.2c0-0.4-0.7-0.7-0.9-0.5c-0.1,0.1-0.2-0.1-0.4-0.3l-1.5-0.5
			C46.6,62.8,46,63,46,63l-0.3,1c-0.6,0.1-1.1,1.2-1.1,1.2c-0.5,0.2-1,0.8-0.8,1s-0.3,0.2-0.3,0.2v1.3l-0.3,0.4l0.1,1.4
			c0.4,0,0.3,0.7,0.3,0.7C43,70.3,43.1,71,43.1,71L42,71.5l-0.2,0.4l-1.5-0.1l-0.4,0.4l0,0l-1.6-0.4h-1.7l-0.1-0.3l-0.6-0.1
			l-0.1-0.7l-0.9,0.1l-0.2,0.4l-1,0.1c0.1,0.6-1,1.5-1.1,1.2s-0.8-0.9-0.5-1s1.1-0.2,1.1-0.2v-0.4L31,70.7L30.7,71l-0.9,0.1v1
			l-0.4,0.1c-0.3,0.2,0.1,0.8,0.1,0.8c0.4,0.4-0.1,1.1-0.1,1.1c-0.4,0.4,0.3,1,0.3,1c0.5,0.1-0.3,0.5-0.3,0.5
			c0.1,0.6,0.5,0.8,0.5,0.8c-0.4,0.6,0.2,0.9,0.2,0.9l0.1,1l0.4,0.2v0.7l0.2,0.4h1l-0.1-1.5c-0.8-1,0.7-1.2,0.8-0.8
			c0.1,0.4,0.7,0.5,0.7,0.5c0.1,0.9,1.1,1.4,1.4,0.5c0.3-0.9,0.5-0.4,0.7,0.1c0.2,0.4,1.3,1.5,1.3,1.5h0.9l0.1,0.8
			c1-0.1,1.3,0.1,1.7,1.4c0.4,1.4,1.5,1.7,1.5,1.7l0.8-0.1c0-0.7,0.8,0.1,0.8,0.5s1.6,1.7,1.6,1.7l1.6,0.4l0.3,0.2l2.5,0.8h0.2
			c0.1-0.3,0.3-0.4,0.5-0.4c0.5,0,1.2,0.6,1.3,0.8c0,0.1,0.2,0.3,0.4,0.5l1.5,0.5c0.1,0.1,0.1,0.3,0.1,0.5c0.1,0.9,0.5,0.7,0.5,0.7
			l3.4-0.1l1.2-1l3-0.1c1.5-0.1,0.6-2.2,0.3-2.2c-0.2-0.1-0.2-0.4-0.2-0.7l-3-4.6c-0.5-0.5-1-1-1.4-1.6c0.1-0.4,0.3-0.7,0.3-0.7
			c0.8-0.5-0.2-1.2-0.2-1.2c0.1-0.7-0.4-1.6-0.4-1.6c-1.1-0.7-0.8-2.1-0.8-2.1v-1c-0.9-0.8,0.4-1,0.4-1c0.4-0.7-0.3-1.2-0.3-1.2
			L55.1,70l-1-0.1L54,67.1l-2.1-3c-0.4-0.1-0.1-0.8-0.1-0.8c0.5-0.3-0.1-1-0.1-1l0.3-1.2l1.2-0.1l0.3-0.5h0.6L54,59
			c0.1-0.3,0.3-0.4,0.5-0.5l0,0h0.3c0.1,0,0.3,0.1,0.3,0.1l0.8,0.1l0.1-0.1l0.5-1.4l0,0l-0.6-0.1c-0.7-0.4-0.4-2-0.4-2
			c0.5-0.7,1-1,1.5-1c0.6,0,1,0.3,1,0.3l0.8-0.1c0.2,0.1,0.4,0.3,0.4,0.5c-0.1,0.6-0.1,1.1-0.1,1.7C59,56.6,59,56.7,59,56.7
			c-0.1,0.1-0.1,0.3-0.1,0.5l0.1,1.4l0.2,1.5l-0.8,0.7c-0.6,0.4-0.6,1.2,0.1,1.4c0.5,0.1,0.3,1.2-0.4,0.4c-1,0,0.3,0.8,0.2,0.7
			c1,0.5,0.7-0.5,0.7-0.5l0.5-0.4l1.3-0.7l0,0l0,0c0.5,0.2,1.1,1,1.1,1.1c0,0.2,2.3,0.1,2.3,0.1c0.6,0.4,0.9,1.5,0.9,1.5
			c0.6-0.8,2-0.1,1,0.4c1,0.6,1,1.1,1,1.1c0.8-0.2,0.8,0.4,0.8,0.5c0,0.2,0.2-0.9,0.2-0.9c-0.9-0.7,1.2-0.9,0.6,0.3l-0.4,0.5
			l0.6,0.5l0.1,1.4c1.3-0.1,1-1.7,1-1.7l0.6-0.1c0-0.5,0.4-0.2,0.4-0.2c-0.3-1.4,0.3-2,0.6-2.2l1-1.1c0.1-0.4,0.1-0.8,0.1-0.8
			c-0.5-0.2-0.2-1.1,0.4-0.4c0.6,0.7-0.4-1.5-0.4-1.5l-0.5-0.4l-0.6-0.1l-1.4,0.2L69.8,60l-0.1-0.2l-0.2,0.7h-1.1l-0.1-0.7l0.6-0.2
			l0.2-0.4l0.1-0.5l0,0h0.7l1.4-1.5c0.2-0.2,0.4-0.1,0.4-0.1l0.4,0.3l0.5,0.4l0.1,0.4l-0.4,0.2l-0.1,0.5l0.2,0.7h0.5
			c0.2-1,1.4-1,1.8-0.4l0.4-0.8c-0.8-0.4,0-1.1,0.2-0.8s0.8-0.8,0.8-0.8s0.4,0.5,0-0.2s0.3-1.1,0.3-1.1c-0.1-0.7,0.8-0.6,0.8-0.6
			l0.1-1l-0.8-0.1c-0.2,0.8-0.9,0.1-0.5-0.1s0.7-0.5,0.7-0.5v-0.6l0.4-0.1l0.1-0.6h0.9l0.8-0.4l0.2-0.3l0.8-0.1l1.2-1.1L80.5,49.7z"
			/>
		<path d="M107.1,83.5L107.1,83.5L107.1,83.5z"/>
		<polygon points="59.4,62.4 60.7,61.6 60.7,61.6 		"/>
		<polygon points="48.2,101.2 48.2,101.2 48.7,101.9 48.8,102.5 49.4,102.7 49.6,103 50,102.8 49.7,102 48.9,101.3 		"/>
		<polygon points="78.4,99.1 78.7,98.8 78.8,98.6 78.6,98.5 78,98.2 77.9,98.5 78.3,98.7 78.1,98.8 		"/>
		<polygon points="73.8,93.9 73.5,94.2 73.3,94.4 73.5,94.5 73.9,94.8 74.1,94.5 73.9,94.3 74.1,94.2 		"/>
		<polygon points="32.3,81.5 32.3,82.2 32.7,82.2 32.6,81.3 32.2,81.2 32.2,80.8 31.9,80.8 31.9,81.5 		"/>
		<polygon points="36,85.9 36.6,86.5 36.8,86.1 36.4,85.2 36,84.8 35.7,84 34.8,83.6 34.8,83.6 35.2,84.7 35.5,85.2 		"/>
		<path d="M88.1,93L88.1,93L88.1,93z"/>
		<path d="M132.9,76.2h-0.4l0,0c0,0.3,0,0.6,0.3,0.7l0.1-0.4l0,0C133,76.5,132.9,76.4,132.9,76.2z"/>
		<path d="M134.8,74.8c0.1,0,0.1,0.1,0.2,0l-0.1-0.4c0,0,0.1,0,0.1,0.1c0,0,0,0,0-0.1s0-0.2-0.1-0.4l0,0l-0.3,0.2
			c0,0.1,0,0.2,0.1,0.2C134.7,74.6,134.7,74.7,134.8,74.8z"/>
		<path d="M134.8,75.4c0,0-0.1-0.4-0.2-0.7l0,0l-0.4,0.1c0.1,0.4,0.2,0.7,0.2,0.7L134.8,75.4z"/>
		<path d="M131.2,68.9c-0.1,0-0.1,0-0.2,0c-0.2,0-0.5,0.1-0.7,0.2l0.2,0.3c0.2-0.1,0.5-0.2,0.6-0.2l0,0l0.4-0.1
			C131.4,69,131.3,68.9,131.2,68.9z"/>
		<path d="M132.4,76.9L132.4,76.9c-0.1,0-0.2,0.1-0.4,0.2c-0.4,0.2-0.2,1.1,0,0.9s0.5,0,0.5-0.7C132.6,77,132.5,76.9,132.4,76.9z"/>
		<polygon points="85.8,44.8 85.8,44.4 85.8,44.4 85.4,44.4 85.5,44.8 		"/>
		<polygon points="89.2,43.8 89.1,43.5 88.9,43.5 89,43.9 		"/>
		<rect x="90.1" y="43" transform="matrix(0.9989 -4.637509e-02 4.637509e-02 0.9989 -1.9057 4.2549)" width="1.3" height="0.4"/>
		<polygon points="89.6,43.4 89.5,42.9 89.5,42.9 89.1,43 89.2,43.5 		"/>
		<polygon points="83.8,43.2 83.4,43.2 83.4,43.2 83.3,43.5 83.7,43.6 		"/>
		<rect x="84.9" y="43.8" width="0.5" height="0.4"/>
		<polygon points="84.6,43.4 84.1,43.4 84.1,43.4 84.1,43.7 84.5,43.8 		"/>
		<path d="M93.9,6.1C93.6,6.2,93,6.2,93,6.2h-1C92,6,91.7,5.9,91.5,6l0,0C91.3,6,91,6.1,91,6.2c-0.1,0.2-0.4,0.3-0.4,0.3l-1.3,0.1
			c-0.2,0.4-1,0.6-1,0.4l0,0c-0.1-0.5-0.9,0.7-0.1,0.9s1.5,0,1.5,0l0.2-0.4l2.9,0.1C93.1,7.3,93.2,7,93.2,7s0.7-0.2,1-0.1
			S94.3,6,93.9,6.1z"/>
		<path d="M88.4,9.9l-0.8-0.8V8.4l-0.2-0.2l-0.2-0.8l-0.8-0.2l-0.8,0.3L84.8,8h-0.9l-0.5,0.5l1.9,0.2l0.4,0.6L87,9.4l0.9,0.9
			C88.7,10.7,88.9,10.3,88.4,9.9L88.4,9.9z"/>
		<polygon points="95.7,4.9 95.3,5.3 95,5 94.7,5.3 95.1,5.7 95.2,5.8 95.4,5.7 96,5.2 		"/>
		<path d="M92.8,43.8c0,0.2,0.4,0.4,0.6,0.4s0.9-0.5,0.9-0.5s0.3-0.8,0.1-0.8c-0.2,0.1-0.7,0.4-0.8,0.1c0-0.2-0.2-0.2-0.4-0.2
			c-0.2,0-0.4,0-0.4,0l-1,0.1l-0.1,0.4l0.6,0.1C92.5,43.4,92.8,43.6,92.8,43.8z"/>
		<path d="M93.2,42.7L93.2,42.7L93.2,42.7z"/>
		<polygon points="79.8,43.5 79.4,43.5 79.3,43.8 79.7,43.9 		"/>
		<path d="M58.1,63.3C58,63.3,58,63.3,58.1,63.3C58,63.3,58.1,63.3,58.1,63.3z"/>
		<path d="M57.9,34.3L57.9,34.3L57.9,34.3z"/>
		<path d="M50.1,26.6L50.1,26.6L50.1,26.6z"/>
		<path d="M86.4,7.2L86.4,7.2L86.4,7.2z"/>
		<rect x="80.3" y="43.1" width="0.5" height="0.4"/>
		<path d="M72.1,33.4c0.4,0-0.3-0.4-0.3-0.4s-0.7,0.1-0.6-0.2l0.1,0.7L72.1,33.4L72.1,33.4z"/>
		<path d="M71.1,32.8L71.1,32.8L71.1,32.8z"/>
		<polygon points="79.5,44 79,43.9 78.9,44.2 79.4,44.4 		"/>
		<g>
			<path d="M56.4,64.6c0.1,0.7,0.5-0.4,0.5-0.4v-4.1l-1-0.1l0,0l0.1,0.4h0.3c0.5,0.8,0.1,2.9,0.1,2.9s-0.7,0.1-0.8-0.3
				c-0.1-0.4-0.4,0.8-0.2,1C55.5,64.1,56.3,63.9,56.4,64.6z"/>
			<g>
				<polygon points="57.2,66.8 57.3,66.2 56.9,66 56.9,65.2 57.3,65.1 57.3,64.7 57.3,64.7 56.4,65.3 55.9,64.9 55.9,66.3 
					56.8,67.6 				"/>
				<g>
					<path d="M58,70.7L58,70.7c-0.1,0-0.2,0.1-0.2,0.2l0,0c0,0.1,0.1,0.2,0.2,0.2s0.2-0.1,0.2-0.2S58.1,70.7,58,70.7z"/>
					<path d="M57.8,69.7c0-0.1-0.1-0.2-0.2-0.2s-0.2,0.1-0.2,0.2s0.1,0.2,0.2,0.2C57.7,69.9,57.8,69.8,57.8,69.7z"/>
					<polygon points="57.4,68.3 57,68.4 56.9,68.8 57.4,68.9 					"/>
					<polygon points="56.4,71.8 56.9,71.8 56.9,71.4 56.4,71.4 					"/>
				</g>
			</g>
		</g>
		<polygon points="72.8,32.8 72.5,32.5 72.2,32.8 72.6,33.1 		"/>
		<polygon points="78.9,44.7 78.8,44.4 78.5,44.5 78.5,44.8 		"/>
		<line class="st1" x1="99.6" y1="43.9" x2="98.6" y2="42.7"/>
		<line class="st1" x1="97.6" y1="43.8" x2="98.6" y2="42.7"/>
	</g>
</g>
</svg>
