<?xml version="1.0" encoding="UTF-8" standalone="no"?>
<!-- Created with Inkscape (http://www.inkscape.org/) -->

<svg
   version="1.1"
   id="svg2"
   width="529.1333"
   height="179.86667"
   viewBox="0 0 529.1333 179.86667"
   sodipodi:docname="UNU_LOGO_1C-BK.eps"
   xmlns:inkscape="http://www.inkscape.org/namespaces/inkscape"
   xmlns:sodipodi="http://sodipodi.sourceforge.net/DTD/sodipodi-0.dtd"
   xmlns="http://www.w3.org/2000/svg"
   xmlns:svg="http://www.w3.org/2000/svg">
  <defs
     id="defs6" />
  <sodipodi:namedview
     id="namedview4"
     pagecolor="#ffffff"
     bordercolor="#000000"
     borderopacity="0.25"
     inkscape:showpageshadow="2"
     inkscape:pageopacity="0.0"
     inkscape:pagecheckerboard="0"
     inkscape:deskcolor="#d1d1d1" />
  <g
     id="g8"
     inkscape:groupmode="layer"
     inkscape:label="ink_ext_XXXXXX"
     transform="matrix(1.3333333,0,0,-1.3333333,0,179.86667)">
    <g
       id="g10"
       transform="scale(0.1)">
      <path
         d="m 634.957,730.043 c -5.742,-1.238 -13.695,-1.895 -23.844,-1.895 -23.554,0 -42.914,3.079 -72.16,11.395 -45.148,12.867 -49.324,13.719 -68.18,13.719 -21.347,0 -47.8,-4.883 -79.312,-14.645 -31.535,9.762 -58.004,14.645 -79.555,14.645 -19.179,0 -22.148,-0.606 -67.945,-13.719 -28.918,-8.277 -48.598,-11.395 -72.141,-11.395 -10.144,0 -18.074,0.657 -23.855,1.895 l -12.738,2.793 -5.563,0.918 c 30.629,-18.856 66.641,-30.078 96.465,-30.078 26.707,0 36.629,2.512 88.812,22.433 19.739,7.528 31.77,10.282 45.071,10.282 6.945,0 11.406,-0.438 19.855,-1.934 -32.836,-13.367 -59.785,-31.406 -91.137,-60.996 l 28.754,3.019 c 21.657,28.555 43.567,44.883 73.977,55.184 30.504,-10.301 49.586,-24.539 73.988,-55.184 l 28.754,-3.019 c -30.48,28.781 -59.14,47.969 -91.137,60.996 8.457,1.496 12.914,1.934 19.844,1.934 13.297,0 25.328,-2.754 45.07,-10.282 52.254,-19.941 62.04,-22.414 88.79,-22.414 29.679,0 67.98,11.946 96.261,30.059 l -5.34,-0.918 -12.734,-2.793"
         style="fill:#231f20;fill-opacity:1;fill-rule:nonzero;stroke:none"
         id="path12" />
      <path
         d="m 391.461,789.414 c 154.48,0 279.668,125.316 279.668,279.926 0,154.45 -125.188,279.64 -279.668,279.64 -154.488,0 -279.688,-125.19 -279.648,-279.69 0,-154.599 125.199,-279.876 279.648,-279.876 z M 117.594,1066.29 h 49.164 c 0.406,-23.32 1.75,-32.1 9.039,-59.83 l 1.168,-4.4 -8.117,3.7 -0.703,0.24 -0.942,0.24 c -0.586,0 -1.207,-0.17 -1.851,-0.48 l -2.77,-1.15 -6.269,-5.34 -6.02,-0.918 c -3.137,-0.469 -5.184,-3.782 -5.344,-8.586 -0.16,-5.536 -0.32,-5.989 -3.015,-9.051 0.246,-6.047 0.929,-7.442 6.269,-12.524 l 6.266,2.563 4.636,-2.316 8.118,-1.622 3.476,-5.808 c 0.219,-0.363 0.801,-0.578 1.524,-0.578 1.664,0 2.992,1.394 4.5,4.758 1.629,-0.532 2.652,-1.008 3.015,-1.387 0.598,-0.617 1.528,-2.832 2.785,-6.504 2.633,-7.695 9,-13.586 18.543,-17.16 0.094,-4.371 0.297,-5.309 1.864,-8.344 5.285,-0.637 6.574,-0.754 11.593,-1.172 7.387,-9.141 9.153,-11.125 16.004,-18.066 l -34.785,-35.012 c -49.89,51.164 -76.582,115.641 -78.148,188.747 z m 257.172,68.87 c -4.473,-6.86 -5.68,-8.32 -10.903,-13.22 l -9.722,-6.49 -3.028,-1.63 -34.566,34.32 c 21.008,19.49 43.101,28.64 71.902,29.69 v -49.16 l -4.176,-0.71 -6.71,0.25 0.339,3.41 c 0,2.29 -0.359,2.71 -3.136,3.54 z m -106.664,-156.762 -5.106,8.575 -0.918,21.577 c -0.121,2.49 -1.648,6.2 -3.492,8.34 -1.469,1.75 -2.293,3.04 -2.316,3.72 l -0.457,10.19 -7.192,5.12 c -1.605,4.36 -2.09,6.47 -2.09,8.83 0,2.48 0.688,4.88 1.61,5.53 l 6.972,5.11 3.473,4.88 6.023,3.01 -3.695,3.01 h 15.063 l 1.164,-2.77 0.461,-7.43 c -3.309,-1.99 -4.399,-3.33 -4.399,-5.41 0,-5.06 2.149,-8.33 7.875,-11.97 6.184,-20.79 12.832,-32.49 27.375,-48.241 L 273.66,955.441 c -2.863,3.336 -3.508,4.039 -6.039,6.493 1.328,4.152 1.969,7.746 1.969,10.703 0,2.57 -0.32,3.769 -1.488,5.761 z m -26.45,76.542 -0.222,-9.06 -0.922,-4.4 c -7.07,1.15 -8.25,1.69 -11.367,5.11 -1.168,9.11 -1.309,11.3 -1.407,19.7 h 20.645 l -0.922,-4.87 z m 1.868,-129.643 -8.797,-8.817 c -5.743,6.102 -7.188,7.715 -13.012,14.375 3.152,0.36 5.242,0.547 6.828,0.547 8.391,0 12.832,-1.828 14.981,-6.105 z m 33.378,186.693 c -0.597,-0.84 -1.218,-2.34 -1.843,-4.44 -7.313,-3.73 -11.367,-6.54 -12.754,-8.8 -0.504,-0.79 -2.594,-5.84 -6.27,-15.07 -1.097,-2.77 -3.273,-6.64 -6.484,-11.59 h -21.813 c 0.664,43.03 14.563,76.81 45.688,111.06 l 35.031,-35.01 c -10.058,-10.94 -12.875,-14.93 -19.723,-28.05 -3.035,-1.91 -5.742,-3.59 -8.113,-5.11 -1.832,-1.16 -3.074,-2.15 -3.719,-2.99 z m 0.485,-34.33 -0.242,-2.56 -1.61,-3.01 h -12.062 c -0.789,1.79 -1.188,3.3 -1.188,4.46 0,3.11 3.696,5.97 7.692,5.97 3.515,0 5.925,-1.57 7.41,-4.86 z m 9.039,-36.88 c 2.93,3.11 4.457,3.93 7.191,3.93 h 1.157 l 6.492,0.72 5.32,-4.65 5.102,-0.92 3.257,-6.27 5.782,-3.93 5.121,-6.97 3.937,0.46 c 0.586,9.06 2.27,11.28 11.129,14.84 l 6.488,-8.58 -34.785,-35.023 c -13.437,14.533 -20.629,27.273 -26.191,46.393 z m 51.133,69.33 c -0.883,0 -1.789,0.16 -2.672,0.48 l -4.637,1.61 -4.863,0.71 -10.442,6.94 -15.308,-0.67 -4.414,0.45 c 4.855,9.4 7.265,12.85 17.195,24.58 l 32.649,-32.94 c -2.368,-0.6 -6.063,-1.16 -7.508,-1.16 z m -25.141,42.23 -34.812,35.02 c 30.027,28.45 67.062,43.71 110.847,45.67 v -49.39 c -29.969,-1.15 -54.39,-11.21 -76.035,-31.3 z m -38.992,38.95 -34.766,35.01 c 42.883,40.29 92.11,60.54 149.793,61.67 v -49.14 c -46.519,-2.11 -83.066,-17.22 -115.027,-47.54 z m -4.152,-4.17 c -30.247,-31.92 -46.676,-71.85 -47.317,-115.03 h -49.41 c 1.086,57.29 21.773,107.43 61.922,150.05 z m -47.317,-120.83 c 0.078,-7.8 0.199,-9.74 1.168,-17.62 h -1.41 c -0.281,-3.41 -0.484,-3.79 -4.621,-7.65 -9.555,-8.94 -12.731,-14.84 -12.774,-23.66 0,-3.53 -0.402,-8.73 -1.168,-15.54 -4.25,-0.57 -7.804,-0.85 -10.617,-0.85 -3.019,0 -4.523,0.2 -9.297,1.32 -8.476,25.98 -10.129,35.89 -10.691,64 z M 388.449,795.215 c -72.988,1.543 -137.011,28.164 -188.531,78.363 l 34.805,34.785 c 41.054,-40.203 95.058,-62.625 153.726,-63.769 z m 0,55.172 c -58.203,1.14 -108.652,22.109 -149.566,62.168 l 7.191,7.187 c 1.442,-3.379 2.067,-3.84 8.574,-6.035 2.711,-0.918 4.899,-1.406 6.465,-1.406 0.528,0 1.168,0.183 1.883,0.488 l 13.219,5.555 8.359,-2.078 2.531,-0.286 c 6.168,0 8.872,2.422 12.071,10.95 32.656,-20.891 47.535,-25.461 89.273,-27.356 z m 0,54.961 c -45.113,2.031 -77.125,15.293 -110.847,45.922 l 35.011,35.019 c 15.684,-14.453 30.004,-22.566 48.719,-27.598 -5.281,-2.558 -7.172,-4.609 -7.894,-8.586 l -1.625,-8.804 -2.329,-8.328 -0.242,-1.61 c 0,-0.91 0.324,-2.277 0.723,-3.058 1.687,-3.387 4.035,-6.621 6.949,-9.5 2.328,-2.325 4.258,-3.75 5.563,-4.172 l 9.5,-3.016 3.015,-1.164 c 0.559,-0.215 3.211,0.625 7.43,2.336 1.324,0.516 3.351,0.84 6.027,0.918 z m 0,56.82 -1.851,-1.395 c -5.86,0.36 -7.309,0.497 -12.969,1.161 l -1.188,1.171 c 0.317,0.5 0.481,0.879 0.481,1.055 0,0.383 -0.582,0.703 -1.305,0.703 -1.105,0 -1.89,-0.664 -2.414,-2.011 -22.172,5.285 -33.578,11.25 -52.656,27.375 l 35.027,35.023 c 13.379,-10.54 18.274,-12.78 31.531,-14.61 -3.257,-4.48 -4.863,-7.53 -4.863,-9.27 0,-0.8 0.238,-1.839 0.688,-3.018 0.601,-1.536 1.242,-2.715 1.886,-3.477 l 3.227,-3.937 0.707,-4.422 c -8.273,-3.379 -11.371,-6.426 -11.371,-11.196 0,-3.711 1.527,-5.586 4.586,-5.586 1.465,0 3.109,0.2 4.922,0.559 1.285,0.254 3.152,0.48 5.562,0.703 z m -32.461,66.562 1.407,0.44 0.687,-2.06 z M 394.25,795.215 v 49.379 c 25.324,0.469 34.523,1.875 62.363,9.511 3.535,-4.023 6.508,-6.054 8.836,-6.054 1.989,0 5.258,1.144 6.711,2.336 l 6.258,5.117 c 0.469,0.379 3.762,1.629 9.746,3.711 5.801,2.019 8.258,4.793 11.586,13.203 l 3.938,2.332 c 22.855,13.438 28.281,17.453 41.05,30.363 l 4.879,-2.09 1.391,2.325 32.012,-31.993 C 527.266,821.238 468,796.719 394.25,795.215 Z m 35.891,185.781 c 0,0.535 0.164,1.301 0.523,2.285 l 4.82,-0.207 c 5.102,0 7.547,0.766 9.317,2.981 2.25,2.793 3.894,4.414 4.441,4.414 1.262,0 2.352,-2.344 2.352,-5.156 0,-0.497 -0.246,-0.86 -1.008,-1.575 -4.981,-4.597 -11.07,-8.609 -15.742,-10.445 l -7.196,-2.766 c -4.175,-1.609 -7.828,-2.629 -10.925,-3.027 l -0.438,-0.02 -1.406,0.254 -7.652,3.02 -8.094,-1.399 -2.813,0.711 -2.07,-2.105 v 5.809 c 1.746,6.152 4.578,8.867 9.242,8.867 1.16,0 2.77,-0.364 3.266,-0.762 l 6.754,-5.105 h 1.367 c 1.043,4.492 1.644,5.183 5.34,6.511 l 3.254,-3.718 2.527,-0.918 1.871,-1.875 3.715,1.875 c -1.121,1.101 -1.445,1.621 -1.445,2.351 z m -32.657,-67.289 10.684,-0.215 c 0.605,-1.066 0.926,-1.914 0.926,-2.433 0,-0.743 -0.301,-1.825 -0.926,-3.153 l 2.531,-1.386 c -7.109,-0.723 -8.957,-0.86 -16.449,-1.172 v 8.359 z m 21.329,-11.828 1.847,-1.16 c 6.11,-4.582 6.625,-5.742 6.988,-15.989 0.082,-2.871 0.489,-6.972 1.145,-12.312 3.918,-1.543 6.812,-2.852 8.582,-3.938 0.984,-0.554 3.07,-2.05 6.262,-4.394 1.691,-1.25 4.218,-3.016 7.652,-5.352 -23.844,-6.629 -32.359,-7.871 -57.039,-8.347 v 49.187 c 9.941,0.403 12.637,0.637 24.563,2.305 z m 115.867,41.976 c -3.821,0 -5.407,-1.863 -6.407,-7.433 l -14.824,15.082 c 30.809,32.644 45.41,67.876 47.52,114.786 h 49.406 C 607.48,1006.05 587.281,956.934 549.16,917.641 l -0.926,3.261 -3.031,-0.703 0.242,8.828 c 0,9.571 -3.82,14.828 -10.765,14.828 z m -39.426,60.535 c -1.328,0 -1.852,-0.25 -3.137,-1.4 -5.262,-4.717 -8.152,-7.236 -8.597,-7.416 l -2.387,-0.418 -2.246,0.176 c 5.285,6.688 6.441,8.298 10.445,14.618 3.934,0.9 4.672,1.43 7.188,5.08 1.179,1.73 2.949,4.23 5.32,7.44 l 11.832,1.87 13.918,5.07 7.648,1.39 c 1.27,0.25 2.11,1.77 2.11,3.91 0,1.27 -0.282,2.19 -0.723,2.59 l -9.719,8.58 c -1.41,1.23 -2.609,4.82 -3.5,10.21 -0.398,2.42 -1.242,5.84 -2.547,10.2 h 34.321 c -2.082,-46.21 -14.516,-76.239 -45.907,-110.849 l -1.41,1.395 c 1.047,4.133 1.41,6.199 1.41,8.203 0,5.527 -2.734,10.109 -6.046,10.109 -1.508,0 -2.676,-0.644 -3.231,-1.855 l -1.633,-3.469 -2.082,-1.386 -3.722,3.691 c 6.488,11.531 8.597,17.5 8.597,24.25 0,5.341 -1.965,8.011 -5.902,8.011 z m 55.473,80.42 1.445,0.04 0.926,11.36 c 1.445,-11.68 1.664,-14.32 2.082,-24.12 h -32.45 c 1.407,7.09 2.731,10.39 5.083,12.52 0.238,0.2 2.707,1.98 7.425,5.34 0.305,0.21 1.95,1.53 4.883,3.93 1.664,1.39 4.297,3.31 7.871,5.8 l -0.238,-5.8 c -0.445,-2.78 -0.664,-5.22 -0.664,-7.29 0,-1.46 0.664,-1.78 3.637,-1.78 z m -41.938,-192.431 1.406,6.953 c 0.121,0.555 1.125,3.496 3.012,8.809 1.086,3.015 1.648,5.867 1.648,8.425 0,1.68 -0.484,3.43 -1.183,4.336 l -7.172,9.278 c -1.605,2.07 -2.367,3.957 -2.367,5.988 0,1.238 0.683,4.879 1.426,7.687 l 3.714,3.481 16.911,-17.156 -0.446,-2.332 2.774,-4.172 2.09,-9.043 c 0.117,-0.547 2.328,-1.199 5.558,-1.621 1.188,-0.164 2.719,-0.789 4.403,-1.856 v -2.078 c -15.485,-14.289 -21.168,-18.508 -38.02,-28.312 z m 52.18,179.711 c -0.645,14.48 -1.086,18.53 -3.235,31.07 l 3.477,1.86 -1.387,6.71 -5.101,3.48 c -3.118,9.96 -3.938,12.25 -7.414,20.65 5.504,-1.53 6.671,-3.22 9.257,-13.21 l 2.997,-0.46 c 1.289,0 1.648,1.26 1.648,5.83 0,6.07 -1.406,8.96 -7.438,15.03 -1.785,-0.46 -3.328,-0.71 -4.535,-0.71 -4.461,0 -8.375,4.81 -8.375,10.27 l 0.403,5.5 c -5.625,3.95 -6.852,4.95 -11.11,8.82 -4.379,6.33 -5.5,7.79 -10.218,13.24 -2.149,4.26 -2.551,5.34 -3.715,9.73 l 7.668,7.64 c 1.57,-2.61 2.73,-4.27 3.453,-4.86 1.367,-1.13 5.586,-3.18 12.539,-6.03 3.207,-1.33 5.762,-3.01 7.426,-4.88 l 7.175,-8.11 9.735,-2.55 c 6.109,-12.6 10.359,-17.28 15.664,-17.28 2.715,0 5.91,0.66 9.402,1.97 l 1.848,-5.34 2.769,1.65 c 12.192,-29.72 14.664,-41.68 16.473,-80.02 z m -42.137,95.56 -0.281,-0.94 -8.11,-10.66 c -0.632,-0.84 -0.949,-1.88 -0.949,-3.08 0,-2.93 1.906,-5.28 4.258,-5.28 2.633,0 5.16,2.67 5.484,5.81 l 0.457,4.39 1.872,5.34 4.175,-3.5 3.453,-4.85 c 0.829,-1.13 1.211,-1.89 1.211,-2.33 0,-1.99 -0.445,-2.97 -1.652,-3.71 l -3.492,-2.07 c -0.559,-0.36 -0.922,-1.18 -0.922,-2.2 0,-4.49 3.207,-6.38 17.168,-10.1 3.273,-7.95 4.039,-10.06 6.949,-19.02 -5.285,-4.02 -6.144,-5.66 -8.332,-15.54 l -2.094,-0.46 -5.582,-5.57 -0.879,-0.32 c -1.328,0 -2.211,0.95 -2.211,2.33 l 0.083,0.54 4.414,12.08 0.086,0.5 -0.086,0.42 c -0.676,1.46 -2.149,2.77 -4.172,3.69 -1.207,0.57 -2.047,0.85 -2.434,0.85 -0.082,0 -3.07,-0.83 -8.941,-2.48 -0.078,0 -0.715,0.32 -1.844,0.96 -1.731,0.91 -4.535,1.62 -8.356,2.08 -1.324,5.9 -2.128,7.18 -6.703,10.43 -2.257,1.58 -4.781,3.34 -7.675,5.34 1.644,0.86 2.066,1.32 2.066,2.28 l -0.223,2.11 c -2.004,-2.51 -3.132,-3.35 -4.535,-3.35 -0.883,0 -2.172,0.28 -3.797,0.8 -5.445,7.9 -6.847,9.67 -12.754,16 l 33.379,33.41 c 0.528,-0.98 0.848,-1.54 0.926,-1.62 l 6.266,-5.57 c 2.211,-1.95 3.777,-4.76 3.777,-6.71 z m -42.738,-35.97 c 0.5,0.28 1.164,1.25 1.867,2.79 l 0.457,0.22 2.336,-3.48 -0.242,-0.45 1.629,-2.8 -0.625,-0.01 c -2.207,0 -2.391,0.15 -2.391,2.12 l -1.625,-0.73 0.316,-3.28 c 0,-3.52 -1.964,-5.51 -5.457,-5.51 -3.375,0 -5.523,1.77 -5.523,4.52 0,3.05 1.848,5.69 4.156,5.93 3.133,0.31 4.903,0.56 5.102,0.68 z m -7.871,-158.387 c 4.297,-0.52 7.789,-1.543 10.195,-3 3.277,-1.973 5.141,-3.059 5.57,-3.25 l 1.121,-0.266 c 0.786,0 2.313,0.52 3.512,1.184 l 1.848,-2.07 c -2.168,-0.95 -2.586,-1.348 -3.692,-3.723 l -9.984,-1.621 -9.496,3.476 -7.652,2.325 c -2.672,0.808 -4.297,2.207 -6.969,6.027 l 4.176,2.773 0.238,0.243 c 1.527,-0.508 2.535,-0.821 3.019,-0.926 1.121,-0.235 3.813,-0.637 8.114,-1.172 z m 118.957,-95.75 -34.785,34.758 c 43.839,48.683 60.648,89.239 63.761,153.989 h 49.188 C 663.773,993.184 637.086,928.707 587.18,877.543 Z m 78.164,194.547 h -49.188 c -1.843,39.94 -4.863,53.66 -19.242,87.89 v 2.08 l 2.328,6.04 -2.086,4.17 -12.047,12.75 -8.355,16.93 c -2.051,4.12 -4.66,6.84 -23.902,24.57 l 34.566,34.56 c 48.965,-50.17 76.461,-116.85 77.926,-188.99 z M 394.25,1300.97 c 9.922,-1.93 11.707,-2.83 15.086,-7.42 l 9.035,1.15 c -0.262,1.94 -0.562,3.29 -0.918,3.94 -0.168,0.24 -1.308,1.64 -3.496,4.18 -1.168,1.36 -2.496,3.71 -3.941,6.96 l -3.496,0.47 -6.461,-1.85 -5.809,-0.24 v 35.01 c 72.684,-1.47 138.398,-28.56 188.988,-77.91 l -33.398,-33.63 c -2.008,3.68 -3.496,6.46 -4.395,8.35 -6.09,12.52 -10.605,18.77 -14.386,19.94 l -9.735,3.01 -9.746,6.73 c -0.539,0.4 -1.887,0.71 -2.949,0.71 -1.367,0 -1.949,-0.11 -12.348,-2.56 -39.707,20.81 -56.543,25.1 -102.031,25.96 z m 0,-35.71 5.809,0.21 c 0.539,1.8 0.82,3.32 0.82,4.59 0,1.58 -1.02,2.14 -4.762,2.6 l -1.867,-1.84 v 17.15 c 37.336,-0.68 51.055,-3.71 86.02,-19 l -3.012,-0.7 -0.223,-1.38 4.879,-3.72 -2.566,-7.42 0.922,-3.95 11.847,-8.11 5.543,-15.53 c 0.387,-1.02 2.891,-2.55 6.969,-4.18 2.355,-0.95 5.242,-3.09 8.578,-6.27 2.328,0.7 4.117,1.06 5.383,1.06 1.765,0 3.375,-0.79 6.426,-3.13 l 0.48,-3.94 0.688,-1.17 -5.106,-4.4 0.703,-2.56 -7.41,-7.2 c -0.539,1.93 -0.922,3.38 -1.164,4.41 -0.723,3.16 -1.727,5.33 -2.766,6.04 l -9.285,6.25 -8.113,5.82 c -1.363,0.97 -2.91,2.36 -4.641,4.18 l -2.547,5.31 -1.867,1.17 -3.937,-4.18 -7.414,1.63 c -1.645,0 -3.032,-1.58 -3.032,-3.41 0,-0.98 0.223,-1.4 1.168,-2.4 0.825,-0.86 1.985,-2.16 3.469,-3.93 -31.371,16.53 -44.301,20.01 -79.992,21.57 z m 102.949,-63.31 -6.73,5.08 -2.067,1.42 -5.8,3.71 1.589,0.06 c 1.157,0 2.704,-1.37 4.211,-3.77 6.09,-0.36 7.821,-1.63 8.797,-6.5 z m -102.949,31.08 c 43.965,-1.9 80.922,-17.07 111.086,-45.67 l -34.785,-35.02 c -23.86,21.18 -45.789,30.17 -76.301,31.3 z m 0,-55.2 c 26.977,-0.95 49.871,-9.86 69.109,-26.91 l -3.25,0.24 -9.277,-4.86 -6.031,-4.87 -7.426,-4.17 c -2.695,-1.52 -3.82,-3.53 -5.547,-9.98 -0.48,-1.73 -1.246,-4.19 -2.332,-7.43 l -8.836,1.16 -6.246,3.02 c 0.902,1.36 1.586,2.37 2.109,3.04 1.848,2.43 2.29,3.31 2.29,4.53 0,1.83 -1.446,3.34 -3.254,3.34 l -0.907,-0.25 -9.496,-5.56 -6.023,-1.17 -4.883,0.71 z m -3.473,-67.48 0.684,-3.71 3.934,-1.17 3.738,-3.45 5.301,-3.27 4.418,-6.25 5.105,-3.48 0.457,-5.1 -2.992,-10.91 c -0.219,-0.74 2.715,-6.18 8.113,-15.08 1.203,-1.98 1.852,-4.2 1.852,-6.32 0,-2.98 -0.524,-3.74 -5.809,-8.73 l -4.156,-3.94 -6.508,-1.64 -3.008,-4.39 -1.406,-6.05 c -0.969,-4.25 -4.703,-6.93 -12.051,-8.58 l -2.773,-2.78 -6.746,1.39 c 1.121,2.49 1.726,4.65 1.726,6.36 0,2.68 -1.89,4.78 -4.297,4.78 l -1.129,-0.46 -1.851,-2.56 -2.789,-3.25 1.144,-2.08 -10.199,5.12 1.867,0.45 c -0.625,1.44 -0.925,2.76 -0.925,3.9 0,1.79 2.535,3.29 5.562,3.29 h 8.113 c 2.289,0 4.098,2.36 7.434,9.75 1.766,3.94 3.477,9.25 3.477,10.86 l -0.223,1.64 c -0.242,1.11 -0.645,1.99 -1.164,2.56 l -4.176,4.39 -2.328,4.42 c -1.129,2.12 -2.899,3.25 -5.106,3.25 -0.843,0 -1.765,-0.19 -2.332,-0.48 -1.222,-0.63 -2.406,-1.58 -3.453,-2.77 -2.23,-2.52 -3.496,-4.38 -3.695,-5.31 l -1.891,-8.61 -6.48,-8.35 c -0.828,-1.02 -1.145,-2.61 -1.391,-6.73 -0.078,-1.43 -0.316,-3.61 -0.683,-6.49 -3.754,4.35 -4.696,5.52 -8.348,10.66 0.715,1.08 0.82,1.31 0.82,2.15 0,1.14 -0.441,2.62 -1.308,4.37 9.363,3.88 14.621,10.34 14.621,17.97 0,0.71 -0.258,1.53 -0.684,2.19 l -5.101,7.65 c -0.86,1.29 -1.18,2.26 -1.18,3.62 0,4.52 2.687,8.11 9.055,12.15 1.629,1.03 2.668,2.01 3.015,2.77 l 1.606,3.72 12.535,5.58 3.715,6.25 c 1.664,2.83 2.543,4.38 2.543,4.49 0,0.14 -0.219,1.35 -0.68,3.64 v 4.63 l 2.313,0.24 c -0.907,-0.92 -1.407,-1.66 -1.407,-2.04 0,-0.9 0.922,-2.27 2.551,-3.77 l 0.719,-3.93 z m -2.328,232.82 v -35.48 l -0.242,-0.24 c -1.105,-2.08 -1.687,-3.81 -1.687,-5.03 0,-1.01 0.277,-1.56 1.687,-3.32 h 0.242 v -5.33 c -58.789,-1.14 -113.238,-23.61 -153.984,-63.52 l -35.008,35.01 c 50.152,48.94 116.731,76.38 188.992,77.91 z m -192.926,-82.09 34.786,-34.78 c -43.262,-47.94 -62.422,-94.42 -63.551,-154.21 h -49.164 c 1.488,72.14 28.965,138.82 77.929,188.99"
         style="fill:#231f20;fill-opacity:1;fill-rule:nonzero;stroke:none"
         id="path14" />
      <path
         d="m 36.8945,1000.43 c 5.3477,-9.825 9.1407,-16.446 11.3711,-19.93 0.8867,-1.379 2.7305,-4.016 5.543,-7.902 1.8711,12.351 3.2969,18.34 6.0469,25.285 0.8047,2.027 3.8711,9.277 9.2812,21.797 13.2696,30.82 20.2188,62.78 20.2188,92.98 l -0.0391,7.43 c -3.0117,-6.57 -5.2617,-11.52 -6.7461,-14.84 -4.1758,-9.43 -7.1953,-15.87 -9.039,-19.26 l -10.6641,-19.7 c -5.2031,-9.65 -8.6953,-21.12 -12.5117,-41.04 -0.3008,-1.56 -0.7657,-3.87 -1.4063,-6.97 l -4.4023,11.13 -5.8008,19.97 c -3.2578,11.24 -9.0391,25.7 -16.6914,41.74 -9.7383,20.43 -11.0664,24.5 -17.85548,55.18 -3.394532,-19.36 -4.19531375,-26.65 -4.19531375,-37.79 0,-23.94 8.21484375,-55.52 20.20699375,-77.46 l 16.6836,-30.62"
         style="fill:#231f20;fill-opacity:1;fill-rule:nonzero;stroke:none"
         id="path16" />
      <path
         d="m 775.941,1134.94 c -4.812,-21.54 -5.8,-24.35 -15.058,-43.82 -7.735,-16.23 -13.418,-30.47 -16.711,-41.74 l -5.805,-19.97 -4.621,-11.13 c -0.621,3.1 -1.098,5.41 -1.402,6.97 -4.34,22.44 -6.785,30.45 -12.516,41.04 l -10.683,19.7 c -1.04,1.97 -3.973,8.4 -8.797,19.26 -1.485,3.32 -3.793,8.27 -6.95,14.84 l -0.039,-7.43 c 0,-29.97 6.426,-59.21 20.446,-92.98 l 9.039,-21.797 c 3.094,-7.434 4.359,-12.61 6.269,-25.285 2.891,3.957 4.754,6.582 5.539,7.902 0.641,1.016 4.356,7.664 11.145,19.93 l 16.933,30.62 c 12.231,22.11 20,52.7 20,78.8 0,12.26 -0.82,19.29 -4.214,36.45 l -2.575,-11.36"
         style="fill:#231f20;fill-opacity:1;fill-rule:nonzero;stroke:none"
         id="path18" />
      <path
         d="m 101.367,1230.48 c 36.477,32.84 52.063,52.17 69.332,86.03 -54.144,-24.38 -72.867,-46.67 -80.9412,-96.48 l 11.6092,10.45"
         style="fill:#231f20;fill-opacity:1;fill-rule:nonzero;stroke:none"
         id="path20" />
      <path
         d="m 48.9492,922.973 17.8711,-15.528 c 3.1953,-2.793 8.2383,-7.41 15.0664,-13.925 4.7852,-4.512 7.9531,-7.528 9.4961,-9.032 l 6.0508,-5.8 c -0.3672,4.968 -0.4844,7.507 -0.4844,9.921 0,2.325 0.1563,6.844 0.4844,13.516 l 0.9219,19.238 c 0.1992,4.453 0.9843,13.114 2.3085,25.973 1.082,10.437 1.625,18.769 1.625,24.98 0,21.024 -3.9335,44.044 -11.6054,67.544 -0.5664,-4.34 -1.0039,-7.59 -1.3672,-9.74 -0.3242,-1.92 -1.9492,-9.7 -4.8828,-23.42 -4.7539,-22.247 -6.3828,-37.743 -6.3828,-60.997 0,-6.988 0.1445,-12.191 0.582,-25.726 L 70.0547,931.793 49.8711,961.25 23.9258,997.883 C 17.0547,1007.54 12.9531,1013.93 1.42969,1032.91 1.91016,986.367 17.457,950.383 48.9492,922.973"
         style="fill:#231f20;fill-opacity:1;fill-rule:nonzero;stroke:none"
         id="path22" />
      <path
         d="m 693.16,1220.03 c -8.09,50.01 -25.672,70.96 -80.937,96.48 18.718,-36.65 35.425,-56.59 80.937,-96.48"
         style="fill:#231f20;fill-opacity:1;fill-rule:nonzero;stroke:none"
         id="path24" />
      <path
         d="m 733.047,961.25 -20.164,-29.457 -8.598,-11.816 c 0.485,13.535 0.582,18.738 0.582,25.726 0,23.254 -1.625,38.75 -6.367,60.997 -2.93,13.72 -4.574,21.5 -4.883,23.42 -0.34,2.15 -0.82,5.4 -1.379,9.74 -8.156,-25.31 -11.613,-45.024 -11.613,-66.669 0,-6.953 0.563,-15.574 1.633,-25.855 1.402,-13.348 2.187,-22 2.32,-25.973 l 0.711,-19.238 0.68,-15.09 -0.461,-8.347 c 2.551,2.585 4.496,4.531 5.801,5.8 0.785,0.762 4.019,3.778 9.726,9.032 l 15.078,13.925 17.852,15.528 c 31.133,27.093 47.195,64.246 47.543,109.937 -11.547,-18.98 -15.645,-25.37 -22.477,-35.027 L 733.047,961.25"
         style="fill:#231f20;fill-opacity:1;fill-rule:nonzero;stroke:none"
         id="path26" />
      <path
         d="m 61.6992,1182.71 c 0.4649,-4.86 0.7071,-9.23 0.7071,-13.15 0,-2.61 -0.1602,-6.42 -0.4688,-11.45 2.793,3 4.8828,5.25 6.25,6.73 5.4023,5.82 9.5156,9.92 12.293,12.29 l 18.332,15.55 c 26.8355,22.75 42.3005,43.17 55.8945,73.75 -2.488,-2.29 -4.336,-3.99 -5.582,-5.13 -6.082,-5.55 -10.965,-9.82 -14.598,-12.75 l -10.664,-8.57 -7.636,-6.27 -16.9497,-12.52 c -6.707,-4.93 -10.1406,-8.71 -17.1484,-18.78 l 1.6055,13.93 c 4.1367,35.41 6.0429,44.96 11.8515,59.34 0.8399,2.13 3.6133,8.09 8.3121,17.87 1.122,2.29 2.735,5.79 4.883,10.43 -28.5427,-16.2 -49.5076,-55.25 -49.5076,-92.16 l 0.3594,-7.56 2.0664,-21.55"
         style="fill:#231f20;fill-opacity:1;fill-rule:nonzero;stroke:none"
         id="path28" />
      <path
         d="m 221.711,750.691 16.004,3.696 c 5.082,1.179 8.656,1.66 12.476,1.66 2.911,0 6.664,-0.293 14.657,-1.184 -18.317,12.117 -25.282,20.203 -44.746,51.946 -16.668,27.168 -22.133,34.476 -43.602,58.656 -12.512,14.082 -15.121,17.176 -23.418,28.055 l 4.398,-12.5 8.118,-22.286 7.648,-24.093 c 9.496,-29.934 25.16,-49.407 55.438,-68.887 -59.629,9.383 -115.325,29.246 -156.7582,55.887 28.6762,-45.848 75.6332,-73.985 123.4372,-73.985 8.875,0 17.61,1.004 26.348,3.035"
         style="fill:#231f20;fill-opacity:1;fill-rule:nonzero;stroke:none"
         id="path30" />
      <path
         d="m 695.488,1244.85 c 0.965,-6.72 2.129,-16.24 3.453,-28.51 0.368,-3.12 0.887,-7.73 1.625,-13.93 -6.543,9.91 -9.832,13.57 -16.921,18.78 l -16.915,12.52 c -0.839,0.61 -3.457,2.72 -7.89,6.27 l -10.672,8.57 c -0.477,0.4 -5.301,4.66 -14.379,12.75 -1.285,1.18 -3.215,2.86 -5.781,5.13 14.941,-32.08 28.84,-50.34 56.113,-73.75 l 18.078,-15.55 c 4.957,-4.23 7.449,-6.77 18.797,-19.02 -0.32,5.03 -0.484,8.84 -0.484,11.45 0,3.92 0.246,8.29 0.703,13.15 l 2.086,21.55 0.387,7.56 c 0,36.91 -21.008,75.96 -49.528,92.16 2.129,-4.64 3.754,-8.12 4.86,-10.43 11.648,-24.58 13.98,-31.48 16.468,-48.7"
         style="fill:#231f20;fill-opacity:1;fill-rule:nonzero;stroke:none"
         id="path32" />
      <path
         d="m 682.477,853.883 c -16.715,-12.676 -25.754,-19.547 -27.114,-20.653 -2.613,-2.105 -6.465,-5.359 -11.609,-9.734 l 3.937,11.145 c 14.825,41.789 17.172,50.355 19.278,70.246 l 2.308,22.043 2.793,20.863 c 1.043,8.008 1.246,9.238 2.535,15.312 -0.804,-1.777 -1.445,-3.054 -1.851,-3.945 -0.625,-1.289 -4.02,-7.961 -10.199,-19.961 -24.301,-47.133 -30.934,-66.664 -40.371,-118.933 -2.653,-14.805 -3.899,-19.172 -8.555,-29.707 3.277,1.504 5.742,2.566 7.41,3.25 0.82,0.339 5.281,1.953 13.457,4.882 71.113,25.45 108.145,64.997 125.223,133.805 -32.176,-41.242 -44.785,-54.094 -77.242,-78.613"
         style="fill:#231f20;fill-opacity:1;fill-rule:nonzero;stroke:none"
         id="path34" />
      <path
         d="m 37.8242,1084.61 5.3399,-20.17 c 5.8632,13.72 10.4843,21.4 19.9414,33.38 l 14.8437,18.8 c 7.4922,9.48 18.3985,30.38 26.8948,51.48 l 9.035,22.5 c 0.461,1.15 2.168,4.63 5.121,10.44 -30.0078,-23.08 -45.7461,-42.33 -66.3398,-81.19 -0.7813,7.37 -0.918,9.95 -0.918,16.69 l 0.2226,27.6 c 0.0391,4.67 -0.3476,14.01 -1.1484,28.08 -0.3633,6.24 -0.543,11.46 -0.543,15.59 0,8.91 0.6016,15.16 3.5352,37.04 -2.4492,-4.34 -4.3008,-7.58 -5.543,-9.74 -18.7578,-32.34 -24.6211,-51.47 -24.6211,-80.07 0,-12.39 1.9063,-25.22 6.0625,-40.51 l 8.1172,-29.92"
         style="fill:#231f20;fill-opacity:1;fill-rule:nonzero;stroke:none"
         id="path36" />
      <path
         d="m 161.656,793.809 7.657,-3.25 c -4.364,8.953 -5.266,12.046 -8.575,29.707 l -5.101,27.113 c -4.703,24.922 -16.168,54.824 -35.27,91.82 -6.109,11.867 -9.523,18.535 -10.179,19.961 -0.422,0.891 -1.051,2.168 -1.872,3.945 l 1.168,-5.808 1.161,-9.504 3.011,-20.863 2.313,-22.043 c 2.062,-19.696 9.179,-44.637 23.195,-81.391 l -11.828,9.734 -26.895,20.653 C 66.6211,879.809 55.4531,891.168 23.2188,932.496 37.5977,866.977 77.4648,824.297 148.203,798.691 l 13.453,-4.882"
         style="fill:#231f20;fill-opacity:1;fill-rule:nonzero;stroke:none"
         id="path38" />
      <path
         d="m 732.117,1192.22 c -0.797,-14.07 -1.199,-23.41 -1.16,-28.08 l 0.219,-27.6 c 0,-6.74 -0.137,-9.32 -0.903,-16.69 -20.605,38.86 -36.328,58.11 -66.335,81.19 2.792,-5.81 4.398,-9.29 4.882,-10.44 l 9.282,-22.5 c 9.593,-23.28 19.316,-41.89 26.871,-51.48 l 14.855,-18.8 c 8.84,-11.19 12.676,-17.62 19.949,-33.38 l 5.321,20.17 c 4.98,18.81 7.629,28.79 7.89,29.92 3.614,14.46 5.727,26.95 6.246,37.33 l 0.141,4.87 c 0,25.88 -6.508,46.55 -24.723,78.38 l -5.539,9.74 c 2.965,-21.88 3.555,-28.13 3.555,-37.04 0,-4.13 -0.184,-9.35 -0.551,-15.59"
         style="fill:#231f20;fill-opacity:1;fill-rule:nonzero;stroke:none"
         id="path40" />
      <path
         d="m 609.688,834.641 7.636,24.093 7.891,22.286 4.64,12.5 c -7.671,-10.079 -9.097,-11.739 -23.664,-28.055 -19.316,-21.672 -26.871,-31.852 -43.355,-58.656 -19.668,-31.973 -26.43,-39.829 -44.77,-51.946 8.094,0.891 11.813,1.184 14.661,1.184 3.621,0 7.031,-0.461 12.25,-1.66 l 16.234,-3.696 c 8.898,-2.031 17.613,-3.035 26.387,-3.035 47.757,0 96.601,29.317 123.195,73.985 -40.43,-26.375 -96.707,-46.485 -156.535,-55.887 29.726,19.062 46.055,39.336 55.43,68.887"
         style="fill:#231f20;fill-opacity:1;fill-rule:nonzero;stroke:none"
         id="path42" />
      <path
         d="m 895.844,180.664 h 5.789 V 1314.18 h -5.789 V 180.664"
         style="fill:#231f20;fill-opacity:1;fill-rule:nonzero;stroke:none"
         id="path44" />
      <path
         d="m 432.988,1327.86 c 1.129,-0.54 2.457,-1.55 3.942,-3.02 2.05,0.24 2.633,0.59 2.633,1.7 0,1.9 -1.434,4.03 -3.336,5.04 -0.883,0.46 -1.75,0.69 -2.473,0.69 -0.723,0 -1.406,-0.23 -1.926,-0.69 -0.762,-0.63 -1.207,-1.33 -1.207,-1.87 0,-0.5 0.621,-1.01 2.367,-1.85"
         style="fill:#231f20;fill-opacity:1;fill-rule:nonzero;stroke:none"
         id="path46" />
      <path
         d="m 453.801,1329.03 c -3.297,0 -4.821,-1.48 -4.821,-4.59 0,-1.88 0.465,-4.11 1.383,-6.55 l 0.528,-0.01 c 1.664,0 1.984,0.15 3.191,1.4 l -0.082,1.65 c 0,2.82 0.281,3.27 2.852,4.62 l 0.218,2.06 c 0,1.05 -0.859,1.42 -3.269,1.42"
         style="fill:#231f20;fill-opacity:1;fill-rule:nonzero;stroke:none"
         id="path48" />
      <path
         d="m 433.996,1317.89 c -1.207,0 -2.508,-0.32 -3.797,-0.91 l -4.398,-2.1 c -5.102,-2.4 -8.367,-4.42 -8.367,-5.14 0,-1.66 2.14,-3.01 4.754,-3.01 1.683,0 5.746,0.48 12.167,1.43 l 6.27,0.93 3.012,1.39 0.242,4.87 -4.859,1.63 c -1.872,0.61 -3.555,0.91 -5.024,0.91"
         style="fill:#231f20;fill-opacity:1;fill-rule:nonzero;stroke:none"
         id="path50" />
      <path
         d="m 518.992,1270.37 7.43,-1.17 2.328,1.86 c -1.324,4.9 -3.254,6.49 -7.891,6.49 -2.851,0 -5.324,-2.08 -5.324,-4.48 0,-1.8 0.563,-2.25 3.457,-2.7"
         style="fill:#231f20;fill-opacity:1;fill-rule:nonzero;stroke:none"
         id="path52" />
      <path
         d="m 441.227,1267.91 c -1.02,0 -2.168,-0.2 -3.375,-0.56 -0.762,-2.09 -1.645,-3.5 -2.247,-3.5 -0.683,0 -1.949,0.92 -3.554,2.58 -0.703,0.71 -1.629,1.64 -2.797,2.77 -1.606,-1.53 -2.543,-2.82 -2.543,-3.54 0,-0.36 0.801,-2 2.324,-4.8 0.746,-1.38 1.606,-2.56 2.551,-3.49 1.023,-1.01 2.769,-1.87 3.859,-1.87 0.739,0 1.805,0.42 3.09,1.18 1.75,1.02 3.195,2.48 4.18,4.18 0.601,1.04 0.961,2.27 0.961,3.49 0,2.33 -0.844,3.56 -2.449,3.56"
         style="fill:#231f20;fill-opacity:1;fill-rule:nonzero;stroke:none"
         id="path54" />
      <path
         d="m 362.855,1264.79 c -3.972,0 -7.425,-1.7 -7.425,-3.65 0,-2.7 3.531,-4.8 8.07,-4.8 3.918,0 6.633,1.43 6.633,3.48 0,2.56 -3.496,4.97 -7.278,4.97"
         style="fill:#231f20;fill-opacity:1;fill-rule:nonzero;stroke:none"
         id="path56" />
      <path
         d="m 448.941,1250.17 c -3.05,0 -4.859,-1.42 -4.859,-3.87 0,-6.37 4.094,-11.19 9.516,-11.19 h 0.484 c 0.305,1.95 0.461,3.92 0.461,5.88 0,6.25 -1.789,9.18 -5.602,9.18"
         style="fill:#231f20;fill-opacity:1;fill-rule:nonzero;stroke:none"
         id="path58" />
      <path
         d="m 293.93,1242.09 c -3.332,0 -5.141,-1.52 -5.141,-4.27 l 0.402,-3.19 2.895,-0.2 c 2.832,0 5.238,2.11 5.238,4.6 0,1.88 -1.304,3.06 -3.394,3.06"
         style="fill:#231f20;fill-opacity:1;fill-rule:nonzero;stroke:none"
         id="path60" />
      <path
         d="m 462.094,1232.61 -0.36,-0.04 c -0.988,-0.19 -1.691,-1.11 -1.691,-2.2 0,-1.57 1.07,-2.77 2.434,-2.77 l 0.644,0.11 c 1.238,0.29 2.086,0.81 2.328,1.38 l 0.039,0.3 c 0,0.45 -0.238,1.06 -0.742,1.78 -0.625,0.89 -1.605,1.44 -2.652,1.44"
         style="fill:#231f20;fill-opacity:1;fill-rule:nonzero;stroke:none"
         id="path62" />
      <path
         d="m 342.258,1191.11 -0.406,-0.06 c -1.305,-0.32 -2.188,-1.57 -2.188,-3.13 0,-1.76 0.766,-3.02 1.785,-3.02 1.125,0 2.332,0.73 3.176,1.96 0.297,0.46 0.477,1 0.477,1.52 0,1.44 -1.348,2.73 -2.844,2.73"
         style="fill:#231f20;fill-opacity:1;fill-rule:nonzero;stroke:none"
         id="path64" />
      <path
         d="m 410.82,1050.34 c 0.84,0 1.547,0.5 2.446,1.8 0.75,0.91 1.148,1.63 1.148,2.04 0,0.74 -1.062,1.75 -2.793,2.61 -0.601,0.3 -1.238,0.46 -1.883,0.46 -1.531,0 -2.73,-1.14 -2.73,-2.6 0,-1.47 0.961,-3.11 2.328,-3.89 l 1.484,-0.42"
         style="fill:#231f20;fill-opacity:1;fill-rule:nonzero;stroke:none"
         id="path66" />
      <path
         d="m 541.266,1041.02 -4.157,5.32 c -1.668,-0.4 -2.089,-0.82 -2.089,-2.14 0,-2.13 1.328,-3.48 3.496,-3.48 l 2.75,0.3"
         style="fill:#231f20;fill-opacity:1;fill-rule:nonzero;stroke:none"
         id="path68" />
      <path
         d="m 561.613,951.289 c 1.703,0 2.285,0.918 2.852,4.609 l -6.731,1.629 c -1.425,-1.238 -1.91,-1.953 -1.91,-2.722 0,-0.586 0.246,-1.465 0.742,-2.617 1.95,-0.606 3.637,-0.899 5.047,-0.899"
         style="fill:#231f20;fill-opacity:1;fill-rule:nonzero;stroke:none"
         id="path70" />
      <path
         d="m 611.293,937.945 c 0,-2.121 1.609,-5.078 4.863,-8.937 4.34,1.972 5.821,3.965 5.821,7.754 0,3.941 -2.567,7.308 -5.579,7.308 -2.687,0 -5.105,-2.886 -5.105,-6.125"
         style="fill:#231f20;fill-opacity:1;fill-rule:nonzero;stroke:none"
         id="path72" />
      <path
         d="m 358.586,889.828 c 1.445,0 2.465,0.957 4.355,4.16 -2.492,0.989 -2.91,1.367 -3.699,3.469 h -1.644 c -1.528,0 -2.774,-1.543 -2.774,-3.469 0,-2.187 1.77,-4.16 3.762,-4.16"
         style="fill:#231f20;fill-opacity:1;fill-rule:nonzero;stroke:none"
         id="path74" />
      <path
         d="m 371.418,873.578 c 1.645,0 2.648,1.328 2.648,3.496 0,2.336 -0.964,3.313 -3.253,3.313 -1.125,0 -1.747,-1.301 -1.747,-3.574 l 0.137,-2.063 c 0.891,-0.762 1.692,-1.172 2.215,-1.172"
         style="fill:#231f20;fill-opacity:1;fill-rule:nonzero;stroke:none"
         id="path76" />
      <path
         d="m 232.152,872.875 2.09,-5.312 c 0.481,-1.239 0.781,-1.934 0.922,-2.098 0.305,-0.363 0.867,-0.539 1.566,-0.539 2.11,0 3.536,1.679 3.536,4.199 0,4.23 -2.246,6.926 -6.504,7.707 l -1.61,-3.957"
         style="fill:#231f20;fill-opacity:1;fill-rule:nonzero;stroke:none"
         id="path78" />
      <path
         d="m 505.559,1143.51 c 0,-2.19 1.566,-3.94 3.468,-3.94 0.743,0 1.77,1.71 2.332,3.94 -1.082,1.16 -1.57,1.41 -2.769,1.41 -1.848,0 -3.031,-0.54 -3.031,-1.41"
         style="fill:#231f20;fill-opacity:1;fill-rule:nonzero;stroke:none"
         id="path80" />
      <path
         d="m 362.477,1084.85 c -1.387,-2.64 -2.086,-4.99 -2.086,-6.88 0,-1.72 1.906,-3.1 4.293,-3.1 1.996,0 3.355,1.62 3.355,3.95 0,2.49 -1.281,3.87 -5.562,6.03"
         style="fill:#231f20;fill-opacity:1;fill-rule:nonzero;stroke:none"
         id="path82" />
      <path
         d="m 271.117,1041.91 c 0,1.08 -0.16,2.5 -0.48,4.22 -0.282,1.64 -0.485,3.03 -0.485,3.65 l 0.039,0.5 0.079,2.85 c 0,1.33 -1.118,2.19 -2.79,2.19 l -0.785,-0.16 c -1.402,-0.61 -2.304,-2.17 -2.304,-3.93 v -5.35 l -2.09,-3.93 -0.184,-0.74 c 0,-2.35 2.449,-4.61 5.047,-4.61 2.406,0 3.953,2.07 3.953,5.31"
         style="fill:#231f20;fill-opacity:1;fill-rule:nonzero;stroke:none"
         id="path84" />
      <path
         d="m 272.504,1021.3 0.078,1.85 c 0,6.06 -1.844,9.86 -4.84,9.86 -1.887,0 -3.379,-1.56 -3.379,-3.51 0,-0.83 0.582,-2.73 1.891,-6.11 0.644,-1.73 1.207,-4.45 1.609,-8.12 l 4.172,0.93 0.469,5.1"
         style="fill:#231f20;fill-opacity:1;fill-rule:nonzero;stroke:none"
         id="path86" />
      <path
         d="m 271.117,1006.16 c 0,-1 0.602,-2.04 1.61,-2.71 0.476,-0.31 0.98,-0.46 1.484,-0.46 1.219,0 2.527,0.84 3.617,2.32 0.957,1.29 1.485,2.49 1.485,3.4 0,1.28 -1.247,2.19 -3.032,2.19 -2.051,0 -3.797,-1.13 -4.703,-3.04 -0.305,-0.66 -0.461,-1.22 -0.461,-1.7"
         style="fill:#231f20;fill-opacity:1;fill-rule:nonzero;stroke:none"
         id="path88" />
      <path
         d="m 149.605,964.961 c -0.562,-1.68 -0.96,-3.445 -0.96,-4.277 0,-3.594 1.886,-6.602 4.093,-6.602 2.235,0 3.438,1.094 3.438,3.176 0,1.941 -0.903,4.375 -2.629,7 -1.75,0.43 -3.055,0.644 -3.942,0.703"
         style="fill:#231f20;fill-opacity:1;fill-rule:nonzero;stroke:none"
         id="path90" />
      <path
         d="m 162.824,951.504 c -0.64,-2.402 -1.008,-4.57 -1.008,-6.504 0,-3.855 2.594,-6.266 6.672,-6.266 1.567,0 2.289,0.582 2.289,1.871 0,6.77 -2.691,10.461 -7.953,10.899"
         style="fill:#231f20;fill-opacity:1;fill-rule:nonzero;stroke:none"
         id="path92" />
      <path
         d="m 176.5,933.871 -0.703,0.059 c -2.809,0 -4.414,-1.141 -4.414,-3.153 0,-0.82 0.258,-1.75 0.719,-2.472 0.964,-1.563 2.769,-2.774 4.097,-2.774 2.008,0 3.778,2.219 3.778,4.746 0,1.731 -1.547,3.332 -3.477,3.594"
         style="fill:#231f20;fill-opacity:1;fill-rule:nonzero;stroke:none"
         id="path94" />
      <path
         d="m 539.234,1180.68 -0.519,-0.05 c -1.024,-0.3 -2.129,-1.39 -3.016,-3.03 -0.297,-0.55 -0.461,-1.18 -0.461,-1.8 0,-1.96 1.508,-3.31 3.66,-3.31 1.942,0 3.551,2.19 3.551,4.92 0,1.79 -1.488,3.27 -3.215,3.27"
         style="fill:#231f20;fill-opacity:1;fill-rule:nonzero;stroke:none"
         id="path96" />
      <path
         d="m 544.297,1166.49 h -0.723 c -1.285,-0.1 -1.683,-0.89 -1.683,-3.24 0,-4.42 2.086,-8.55 5.418,-10.68 0.925,-0.6 1.929,-0.95 2.851,-0.95 2.555,0 4.121,1.69 4.121,4.43 0,6.1 -4.164,10.44 -9.984,10.44"
         style="fill:#231f20;fill-opacity:1;fill-rule:nonzero;stroke:none"
         id="path98" />
      <path
         d="m 1336.89,278.066 -31.99,55.411 -269.71,-155.829 c 5.94,-5.968 7.55,-7.199 17.39,-12.98 3.58,-2.07 7.81,-4.648 12.78,-7.656 4.94,-2.989 8.41,-5.078 10.44,-6.239 L 1336.89,-0.0117188 1598.24,150.773 c 2.03,1.161 5.53,3.25 10.42,6.239 4.98,3.008 9.25,5.586 12.78,7.656 9.76,5.742 11.36,6.934 17.15,12.754 L 1368.42,334.656 Z M 1334.36,8.11328 1085.08,152.129 c 6.01,-0.457 10.8,-0.691 14.39,-0.691 16.68,0 28.18,4.265 58.17,21.597 l 176.72,102.004 z M 1574.72,151.438 c 3.54,0 8.28,0.234 14.26,0.691 L 1339.68,8.11328 V 275.5 L 1516.4,173.035 c 30.3,-17.586 41.11,-21.597 58.32,-21.597"
         style="fill:#231f20;fill-opacity:1;fill-rule:nonzero;stroke:none"
         id="path100" />
      <path
         d="m 1246.91,437.605 h 64.01 v 311.692 c -8.26,-2.234 -10.16,-3.067 -20.16,-8.594 l -13,-7.183 -10.67,-6.036 -261.1,-150.726 V 275.039 l 0.24,-12.273 0.22,-15.317 c 0,-11.492 0.18,-13.054 2.31,-20.879 l 271.33,155.371 z M 1066.04,334.656 c -35.49,-20.418 -42.14,-26.812 -54.27,-52.195 v 287.812 l 231.45,-133.828 z m 179.71,310.75 V 441.57 l -231.41,133.352 249.29,143.988 c -13.22,-19.676 -17.88,-32.715 -17.88,-50.32 v -23.184"
         style="fill:#231f20;fill-opacity:1;fill-rule:nonzero;stroke:none"
         id="path102" />
      <path
         d="m 1406.94,727.484 -10.69,6.036 -12.96,7.183 c -10.01,5.527 -11.94,6.36 -20.19,8.594 V 437.605 h 64.01 l -33.18,-55.664 271.09,-155.371 c 2.21,8.118 2.47,10.285 2.57,21.34 l 0.2,14.856 0.26,12.273 v 301.719 z m 3.47,-8.574 249.06,-143.988 -231.2,-133.352 v 203.836 c 0,42.371 -1.32,47.821 -17.86,73.504 z m 251.84,-436.449 c -12.25,25.723 -18.02,31.211 -54.49,52.195 L 1430.6,436.445 1662.25,570.273 V 282.461"
         style="fill:#231f20;fill-opacity:1;fill-rule:nonzero;stroke:none"
         id="path104" />
      <path
         d="m 2012.17,455.5 c -0.54,-45.578 -32.15,-70.766 -76.38,-70.766 -43.93,0 -74.71,24.653 -74.71,72.621 0,38.844 0.78,77.704 1.04,116.571 h 34.31 c -0.26,-39.403 -1.09,-79.063 -1.09,-118.426 0,-25.996 18.24,-41.27 41.01,-41.27 27.03,0 41.25,17.958 41.54,43.125 l 1.04,116.571 h 34.31 L 2012.17,455.5"
         style="fill:#231f20;fill-opacity:1;fill-rule:nonzero;stroke:none"
         id="path106" />
      <path
         d="m 2055.57,568.008 31.85,9.66 86.56,-142.016 h 0.53 l -2.13,138.274 h 34.3 l -1.61,-179.539 -34.56,-9.653 -84.41,141.211 -0.53,-0.523 2.68,-136.926 h -34.29 l 1.61,179.512"
         style="fill:#231f20;fill-opacity:1;fill-rule:nonzero;stroke:none"
         id="path108" />
      <path
         d="m 2247.91,573.926 h 34.31 l -1.61,-185.43 h -34.28 l 1.58,185.43"
         style="fill:#231f20;fill-opacity:1;fill-rule:nonzero;stroke:none"
         id="path110" />
      <path
         d="m 2359.12,544.453 h -51.98 l 0.24,29.473 h 137.46 l -0.27,-29.473 h -51.17 l -1.35,-155.957 h -34.3 l 1.37,155.957"
         style="fill:#231f20;fill-opacity:1;fill-rule:nonzero;stroke:none"
         id="path112" />
      <path
         d="m 2472.71,573.926 h 99.11 v -29.473 h -64.8 l -0.57,-47.715 h 64.32 v -27.851 h -64.56 l -0.28,-50.918 h 65.89 v -29.473 h -101 l 1.89,185.43"
         style="fill:#231f20;fill-opacity:1;fill-rule:nonzero;stroke:none"
         id="path114" />
      <path
         d="m 2639.38,417.969 1.05,126.484 h 28.14 c 36.41,0 60.27,-26.805 60.27,-61.914 0,-41.238 -27.05,-64.57 -67.26,-64.57 z m -34.59,-29.473 h 63.78 c 49.29,0 96.16,37.527 96.16,93.777 0,55.2 -38.84,91.653 -97.24,91.653 h -61.07 l -1.63,-185.43"
         style="fill:#231f20;fill-opacity:1;fill-rule:nonzero;stroke:none"
         id="path116" />
      <path
         d="m 2874.31,568.008 31.9,9.66 86.51,-142.016 h 0.58 l -2.18,138.274 h 34.3 l -1.6,-179.539 -34.58,-9.653 -84.38,141.211 -0.54,-0.523 2.69,-136.926 h -34.3 l 1.6,179.512"
         style="fill:#231f20;fill-opacity:1;fill-rule:nonzero;stroke:none"
         id="path118" />
      <path
         d="m 3158.58,465.676 h -45.27 l 23.31,72.312 h 0.53 z m -55.19,-27.883 h 64.54 l 18.25,-53.059 33.49,9.653 -66.2,179.539 h -31.61 l -71.25,-179.539 31.88,-9.653 20.9,53.059"
         style="fill:#231f20;fill-opacity:1;fill-rule:nonzero;stroke:none"
         id="path120" />
      <path
         d="m 3262.26,544.453 h -51.98 l 0.27,29.473 h 137.44 l -0.26,-29.473 h -51.18 l -1.32,-155.957 h -34.31 l 1.34,155.957"
         style="fill:#231f20;fill-opacity:1;fill-rule:nonzero;stroke:none"
         id="path122" />
      <path
         d="m 3374.53,573.926 h 34.27 l -1.59,-185.43 h -34.3 l 1.62,185.43"
         style="fill:#231f20;fill-opacity:1;fill-rule:nonzero;stroke:none"
         id="path124" />
      <path
         d="m 3476.06,481.191 c 0,43.145 32.42,68.614 63.53,68.614 38.29,0 63.47,-29.231 63.47,-68.614 0,-36.679 -25.18,-68.593 -63.47,-68.593 -38.34,0 -63.53,28.156 -63.53,68.593 z m -35.9,0 c 0,-56.257 43.14,-96.457 99.43,-96.457 56.23,0 99.37,42.356 99.37,96.457 0,54.129 -39.37,96.477 -99.37,96.477 -55.22,0 -99.43,-42.348 -99.43,-96.477"
         style="fill:#231f20;fill-opacity:1;fill-rule:nonzero;stroke:none"
         id="path126" />
      <path
         d="m 3672.99,568.008 31.88,9.66 86.53,-142.016 h 0.56 l -2.15,138.274 h 34.3 l -1.61,-179.539 -34.55,-9.653 -84.41,141.211 -0.56,-0.523 2.69,-136.926 h -34.3 l 1.62,179.512"
         style="fill:#231f20;fill-opacity:1;fill-rule:nonzero;stroke:none"
         id="path128" />
      <path
         d="m 3868.05,425.215 c 8.59,-5.879 22.48,-12.617 32.67,-12.617 19.03,0 29.76,12.07 29.76,26.828 -0.28,36.941 -76.09,21.14 -76.09,84.39 0,30.278 24.62,53.852 61.9,53.852 18.49,0 36.44,-6.418 52.22,-15.551 l -14.45,-24.644 c -11.25,6.179 -21.69,12.332 -35.1,12.332 -15.54,0 -30.29,-8.313 -30.29,-24.93 0,-36.437 77.7,-24.926 77.7,-84.121 0,-31.633 -25.45,-56.02 -61.37,-56.02 -17.93,0 -34.82,5.11 -50.33,14.204 l 13.38,26.277"
         style="fill:#231f20;fill-opacity:1;fill-rule:nonzero;stroke:none"
         id="path130" />
      <path
         d="m 2012.17,152.793 c -0.54,-45.566 -32.15,-70.7422 -76.38,-70.7422 -43.93,0 -74.71,24.6292 -74.71,72.6172 0,38.828 0.78,77.695 1.04,116.543 h 34.31 c -0.26,-39.395 -1.09,-79.063 -1.09,-118.418 0,-26.008 18.24,-41.277 41.01,-41.277 27.03,0 41.25,17.957 41.54,43.152 l 1.04,116.543 h 34.31 l -1.07,-118.418"
         style="fill:#231f20;fill-opacity:1;fill-rule:nonzero;stroke:none"
         id="path132" />
      <path
         d="m 2055.57,265.32 31.85,9.614 86.56,-141.973 h 0.53 l -2.13,138.25 h 34.3 l -1.61,-179.5313 -34.56,-9.6289 -84.41,141.1792 -0.53,-0.535 2.68,-136.902 h -34.29 l 1.61,179.527"
         style="fill:#231f20;fill-opacity:1;fill-rule:nonzero;stroke:none"
         id="path134" />
      <path
         d="m 2247.91,271.211 h 34.31 l -1.61,-185.418 h -34.28 l 1.58,185.418"
         style="fill:#231f20;fill-opacity:1;fill-rule:nonzero;stroke:none"
         id="path136" />
      <path
         d="m 2306.34,263.965 34.54,10.969 47.44,-145.743 h 0.52 l 53.35,145.743 33.22,-10.969 -70.74,-178.172 h -32.17 l -66.16,178.172"
         style="fill:#231f20;fill-opacity:1;fill-rule:nonzero;stroke:none"
         id="path138" />
      <path
         d="m 2502.46,271.211 h 99.11 V 241.75 h -64.83 l -0.53,-47.707 h 64.3 v -27.852 h -64.57 l -0.28,-50.937 h 65.91 V 85.793 h -101 l 1.89,185.418"
         style="fill:#231f20;fill-opacity:1;fill-rule:nonzero;stroke:none"
         id="path140" />
      <path
         d="m 2670.44,187.891 0.53,55.461 h 19.81 c 17.43,0 31.37,-9.133 31.37,-26.797 0,-24.094 -20.36,-28.664 -30.57,-28.664 z M 2634.53,85.793 h 35.09 l 0.28,74.227 h 10.73 c 5.07,0 9.1,-1.856 12.31,-6.426 l 51.42,-71.5432 30.56,18.2032 -52.77,69.148 c 21.69,7.766 35.89,24.641 35.89,48.215 0,29.473 -18.21,53.594 -62.96,53.594 h -58.68 l -1.87,-185.418"
         style="fill:#231f20;fill-opacity:1;fill-rule:nonzero;stroke:none"
         id="path142" />
      <path
         d="m 2801.44,122.5 c 8.56,-5.891 22.51,-12.598 32.71,-12.598 18.99,0 29.72,12.063 29.72,26.797 -0.28,36.992 -76.1,21.184 -76.1,84.414 0,30.274 24.64,53.821 61.92,53.821 18.45,0 36.4,-6.418 52.22,-15.508 l -14.46,-24.653 c -11.25,6.165 -21.71,12.317 -35.11,12.317 -15.55,0 -30.27,-8.301 -30.27,-24.91 0,-36.457 77.71,-24.922 77.71,-84.133 0,-31.621 -25.47,-55.9962 -61.35,-55.9962 -17.98,0 -34.85,5.0898 -50.4,14.1992 l 13.41,26.25"
         style="fill:#231f20;fill-opacity:1;fill-rule:nonzero;stroke:none"
         id="path144" />
      <path
         d="m 2932.73,271.211 h 34.29 l -1.61,-185.418 h -34.3 l 1.62,185.418"
         style="fill:#231f20;fill-opacity:1;fill-rule:nonzero;stroke:none"
         id="path146" />
      <path
         d="m 3043.91,241.75 h -51.99 l 0.28,29.461 h 137.46 l -0.29,-29.461 h -51.17 l -1.34,-155.957 h -34.29 l 1.34,155.957"
         style="fill:#231f20;fill-opacity:1;fill-rule:nonzero;stroke:none"
         id="path148" />
      <path
         d="m 3200.91,162.695 -61.37,94.578 31.36,17.661 48.49,-79.282 50.38,79.282 30.27,-17.383 -63.21,-93.774 -1.09,-77.984 h -35.91 l 1.08,76.902"
         style="fill:#231f20;fill-opacity:1;fill-rule:nonzero;stroke:none"
         id="path150" />
    </g>
  </g>
</svg>
