<?xml version="1.0" encoding="utf-8"?>
<!-- Generator: Adobe Illustrator 22.1.0, SVG Export Plug-In . SVG Version: 6.00 Build 0)  -->
<svg version="1.1" id="Layer_1" xmlns="http://www.w3.org/2000/svg" xmlns:xlink="http://www.w3.org/1999/xlink" x="0px" y="0px"
	 viewBox="0 0 207 209.9" style="enable-background:new 0 0 207 209.9;" xml:space="preserve">
<style type="text/css">
	.st0{fill:#5289C3;}
</style>
<title>World_Food_Program_logo</title>
<g id="key">
	<path class="st0" d="M119.1,62.2c1-2.3,2.2-4.5,3.6-6.6c0.7-1,1.4-1.7,2.1-2.7c-0.4,0-0.7,0.1-1,0.3c-0.7,0.5-1,1.3-1.5,1.7
		c-1.2,1-1.2,1.9-1.9,2.3c-0.5,0.3-0.9,0.8-1.2,1.3c-0.3,0.5-0.6,1-0.7,1.6c-0.1,0.3-0.3,0-0.8,0.7c-0.6,0.9-1,1.9-1.2,2.9
		c-0.1,0.3-0.7,0.5-1.1,1.2c-0.5,1-0.9,2.1-1.1,3.3c-0.1,0.3-0.6,0.6-1,1.5c-0.3,0.6-0.6,1.3-0.7,2s-0.5,0.8-0.9,1.9
		c-0.2,0.9-0.4,1.8-0.4,2.7c-0.2,0.4-0.4,0.8-0.7,1.2c-0.4,0.9-0.6,1.8-0.7,2.7c-0.4,0.8-0.7,1.6-0.9,2.5c-0.2,1-0.2,2-0.1,3.1
		c-0.4,1.7-0.5,3.4-0.4,5.2c0.1,0.9,0.2,1.7,0.2,2.6c-0.2,2.6-0.3,4.8-0.3,7.8c0,1.9,0.1,3.8,0.4,5.7c0.3,2,0.7,3.6,0.7,3.6h6.7
		c-0.1-2.6-0.1-5.3,0.1-7.9c0.2-2.3,0.7-4.6,1.3-6.8c0.6-2.2,1.4-4.4,2.3-6.6c0-0.1,0-0.4-0.3-0.1c-0.7,0.5-1.3,1.2-1.8,1.9
		c-0.7,1.2-1.4,2.4-2,3.6c-0.8,1.5-1.2,2.8-2.1,4.7c0-1.3,0.1-2.6,0.4-3.8c0.6-3,1.7-5.9,3.4-8.6c0.7-1,1.4-1.9,2.3-2.7
		c1-0.9,1.9-1.7,3-2.6c-1.1-0.6-2.6,0.6-2.9,0.7c-1.6,0.3-2.2,1.8-2.7,1.9c-0.6,0.3-1.1,0.7-1.5,1.3c-0.4,0.4-0.5,1.1-0.9,1.3
		c-0.7,0.5-1.2,1.1-1.5,1.8c-0.2,0.3-0.7,2-1.2,1.8c0.9-5.5,2.9-10.7,6-15.3c1.9-3,4.4-5.6,7.3-7.7c0.4-0.3,0.5-0.4-0.1-0.4
		c-3,0.4-3.1,1.7-3.6,1.8c-0.5,0.2-1,0.6-1.4,1c-0.7,0.7-0.6,1.2-0.9,1.4c-0.5,0.4-1,0.8-1.3,1.4c-0.2,0.3-0.5,1.1-0.8,1.3
		c-0.8,0.4-1.4,1-1.9,1.8c-0.2,0.5-0.5,1.1-0.7,1.6c-0.4,0.5-0.9,0.9-1.4,1.3c0.5-2.6,1.3-5.1,2.2-7.5
		C116.5,68.3,117.7,65.2,119.1,62.2z"/>
	<path class="st0" d="M125.9,81.3c2.4-5.3,5.2-10.3,8.6-14.9c0.4-0.7,0.9-1.3,1.2-1.9c0.2-0.3,1-1.5,1.2-1.8c1.1-1.8,1.6-2.3,2.8-4
		c0.3-0.4,0.6-0.8,0.7-1.3c0.2-1-0.6-1.6-0.8-2.6c-0.2-0.9-0.1-1.9,0.4-2.8c0.3-0.4,0.6-0.9,0.8-1.4c0.5-1.3,0.3-4.1,1-4.2
		c-0.2,1.4-0.2,2.8,0,4.1c0.2,1.5,1.2,2.4,1.5,4c1-0.2,2-0.2,3-0.1c1,0,1.9-0.1,2.8-0.5c1.2-0.4,2.1-1.1,3.4-1.4
		c-1,1-2.5,1.3-3.7,2.1c-0.5,0.3-0.9,0.7-1.1,1.1c-0.5,0.8-0.9,1.5-1.6,1.8c-1.4,0.6-2.5,0.3-4.1,0.6c-2.5,2.7-4.6,5.7-6.4,8.9
		c-5,8.5-9.2,17.4-11.7,26.4c0.9-1.6,1.6-3.1,2.6-4.6c1-1.7,2.2-3.3,3.4-4.9c2.9-3.8,5.8-7.2,9-10.7c2.5-2.8,5.4-5.2,8.6-7.2
		c4.2-2.6,9.4-4.5,13.9-3.5c0.6,0.1,1.1,0.3,1.6,0.6c-5.2-0.7-10.5,0.9-14.6,4.2c-3,2.4-5.7,5-8.1,8c-1.3,1.5-2.5,3.2-3.7,4.8
		s-2.4,3.5-3.4,5.3c-3.6,6-6.5,12.5-8.5,19.2c-0.1,0.2-0.1,0.4-0.1,0.6c0.1-0.1,0.2-0.3,0.3-0.5c2.8-4.5,6.1-8.8,10.3-11.8
		c0.4-0.3,0.7-0.7,0.9-1.1c0.5-1.8-0.9-2.6,1-5.1c0.4-0.6,1-0.8,1.4-1.3c0.8-1.2,1.4-3.3,2-3.9c-0.5,1.4-0.9,2.8-1.3,4.3
		c0,1.5,0.1,3,0.3,4.5c1,0.2,1.9,0.5,2.9,0.9c1.1,0.3,2.3,0.4,3.5,0.2c0.7-0.2,1.5-0.3,2.2-0.3c-1.3,0.7-3.1,0.6-4.4,1.2
		c-0.9,0.5-1.2,1.2-2.5,1.4c-1,0.2-2,0.1-2.9-0.3c-0.4-0.3-1-0.4-1.5-0.2c-1.3,0.7-2.5,1.6-3.4,2.7c-2.7,2.7-4.9,5.9-6.7,9.3
		c-0.5,1-1,2-1.4,3c-0.2,0.5-0.8,1.9-0.8,1.9h-6.7c0,0,0-1.9,0-2.7c0.1-1.3,0.3-2.6,0.6-3.9c0.4-2.1,0.8-3.9,1.3-5.9
		s1.1-3.8,1.8-5.7C122.8,88.7,124.3,84.9,125.9,81.3z"/>
	<path class="st0" d="M60.6,133.9c2.1-1.7,4.4-3.3,6.7-4.6c1-0.6,2.5-1.3,3.7-1.8c4.8-2.1,10-3.3,15.2-3.4h39.9
		c1.2,0,2.4,0.4,3.3,1.2c0.8,0.8,1.2,1.9,1.4,3c0.1,0.9,0.1,1.9-0.1,2.8c-0.1,0.7-0.4,1.4-0.8,2c-0.3,0.4-0.6,0.8-1,1.1
		c-0.6,0.4-1.4,0.6-2.1,0.6h-0.3H80.2h-0.4c-3.1,0-6.2,0.2-9.2,0.6c-2.3,0.3-4.6,0.7-6.8,1.2c-2.8,0.8-5.5,1.7-8.2,2.8
		C57,137.2,58.7,135.5,60.6,133.9z"/>
	<path class="st0" d="M74.4,118.1c2.5-1.7,5.2-3.1,8-4.2c1.5-0.5,3-1,4.5-1.4c1.7-0.4,3.5-0.7,5.2-0.8h34.1c0,0,0.7,0,1,0.1
		c0.5,0.1,0.9,0.3,1.4,0.5c0.6,0.4,1.1,1,1.5,1.6c0.8,1.4,1.1,3.1,0.8,4.7c-0.3,1.9-1.7,4-3.7,4c-0.3,0-1,0-1,0H89.4l-3.1,0.1
		c-1.8,0.1-3.6,0.2-5.4,0.5c-1.3,0.2-2.7,0.5-4,0.8c-4.5,1.2-8.5,3.5-12.6,5.3C66.8,124.9,70.3,121.1,74.4,118.1z"/>
	<path class="st0" d="M55.4,141.2c5.9-3.5,13-4.9,19.5-5.1h0.5h51.4c3.1,0,4.2,3.1,4.2,5.5c0,0.7-0.1,1.5-0.4,2.2
		c-0.3,0.7-0.6,1.3-1.1,1.9c-0.3,0.3-0.7,0.6-1.2,0.8c-0.5,0.1-1,0.2-1.6,0.1H88.9c0,0-2-0.1-3.4-0.2c-1-0.1-1.8-0.2-2.9-0.4
		c-2.4-0.6-4.7-1.2-7-2.1c-1.5-0.5-3.1-0.8-4.7-1.1c-3.1-0.5-6.3-0.7-9.4-0.4c-3.8,0.3-7.5,1-11.1,2.2
		C51,143.7,53.6,142.3,55.4,141.2z"/>
	<path class="st0" d="M82.8,157.1c-1.8-0.6-3.4-1.4-5-2.4c-2-1.3-3-2.4-5.5-3.5c-2.3-1.2-4.6-2.2-7-3.1c-1.9-0.7-3.9-1.2-5.9-1.6
		c-2.9-0.5-5.8-0.7-5.8-0.7c0.3-0.2,0.7-0.4,1-0.5c2.8-0.9,5.7-1.4,8.7-1.6c2.6-0.2,5.3,0,7.8,0.5c1.3,0.2,2.6,0.5,3.8,0.9
		c4,1.2,8.7,3,12.8,3c0.2,0,0.2,0,0.2,0h37.9c1.1,0,3.3,0.4,4.1,1.9c1.1,1.8,1.2,4,0.5,5.9c-0.3,0.8-0.7,1.5-1.3,2.1
		c-0.5,0.4-1.2,0.7-1.9,0.8H93.6C90,158.8,86.3,158.2,82.8,157.1z"/>
	<path class="st0" d="M97.8,168.9c-0.9-1-2.2-2.4-3.4-3.8c-1.3-1.5-2.4-3.2-3.2-5.1h22c0,1.8-0.2,3.7-0.5,5.5
		c-0.5,2.7-1.3,5.3-2.6,7.7c0,2.1,0.9,4.1,1,6.2c-1.9,1.1-3.7,2.3-5.4,3.8c-0.1,0.1-0.3,0.1-0.3-0.2c-0.9-3.3-1.3-6.2-2-9.4
		C101.4,172.2,99.6,170.6,97.8,168.9z"/>
	<path class="st0" d="M120.6,167.1c-0.5-1.2-1.1-2.4-1.8-3.6c-0.1,0.8,0,1.3-0.1,2.1s-0.6,0.4-0.7,0.1c-0.3-0.9-0.6-2-0.9-2.9
		s-0.5-1.9-0.6-2.8h3.7c0,0,0.1,0,0.2,0.4c0.2,0.9,0.1,1.8,0.4,2.9c0.3,1.3,0.8,2.6,1.3,3.9c0.4,1.1,1,2.3,1.5,3.4
		c0.1,0.2,0.1,0.4,0,0.6c-0.1,0.1-0.3,0.2-0.4,0.1c0,0,0,0-0.1-0.1C121.9,169.9,121.2,168.5,120.6,167.1z"/>
	<path class="st0" d="M126.2,169.7c-0.6-1.3-1.5-2.8-1.4-4.3c0.4,0.5,0.6,0.9,1.1,1.2c0.3,0.1,0.8,0,0.7-0.4c-0.2-0.8-0.6-1.5-1-2.7
		c-0.5-1.7-1-3.5-1-3.5h-3.7c0.2,1.3,0.6,2.6,1.1,3.9c0.9,2.3,1.9,4.5,3.2,6.6c0.9,1.7,1.9,3.3,3.1,4.8c0.4,0.4,1.4,0.1,1-0.6
		C128,173.1,127,171.4,126.2,169.7z"/>
	<path class="st0" d="M150.5,43.3c-0.8,0.3-1.5,0.9-1.9,1.6c-0.3,0.6-0.5,1.4,0.1,1.9c1,0.8,2.2,0,2.6-0.9c0.4-1,0.5-2.1,0.4-3.2
		C151.7,42.7,151,43,150.5,43.3z"/>
	<path class="st0" d="M151.3,48.5c0.5-0.8,1.2-1.5,2-1.9c1-0.6,2-1.2,2.6-1.6s0.8-0.7,0.8-0.7c-0.3,0.1-0.6,0.2-0.9,0.4
		c-1.7,1-3.6,2.2-4.3,2.5c-1.1,0.4-2.3,0.6-3.4,0.7c-0.3-1.1-0.5-2.3-0.6-3.4c0-0.7,0.1-1.3,0.3-2c0.4-1.9,0.4-2.9,0.4-2.9
		c-0.3,0.3-0.4,0.7-0.4,1.1c-0.1,0.8-0.2,1-0.4,1.9c-0.1,0.9-0.4,1.8-1,2.6c-0.9,0.9-1.7,2.6-1,3.8c0.4,0.7,1.1,0.6,1.3,0.8
		s0.3,0.6,1,0.8C149.1,51.1,150.6,49.8,151.3,48.5z"/>
	<path class="st0" d="M149.6,52.4c0.4-0.7,1-1.3,1.7-1.7c1.2-0.7,2.1-1.2,2.9-1.6c0.3-0.1,0.6-0.4,0.7-0.7c-1,0.4-1.9,0.9-2.8,1.4
		c-1.1,0.7-2.2,1.1-3.4,1.2c-0.3,0-0.7,0-1-0.1c-0.5,0-1.1,0-1.6,0.1c-0.1-0.6-0.3-1.1-0.5-1.7c-0.2-0.4-0.4-0.9-0.5-1.4
		s-0.1-1-0.1-1.5c0.2-1.2,0.3-2.4,0.4-3.6c-0.8,1.6-0.4,3.6-1.4,4.8c-0.4,0.5-0.7,1-1,1.6c-0.5,1-0.4,2.3,0.2,3.2
		c0.4,0.6,1.2,0.6,1.4,0.7s0.4,0.8,1.2,1C147.2,54.4,148.7,53.7,149.6,52.4z"/>
	<path class="st0" d="M150,83.6c0.3-0.7,0.6-1.5,1-2.2c-1,0.1-1.1,0.2-2.5,0.4c-0.4,0.1-0.8,0.3-1.1,0.5c-0.6,0.5-1,1.2-0.8,2
		c0.1,0.3,0.3,0.6,0.6,0.7C148.3,85.3,149.5,84.7,150,83.6z"/>
	<path class="st0" d="M151.1,85.4c1.3-0.3,2.8-0.9,3.4-0.7c-1.3,0.6-2.7,1-4.1,1.3c-1,0.4-1.9,1-2.7,1.8c-0.8,0.7-2,0.9-3,0.4
		c-0.4-0.2-0.6-0.6-0.7-1c0-0.2-0.5-0.5-0.8-0.7c-0.2-0.3-0.4-0.6-0.4-0.9c0-1.8,1.3-2.6,2.7-3.6c1-0.8,2.3-4.2,3.1-4.9
		c-0.1,1.1-1.6,3.2-2.2,4.8c-0.5,1.3-0.3,2.3-0.6,3.6c0.9,0.1,2,0.3,3,0.3C149.5,85.7,150.3,85.6,151.1,85.4z"/>
	<path class="st0" d="M149.8,88.1c-0.7,0.1-1.6,0.4-2.2,0.5c-2.1,0.4-3.1-0.6-4.9-0.6c0.1-2-0.5-2.8,0-4.1s1-2.3,1.4-3.3
		c0.2-0.4,0.4-0.9,0.4-1.4c0,0-0.5,0.8-2,3.6c-0.5,1-1.4,1.2-2.2,2.2s-1.5,3.4,0.3,4.3c0.4,0.2,0.3,0.8,0.6,1c1.1,1.1,3.5,1,4.9-0.3
		c1.1-0.8,2.4-1.4,3.8-1.6c0.5-0.1,0.9-0.3,1.3-0.5C150.6,88,150.2,88,149.8,88.1z"/>
	<path class="st0" d="M109.2,73.5c0.7-2.3,1.1-4.6,1.4-6.9c0.4-3.6-0.6-7.2-2.8-10c0.2,1.2,0.5,2.2,0.7,3.4c0.1,1.5,0,3.1-0.4,4.6
		c-0.3,1.1-0.8,2.2-1.3,3.3c-0.7,1.3-1.4,2.5-2.4,3.7c-2.5,3.1-6.3,9.1-6.3,9.1h-0.5c0-0.8,1.7-3.3,2.6-4.8c2-3.1,3.4-4.8,5.2-7.6
		c1.1-1.7,1.8-3.7,2.2-5.7c0.5-3.9-1.5-8.5-4.5-10c0.7,2.9,0.6,7-0.9,8.7c-2.7,2.9-5,6.2-6.7,9.8c-0.1,0.1-0.5-0.6-0.9-0.8
		c-0.4-0.3-0.2-1.2-0.4-1.8c-0.1-0.4-0.3-0.7-0.5-1c-0.6-0.8-1.2-0.8-1.3-1c-0.1-0.6-0.3-1.1-0.6-1.6c-0.3-0.4-1-0.6-1.2-1
		s-0.4-1.5-1.3-2c-0.4-0.2-0.6-0.9-1-1.2c-0.7-0.6-1.6-0.9-2.6-0.9c-0.6-0.5-1.2-0.8-1.9-1c-1-0.2-1.6,0.5-2.1,0.3
		c-1.4-0.8-3.1-0.4-4,0.9c-0.4,0.5-1.2,0-2.1,0.7s-0.8,1.2-1.2,1.2c-0.7,0.2-1.3,0.7-1.6,1.4c-0.2,0.5-0.3,1-0.4,1.5
		c-0.2,0.5-0.3,1.1-0.4,1.7c0,0.7,0.2,1,0.1,1.3s-0.4,0.8-0.5,1.2c-0.1,0.4,0,0.8,0.1,1.2c0.2,0.4-0.1,0.8-0.3,1.2
		c-0.2,0.5-0.3,1-0.3,1.6c0.1,0.7,0.5,0.9,0.2,1.5c-0.8,1.2-0.8,2.7,0,3.9c0.2,0.3-0.4,0.9-0.5,1.8c0.1,0.8,0.3,1.5,0.7,2.1
		c0,0.2-0.3,0.1-0.3,0.3c-2.4-2.7-5.1-5.3-7.9-7.7c-1.8-1.4-3.7-2.7-5.7-3.7c-5.4-2.9-11.7-4.9-17.5-4.2c2.2,1.7,4.9,3,7.1,5
		s4,3.5,5.9,5.5c2.9,3.1,5.6,6.5,8,10c0.8,1.1,1.2,1.8,2,3s1.5,2.3,2.1,3.5c3.3,5.7,5.9,10.9,8.6,16.7c0.8,1.6,1.4,3.3,2.1,4.9
		c0.2,0.4,0.5,0.1,0.7,0c1-0.6,2-1,3-1.5c0.8-0.4,1.6-0.6,2.3-0.9c1.8-0.6,3.6-1.1,5.5-1.5c3-0.4,5.9-0.6,8.9-0.5h11.2
		c-0.1-3.1-0.9-6.1-1-9.3c-0.1-2.5-0.1-5,0-7.5C106.7,87.2,107.6,80.2,109.2,73.5z M96.5,78.9c0.2,0.6,0.5,1,0.2,1.7
		c-0.2,0.7-1,0.8-1.7,1.1s-1.7,0.5-2.2,0s-0.8-1.9-0.1-2.4C93.7,78.5,96,77.5,96.5,78.9z M88.7,91.4c-0.7,0.8-1.9,0.8-3.1,1.1
		c-0.5,0.1-1-0.2-1.2-0.7c-0.4-0.8-0.9-1.8,0-2.6s1.6-0.6,2.5-0.8c0.4-0.2,0.9-0.2,1.3,0c0.9,0.6,1.2,1.8,0.7,2.7
		C88.8,91.3,88.8,91.3,88.7,91.4z M90.2,94.4c0.3,0.8,0,1.8-0.8,2.2c-1.1,0.4-2.6,1-3.4,0.4c-0.9-0.6-1.5-2.6-0.3-3.3
		C86.9,92.7,89.6,92.1,90.2,94.4L90.2,94.4z M76.4,69c0.3-0.8,1.3-0.8,2.1-0.7c0.7,0.2,1.1,0.9,1,1.6c0,0.1-0.1,0.2-0.1,0.3
		c-0.5,0.7-1.6,0.6-2.4,0.5C76.2,70.6,76.1,69.6,76.4,69z M76.2,66.2c0-0.2,0.2-0.3,0.4-0.4c0.6-0.3,1.4-0.3,2,0
		c0.4,0.3,0.5,0.9,0.1,1.3c0,0,0,0.1-0.1,0.1c-0.6,0.5-1.5,0.6-2.2,0.2C76.1,67.1,76,66.6,76.2,66.2z M82.6,67.6
		c-0.8,0.5-1.8,0.6-2.7,0.3c-0.6-0.4-0.7-1.2-0.3-1.8c0.7-0.8,1.8-1.1,2.8-0.7c0.7,0.3,0.9,1.1,0.6,1.8
		C82.9,67.3,82.7,67.5,82.6,67.6z M83.6,68.9c0.7,0.5,0.9,1.4,0.4,2.2c-0.9,1-2.4,1.3-3.6,0.6c-0.6-0.4-0.9-2.2,0.3-2.6
		C81.6,68.5,82.6,68.5,83.6,68.9z M76.8,71.8c0.9-0.4,2.7-0.7,3,0.6c0.4,1.8-1.7,2.1-2.8,1.8C76.1,73.9,76,72.1,76.8,71.8L76.8,71.8
		z M76.7,75.8c0.8-0.8,2-1.2,3.1-0.8c0.6,0.2,0.9,0.9,0.9,1.8c0,0.4-0.3,0.8-0.6,0.9c-0.8,0.3-1.6,0.5-2.4,0.4
		c-0.8-0.2-1.3-1-1.1-1.8C76.5,76.1,76.6,76,76.7,75.8L76.7,75.8z M77.2,79.5c0.9-0.7,2-0.9,3.1-0.7c0.6,0.1,0.9,0.7,1,1.4
		c0.2,1.9-2.3,2.2-3.5,1.8c-0.8-0.5-1.1-1.6-0.6-2.4C77.2,79.6,77.2,79.5,77.2,79.5L77.2,79.5z M80.9,74.7c-0.6-1.9,1.8-2.6,3.2-2.2
		c1,0.2,1.3,2.1,0.4,2.7C83.4,75.9,81.4,76.1,80.9,74.7L80.9,74.7z M90.7,76.9c-0.6,1-2.4,1.1-3.2,1c-0.6-0.1-1-1-1-1.8
		c0-0.3,0.1-0.7,0.4-0.8c0.9-0.5,1.9-0.8,2.9-0.7c0.9,0.3,1.4,1.2,1.1,2C90.8,76.7,90.7,76.8,90.7,76.9L90.7,76.9z M91.2,78.9
		c0.5,0.6,0.5,1.5,0.1,2.1c-0.5,0.7-2.3,1-3.1,0.8c-0.5-0.1-0.7-0.7-0.8-1.1c-0.2-0.5-0.1-1.1,0.3-1.5c0.7-0.5,1.6-0.8,2.5-0.6
		C90.5,78.4,90.9,78.6,91.2,78.9L91.2,78.9z M89.8,73c-0.6,1-3.2,1.6-3.8,0.6c-0.4-0.7-0.7-1.7,0.1-2.2c0.8-0.5,1.8-0.8,2.8-0.6
		C89.7,71,90.2,72,89.8,73C89.9,72.9,89.8,72.9,89.8,73L89.8,73z M88,69.7c-0.4,0.3-1,0.6-1.5,0.7c-0.8,0.2-1.5-0.2-1.8-1
		c0-0.1,0-0.1,0-0.2c-0.2-1.4,1.3-1.6,2.3-1.8c0.6-0.1,1.2,0.3,1.3,0.9C88.4,68.9,88.3,69.4,88,69.7L88,69.7z M82,77
		c1.1-0.6,3.4-1.4,3.9,0.3c0.2,0.7,0.2,1.6-0.4,1.9c-0.9,0.5-2.3,1-3.3,0.3S81.3,77.4,82,77L82,77z M82.9,81
		c1.1-0.8,3.3-1.3,3.9,0.4c0.2,0.4,0.2,0.9,0,1.3c-0.6,1-2.2,1.3-3.2,1.1c-0.9-0.3-1.4-1.2-1.1-2.1C82.5,81.4,82.7,81.1,82.9,81
		L82.9,81z M83.8,85c0.9-0.5,2.3-1,3.3-0.4c0.6,0.5,0.8,1.3,0.6,2c-0.7,1.2-2.5,1.4-3.6,1.1c-0.8-0.4-1.1-1.5-0.7-2.3
		C83.4,85.2,83.6,85,83.8,85L83.8,85z M88.2,84.9c-0.2-0.6-0.4-1.4,0-1.8c0.9-0.7,3-1.4,3.8-0.3c0.5,0.8,0.3,1.8-0.5,2.3l0,0
		C90.6,85.6,88.8,86.2,88.2,84.9L88.2,84.9z M94.6,74.3c0.4,0,0.8,0.5,1.1,1.1c0.2,0.6,0.1,1.2-0.2,1.7c-0.5,0.4-2.2,1.4-3.3,0.8
		c-0.5-0.4-0.8-0.9-0.8-1.6C91.2,74.8,93.4,74.2,94.6,74.3z M94.1,71.8c0.3,0.5,0.3,1,0.1,1.5c-0.7,0.8-1.8,1.2-2.9,0.9
		c-0.7-0.4-0.8-1.3-0.4-2c0.7-0.8,1.7-1.1,2.7-0.9C93.8,71.3,93.9,71.6,94.1,71.8L94.1,71.8z M92.2,67.7c0.9,0.1,1.1,1.4,0.9,1.9
		c-0.2,0.4-0.5,0.7-0.9,0.9c-0.6,0.4-1.4,0.4-2.1,0.2c-0.6-0.4-0.8-1.2-0.5-1.8C90.2,68,91.2,67.5,92.2,67.7L92.2,67.7z M91.2,65.9
		c0.2,0.7-0.3,1.1-0.9,1.4s-1.4,0.6-1.8,0.2c-0.5-0.4-0.7-1.2-0.2-1.7l0.1-0.1C89.2,64.9,90.6,64.3,91.2,65.9L91.2,65.9z M88.8,62.8
		c0.4,0,0.6,0.3,0.7,0.7s-0.1,0.8-0.4,1.1c-0.4,0.3-0.9,0.4-1.4,0.5c-0.6,0-1-0.5-0.9-1.1c0-0.1,0-0.2,0.1-0.3
		C87.3,63,88,62.7,88.8,62.8L88.8,62.8z M87.3,60.8c0.4,0.1,0.6,0.4,0.5,0.8v0.1c-0.2,0.3-0.4,0.5-0.7,0.6c-0.6,0.4-1.1,0.2-1.3-0.2
		C85.4,61.3,86.6,60.5,87.3,60.8L87.3,60.8z M86.5,64.8c0.5,0.4,0.6,1.1,0.3,1.6l0,0c-0.5,0.5-1.1,0.8-1.7,0.8
		c-0.5,0.1-1-0.2-1.2-0.7c-0.1-0.4-0.1-1,0.2-1.3C84.6,64.4,85.6,64.3,86.5,64.8L86.5,64.8z M85.5,62.4c0.4,0.6-0.2,1.2-0.5,1.4
		c-0.6,0.4-1.5,0.6-1.9,0c-0.3-0.5-0.1-1.2,0.4-1.5c0.1,0,0.1-0.1,0.2-0.1c0.5-0.3,1.2-0.7,1.7,0.2L85.5,62.4z M82.1,60.4
		c0.3-0.7,1.2-1.1,1.9-0.8c0.2,0.1,0.4,0.3,0.5,0.6c0.1,0.5-0.1,1-0.5,1.2c-0.4,0.4-1.1,0.5-1.6,0.3s-0.7-0.7-0.5-1.2v-0.1H82.1z
		 M82.4,63.4c-0.1,0.5-0.6,0.9-1.1,1c-0.6,0.1-1.4,0.2-1.8-0.2c-0.4-0.3-0.4-0.8-0.2-1.2c0.5-0.7,1.4-1,2.3-0.9
		C82.1,62.2,82.5,62.8,82.4,63.4L82.4,63.4L82.4,63.4z M78.7,60.5c0.3-0.8,1.2-1.3,2-1l0,0c0.5,0.3,0.7,0.9,0.4,1.3
		C81,60.9,81,61,80.9,61.1c-0.3,0.3-0.6,0.4-1,0.5C79.1,61.8,78.3,61.4,78.7,60.5L78.7,60.5z M78.2,64.8c-0.7,0.2-1.8,0.3-2-0.5
		c-0.4-1.3,1.2-1.5,2.1-1.2c0.4,0.3,0.6,0.8,0.3,1.3C78.5,64.6,78.3,64.7,78.2,64.8L78.2,64.8z M76.1,61.5c0.1-0.2,0.3-0.4,0.5-0.5
		c0.4-0.1,0.8-0.1,1.1,0c0.7,0.3,0.6,1.1-0.1,1.4c-0.3,0.1-0.7,0.2-1.1,0.1c-0.4-0.1-0.7-0.4-0.6-0.9c0-0.1,0-0.1,0.1-0.2L76.1,61.5
		z M74,63c0.5-0.2,1.1-0.1,1.5,0.2c0.5,0.5,0.1,1.3-0.8,1.3c-0.3,0-0.6-0.1-0.9-0.2c-0.3-0.2-0.4-0.7-0.2-1.1
		c0.1-0.1,0.1-0.2,0.2-0.2L74,63z M73.4,65.3c0.6-0.2,1.3-0.2,1.8,0.1c0.3,0.2,0.5,0.5,0.4,0.9C75.5,66.7,75,67,74.4,67
		c-0.5,0-1.1,0-1.4-0.5c-0.3-0.4-0.2-1,0.2-1.3L73.4,65.3z M75.4,68.1c0.3,0.1,0.4,0.4,0.5,0.6c0.1,0.7,0,1.4-0.7,1.5
		c-1,0.2-2.4,0.2-2.4-1.1C72.7,67.6,74.2,67.6,75.4,68.1L75.4,68.1z M72.6,71.2c0.9-0.4,2.4-0.5,3,0.4c0.4,0.6,0.3,1.7-0.4,1.9
		s-2.6,0.5-3.1-0.6C71.8,72.3,72,71.6,72.6,71.2z M72,74.9c0.8-0.8,1.9-0.4,2.9-0.3c0.2,0,0.4,0.1,0.6,0.3c0.6,0.6,0.7,1.6,0.1,2.2
		l-0.1,0.1c-0.9,0.7-2,0.2-3,0.2c-0.3-0.1-0.5-0.3-0.7-0.6C71.5,76.2,71.6,75.5,72,74.9L72,74.9z M72,79.3c0.5-1.2,2.5-1.2,3.5-0.7
		c0.7,0.5,0.9,1.6,0.4,2.3c-0.1,0.1-0.2,0.3-0.4,0.4c-0.9,0.4-1.9,0.4-2.8,0.2C71.7,81.3,71.6,80.1,72,79.3L72,79.3z M72.7,84.4
		c-0.4-0.4-0.3-1,0.1-1.4c0.1-0.1,0.1-0.1,0.2-0.2c1-0.4,2.1-0.5,3.1-0.2c0.6,0.2,0.9,1,0.8,1.9c0,0.4-0.1,0.8-0.3,0.9
		c-0.8,0.4-1.7,0.5-2.6,0.3C73.3,85.6,73.1,84.8,72.7,84.4L72.7,84.4z M76.8,89.4C76,88.7,75.4,87.9,75,87c-0.2-0.2,0-0.3,0.1-0.3
		c1.5-0.4,2.6,0.3,2.4,2C77.4,89,77.2,89.7,76.8,89.4L76.8,89.4z M77.8,83.9c0.1-0.4,0.5-0.6,0.9-0.7c1-0.2,2.1-0.6,3,0
		c0.4,0.2,0.4,0.5,0.4,1c0.1,0.7,0,1.3-0.5,1.6c-0.9,0.5-2,0.6-3,0.4C77.7,85.9,77.6,84.7,77.8,83.9L77.8,83.9z M79,87.5
		c1.2-0.8,3.5-1.4,3.9,0.8c0.2,0.7-0.2,1.5-0.9,1.8c-0.9,0.4-1.8,0.5-2.8,0.3c-0.8-0.5-1.1-1.5-0.6-2.3C78.8,87.8,78.9,87.6,79,87.5
		L79,87.5z M78.7,92.5c-0.1-0.2-0.2-0.6-0.1-0.8c1-0.6,2.2-0.9,3.4-0.7c1.4,0.1,1.7,1.4,1.5,2.5C83.2,95,81,95.2,80.4,95
		S79.4,93.4,78.7,92.5L78.7,92.5z M81.4,96.9c-0.1-0.2-0.4-0.8-0.2-0.9c1.8-0.6,3.2-0.6,3.5,1.3c0.3,1.4-0.7,2.6-2,2.1
		C82.3,99.2,81.9,97.8,81.4,96.9L81.4,96.9z M85.1,103.7c-1-0.8-1.1-2.2-1.8-3.2c0.7-0.5,1.8-0.3,2.3,0.4c0,0.1,0.1,0.1,0.1,0.2
		c0.3,0.8,0.5,1.9-0.2,2.4C85.4,103.6,85.2,103.8,85.1,103.7L85.1,103.7z M86.6,107.2c-0.4-0.2-0.4-0.8-0.6-1.1
		c-0.2-0.4-0.5-0.8-0.4-1.3C86.4,105.3,86.8,106.3,86.6,107.2L86.6,107.2z M88.5,104.4c-0.1,0.6-0.3,1.1-0.5,1.7
		c-0.1,0.3-0.3-0.1-0.3-0.1c-0.4-0.8-0.5-1.7-0.3-2.6c0.3-0.5,0.8-0.9,1.4-0.9C88.8,103.2,88.7,103.8,88.5,104.4L88.5,104.4z
		 M90.1,98.7c-0.3,0.8-0.4,1.4-0.7,2.1s-1.5,0.9-2.2,0.7c-1-0.3-1.8-2.5-0.7-3.3c0.8-0.5,1.8-0.9,2.8-0.9c0.3,0,0.6,0,0.9,0.1
		C90.4,97.8,90.3,98.1,90.1,98.7L90.1,98.7z M91.6,93.7c-0.3,0.4-1-1-1.1-1.6c-0.3-1.8,1.3-2.3,2.7-2.3C93,91.2,92.4,92.6,91.6,93.7
		L91.6,93.7z M93.8,88.1c-0.4,1.1-1.6,1.2-2.6,1.4c-0.4,0-0.7,0-1-0.3c-0.5-0.4-0.8-1.1-0.7-1.7c0.1-0.5,0.4-0.9,0.9-1.1
		c0.8-0.3,1.8-0.9,2.7-0.4C93.7,86.5,94,87.4,93.8,88.1z M97.2,82.8c-0.6,1-1.2,1.9-1.8,2.8c-0.3,0.3-0.9,0.3-1.2,0
		c-0.1-0.1-0.1-0.1-0.1-0.2c-0.4-0.6-0.9-1.3-0.5-1.9c0.9-1,2.2-1.5,3.5-1.3C97,82.1,97.4,82.4,97.2,82.8L97.2,82.8z"/>
	<path class="st0" d="M35.1,47.7c-1.7,1.5-3,3.3-4,5.2c-1,1.7-1.6,3.5-1.9,5.4c4.3-1.7,7.9-5,11.1-8.8c2.4-2.8,4.2-6.4,6.6-9.2
		C42.5,41.9,38.4,44.4,35.1,47.7z"/>
	<path class="st0" d="M22.6,53.6c1.7-2.9,3.9-5.6,6.4-7.8c-1.1,2.5-2.5,5-3,8c-1,6-1.8,10.2-2.8,15.6c2.7-1.9,5.6-5,8.4-7.1
		c2.2-1.6,4.5-2.7,6.7-4.3c1.2-1,2.4-2.1,3.4-3.3c-1.3,5.7-6.3,11.4-9.9,14.1c-4.5,3.4-6.1,3.9-13.3,11.2
		C17.7,71.1,17.9,61.7,22.6,53.6z"/>
	<path class="st0" d="M8,83.6c0.3-4.4,0.9-8.7,2-13c0.8-3.2,2.5-8,5-9.9c-0.3,1.3-0.5,2.7-0.6,4.1c-0.5,4.8,0.4,10.4,0.5,15.3
		c0.1,2.1,0,4.3-0.3,6.4c-0.2,1.7-0.2,3.5-0.1,5.2c0.9-1,1.7-2.1,2.4-3.3c1.5-2.6,3.3-5.1,5.3-7.3c2.6-2.7,5.4-5.2,8.5-7.3
		c-0.7,1.9-1.6,3.8-2.7,5.5c-0.9,1.6-1.3,3-3.4,6.5c-3,4.9-4.3,5.6-7.6,10.9c-0.7,1.1-3.6,5.5-4.3,6.8c-1.5-3.2-2.1-6-4-11.2
		C7.9,89.5,7.6,86.6,8,83.6z"/>
	<path class="st0" d="M3.4,108c-1.6-4.4-2.7-9.1-3.2-13.8C-0.3,90.9,0,87.6,1,84.4c0.3,0.7,0.8,2.5,0.9,2.7c0.6,2.2,1.3,4.4,2.2,6.5
		c0.9,1.9,1.9,3.7,3,5.5c1,1.9,1.8,3.9,2.6,5.9c2.3,5.7,2.5,11.1,3.4,11.7c0.5-1.1,0.8-2.2,0.9-3.4c0.7-6.4,1.5-12.1,9.5-19.6
		c0.7,2.2,0.4,6.3-0.1,8.5c-0.7,4.1-2,8.1-3.9,11.8c-1.1,2.5-2.6,6.1-3,7.3c-1.1,3.1-1.4,4.7-2.1,6.6C10.8,121.7,6.1,115.1,3.4,108z
		"/>
	<path class="st0" d="M9.6,137c-2.2-3-4-6.2-5.4-9.6C3,124.8,2,122,1.4,119.1c-0.5-1.6-0.6-3.4-0.4-5.1c2.1,3.8,3.5,8.1,6.3,11.2
		c2.2,2.5,4.3,4.6,6,6.8c2.7,3.3,4.8,6.3,7.3,9.7c0.3-2.1,0.2-4.1-0.1-6.2c-0.4-3.5-0.3-7.1,0.5-10.6c0.7-4,1.7-7.9,3.1-11.7
		c2,3.9,2,8.4,2.5,12.5c1,8-1.5,17.6-2,21.6c-0.1,1.6,0,3.1,0.1,4.6c-3.6-2.9-7.1-5.9-10.3-9.2C12.7,140.9,11.1,139,9.6,137z"/>
	<path class="st0" d="M23.8,166.4c-1.7-1.2-6.3-4.7-8.5-7.5c-3.2-4-3.9-5.7-6-10.4c-0.8-1.6-1.3-3.3-1.5-5c6.8,8.2,13,9.5,19.5,16.3
		c2.4,2.5,4.8,4.9,6.1,6.1c0.6,0.6,1.4,1,2.3,1.2c-0.1-1-0.3-2.1-0.8-3c-4.3-8.3-5.2-17-4.5-26.3c1.5,2,2.8,4.2,3.9,6.5
		c1,1.9,1.9,3.8,2.7,5.8c3.7,9.3,4.7,20,7,25.4C36.9,173,31.3,171.8,23.8,166.4z"/>
	<path class="st0" d="M53,188.2c-2.6,0.2-5.1,0.1-7.7-0.2c-10.2-1.6-19.6-9-24.4-17.1c3.5,2.3,7.3,4.2,11.2,5.7
		c3.4,1.2,6.6,1.5,12.2,3.1c3.4,1,6.8,2.3,7.9,2.8c3.8,1.4,5.4,1.1,5.4,1.1s0-0.6-1.4-2.1c-2.8-3.1-3.8-3.8-6.2-6.1
		c-1.3-1.6-2.4-3.3-3.4-5.2c-2.5-5-2.8-8.9-5-14.4c8.3,4.9,12.4,11.6,16.8,20.1c1.3,2.6,2.9,5.1,4.8,7.3c1.1,1.1,2.7,2.8,2.7,2.8
		s-1.2,0.3-4.8,0.8C59.5,186.9,56.1,188,53,188.2z"/>
	<path class="st0" d="M93.2,188.9c4.2,0.7,8.3,1.7,12.3,3.2c1.3,0.5,2.6,1.1,3.8,1.8c2.4,1.2,4.7,2.5,6.9,4c3.9,2.7,8.1,5.6,11.9,10
		c0.1,0.1,0.7,0.7,0.3,1.1c-0.7,0.6-2.6,1.4-3.2,0.9c-3.5-3.1-3.3-4.1-7.5-7.9c-1.5-1.3-3-2.5-4.7-3.7c-2-1.4-4.1-2.7-6.3-3.8
		c-2.1-0.9-4.3-1.3-6.6-1.2l0,0c-0.8,0-5.1-0.1-6.2,0c-8.6,0.6-8.2,1.4-13.1,2.7c-4.2,1.1-8.5,1.9-12.8,2.5
		c-4.2,0.6-8.4,0.7-12.6,0.2c-5.7-0.6-11.8-2.2-16.5-5.1c4.2,0.1,8.6,0.9,12.8,0.6c2.2-0.1,4.4-0.5,6.6-1c3.9-1.2,6.1-1.6,10.2-2.8
		c3.5-0.9,7.1-1.4,10.7-1.7C83.9,188,88.6,188.1,93.2,188.9z"/>
	<path class="st0" d="M171.9,47.7c1.7,1.5,3,3.3,4,5.2c1,1.7,1.6,3.5,1.9,5.4c-4.4-1.7-7.9-5-11.1-8.8c-2.4-2.8-4.2-6.4-6.6-9.2
		C164.5,41.9,168.6,44.4,171.9,47.7z"/>
	<path class="st0" d="M184.4,53.6c-1.7-2.9-3.9-5.6-6.4-7.8c1.1,2.7,2.8,6.1,3,8c0.6,6,1.8,10.2,2.8,15.6c-2.7-1.9-5.6-5-8.4-7.1
		c-2.2-1.6-4.4-2.7-6.7-4.3c-1.2-1-2.4-2.1-3.4-3.3c1.4,5.7,6.3,11.4,9.9,14.1c4.5,3.4,6.1,3.9,13.3,11.2
		C189.3,71.1,189.2,61.7,184.4,53.6z"/>
	<path class="st0" d="M199.1,83.6c-0.3-4.4-0.9-8.7-2-13c-0.8-3.2-2.5-8-5-9.9c0.3,1.3,0.5,2.7,0.6,4.1c0.5,4.8-0.4,10.4-0.6,15.3
		c-0.1,2.1,0,4.3,0.3,6.4c0.2,1.7,0.2,3.5,0.1,5.2c-0.9-1-1.7-2.1-2.4-3.3c-2.5-4-3.3-5.1-5.3-7.3c-2.5-2.7-5.4-5.2-8.4-7.3
		c0.7,1.9,1.6,3.8,2.7,5.5c0.9,1.6,1.3,3,3.4,6.5c3,4.9,4.3,5.6,7.6,10.9c0.7,1.1,3.6,5.5,4.3,6.8c1.5-3.2,2.1-6,4-11.2
		C199.1,89.5,199.4,86.6,199.1,83.6z"/>
	<path class="st0" d="M203.6,108c1.7-4.4,2.7-9.1,3.2-13.8c0.4-3.3,0.1-6.6-0.9-9.8c-0.3,0.7-0.9,2.5-0.9,2.7
		c-0.6,2.2-1.3,4.4-2.2,6.5c-0.9,1.9-1.9,3.7-3,5.5c-1,1.9-1.8,3.9-2.6,5.9c-2.3,5.7-2.5,11.1-3.4,11.7c-0.5-1.1-0.8-2.2-0.9-3.4
		c-0.7-6.4-1.5-12.1-9.5-19.6c-0.7,2.2-0.4,6.3,0.1,8.5c0.7,4.1,2,8.1,3.9,11.8c1.1,2.5,2.6,6.1,3,7.3c1.1,3.1,1.4,4.7,2.1,6.6
		C196.2,121.7,200.9,115.1,203.6,108z"/>
	<path class="st0" d="M197.4,137c2.2-3,4-6.2,5.4-9.6c1.3-2.6,2.2-5.4,2.8-8.3c0.5-1.6,0.6-3.4,0.4-5.1c-2.1,3.8-3.6,8.1-6.3,11.2
		c-2.2,2.5-4.3,4.6-6,6.8c-2.7,3.3-4.8,6.3-7.3,9.7c-0.3-2.1-0.2-4.1,0.1-6.2c0.4-3.5,0.3-7.1-0.5-10.6c-0.7-4-1.7-7.9-3.1-11.7
		c-2,3.9-2,8.4-2.5,12.5c-1,8,1.6,17.6,2,21.6c0.1,1.6,0,3.1-0.1,4.6c3.6-2.9,7.1-5.9,10.3-9.2C194.3,140.9,195.9,139,197.4,137z"/>
	<path class="st0" d="M183.2,166.4c1.7-1.2,6.3-4.7,8.5-7.5c3.2-4,3.9-5.7,5.9-10.4c0.8-1.6,1.3-3.3,1.5-5
		c-6.8,8.2-13,9.5-19.5,16.3c-2.4,2.5-4.8,4.9-6.1,6.1c-0.6,0.6-1.4,1-2.2,1.2c0.1-1,0.3-2.1,0.8-3c4.4-8.3,5.2-17,4.5-26.3
		c-1.5,2-2.8,4.2-3.9,6.5c-1,1.9-1.9,3.8-2.7,5.8c-3.7,9.3-4.7,20-7,25.4C170.1,173,175.7,171.8,183.2,166.4z"/>
	<path class="st0" d="M154.1,188.2c2.6,0.2,5.1,0.1,7.7-0.2c10.2-1.6,19.6-9,24.4-17.1c-3.5,2.3-7.3,4.2-11.2,5.7
		c-3.4,1.2-6.6,1.5-12.2,3.1c-3.4,1-6.8,2.3-7.9,2.8c-3.8,1.4-5.4,1.1-5.4,1.1s0-0.6,1.4-2.1c2.8-3.1,3.8-3.8,6.1-6.1
		c1.3-1.6,2.4-3.3,3.4-5.2c2.5-5,2.8-8.9,5.1-14.4c-8.3,4.9-12.4,11.6-16.8,20.1c-1.3,2.6-2.9,5.1-4.9,7.3c-1.1,1.1-2.7,2.8-2.7,2.8
		s1.2,0.3,4.8,0.8C147.4,186.9,150.9,188,154.1,188.2z"/>
	<path class="st0" d="M113.8,188.9c-4.2,0.7-8.3,1.7-12.2,3.2c-1.3,0.5-2.6,1.1-3.8,1.8c-2.4,1.2-4.7,2.5-6.9,4
		c-3.9,2.7-8.1,5.6-11.9,10c-0.1,0.1-0.7,0.7-0.3,1.1c0.7,0.6,2.6,1.4,3.2,0.9c3.5-3.1,3.3-4.1,7.5-7.9c1.5-1.3,3-2.5,4.7-3.7
		c2-1.4,4.1-2.7,6.3-3.8c2.1-0.8,4.3-1.3,6.6-1.2l0,0c0.8,0,5.1-0.1,6.1,0c8.6,0.6,8.2,1.4,13.1,2.7c4.2,1.1,8.5,1.9,12.8,2.5
		c4.2,0.6,8.4,0.7,12.6,0.2c5.6-0.6,11.8-2.2,16.4-5.1c-4.2,0.1-8.6,0.9-12.8,0.6c-2.2-0.1-4.4-0.5-6.6-1c-3.9-1.2-6.1-1.6-10.2-2.8
		c-3.5-0.9-7.1-1.4-10.7-1.7C123.2,188,118.4,188.1,113.8,188.9z"/>
	<path class="st0" d="M98.4,0l-7.7,28.7h-8.2L77.3,10l-5,18.7h-8.2L56.4,0h7.7l4.4,19.8L73.8,0h7.4l5,19.8L90.8,0H98.4z"/>
	<path class="st0" d="M123.8,5.5h-13.2v5.3h12.2v5.5h-12.2v12.3h-7.4V0h20.6V5.5z"/>
	<path class="st0" d="M152.6,9.1c0,1.3-0.2,2.6-0.7,3.8c-0.4,1.2-1.1,2.2-1.9,3.1c-1.1,1.1-2.4,2-3.8,2.6c-1.7,0.6-3.5,0.9-5.2,0.9
		h-4.6v9.3H129V0h12.2c1.6,0,3.1,0.1,4.6,0.5c1.2,0.3,2.3,0.8,3.3,1.4c1.1,0.7,2,1.7,2.6,2.9C152.4,6.1,152.7,7.6,152.6,9.1z
		 M145,9.2c0-0.7-0.2-1.5-0.6-2.1c-0.4-0.5-0.9-1-1.5-1.2c-0.7-0.3-1.5-0.5-2.3-0.5c-0.7,0-1.7,0-2.9,0h-1.3V14h2.1
		c1,0,2.1-0.1,3.1-0.2c0.8-0.1,1.5-0.5,2.1-0.9c0.5-0.4,0.8-0.9,1-1.5C144.9,10.6,145,9.9,145,9.2L145,9.2z"/>
</g>
</svg>
