<?xml version="1.0" encoding="UTF-8" standalone="no"?>
<!DOCTYPE svg PUBLIC "-//W3C//DTD SVG 1.1//EN" "http://www.w3.org/Graphics/SVG/1.1/DTD/svg11.dtd">
<svg
    xmlns:svg="http://www.w3.org/2000/svg"
    xmlns="http://www.w3.org/2000/svg"
    version="1.1"
    width="300"
    height="90"
    id="svg2995">
  <defs id="defs2999" />
  <path
      d="m 173.64359,46.71875 0,0.4375 c 1.10444,0 1.66913,0.215654 2.4875,0.627088 l 0,11.279162 c 0,2.472211 -0.35566,2.949738 -2.4875,3.09375 l 0,0.4375 6.0274,0 0,-0.4375 c -1.97773,-0.09601 -2.42372,-0.669543 -2.42372,-3.09375 l 0,-10.122912 11.35321,13.935412 0.44647,0 0,-12.625 c 0,-1.440123 0.24548,-2.344223 0.7335,-2.65625 0.35958,-0.240021 0.7142,-0.341492 1.69022,-0.4375 l 0,-0.4375 -6.0274,0 0,0.4375 c 0.97602,0.07201 1.33684,0.190232 1.72211,0.40625 0.5137,0.336029 0.76539,1.199373 0.76539,2.6875 l 0,8.0625 -9.08201,-11.59375 z m -51.06102,-0.3125 -4.90782,11.8125 c -1.51482,3.504299 -1.80271,3.889496 -2.93882,3.9375 l 0,0.4375 4.67272,0 0,-0.4375 c -1.13611,0 -1.58696,-0.327943 -1.58696,-1 0,-0.288025 0.058,-0.625473 0.17633,-0.9375 l 1.08736,-2.8125 6.2009,0 0.96981,2.3125 c 0.28403,0.648055 0.44083,1.257721 0.44083,1.59375 0,0.600051 -0.39128,0.819748 -1.64574,0.84375 l 0,0.4375 6.02457,0 0,-0.4375 c -1.0651,-0.07201 -1.28753,-0.317598 -2.11595,-2.09375 l -5.90702,-13.65625 -0.47021,0 z m -0.38204,3.4375 2.76248,6.59375 -5.4662,0 2.70372,-6.59375 z m 8.89086,-3.422542 -0.95372,4.440259 0.55604,0 c 0.57213,-2.598433 1.54631,-3.058244 4.21626,-3.058244 l 1.2789,0 0,11.927149 c 0,2.026301 -0.24556,2.299598 -2.22417,2.418793 l 0,0.444835 6.95055,0 0,-0.444835 c -1.95479,-0.09536 -2.27978,-0.400536 -2.27978,-2.140771 l 0,-12.205171 1.2789,0 c 2.71762,0 3.2328,0.435972 3.7811,3.058244 l 0.58385,0 0.25063,-4.564235 c -0.96905,0.179744 -0.30624,0.493411 -6.65103,0.493411 -6.55696,0 -5.93411,-0.03345 -6.78753,-0.369435 z m 14.64437,0.297542 0,0.4375 c 2.13932,0.12001 2.4375,0.380098 2.4375,2.15625 l 0,10.65625 c 0,1.800154 -0.32334,2.115494 -2.4375,2.1875 l 0,0.4375 7.46875,0 0,-0.4375 c -2.06382,-0.07201 -2.46875,-0.43535 -2.46875,-2.1875 l 0,-10.65625 c 0,-1.75215 0.35459,-2.060242 2.46875,-2.15625 l 0,-0.4375 -7.46875,0 z m -44.73545,0 -0.5,4.09375 0.625,0 c 0.22652,-1.1761 0.44714,-1.652207 0.875,-2.15625 0.57888,-0.696059 1.71388,-1.03125 3.375,-1.03125 l 5.5625,0 -10.999998,14.625 0,0.34375 14.187498,0 0.59375,-4.21875 -0.5625,0 c -0.42786,1.344115 -0.68413,1.846955 -1.1875,2.375 -0.60404,0.600051 -1.72164,0.9375 -3.15625,0.9375 l -6.46875,0 10.875,-14.625 0,-0.34375 -13.21875,0 z m -9.66067,0 0,0.4375 c 2.13932,0.12001 2.4375,0.380098 2.4375,2.15625 l 0,10.65625 c 0,1.800154 -0.32334,2.115494 -2.4375,2.1875 l 0,0.4375 7.46875,0 0,-0.4375 c -2.06382,-0.07201 -2.46875,-0.43535 -2.46875,-2.1875 l 0,-10.65625 c 0,-1.75215 0.35459,-2.060242 2.46875,-2.15625 l 0,-0.4375 -7.46875,0 z m -18.674793,0 0,0.4375 c 1.104446,0 1.669134,0.215654 2.4875,0.627088 l 0,11.279162 c 0,2.472211 -0.355662,2.949738 -2.4875,3.09375 l 0,0.4375 6.027403,0 0,-0.4375 C 76.714521,62.06024 76.268532,61.486707 76.268532,59.0625 l 0,-10.122912 11.353204,13.935412 0.446474,0 0,-12.625 c 0,-1.440123 0.245483,-2.344223 0.733494,-2.65625 0.359587,-0.240021 0.714202,-0.341492 1.690224,-0.4375 l 0,-0.4375 -6.027403,0 0,0.4375 c 0.976022,0.07201 1.336843,0.190232 1.722115,0.40625 0.513696,0.336029 0.765385,1.199373 0.765385,2.6875 l 0,8.0625 -9.082002,-11.59375 z m -50.071097,0 0,0.4375 c 1.720174,0.192016 1.936478,0.452104 1.936478,2.15625 l 0,10.40625 c 0,1.99217 -0.216304,2.293488 -1.936478,2.4375 l 0,0.4375 6.350507,0 0,-0.4375 c -1.766045,-0.12001 -2.078865,-0.459352 -2.078865,-2.1875 l 0,-4.71875 2.3963,-0.170601 4.352894,7.514351 3.702089,0 0,-0.4375 C 36.44512,62.084244 35.988377,61.81607 35.323243,61 L 31.47188,54.579169 c 1.719113,-0.617167 3.228206,-1.919415 3.253333,-3.641669 0,-1.032088 -0.28648,-1.928941 -0.882806,-2.625 -0.871555,-0.984084 -2.770676,-1.59375 -4.926627,-1.59375 z m 5.439224,0.875 c 2.866956,0 4.214686,1.025057 4.214686,3.28125 0,1.200103 -0.484286,2.231461 -1.30997,2.6875 -1.05504,0.624053 -1.870476,0.764496 -4.072298,0.8125 l 0,-5.90625 c 0,-0.672057 0.250155,-0.875 1.167582,-0.875 z m 35.376167,-1.1875 -4.907824,11.8125 c -1.514817,3.504299 -1.802704,3.889496 -2.938817,3.9375 l 0,0.4375 4.672719,0 0,-0.4375 c -1.136113,0 -1.586961,-0.327943 -1.586961,-1 0,-0.288025 0.05799,-0.625473 0.176329,-0.9375 l 1.087362,-2.8125 6.200903,0 0.96981,2.3125 c 0.284028,0.648055 0.440822,1.257721 0.440822,1.59375 0,0.600051 -0.39128,0.819748 -1.645737,0.84375 l 0,0.4375 6.024574,0 0,-0.4375 C 70.837216,62.08424 70.614788,61.838652 69.786373,60.0625 l -5.907022,-13.65625 -0.47021,0 z m -0.382046,3.4375 2.762487,6.59375 -5.466199,0 2.703712,-6.59375 z M 163.47108,46.375 c -4.99314,0 -8.56912,3.456838 -8.56912,8.28125 0,2.256193 0.86044,4.451631 2.27212,5.84375 1.51623,1.512129 3.8342,2.4375 6.13471,2.4375 5.14999,0 8.69895,-3.363088 8.69895,-8.1875 0,-2.376203 -0.76938,-4.403627 -2.20719,-5.84375 -1.64696,-1.656141 -3.81983,-2.53125 -6.32947,-2.53125 z m -0.5518,0.875 c 0.17462,-0.01646 0.37208,0 0.5518,0 1.20253,0 2.40214,0.419434 3.34326,1.1875 1.41167,1.1761 2.20719,3.425006 2.20719,6.28125 0,1.416121 -0.32108,3.064393 -0.84392,4.3125 -0.23529,0.600051 -0.69708,1.229203 -1.29836,1.78125 -0.91497,0.840072 -2.08756,1.25 -3.47309,1.25 -1.20253,0 -2.36336,-0.412186 -3.27833,-1.15625 -1.35939,-1.104094 -2.23966,-3.554522 -2.23966,-6.21875 0,-2.448209 0.75218,-4.746904 1.85015,-5.875 0.8921,-0.903077 1.95861,-1.447318 3.18096,-1.5625 z M 46.922339,46.375 c -4.751284,0 -8.141089,3.541082 -8.141089,8.4375 0,2.352201 0.645919,4.146379 1.976279,5.5625 1.591679,1.656141 3.876067,2.5625 6.489273,2.5625 2.043052,0 5.008076,-0.847428 5.958333,-1.6875 l 0,-4.158338 c 0,-1.416121 0.273943,-1.72374 1.651815,-1.84375 l 0,-0.4375 -6.046823,0 0,0.4375 c 1.021526,0.07201 1.307745,0.151734 1.592822,0.34375 0.356346,0.216018 0.501444,0.749162 0.501444,1.78125 l 0,3.189588 c 0,0.768066 -1.445685,1.40625 -3.156147,1.40625 -3.872296,0 -6.2533,-2.723119 -6.2533,-7.1875 0,-2.256193 0.665526,-4.4489 1.710809,-5.625 1.045282,-1.1761 2.514101,-1.8125 4.129537,-1.8125 1.33036,0 2.495117,0.448426 3.421617,1.3125 0.712692,0.672057 1.037633,0.978701 1.522054,1.586813 l 0.560437,0 -0.04722,-3.868063 -0.501443,0 c -0.142539,0.456039 -0.592493,0.78125 -1.091378,0.78125 -0.237564,0 -0.604769,-0.05074 -1.032385,-0.21875 C 49.097936,46.577469 47.991376,46.375 46.922338,46.375 z M 10.981035,44.940068 c -5.4315021,0 -9.2989684,3.755434 -9.2989684,8.997379 0,2.451458 0.9099923,4.824684 2.4456003,6.337286 1.6493567,1.642997 4.1802727,2.660095 6.6827451,2.660095 5.602125,0 9.469592,-3.651116 9.469592,-8.893063 0,-2.581854 -0.824681,-4.798604 -2.388726,-6.363364 -1.791542,-1.799474 -4.180273,-2.738333 -6.910243,-2.738333 m 0,0.938857 c 1.308111,0 2.616225,0.46943 3.639963,1.303968 1.535608,1.277888 2.417164,3.729352 2.417164,6.832793 0,1.538681 -0.369685,3.338159 -0.938428,4.694285 -0.255935,0.651983 -0.739369,1.303969 -1.393424,1.903793 -0.995302,0.912776 -2.274978,1.382206 -3.782149,1.382206 -1.3081107,0 -2.5877876,-0.469429 -3.5830891,-1.277889 -1.4787336,-1.199648 -2.4171631,-3.833669 -2.4171631,-6.728474 0,-2.660093 0.7962431,-5.189795 1.990605,-6.415523 1.1090502,-1.121412 2.5024763,-1.695159 4.0665212,-1.695159"
      id="path4697-8"
      style="fill:#000000;fill-opacity:1;stroke:none;"
  />
  <path
      d="m 126.94975,22.655403 0,0.486177 c 1.70737,0.194579 1.92626,0.460898 1.92626,2.187794 l 0,10.513567 c 0,2.018766 -0.21889,2.315334 -1.92626,2.461268 l 0,0.455791 6.28258,0 0,-0.455791 c -1.7529,-0.121612 -2.0448,-0.436576 -2.0448,-2.187794 l 0,-4.800993 2.04831,-0.03039 4.64915,7.474964 3.67472,0 0,-0.455791 c -0.86507,-0.07297 -1.32535,-0.297318 -1.98553,-1.124283 L 135.64701,30.8523 c 1.90771,-0.522713 3.3347,-1.839482 3.36411,-3.91247 0,-1.045867 -0.29716,-1.938233 -0.88905,-2.643585 -0.86507,-0.997222 -2.74983,-1.640846 -4.88974,-1.640846 z m 5.42317,0.911581 c 2.84562,0 4.14887,1.05615 4.14887,3.342464 0,1.216123 -0.48439,2.242229 -1.30393,2.704356 -1.04719,0.632385 -1.84489,0.771778 -4.03033,0.820423 l 0,-5.986048 c 0,-0.681029 0.27479,-0.881195 1.18539,-0.881195 z m 47.09335,-0.91158 0,0.45579 c 1.53951,0.145935 1.81452,0.485221 1.81452,2.187794 l 0,10.787041 c 0,1.702574 -0.29581,2.066182 -1.81452,2.187795 l 0,0.486176 11.23916,0 0.92081,-4.1325 -0.56873,0 c -1.04022,2.626828 -1.9269,3.220919 -4.9019,3.220919 l -0.56873,0 c -1.01941,0 -1.88555,-0.133603 -2.03118,-0.30386 -0.10402,-0.07297 -0.16249,-0.315783 -0.16249,-0.729265 l 0,-6.016434 3.22279,0 c 1.70595,0 2.00446,0.320958 2.27492,2.339724 l 0.48748,0 0,-5.651802 -0.48748,0 c -0.14563,0.997222 -0.23155,1.361103 -0.4604,1.701618 -0.27046,0.413483 -0.83671,0.607721 -1.81452,0.607721 l -3.22279,0 0,-5.408714 c 0,-0.681029 0.14242,-0.820423 0.70414,-0.820423 l 2.78948,0 c 2.35087,0 2.81496,0.363404 3.16863,2.552427 l 0.51456,0 -0.0542,-3.464007 -11.04959,0 z m -19.53748,0 0,0.45579 c 1.89646,0.170257 2.125,0.387931 2.125,2.187794 l 0,10.787041 c 0,1.751219 -0.30056,2.066182 -2.125,2.187795 l 0,0.486176 6.8125,0 c 2.78467,0 5.32414,-0.825735 6.8125,-2.187794 1.56038,-1.435027 2.4375,-3.596382 2.4375,-5.955662 0,-2.189024 -0.71093,-4.070978 -2.03125,-5.408714 -1.63239,-1.678251 -4.27371,-2.552426 -7.5625,-2.552426 l -6.46875,0 z m 5.8125,0.881194 c 2.0645,0 3.62897,0.388477 4.78125,1.215442 1.87245,1.313413 2.84375,3.419992 2.84375,6.04682 0,2.870052 -0.96178,4.903664 -2.90625,6.04682 -1.22429,0.705352 -2.63025,1.002739 -4.71875,1.002739 -0.96023,0 -1.25,-0.22442 -1.25,-1.002739 l 0,-12.336729 c 0,-0.753996 0.26576,-0.972353 1.25,-0.972353 z m -15.89766,-1.185055 -4.63493,11.94171 c -1.43316,3.551083 -1.72359,3.931926 -2.79846,3.980571 l 0,0.486176 4.43089,0 0,-0.486176 c -1.07487,0 -1.51583,-0.291324 -1.51583,-0.972353 0,-0.291871 0.063,-0.656161 0.1749,-0.972353 l 1.04942,-2.825901 5.85927,0 0.90366,2.339724 c 0.26872,0.656707 0.43726,1.269945 0.43726,1.61046 0,0.608062 -0.3873,0.7961 -1.57413,0.820423 l 0,0.486176 5.71351,0 0,-0.486176 c -1.00769,-0.07297 -1.22764,-0.296773 -2.01139,-2.096637 l -5.56775,-13.825644 -0.46642,0 z m -0.3498,3.464008 2.59439,6.684927 -5.15964,0 2.56525,-6.684927 z m -64.094618,-3.15978 0,0.486177 c 1.896457,0.170257 2.125,0.387931 2.125,2.187794 l 0,10.787041 c 0,1.751218 -0.300562,2.066182 -2.125,2.187794 l 0,0.455791 6.84375,0 c 2.78467,0 5.292891,-0.795349 6.78125,-2.157409 1.560378,-1.435026 2.437498,-3.59638 2.437498,-5.955662 0,-2.189023 -0.71093,-4.070976 -2.031248,-5.408713 -1.632393,-1.678251 -4.242458,-2.582813 -7.53125,-2.582813 l -6.5,0 z m 5.8125,0.911581 c 2.064497,0 3.628972,0.388477 4.78125,1.215441 1.872451,1.313415 2.874999,3.419992 2.874999,6.046821 0,2.870053 -0.993031,4.903663 -2.937499,6.04682 -1.224295,0.705351 -2.630247,1.002739 -4.71875,1.002739 -0.960231,0 -1.250001,-0.224419 -1.250001,-1.002739 l 0,-12.367115 c 0,-0.753996 0.265764,-0.941967 1.250001,-0.941967 z M 72.375,22.655771 l 0,0.486177 c 1.477689,0.145934 1.741648,0.48522 1.741648,2.187794 l 0,10.787041 c 0,1.702573 -0.283928,2.066182 -1.741648,2.187794 l 0,0.455791 10.73583,0 0.961805,-4.223659 -0.4939,0 c -0.339469,0.924255 -0.636279,1.500838 -0.935811,1.91432 -0.698907,0.948577 -1.773898,1.367372 -3.431306,1.367372 l -1.351727,0 c -1.45772,0 -1.715653,-0.151452 -1.715653,-1.002739 l 0,-11.48592 c 0,-1.726896 0.268094,-2.066182 1.845627,-2.187794 l 0,-0.486177 -5.614865,0 z m -16.990709,0 0,0.486177 c 1.800433,0.194579 2.03125,0.460898 2.03125,2.187794 l 0,10.513567 c 0,2.018766 -0.230817,2.315334 -2.03125,2.461268 l 0,0.455791 6.625,0 0,-0.455791 c -1.848445,-0.121612 -2.15625,-0.436576 -2.15625,-2.187794 l 0,-4.800993 2.159949,-0.03039 4.902551,7.474964 3.875,0 0,-0.455791 c -0.91222,-0.07297 -1.397582,-0.297318 -2.09375,-1.124283 l -4.141208,-6.327622 c 2.011692,-0.522713 3.516443,-1.839482 3.547458,-3.91247 0,-1.045867 -0.31335,-1.938233 -0.9375,-2.643585 -0.91222,-0.997222 -2.899707,-1.640846 -5.15625,-1.640846 z m 5.71875,0.911581 c 3.000722,0 4.375,1.05615 4.375,3.342464 0,1.216123 -0.510792,2.242229 -1.375,2.704356 -1.104266,0.632385 -1.945445,0.771778 -4.25,0.820423 l 0,-5.986048 c 0,-0.681029 0.289769,-0.881195 1.25,-0.881195 z M 44.581644,22.321525 c -5.012987,0 -8.575732,3.497726 -8.575732,8.386544 0,2.286313 0.837689,4.514572 2.254973,5.925276 1.522269,1.532317 3.840278,2.491655 6.149928,2.491655 5.170464,0 8.746563,-3.406568 8.746563,-8.295386 0,-2.407927 -0.74311,-4.496313 -2.186641,-5.955663 -1.653498,-1.678251 -3.869474,-2.552426 -6.389091,-2.552426 z m 0,0.881195 c 1.207317,0 2.403437,0.437121 3.348293,1.215441 1.417285,1.191801 2.254974,3.486691 2.254974,6.381067 0,1.435026 -0.363402,3.110819 -0.888322,4.375588 -0.236215,0.608062 -0.660494,1.202973 -1.264153,1.76239 -0.91861,0.851287 -2.128086,1.306599 -3.519124,1.306599 -1.207317,0 -2.361351,-0.431059 -3.279961,-1.185055 -1.364793,-1.118834 -2.254974,-3.590113 -2.254974,-6.289909 0,-2.480893 0.742646,-4.842891 1.844978,-5.986048 1.023594,-1.045866 2.314758,-1.580073 3.758289,-1.580073 z m 65.344976,-3.047391 -1.07199,5.438421 0.625,0 c 0.64308,-2.920668 1.73807,-3.4375 4.73912,-3.4375 l 1.4375,0 0,13.40625 c 0,2.277585 -0.27601,2.584774 -2.5,2.71875 l 0,0.5 7.8125,0 0,-0.5 c -2.1972,-0.10718 -2.5625,-0.450207 -2.5625,-2.40625 l 0,-13.71875 1.4375,0 c 3.05464,0 3.63371,0.490037 4.25,3.4375 l 0.65625,0 0.28171,-5.577772 c -1.08922,0.202035 -0.34421,1.00212 -7.47583,1.00212 -7.37009,0 -6.67,-0.48512 -7.62926,-0.862769 z m -94.186896,1.063171 -0.03125,0.5 c 1.421385,0.215535 2.056281,1.71184 2.504223,2.71875 l 6.184122,14.34375 0.4375,0 7.21875,-14.65625 c 0.731631,-1.485433 1.352183,-2.347514 2.136824,-2.40625 l 0.03125,-0.5 -4.98339,0 -0.03125,0.5 c 1.429355,-0.02392 1.904863,1.383406 1.096566,3 l -4.78125,9.5625 -3.684122,-8.8125 c -0.71604,-1.582394 -1.198171,-2.585495 -1.0625,-2.90625 0.247303,-0.584677 0.442705,-0.797862 1.320946,-0.829673 l 0,-0.5 z m -8.114724,2.5e-4 -0.03125,0.5 c 0.7380996,0.03479 1.2722242,0.200873 1.625,0.53125 0.3731458,0.31302 0.838762,1.039834 1.34375,2.1875 L 17,38.78125 l 0.4375,0 7.21875,-14.65625 c 0.520647,-1.025942 0.943442,-1.659258 1.25,-1.9375 0.32599,-0.278209 0.840232,-0.433955 1.5625,-0.46875 l 0.03125,-0.5 -3.857264,0 -0.03125,0.5 c 0.62699,0.08869 0.103061,1.383406 -0.705236,3 l -4.78125,9.5625 -3.9375,-8.8125 c -0.71604,-1.582394 -1.198171,-2.585495 -1.0625,-2.90625 0.247303,-0.584677 0.442705,-0.797862 1.320946,-0.829673 l 0,-0.5 z"
      id="path4777-8"
      style="fill:#000000;fill-opacity:1;stroke:none;"
  />
  <path
      d="m 240.16149,58.46686 -0.31851,6.848106 c 0,0 25.19078,-2.021757 46.1849,-19.748027 11.46114,-9.677148 9.31661,-25.242438 9.31661,-25.242438 0,0 -0.31852,14.731391 -22.61468,26.675762 -22.28787,11.939936 -32.56832,11.466597 -32.56832,11.466597 z m 13.77584,-50.803393 4.53887,3.74257 c 0,0 -10.43794,12.421912 -30.17945,13.457325 -13.7652,0.721964 -10.98882,-12.024001 -10.98882,-12.024001 0,0 4.09857,6.599885 12.58141,5.414782 C 240.7189,16.74119 254.17622,7.9819836 253.93733,7.663467 z"
      id="path4974"
      style="fill:#bb100e;fill-opacity:0.99607843;stroke:none;"
  />
  <path
      d="m 276.31312,61.492767 4.69812,3.822199 c 0,0 -15.52532,12.873933 -39.57568,13.457325 -21.49591,0.521429 -27.3128,-8.520319 -27.3128,-8.520319 0,0 12.42215,4.618491 29.70167,2.229616 17.27953,-2.388874 32.48869,-10.988821 32.48869,-10.988821 z m -42.68121,-31.453511 0.0796,6.370331 c 0,0 23.80818,0.105979 39.65531,-17.040636 9.14471,-9.8945823 -0.55933,-19.2165287 -2.86666,-19.27025251 0,0 5.18113,7.93140321 -3.26479,16.80174951 -5.96659,6.266424 -23.70601,12.851669 -33.60349,13.138808 z"
      id="path4976"
      style="fill:#042983;fill-opacity:0.99607843;stroke:none;"
  />
  <path
      d="m 258.07805,82.037086 -0.23889,6.290702 c 0,0 17.37941,0.552592 29.62205,-10.272159 10.98315,-9.711137 12.18325,-17.040637 12.34251,-26.436876 -0.79629,3.344424 -4.05592,15.154242 -20.54432,24.366518 -11.51854,6.435555 -21.18135,6.051815 -21.18135,6.051815 z m -53.11264,-40.84975 c 0,0 4.24822,12.67586 25.48133,11.227709 25.50417,-1.739447 39.3368,-14.492504 39.3368,-14.492504 l -4.3796,-4.61849 c 0,0 -16.56903,13.167843 -38.69977,13.696212 -16.65404,0.397614 -21.73876,-5.812927 -21.73876,-5.812927 z"
      id="path4978"
      style="fill:#007e17;fill-opacity:0.99607843;stroke:none;"
  />
</svg>
